%TF.GenerationSoftware,KiCad,Pcbnew,7.0.10*%
%TF.CreationDate,2024-07-18T14:31:58-06:00*%
%TF.ProjectId,Pressure-Controlled-Power-Outlet-control-PCB,50726573-7375-4726-952d-436f6e74726f,rev?*%
%TF.SameCoordinates,Original*%
%TF.FileFunction,Soldermask,Top*%
%TF.FilePolarity,Negative*%
%FSLAX46Y46*%
G04 Gerber Fmt 4.6, Leading zero omitted, Abs format (unit mm)*
G04 Created by KiCad (PCBNEW 7.0.10) date 2024-07-18 14:31:58*
%MOMM*%
%LPD*%
G01*
G04 APERTURE LIST*
%ADD10C,2.550000*%
%ADD11R,1.200000X1.200000*%
%ADD12C,1.200000*%
%ADD13O,1.800000X1.800000*%
%ADD14O,1.500000X1.500000*%
%ADD15O,1.700000X1.700000*%
%ADD16R,1.700000X3.500000*%
%ADD17R,1.700000X1.700000*%
%ADD18R,3.500000X1.700000*%
%ADD19C,1.600000*%
%ADD20O,1.600000X1.600000*%
%ADD21R,1.500000X1.050000*%
%ADD22O,1.500000X1.050000*%
%ADD23R,1.905000X2.000000*%
%ADD24O,1.905000X2.000000*%
%ADD25R,3.200000X3.200000*%
%ADD26O,3.200000X3.200000*%
%ADD27R,2.000000X1.905000*%
%ADD28O,2.000000X1.905000*%
%ADD29R,2.400000X1.600000*%
%ADD30O,2.400000X1.600000*%
%ADD31C,2.400000*%
%ADD32O,2.400000X2.400000*%
%ADD33C,3.000000*%
%ADD34R,2.540000X2.540000*%
%ADD35C,2.540000*%
%ADD36R,1.600000X1.600000*%
G04 APERTURE END LIST*
D10*
%TO.C,J2*%
X139759801Y-87475000D03*
X133409801Y-77975000D03*
%TD*%
D11*
%TO.C,C3*%
X135350000Y-100330000D03*
D12*
X133350000Y-100330000D03*
%TD*%
D13*
%TO.C,U1*%
X94110000Y-126815000D03*
X94110000Y-132265000D03*
D14*
X97140000Y-131965000D03*
X97140000Y-127115000D03*
D15*
X93980000Y-138430000D03*
D16*
X93980000Y-139330000D03*
D15*
X96520000Y-138430000D03*
D16*
X96520000Y-139330000D03*
X99060000Y-139330000D03*
D17*
X99060000Y-138430000D03*
D15*
X101600000Y-138430000D03*
D16*
X101600000Y-139330000D03*
D15*
X104140000Y-138430000D03*
D16*
X104140000Y-139330000D03*
D15*
X106680000Y-138430000D03*
D16*
X106680000Y-139330000D03*
X109220000Y-139330000D03*
D15*
X109220000Y-138430000D03*
D17*
X111760000Y-138430000D03*
D16*
X111760000Y-139330000D03*
X114300000Y-139330000D03*
D15*
X114300000Y-138430000D03*
X116840000Y-138430000D03*
D16*
X116840000Y-139330000D03*
X119380000Y-139330000D03*
D15*
X119380000Y-138430000D03*
X121920000Y-138430000D03*
D16*
X121920000Y-139330000D03*
D17*
X124460000Y-138430000D03*
D16*
X124460000Y-139330000D03*
X127000000Y-139330000D03*
D15*
X127000000Y-138430000D03*
X129540000Y-138430000D03*
D16*
X129540000Y-139330000D03*
X132080000Y-139330000D03*
D15*
X132080000Y-138430000D03*
D16*
X134620000Y-139330000D03*
D15*
X134620000Y-138430000D03*
D16*
X137160000Y-139330000D03*
D17*
X137160000Y-138430000D03*
D15*
X139700000Y-138430000D03*
D16*
X139700000Y-139330000D03*
X142240000Y-139330000D03*
D15*
X142240000Y-138430000D03*
D16*
X142240000Y-119750000D03*
D15*
X142240000Y-120650000D03*
D16*
X139700000Y-119750000D03*
D15*
X139700000Y-120650000D03*
D16*
X137160000Y-119750000D03*
D17*
X137160000Y-120650000D03*
D15*
X134620000Y-120650000D03*
D16*
X134620000Y-119750000D03*
X132080000Y-119750000D03*
D15*
X132080000Y-120650000D03*
D16*
X129540000Y-119750000D03*
D15*
X129540000Y-120650000D03*
X127000000Y-120650000D03*
D16*
X127000000Y-119750000D03*
D17*
X124460000Y-120650000D03*
D16*
X124460000Y-119750000D03*
D15*
X121920000Y-120650000D03*
D16*
X121920000Y-119750000D03*
X119380000Y-119750000D03*
D15*
X119380000Y-120650000D03*
X116840000Y-120650000D03*
D16*
X116840000Y-119750000D03*
D15*
X114300000Y-120650000D03*
D16*
X114300000Y-119750000D03*
X111760000Y-119750000D03*
D17*
X111760000Y-120650000D03*
D16*
X109220000Y-119750000D03*
D15*
X109220000Y-120650000D03*
D16*
X106680000Y-119750000D03*
D15*
X106680000Y-120650000D03*
X104140000Y-120650000D03*
D16*
X104140000Y-119750000D03*
X101600000Y-119750000D03*
D15*
X101600000Y-120650000D03*
D16*
X99060000Y-119750000D03*
D17*
X99060000Y-120650000D03*
D16*
X96520000Y-119750000D03*
D15*
X96520000Y-120650000D03*
X93980000Y-120650000D03*
D16*
X93980000Y-119750000D03*
D18*
X142910000Y-132080000D03*
D15*
X142010000Y-132080000D03*
D17*
X142010000Y-129540000D03*
D18*
X142910000Y-129540000D03*
D15*
X142010000Y-127000000D03*
D18*
X142910000Y-127000000D03*
%TD*%
D19*
%TO.C,R9*%
X151130000Y-105410000D03*
D20*
X153670000Y-105410000D03*
%TD*%
D19*
%TO.C,R8*%
X125730000Y-105410000D03*
D20*
X123190000Y-105410000D03*
%TD*%
D19*
%TO.C,R7*%
X118110000Y-93980000D03*
D20*
X118110000Y-96520000D03*
%TD*%
D19*
%TO.C,R6*%
X162560000Y-93980000D03*
D20*
X162560000Y-96520000D03*
%TD*%
D19*
%TO.C,R5*%
X156210000Y-96520000D03*
D20*
X156210000Y-93980000D03*
%TD*%
D19*
%TO.C,R4*%
X111760000Y-96520000D03*
D20*
X111760000Y-93980000D03*
%TD*%
D21*
%TO.C,Q4*%
X116840000Y-104140000D03*
D22*
X116840000Y-105410000D03*
X116840000Y-106680000D03*
%TD*%
D23*
%TO.C,Q3*%
X156210000Y-84765000D03*
D24*
X158750000Y-84765000D03*
X161290000Y-84765000D03*
%TD*%
D23*
%TO.C,Q2*%
X111760000Y-84765000D03*
D24*
X114300000Y-84765000D03*
X116840000Y-84765000D03*
%TD*%
D21*
%TO.C,Q1*%
X158750000Y-104140000D03*
D22*
X158750000Y-105410000D03*
X158750000Y-106680000D03*
%TD*%
D25*
%TO.C,D2*%
X181610000Y-105410000D03*
D26*
X166370000Y-105410000D03*
%TD*%
D25*
%TO.C,D1*%
X106680000Y-105410000D03*
D26*
X91440000Y-105410000D03*
%TD*%
D27*
%TO.C,U3*%
X141295000Y-102870000D03*
D28*
X141295000Y-105410000D03*
X141295000Y-107950000D03*
%TD*%
D29*
%TO.C,U2*%
X160035000Y-135895000D03*
D30*
X160035000Y-133355000D03*
X160035000Y-130815000D03*
X160035000Y-128275000D03*
X160035000Y-125735000D03*
X160035000Y-123195000D03*
X160035000Y-120655000D03*
X152415000Y-120655000D03*
X152415000Y-123195000D03*
X152415000Y-125735000D03*
X152415000Y-128275000D03*
X152415000Y-130815000D03*
X152415000Y-133355000D03*
X152415000Y-135895000D03*
%TD*%
D19*
%TO.C,R3*%
X114300000Y-113030000D03*
D20*
X116840000Y-113030000D03*
%TD*%
D31*
%TO.C,R2*%
X172085000Y-120760000D03*
D32*
X172085000Y-115680000D03*
%TD*%
D31*
%TO.C,R1*%
X172085000Y-131445000D03*
D32*
X172085000Y-126365000D03*
%TD*%
D33*
%TO.C,K2*%
X179060000Y-77190000D03*
X171440000Y-72150000D03*
D34*
X179060000Y-96090000D03*
D35*
X171440000Y-96090000D03*
%TD*%
D33*
%TO.C,K1*%
X102860000Y-77190000D03*
X95240000Y-72150000D03*
D34*
X102860000Y-96090000D03*
D35*
X95240000Y-96090000D03*
%TD*%
D15*
%TO.C,J1*%
X172695000Y-137145000D03*
X172695000Y-139685000D03*
D17*
X172695000Y-142225000D03*
%TD*%
D36*
%TO.C,C2*%
X134580000Y-107950000D03*
D19*
X132080000Y-107950000D03*
%TD*%
D36*
%TO.C,C1*%
X124460000Y-76200000D03*
D19*
X124460000Y-73700000D03*
%TD*%
M02*
