%TF.GenerationSoftware,KiCad,Pcbnew,7.0.10*%
%TF.CreationDate,2024-07-18T14:31:58-06:00*%
%TF.ProjectId,Pressure-Controlled-Power-Outlet-control-PCB,50726573-7375-4726-952d-436f6e74726f,rev?*%
%TF.SameCoordinates,Original*%
%TF.FileFunction,Copper,L4,Bot*%
%TF.FilePolarity,Positive*%
%FSLAX46Y46*%
G04 Gerber Fmt 4.6, Leading zero omitted, Abs format (unit mm)*
G04 Created by KiCad (PCBNEW 7.0.10) date 2024-07-18 14:31:58*
%MOMM*%
%LPD*%
G01*
G04 APERTURE LIST*
%TA.AperFunction,ComponentPad*%
%ADD10C,2.550000*%
%TD*%
%TA.AperFunction,ComponentPad*%
%ADD11R,1.200000X1.200000*%
%TD*%
%TA.AperFunction,ComponentPad*%
%ADD12C,1.200000*%
%TD*%
%TA.AperFunction,ComponentPad*%
%ADD13O,1.700000X1.700000*%
%TD*%
%TA.AperFunction,ComponentPad*%
%ADD14R,1.700000X1.700000*%
%TD*%
%TA.AperFunction,ComponentPad*%
%ADD15C,1.600000*%
%TD*%
%TA.AperFunction,ComponentPad*%
%ADD16O,1.600000X1.600000*%
%TD*%
%TA.AperFunction,ComponentPad*%
%ADD17R,1.500000X1.050000*%
%TD*%
%TA.AperFunction,ComponentPad*%
%ADD18O,1.500000X1.050000*%
%TD*%
%TA.AperFunction,ComponentPad*%
%ADD19R,1.905000X2.000000*%
%TD*%
%TA.AperFunction,ComponentPad*%
%ADD20O,1.905000X2.000000*%
%TD*%
%TA.AperFunction,ComponentPad*%
%ADD21R,3.200000X3.200000*%
%TD*%
%TA.AperFunction,ComponentPad*%
%ADD22O,3.200000X3.200000*%
%TD*%
%TA.AperFunction,ComponentPad*%
%ADD23R,2.000000X1.905000*%
%TD*%
%TA.AperFunction,ComponentPad*%
%ADD24O,2.000000X1.905000*%
%TD*%
%TA.AperFunction,ComponentPad*%
%ADD25R,2.400000X1.600000*%
%TD*%
%TA.AperFunction,ComponentPad*%
%ADD26O,2.400000X1.600000*%
%TD*%
%TA.AperFunction,ComponentPad*%
%ADD27C,2.400000*%
%TD*%
%TA.AperFunction,ComponentPad*%
%ADD28O,2.400000X2.400000*%
%TD*%
%TA.AperFunction,ComponentPad*%
%ADD29C,3.000000*%
%TD*%
%TA.AperFunction,ComponentPad*%
%ADD30R,2.540000X2.540000*%
%TD*%
%TA.AperFunction,ComponentPad*%
%ADD31C,2.540000*%
%TD*%
%TA.AperFunction,ComponentPad*%
%ADD32R,1.600000X1.600000*%
%TD*%
%TA.AperFunction,Conductor*%
%ADD33C,0.250000*%
%TD*%
G04 APERTURE END LIST*
D10*
%TO.P,J2,1,1*%
%TO.N,GND*%
X139759801Y-87475000D03*
%TO.P,J2,2,2*%
%TO.N,+24V*%
X133409801Y-77975000D03*
%TD*%
D11*
%TO.P,C3,1*%
%TO.N,+24V*%
X135350000Y-100330000D03*
D12*
%TO.P,C3,2*%
%TO.N,GND*%
X133350000Y-100330000D03*
%TD*%
D13*
%TO.P,U1,1,GPIO0*%
%TO.N,/Activate_Live*%
X93980000Y-138430000D03*
%TO.P,U1,2,GPIO1*%
%TO.N,/Activate_Neutral*%
X96520000Y-138430000D03*
D14*
%TO.P,U1,3,GND*%
%TO.N,GND*%
X99060000Y-138430000D03*
D13*
%TO.P,U1,4,GPIO2*%
%TO.N,unconnected-(U1-GPIO2-Pad4)*%
X101600000Y-138430000D03*
%TO.P,U1,5,GPIO3*%
%TO.N,unconnected-(U1-GPIO3-Pad5)*%
X104140000Y-138430000D03*
%TO.P,U1,6,GPIO4*%
%TO.N,unconnected-(U1-GPIO4-Pad6)*%
X106680000Y-138430000D03*
%TO.P,U1,7,GPIO5*%
%TO.N,unconnected-(U1-GPIO5-Pad7)*%
X109220000Y-138430000D03*
D14*
%TO.P,U1,8,GND*%
%TO.N,GND*%
X111760000Y-138430000D03*
D13*
%TO.P,U1,9,GPIO6*%
%TO.N,unconnected-(U1-GPIO6-Pad9)*%
X114300000Y-138430000D03*
%TO.P,U1,10,GPIO7*%
%TO.N,unconnected-(U1-GPIO7-Pad10)*%
X116840000Y-138430000D03*
%TO.P,U1,11,GPIO8*%
%TO.N,unconnected-(U1-GPIO8-Pad11)*%
X119380000Y-138430000D03*
%TO.P,U1,12,GPIO9*%
%TO.N,unconnected-(U1-GPIO9-Pad12)*%
X121920000Y-138430000D03*
D14*
%TO.P,U1,13,GND*%
%TO.N,GND*%
X124460000Y-138430000D03*
D13*
%TO.P,U1,14,GPIO10*%
%TO.N,unconnected-(U1-GPIO10-Pad14)*%
X127000000Y-138430000D03*
%TO.P,U1,15,GPIO11*%
%TO.N,unconnected-(U1-GPIO11-Pad15)*%
X129540000Y-138430000D03*
%TO.P,U1,16,GPIO12*%
%TO.N,unconnected-(U1-GPIO12-Pad16)*%
X132080000Y-138430000D03*
%TO.P,U1,17,GPIO13*%
%TO.N,unconnected-(U1-GPIO13-Pad17)*%
X134620000Y-138430000D03*
D14*
%TO.P,U1,18,GND*%
%TO.N,GND*%
X137160000Y-138430000D03*
D13*
%TO.P,U1,19,GPIO14*%
%TO.N,unconnected-(U1-GPIO14-Pad19)*%
X139700000Y-138430000D03*
%TO.P,U1,20,GPIO15*%
%TO.N,unconnected-(U1-GPIO15-Pad20)*%
X142240000Y-138430000D03*
%TO.P,U1,21,GPIO16*%
%TO.N,unconnected-(U1-GPIO16-Pad21)*%
X142240000Y-120650000D03*
%TO.P,U1,22,GPIO17*%
%TO.N,unconnected-(U1-GPIO17-Pad22)*%
X139700000Y-120650000D03*
D14*
%TO.P,U1,23,GND*%
%TO.N,GND*%
X137160000Y-120650000D03*
D13*
%TO.P,U1,24,GPIO18*%
%TO.N,unconnected-(U1-GPIO18-Pad24)*%
X134620000Y-120650000D03*
%TO.P,U1,25,GPIO19*%
%TO.N,unconnected-(U1-GPIO19-Pad25)*%
X132080000Y-120650000D03*
%TO.P,U1,26,GPIO20*%
%TO.N,unconnected-(U1-GPIO20-Pad26)*%
X129540000Y-120650000D03*
%TO.P,U1,27,GPIO21*%
%TO.N,unconnected-(U1-GPIO21-Pad27)*%
X127000000Y-120650000D03*
D14*
%TO.P,U1,28,GND*%
%TO.N,GND*%
X124460000Y-120650000D03*
D13*
%TO.P,U1,29,GPIO22*%
%TO.N,unconnected-(U1-GPIO22-Pad29)*%
X121920000Y-120650000D03*
%TO.P,U1,30,RUN*%
%TO.N,unconnected-(U1-RUN-Pad30)*%
X119380000Y-120650000D03*
%TO.P,U1,31,GPIO26_ADC0*%
%TO.N,/ADC0*%
X116840000Y-120650000D03*
%TO.P,U1,32,GPIO27_ADC1*%
%TO.N,unconnected-(U1-GPIO27_ADC1-Pad32)*%
X114300000Y-120650000D03*
D14*
%TO.P,U1,33,AGND*%
%TO.N,Net-(U1-AGND)*%
X111760000Y-120650000D03*
D13*
%TO.P,U1,34,GPIO28_ADC2*%
%TO.N,unconnected-(U1-GPIO28_ADC2-Pad34)*%
X109220000Y-120650000D03*
%TO.P,U1,35,ADC_VREF*%
%TO.N,/ADC_Ref*%
X106680000Y-120650000D03*
%TO.P,U1,36,3V3*%
%TO.N,unconnected-(U1-3V3-Pad36)*%
X104140000Y-120650000D03*
%TO.P,U1,37,3V3_EN*%
%TO.N,unconnected-(U1-3V3_EN-Pad37)*%
X101600000Y-120650000D03*
D14*
%TO.P,U1,38,GND*%
%TO.N,GND*%
X99060000Y-120650000D03*
D13*
%TO.P,U1,39,VSYS*%
%TO.N,unconnected-(U1-VSYS-Pad39)*%
X96520000Y-120650000D03*
%TO.P,U1,40,VBUS*%
%TO.N,+5V*%
X93980000Y-120650000D03*
%TO.P,U1,41,SWCLK*%
%TO.N,unconnected-(U1-SWCLK-Pad41)*%
X142010000Y-132080000D03*
D14*
%TO.P,U1,42,GND*%
%TO.N,GND*%
X142010000Y-129540000D03*
D13*
%TO.P,U1,43,SWDIO*%
%TO.N,unconnected-(U1-SWDIO-Pad43)*%
X142010000Y-127000000D03*
%TD*%
D15*
%TO.P,R9,1*%
%TO.N,/Activate_Neutral*%
X151130000Y-105410000D03*
D16*
%TO.P,R9,2*%
%TO.N,Net-(Q1-B)*%
X153670000Y-105410000D03*
%TD*%
D15*
%TO.P,R8,1*%
%TO.N,/Activate_Live*%
X125730000Y-105410000D03*
D16*
%TO.P,R8,2*%
%TO.N,Net-(Q4-B)*%
X123190000Y-105410000D03*
%TD*%
D15*
%TO.P,R7,1*%
%TO.N,GND*%
X118110000Y-93980000D03*
D16*
%TO.P,R7,2*%
%TO.N,Net-(Q4-E)*%
X118110000Y-96520000D03*
%TD*%
D15*
%TO.P,R6,1*%
%TO.N,GND*%
X162560000Y-93980000D03*
D16*
%TO.P,R6,2*%
%TO.N,Net-(Q1-E)*%
X162560000Y-96520000D03*
%TD*%
D15*
%TO.P,R5,1*%
%TO.N,Net-(Q1-E)*%
X156210000Y-96520000D03*
D16*
%TO.P,R5,2*%
%TO.N,Net-(Q3-G)*%
X156210000Y-93980000D03*
%TD*%
D15*
%TO.P,R4,1*%
%TO.N,Net-(Q4-E)*%
X111760000Y-96520000D03*
D16*
%TO.P,R4,2*%
%TO.N,Net-(Q2-G)*%
X111760000Y-93980000D03*
%TD*%
D17*
%TO.P,Q4,1,E*%
%TO.N,Net-(Q4-E)*%
X116840000Y-104140000D03*
D18*
%TO.P,Q4,2,B*%
%TO.N,Net-(Q4-B)*%
X116840000Y-105410000D03*
%TO.P,Q4,3,C*%
%TO.N,+5V*%
X116840000Y-106680000D03*
%TD*%
D19*
%TO.P,Q3,1,G*%
%TO.N,Net-(Q3-G)*%
X156210000Y-84765000D03*
D20*
%TO.P,Q3,2,D*%
%TO.N,Net-(D2-A)*%
X158750000Y-84765000D03*
%TO.P,Q3,3,S*%
%TO.N,GND*%
X161290000Y-84765000D03*
%TD*%
D19*
%TO.P,Q2,1,G*%
%TO.N,Net-(Q2-G)*%
X111760000Y-84765000D03*
D20*
%TO.P,Q2,2,D*%
%TO.N,Net-(D1-A)*%
X114300000Y-84765000D03*
%TO.P,Q2,3,S*%
%TO.N,GND*%
X116840000Y-84765000D03*
%TD*%
D17*
%TO.P,Q1,1,E*%
%TO.N,Net-(Q1-E)*%
X158750000Y-104140000D03*
D18*
%TO.P,Q1,2,B*%
%TO.N,Net-(Q1-B)*%
X158750000Y-105410000D03*
%TO.P,Q1,3,C*%
%TO.N,+5V*%
X158750000Y-106680000D03*
%TD*%
D21*
%TO.P,D2,1,K*%
%TO.N,+24V*%
X181610000Y-105410000D03*
D22*
%TO.P,D2,2,A*%
%TO.N,Net-(D2-A)*%
X166370000Y-105410000D03*
%TD*%
D21*
%TO.P,D1,1,K*%
%TO.N,+24V*%
X106680000Y-105410000D03*
D22*
%TO.P,D1,2,A*%
%TO.N,Net-(D1-A)*%
X91440000Y-105410000D03*
%TD*%
D23*
%TO.P,U3,1,VI*%
%TO.N,+24V*%
X141295000Y-102870000D03*
D24*
%TO.P,U3,2,GND*%
%TO.N,GND*%
X141295000Y-105410000D03*
%TO.P,U3,3,VO*%
%TO.N,+5V*%
X141295000Y-107950000D03*
%TD*%
D25*
%TO.P,U2,1*%
%TO.N,/ADC0*%
X160035000Y-135895000D03*
D26*
%TO.P,U2,2,-*%
X160035000Y-133355000D03*
%TO.P,U2,3,+*%
%TO.N,Net-(U2A-+)*%
X160035000Y-130815000D03*
%TO.P,U2,4*%
%TO.N,N/C*%
X160035000Y-128275000D03*
%TO.P,U2,5*%
X160035000Y-125735000D03*
%TO.P,U2,6*%
X160035000Y-123195000D03*
%TO.P,U2,7*%
X160035000Y-120655000D03*
%TO.P,U2,8*%
X152415000Y-120655000D03*
%TO.P,U2,9*%
X152415000Y-123195000D03*
%TO.P,U2,10*%
X152415000Y-125735000D03*
%TO.P,U2,11*%
X152415000Y-128275000D03*
%TO.P,U2,12*%
X152415000Y-130815000D03*
%TO.P,U2,13*%
X152415000Y-133355000D03*
%TO.P,U2,14*%
X152415000Y-135895000D03*
%TD*%
D15*
%TO.P,R3,1*%
%TO.N,Net-(U1-AGND)*%
X114300000Y-113030000D03*
D16*
%TO.P,R3,2*%
%TO.N,GND*%
X116840000Y-113030000D03*
%TD*%
D27*
%TO.P,R2,1*%
%TO.N,Net-(U2A-+)*%
X172085000Y-120760000D03*
D28*
%TO.P,R2,2*%
%TO.N,GND*%
X172085000Y-115680000D03*
%TD*%
D27*
%TO.P,R1,1*%
%TO.N,/Water Pressure 5V*%
X172085000Y-131445000D03*
D28*
%TO.P,R1,2*%
%TO.N,Net-(U2A-+)*%
X172085000Y-126365000D03*
%TD*%
D29*
%TO.P,K2,11*%
%TO.N,unconnected-(K2-Pad11)*%
X179060000Y-77190000D03*
%TO.P,K2,14*%
%TO.N,unconnected-(K2-Pad14)*%
X171440000Y-72150000D03*
D30*
%TO.P,K2,A1*%
%TO.N,+24V*%
X179060000Y-96090000D03*
D31*
%TO.P,K2,A2*%
%TO.N,Net-(D2-A)*%
X171440000Y-96090000D03*
%TD*%
D29*
%TO.P,K1,11*%
%TO.N,unconnected-(K1-Pad11)*%
X102860000Y-77190000D03*
%TO.P,K1,14*%
%TO.N,unconnected-(K1-Pad14)*%
X95240000Y-72150000D03*
D30*
%TO.P,K1,A1*%
%TO.N,+24V*%
X102860000Y-96090000D03*
D31*
%TO.P,K1,A2*%
%TO.N,Net-(D1-A)*%
X95240000Y-96090000D03*
%TD*%
D13*
%TO.P,J1,3,Pin_3*%
%TO.N,GND*%
X172695000Y-137145000D03*
%TO.P,J1,2,Pin_2*%
%TO.N,/Water Pressure 5V*%
X172695000Y-139685000D03*
D14*
%TO.P,J1,1,Pin_1*%
%TO.N,+5V*%
X172695000Y-142225000D03*
%TD*%
D32*
%TO.P,C2,1*%
%TO.N,+5V*%
X134580000Y-107950000D03*
D15*
%TO.P,C2,2*%
%TO.N,GND*%
X132080000Y-107950000D03*
%TD*%
D32*
%TO.P,C1,1*%
%TO.N,+24V*%
X124460000Y-76200000D03*
D15*
%TO.P,C1,2*%
%TO.N,GND*%
X124460000Y-73700000D03*
%TD*%
D33*
%TO.N,/Activate_Live*%
X91440000Y-135890000D02*
X93980000Y-138430000D01*
X91440000Y-115570000D02*
X91440000Y-135890000D01*
X121920000Y-110490000D02*
X96520000Y-110490000D01*
X96520000Y-110490000D02*
X91440000Y-115570000D01*
X125730000Y-106680000D02*
X121920000Y-110490000D01*
X125730000Y-105410000D02*
X125730000Y-106680000D01*
%TO.N,Net-(Q4-E)*%
X111760000Y-99060000D02*
X116840000Y-104140000D01*
X111760000Y-96520000D02*
X111760000Y-99060000D01*
X118110000Y-102870000D02*
X118110000Y-96520000D01*
X116840000Y-104140000D02*
X118110000Y-102870000D01*
%TO.N,/Activate_Neutral*%
X99060000Y-135890000D02*
X96520000Y-138430000D01*
X148590000Y-130810000D02*
X143510000Y-135890000D01*
X143510000Y-135890000D02*
X99060000Y-135890000D01*
X151130000Y-105410000D02*
X148590000Y-107950000D01*
X148590000Y-107950000D02*
X148590000Y-130810000D01*
%TD*%
M02*
