%TF.GenerationSoftware,KiCad,Pcbnew,7.0.10*%
%TF.CreationDate,2024-07-20T16:55:26-06:00*%
%TF.ProjectId,Pressure-Controlled-Power-Outlet-control-PCB,50726573-7375-4726-952d-436f6e74726f,V1.2.3*%
%TF.SameCoordinates,Original*%
%TF.FileFunction,Drillmap*%
%TF.FilePolarity,Positive*%
%FSLAX45Y45*%
G04 Gerber Fmt 4.5, Leading zero omitted, Abs format (unit mm)*
G04 Created by KiCad (PCBNEW 7.0.10) date 2024-07-20 16:55:26*
%MOMM*%
%LPD*%
G01*
G04 APERTURE LIST*
%ADD10C,0.100000*%
%ADD11C,0.200000*%
%ADD12C,0.102000*%
%ADD13C,0.110000*%
%ADD14C,0.160000*%
%ADD15C,0.170000*%
%ADD16C,0.210000*%
%ADD17C,0.220000*%
G04 APERTURE END LIST*
D10*
X8636000Y-5588000D02*
X18669000Y-5588000D01*
X18669000Y-15621000D01*
X8636000Y-15621000D01*
X8636000Y-5588000D01*
D11*
D10*
X13297500Y-9233500D02*
X13372500Y-9308500D01*
X13372500Y-9233500D02*
X13297500Y-9308500D01*
X13424500Y-9233500D02*
X13499500Y-9308500D01*
X13499500Y-9233500D02*
X13424500Y-9308500D01*
X13551500Y-9233500D02*
X13626500Y-9308500D01*
X13626500Y-9233500D02*
X13551500Y-9308500D01*
X14821500Y-11265500D02*
X14896500Y-11340500D01*
X14896500Y-11265500D02*
X14821500Y-11340500D01*
X14948500Y-11265500D02*
X15023500Y-11340500D01*
X15023500Y-11265500D02*
X14948500Y-11340500D01*
X15075500Y-11265500D02*
X15150500Y-11340500D01*
X15150500Y-11265500D02*
X15075500Y-11340500D01*
X15329500Y-9106500D02*
X15404500Y-9181500D01*
X15404500Y-9106500D02*
X15329500Y-9181500D01*
X15329500Y-9233500D02*
X15404500Y-9308500D01*
X15404500Y-9233500D02*
X15329500Y-9308500D01*
X15329500Y-9360500D02*
X15404500Y-9435500D01*
X15404500Y-9360500D02*
X15329500Y-9435500D01*
X15710500Y-13297500D02*
X15785500Y-13372500D01*
X15785500Y-13297500D02*
X15710500Y-13372500D01*
X15837500Y-13297500D02*
X15912500Y-13372500D01*
X15912500Y-13297500D02*
X15837500Y-13372500D01*
X15964500Y-13297500D02*
X16039500Y-13372500D01*
X16039500Y-13297500D02*
X15964500Y-13372500D01*
X16472500Y-10757500D02*
X16547500Y-10832500D01*
X16547500Y-10757500D02*
X16472500Y-10832500D01*
X16599500Y-10757500D02*
X16674500Y-10832500D01*
X16674500Y-10757500D02*
X16599500Y-10832500D01*
X16726500Y-10757500D02*
X16801500Y-10832500D01*
X16801500Y-10757500D02*
X16726500Y-10832500D01*
X17107500Y-11519500D02*
X17182500Y-11594500D01*
X17182500Y-11519500D02*
X17107500Y-11594500D01*
X17234500Y-11519500D02*
X17309500Y-11594500D01*
X17309500Y-11519500D02*
X17234500Y-11594500D01*
X17361500Y-11519500D02*
X17436500Y-11594500D01*
X17436500Y-11519500D02*
X17361500Y-11594500D01*
X9565000Y-10331365D02*
G75*
G03*
X9485000Y-10331365I-40000J0D01*
G01*
X9485000Y-10331365D02*
G75*
G03*
X9565000Y-10331365I40000J0D01*
G01*
X9819000Y-10331365D02*
G75*
G03*
X9739000Y-10331365I-40000J0D01*
G01*
X9739000Y-10331365D02*
G75*
G03*
X9819000Y-10331365I40000J0D01*
G01*
X10453500Y-10161500D02*
G75*
G03*
X10373500Y-10161500I-40000J0D01*
G01*
X10373500Y-10161500D02*
G75*
G03*
X10453500Y-10161500I40000J0D01*
G01*
X10453500Y-10923500D02*
G75*
G03*
X10373500Y-10923500I-40000J0D01*
G01*
X10373500Y-10923500D02*
G75*
G03*
X10453500Y-10923500I40000J0D01*
G01*
X10707500Y-10161500D02*
G75*
G03*
X10627500Y-10161500I-40000J0D01*
G01*
X10627500Y-10161500D02*
G75*
G03*
X10707500Y-10161500I40000J0D01*
G01*
X10707500Y-10923500D02*
G75*
G03*
X10627500Y-10923500I-40000J0D01*
G01*
X10627500Y-10923500D02*
G75*
G03*
X10707500Y-10923500I40000J0D01*
G01*
X10835000Y-11303000D02*
G75*
G03*
X10755000Y-11303000I-40000J0D01*
G01*
X10755000Y-11303000D02*
G75*
G03*
X10835000Y-11303000I40000J0D01*
G01*
X10961500Y-10161500D02*
G75*
G03*
X10881500Y-10161500I-40000J0D01*
G01*
X10881500Y-10161500D02*
G75*
G03*
X10961500Y-10161500I40000J0D01*
G01*
X10961500Y-10923500D02*
G75*
G03*
X10881500Y-10923500I-40000J0D01*
G01*
X10881500Y-10923500D02*
G75*
G03*
X10961500Y-10923500I40000J0D01*
G01*
X11089000Y-11303000D02*
G75*
G03*
X11009000Y-11303000I-40000J0D01*
G01*
X11009000Y-11303000D02*
G75*
G03*
X11089000Y-11303000I40000J0D01*
G01*
X11215500Y-10161500D02*
G75*
G03*
X11135500Y-10161500I-40000J0D01*
G01*
X11135500Y-10161500D02*
G75*
G03*
X11215500Y-10161500I40000J0D01*
G01*
X11215500Y-10923500D02*
G75*
G03*
X11135500Y-10923500I-40000J0D01*
G01*
X11135500Y-10923500D02*
G75*
G03*
X11215500Y-10923500I40000J0D01*
G01*
X11469500Y-10161500D02*
G75*
G03*
X11389500Y-10161500I-40000J0D01*
G01*
X11389500Y-10161500D02*
G75*
G03*
X11469500Y-10161500I40000J0D01*
G01*
X11469500Y-10923500D02*
G75*
G03*
X11389500Y-10923500I-40000J0D01*
G01*
X11389500Y-10923500D02*
G75*
G03*
X11469500Y-10923500I40000J0D01*
G01*
X11723500Y-10161500D02*
G75*
G03*
X11643500Y-10161500I-40000J0D01*
G01*
X11643500Y-10161500D02*
G75*
G03*
X11723500Y-10161500I40000J0D01*
G01*
X11723500Y-10923500D02*
G75*
G03*
X11643500Y-10923500I-40000J0D01*
G01*
X11643500Y-10923500D02*
G75*
G03*
X11723500Y-10923500I40000J0D01*
G01*
X11977500Y-10161500D02*
G75*
G03*
X11897500Y-10161500I-40000J0D01*
G01*
X11897500Y-10161500D02*
G75*
G03*
X11977500Y-10161500I40000J0D01*
G01*
X11977500Y-10923500D02*
G75*
G03*
X11897500Y-10923500I-40000J0D01*
G01*
X11897500Y-10923500D02*
G75*
G03*
X11977500Y-10923500I40000J0D01*
G01*
X11978000Y-9144000D02*
G75*
G03*
X11898000Y-9144000I-40000J0D01*
G01*
X11898000Y-9144000D02*
G75*
G03*
X11978000Y-9144000I40000J0D01*
G01*
X11978000Y-9398000D02*
G75*
G03*
X11898000Y-9398000I-40000J0D01*
G01*
X11898000Y-9398000D02*
G75*
G03*
X11978000Y-9398000I40000J0D01*
G01*
X12232000Y-6985000D02*
G75*
G03*
X12152000Y-6985000I-40000J0D01*
G01*
X12152000Y-6985000D02*
G75*
G03*
X12232000Y-6985000I40000J0D01*
G01*
X12359000Y-11303000D02*
G75*
G03*
X12279000Y-11303000I-40000J0D01*
G01*
X12279000Y-11303000D02*
G75*
G03*
X12359000Y-11303000I40000J0D01*
G01*
X12582000Y-6985000D02*
G75*
G03*
X12502000Y-6985000I-40000J0D01*
G01*
X12502000Y-6985000D02*
G75*
G03*
X12582000Y-6985000I40000J0D01*
G01*
X12613000Y-11303000D02*
G75*
G03*
X12533000Y-11303000I-40000J0D01*
G01*
X12533000Y-11303000D02*
G75*
G03*
X12613000Y-11303000I40000J0D01*
G01*
X12994000Y-9144000D02*
G75*
G03*
X12914000Y-9144000I-40000J0D01*
G01*
X12914000Y-9144000D02*
G75*
G03*
X12994000Y-9144000I40000J0D01*
G01*
X12994000Y-9398000D02*
G75*
G03*
X12914000Y-9398000I-40000J0D01*
G01*
X12914000Y-9398000D02*
G75*
G03*
X12994000Y-9398000I40000J0D01*
G01*
X12994000Y-9906000D02*
G75*
G03*
X12914000Y-9906000I-40000J0D01*
G01*
X12914000Y-9906000D02*
G75*
G03*
X12994000Y-9906000I40000J0D01*
G01*
X13248000Y-9906000D02*
G75*
G03*
X13168000Y-9906000I-40000J0D01*
G01*
X13168000Y-9906000D02*
G75*
G03*
X13248000Y-9906000I40000J0D01*
G01*
X13429000Y-10922000D02*
G75*
G03*
X13349000Y-10922000I-40000J0D01*
G01*
X13349000Y-10922000D02*
G75*
G03*
X13429000Y-10922000I40000J0D01*
G01*
X13506000Y-10160000D02*
G75*
G03*
X13426000Y-10160000I-40000J0D01*
G01*
X13426000Y-10160000D02*
G75*
G03*
X13506000Y-10160000I40000J0D01*
G01*
X13629000Y-10922000D02*
G75*
G03*
X13549000Y-10922000I-40000J0D01*
G01*
X13549000Y-10922000D02*
G75*
G03*
X13629000Y-10922000I40000J0D01*
G01*
X13756000Y-10160000D02*
G75*
G03*
X13676000Y-10160000I-40000J0D01*
G01*
X13676000Y-10160000D02*
G75*
G03*
X13756000Y-10160000I40000J0D01*
G01*
X14391000Y-14986000D02*
G75*
G03*
X14311000Y-14986000I-40000J0D01*
G01*
X14311000Y-14986000D02*
G75*
G03*
X14391000Y-14986000I40000J0D01*
G01*
X14518000Y-8382000D02*
G75*
G03*
X14438000Y-8382000I-40000J0D01*
G01*
X14438000Y-8382000D02*
G75*
G03*
X14518000Y-8382000I40000J0D01*
G01*
X14518000Y-8636000D02*
G75*
G03*
X14438000Y-8636000I-40000J0D01*
G01*
X14438000Y-8636000D02*
G75*
G03*
X14518000Y-8636000I40000J0D01*
G01*
X14645000Y-14986000D02*
G75*
G03*
X14565000Y-14986000I-40000J0D01*
G01*
X14565000Y-14986000D02*
G75*
G03*
X14645000Y-14986000I40000J0D01*
G01*
X14899000Y-9271000D02*
G75*
G03*
X14819000Y-9271000I-40000J0D01*
G01*
X14819000Y-9271000D02*
G75*
G03*
X14899000Y-9271000I40000J0D01*
G01*
X14899000Y-9525000D02*
G75*
G03*
X14819000Y-9525000I-40000J0D01*
G01*
X14819000Y-9525000D02*
G75*
G03*
X14899000Y-9525000I40000J0D01*
G01*
X14899000Y-12192000D02*
G75*
G03*
X14819000Y-12192000I-40000J0D01*
G01*
X14819000Y-12192000D02*
G75*
G03*
X14899000Y-12192000I40000J0D01*
G01*
X14899000Y-12446000D02*
G75*
G03*
X14819000Y-12446000I-40000J0D01*
G01*
X14819000Y-12446000D02*
G75*
G03*
X14899000Y-12446000I40000J0D01*
G01*
X15153000Y-13208000D02*
G75*
G03*
X15073000Y-13208000I-40000J0D01*
G01*
X15073000Y-13208000D02*
G75*
G03*
X15153000Y-13208000I40000J0D01*
G01*
X15153000Y-13462000D02*
G75*
G03*
X15073000Y-13462000I-40000J0D01*
G01*
X15073000Y-13462000D02*
G75*
G03*
X15153000Y-13462000I40000J0D01*
G01*
X15407000Y-8255000D02*
G75*
G03*
X15327000Y-8255000I-40000J0D01*
G01*
X15327000Y-8255000D02*
G75*
G03*
X15407000Y-8255000I40000J0D01*
G01*
X15407000Y-8509000D02*
G75*
G03*
X15327000Y-8509000I-40000J0D01*
G01*
X15327000Y-8509000D02*
G75*
G03*
X15407000Y-8509000I40000J0D01*
G01*
X15788000Y-11049000D02*
G75*
G03*
X15708000Y-11049000I-40000J0D01*
G01*
X15708000Y-11049000D02*
G75*
G03*
X15788000Y-11049000I40000J0D01*
G01*
X15788000Y-11684000D02*
G75*
G03*
X15708000Y-11684000I-40000J0D01*
G01*
X15708000Y-11684000D02*
G75*
G03*
X15788000Y-11684000I40000J0D01*
G01*
X16042000Y-11049000D02*
G75*
G03*
X15962000Y-11049000I-40000J0D01*
G01*
X15962000Y-11049000D02*
G75*
G03*
X16042000Y-11049000I40000J0D01*
G01*
X16042000Y-11684000D02*
G75*
G03*
X15962000Y-11684000I-40000J0D01*
G01*
X15962000Y-11684000D02*
G75*
G03*
X16042000Y-11684000I40000J0D01*
G01*
X16296000Y-14732000D02*
G75*
G03*
X16216000Y-14732000I-40000J0D01*
G01*
X16216000Y-14732000D02*
G75*
G03*
X16296000Y-14732000I40000J0D01*
G01*
X16296000Y-14986000D02*
G75*
G03*
X16216000Y-14986000I-40000J0D01*
G01*
X16216000Y-14986000D02*
G75*
G03*
X16296000Y-14986000I40000J0D01*
G01*
X16550000Y-13208000D02*
G75*
G03*
X16470000Y-13208000I-40000J0D01*
G01*
X16470000Y-13208000D02*
G75*
G03*
X16550000Y-13208000I40000J0D01*
G01*
X16550000Y-13462000D02*
G75*
G03*
X16470000Y-13462000I-40000J0D01*
G01*
X16470000Y-13462000D02*
G75*
G03*
X16550000Y-13462000I40000J0D01*
G01*
X16677000Y-11811000D02*
G75*
G03*
X16597000Y-11811000I-40000J0D01*
G01*
X16597000Y-11811000D02*
G75*
G03*
X16677000Y-11811000I40000J0D01*
G01*
X16677000Y-12065000D02*
G75*
G03*
X16597000Y-12065000I-40000J0D01*
G01*
X16597000Y-12065000D02*
G75*
G03*
X16677000Y-12065000I40000J0D01*
G01*
X9144000Y-10491000D02*
X9144000Y-10591000D01*
X9094000Y-10541000D02*
X9194000Y-10541000D01*
X9144000Y-10745000D02*
X9144000Y-10845000D01*
X9094000Y-10795000D02*
X9194000Y-10795000D01*
X9144000Y-10999000D02*
X9144000Y-11099000D01*
X9094000Y-11049000D02*
X9194000Y-11049000D01*
X10287000Y-14936000D02*
X10287000Y-15036000D01*
X10237000Y-14986000D02*
X10337000Y-14986000D01*
X10541000Y-14936000D02*
X10541000Y-15036000D01*
X10491000Y-14986000D02*
X10591000Y-14986000D01*
X10795000Y-14936000D02*
X10795000Y-15036000D01*
X10745000Y-14986000D02*
X10845000Y-14986000D01*
X11049000Y-14936000D02*
X11049000Y-15036000D01*
X10999000Y-14986000D02*
X11099000Y-14986000D01*
X11303000Y-14936000D02*
X11303000Y-15036000D01*
X11253000Y-14986000D02*
X11353000Y-14986000D01*
X11557000Y-14936000D02*
X11557000Y-15036000D01*
X11507000Y-14986000D02*
X11607000Y-14986000D01*
X12827500Y-14936000D02*
X12827500Y-15036000D01*
X12777500Y-14986000D02*
X12877500Y-14986000D01*
X13081500Y-14936000D02*
X13081500Y-15036000D01*
X13031500Y-14986000D02*
X13131500Y-14986000D01*
X13335500Y-14936000D02*
X13335500Y-15036000D01*
X13285500Y-14986000D02*
X13385500Y-14986000D01*
X13589500Y-14936000D02*
X13589500Y-15036000D01*
X13539500Y-14986000D02*
X13639500Y-14986000D01*
X13843500Y-14936000D02*
X13843500Y-15036000D01*
X13793500Y-14986000D02*
X13893500Y-14986000D01*
X17526000Y-13285000D02*
X17526000Y-13385000D01*
X17476000Y-13335000D02*
X17576000Y-13335000D01*
X17526000Y-13920000D02*
X17526000Y-14020000D01*
X17476000Y-13970000D02*
X17576000Y-13970000D01*
X17780000Y-13285000D02*
X17780000Y-13385000D01*
X17730000Y-13335000D02*
X17830000Y-13335000D01*
X17780000Y-13920000D02*
X17780000Y-14020000D01*
X17730000Y-13970000D02*
X17830000Y-13970000D01*
X18034000Y-13285000D02*
X18034000Y-13385000D01*
X17984000Y-13335000D02*
X18084000Y-13335000D01*
X18034000Y-13920000D02*
X18034000Y-14020000D01*
X17984000Y-13970000D02*
X18084000Y-13970000D01*
D12*
X9434063Y-12101063D02*
X9434063Y-12028937D01*
X9361937Y-12028937D01*
X9361937Y-12101063D01*
X9434063Y-12101063D01*
X9434063Y-13879063D02*
X9434063Y-13806937D01*
X9361937Y-13806937D01*
X9361937Y-13879063D01*
X9434063Y-13879063D01*
X9688063Y-12101063D02*
X9688063Y-12028937D01*
X9615937Y-12028937D01*
X9615937Y-12101063D01*
X9688063Y-12101063D01*
X9688063Y-13879063D02*
X9688063Y-13806937D01*
X9615937Y-13806937D01*
X9615937Y-13879063D01*
X9688063Y-13879063D01*
X9942063Y-12101063D02*
X9942063Y-12028937D01*
X9869937Y-12028937D01*
X9869937Y-12101063D01*
X9942063Y-12101063D01*
X9942063Y-13879063D02*
X9942063Y-13806937D01*
X9869937Y-13806937D01*
X9869937Y-13879063D01*
X9942063Y-13879063D01*
X10196063Y-12101063D02*
X10196063Y-12028937D01*
X10123937Y-12028937D01*
X10123937Y-12101063D01*
X10196063Y-12101063D01*
X10196063Y-13879063D02*
X10196063Y-13806937D01*
X10123937Y-13806937D01*
X10123937Y-13879063D01*
X10196063Y-13879063D01*
X10450063Y-12101063D02*
X10450063Y-12028937D01*
X10377937Y-12028937D01*
X10377937Y-12101063D01*
X10450063Y-12101063D01*
X10450063Y-13879063D02*
X10450063Y-13806937D01*
X10377937Y-13806937D01*
X10377937Y-13879063D01*
X10450063Y-13879063D01*
X10704063Y-12101063D02*
X10704063Y-12028937D01*
X10631937Y-12028937D01*
X10631937Y-12101063D01*
X10704063Y-12101063D01*
X10704063Y-13879063D02*
X10704063Y-13806937D01*
X10631937Y-13806937D01*
X10631937Y-13879063D01*
X10704063Y-13879063D01*
X10958063Y-12101063D02*
X10958063Y-12028937D01*
X10885937Y-12028937D01*
X10885937Y-12101063D01*
X10958063Y-12101063D01*
X10958063Y-13879063D02*
X10958063Y-13806937D01*
X10885937Y-13806937D01*
X10885937Y-13879063D01*
X10958063Y-13879063D01*
X11212063Y-12101063D02*
X11212063Y-12028937D01*
X11139937Y-12028937D01*
X11139937Y-12101063D01*
X11212063Y-12101063D01*
X11212063Y-13879063D02*
X11212063Y-13806937D01*
X11139937Y-13806937D01*
X11139937Y-13879063D01*
X11212063Y-13879063D01*
X11466063Y-12101063D02*
X11466063Y-12028937D01*
X11393937Y-12028937D01*
X11393937Y-12101063D01*
X11466063Y-12101063D01*
X11466063Y-13879063D02*
X11466063Y-13806937D01*
X11393937Y-13806937D01*
X11393937Y-13879063D01*
X11466063Y-13879063D01*
X11720063Y-12101063D02*
X11720063Y-12028937D01*
X11647937Y-12028937D01*
X11647937Y-12101063D01*
X11720063Y-12101063D01*
X11720063Y-13879063D02*
X11720063Y-13806937D01*
X11647937Y-13806937D01*
X11647937Y-13879063D01*
X11720063Y-13879063D01*
X11974063Y-12101063D02*
X11974063Y-12028937D01*
X11901937Y-12028937D01*
X11901937Y-12101063D01*
X11974063Y-12101063D01*
X11974063Y-13879063D02*
X11974063Y-13806937D01*
X11901937Y-13806937D01*
X11901937Y-13879063D01*
X11974063Y-13879063D01*
X12228063Y-12101063D02*
X12228063Y-12028937D01*
X12155937Y-12028937D01*
X12155937Y-12101063D01*
X12228063Y-12101063D01*
X12228063Y-13879063D02*
X12228063Y-13806937D01*
X12155937Y-13806937D01*
X12155937Y-13879063D01*
X12228063Y-13879063D01*
X12482063Y-12101063D02*
X12482063Y-12028937D01*
X12409937Y-12028937D01*
X12409937Y-12101063D01*
X12482063Y-12101063D01*
X12482063Y-13879063D02*
X12482063Y-13806937D01*
X12409937Y-13806937D01*
X12409937Y-13879063D01*
X12482063Y-13879063D01*
X12736063Y-12101063D02*
X12736063Y-12028937D01*
X12663937Y-12028937D01*
X12663937Y-12101063D01*
X12736063Y-12101063D01*
X12736063Y-13879063D02*
X12736063Y-13806937D01*
X12663937Y-13806937D01*
X12663937Y-13879063D01*
X12736063Y-13879063D01*
X12990063Y-12101063D02*
X12990063Y-12028937D01*
X12917937Y-12028937D01*
X12917937Y-12101063D01*
X12990063Y-12101063D01*
X12990063Y-13879063D02*
X12990063Y-13806937D01*
X12917937Y-13806937D01*
X12917937Y-13879063D01*
X12990063Y-13879063D01*
X13244063Y-12101063D02*
X13244063Y-12028937D01*
X13171937Y-12028937D01*
X13171937Y-12101063D01*
X13244063Y-12101063D01*
X13244063Y-13879063D02*
X13244063Y-13806937D01*
X13171937Y-13806937D01*
X13171937Y-13879063D01*
X13244063Y-13879063D01*
X13498063Y-12101063D02*
X13498063Y-12028937D01*
X13425937Y-12028937D01*
X13425937Y-12101063D01*
X13498063Y-12101063D01*
X13498063Y-13879063D02*
X13498063Y-13806937D01*
X13425937Y-13806937D01*
X13425937Y-13879063D01*
X13498063Y-13879063D01*
X13752063Y-12101063D02*
X13752063Y-12028937D01*
X13679937Y-12028937D01*
X13679937Y-12101063D01*
X13752063Y-12101063D01*
X13752063Y-13879063D02*
X13752063Y-13806937D01*
X13679937Y-13806937D01*
X13679937Y-13879063D01*
X13752063Y-13879063D01*
X14006063Y-12101063D02*
X14006063Y-12028937D01*
X13933937Y-12028937D01*
X13933937Y-12101063D01*
X14006063Y-12101063D01*
X14006063Y-13879063D02*
X14006063Y-13806937D01*
X13933937Y-13806937D01*
X13933937Y-13879063D01*
X14006063Y-13879063D01*
X14237063Y-12736063D02*
X14237063Y-12663937D01*
X14164937Y-12663937D01*
X14164937Y-12736063D01*
X14237063Y-12736063D01*
X14237063Y-12990063D02*
X14237063Y-12917937D01*
X14164937Y-12917937D01*
X14164937Y-12990063D01*
X14237063Y-12990063D01*
X14237063Y-13244063D02*
X14237063Y-13171937D01*
X14164937Y-13171937D01*
X14164937Y-13244063D01*
X14237063Y-13244063D01*
X14260063Y-12101063D02*
X14260063Y-12028937D01*
X14187937Y-12028937D01*
X14187937Y-12101063D01*
X14260063Y-12101063D01*
X14260063Y-13879063D02*
X14260063Y-13806937D01*
X14187937Y-13806937D01*
X14187937Y-13879063D01*
X14260063Y-13879063D01*
X15022063Y-15022063D02*
X15022063Y-14949937D01*
X14949937Y-14949937D01*
X14949937Y-15022063D01*
X15022063Y-15022063D01*
X15276063Y-15022063D02*
X15276063Y-14949937D01*
X15203937Y-14949937D01*
X15203937Y-15022063D01*
X15276063Y-15022063D01*
X15530063Y-15022063D02*
X15530063Y-14949937D01*
X15457937Y-14949937D01*
X15457937Y-15022063D01*
X15530063Y-15022063D01*
X15784063Y-15022063D02*
X15784063Y-14949937D01*
X15711937Y-14949937D01*
X15711937Y-15022063D01*
X15784063Y-15022063D01*
X16800063Y-15052063D02*
X16800063Y-14979937D01*
X16727937Y-14979937D01*
X16727937Y-15052063D01*
X16800063Y-15052063D01*
X17054063Y-15052063D02*
X17054063Y-14979937D01*
X16981937Y-14979937D01*
X16981937Y-15052063D01*
X17054063Y-15052063D01*
X17308063Y-15052063D02*
X17308063Y-14979937D01*
X17235937Y-14979937D01*
X17235937Y-15052063D01*
X17308063Y-15052063D01*
X17562063Y-15052063D02*
X17562063Y-14979937D01*
X17489937Y-14979937D01*
X17489937Y-15052063D01*
X17562063Y-15052063D01*
D13*
X9865500Y-8590000D02*
X9920500Y-8535000D01*
X9865500Y-8480000D01*
X9810500Y-8535000D01*
X9865500Y-8590000D01*
X10881500Y-8590000D02*
X10936500Y-8535000D01*
X10881500Y-8480000D01*
X10826500Y-8535000D01*
X10881500Y-8590000D01*
X12192000Y-8658500D02*
X12247000Y-8603500D01*
X12192000Y-8548500D01*
X12137000Y-8603500D01*
X12192000Y-8658500D01*
X12446000Y-8658500D02*
X12501000Y-8603500D01*
X12446000Y-8548500D01*
X12391000Y-8603500D01*
X12446000Y-8658500D01*
X12700000Y-8658500D02*
X12755000Y-8603500D01*
X12700000Y-8548500D01*
X12645000Y-8603500D01*
X12700000Y-8658500D01*
X14129500Y-10342000D02*
X14184500Y-10287000D01*
X14129500Y-10232000D01*
X14074500Y-10287000D01*
X14129500Y-10342000D01*
X14129500Y-10596000D02*
X14184500Y-10541000D01*
X14129500Y-10486000D01*
X14074500Y-10541000D01*
X14129500Y-10596000D01*
X14129500Y-10850000D02*
X14184500Y-10795000D01*
X14129500Y-10740000D01*
X14074500Y-10795000D01*
X14129500Y-10850000D01*
X15207500Y-7167000D02*
X15262500Y-7112000D01*
X15207500Y-7057000D01*
X15152500Y-7112000D01*
X15207500Y-7167000D01*
X15207500Y-7421000D02*
X15262500Y-7366000D01*
X15207500Y-7311000D01*
X15152500Y-7366000D01*
X15207500Y-7421000D01*
X15207500Y-7675000D02*
X15262500Y-7620000D01*
X15207500Y-7565000D01*
X15152500Y-7620000D01*
X15207500Y-7675000D01*
X16637000Y-8590000D02*
X16692000Y-8535000D01*
X16637000Y-8480000D01*
X16582000Y-8535000D01*
X16637000Y-8590000D01*
X17653000Y-8590000D02*
X17708000Y-8535000D01*
X17653000Y-8480000D01*
X17598000Y-8535000D01*
X17653000Y-8590000D01*
D14*
X9064000Y-9572000D02*
X9224000Y-9732000D01*
X9224000Y-9572000D02*
X9064000Y-9732000D01*
X9224000Y-9652000D02*
G75*
G03*
X9064000Y-9652000I-80000J0D01*
G01*
X9064000Y-9652000D02*
G75*
G03*
X9224000Y-9652000I80000J0D01*
G01*
X10588000Y-9572000D02*
X10748000Y-9732000D01*
X10748000Y-9572000D02*
X10588000Y-9732000D01*
X10748000Y-9652000D02*
G75*
G03*
X10588000Y-9652000I-80000J0D01*
G01*
X10588000Y-9652000D02*
G75*
G03*
X10748000Y-9652000I80000J0D01*
G01*
X16557000Y-9572000D02*
X16717000Y-9732000D01*
X16717000Y-9572000D02*
X16557000Y-9732000D01*
X16717000Y-9652000D02*
G75*
G03*
X16557000Y-9652000I-80000J0D01*
G01*
X16557000Y-9652000D02*
G75*
G03*
X16717000Y-9652000I80000J0D01*
G01*
X18081000Y-9572000D02*
X18241000Y-9732000D01*
X18241000Y-9572000D02*
X18081000Y-9732000D01*
X18241000Y-9652000D02*
G75*
G03*
X18081000Y-9652000I-80000J0D01*
G01*
X18081000Y-9652000D02*
G75*
G03*
X18241000Y-9652000I80000J0D01*
G01*
D15*
X13252250Y-6722500D02*
X13422250Y-6892500D01*
X13422250Y-6722500D02*
X13252250Y-6892500D01*
X13337250Y-6722500D02*
X13337250Y-6892500D01*
X13252250Y-6807500D02*
X13422250Y-6807500D01*
X13887250Y-7672500D02*
X14057250Y-7842500D01*
X14057250Y-7672500D02*
X13887250Y-7842500D01*
X13972250Y-7672500D02*
X13972250Y-7842500D01*
X13887250Y-7757500D02*
X14057250Y-7757500D01*
D16*
X9379500Y-7160000D02*
X9589500Y-7370000D01*
X9589500Y-7160000D02*
X9379500Y-7370000D01*
X9558747Y-7339247D02*
X9558747Y-7190753D01*
X9410253Y-7190753D01*
X9410253Y-7339247D01*
X9558747Y-7339247D01*
X11157500Y-6144000D02*
X11367500Y-6354000D01*
X11367500Y-6144000D02*
X11157500Y-6354000D01*
X11336747Y-6323247D02*
X11336747Y-6174753D01*
X11188253Y-6174753D01*
X11188253Y-6323247D01*
X11336747Y-6323247D01*
X11157500Y-6906000D02*
X11367500Y-7116000D01*
X11367500Y-6906000D02*
X11157500Y-7116000D01*
X11336747Y-7085247D02*
X11336747Y-6936753D01*
X11188253Y-6936753D01*
X11188253Y-7085247D01*
X11336747Y-7085247D01*
X16151000Y-7160000D02*
X16361000Y-7370000D01*
X16361000Y-7160000D02*
X16151000Y-7370000D01*
X16330247Y-7339247D02*
X16330247Y-7190753D01*
X16181753Y-7190753D01*
X16181753Y-7339247D01*
X16330247Y-7339247D01*
X17929000Y-6144000D02*
X18139000Y-6354000D01*
X18139000Y-6144000D02*
X17929000Y-6354000D01*
X18108247Y-6323247D02*
X18108247Y-6174753D01*
X17959753Y-6174753D01*
X17959753Y-6323247D01*
X18108247Y-6323247D01*
X17929000Y-6906000D02*
X18139000Y-7116000D01*
X18139000Y-6906000D02*
X17929000Y-7116000D01*
X18108247Y-7085247D02*
X18108247Y-6936753D01*
X17959753Y-6936753D01*
X17959753Y-7085247D01*
X18108247Y-7085247D01*
D17*
X9034000Y-14622000D02*
X9254000Y-14842000D01*
X9254000Y-14622000D02*
X9034000Y-14842000D01*
X9144000Y-14842000D02*
X9254000Y-14732000D01*
X9144000Y-14622000D01*
X9034000Y-14732000D01*
X9144000Y-14842000D01*
X12209000Y-5986000D02*
X12429000Y-6206000D01*
X12429000Y-5986000D02*
X12209000Y-6206000D01*
X12319000Y-6206000D02*
X12429000Y-6096000D01*
X12319000Y-5986000D01*
X12209000Y-6096000D01*
X12319000Y-6206000D01*
X15130000Y-5986000D02*
X15350000Y-6206000D01*
X15350000Y-5986000D02*
X15130000Y-6206000D01*
X15240000Y-6206000D02*
X15350000Y-6096000D01*
X15240000Y-5986000D01*
X15130000Y-6096000D01*
X15240000Y-6206000D01*
X18051000Y-14622000D02*
X18271000Y-14842000D01*
X18271000Y-14622000D02*
X18051000Y-14842000D01*
X18161000Y-14842000D02*
X18271000Y-14732000D01*
X18161000Y-14622000D01*
X18051000Y-14732000D01*
X18161000Y-14842000D01*
D11*
X8891777Y-15937484D02*
X8891777Y-15737484D01*
X8891777Y-15737484D02*
X8939396Y-15737484D01*
X8939396Y-15737484D02*
X8967967Y-15747008D01*
X8967967Y-15747008D02*
X8987015Y-15766055D01*
X8987015Y-15766055D02*
X8996539Y-15785103D01*
X8996539Y-15785103D02*
X9006063Y-15823198D01*
X9006063Y-15823198D02*
X9006063Y-15851769D01*
X9006063Y-15851769D02*
X8996539Y-15889865D01*
X8996539Y-15889865D02*
X8987015Y-15908912D01*
X8987015Y-15908912D02*
X8967967Y-15927960D01*
X8967967Y-15927960D02*
X8939396Y-15937484D01*
X8939396Y-15937484D02*
X8891777Y-15937484D01*
X9091777Y-15937484D02*
X9091777Y-15804150D01*
X9091777Y-15842246D02*
X9101301Y-15823198D01*
X9101301Y-15823198D02*
X9110824Y-15813674D01*
X9110824Y-15813674D02*
X9129872Y-15804150D01*
X9129872Y-15804150D02*
X9148920Y-15804150D01*
X9215586Y-15937484D02*
X9215586Y-15804150D01*
X9215586Y-15737484D02*
X9206063Y-15747008D01*
X9206063Y-15747008D02*
X9215586Y-15756531D01*
X9215586Y-15756531D02*
X9225110Y-15747008D01*
X9225110Y-15747008D02*
X9215586Y-15737484D01*
X9215586Y-15737484D02*
X9215586Y-15756531D01*
X9339396Y-15937484D02*
X9320348Y-15927960D01*
X9320348Y-15927960D02*
X9310824Y-15908912D01*
X9310824Y-15908912D02*
X9310824Y-15737484D01*
X9444158Y-15937484D02*
X9425110Y-15927960D01*
X9425110Y-15927960D02*
X9415586Y-15908912D01*
X9415586Y-15908912D02*
X9415586Y-15737484D01*
X9672729Y-15937484D02*
X9672729Y-15737484D01*
X9672729Y-15737484D02*
X9739396Y-15880341D01*
X9739396Y-15880341D02*
X9806063Y-15737484D01*
X9806063Y-15737484D02*
X9806063Y-15937484D01*
X9987015Y-15937484D02*
X9987015Y-15832722D01*
X9987015Y-15832722D02*
X9977491Y-15813674D01*
X9977491Y-15813674D02*
X9958444Y-15804150D01*
X9958444Y-15804150D02*
X9920348Y-15804150D01*
X9920348Y-15804150D02*
X9901301Y-15813674D01*
X9987015Y-15927960D02*
X9967967Y-15937484D01*
X9967967Y-15937484D02*
X9920348Y-15937484D01*
X9920348Y-15937484D02*
X9901301Y-15927960D01*
X9901301Y-15927960D02*
X9891777Y-15908912D01*
X9891777Y-15908912D02*
X9891777Y-15889865D01*
X9891777Y-15889865D02*
X9901301Y-15870817D01*
X9901301Y-15870817D02*
X9920348Y-15861293D01*
X9920348Y-15861293D02*
X9967967Y-15861293D01*
X9967967Y-15861293D02*
X9987015Y-15851769D01*
X10082253Y-15804150D02*
X10082253Y-16004150D01*
X10082253Y-15813674D02*
X10101301Y-15804150D01*
X10101301Y-15804150D02*
X10139396Y-15804150D01*
X10139396Y-15804150D02*
X10158444Y-15813674D01*
X10158444Y-15813674D02*
X10167967Y-15823198D01*
X10167967Y-15823198D02*
X10177491Y-15842246D01*
X10177491Y-15842246D02*
X10177491Y-15899388D01*
X10177491Y-15899388D02*
X10167967Y-15918436D01*
X10167967Y-15918436D02*
X10158444Y-15927960D01*
X10158444Y-15927960D02*
X10139396Y-15937484D01*
X10139396Y-15937484D02*
X10101301Y-15937484D01*
X10101301Y-15937484D02*
X10082253Y-15927960D01*
X10263205Y-15918436D02*
X10272729Y-15927960D01*
X10272729Y-15927960D02*
X10263205Y-15937484D01*
X10263205Y-15937484D02*
X10253682Y-15927960D01*
X10253682Y-15927960D02*
X10263205Y-15918436D01*
X10263205Y-15918436D02*
X10263205Y-15937484D01*
X10263205Y-15813674D02*
X10272729Y-15823198D01*
X10272729Y-15823198D02*
X10263205Y-15832722D01*
X10263205Y-15832722D02*
X10253682Y-15823198D01*
X10253682Y-15823198D02*
X10263205Y-15813674D01*
X10263205Y-15813674D02*
X10263205Y-15832722D01*
D10*
X8556000Y-16228500D02*
X8631000Y-16303500D01*
X8631000Y-16228500D02*
X8556000Y-16303500D01*
D11*
X8929872Y-16157484D02*
X8948920Y-16157484D01*
X8948920Y-16157484D02*
X8967967Y-16167008D01*
X8967967Y-16167008D02*
X8977491Y-16176531D01*
X8977491Y-16176531D02*
X8987015Y-16195579D01*
X8987015Y-16195579D02*
X8996539Y-16233674D01*
X8996539Y-16233674D02*
X8996539Y-16281293D01*
X8996539Y-16281293D02*
X8987015Y-16319388D01*
X8987015Y-16319388D02*
X8977491Y-16338436D01*
X8977491Y-16338436D02*
X8967967Y-16347960D01*
X8967967Y-16347960D02*
X8948920Y-16357484D01*
X8948920Y-16357484D02*
X8929872Y-16357484D01*
X8929872Y-16357484D02*
X8910824Y-16347960D01*
X8910824Y-16347960D02*
X8901301Y-16338436D01*
X8901301Y-16338436D02*
X8891777Y-16319388D01*
X8891777Y-16319388D02*
X8882253Y-16281293D01*
X8882253Y-16281293D02*
X8882253Y-16233674D01*
X8882253Y-16233674D02*
X8891777Y-16195579D01*
X8891777Y-16195579D02*
X8901301Y-16176531D01*
X8901301Y-16176531D02*
X8910824Y-16167008D01*
X8910824Y-16167008D02*
X8929872Y-16157484D01*
X9082253Y-16338436D02*
X9091777Y-16347960D01*
X9091777Y-16347960D02*
X9082253Y-16357484D01*
X9082253Y-16357484D02*
X9072729Y-16347960D01*
X9072729Y-16347960D02*
X9082253Y-16338436D01*
X9082253Y-16338436D02*
X9082253Y-16357484D01*
X9158444Y-16157484D02*
X9291777Y-16157484D01*
X9291777Y-16157484D02*
X9206063Y-16357484D01*
X9463205Y-16157484D02*
X9367967Y-16157484D01*
X9367967Y-16157484D02*
X9358444Y-16252722D01*
X9358444Y-16252722D02*
X9367967Y-16243198D01*
X9367967Y-16243198D02*
X9387015Y-16233674D01*
X9387015Y-16233674D02*
X9434634Y-16233674D01*
X9434634Y-16233674D02*
X9453682Y-16243198D01*
X9453682Y-16243198D02*
X9463205Y-16252722D01*
X9463205Y-16252722D02*
X9472729Y-16271769D01*
X9472729Y-16271769D02*
X9472729Y-16319388D01*
X9472729Y-16319388D02*
X9463205Y-16338436D01*
X9463205Y-16338436D02*
X9453682Y-16347960D01*
X9453682Y-16347960D02*
X9434634Y-16357484D01*
X9434634Y-16357484D02*
X9387015Y-16357484D01*
X9387015Y-16357484D02*
X9367967Y-16347960D01*
X9367967Y-16347960D02*
X9358444Y-16338436D01*
X9596539Y-16157484D02*
X9615586Y-16157484D01*
X9615586Y-16157484D02*
X9634634Y-16167008D01*
X9634634Y-16167008D02*
X9644158Y-16176531D01*
X9644158Y-16176531D02*
X9653682Y-16195579D01*
X9653682Y-16195579D02*
X9663205Y-16233674D01*
X9663205Y-16233674D02*
X9663205Y-16281293D01*
X9663205Y-16281293D02*
X9653682Y-16319388D01*
X9653682Y-16319388D02*
X9644158Y-16338436D01*
X9644158Y-16338436D02*
X9634634Y-16347960D01*
X9634634Y-16347960D02*
X9615586Y-16357484D01*
X9615586Y-16357484D02*
X9596539Y-16357484D01*
X9596539Y-16357484D02*
X9577491Y-16347960D01*
X9577491Y-16347960D02*
X9567967Y-16338436D01*
X9567967Y-16338436D02*
X9558444Y-16319388D01*
X9558444Y-16319388D02*
X9548920Y-16281293D01*
X9548920Y-16281293D02*
X9548920Y-16233674D01*
X9548920Y-16233674D02*
X9558444Y-16195579D01*
X9558444Y-16195579D02*
X9567967Y-16176531D01*
X9567967Y-16176531D02*
X9577491Y-16167008D01*
X9577491Y-16167008D02*
X9596539Y-16157484D01*
X9748920Y-16357484D02*
X9748920Y-16224150D01*
X9748920Y-16243198D02*
X9758444Y-16233674D01*
X9758444Y-16233674D02*
X9777491Y-16224150D01*
X9777491Y-16224150D02*
X9806063Y-16224150D01*
X9806063Y-16224150D02*
X9825110Y-16233674D01*
X9825110Y-16233674D02*
X9834634Y-16252722D01*
X9834634Y-16252722D02*
X9834634Y-16357484D01*
X9834634Y-16252722D02*
X9844158Y-16233674D01*
X9844158Y-16233674D02*
X9863205Y-16224150D01*
X9863205Y-16224150D02*
X9891777Y-16224150D01*
X9891777Y-16224150D02*
X9910825Y-16233674D01*
X9910825Y-16233674D02*
X9920348Y-16252722D01*
X9920348Y-16252722D02*
X9920348Y-16357484D01*
X10015586Y-16357484D02*
X10015586Y-16224150D01*
X10015586Y-16243198D02*
X10025110Y-16233674D01*
X10025110Y-16233674D02*
X10044158Y-16224150D01*
X10044158Y-16224150D02*
X10072729Y-16224150D01*
X10072729Y-16224150D02*
X10091777Y-16233674D01*
X10091777Y-16233674D02*
X10101301Y-16252722D01*
X10101301Y-16252722D02*
X10101301Y-16357484D01*
X10101301Y-16252722D02*
X10110825Y-16233674D01*
X10110825Y-16233674D02*
X10129872Y-16224150D01*
X10129872Y-16224150D02*
X10158444Y-16224150D01*
X10158444Y-16224150D02*
X10177491Y-16233674D01*
X10177491Y-16233674D02*
X10187015Y-16252722D01*
X10187015Y-16252722D02*
X10187015Y-16357484D01*
X10577491Y-16147960D02*
X10406063Y-16405103D01*
X10834634Y-16157484D02*
X10853682Y-16157484D01*
X10853682Y-16157484D02*
X10872729Y-16167008D01*
X10872729Y-16167008D02*
X10882253Y-16176531D01*
X10882253Y-16176531D02*
X10891777Y-16195579D01*
X10891777Y-16195579D02*
X10901301Y-16233674D01*
X10901301Y-16233674D02*
X10901301Y-16281293D01*
X10901301Y-16281293D02*
X10891777Y-16319388D01*
X10891777Y-16319388D02*
X10882253Y-16338436D01*
X10882253Y-16338436D02*
X10872729Y-16347960D01*
X10872729Y-16347960D02*
X10853682Y-16357484D01*
X10853682Y-16357484D02*
X10834634Y-16357484D01*
X10834634Y-16357484D02*
X10815587Y-16347960D01*
X10815587Y-16347960D02*
X10806063Y-16338436D01*
X10806063Y-16338436D02*
X10796539Y-16319388D01*
X10796539Y-16319388D02*
X10787015Y-16281293D01*
X10787015Y-16281293D02*
X10787015Y-16233674D01*
X10787015Y-16233674D02*
X10796539Y-16195579D01*
X10796539Y-16195579D02*
X10806063Y-16176531D01*
X10806063Y-16176531D02*
X10815587Y-16167008D01*
X10815587Y-16167008D02*
X10834634Y-16157484D01*
X10987015Y-16338436D02*
X10996539Y-16347960D01*
X10996539Y-16347960D02*
X10987015Y-16357484D01*
X10987015Y-16357484D02*
X10977491Y-16347960D01*
X10977491Y-16347960D02*
X10987015Y-16338436D01*
X10987015Y-16338436D02*
X10987015Y-16357484D01*
X11120348Y-16157484D02*
X11139396Y-16157484D01*
X11139396Y-16157484D02*
X11158444Y-16167008D01*
X11158444Y-16167008D02*
X11167968Y-16176531D01*
X11167968Y-16176531D02*
X11177491Y-16195579D01*
X11177491Y-16195579D02*
X11187015Y-16233674D01*
X11187015Y-16233674D02*
X11187015Y-16281293D01*
X11187015Y-16281293D02*
X11177491Y-16319388D01*
X11177491Y-16319388D02*
X11167968Y-16338436D01*
X11167968Y-16338436D02*
X11158444Y-16347960D01*
X11158444Y-16347960D02*
X11139396Y-16357484D01*
X11139396Y-16357484D02*
X11120348Y-16357484D01*
X11120348Y-16357484D02*
X11101301Y-16347960D01*
X11101301Y-16347960D02*
X11091777Y-16338436D01*
X11091777Y-16338436D02*
X11082253Y-16319388D01*
X11082253Y-16319388D02*
X11072729Y-16281293D01*
X11072729Y-16281293D02*
X11072729Y-16233674D01*
X11072729Y-16233674D02*
X11082253Y-16195579D01*
X11082253Y-16195579D02*
X11091777Y-16176531D01*
X11091777Y-16176531D02*
X11101301Y-16167008D01*
X11101301Y-16167008D02*
X11120348Y-16157484D01*
X11263206Y-16176531D02*
X11272729Y-16167008D01*
X11272729Y-16167008D02*
X11291777Y-16157484D01*
X11291777Y-16157484D02*
X11339396Y-16157484D01*
X11339396Y-16157484D02*
X11358444Y-16167008D01*
X11358444Y-16167008D02*
X11367967Y-16176531D01*
X11367967Y-16176531D02*
X11377491Y-16195579D01*
X11377491Y-16195579D02*
X11377491Y-16214627D01*
X11377491Y-16214627D02*
X11367967Y-16243198D01*
X11367967Y-16243198D02*
X11253682Y-16357484D01*
X11253682Y-16357484D02*
X11377491Y-16357484D01*
X11472729Y-16357484D02*
X11510825Y-16357484D01*
X11510825Y-16357484D02*
X11529872Y-16347960D01*
X11529872Y-16347960D02*
X11539396Y-16338436D01*
X11539396Y-16338436D02*
X11558444Y-16309865D01*
X11558444Y-16309865D02*
X11567967Y-16271769D01*
X11567967Y-16271769D02*
X11567967Y-16195579D01*
X11567967Y-16195579D02*
X11558444Y-16176531D01*
X11558444Y-16176531D02*
X11548920Y-16167008D01*
X11548920Y-16167008D02*
X11529872Y-16157484D01*
X11529872Y-16157484D02*
X11491777Y-16157484D01*
X11491777Y-16157484D02*
X11472729Y-16167008D01*
X11472729Y-16167008D02*
X11463206Y-16176531D01*
X11463206Y-16176531D02*
X11453682Y-16195579D01*
X11453682Y-16195579D02*
X11453682Y-16243198D01*
X11453682Y-16243198D02*
X11463206Y-16262246D01*
X11463206Y-16262246D02*
X11472729Y-16271769D01*
X11472729Y-16271769D02*
X11491777Y-16281293D01*
X11491777Y-16281293D02*
X11529872Y-16281293D01*
X11529872Y-16281293D02*
X11548920Y-16271769D01*
X11548920Y-16271769D02*
X11558444Y-16262246D01*
X11558444Y-16262246D02*
X11567967Y-16243198D01*
X11748920Y-16157484D02*
X11653682Y-16157484D01*
X11653682Y-16157484D02*
X11644158Y-16252722D01*
X11644158Y-16252722D02*
X11653682Y-16243198D01*
X11653682Y-16243198D02*
X11672729Y-16233674D01*
X11672729Y-16233674D02*
X11720348Y-16233674D01*
X11720348Y-16233674D02*
X11739396Y-16243198D01*
X11739396Y-16243198D02*
X11748920Y-16252722D01*
X11748920Y-16252722D02*
X11758444Y-16271769D01*
X11758444Y-16271769D02*
X11758444Y-16319388D01*
X11758444Y-16319388D02*
X11748920Y-16338436D01*
X11748920Y-16338436D02*
X11739396Y-16347960D01*
X11739396Y-16347960D02*
X11720348Y-16357484D01*
X11720348Y-16357484D02*
X11672729Y-16357484D01*
X11672729Y-16357484D02*
X11653682Y-16347960D01*
X11653682Y-16347960D02*
X11644158Y-16338436D01*
X11834634Y-16157484D02*
X11834634Y-16195579D01*
X11910825Y-16157484D02*
X11910825Y-16195579D01*
X12206063Y-16433674D02*
X12196539Y-16424150D01*
X12196539Y-16424150D02*
X12177491Y-16395579D01*
X12177491Y-16395579D02*
X12167968Y-16376531D01*
X12167968Y-16376531D02*
X12158444Y-16347960D01*
X12158444Y-16347960D02*
X12148920Y-16300341D01*
X12148920Y-16300341D02*
X12148920Y-16262246D01*
X12148920Y-16262246D02*
X12158444Y-16214627D01*
X12158444Y-16214627D02*
X12167968Y-16186055D01*
X12167968Y-16186055D02*
X12177491Y-16167008D01*
X12177491Y-16167008D02*
X12196539Y-16138436D01*
X12196539Y-16138436D02*
X12206063Y-16128912D01*
X12387015Y-16357484D02*
X12272729Y-16357484D01*
X12329872Y-16357484D02*
X12329872Y-16157484D01*
X12329872Y-16157484D02*
X12310825Y-16186055D01*
X12310825Y-16186055D02*
X12291777Y-16205103D01*
X12291777Y-16205103D02*
X12272729Y-16214627D01*
X12501301Y-16243198D02*
X12482253Y-16233674D01*
X12482253Y-16233674D02*
X12472729Y-16224150D01*
X12472729Y-16224150D02*
X12463206Y-16205103D01*
X12463206Y-16205103D02*
X12463206Y-16195579D01*
X12463206Y-16195579D02*
X12472729Y-16176531D01*
X12472729Y-16176531D02*
X12482253Y-16167008D01*
X12482253Y-16167008D02*
X12501301Y-16157484D01*
X12501301Y-16157484D02*
X12539396Y-16157484D01*
X12539396Y-16157484D02*
X12558444Y-16167008D01*
X12558444Y-16167008D02*
X12567968Y-16176531D01*
X12567968Y-16176531D02*
X12577491Y-16195579D01*
X12577491Y-16195579D02*
X12577491Y-16205103D01*
X12577491Y-16205103D02*
X12567968Y-16224150D01*
X12567968Y-16224150D02*
X12558444Y-16233674D01*
X12558444Y-16233674D02*
X12539396Y-16243198D01*
X12539396Y-16243198D02*
X12501301Y-16243198D01*
X12501301Y-16243198D02*
X12482253Y-16252722D01*
X12482253Y-16252722D02*
X12472729Y-16262246D01*
X12472729Y-16262246D02*
X12463206Y-16281293D01*
X12463206Y-16281293D02*
X12463206Y-16319388D01*
X12463206Y-16319388D02*
X12472729Y-16338436D01*
X12472729Y-16338436D02*
X12482253Y-16347960D01*
X12482253Y-16347960D02*
X12501301Y-16357484D01*
X12501301Y-16357484D02*
X12539396Y-16357484D01*
X12539396Y-16357484D02*
X12558444Y-16347960D01*
X12558444Y-16347960D02*
X12567968Y-16338436D01*
X12567968Y-16338436D02*
X12577491Y-16319388D01*
X12577491Y-16319388D02*
X12577491Y-16281293D01*
X12577491Y-16281293D02*
X12567968Y-16262246D01*
X12567968Y-16262246D02*
X12558444Y-16252722D01*
X12558444Y-16252722D02*
X12539396Y-16243198D01*
X12815587Y-16357484D02*
X12815587Y-16157484D01*
X12901301Y-16357484D02*
X12901301Y-16252722D01*
X12901301Y-16252722D02*
X12891777Y-16233674D01*
X12891777Y-16233674D02*
X12872730Y-16224150D01*
X12872730Y-16224150D02*
X12844158Y-16224150D01*
X12844158Y-16224150D02*
X12825110Y-16233674D01*
X12825110Y-16233674D02*
X12815587Y-16243198D01*
X13025110Y-16357484D02*
X13006063Y-16347960D01*
X13006063Y-16347960D02*
X12996539Y-16338436D01*
X12996539Y-16338436D02*
X12987015Y-16319388D01*
X12987015Y-16319388D02*
X12987015Y-16262246D01*
X12987015Y-16262246D02*
X12996539Y-16243198D01*
X12996539Y-16243198D02*
X13006063Y-16233674D01*
X13006063Y-16233674D02*
X13025110Y-16224150D01*
X13025110Y-16224150D02*
X13053682Y-16224150D01*
X13053682Y-16224150D02*
X13072730Y-16233674D01*
X13072730Y-16233674D02*
X13082253Y-16243198D01*
X13082253Y-16243198D02*
X13091777Y-16262246D01*
X13091777Y-16262246D02*
X13091777Y-16319388D01*
X13091777Y-16319388D02*
X13082253Y-16338436D01*
X13082253Y-16338436D02*
X13072730Y-16347960D01*
X13072730Y-16347960D02*
X13053682Y-16357484D01*
X13053682Y-16357484D02*
X13025110Y-16357484D01*
X13206063Y-16357484D02*
X13187015Y-16347960D01*
X13187015Y-16347960D02*
X13177491Y-16328912D01*
X13177491Y-16328912D02*
X13177491Y-16157484D01*
X13358444Y-16347960D02*
X13339396Y-16357484D01*
X13339396Y-16357484D02*
X13301301Y-16357484D01*
X13301301Y-16357484D02*
X13282253Y-16347960D01*
X13282253Y-16347960D02*
X13272730Y-16328912D01*
X13272730Y-16328912D02*
X13272730Y-16252722D01*
X13272730Y-16252722D02*
X13282253Y-16233674D01*
X13282253Y-16233674D02*
X13301301Y-16224150D01*
X13301301Y-16224150D02*
X13339396Y-16224150D01*
X13339396Y-16224150D02*
X13358444Y-16233674D01*
X13358444Y-16233674D02*
X13367968Y-16252722D01*
X13367968Y-16252722D02*
X13367968Y-16271769D01*
X13367968Y-16271769D02*
X13272730Y-16290817D01*
X13444158Y-16347960D02*
X13463206Y-16357484D01*
X13463206Y-16357484D02*
X13501301Y-16357484D01*
X13501301Y-16357484D02*
X13520349Y-16347960D01*
X13520349Y-16347960D02*
X13529872Y-16328912D01*
X13529872Y-16328912D02*
X13529872Y-16319388D01*
X13529872Y-16319388D02*
X13520349Y-16300341D01*
X13520349Y-16300341D02*
X13501301Y-16290817D01*
X13501301Y-16290817D02*
X13472730Y-16290817D01*
X13472730Y-16290817D02*
X13453682Y-16281293D01*
X13453682Y-16281293D02*
X13444158Y-16262246D01*
X13444158Y-16262246D02*
X13444158Y-16252722D01*
X13444158Y-16252722D02*
X13453682Y-16233674D01*
X13453682Y-16233674D02*
X13472730Y-16224150D01*
X13472730Y-16224150D02*
X13501301Y-16224150D01*
X13501301Y-16224150D02*
X13520349Y-16233674D01*
X13596539Y-16433674D02*
X13606063Y-16424150D01*
X13606063Y-16424150D02*
X13625111Y-16395579D01*
X13625111Y-16395579D02*
X13634634Y-16376531D01*
X13634634Y-16376531D02*
X13644158Y-16347960D01*
X13644158Y-16347960D02*
X13653682Y-16300341D01*
X13653682Y-16300341D02*
X13653682Y-16262246D01*
X13653682Y-16262246D02*
X13644158Y-16214627D01*
X13644158Y-16214627D02*
X13634634Y-16186055D01*
X13634634Y-16186055D02*
X13625111Y-16167008D01*
X13625111Y-16167008D02*
X13606063Y-16138436D01*
X13606063Y-16138436D02*
X13596539Y-16128912D01*
D10*
X8631000Y-16530000D02*
G75*
G03*
X8551000Y-16530000I-40000J0D01*
G01*
X8551000Y-16530000D02*
G75*
G03*
X8631000Y-16530000I40000J0D01*
G01*
D11*
X8929872Y-16421484D02*
X8948920Y-16421484D01*
X8948920Y-16421484D02*
X8967967Y-16431008D01*
X8967967Y-16431008D02*
X8977491Y-16440531D01*
X8977491Y-16440531D02*
X8987015Y-16459579D01*
X8987015Y-16459579D02*
X8996539Y-16497674D01*
X8996539Y-16497674D02*
X8996539Y-16545293D01*
X8996539Y-16545293D02*
X8987015Y-16583388D01*
X8987015Y-16583388D02*
X8977491Y-16602436D01*
X8977491Y-16602436D02*
X8967967Y-16611960D01*
X8967967Y-16611960D02*
X8948920Y-16621484D01*
X8948920Y-16621484D02*
X8929872Y-16621484D01*
X8929872Y-16621484D02*
X8910824Y-16611960D01*
X8910824Y-16611960D02*
X8901301Y-16602436D01*
X8901301Y-16602436D02*
X8891777Y-16583388D01*
X8891777Y-16583388D02*
X8882253Y-16545293D01*
X8882253Y-16545293D02*
X8882253Y-16497674D01*
X8882253Y-16497674D02*
X8891777Y-16459579D01*
X8891777Y-16459579D02*
X8901301Y-16440531D01*
X8901301Y-16440531D02*
X8910824Y-16431008D01*
X8910824Y-16431008D02*
X8929872Y-16421484D01*
X9082253Y-16602436D02*
X9091777Y-16611960D01*
X9091777Y-16611960D02*
X9082253Y-16621484D01*
X9082253Y-16621484D02*
X9072729Y-16611960D01*
X9072729Y-16611960D02*
X9082253Y-16602436D01*
X9082253Y-16602436D02*
X9082253Y-16621484D01*
X9206063Y-16507198D02*
X9187015Y-16497674D01*
X9187015Y-16497674D02*
X9177491Y-16488150D01*
X9177491Y-16488150D02*
X9167967Y-16469103D01*
X9167967Y-16469103D02*
X9167967Y-16459579D01*
X9167967Y-16459579D02*
X9177491Y-16440531D01*
X9177491Y-16440531D02*
X9187015Y-16431008D01*
X9187015Y-16431008D02*
X9206063Y-16421484D01*
X9206063Y-16421484D02*
X9244158Y-16421484D01*
X9244158Y-16421484D02*
X9263205Y-16431008D01*
X9263205Y-16431008D02*
X9272729Y-16440531D01*
X9272729Y-16440531D02*
X9282253Y-16459579D01*
X9282253Y-16459579D02*
X9282253Y-16469103D01*
X9282253Y-16469103D02*
X9272729Y-16488150D01*
X9272729Y-16488150D02*
X9263205Y-16497674D01*
X9263205Y-16497674D02*
X9244158Y-16507198D01*
X9244158Y-16507198D02*
X9206063Y-16507198D01*
X9206063Y-16507198D02*
X9187015Y-16516722D01*
X9187015Y-16516722D02*
X9177491Y-16526246D01*
X9177491Y-16526246D02*
X9167967Y-16545293D01*
X9167967Y-16545293D02*
X9167967Y-16583388D01*
X9167967Y-16583388D02*
X9177491Y-16602436D01*
X9177491Y-16602436D02*
X9187015Y-16611960D01*
X9187015Y-16611960D02*
X9206063Y-16621484D01*
X9206063Y-16621484D02*
X9244158Y-16621484D01*
X9244158Y-16621484D02*
X9263205Y-16611960D01*
X9263205Y-16611960D02*
X9272729Y-16602436D01*
X9272729Y-16602436D02*
X9282253Y-16583388D01*
X9282253Y-16583388D02*
X9282253Y-16545293D01*
X9282253Y-16545293D02*
X9272729Y-16526246D01*
X9272729Y-16526246D02*
X9263205Y-16516722D01*
X9263205Y-16516722D02*
X9244158Y-16507198D01*
X9406063Y-16421484D02*
X9425110Y-16421484D01*
X9425110Y-16421484D02*
X9444158Y-16431008D01*
X9444158Y-16431008D02*
X9453682Y-16440531D01*
X9453682Y-16440531D02*
X9463205Y-16459579D01*
X9463205Y-16459579D02*
X9472729Y-16497674D01*
X9472729Y-16497674D02*
X9472729Y-16545293D01*
X9472729Y-16545293D02*
X9463205Y-16583388D01*
X9463205Y-16583388D02*
X9453682Y-16602436D01*
X9453682Y-16602436D02*
X9444158Y-16611960D01*
X9444158Y-16611960D02*
X9425110Y-16621484D01*
X9425110Y-16621484D02*
X9406063Y-16621484D01*
X9406063Y-16621484D02*
X9387015Y-16611960D01*
X9387015Y-16611960D02*
X9377491Y-16602436D01*
X9377491Y-16602436D02*
X9367967Y-16583388D01*
X9367967Y-16583388D02*
X9358444Y-16545293D01*
X9358444Y-16545293D02*
X9358444Y-16497674D01*
X9358444Y-16497674D02*
X9367967Y-16459579D01*
X9367967Y-16459579D02*
X9377491Y-16440531D01*
X9377491Y-16440531D02*
X9387015Y-16431008D01*
X9387015Y-16431008D02*
X9406063Y-16421484D01*
X9596539Y-16421484D02*
X9615586Y-16421484D01*
X9615586Y-16421484D02*
X9634634Y-16431008D01*
X9634634Y-16431008D02*
X9644158Y-16440531D01*
X9644158Y-16440531D02*
X9653682Y-16459579D01*
X9653682Y-16459579D02*
X9663205Y-16497674D01*
X9663205Y-16497674D02*
X9663205Y-16545293D01*
X9663205Y-16545293D02*
X9653682Y-16583388D01*
X9653682Y-16583388D02*
X9644158Y-16602436D01*
X9644158Y-16602436D02*
X9634634Y-16611960D01*
X9634634Y-16611960D02*
X9615586Y-16621484D01*
X9615586Y-16621484D02*
X9596539Y-16621484D01*
X9596539Y-16621484D02*
X9577491Y-16611960D01*
X9577491Y-16611960D02*
X9567967Y-16602436D01*
X9567967Y-16602436D02*
X9558444Y-16583388D01*
X9558444Y-16583388D02*
X9548920Y-16545293D01*
X9548920Y-16545293D02*
X9548920Y-16497674D01*
X9548920Y-16497674D02*
X9558444Y-16459579D01*
X9558444Y-16459579D02*
X9567967Y-16440531D01*
X9567967Y-16440531D02*
X9577491Y-16431008D01*
X9577491Y-16431008D02*
X9596539Y-16421484D01*
X9748920Y-16621484D02*
X9748920Y-16488150D01*
X9748920Y-16507198D02*
X9758444Y-16497674D01*
X9758444Y-16497674D02*
X9777491Y-16488150D01*
X9777491Y-16488150D02*
X9806063Y-16488150D01*
X9806063Y-16488150D02*
X9825110Y-16497674D01*
X9825110Y-16497674D02*
X9834634Y-16516722D01*
X9834634Y-16516722D02*
X9834634Y-16621484D01*
X9834634Y-16516722D02*
X9844158Y-16497674D01*
X9844158Y-16497674D02*
X9863205Y-16488150D01*
X9863205Y-16488150D02*
X9891777Y-16488150D01*
X9891777Y-16488150D02*
X9910825Y-16497674D01*
X9910825Y-16497674D02*
X9920348Y-16516722D01*
X9920348Y-16516722D02*
X9920348Y-16621484D01*
X10015586Y-16621484D02*
X10015586Y-16488150D01*
X10015586Y-16507198D02*
X10025110Y-16497674D01*
X10025110Y-16497674D02*
X10044158Y-16488150D01*
X10044158Y-16488150D02*
X10072729Y-16488150D01*
X10072729Y-16488150D02*
X10091777Y-16497674D01*
X10091777Y-16497674D02*
X10101301Y-16516722D01*
X10101301Y-16516722D02*
X10101301Y-16621484D01*
X10101301Y-16516722D02*
X10110825Y-16497674D01*
X10110825Y-16497674D02*
X10129872Y-16488150D01*
X10129872Y-16488150D02*
X10158444Y-16488150D01*
X10158444Y-16488150D02*
X10177491Y-16497674D01*
X10177491Y-16497674D02*
X10187015Y-16516722D01*
X10187015Y-16516722D02*
X10187015Y-16621484D01*
X10577491Y-16411960D02*
X10406063Y-16669103D01*
X10834634Y-16421484D02*
X10853682Y-16421484D01*
X10853682Y-16421484D02*
X10872729Y-16431008D01*
X10872729Y-16431008D02*
X10882253Y-16440531D01*
X10882253Y-16440531D02*
X10891777Y-16459579D01*
X10891777Y-16459579D02*
X10901301Y-16497674D01*
X10901301Y-16497674D02*
X10901301Y-16545293D01*
X10901301Y-16545293D02*
X10891777Y-16583388D01*
X10891777Y-16583388D02*
X10882253Y-16602436D01*
X10882253Y-16602436D02*
X10872729Y-16611960D01*
X10872729Y-16611960D02*
X10853682Y-16621484D01*
X10853682Y-16621484D02*
X10834634Y-16621484D01*
X10834634Y-16621484D02*
X10815587Y-16611960D01*
X10815587Y-16611960D02*
X10806063Y-16602436D01*
X10806063Y-16602436D02*
X10796539Y-16583388D01*
X10796539Y-16583388D02*
X10787015Y-16545293D01*
X10787015Y-16545293D02*
X10787015Y-16497674D01*
X10787015Y-16497674D02*
X10796539Y-16459579D01*
X10796539Y-16459579D02*
X10806063Y-16440531D01*
X10806063Y-16440531D02*
X10815587Y-16431008D01*
X10815587Y-16431008D02*
X10834634Y-16421484D01*
X10987015Y-16602436D02*
X10996539Y-16611960D01*
X10996539Y-16611960D02*
X10987015Y-16621484D01*
X10987015Y-16621484D02*
X10977491Y-16611960D01*
X10977491Y-16611960D02*
X10987015Y-16602436D01*
X10987015Y-16602436D02*
X10987015Y-16621484D01*
X11120348Y-16421484D02*
X11139396Y-16421484D01*
X11139396Y-16421484D02*
X11158444Y-16431008D01*
X11158444Y-16431008D02*
X11167968Y-16440531D01*
X11167968Y-16440531D02*
X11177491Y-16459579D01*
X11177491Y-16459579D02*
X11187015Y-16497674D01*
X11187015Y-16497674D02*
X11187015Y-16545293D01*
X11187015Y-16545293D02*
X11177491Y-16583388D01*
X11177491Y-16583388D02*
X11167968Y-16602436D01*
X11167968Y-16602436D02*
X11158444Y-16611960D01*
X11158444Y-16611960D02*
X11139396Y-16621484D01*
X11139396Y-16621484D02*
X11120348Y-16621484D01*
X11120348Y-16621484D02*
X11101301Y-16611960D01*
X11101301Y-16611960D02*
X11091777Y-16602436D01*
X11091777Y-16602436D02*
X11082253Y-16583388D01*
X11082253Y-16583388D02*
X11072729Y-16545293D01*
X11072729Y-16545293D02*
X11072729Y-16497674D01*
X11072729Y-16497674D02*
X11082253Y-16459579D01*
X11082253Y-16459579D02*
X11091777Y-16440531D01*
X11091777Y-16440531D02*
X11101301Y-16431008D01*
X11101301Y-16431008D02*
X11120348Y-16421484D01*
X11253682Y-16421484D02*
X11377491Y-16421484D01*
X11377491Y-16421484D02*
X11310825Y-16497674D01*
X11310825Y-16497674D02*
X11339396Y-16497674D01*
X11339396Y-16497674D02*
X11358444Y-16507198D01*
X11358444Y-16507198D02*
X11367967Y-16516722D01*
X11367967Y-16516722D02*
X11377491Y-16535769D01*
X11377491Y-16535769D02*
X11377491Y-16583388D01*
X11377491Y-16583388D02*
X11367967Y-16602436D01*
X11367967Y-16602436D02*
X11358444Y-16611960D01*
X11358444Y-16611960D02*
X11339396Y-16621484D01*
X11339396Y-16621484D02*
X11282253Y-16621484D01*
X11282253Y-16621484D02*
X11263206Y-16611960D01*
X11263206Y-16611960D02*
X11253682Y-16602436D01*
X11567967Y-16621484D02*
X11453682Y-16621484D01*
X11510825Y-16621484D02*
X11510825Y-16421484D01*
X11510825Y-16421484D02*
X11491777Y-16450055D01*
X11491777Y-16450055D02*
X11472729Y-16469103D01*
X11472729Y-16469103D02*
X11453682Y-16478627D01*
X11748920Y-16421484D02*
X11653682Y-16421484D01*
X11653682Y-16421484D02*
X11644158Y-16516722D01*
X11644158Y-16516722D02*
X11653682Y-16507198D01*
X11653682Y-16507198D02*
X11672729Y-16497674D01*
X11672729Y-16497674D02*
X11720348Y-16497674D01*
X11720348Y-16497674D02*
X11739396Y-16507198D01*
X11739396Y-16507198D02*
X11748920Y-16516722D01*
X11748920Y-16516722D02*
X11758444Y-16535769D01*
X11758444Y-16535769D02*
X11758444Y-16583388D01*
X11758444Y-16583388D02*
X11748920Y-16602436D01*
X11748920Y-16602436D02*
X11739396Y-16611960D01*
X11739396Y-16611960D02*
X11720348Y-16621484D01*
X11720348Y-16621484D02*
X11672729Y-16621484D01*
X11672729Y-16621484D02*
X11653682Y-16611960D01*
X11653682Y-16611960D02*
X11644158Y-16602436D01*
X11834634Y-16421484D02*
X11834634Y-16459579D01*
X11910825Y-16421484D02*
X11910825Y-16459579D01*
X12206063Y-16697674D02*
X12196539Y-16688150D01*
X12196539Y-16688150D02*
X12177491Y-16659579D01*
X12177491Y-16659579D02*
X12167968Y-16640531D01*
X12167968Y-16640531D02*
X12158444Y-16611960D01*
X12158444Y-16611960D02*
X12148920Y-16564341D01*
X12148920Y-16564341D02*
X12148920Y-16526246D01*
X12148920Y-16526246D02*
X12158444Y-16478627D01*
X12158444Y-16478627D02*
X12167968Y-16450055D01*
X12167968Y-16450055D02*
X12177491Y-16431008D01*
X12177491Y-16431008D02*
X12196539Y-16402436D01*
X12196539Y-16402436D02*
X12206063Y-16392912D01*
X12377491Y-16421484D02*
X12282253Y-16421484D01*
X12282253Y-16421484D02*
X12272729Y-16516722D01*
X12272729Y-16516722D02*
X12282253Y-16507198D01*
X12282253Y-16507198D02*
X12301301Y-16497674D01*
X12301301Y-16497674D02*
X12348920Y-16497674D01*
X12348920Y-16497674D02*
X12367968Y-16507198D01*
X12367968Y-16507198D02*
X12377491Y-16516722D01*
X12377491Y-16516722D02*
X12387015Y-16535769D01*
X12387015Y-16535769D02*
X12387015Y-16583388D01*
X12387015Y-16583388D02*
X12377491Y-16602436D01*
X12377491Y-16602436D02*
X12367968Y-16611960D01*
X12367968Y-16611960D02*
X12348920Y-16621484D01*
X12348920Y-16621484D02*
X12301301Y-16621484D01*
X12301301Y-16621484D02*
X12282253Y-16611960D01*
X12282253Y-16611960D02*
X12272729Y-16602436D01*
X12558444Y-16488150D02*
X12558444Y-16621484D01*
X12510825Y-16411960D02*
X12463206Y-16554817D01*
X12463206Y-16554817D02*
X12587015Y-16554817D01*
X12815587Y-16621484D02*
X12815587Y-16421484D01*
X12901301Y-16621484D02*
X12901301Y-16516722D01*
X12901301Y-16516722D02*
X12891777Y-16497674D01*
X12891777Y-16497674D02*
X12872730Y-16488150D01*
X12872730Y-16488150D02*
X12844158Y-16488150D01*
X12844158Y-16488150D02*
X12825110Y-16497674D01*
X12825110Y-16497674D02*
X12815587Y-16507198D01*
X13025110Y-16621484D02*
X13006063Y-16611960D01*
X13006063Y-16611960D02*
X12996539Y-16602436D01*
X12996539Y-16602436D02*
X12987015Y-16583388D01*
X12987015Y-16583388D02*
X12987015Y-16526246D01*
X12987015Y-16526246D02*
X12996539Y-16507198D01*
X12996539Y-16507198D02*
X13006063Y-16497674D01*
X13006063Y-16497674D02*
X13025110Y-16488150D01*
X13025110Y-16488150D02*
X13053682Y-16488150D01*
X13053682Y-16488150D02*
X13072730Y-16497674D01*
X13072730Y-16497674D02*
X13082253Y-16507198D01*
X13082253Y-16507198D02*
X13091777Y-16526246D01*
X13091777Y-16526246D02*
X13091777Y-16583388D01*
X13091777Y-16583388D02*
X13082253Y-16602436D01*
X13082253Y-16602436D02*
X13072730Y-16611960D01*
X13072730Y-16611960D02*
X13053682Y-16621484D01*
X13053682Y-16621484D02*
X13025110Y-16621484D01*
X13206063Y-16621484D02*
X13187015Y-16611960D01*
X13187015Y-16611960D02*
X13177491Y-16592912D01*
X13177491Y-16592912D02*
X13177491Y-16421484D01*
X13358444Y-16611960D02*
X13339396Y-16621484D01*
X13339396Y-16621484D02*
X13301301Y-16621484D01*
X13301301Y-16621484D02*
X13282253Y-16611960D01*
X13282253Y-16611960D02*
X13272730Y-16592912D01*
X13272730Y-16592912D02*
X13272730Y-16516722D01*
X13272730Y-16516722D02*
X13282253Y-16497674D01*
X13282253Y-16497674D02*
X13301301Y-16488150D01*
X13301301Y-16488150D02*
X13339396Y-16488150D01*
X13339396Y-16488150D02*
X13358444Y-16497674D01*
X13358444Y-16497674D02*
X13367968Y-16516722D01*
X13367968Y-16516722D02*
X13367968Y-16535769D01*
X13367968Y-16535769D02*
X13272730Y-16554817D01*
X13444158Y-16611960D02*
X13463206Y-16621484D01*
X13463206Y-16621484D02*
X13501301Y-16621484D01*
X13501301Y-16621484D02*
X13520349Y-16611960D01*
X13520349Y-16611960D02*
X13529872Y-16592912D01*
X13529872Y-16592912D02*
X13529872Y-16583388D01*
X13529872Y-16583388D02*
X13520349Y-16564341D01*
X13520349Y-16564341D02*
X13501301Y-16554817D01*
X13501301Y-16554817D02*
X13472730Y-16554817D01*
X13472730Y-16554817D02*
X13453682Y-16545293D01*
X13453682Y-16545293D02*
X13444158Y-16526246D01*
X13444158Y-16526246D02*
X13444158Y-16516722D01*
X13444158Y-16516722D02*
X13453682Y-16497674D01*
X13453682Y-16497674D02*
X13472730Y-16488150D01*
X13472730Y-16488150D02*
X13501301Y-16488150D01*
X13501301Y-16488150D02*
X13520349Y-16497674D01*
X13596539Y-16697674D02*
X13606063Y-16688150D01*
X13606063Y-16688150D02*
X13625111Y-16659579D01*
X13625111Y-16659579D02*
X13634634Y-16640531D01*
X13634634Y-16640531D02*
X13644158Y-16611960D01*
X13644158Y-16611960D02*
X13653682Y-16564341D01*
X13653682Y-16564341D02*
X13653682Y-16526246D01*
X13653682Y-16526246D02*
X13644158Y-16478627D01*
X13644158Y-16478627D02*
X13634634Y-16450055D01*
X13634634Y-16450055D02*
X13625111Y-16431008D01*
X13625111Y-16431008D02*
X13606063Y-16402436D01*
X13606063Y-16402436D02*
X13596539Y-16392912D01*
D10*
X8581000Y-16744000D02*
X8581000Y-16844000D01*
X8531000Y-16794000D02*
X8631000Y-16794000D01*
D11*
X8996539Y-16885484D02*
X8882253Y-16885484D01*
X8939396Y-16885484D02*
X8939396Y-16685484D01*
X8939396Y-16685484D02*
X8920348Y-16714055D01*
X8920348Y-16714055D02*
X8901301Y-16733103D01*
X8901301Y-16733103D02*
X8882253Y-16742627D01*
X9082253Y-16866436D02*
X9091777Y-16875960D01*
X9091777Y-16875960D02*
X9082253Y-16885484D01*
X9082253Y-16885484D02*
X9072729Y-16875960D01*
X9072729Y-16875960D02*
X9082253Y-16866436D01*
X9082253Y-16866436D02*
X9082253Y-16885484D01*
X9215586Y-16685484D02*
X9234634Y-16685484D01*
X9234634Y-16685484D02*
X9253682Y-16695008D01*
X9253682Y-16695008D02*
X9263205Y-16704531D01*
X9263205Y-16704531D02*
X9272729Y-16723579D01*
X9272729Y-16723579D02*
X9282253Y-16761674D01*
X9282253Y-16761674D02*
X9282253Y-16809293D01*
X9282253Y-16809293D02*
X9272729Y-16847389D01*
X9272729Y-16847389D02*
X9263205Y-16866436D01*
X9263205Y-16866436D02*
X9253682Y-16875960D01*
X9253682Y-16875960D02*
X9234634Y-16885484D01*
X9234634Y-16885484D02*
X9215586Y-16885484D01*
X9215586Y-16885484D02*
X9196539Y-16875960D01*
X9196539Y-16875960D02*
X9187015Y-16866436D01*
X9187015Y-16866436D02*
X9177491Y-16847389D01*
X9177491Y-16847389D02*
X9167967Y-16809293D01*
X9167967Y-16809293D02*
X9167967Y-16761674D01*
X9167967Y-16761674D02*
X9177491Y-16723579D01*
X9177491Y-16723579D02*
X9187015Y-16704531D01*
X9187015Y-16704531D02*
X9196539Y-16695008D01*
X9196539Y-16695008D02*
X9215586Y-16685484D01*
X9406063Y-16685484D02*
X9425110Y-16685484D01*
X9425110Y-16685484D02*
X9444158Y-16695008D01*
X9444158Y-16695008D02*
X9453682Y-16704531D01*
X9453682Y-16704531D02*
X9463205Y-16723579D01*
X9463205Y-16723579D02*
X9472729Y-16761674D01*
X9472729Y-16761674D02*
X9472729Y-16809293D01*
X9472729Y-16809293D02*
X9463205Y-16847389D01*
X9463205Y-16847389D02*
X9453682Y-16866436D01*
X9453682Y-16866436D02*
X9444158Y-16875960D01*
X9444158Y-16875960D02*
X9425110Y-16885484D01*
X9425110Y-16885484D02*
X9406063Y-16885484D01*
X9406063Y-16885484D02*
X9387015Y-16875960D01*
X9387015Y-16875960D02*
X9377491Y-16866436D01*
X9377491Y-16866436D02*
X9367967Y-16847389D01*
X9367967Y-16847389D02*
X9358444Y-16809293D01*
X9358444Y-16809293D02*
X9358444Y-16761674D01*
X9358444Y-16761674D02*
X9367967Y-16723579D01*
X9367967Y-16723579D02*
X9377491Y-16704531D01*
X9377491Y-16704531D02*
X9387015Y-16695008D01*
X9387015Y-16695008D02*
X9406063Y-16685484D01*
X9596539Y-16685484D02*
X9615586Y-16685484D01*
X9615586Y-16685484D02*
X9634634Y-16695008D01*
X9634634Y-16695008D02*
X9644158Y-16704531D01*
X9644158Y-16704531D02*
X9653682Y-16723579D01*
X9653682Y-16723579D02*
X9663205Y-16761674D01*
X9663205Y-16761674D02*
X9663205Y-16809293D01*
X9663205Y-16809293D02*
X9653682Y-16847389D01*
X9653682Y-16847389D02*
X9644158Y-16866436D01*
X9644158Y-16866436D02*
X9634634Y-16875960D01*
X9634634Y-16875960D02*
X9615586Y-16885484D01*
X9615586Y-16885484D02*
X9596539Y-16885484D01*
X9596539Y-16885484D02*
X9577491Y-16875960D01*
X9577491Y-16875960D02*
X9567967Y-16866436D01*
X9567967Y-16866436D02*
X9558444Y-16847389D01*
X9558444Y-16847389D02*
X9548920Y-16809293D01*
X9548920Y-16809293D02*
X9548920Y-16761674D01*
X9548920Y-16761674D02*
X9558444Y-16723579D01*
X9558444Y-16723579D02*
X9567967Y-16704531D01*
X9567967Y-16704531D02*
X9577491Y-16695008D01*
X9577491Y-16695008D02*
X9596539Y-16685484D01*
X9748920Y-16885484D02*
X9748920Y-16752150D01*
X9748920Y-16771198D02*
X9758444Y-16761674D01*
X9758444Y-16761674D02*
X9777491Y-16752150D01*
X9777491Y-16752150D02*
X9806063Y-16752150D01*
X9806063Y-16752150D02*
X9825110Y-16761674D01*
X9825110Y-16761674D02*
X9834634Y-16780722D01*
X9834634Y-16780722D02*
X9834634Y-16885484D01*
X9834634Y-16780722D02*
X9844158Y-16761674D01*
X9844158Y-16761674D02*
X9863205Y-16752150D01*
X9863205Y-16752150D02*
X9891777Y-16752150D01*
X9891777Y-16752150D02*
X9910825Y-16761674D01*
X9910825Y-16761674D02*
X9920348Y-16780722D01*
X9920348Y-16780722D02*
X9920348Y-16885484D01*
X10015586Y-16885484D02*
X10015586Y-16752150D01*
X10015586Y-16771198D02*
X10025110Y-16761674D01*
X10025110Y-16761674D02*
X10044158Y-16752150D01*
X10044158Y-16752150D02*
X10072729Y-16752150D01*
X10072729Y-16752150D02*
X10091777Y-16761674D01*
X10091777Y-16761674D02*
X10101301Y-16780722D01*
X10101301Y-16780722D02*
X10101301Y-16885484D01*
X10101301Y-16780722D02*
X10110825Y-16761674D01*
X10110825Y-16761674D02*
X10129872Y-16752150D01*
X10129872Y-16752150D02*
X10158444Y-16752150D01*
X10158444Y-16752150D02*
X10177491Y-16761674D01*
X10177491Y-16761674D02*
X10187015Y-16780722D01*
X10187015Y-16780722D02*
X10187015Y-16885484D01*
X10577491Y-16675960D02*
X10406063Y-16933103D01*
X10834634Y-16685484D02*
X10853682Y-16685484D01*
X10853682Y-16685484D02*
X10872729Y-16695008D01*
X10872729Y-16695008D02*
X10882253Y-16704531D01*
X10882253Y-16704531D02*
X10891777Y-16723579D01*
X10891777Y-16723579D02*
X10901301Y-16761674D01*
X10901301Y-16761674D02*
X10901301Y-16809293D01*
X10901301Y-16809293D02*
X10891777Y-16847389D01*
X10891777Y-16847389D02*
X10882253Y-16866436D01*
X10882253Y-16866436D02*
X10872729Y-16875960D01*
X10872729Y-16875960D02*
X10853682Y-16885484D01*
X10853682Y-16885484D02*
X10834634Y-16885484D01*
X10834634Y-16885484D02*
X10815587Y-16875960D01*
X10815587Y-16875960D02*
X10806063Y-16866436D01*
X10806063Y-16866436D02*
X10796539Y-16847389D01*
X10796539Y-16847389D02*
X10787015Y-16809293D01*
X10787015Y-16809293D02*
X10787015Y-16761674D01*
X10787015Y-16761674D02*
X10796539Y-16723579D01*
X10796539Y-16723579D02*
X10806063Y-16704531D01*
X10806063Y-16704531D02*
X10815587Y-16695008D01*
X10815587Y-16695008D02*
X10834634Y-16685484D01*
X10987015Y-16866436D02*
X10996539Y-16875960D01*
X10996539Y-16875960D02*
X10987015Y-16885484D01*
X10987015Y-16885484D02*
X10977491Y-16875960D01*
X10977491Y-16875960D02*
X10987015Y-16866436D01*
X10987015Y-16866436D02*
X10987015Y-16885484D01*
X11120348Y-16685484D02*
X11139396Y-16685484D01*
X11139396Y-16685484D02*
X11158444Y-16695008D01*
X11158444Y-16695008D02*
X11167968Y-16704531D01*
X11167968Y-16704531D02*
X11177491Y-16723579D01*
X11177491Y-16723579D02*
X11187015Y-16761674D01*
X11187015Y-16761674D02*
X11187015Y-16809293D01*
X11187015Y-16809293D02*
X11177491Y-16847389D01*
X11177491Y-16847389D02*
X11167968Y-16866436D01*
X11167968Y-16866436D02*
X11158444Y-16875960D01*
X11158444Y-16875960D02*
X11139396Y-16885484D01*
X11139396Y-16885484D02*
X11120348Y-16885484D01*
X11120348Y-16885484D02*
X11101301Y-16875960D01*
X11101301Y-16875960D02*
X11091777Y-16866436D01*
X11091777Y-16866436D02*
X11082253Y-16847389D01*
X11082253Y-16847389D02*
X11072729Y-16809293D01*
X11072729Y-16809293D02*
X11072729Y-16761674D01*
X11072729Y-16761674D02*
X11082253Y-16723579D01*
X11082253Y-16723579D02*
X11091777Y-16704531D01*
X11091777Y-16704531D02*
X11101301Y-16695008D01*
X11101301Y-16695008D02*
X11120348Y-16685484D01*
X11253682Y-16685484D02*
X11377491Y-16685484D01*
X11377491Y-16685484D02*
X11310825Y-16761674D01*
X11310825Y-16761674D02*
X11339396Y-16761674D01*
X11339396Y-16761674D02*
X11358444Y-16771198D01*
X11358444Y-16771198D02*
X11367967Y-16780722D01*
X11367967Y-16780722D02*
X11377491Y-16799770D01*
X11377491Y-16799770D02*
X11377491Y-16847389D01*
X11377491Y-16847389D02*
X11367967Y-16866436D01*
X11367967Y-16866436D02*
X11358444Y-16875960D01*
X11358444Y-16875960D02*
X11339396Y-16885484D01*
X11339396Y-16885484D02*
X11282253Y-16885484D01*
X11282253Y-16885484D02*
X11263206Y-16875960D01*
X11263206Y-16875960D02*
X11253682Y-16866436D01*
X11472729Y-16885484D02*
X11510825Y-16885484D01*
X11510825Y-16885484D02*
X11529872Y-16875960D01*
X11529872Y-16875960D02*
X11539396Y-16866436D01*
X11539396Y-16866436D02*
X11558444Y-16837865D01*
X11558444Y-16837865D02*
X11567967Y-16799770D01*
X11567967Y-16799770D02*
X11567967Y-16723579D01*
X11567967Y-16723579D02*
X11558444Y-16704531D01*
X11558444Y-16704531D02*
X11548920Y-16695008D01*
X11548920Y-16695008D02*
X11529872Y-16685484D01*
X11529872Y-16685484D02*
X11491777Y-16685484D01*
X11491777Y-16685484D02*
X11472729Y-16695008D01*
X11472729Y-16695008D02*
X11463206Y-16704531D01*
X11463206Y-16704531D02*
X11453682Y-16723579D01*
X11453682Y-16723579D02*
X11453682Y-16771198D01*
X11453682Y-16771198D02*
X11463206Y-16790246D01*
X11463206Y-16790246D02*
X11472729Y-16799770D01*
X11472729Y-16799770D02*
X11491777Y-16809293D01*
X11491777Y-16809293D02*
X11529872Y-16809293D01*
X11529872Y-16809293D02*
X11548920Y-16799770D01*
X11548920Y-16799770D02*
X11558444Y-16790246D01*
X11558444Y-16790246D02*
X11567967Y-16771198D01*
X11739396Y-16752150D02*
X11739396Y-16885484D01*
X11691777Y-16675960D02*
X11644158Y-16818817D01*
X11644158Y-16818817D02*
X11767967Y-16818817D01*
X11834634Y-16685484D02*
X11834634Y-16723579D01*
X11910825Y-16685484D02*
X11910825Y-16723579D01*
X12206063Y-16961674D02*
X12196539Y-16952150D01*
X12196539Y-16952150D02*
X12177491Y-16923579D01*
X12177491Y-16923579D02*
X12167968Y-16904531D01*
X12167968Y-16904531D02*
X12158444Y-16875960D01*
X12158444Y-16875960D02*
X12148920Y-16828341D01*
X12148920Y-16828341D02*
X12148920Y-16790246D01*
X12148920Y-16790246D02*
X12158444Y-16742627D01*
X12158444Y-16742627D02*
X12167968Y-16714055D01*
X12167968Y-16714055D02*
X12177491Y-16695008D01*
X12177491Y-16695008D02*
X12196539Y-16666436D01*
X12196539Y-16666436D02*
X12206063Y-16656912D01*
X12272729Y-16704531D02*
X12282253Y-16695008D01*
X12282253Y-16695008D02*
X12301301Y-16685484D01*
X12301301Y-16685484D02*
X12348920Y-16685484D01*
X12348920Y-16685484D02*
X12367968Y-16695008D01*
X12367968Y-16695008D02*
X12377491Y-16704531D01*
X12377491Y-16704531D02*
X12387015Y-16723579D01*
X12387015Y-16723579D02*
X12387015Y-16742627D01*
X12387015Y-16742627D02*
X12377491Y-16771198D01*
X12377491Y-16771198D02*
X12263206Y-16885484D01*
X12263206Y-16885484D02*
X12387015Y-16885484D01*
X12510825Y-16685484D02*
X12529872Y-16685484D01*
X12529872Y-16685484D02*
X12548920Y-16695008D01*
X12548920Y-16695008D02*
X12558444Y-16704531D01*
X12558444Y-16704531D02*
X12567968Y-16723579D01*
X12567968Y-16723579D02*
X12577491Y-16761674D01*
X12577491Y-16761674D02*
X12577491Y-16809293D01*
X12577491Y-16809293D02*
X12567968Y-16847389D01*
X12567968Y-16847389D02*
X12558444Y-16866436D01*
X12558444Y-16866436D02*
X12548920Y-16875960D01*
X12548920Y-16875960D02*
X12529872Y-16885484D01*
X12529872Y-16885484D02*
X12510825Y-16885484D01*
X12510825Y-16885484D02*
X12491777Y-16875960D01*
X12491777Y-16875960D02*
X12482253Y-16866436D01*
X12482253Y-16866436D02*
X12472729Y-16847389D01*
X12472729Y-16847389D02*
X12463206Y-16809293D01*
X12463206Y-16809293D02*
X12463206Y-16761674D01*
X12463206Y-16761674D02*
X12472729Y-16723579D01*
X12472729Y-16723579D02*
X12482253Y-16704531D01*
X12482253Y-16704531D02*
X12491777Y-16695008D01*
X12491777Y-16695008D02*
X12510825Y-16685484D01*
X12815587Y-16885484D02*
X12815587Y-16685484D01*
X12901301Y-16885484D02*
X12901301Y-16780722D01*
X12901301Y-16780722D02*
X12891777Y-16761674D01*
X12891777Y-16761674D02*
X12872730Y-16752150D01*
X12872730Y-16752150D02*
X12844158Y-16752150D01*
X12844158Y-16752150D02*
X12825110Y-16761674D01*
X12825110Y-16761674D02*
X12815587Y-16771198D01*
X13025110Y-16885484D02*
X13006063Y-16875960D01*
X13006063Y-16875960D02*
X12996539Y-16866436D01*
X12996539Y-16866436D02*
X12987015Y-16847389D01*
X12987015Y-16847389D02*
X12987015Y-16790246D01*
X12987015Y-16790246D02*
X12996539Y-16771198D01*
X12996539Y-16771198D02*
X13006063Y-16761674D01*
X13006063Y-16761674D02*
X13025110Y-16752150D01*
X13025110Y-16752150D02*
X13053682Y-16752150D01*
X13053682Y-16752150D02*
X13072730Y-16761674D01*
X13072730Y-16761674D02*
X13082253Y-16771198D01*
X13082253Y-16771198D02*
X13091777Y-16790246D01*
X13091777Y-16790246D02*
X13091777Y-16847389D01*
X13091777Y-16847389D02*
X13082253Y-16866436D01*
X13082253Y-16866436D02*
X13072730Y-16875960D01*
X13072730Y-16875960D02*
X13053682Y-16885484D01*
X13053682Y-16885484D02*
X13025110Y-16885484D01*
X13206063Y-16885484D02*
X13187015Y-16875960D01*
X13187015Y-16875960D02*
X13177491Y-16856912D01*
X13177491Y-16856912D02*
X13177491Y-16685484D01*
X13358444Y-16875960D02*
X13339396Y-16885484D01*
X13339396Y-16885484D02*
X13301301Y-16885484D01*
X13301301Y-16885484D02*
X13282253Y-16875960D01*
X13282253Y-16875960D02*
X13272730Y-16856912D01*
X13272730Y-16856912D02*
X13272730Y-16780722D01*
X13272730Y-16780722D02*
X13282253Y-16761674D01*
X13282253Y-16761674D02*
X13301301Y-16752150D01*
X13301301Y-16752150D02*
X13339396Y-16752150D01*
X13339396Y-16752150D02*
X13358444Y-16761674D01*
X13358444Y-16761674D02*
X13367968Y-16780722D01*
X13367968Y-16780722D02*
X13367968Y-16799770D01*
X13367968Y-16799770D02*
X13272730Y-16818817D01*
X13444158Y-16875960D02*
X13463206Y-16885484D01*
X13463206Y-16885484D02*
X13501301Y-16885484D01*
X13501301Y-16885484D02*
X13520349Y-16875960D01*
X13520349Y-16875960D02*
X13529872Y-16856912D01*
X13529872Y-16856912D02*
X13529872Y-16847389D01*
X13529872Y-16847389D02*
X13520349Y-16828341D01*
X13520349Y-16828341D02*
X13501301Y-16818817D01*
X13501301Y-16818817D02*
X13472730Y-16818817D01*
X13472730Y-16818817D02*
X13453682Y-16809293D01*
X13453682Y-16809293D02*
X13444158Y-16790246D01*
X13444158Y-16790246D02*
X13444158Y-16780722D01*
X13444158Y-16780722D02*
X13453682Y-16761674D01*
X13453682Y-16761674D02*
X13472730Y-16752150D01*
X13472730Y-16752150D02*
X13501301Y-16752150D01*
X13501301Y-16752150D02*
X13520349Y-16761674D01*
X13596539Y-16961674D02*
X13606063Y-16952150D01*
X13606063Y-16952150D02*
X13625111Y-16923579D01*
X13625111Y-16923579D02*
X13634634Y-16904531D01*
X13634634Y-16904531D02*
X13644158Y-16875960D01*
X13644158Y-16875960D02*
X13653682Y-16828341D01*
X13653682Y-16828341D02*
X13653682Y-16790246D01*
X13653682Y-16790246D02*
X13644158Y-16742627D01*
X13644158Y-16742627D02*
X13634634Y-16714055D01*
X13634634Y-16714055D02*
X13625111Y-16695008D01*
X13625111Y-16695008D02*
X13606063Y-16666436D01*
X13606063Y-16666436D02*
X13596539Y-16656912D01*
D12*
X8616063Y-17094063D02*
X8616063Y-17021937D01*
X8543937Y-17021937D01*
X8543937Y-17094063D01*
X8616063Y-17094063D01*
D11*
X8996539Y-17149484D02*
X8882253Y-17149484D01*
X8939396Y-17149484D02*
X8939396Y-16949484D01*
X8939396Y-16949484D02*
X8920348Y-16978055D01*
X8920348Y-16978055D02*
X8901301Y-16997103D01*
X8901301Y-16997103D02*
X8882253Y-17006627D01*
X9082253Y-17130436D02*
X9091777Y-17139960D01*
X9091777Y-17139960D02*
X9082253Y-17149484D01*
X9082253Y-17149484D02*
X9072729Y-17139960D01*
X9072729Y-17139960D02*
X9082253Y-17130436D01*
X9082253Y-17130436D02*
X9082253Y-17149484D01*
X9215586Y-16949484D02*
X9234634Y-16949484D01*
X9234634Y-16949484D02*
X9253682Y-16959008D01*
X9253682Y-16959008D02*
X9263205Y-16968531D01*
X9263205Y-16968531D02*
X9272729Y-16987579D01*
X9272729Y-16987579D02*
X9282253Y-17025674D01*
X9282253Y-17025674D02*
X9282253Y-17073293D01*
X9282253Y-17073293D02*
X9272729Y-17111389D01*
X9272729Y-17111389D02*
X9263205Y-17130436D01*
X9263205Y-17130436D02*
X9253682Y-17139960D01*
X9253682Y-17139960D02*
X9234634Y-17149484D01*
X9234634Y-17149484D02*
X9215586Y-17149484D01*
X9215586Y-17149484D02*
X9196539Y-17139960D01*
X9196539Y-17139960D02*
X9187015Y-17130436D01*
X9187015Y-17130436D02*
X9177491Y-17111389D01*
X9177491Y-17111389D02*
X9167967Y-17073293D01*
X9167967Y-17073293D02*
X9167967Y-17025674D01*
X9167967Y-17025674D02*
X9177491Y-16987579D01*
X9177491Y-16987579D02*
X9187015Y-16968531D01*
X9187015Y-16968531D02*
X9196539Y-16959008D01*
X9196539Y-16959008D02*
X9215586Y-16949484D01*
X9358444Y-16968531D02*
X9367967Y-16959008D01*
X9367967Y-16959008D02*
X9387015Y-16949484D01*
X9387015Y-16949484D02*
X9434634Y-16949484D01*
X9434634Y-16949484D02*
X9453682Y-16959008D01*
X9453682Y-16959008D02*
X9463205Y-16968531D01*
X9463205Y-16968531D02*
X9472729Y-16987579D01*
X9472729Y-16987579D02*
X9472729Y-17006627D01*
X9472729Y-17006627D02*
X9463205Y-17035198D01*
X9463205Y-17035198D02*
X9348920Y-17149484D01*
X9348920Y-17149484D02*
X9472729Y-17149484D01*
X9596539Y-16949484D02*
X9615586Y-16949484D01*
X9615586Y-16949484D02*
X9634634Y-16959008D01*
X9634634Y-16959008D02*
X9644158Y-16968531D01*
X9644158Y-16968531D02*
X9653682Y-16987579D01*
X9653682Y-16987579D02*
X9663205Y-17025674D01*
X9663205Y-17025674D02*
X9663205Y-17073293D01*
X9663205Y-17073293D02*
X9653682Y-17111389D01*
X9653682Y-17111389D02*
X9644158Y-17130436D01*
X9644158Y-17130436D02*
X9634634Y-17139960D01*
X9634634Y-17139960D02*
X9615586Y-17149484D01*
X9615586Y-17149484D02*
X9596539Y-17149484D01*
X9596539Y-17149484D02*
X9577491Y-17139960D01*
X9577491Y-17139960D02*
X9567967Y-17130436D01*
X9567967Y-17130436D02*
X9558444Y-17111389D01*
X9558444Y-17111389D02*
X9548920Y-17073293D01*
X9548920Y-17073293D02*
X9548920Y-17025674D01*
X9548920Y-17025674D02*
X9558444Y-16987579D01*
X9558444Y-16987579D02*
X9567967Y-16968531D01*
X9567967Y-16968531D02*
X9577491Y-16959008D01*
X9577491Y-16959008D02*
X9596539Y-16949484D01*
X9748920Y-17149484D02*
X9748920Y-17016150D01*
X9748920Y-17035198D02*
X9758444Y-17025674D01*
X9758444Y-17025674D02*
X9777491Y-17016150D01*
X9777491Y-17016150D02*
X9806063Y-17016150D01*
X9806063Y-17016150D02*
X9825110Y-17025674D01*
X9825110Y-17025674D02*
X9834634Y-17044722D01*
X9834634Y-17044722D02*
X9834634Y-17149484D01*
X9834634Y-17044722D02*
X9844158Y-17025674D01*
X9844158Y-17025674D02*
X9863205Y-17016150D01*
X9863205Y-17016150D02*
X9891777Y-17016150D01*
X9891777Y-17016150D02*
X9910825Y-17025674D01*
X9910825Y-17025674D02*
X9920348Y-17044722D01*
X9920348Y-17044722D02*
X9920348Y-17149484D01*
X10015586Y-17149484D02*
X10015586Y-17016150D01*
X10015586Y-17035198D02*
X10025110Y-17025674D01*
X10025110Y-17025674D02*
X10044158Y-17016150D01*
X10044158Y-17016150D02*
X10072729Y-17016150D01*
X10072729Y-17016150D02*
X10091777Y-17025674D01*
X10091777Y-17025674D02*
X10101301Y-17044722D01*
X10101301Y-17044722D02*
X10101301Y-17149484D01*
X10101301Y-17044722D02*
X10110825Y-17025674D01*
X10110825Y-17025674D02*
X10129872Y-17016150D01*
X10129872Y-17016150D02*
X10158444Y-17016150D01*
X10158444Y-17016150D02*
X10177491Y-17025674D01*
X10177491Y-17025674D02*
X10187015Y-17044722D01*
X10187015Y-17044722D02*
X10187015Y-17149484D01*
X10577491Y-16939960D02*
X10406063Y-17197103D01*
X10834634Y-16949484D02*
X10853682Y-16949484D01*
X10853682Y-16949484D02*
X10872729Y-16959008D01*
X10872729Y-16959008D02*
X10882253Y-16968531D01*
X10882253Y-16968531D02*
X10891777Y-16987579D01*
X10891777Y-16987579D02*
X10901301Y-17025674D01*
X10901301Y-17025674D02*
X10901301Y-17073293D01*
X10901301Y-17073293D02*
X10891777Y-17111389D01*
X10891777Y-17111389D02*
X10882253Y-17130436D01*
X10882253Y-17130436D02*
X10872729Y-17139960D01*
X10872729Y-17139960D02*
X10853682Y-17149484D01*
X10853682Y-17149484D02*
X10834634Y-17149484D01*
X10834634Y-17149484D02*
X10815587Y-17139960D01*
X10815587Y-17139960D02*
X10806063Y-17130436D01*
X10806063Y-17130436D02*
X10796539Y-17111389D01*
X10796539Y-17111389D02*
X10787015Y-17073293D01*
X10787015Y-17073293D02*
X10787015Y-17025674D01*
X10787015Y-17025674D02*
X10796539Y-16987579D01*
X10796539Y-16987579D02*
X10806063Y-16968531D01*
X10806063Y-16968531D02*
X10815587Y-16959008D01*
X10815587Y-16959008D02*
X10834634Y-16949484D01*
X10987015Y-17130436D02*
X10996539Y-17139960D01*
X10996539Y-17139960D02*
X10987015Y-17149484D01*
X10987015Y-17149484D02*
X10977491Y-17139960D01*
X10977491Y-17139960D02*
X10987015Y-17130436D01*
X10987015Y-17130436D02*
X10987015Y-17149484D01*
X11120348Y-16949484D02*
X11139396Y-16949484D01*
X11139396Y-16949484D02*
X11158444Y-16959008D01*
X11158444Y-16959008D02*
X11167968Y-16968531D01*
X11167968Y-16968531D02*
X11177491Y-16987579D01*
X11177491Y-16987579D02*
X11187015Y-17025674D01*
X11187015Y-17025674D02*
X11187015Y-17073293D01*
X11187015Y-17073293D02*
X11177491Y-17111389D01*
X11177491Y-17111389D02*
X11167968Y-17130436D01*
X11167968Y-17130436D02*
X11158444Y-17139960D01*
X11158444Y-17139960D02*
X11139396Y-17149484D01*
X11139396Y-17149484D02*
X11120348Y-17149484D01*
X11120348Y-17149484D02*
X11101301Y-17139960D01*
X11101301Y-17139960D02*
X11091777Y-17130436D01*
X11091777Y-17130436D02*
X11082253Y-17111389D01*
X11082253Y-17111389D02*
X11072729Y-17073293D01*
X11072729Y-17073293D02*
X11072729Y-17025674D01*
X11072729Y-17025674D02*
X11082253Y-16987579D01*
X11082253Y-16987579D02*
X11091777Y-16968531D01*
X11091777Y-16968531D02*
X11101301Y-16959008D01*
X11101301Y-16959008D02*
X11120348Y-16949484D01*
X11358444Y-17016150D02*
X11358444Y-17149484D01*
X11310825Y-16939960D02*
X11263206Y-17082817D01*
X11263206Y-17082817D02*
X11387015Y-17082817D01*
X11501301Y-16949484D02*
X11520348Y-16949484D01*
X11520348Y-16949484D02*
X11539396Y-16959008D01*
X11539396Y-16959008D02*
X11548920Y-16968531D01*
X11548920Y-16968531D02*
X11558444Y-16987579D01*
X11558444Y-16987579D02*
X11567967Y-17025674D01*
X11567967Y-17025674D02*
X11567967Y-17073293D01*
X11567967Y-17073293D02*
X11558444Y-17111389D01*
X11558444Y-17111389D02*
X11548920Y-17130436D01*
X11548920Y-17130436D02*
X11539396Y-17139960D01*
X11539396Y-17139960D02*
X11520348Y-17149484D01*
X11520348Y-17149484D02*
X11501301Y-17149484D01*
X11501301Y-17149484D02*
X11482253Y-17139960D01*
X11482253Y-17139960D02*
X11472729Y-17130436D01*
X11472729Y-17130436D02*
X11463206Y-17111389D01*
X11463206Y-17111389D02*
X11453682Y-17073293D01*
X11453682Y-17073293D02*
X11453682Y-17025674D01*
X11453682Y-17025674D02*
X11463206Y-16987579D01*
X11463206Y-16987579D02*
X11472729Y-16968531D01*
X11472729Y-16968531D02*
X11482253Y-16959008D01*
X11482253Y-16959008D02*
X11501301Y-16949484D01*
X11644158Y-16968531D02*
X11653682Y-16959008D01*
X11653682Y-16959008D02*
X11672729Y-16949484D01*
X11672729Y-16949484D02*
X11720348Y-16949484D01*
X11720348Y-16949484D02*
X11739396Y-16959008D01*
X11739396Y-16959008D02*
X11748920Y-16968531D01*
X11748920Y-16968531D02*
X11758444Y-16987579D01*
X11758444Y-16987579D02*
X11758444Y-17006627D01*
X11758444Y-17006627D02*
X11748920Y-17035198D01*
X11748920Y-17035198D02*
X11634634Y-17149484D01*
X11634634Y-17149484D02*
X11758444Y-17149484D01*
X11834634Y-16949484D02*
X11834634Y-16987579D01*
X11910825Y-16949484D02*
X11910825Y-16987579D01*
X12206063Y-17225674D02*
X12196539Y-17216150D01*
X12196539Y-17216150D02*
X12177491Y-17187579D01*
X12177491Y-17187579D02*
X12167968Y-17168531D01*
X12167968Y-17168531D02*
X12158444Y-17139960D01*
X12158444Y-17139960D02*
X12148920Y-17092341D01*
X12148920Y-17092341D02*
X12148920Y-17054246D01*
X12148920Y-17054246D02*
X12158444Y-17006627D01*
X12158444Y-17006627D02*
X12167968Y-16978055D01*
X12167968Y-16978055D02*
X12177491Y-16959008D01*
X12177491Y-16959008D02*
X12196539Y-16930436D01*
X12196539Y-16930436D02*
X12206063Y-16920912D01*
X12377491Y-16949484D02*
X12282253Y-16949484D01*
X12282253Y-16949484D02*
X12272729Y-17044722D01*
X12272729Y-17044722D02*
X12282253Y-17035198D01*
X12282253Y-17035198D02*
X12301301Y-17025674D01*
X12301301Y-17025674D02*
X12348920Y-17025674D01*
X12348920Y-17025674D02*
X12367968Y-17035198D01*
X12367968Y-17035198D02*
X12377491Y-17044722D01*
X12377491Y-17044722D02*
X12387015Y-17063770D01*
X12387015Y-17063770D02*
X12387015Y-17111389D01*
X12387015Y-17111389D02*
X12377491Y-17130436D01*
X12377491Y-17130436D02*
X12367968Y-17139960D01*
X12367968Y-17139960D02*
X12348920Y-17149484D01*
X12348920Y-17149484D02*
X12301301Y-17149484D01*
X12301301Y-17149484D02*
X12282253Y-17139960D01*
X12282253Y-17139960D02*
X12272729Y-17130436D01*
X12577491Y-17149484D02*
X12463206Y-17149484D01*
X12520348Y-17149484D02*
X12520348Y-16949484D01*
X12520348Y-16949484D02*
X12501301Y-16978055D01*
X12501301Y-16978055D02*
X12482253Y-16997103D01*
X12482253Y-16997103D02*
X12463206Y-17006627D01*
X12815587Y-17149484D02*
X12815587Y-16949484D01*
X12901301Y-17149484D02*
X12901301Y-17044722D01*
X12901301Y-17044722D02*
X12891777Y-17025674D01*
X12891777Y-17025674D02*
X12872730Y-17016150D01*
X12872730Y-17016150D02*
X12844158Y-17016150D01*
X12844158Y-17016150D02*
X12825110Y-17025674D01*
X12825110Y-17025674D02*
X12815587Y-17035198D01*
X13025110Y-17149484D02*
X13006063Y-17139960D01*
X13006063Y-17139960D02*
X12996539Y-17130436D01*
X12996539Y-17130436D02*
X12987015Y-17111389D01*
X12987015Y-17111389D02*
X12987015Y-17054246D01*
X12987015Y-17054246D02*
X12996539Y-17035198D01*
X12996539Y-17035198D02*
X13006063Y-17025674D01*
X13006063Y-17025674D02*
X13025110Y-17016150D01*
X13025110Y-17016150D02*
X13053682Y-17016150D01*
X13053682Y-17016150D02*
X13072730Y-17025674D01*
X13072730Y-17025674D02*
X13082253Y-17035198D01*
X13082253Y-17035198D02*
X13091777Y-17054246D01*
X13091777Y-17054246D02*
X13091777Y-17111389D01*
X13091777Y-17111389D02*
X13082253Y-17130436D01*
X13082253Y-17130436D02*
X13072730Y-17139960D01*
X13072730Y-17139960D02*
X13053682Y-17149484D01*
X13053682Y-17149484D02*
X13025110Y-17149484D01*
X13206063Y-17149484D02*
X13187015Y-17139960D01*
X13187015Y-17139960D02*
X13177491Y-17120912D01*
X13177491Y-17120912D02*
X13177491Y-16949484D01*
X13358444Y-17139960D02*
X13339396Y-17149484D01*
X13339396Y-17149484D02*
X13301301Y-17149484D01*
X13301301Y-17149484D02*
X13282253Y-17139960D01*
X13282253Y-17139960D02*
X13272730Y-17120912D01*
X13272730Y-17120912D02*
X13272730Y-17044722D01*
X13272730Y-17044722D02*
X13282253Y-17025674D01*
X13282253Y-17025674D02*
X13301301Y-17016150D01*
X13301301Y-17016150D02*
X13339396Y-17016150D01*
X13339396Y-17016150D02*
X13358444Y-17025674D01*
X13358444Y-17025674D02*
X13367968Y-17044722D01*
X13367968Y-17044722D02*
X13367968Y-17063770D01*
X13367968Y-17063770D02*
X13272730Y-17082817D01*
X13444158Y-17139960D02*
X13463206Y-17149484D01*
X13463206Y-17149484D02*
X13501301Y-17149484D01*
X13501301Y-17149484D02*
X13520349Y-17139960D01*
X13520349Y-17139960D02*
X13529872Y-17120912D01*
X13529872Y-17120912D02*
X13529872Y-17111389D01*
X13529872Y-17111389D02*
X13520349Y-17092341D01*
X13520349Y-17092341D02*
X13501301Y-17082817D01*
X13501301Y-17082817D02*
X13472730Y-17082817D01*
X13472730Y-17082817D02*
X13453682Y-17073293D01*
X13453682Y-17073293D02*
X13444158Y-17054246D01*
X13444158Y-17054246D02*
X13444158Y-17044722D01*
X13444158Y-17044722D02*
X13453682Y-17025674D01*
X13453682Y-17025674D02*
X13472730Y-17016150D01*
X13472730Y-17016150D02*
X13501301Y-17016150D01*
X13501301Y-17016150D02*
X13520349Y-17025674D01*
X13596539Y-17225674D02*
X13606063Y-17216150D01*
X13606063Y-17216150D02*
X13625111Y-17187579D01*
X13625111Y-17187579D02*
X13634634Y-17168531D01*
X13634634Y-17168531D02*
X13644158Y-17139960D01*
X13644158Y-17139960D02*
X13653682Y-17092341D01*
X13653682Y-17092341D02*
X13653682Y-17054246D01*
X13653682Y-17054246D02*
X13644158Y-17006627D01*
X13644158Y-17006627D02*
X13634634Y-16978055D01*
X13634634Y-16978055D02*
X13625111Y-16959008D01*
X13625111Y-16959008D02*
X13606063Y-16930436D01*
X13606063Y-16930436D02*
X13596539Y-16920912D01*
D13*
X8576000Y-17377000D02*
X8631000Y-17322000D01*
X8576000Y-17267000D01*
X8521000Y-17322000D01*
X8576000Y-17377000D01*
D11*
X8996539Y-17413484D02*
X8882253Y-17413484D01*
X8939396Y-17413484D02*
X8939396Y-17213484D01*
X8939396Y-17213484D02*
X8920348Y-17242055D01*
X8920348Y-17242055D02*
X8901301Y-17261103D01*
X8901301Y-17261103D02*
X8882253Y-17270627D01*
X9082253Y-17394436D02*
X9091777Y-17403960D01*
X9091777Y-17403960D02*
X9082253Y-17413484D01*
X9082253Y-17413484D02*
X9072729Y-17403960D01*
X9072729Y-17403960D02*
X9082253Y-17394436D01*
X9082253Y-17394436D02*
X9082253Y-17413484D01*
X9282253Y-17413484D02*
X9167967Y-17413484D01*
X9225110Y-17413484D02*
X9225110Y-17213484D01*
X9225110Y-17213484D02*
X9206063Y-17242055D01*
X9206063Y-17242055D02*
X9187015Y-17261103D01*
X9187015Y-17261103D02*
X9167967Y-17270627D01*
X9406063Y-17213484D02*
X9425110Y-17213484D01*
X9425110Y-17213484D02*
X9444158Y-17223008D01*
X9444158Y-17223008D02*
X9453682Y-17232531D01*
X9453682Y-17232531D02*
X9463205Y-17251579D01*
X9463205Y-17251579D02*
X9472729Y-17289674D01*
X9472729Y-17289674D02*
X9472729Y-17337293D01*
X9472729Y-17337293D02*
X9463205Y-17375389D01*
X9463205Y-17375389D02*
X9453682Y-17394436D01*
X9453682Y-17394436D02*
X9444158Y-17403960D01*
X9444158Y-17403960D02*
X9425110Y-17413484D01*
X9425110Y-17413484D02*
X9406063Y-17413484D01*
X9406063Y-17413484D02*
X9387015Y-17403960D01*
X9387015Y-17403960D02*
X9377491Y-17394436D01*
X9377491Y-17394436D02*
X9367967Y-17375389D01*
X9367967Y-17375389D02*
X9358444Y-17337293D01*
X9358444Y-17337293D02*
X9358444Y-17289674D01*
X9358444Y-17289674D02*
X9367967Y-17251579D01*
X9367967Y-17251579D02*
X9377491Y-17232531D01*
X9377491Y-17232531D02*
X9387015Y-17223008D01*
X9387015Y-17223008D02*
X9406063Y-17213484D01*
X9596539Y-17213484D02*
X9615586Y-17213484D01*
X9615586Y-17213484D02*
X9634634Y-17223008D01*
X9634634Y-17223008D02*
X9644158Y-17232531D01*
X9644158Y-17232531D02*
X9653682Y-17251579D01*
X9653682Y-17251579D02*
X9663205Y-17289674D01*
X9663205Y-17289674D02*
X9663205Y-17337293D01*
X9663205Y-17337293D02*
X9653682Y-17375389D01*
X9653682Y-17375389D02*
X9644158Y-17394436D01*
X9644158Y-17394436D02*
X9634634Y-17403960D01*
X9634634Y-17403960D02*
X9615586Y-17413484D01*
X9615586Y-17413484D02*
X9596539Y-17413484D01*
X9596539Y-17413484D02*
X9577491Y-17403960D01*
X9577491Y-17403960D02*
X9567967Y-17394436D01*
X9567967Y-17394436D02*
X9558444Y-17375389D01*
X9558444Y-17375389D02*
X9548920Y-17337293D01*
X9548920Y-17337293D02*
X9548920Y-17289674D01*
X9548920Y-17289674D02*
X9558444Y-17251579D01*
X9558444Y-17251579D02*
X9567967Y-17232531D01*
X9567967Y-17232531D02*
X9577491Y-17223008D01*
X9577491Y-17223008D02*
X9596539Y-17213484D01*
X9748920Y-17413484D02*
X9748920Y-17280150D01*
X9748920Y-17299198D02*
X9758444Y-17289674D01*
X9758444Y-17289674D02*
X9777491Y-17280150D01*
X9777491Y-17280150D02*
X9806063Y-17280150D01*
X9806063Y-17280150D02*
X9825110Y-17289674D01*
X9825110Y-17289674D02*
X9834634Y-17308722D01*
X9834634Y-17308722D02*
X9834634Y-17413484D01*
X9834634Y-17308722D02*
X9844158Y-17289674D01*
X9844158Y-17289674D02*
X9863205Y-17280150D01*
X9863205Y-17280150D02*
X9891777Y-17280150D01*
X9891777Y-17280150D02*
X9910825Y-17289674D01*
X9910825Y-17289674D02*
X9920348Y-17308722D01*
X9920348Y-17308722D02*
X9920348Y-17413484D01*
X10015586Y-17413484D02*
X10015586Y-17280150D01*
X10015586Y-17299198D02*
X10025110Y-17289674D01*
X10025110Y-17289674D02*
X10044158Y-17280150D01*
X10044158Y-17280150D02*
X10072729Y-17280150D01*
X10072729Y-17280150D02*
X10091777Y-17289674D01*
X10091777Y-17289674D02*
X10101301Y-17308722D01*
X10101301Y-17308722D02*
X10101301Y-17413484D01*
X10101301Y-17308722D02*
X10110825Y-17289674D01*
X10110825Y-17289674D02*
X10129872Y-17280150D01*
X10129872Y-17280150D02*
X10158444Y-17280150D01*
X10158444Y-17280150D02*
X10177491Y-17289674D01*
X10177491Y-17289674D02*
X10187015Y-17308722D01*
X10187015Y-17308722D02*
X10187015Y-17413484D01*
X10577491Y-17203960D02*
X10406063Y-17461103D01*
X10834634Y-17213484D02*
X10853682Y-17213484D01*
X10853682Y-17213484D02*
X10872729Y-17223008D01*
X10872729Y-17223008D02*
X10882253Y-17232531D01*
X10882253Y-17232531D02*
X10891777Y-17251579D01*
X10891777Y-17251579D02*
X10901301Y-17289674D01*
X10901301Y-17289674D02*
X10901301Y-17337293D01*
X10901301Y-17337293D02*
X10891777Y-17375389D01*
X10891777Y-17375389D02*
X10882253Y-17394436D01*
X10882253Y-17394436D02*
X10872729Y-17403960D01*
X10872729Y-17403960D02*
X10853682Y-17413484D01*
X10853682Y-17413484D02*
X10834634Y-17413484D01*
X10834634Y-17413484D02*
X10815587Y-17403960D01*
X10815587Y-17403960D02*
X10806063Y-17394436D01*
X10806063Y-17394436D02*
X10796539Y-17375389D01*
X10796539Y-17375389D02*
X10787015Y-17337293D01*
X10787015Y-17337293D02*
X10787015Y-17289674D01*
X10787015Y-17289674D02*
X10796539Y-17251579D01*
X10796539Y-17251579D02*
X10806063Y-17232531D01*
X10806063Y-17232531D02*
X10815587Y-17223008D01*
X10815587Y-17223008D02*
X10834634Y-17213484D01*
X10987015Y-17394436D02*
X10996539Y-17403960D01*
X10996539Y-17403960D02*
X10987015Y-17413484D01*
X10987015Y-17413484D02*
X10977491Y-17403960D01*
X10977491Y-17403960D02*
X10987015Y-17394436D01*
X10987015Y-17394436D02*
X10987015Y-17413484D01*
X11120348Y-17213484D02*
X11139396Y-17213484D01*
X11139396Y-17213484D02*
X11158444Y-17223008D01*
X11158444Y-17223008D02*
X11167968Y-17232531D01*
X11167968Y-17232531D02*
X11177491Y-17251579D01*
X11177491Y-17251579D02*
X11187015Y-17289674D01*
X11187015Y-17289674D02*
X11187015Y-17337293D01*
X11187015Y-17337293D02*
X11177491Y-17375389D01*
X11177491Y-17375389D02*
X11167968Y-17394436D01*
X11167968Y-17394436D02*
X11158444Y-17403960D01*
X11158444Y-17403960D02*
X11139396Y-17413484D01*
X11139396Y-17413484D02*
X11120348Y-17413484D01*
X11120348Y-17413484D02*
X11101301Y-17403960D01*
X11101301Y-17403960D02*
X11091777Y-17394436D01*
X11091777Y-17394436D02*
X11082253Y-17375389D01*
X11082253Y-17375389D02*
X11072729Y-17337293D01*
X11072729Y-17337293D02*
X11072729Y-17289674D01*
X11072729Y-17289674D02*
X11082253Y-17251579D01*
X11082253Y-17251579D02*
X11091777Y-17232531D01*
X11091777Y-17232531D02*
X11101301Y-17223008D01*
X11101301Y-17223008D02*
X11120348Y-17213484D01*
X11358444Y-17280150D02*
X11358444Y-17413484D01*
X11310825Y-17203960D02*
X11263206Y-17346817D01*
X11263206Y-17346817D02*
X11387015Y-17346817D01*
X11444158Y-17213484D02*
X11567967Y-17213484D01*
X11567967Y-17213484D02*
X11501301Y-17289674D01*
X11501301Y-17289674D02*
X11529872Y-17289674D01*
X11529872Y-17289674D02*
X11548920Y-17299198D01*
X11548920Y-17299198D02*
X11558444Y-17308722D01*
X11558444Y-17308722D02*
X11567967Y-17327770D01*
X11567967Y-17327770D02*
X11567967Y-17375389D01*
X11567967Y-17375389D02*
X11558444Y-17394436D01*
X11558444Y-17394436D02*
X11548920Y-17403960D01*
X11548920Y-17403960D02*
X11529872Y-17413484D01*
X11529872Y-17413484D02*
X11472729Y-17413484D01*
X11472729Y-17413484D02*
X11453682Y-17403960D01*
X11453682Y-17403960D02*
X11444158Y-17394436D01*
X11634634Y-17213484D02*
X11758444Y-17213484D01*
X11758444Y-17213484D02*
X11691777Y-17289674D01*
X11691777Y-17289674D02*
X11720348Y-17289674D01*
X11720348Y-17289674D02*
X11739396Y-17299198D01*
X11739396Y-17299198D02*
X11748920Y-17308722D01*
X11748920Y-17308722D02*
X11758444Y-17327770D01*
X11758444Y-17327770D02*
X11758444Y-17375389D01*
X11758444Y-17375389D02*
X11748920Y-17394436D01*
X11748920Y-17394436D02*
X11739396Y-17403960D01*
X11739396Y-17403960D02*
X11720348Y-17413484D01*
X11720348Y-17413484D02*
X11663206Y-17413484D01*
X11663206Y-17413484D02*
X11644158Y-17403960D01*
X11644158Y-17403960D02*
X11634634Y-17394436D01*
X11834634Y-17213484D02*
X11834634Y-17251579D01*
X11910825Y-17213484D02*
X11910825Y-17251579D01*
X12206063Y-17489674D02*
X12196539Y-17480150D01*
X12196539Y-17480150D02*
X12177491Y-17451579D01*
X12177491Y-17451579D02*
X12167968Y-17432531D01*
X12167968Y-17432531D02*
X12158444Y-17403960D01*
X12158444Y-17403960D02*
X12148920Y-17356341D01*
X12148920Y-17356341D02*
X12148920Y-17318246D01*
X12148920Y-17318246D02*
X12158444Y-17270627D01*
X12158444Y-17270627D02*
X12167968Y-17242055D01*
X12167968Y-17242055D02*
X12177491Y-17223008D01*
X12177491Y-17223008D02*
X12196539Y-17194436D01*
X12196539Y-17194436D02*
X12206063Y-17184912D01*
X12387015Y-17413484D02*
X12272729Y-17413484D01*
X12329872Y-17413484D02*
X12329872Y-17213484D01*
X12329872Y-17213484D02*
X12310825Y-17242055D01*
X12310825Y-17242055D02*
X12291777Y-17261103D01*
X12291777Y-17261103D02*
X12272729Y-17270627D01*
X12453682Y-17213484D02*
X12577491Y-17213484D01*
X12577491Y-17213484D02*
X12510825Y-17289674D01*
X12510825Y-17289674D02*
X12539396Y-17289674D01*
X12539396Y-17289674D02*
X12558444Y-17299198D01*
X12558444Y-17299198D02*
X12567968Y-17308722D01*
X12567968Y-17308722D02*
X12577491Y-17327770D01*
X12577491Y-17327770D02*
X12577491Y-17375389D01*
X12577491Y-17375389D02*
X12567968Y-17394436D01*
X12567968Y-17394436D02*
X12558444Y-17403960D01*
X12558444Y-17403960D02*
X12539396Y-17413484D01*
X12539396Y-17413484D02*
X12482253Y-17413484D01*
X12482253Y-17413484D02*
X12463206Y-17403960D01*
X12463206Y-17403960D02*
X12453682Y-17394436D01*
X12815587Y-17413484D02*
X12815587Y-17213484D01*
X12901301Y-17413484D02*
X12901301Y-17308722D01*
X12901301Y-17308722D02*
X12891777Y-17289674D01*
X12891777Y-17289674D02*
X12872730Y-17280150D01*
X12872730Y-17280150D02*
X12844158Y-17280150D01*
X12844158Y-17280150D02*
X12825110Y-17289674D01*
X12825110Y-17289674D02*
X12815587Y-17299198D01*
X13025110Y-17413484D02*
X13006063Y-17403960D01*
X13006063Y-17403960D02*
X12996539Y-17394436D01*
X12996539Y-17394436D02*
X12987015Y-17375389D01*
X12987015Y-17375389D02*
X12987015Y-17318246D01*
X12987015Y-17318246D02*
X12996539Y-17299198D01*
X12996539Y-17299198D02*
X13006063Y-17289674D01*
X13006063Y-17289674D02*
X13025110Y-17280150D01*
X13025110Y-17280150D02*
X13053682Y-17280150D01*
X13053682Y-17280150D02*
X13072730Y-17289674D01*
X13072730Y-17289674D02*
X13082253Y-17299198D01*
X13082253Y-17299198D02*
X13091777Y-17318246D01*
X13091777Y-17318246D02*
X13091777Y-17375389D01*
X13091777Y-17375389D02*
X13082253Y-17394436D01*
X13082253Y-17394436D02*
X13072730Y-17403960D01*
X13072730Y-17403960D02*
X13053682Y-17413484D01*
X13053682Y-17413484D02*
X13025110Y-17413484D01*
X13206063Y-17413484D02*
X13187015Y-17403960D01*
X13187015Y-17403960D02*
X13177491Y-17384912D01*
X13177491Y-17384912D02*
X13177491Y-17213484D01*
X13358444Y-17403960D02*
X13339396Y-17413484D01*
X13339396Y-17413484D02*
X13301301Y-17413484D01*
X13301301Y-17413484D02*
X13282253Y-17403960D01*
X13282253Y-17403960D02*
X13272730Y-17384912D01*
X13272730Y-17384912D02*
X13272730Y-17308722D01*
X13272730Y-17308722D02*
X13282253Y-17289674D01*
X13282253Y-17289674D02*
X13301301Y-17280150D01*
X13301301Y-17280150D02*
X13339396Y-17280150D01*
X13339396Y-17280150D02*
X13358444Y-17289674D01*
X13358444Y-17289674D02*
X13367968Y-17308722D01*
X13367968Y-17308722D02*
X13367968Y-17327770D01*
X13367968Y-17327770D02*
X13272730Y-17346817D01*
X13444158Y-17403960D02*
X13463206Y-17413484D01*
X13463206Y-17413484D02*
X13501301Y-17413484D01*
X13501301Y-17413484D02*
X13520349Y-17403960D01*
X13520349Y-17403960D02*
X13529872Y-17384912D01*
X13529872Y-17384912D02*
X13529872Y-17375389D01*
X13529872Y-17375389D02*
X13520349Y-17356341D01*
X13520349Y-17356341D02*
X13501301Y-17346817D01*
X13501301Y-17346817D02*
X13472730Y-17346817D01*
X13472730Y-17346817D02*
X13453682Y-17337293D01*
X13453682Y-17337293D02*
X13444158Y-17318246D01*
X13444158Y-17318246D02*
X13444158Y-17308722D01*
X13444158Y-17308722D02*
X13453682Y-17289674D01*
X13453682Y-17289674D02*
X13472730Y-17280150D01*
X13472730Y-17280150D02*
X13501301Y-17280150D01*
X13501301Y-17280150D02*
X13520349Y-17289674D01*
X13596539Y-17489674D02*
X13606063Y-17480150D01*
X13606063Y-17480150D02*
X13625111Y-17451579D01*
X13625111Y-17451579D02*
X13634634Y-17432531D01*
X13634634Y-17432531D02*
X13644158Y-17403960D01*
X13644158Y-17403960D02*
X13653682Y-17356341D01*
X13653682Y-17356341D02*
X13653682Y-17318246D01*
X13653682Y-17318246D02*
X13644158Y-17270627D01*
X13644158Y-17270627D02*
X13634634Y-17242055D01*
X13634634Y-17242055D02*
X13625111Y-17223008D01*
X13625111Y-17223008D02*
X13606063Y-17194436D01*
X13606063Y-17194436D02*
X13596539Y-17184912D01*
D14*
X8471000Y-17506000D02*
X8631000Y-17666000D01*
X8631000Y-17506000D02*
X8471000Y-17666000D01*
X8631000Y-17586000D02*
G75*
G03*
X8471000Y-17586000I-80000J0D01*
G01*
X8471000Y-17586000D02*
G75*
G03*
X8631000Y-17586000I80000J0D01*
G01*
D11*
X8996539Y-17677484D02*
X8882253Y-17677484D01*
X8939396Y-17677484D02*
X8939396Y-17477484D01*
X8939396Y-17477484D02*
X8920348Y-17506055D01*
X8920348Y-17506055D02*
X8901301Y-17525103D01*
X8901301Y-17525103D02*
X8882253Y-17534627D01*
X9082253Y-17658436D02*
X9091777Y-17667960D01*
X9091777Y-17667960D02*
X9082253Y-17677484D01*
X9082253Y-17677484D02*
X9072729Y-17667960D01*
X9072729Y-17667960D02*
X9082253Y-17658436D01*
X9082253Y-17658436D02*
X9082253Y-17677484D01*
X9263205Y-17477484D02*
X9225110Y-17477484D01*
X9225110Y-17477484D02*
X9206063Y-17487008D01*
X9206063Y-17487008D02*
X9196539Y-17496531D01*
X9196539Y-17496531D02*
X9177491Y-17525103D01*
X9177491Y-17525103D02*
X9167967Y-17563198D01*
X9167967Y-17563198D02*
X9167967Y-17639389D01*
X9167967Y-17639389D02*
X9177491Y-17658436D01*
X9177491Y-17658436D02*
X9187015Y-17667960D01*
X9187015Y-17667960D02*
X9206063Y-17677484D01*
X9206063Y-17677484D02*
X9244158Y-17677484D01*
X9244158Y-17677484D02*
X9263205Y-17667960D01*
X9263205Y-17667960D02*
X9272729Y-17658436D01*
X9272729Y-17658436D02*
X9282253Y-17639389D01*
X9282253Y-17639389D02*
X9282253Y-17591770D01*
X9282253Y-17591770D02*
X9272729Y-17572722D01*
X9272729Y-17572722D02*
X9263205Y-17563198D01*
X9263205Y-17563198D02*
X9244158Y-17553674D01*
X9244158Y-17553674D02*
X9206063Y-17553674D01*
X9206063Y-17553674D02*
X9187015Y-17563198D01*
X9187015Y-17563198D02*
X9177491Y-17572722D01*
X9177491Y-17572722D02*
X9167967Y-17591770D01*
X9406063Y-17477484D02*
X9425110Y-17477484D01*
X9425110Y-17477484D02*
X9444158Y-17487008D01*
X9444158Y-17487008D02*
X9453682Y-17496531D01*
X9453682Y-17496531D02*
X9463205Y-17515579D01*
X9463205Y-17515579D02*
X9472729Y-17553674D01*
X9472729Y-17553674D02*
X9472729Y-17601293D01*
X9472729Y-17601293D02*
X9463205Y-17639389D01*
X9463205Y-17639389D02*
X9453682Y-17658436D01*
X9453682Y-17658436D02*
X9444158Y-17667960D01*
X9444158Y-17667960D02*
X9425110Y-17677484D01*
X9425110Y-17677484D02*
X9406063Y-17677484D01*
X9406063Y-17677484D02*
X9387015Y-17667960D01*
X9387015Y-17667960D02*
X9377491Y-17658436D01*
X9377491Y-17658436D02*
X9367967Y-17639389D01*
X9367967Y-17639389D02*
X9358444Y-17601293D01*
X9358444Y-17601293D02*
X9358444Y-17553674D01*
X9358444Y-17553674D02*
X9367967Y-17515579D01*
X9367967Y-17515579D02*
X9377491Y-17496531D01*
X9377491Y-17496531D02*
X9387015Y-17487008D01*
X9387015Y-17487008D02*
X9406063Y-17477484D01*
X9596539Y-17477484D02*
X9615586Y-17477484D01*
X9615586Y-17477484D02*
X9634634Y-17487008D01*
X9634634Y-17487008D02*
X9644158Y-17496531D01*
X9644158Y-17496531D02*
X9653682Y-17515579D01*
X9653682Y-17515579D02*
X9663205Y-17553674D01*
X9663205Y-17553674D02*
X9663205Y-17601293D01*
X9663205Y-17601293D02*
X9653682Y-17639389D01*
X9653682Y-17639389D02*
X9644158Y-17658436D01*
X9644158Y-17658436D02*
X9634634Y-17667960D01*
X9634634Y-17667960D02*
X9615586Y-17677484D01*
X9615586Y-17677484D02*
X9596539Y-17677484D01*
X9596539Y-17677484D02*
X9577491Y-17667960D01*
X9577491Y-17667960D02*
X9567967Y-17658436D01*
X9567967Y-17658436D02*
X9558444Y-17639389D01*
X9558444Y-17639389D02*
X9548920Y-17601293D01*
X9548920Y-17601293D02*
X9548920Y-17553674D01*
X9548920Y-17553674D02*
X9558444Y-17515579D01*
X9558444Y-17515579D02*
X9567967Y-17496531D01*
X9567967Y-17496531D02*
X9577491Y-17487008D01*
X9577491Y-17487008D02*
X9596539Y-17477484D01*
X9748920Y-17677484D02*
X9748920Y-17544150D01*
X9748920Y-17563198D02*
X9758444Y-17553674D01*
X9758444Y-17553674D02*
X9777491Y-17544150D01*
X9777491Y-17544150D02*
X9806063Y-17544150D01*
X9806063Y-17544150D02*
X9825110Y-17553674D01*
X9825110Y-17553674D02*
X9834634Y-17572722D01*
X9834634Y-17572722D02*
X9834634Y-17677484D01*
X9834634Y-17572722D02*
X9844158Y-17553674D01*
X9844158Y-17553674D02*
X9863205Y-17544150D01*
X9863205Y-17544150D02*
X9891777Y-17544150D01*
X9891777Y-17544150D02*
X9910825Y-17553674D01*
X9910825Y-17553674D02*
X9920348Y-17572722D01*
X9920348Y-17572722D02*
X9920348Y-17677484D01*
X10015586Y-17677484D02*
X10015586Y-17544150D01*
X10015586Y-17563198D02*
X10025110Y-17553674D01*
X10025110Y-17553674D02*
X10044158Y-17544150D01*
X10044158Y-17544150D02*
X10072729Y-17544150D01*
X10072729Y-17544150D02*
X10091777Y-17553674D01*
X10091777Y-17553674D02*
X10101301Y-17572722D01*
X10101301Y-17572722D02*
X10101301Y-17677484D01*
X10101301Y-17572722D02*
X10110825Y-17553674D01*
X10110825Y-17553674D02*
X10129872Y-17544150D01*
X10129872Y-17544150D02*
X10158444Y-17544150D01*
X10158444Y-17544150D02*
X10177491Y-17553674D01*
X10177491Y-17553674D02*
X10187015Y-17572722D01*
X10187015Y-17572722D02*
X10187015Y-17677484D01*
X10577491Y-17467960D02*
X10406063Y-17725103D01*
X10834634Y-17477484D02*
X10853682Y-17477484D01*
X10853682Y-17477484D02*
X10872729Y-17487008D01*
X10872729Y-17487008D02*
X10882253Y-17496531D01*
X10882253Y-17496531D02*
X10891777Y-17515579D01*
X10891777Y-17515579D02*
X10901301Y-17553674D01*
X10901301Y-17553674D02*
X10901301Y-17601293D01*
X10901301Y-17601293D02*
X10891777Y-17639389D01*
X10891777Y-17639389D02*
X10882253Y-17658436D01*
X10882253Y-17658436D02*
X10872729Y-17667960D01*
X10872729Y-17667960D02*
X10853682Y-17677484D01*
X10853682Y-17677484D02*
X10834634Y-17677484D01*
X10834634Y-17677484D02*
X10815587Y-17667960D01*
X10815587Y-17667960D02*
X10806063Y-17658436D01*
X10806063Y-17658436D02*
X10796539Y-17639389D01*
X10796539Y-17639389D02*
X10787015Y-17601293D01*
X10787015Y-17601293D02*
X10787015Y-17553674D01*
X10787015Y-17553674D02*
X10796539Y-17515579D01*
X10796539Y-17515579D02*
X10806063Y-17496531D01*
X10806063Y-17496531D02*
X10815587Y-17487008D01*
X10815587Y-17487008D02*
X10834634Y-17477484D01*
X10987015Y-17658436D02*
X10996539Y-17667960D01*
X10996539Y-17667960D02*
X10987015Y-17677484D01*
X10987015Y-17677484D02*
X10977491Y-17667960D01*
X10977491Y-17667960D02*
X10987015Y-17658436D01*
X10987015Y-17658436D02*
X10987015Y-17677484D01*
X11120348Y-17477484D02*
X11139396Y-17477484D01*
X11139396Y-17477484D02*
X11158444Y-17487008D01*
X11158444Y-17487008D02*
X11167968Y-17496531D01*
X11167968Y-17496531D02*
X11177491Y-17515579D01*
X11177491Y-17515579D02*
X11187015Y-17553674D01*
X11187015Y-17553674D02*
X11187015Y-17601293D01*
X11187015Y-17601293D02*
X11177491Y-17639389D01*
X11177491Y-17639389D02*
X11167968Y-17658436D01*
X11167968Y-17658436D02*
X11158444Y-17667960D01*
X11158444Y-17667960D02*
X11139396Y-17677484D01*
X11139396Y-17677484D02*
X11120348Y-17677484D01*
X11120348Y-17677484D02*
X11101301Y-17667960D01*
X11101301Y-17667960D02*
X11091777Y-17658436D01*
X11091777Y-17658436D02*
X11082253Y-17639389D01*
X11082253Y-17639389D02*
X11072729Y-17601293D01*
X11072729Y-17601293D02*
X11072729Y-17553674D01*
X11072729Y-17553674D02*
X11082253Y-17515579D01*
X11082253Y-17515579D02*
X11091777Y-17496531D01*
X11091777Y-17496531D02*
X11101301Y-17487008D01*
X11101301Y-17487008D02*
X11120348Y-17477484D01*
X11358444Y-17477484D02*
X11320348Y-17477484D01*
X11320348Y-17477484D02*
X11301301Y-17487008D01*
X11301301Y-17487008D02*
X11291777Y-17496531D01*
X11291777Y-17496531D02*
X11272729Y-17525103D01*
X11272729Y-17525103D02*
X11263206Y-17563198D01*
X11263206Y-17563198D02*
X11263206Y-17639389D01*
X11263206Y-17639389D02*
X11272729Y-17658436D01*
X11272729Y-17658436D02*
X11282253Y-17667960D01*
X11282253Y-17667960D02*
X11301301Y-17677484D01*
X11301301Y-17677484D02*
X11339396Y-17677484D01*
X11339396Y-17677484D02*
X11358444Y-17667960D01*
X11358444Y-17667960D02*
X11367967Y-17658436D01*
X11367967Y-17658436D02*
X11377491Y-17639389D01*
X11377491Y-17639389D02*
X11377491Y-17591770D01*
X11377491Y-17591770D02*
X11367967Y-17572722D01*
X11367967Y-17572722D02*
X11358444Y-17563198D01*
X11358444Y-17563198D02*
X11339396Y-17553674D01*
X11339396Y-17553674D02*
X11301301Y-17553674D01*
X11301301Y-17553674D02*
X11282253Y-17563198D01*
X11282253Y-17563198D02*
X11272729Y-17572722D01*
X11272729Y-17572722D02*
X11263206Y-17591770D01*
X11444158Y-17477484D02*
X11567967Y-17477484D01*
X11567967Y-17477484D02*
X11501301Y-17553674D01*
X11501301Y-17553674D02*
X11529872Y-17553674D01*
X11529872Y-17553674D02*
X11548920Y-17563198D01*
X11548920Y-17563198D02*
X11558444Y-17572722D01*
X11558444Y-17572722D02*
X11567967Y-17591770D01*
X11567967Y-17591770D02*
X11567967Y-17639389D01*
X11567967Y-17639389D02*
X11558444Y-17658436D01*
X11558444Y-17658436D02*
X11548920Y-17667960D01*
X11548920Y-17667960D02*
X11529872Y-17677484D01*
X11529872Y-17677484D02*
X11472729Y-17677484D01*
X11472729Y-17677484D02*
X11453682Y-17667960D01*
X11453682Y-17667960D02*
X11444158Y-17658436D01*
X11691777Y-17477484D02*
X11710825Y-17477484D01*
X11710825Y-17477484D02*
X11729872Y-17487008D01*
X11729872Y-17487008D02*
X11739396Y-17496531D01*
X11739396Y-17496531D02*
X11748920Y-17515579D01*
X11748920Y-17515579D02*
X11758444Y-17553674D01*
X11758444Y-17553674D02*
X11758444Y-17601293D01*
X11758444Y-17601293D02*
X11748920Y-17639389D01*
X11748920Y-17639389D02*
X11739396Y-17658436D01*
X11739396Y-17658436D02*
X11729872Y-17667960D01*
X11729872Y-17667960D02*
X11710825Y-17677484D01*
X11710825Y-17677484D02*
X11691777Y-17677484D01*
X11691777Y-17677484D02*
X11672729Y-17667960D01*
X11672729Y-17667960D02*
X11663206Y-17658436D01*
X11663206Y-17658436D02*
X11653682Y-17639389D01*
X11653682Y-17639389D02*
X11644158Y-17601293D01*
X11644158Y-17601293D02*
X11644158Y-17553674D01*
X11644158Y-17553674D02*
X11653682Y-17515579D01*
X11653682Y-17515579D02*
X11663206Y-17496531D01*
X11663206Y-17496531D02*
X11672729Y-17487008D01*
X11672729Y-17487008D02*
X11691777Y-17477484D01*
X11834634Y-17477484D02*
X11834634Y-17515579D01*
X11910825Y-17477484D02*
X11910825Y-17515579D01*
X12206063Y-17753674D02*
X12196539Y-17744150D01*
X12196539Y-17744150D02*
X12177491Y-17715579D01*
X12177491Y-17715579D02*
X12167968Y-17696531D01*
X12167968Y-17696531D02*
X12158444Y-17667960D01*
X12158444Y-17667960D02*
X12148920Y-17620341D01*
X12148920Y-17620341D02*
X12148920Y-17582246D01*
X12148920Y-17582246D02*
X12158444Y-17534627D01*
X12158444Y-17534627D02*
X12167968Y-17506055D01*
X12167968Y-17506055D02*
X12177491Y-17487008D01*
X12177491Y-17487008D02*
X12196539Y-17458436D01*
X12196539Y-17458436D02*
X12206063Y-17448912D01*
X12367968Y-17544150D02*
X12367968Y-17677484D01*
X12320348Y-17467960D02*
X12272729Y-17610817D01*
X12272729Y-17610817D02*
X12396539Y-17610817D01*
X12625110Y-17677484D02*
X12625110Y-17477484D01*
X12710825Y-17677484D02*
X12710825Y-17572722D01*
X12710825Y-17572722D02*
X12701301Y-17553674D01*
X12701301Y-17553674D02*
X12682253Y-17544150D01*
X12682253Y-17544150D02*
X12653682Y-17544150D01*
X12653682Y-17544150D02*
X12634634Y-17553674D01*
X12634634Y-17553674D02*
X12625110Y-17563198D01*
X12834634Y-17677484D02*
X12815587Y-17667960D01*
X12815587Y-17667960D02*
X12806063Y-17658436D01*
X12806063Y-17658436D02*
X12796539Y-17639389D01*
X12796539Y-17639389D02*
X12796539Y-17582246D01*
X12796539Y-17582246D02*
X12806063Y-17563198D01*
X12806063Y-17563198D02*
X12815587Y-17553674D01*
X12815587Y-17553674D02*
X12834634Y-17544150D01*
X12834634Y-17544150D02*
X12863206Y-17544150D01*
X12863206Y-17544150D02*
X12882253Y-17553674D01*
X12882253Y-17553674D02*
X12891777Y-17563198D01*
X12891777Y-17563198D02*
X12901301Y-17582246D01*
X12901301Y-17582246D02*
X12901301Y-17639389D01*
X12901301Y-17639389D02*
X12891777Y-17658436D01*
X12891777Y-17658436D02*
X12882253Y-17667960D01*
X12882253Y-17667960D02*
X12863206Y-17677484D01*
X12863206Y-17677484D02*
X12834634Y-17677484D01*
X13015587Y-17677484D02*
X12996539Y-17667960D01*
X12996539Y-17667960D02*
X12987015Y-17648912D01*
X12987015Y-17648912D02*
X12987015Y-17477484D01*
X13167968Y-17667960D02*
X13148920Y-17677484D01*
X13148920Y-17677484D02*
X13110825Y-17677484D01*
X13110825Y-17677484D02*
X13091777Y-17667960D01*
X13091777Y-17667960D02*
X13082253Y-17648912D01*
X13082253Y-17648912D02*
X13082253Y-17572722D01*
X13082253Y-17572722D02*
X13091777Y-17553674D01*
X13091777Y-17553674D02*
X13110825Y-17544150D01*
X13110825Y-17544150D02*
X13148920Y-17544150D01*
X13148920Y-17544150D02*
X13167968Y-17553674D01*
X13167968Y-17553674D02*
X13177491Y-17572722D01*
X13177491Y-17572722D02*
X13177491Y-17591770D01*
X13177491Y-17591770D02*
X13082253Y-17610817D01*
X13253682Y-17667960D02*
X13272730Y-17677484D01*
X13272730Y-17677484D02*
X13310825Y-17677484D01*
X13310825Y-17677484D02*
X13329872Y-17667960D01*
X13329872Y-17667960D02*
X13339396Y-17648912D01*
X13339396Y-17648912D02*
X13339396Y-17639389D01*
X13339396Y-17639389D02*
X13329872Y-17620341D01*
X13329872Y-17620341D02*
X13310825Y-17610817D01*
X13310825Y-17610817D02*
X13282253Y-17610817D01*
X13282253Y-17610817D02*
X13263206Y-17601293D01*
X13263206Y-17601293D02*
X13253682Y-17582246D01*
X13253682Y-17582246D02*
X13253682Y-17572722D01*
X13253682Y-17572722D02*
X13263206Y-17553674D01*
X13263206Y-17553674D02*
X13282253Y-17544150D01*
X13282253Y-17544150D02*
X13310825Y-17544150D01*
X13310825Y-17544150D02*
X13329872Y-17553674D01*
X13406063Y-17753674D02*
X13415587Y-17744150D01*
X13415587Y-17744150D02*
X13434634Y-17715579D01*
X13434634Y-17715579D02*
X13444158Y-17696531D01*
X13444158Y-17696531D02*
X13453682Y-17667960D01*
X13453682Y-17667960D02*
X13463206Y-17620341D01*
X13463206Y-17620341D02*
X13463206Y-17582246D01*
X13463206Y-17582246D02*
X13453682Y-17534627D01*
X13453682Y-17534627D02*
X13444158Y-17506055D01*
X13444158Y-17506055D02*
X13434634Y-17487008D01*
X13434634Y-17487008D02*
X13415587Y-17458436D01*
X13415587Y-17458436D02*
X13406063Y-17448912D01*
D15*
X8461000Y-17781000D02*
X8631000Y-17951000D01*
X8631000Y-17781000D02*
X8461000Y-17951000D01*
X8546000Y-17781000D02*
X8546000Y-17951000D01*
X8461000Y-17866000D02*
X8631000Y-17866000D01*
D11*
X8996539Y-17957484D02*
X8882253Y-17957484D01*
X8939396Y-17957484D02*
X8939396Y-17757484D01*
X8939396Y-17757484D02*
X8920348Y-17786055D01*
X8920348Y-17786055D02*
X8901301Y-17805103D01*
X8901301Y-17805103D02*
X8882253Y-17814627D01*
X9082253Y-17938436D02*
X9091777Y-17947960D01*
X9091777Y-17947960D02*
X9082253Y-17957484D01*
X9082253Y-17957484D02*
X9072729Y-17947960D01*
X9072729Y-17947960D02*
X9082253Y-17938436D01*
X9082253Y-17938436D02*
X9082253Y-17957484D01*
X9158444Y-17757484D02*
X9291777Y-17757484D01*
X9291777Y-17757484D02*
X9206063Y-17957484D01*
X9406063Y-17757484D02*
X9425110Y-17757484D01*
X9425110Y-17757484D02*
X9444158Y-17767008D01*
X9444158Y-17767008D02*
X9453682Y-17776531D01*
X9453682Y-17776531D02*
X9463205Y-17795579D01*
X9463205Y-17795579D02*
X9472729Y-17833674D01*
X9472729Y-17833674D02*
X9472729Y-17881293D01*
X9472729Y-17881293D02*
X9463205Y-17919389D01*
X9463205Y-17919389D02*
X9453682Y-17938436D01*
X9453682Y-17938436D02*
X9444158Y-17947960D01*
X9444158Y-17947960D02*
X9425110Y-17957484D01*
X9425110Y-17957484D02*
X9406063Y-17957484D01*
X9406063Y-17957484D02*
X9387015Y-17947960D01*
X9387015Y-17947960D02*
X9377491Y-17938436D01*
X9377491Y-17938436D02*
X9367967Y-17919389D01*
X9367967Y-17919389D02*
X9358444Y-17881293D01*
X9358444Y-17881293D02*
X9358444Y-17833674D01*
X9358444Y-17833674D02*
X9367967Y-17795579D01*
X9367967Y-17795579D02*
X9377491Y-17776531D01*
X9377491Y-17776531D02*
X9387015Y-17767008D01*
X9387015Y-17767008D02*
X9406063Y-17757484D01*
X9596539Y-17757484D02*
X9615586Y-17757484D01*
X9615586Y-17757484D02*
X9634634Y-17767008D01*
X9634634Y-17767008D02*
X9644158Y-17776531D01*
X9644158Y-17776531D02*
X9653682Y-17795579D01*
X9653682Y-17795579D02*
X9663205Y-17833674D01*
X9663205Y-17833674D02*
X9663205Y-17881293D01*
X9663205Y-17881293D02*
X9653682Y-17919389D01*
X9653682Y-17919389D02*
X9644158Y-17938436D01*
X9644158Y-17938436D02*
X9634634Y-17947960D01*
X9634634Y-17947960D02*
X9615586Y-17957484D01*
X9615586Y-17957484D02*
X9596539Y-17957484D01*
X9596539Y-17957484D02*
X9577491Y-17947960D01*
X9577491Y-17947960D02*
X9567967Y-17938436D01*
X9567967Y-17938436D02*
X9558444Y-17919389D01*
X9558444Y-17919389D02*
X9548920Y-17881293D01*
X9548920Y-17881293D02*
X9548920Y-17833674D01*
X9548920Y-17833674D02*
X9558444Y-17795579D01*
X9558444Y-17795579D02*
X9567967Y-17776531D01*
X9567967Y-17776531D02*
X9577491Y-17767008D01*
X9577491Y-17767008D02*
X9596539Y-17757484D01*
X9748920Y-17957484D02*
X9748920Y-17824150D01*
X9748920Y-17843198D02*
X9758444Y-17833674D01*
X9758444Y-17833674D02*
X9777491Y-17824150D01*
X9777491Y-17824150D02*
X9806063Y-17824150D01*
X9806063Y-17824150D02*
X9825110Y-17833674D01*
X9825110Y-17833674D02*
X9834634Y-17852722D01*
X9834634Y-17852722D02*
X9834634Y-17957484D01*
X9834634Y-17852722D02*
X9844158Y-17833674D01*
X9844158Y-17833674D02*
X9863205Y-17824150D01*
X9863205Y-17824150D02*
X9891777Y-17824150D01*
X9891777Y-17824150D02*
X9910825Y-17833674D01*
X9910825Y-17833674D02*
X9920348Y-17852722D01*
X9920348Y-17852722D02*
X9920348Y-17957484D01*
X10015586Y-17957484D02*
X10015586Y-17824150D01*
X10015586Y-17843198D02*
X10025110Y-17833674D01*
X10025110Y-17833674D02*
X10044158Y-17824150D01*
X10044158Y-17824150D02*
X10072729Y-17824150D01*
X10072729Y-17824150D02*
X10091777Y-17833674D01*
X10091777Y-17833674D02*
X10101301Y-17852722D01*
X10101301Y-17852722D02*
X10101301Y-17957484D01*
X10101301Y-17852722D02*
X10110825Y-17833674D01*
X10110825Y-17833674D02*
X10129872Y-17824150D01*
X10129872Y-17824150D02*
X10158444Y-17824150D01*
X10158444Y-17824150D02*
X10177491Y-17833674D01*
X10177491Y-17833674D02*
X10187015Y-17852722D01*
X10187015Y-17852722D02*
X10187015Y-17957484D01*
X10577491Y-17747960D02*
X10406063Y-18005103D01*
X10834634Y-17757484D02*
X10853682Y-17757484D01*
X10853682Y-17757484D02*
X10872729Y-17767008D01*
X10872729Y-17767008D02*
X10882253Y-17776531D01*
X10882253Y-17776531D02*
X10891777Y-17795579D01*
X10891777Y-17795579D02*
X10901301Y-17833674D01*
X10901301Y-17833674D02*
X10901301Y-17881293D01*
X10901301Y-17881293D02*
X10891777Y-17919389D01*
X10891777Y-17919389D02*
X10882253Y-17938436D01*
X10882253Y-17938436D02*
X10872729Y-17947960D01*
X10872729Y-17947960D02*
X10853682Y-17957484D01*
X10853682Y-17957484D02*
X10834634Y-17957484D01*
X10834634Y-17957484D02*
X10815587Y-17947960D01*
X10815587Y-17947960D02*
X10806063Y-17938436D01*
X10806063Y-17938436D02*
X10796539Y-17919389D01*
X10796539Y-17919389D02*
X10787015Y-17881293D01*
X10787015Y-17881293D02*
X10787015Y-17833674D01*
X10787015Y-17833674D02*
X10796539Y-17795579D01*
X10796539Y-17795579D02*
X10806063Y-17776531D01*
X10806063Y-17776531D02*
X10815587Y-17767008D01*
X10815587Y-17767008D02*
X10834634Y-17757484D01*
X10987015Y-17938436D02*
X10996539Y-17947960D01*
X10996539Y-17947960D02*
X10987015Y-17957484D01*
X10987015Y-17957484D02*
X10977491Y-17947960D01*
X10977491Y-17947960D02*
X10987015Y-17938436D01*
X10987015Y-17938436D02*
X10987015Y-17957484D01*
X11120348Y-17757484D02*
X11139396Y-17757484D01*
X11139396Y-17757484D02*
X11158444Y-17767008D01*
X11158444Y-17767008D02*
X11167968Y-17776531D01*
X11167968Y-17776531D02*
X11177491Y-17795579D01*
X11177491Y-17795579D02*
X11187015Y-17833674D01*
X11187015Y-17833674D02*
X11187015Y-17881293D01*
X11187015Y-17881293D02*
X11177491Y-17919389D01*
X11177491Y-17919389D02*
X11167968Y-17938436D01*
X11167968Y-17938436D02*
X11158444Y-17947960D01*
X11158444Y-17947960D02*
X11139396Y-17957484D01*
X11139396Y-17957484D02*
X11120348Y-17957484D01*
X11120348Y-17957484D02*
X11101301Y-17947960D01*
X11101301Y-17947960D02*
X11091777Y-17938436D01*
X11091777Y-17938436D02*
X11082253Y-17919389D01*
X11082253Y-17919389D02*
X11072729Y-17881293D01*
X11072729Y-17881293D02*
X11072729Y-17833674D01*
X11072729Y-17833674D02*
X11082253Y-17795579D01*
X11082253Y-17795579D02*
X11091777Y-17776531D01*
X11091777Y-17776531D02*
X11101301Y-17767008D01*
X11101301Y-17767008D02*
X11120348Y-17757484D01*
X11358444Y-17757484D02*
X11320348Y-17757484D01*
X11320348Y-17757484D02*
X11301301Y-17767008D01*
X11301301Y-17767008D02*
X11291777Y-17776531D01*
X11291777Y-17776531D02*
X11272729Y-17805103D01*
X11272729Y-17805103D02*
X11263206Y-17843198D01*
X11263206Y-17843198D02*
X11263206Y-17919389D01*
X11263206Y-17919389D02*
X11272729Y-17938436D01*
X11272729Y-17938436D02*
X11282253Y-17947960D01*
X11282253Y-17947960D02*
X11301301Y-17957484D01*
X11301301Y-17957484D02*
X11339396Y-17957484D01*
X11339396Y-17957484D02*
X11358444Y-17947960D01*
X11358444Y-17947960D02*
X11367967Y-17938436D01*
X11367967Y-17938436D02*
X11377491Y-17919389D01*
X11377491Y-17919389D02*
X11377491Y-17871770D01*
X11377491Y-17871770D02*
X11367967Y-17852722D01*
X11367967Y-17852722D02*
X11358444Y-17843198D01*
X11358444Y-17843198D02*
X11339396Y-17833674D01*
X11339396Y-17833674D02*
X11301301Y-17833674D01*
X11301301Y-17833674D02*
X11282253Y-17843198D01*
X11282253Y-17843198D02*
X11272729Y-17852722D01*
X11272729Y-17852722D02*
X11263206Y-17871770D01*
X11548920Y-17757484D02*
X11510825Y-17757484D01*
X11510825Y-17757484D02*
X11491777Y-17767008D01*
X11491777Y-17767008D02*
X11482253Y-17776531D01*
X11482253Y-17776531D02*
X11463206Y-17805103D01*
X11463206Y-17805103D02*
X11453682Y-17843198D01*
X11453682Y-17843198D02*
X11453682Y-17919389D01*
X11453682Y-17919389D02*
X11463206Y-17938436D01*
X11463206Y-17938436D02*
X11472729Y-17947960D01*
X11472729Y-17947960D02*
X11491777Y-17957484D01*
X11491777Y-17957484D02*
X11529872Y-17957484D01*
X11529872Y-17957484D02*
X11548920Y-17947960D01*
X11548920Y-17947960D02*
X11558444Y-17938436D01*
X11558444Y-17938436D02*
X11567967Y-17919389D01*
X11567967Y-17919389D02*
X11567967Y-17871770D01*
X11567967Y-17871770D02*
X11558444Y-17852722D01*
X11558444Y-17852722D02*
X11548920Y-17843198D01*
X11548920Y-17843198D02*
X11529872Y-17833674D01*
X11529872Y-17833674D02*
X11491777Y-17833674D01*
X11491777Y-17833674D02*
X11472729Y-17843198D01*
X11472729Y-17843198D02*
X11463206Y-17852722D01*
X11463206Y-17852722D02*
X11453682Y-17871770D01*
X11663206Y-17957484D02*
X11701301Y-17957484D01*
X11701301Y-17957484D02*
X11720348Y-17947960D01*
X11720348Y-17947960D02*
X11729872Y-17938436D01*
X11729872Y-17938436D02*
X11748920Y-17909865D01*
X11748920Y-17909865D02*
X11758444Y-17871770D01*
X11758444Y-17871770D02*
X11758444Y-17795579D01*
X11758444Y-17795579D02*
X11748920Y-17776531D01*
X11748920Y-17776531D02*
X11739396Y-17767008D01*
X11739396Y-17767008D02*
X11720348Y-17757484D01*
X11720348Y-17757484D02*
X11682253Y-17757484D01*
X11682253Y-17757484D02*
X11663206Y-17767008D01*
X11663206Y-17767008D02*
X11653682Y-17776531D01*
X11653682Y-17776531D02*
X11644158Y-17795579D01*
X11644158Y-17795579D02*
X11644158Y-17843198D01*
X11644158Y-17843198D02*
X11653682Y-17862246D01*
X11653682Y-17862246D02*
X11663206Y-17871770D01*
X11663206Y-17871770D02*
X11682253Y-17881293D01*
X11682253Y-17881293D02*
X11720348Y-17881293D01*
X11720348Y-17881293D02*
X11739396Y-17871770D01*
X11739396Y-17871770D02*
X11748920Y-17862246D01*
X11748920Y-17862246D02*
X11758444Y-17843198D01*
X11834634Y-17757484D02*
X11834634Y-17795579D01*
X11910825Y-17757484D02*
X11910825Y-17795579D01*
X12206063Y-18033674D02*
X12196539Y-18024150D01*
X12196539Y-18024150D02*
X12177491Y-17995579D01*
X12177491Y-17995579D02*
X12167968Y-17976531D01*
X12167968Y-17976531D02*
X12158444Y-17947960D01*
X12158444Y-17947960D02*
X12148920Y-17900341D01*
X12148920Y-17900341D02*
X12148920Y-17862246D01*
X12148920Y-17862246D02*
X12158444Y-17814627D01*
X12158444Y-17814627D02*
X12167968Y-17786055D01*
X12167968Y-17786055D02*
X12177491Y-17767008D01*
X12177491Y-17767008D02*
X12196539Y-17738436D01*
X12196539Y-17738436D02*
X12206063Y-17728912D01*
X12272729Y-17776531D02*
X12282253Y-17767008D01*
X12282253Y-17767008D02*
X12301301Y-17757484D01*
X12301301Y-17757484D02*
X12348920Y-17757484D01*
X12348920Y-17757484D02*
X12367968Y-17767008D01*
X12367968Y-17767008D02*
X12377491Y-17776531D01*
X12377491Y-17776531D02*
X12387015Y-17795579D01*
X12387015Y-17795579D02*
X12387015Y-17814627D01*
X12387015Y-17814627D02*
X12377491Y-17843198D01*
X12377491Y-17843198D02*
X12263206Y-17957484D01*
X12263206Y-17957484D02*
X12387015Y-17957484D01*
X12625110Y-17957484D02*
X12625110Y-17757484D01*
X12710825Y-17957484D02*
X12710825Y-17852722D01*
X12710825Y-17852722D02*
X12701301Y-17833674D01*
X12701301Y-17833674D02*
X12682253Y-17824150D01*
X12682253Y-17824150D02*
X12653682Y-17824150D01*
X12653682Y-17824150D02*
X12634634Y-17833674D01*
X12634634Y-17833674D02*
X12625110Y-17843198D01*
X12834634Y-17957484D02*
X12815587Y-17947960D01*
X12815587Y-17947960D02*
X12806063Y-17938436D01*
X12806063Y-17938436D02*
X12796539Y-17919389D01*
X12796539Y-17919389D02*
X12796539Y-17862246D01*
X12796539Y-17862246D02*
X12806063Y-17843198D01*
X12806063Y-17843198D02*
X12815587Y-17833674D01*
X12815587Y-17833674D02*
X12834634Y-17824150D01*
X12834634Y-17824150D02*
X12863206Y-17824150D01*
X12863206Y-17824150D02*
X12882253Y-17833674D01*
X12882253Y-17833674D02*
X12891777Y-17843198D01*
X12891777Y-17843198D02*
X12901301Y-17862246D01*
X12901301Y-17862246D02*
X12901301Y-17919389D01*
X12901301Y-17919389D02*
X12891777Y-17938436D01*
X12891777Y-17938436D02*
X12882253Y-17947960D01*
X12882253Y-17947960D02*
X12863206Y-17957484D01*
X12863206Y-17957484D02*
X12834634Y-17957484D01*
X13015587Y-17957484D02*
X12996539Y-17947960D01*
X12996539Y-17947960D02*
X12987015Y-17928912D01*
X12987015Y-17928912D02*
X12987015Y-17757484D01*
X13167968Y-17947960D02*
X13148920Y-17957484D01*
X13148920Y-17957484D02*
X13110825Y-17957484D01*
X13110825Y-17957484D02*
X13091777Y-17947960D01*
X13091777Y-17947960D02*
X13082253Y-17928912D01*
X13082253Y-17928912D02*
X13082253Y-17852722D01*
X13082253Y-17852722D02*
X13091777Y-17833674D01*
X13091777Y-17833674D02*
X13110825Y-17824150D01*
X13110825Y-17824150D02*
X13148920Y-17824150D01*
X13148920Y-17824150D02*
X13167968Y-17833674D01*
X13167968Y-17833674D02*
X13177491Y-17852722D01*
X13177491Y-17852722D02*
X13177491Y-17871770D01*
X13177491Y-17871770D02*
X13082253Y-17890817D01*
X13253682Y-17947960D02*
X13272730Y-17957484D01*
X13272730Y-17957484D02*
X13310825Y-17957484D01*
X13310825Y-17957484D02*
X13329872Y-17947960D01*
X13329872Y-17947960D02*
X13339396Y-17928912D01*
X13339396Y-17928912D02*
X13339396Y-17919389D01*
X13339396Y-17919389D02*
X13329872Y-17900341D01*
X13329872Y-17900341D02*
X13310825Y-17890817D01*
X13310825Y-17890817D02*
X13282253Y-17890817D01*
X13282253Y-17890817D02*
X13263206Y-17881293D01*
X13263206Y-17881293D02*
X13253682Y-17862246D01*
X13253682Y-17862246D02*
X13253682Y-17852722D01*
X13253682Y-17852722D02*
X13263206Y-17833674D01*
X13263206Y-17833674D02*
X13282253Y-17824150D01*
X13282253Y-17824150D02*
X13310825Y-17824150D01*
X13310825Y-17824150D02*
X13329872Y-17833674D01*
X13406063Y-18033674D02*
X13415587Y-18024150D01*
X13415587Y-18024150D02*
X13434634Y-17995579D01*
X13434634Y-17995579D02*
X13444158Y-17976531D01*
X13444158Y-17976531D02*
X13453682Y-17947960D01*
X13453682Y-17947960D02*
X13463206Y-17900341D01*
X13463206Y-17900341D02*
X13463206Y-17862246D01*
X13463206Y-17862246D02*
X13453682Y-17814627D01*
X13453682Y-17814627D02*
X13444158Y-17786055D01*
X13444158Y-17786055D02*
X13434634Y-17767008D01*
X13434634Y-17767008D02*
X13415587Y-17738436D01*
X13415587Y-17738436D02*
X13406063Y-17728912D01*
X8431000Y-18056000D02*
X8631000Y-18256000D01*
X8631000Y-18056000D02*
X8431000Y-18256000D01*
X8601711Y-18226711D02*
X8601711Y-18085289D01*
X8460289Y-18085289D01*
X8460289Y-18226711D01*
X8601711Y-18226711D01*
X8882253Y-18066531D02*
X8891777Y-18057008D01*
X8891777Y-18057008D02*
X8910824Y-18047484D01*
X8910824Y-18047484D02*
X8958444Y-18047484D01*
X8958444Y-18047484D02*
X8977491Y-18057008D01*
X8977491Y-18057008D02*
X8987015Y-18066531D01*
X8987015Y-18066531D02*
X8996539Y-18085579D01*
X8996539Y-18085579D02*
X8996539Y-18104627D01*
X8996539Y-18104627D02*
X8987015Y-18133198D01*
X8987015Y-18133198D02*
X8872729Y-18247484D01*
X8872729Y-18247484D02*
X8996539Y-18247484D01*
X9082253Y-18228436D02*
X9091777Y-18237960D01*
X9091777Y-18237960D02*
X9082253Y-18247484D01*
X9082253Y-18247484D02*
X9072729Y-18237960D01*
X9072729Y-18237960D02*
X9082253Y-18228436D01*
X9082253Y-18228436D02*
X9082253Y-18247484D01*
X9282253Y-18247484D02*
X9167967Y-18247484D01*
X9225110Y-18247484D02*
X9225110Y-18047484D01*
X9225110Y-18047484D02*
X9206063Y-18076055D01*
X9206063Y-18076055D02*
X9187015Y-18095103D01*
X9187015Y-18095103D02*
X9167967Y-18104627D01*
X9406063Y-18047484D02*
X9425110Y-18047484D01*
X9425110Y-18047484D02*
X9444158Y-18057008D01*
X9444158Y-18057008D02*
X9453682Y-18066531D01*
X9453682Y-18066531D02*
X9463205Y-18085579D01*
X9463205Y-18085579D02*
X9472729Y-18123674D01*
X9472729Y-18123674D02*
X9472729Y-18171293D01*
X9472729Y-18171293D02*
X9463205Y-18209389D01*
X9463205Y-18209389D02*
X9453682Y-18228436D01*
X9453682Y-18228436D02*
X9444158Y-18237960D01*
X9444158Y-18237960D02*
X9425110Y-18247484D01*
X9425110Y-18247484D02*
X9406063Y-18247484D01*
X9406063Y-18247484D02*
X9387015Y-18237960D01*
X9387015Y-18237960D02*
X9377491Y-18228436D01*
X9377491Y-18228436D02*
X9367967Y-18209389D01*
X9367967Y-18209389D02*
X9358444Y-18171293D01*
X9358444Y-18171293D02*
X9358444Y-18123674D01*
X9358444Y-18123674D02*
X9367967Y-18085579D01*
X9367967Y-18085579D02*
X9377491Y-18066531D01*
X9377491Y-18066531D02*
X9387015Y-18057008D01*
X9387015Y-18057008D02*
X9406063Y-18047484D01*
X9596539Y-18047484D02*
X9615586Y-18047484D01*
X9615586Y-18047484D02*
X9634634Y-18057008D01*
X9634634Y-18057008D02*
X9644158Y-18066531D01*
X9644158Y-18066531D02*
X9653682Y-18085579D01*
X9653682Y-18085579D02*
X9663205Y-18123674D01*
X9663205Y-18123674D02*
X9663205Y-18171293D01*
X9663205Y-18171293D02*
X9653682Y-18209389D01*
X9653682Y-18209389D02*
X9644158Y-18228436D01*
X9644158Y-18228436D02*
X9634634Y-18237960D01*
X9634634Y-18237960D02*
X9615586Y-18247484D01*
X9615586Y-18247484D02*
X9596539Y-18247484D01*
X9596539Y-18247484D02*
X9577491Y-18237960D01*
X9577491Y-18237960D02*
X9567967Y-18228436D01*
X9567967Y-18228436D02*
X9558444Y-18209389D01*
X9558444Y-18209389D02*
X9548920Y-18171293D01*
X9548920Y-18171293D02*
X9548920Y-18123674D01*
X9548920Y-18123674D02*
X9558444Y-18085579D01*
X9558444Y-18085579D02*
X9567967Y-18066531D01*
X9567967Y-18066531D02*
X9577491Y-18057008D01*
X9577491Y-18057008D02*
X9596539Y-18047484D01*
X9748920Y-18247484D02*
X9748920Y-18114150D01*
X9748920Y-18133198D02*
X9758444Y-18123674D01*
X9758444Y-18123674D02*
X9777491Y-18114150D01*
X9777491Y-18114150D02*
X9806063Y-18114150D01*
X9806063Y-18114150D02*
X9825110Y-18123674D01*
X9825110Y-18123674D02*
X9834634Y-18142722D01*
X9834634Y-18142722D02*
X9834634Y-18247484D01*
X9834634Y-18142722D02*
X9844158Y-18123674D01*
X9844158Y-18123674D02*
X9863205Y-18114150D01*
X9863205Y-18114150D02*
X9891777Y-18114150D01*
X9891777Y-18114150D02*
X9910825Y-18123674D01*
X9910825Y-18123674D02*
X9920348Y-18142722D01*
X9920348Y-18142722D02*
X9920348Y-18247484D01*
X10015586Y-18247484D02*
X10015586Y-18114150D01*
X10015586Y-18133198D02*
X10025110Y-18123674D01*
X10025110Y-18123674D02*
X10044158Y-18114150D01*
X10044158Y-18114150D02*
X10072729Y-18114150D01*
X10072729Y-18114150D02*
X10091777Y-18123674D01*
X10091777Y-18123674D02*
X10101301Y-18142722D01*
X10101301Y-18142722D02*
X10101301Y-18247484D01*
X10101301Y-18142722D02*
X10110825Y-18123674D01*
X10110825Y-18123674D02*
X10129872Y-18114150D01*
X10129872Y-18114150D02*
X10158444Y-18114150D01*
X10158444Y-18114150D02*
X10177491Y-18123674D01*
X10177491Y-18123674D02*
X10187015Y-18142722D01*
X10187015Y-18142722D02*
X10187015Y-18247484D01*
X10577491Y-18037960D02*
X10406063Y-18295103D01*
X10834634Y-18047484D02*
X10853682Y-18047484D01*
X10853682Y-18047484D02*
X10872729Y-18057008D01*
X10872729Y-18057008D02*
X10882253Y-18066531D01*
X10882253Y-18066531D02*
X10891777Y-18085579D01*
X10891777Y-18085579D02*
X10901301Y-18123674D01*
X10901301Y-18123674D02*
X10901301Y-18171293D01*
X10901301Y-18171293D02*
X10891777Y-18209389D01*
X10891777Y-18209389D02*
X10882253Y-18228436D01*
X10882253Y-18228436D02*
X10872729Y-18237960D01*
X10872729Y-18237960D02*
X10853682Y-18247484D01*
X10853682Y-18247484D02*
X10834634Y-18247484D01*
X10834634Y-18247484D02*
X10815587Y-18237960D01*
X10815587Y-18237960D02*
X10806063Y-18228436D01*
X10806063Y-18228436D02*
X10796539Y-18209389D01*
X10796539Y-18209389D02*
X10787015Y-18171293D01*
X10787015Y-18171293D02*
X10787015Y-18123674D01*
X10787015Y-18123674D02*
X10796539Y-18085579D01*
X10796539Y-18085579D02*
X10806063Y-18066531D01*
X10806063Y-18066531D02*
X10815587Y-18057008D01*
X10815587Y-18057008D02*
X10834634Y-18047484D01*
X10987015Y-18228436D02*
X10996539Y-18237960D01*
X10996539Y-18237960D02*
X10987015Y-18247484D01*
X10987015Y-18247484D02*
X10977491Y-18237960D01*
X10977491Y-18237960D02*
X10987015Y-18228436D01*
X10987015Y-18228436D02*
X10987015Y-18247484D01*
X11120348Y-18047484D02*
X11139396Y-18047484D01*
X11139396Y-18047484D02*
X11158444Y-18057008D01*
X11158444Y-18057008D02*
X11167968Y-18066531D01*
X11167968Y-18066531D02*
X11177491Y-18085579D01*
X11177491Y-18085579D02*
X11187015Y-18123674D01*
X11187015Y-18123674D02*
X11187015Y-18171293D01*
X11187015Y-18171293D02*
X11177491Y-18209389D01*
X11177491Y-18209389D02*
X11167968Y-18228436D01*
X11167968Y-18228436D02*
X11158444Y-18237960D01*
X11158444Y-18237960D02*
X11139396Y-18247484D01*
X11139396Y-18247484D02*
X11120348Y-18247484D01*
X11120348Y-18247484D02*
X11101301Y-18237960D01*
X11101301Y-18237960D02*
X11091777Y-18228436D01*
X11091777Y-18228436D02*
X11082253Y-18209389D01*
X11082253Y-18209389D02*
X11072729Y-18171293D01*
X11072729Y-18171293D02*
X11072729Y-18123674D01*
X11072729Y-18123674D02*
X11082253Y-18085579D01*
X11082253Y-18085579D02*
X11091777Y-18066531D01*
X11091777Y-18066531D02*
X11101301Y-18057008D01*
X11101301Y-18057008D02*
X11120348Y-18047484D01*
X11301301Y-18133198D02*
X11282253Y-18123674D01*
X11282253Y-18123674D02*
X11272729Y-18114150D01*
X11272729Y-18114150D02*
X11263206Y-18095103D01*
X11263206Y-18095103D02*
X11263206Y-18085579D01*
X11263206Y-18085579D02*
X11272729Y-18066531D01*
X11272729Y-18066531D02*
X11282253Y-18057008D01*
X11282253Y-18057008D02*
X11301301Y-18047484D01*
X11301301Y-18047484D02*
X11339396Y-18047484D01*
X11339396Y-18047484D02*
X11358444Y-18057008D01*
X11358444Y-18057008D02*
X11367967Y-18066531D01*
X11367967Y-18066531D02*
X11377491Y-18085579D01*
X11377491Y-18085579D02*
X11377491Y-18095103D01*
X11377491Y-18095103D02*
X11367967Y-18114150D01*
X11367967Y-18114150D02*
X11358444Y-18123674D01*
X11358444Y-18123674D02*
X11339396Y-18133198D01*
X11339396Y-18133198D02*
X11301301Y-18133198D01*
X11301301Y-18133198D02*
X11282253Y-18142722D01*
X11282253Y-18142722D02*
X11272729Y-18152246D01*
X11272729Y-18152246D02*
X11263206Y-18171293D01*
X11263206Y-18171293D02*
X11263206Y-18209389D01*
X11263206Y-18209389D02*
X11272729Y-18228436D01*
X11272729Y-18228436D02*
X11282253Y-18237960D01*
X11282253Y-18237960D02*
X11301301Y-18247484D01*
X11301301Y-18247484D02*
X11339396Y-18247484D01*
X11339396Y-18247484D02*
X11358444Y-18237960D01*
X11358444Y-18237960D02*
X11367967Y-18228436D01*
X11367967Y-18228436D02*
X11377491Y-18209389D01*
X11377491Y-18209389D02*
X11377491Y-18171293D01*
X11377491Y-18171293D02*
X11367967Y-18152246D01*
X11367967Y-18152246D02*
X11358444Y-18142722D01*
X11358444Y-18142722D02*
X11339396Y-18133198D01*
X11453682Y-18066531D02*
X11463206Y-18057008D01*
X11463206Y-18057008D02*
X11482253Y-18047484D01*
X11482253Y-18047484D02*
X11529872Y-18047484D01*
X11529872Y-18047484D02*
X11548920Y-18057008D01*
X11548920Y-18057008D02*
X11558444Y-18066531D01*
X11558444Y-18066531D02*
X11567967Y-18085579D01*
X11567967Y-18085579D02*
X11567967Y-18104627D01*
X11567967Y-18104627D02*
X11558444Y-18133198D01*
X11558444Y-18133198D02*
X11444158Y-18247484D01*
X11444158Y-18247484D02*
X11567967Y-18247484D01*
X11634634Y-18047484D02*
X11767967Y-18047484D01*
X11767967Y-18047484D02*
X11682253Y-18247484D01*
X11834634Y-18047484D02*
X11834634Y-18085579D01*
X11910825Y-18047484D02*
X11910825Y-18085579D01*
X12206063Y-18323674D02*
X12196539Y-18314150D01*
X12196539Y-18314150D02*
X12177491Y-18285579D01*
X12177491Y-18285579D02*
X12167968Y-18266531D01*
X12167968Y-18266531D02*
X12158444Y-18237960D01*
X12158444Y-18237960D02*
X12148920Y-18190341D01*
X12148920Y-18190341D02*
X12148920Y-18152246D01*
X12148920Y-18152246D02*
X12158444Y-18104627D01*
X12158444Y-18104627D02*
X12167968Y-18076055D01*
X12167968Y-18076055D02*
X12177491Y-18057008D01*
X12177491Y-18057008D02*
X12196539Y-18028436D01*
X12196539Y-18028436D02*
X12206063Y-18018912D01*
X12367968Y-18047484D02*
X12329872Y-18047484D01*
X12329872Y-18047484D02*
X12310825Y-18057008D01*
X12310825Y-18057008D02*
X12301301Y-18066531D01*
X12301301Y-18066531D02*
X12282253Y-18095103D01*
X12282253Y-18095103D02*
X12272729Y-18133198D01*
X12272729Y-18133198D02*
X12272729Y-18209389D01*
X12272729Y-18209389D02*
X12282253Y-18228436D01*
X12282253Y-18228436D02*
X12291777Y-18237960D01*
X12291777Y-18237960D02*
X12310825Y-18247484D01*
X12310825Y-18247484D02*
X12348920Y-18247484D01*
X12348920Y-18247484D02*
X12367968Y-18237960D01*
X12367968Y-18237960D02*
X12377491Y-18228436D01*
X12377491Y-18228436D02*
X12387015Y-18209389D01*
X12387015Y-18209389D02*
X12387015Y-18161770D01*
X12387015Y-18161770D02*
X12377491Y-18142722D01*
X12377491Y-18142722D02*
X12367968Y-18133198D01*
X12367968Y-18133198D02*
X12348920Y-18123674D01*
X12348920Y-18123674D02*
X12310825Y-18123674D01*
X12310825Y-18123674D02*
X12291777Y-18133198D01*
X12291777Y-18133198D02*
X12282253Y-18142722D01*
X12282253Y-18142722D02*
X12272729Y-18161770D01*
X12625110Y-18247484D02*
X12625110Y-18047484D01*
X12710825Y-18247484D02*
X12710825Y-18142722D01*
X12710825Y-18142722D02*
X12701301Y-18123674D01*
X12701301Y-18123674D02*
X12682253Y-18114150D01*
X12682253Y-18114150D02*
X12653682Y-18114150D01*
X12653682Y-18114150D02*
X12634634Y-18123674D01*
X12634634Y-18123674D02*
X12625110Y-18133198D01*
X12834634Y-18247484D02*
X12815587Y-18237960D01*
X12815587Y-18237960D02*
X12806063Y-18228436D01*
X12806063Y-18228436D02*
X12796539Y-18209389D01*
X12796539Y-18209389D02*
X12796539Y-18152246D01*
X12796539Y-18152246D02*
X12806063Y-18133198D01*
X12806063Y-18133198D02*
X12815587Y-18123674D01*
X12815587Y-18123674D02*
X12834634Y-18114150D01*
X12834634Y-18114150D02*
X12863206Y-18114150D01*
X12863206Y-18114150D02*
X12882253Y-18123674D01*
X12882253Y-18123674D02*
X12891777Y-18133198D01*
X12891777Y-18133198D02*
X12901301Y-18152246D01*
X12901301Y-18152246D02*
X12901301Y-18209389D01*
X12901301Y-18209389D02*
X12891777Y-18228436D01*
X12891777Y-18228436D02*
X12882253Y-18237960D01*
X12882253Y-18237960D02*
X12863206Y-18247484D01*
X12863206Y-18247484D02*
X12834634Y-18247484D01*
X13015587Y-18247484D02*
X12996539Y-18237960D01*
X12996539Y-18237960D02*
X12987015Y-18218912D01*
X12987015Y-18218912D02*
X12987015Y-18047484D01*
X13167968Y-18237960D02*
X13148920Y-18247484D01*
X13148920Y-18247484D02*
X13110825Y-18247484D01*
X13110825Y-18247484D02*
X13091777Y-18237960D01*
X13091777Y-18237960D02*
X13082253Y-18218912D01*
X13082253Y-18218912D02*
X13082253Y-18142722D01*
X13082253Y-18142722D02*
X13091777Y-18123674D01*
X13091777Y-18123674D02*
X13110825Y-18114150D01*
X13110825Y-18114150D02*
X13148920Y-18114150D01*
X13148920Y-18114150D02*
X13167968Y-18123674D01*
X13167968Y-18123674D02*
X13177491Y-18142722D01*
X13177491Y-18142722D02*
X13177491Y-18161770D01*
X13177491Y-18161770D02*
X13082253Y-18180817D01*
X13253682Y-18237960D02*
X13272730Y-18247484D01*
X13272730Y-18247484D02*
X13310825Y-18247484D01*
X13310825Y-18247484D02*
X13329872Y-18237960D01*
X13329872Y-18237960D02*
X13339396Y-18218912D01*
X13339396Y-18218912D02*
X13339396Y-18209389D01*
X13339396Y-18209389D02*
X13329872Y-18190341D01*
X13329872Y-18190341D02*
X13310825Y-18180817D01*
X13310825Y-18180817D02*
X13282253Y-18180817D01*
X13282253Y-18180817D02*
X13263206Y-18171293D01*
X13263206Y-18171293D02*
X13253682Y-18152246D01*
X13253682Y-18152246D02*
X13253682Y-18142722D01*
X13253682Y-18142722D02*
X13263206Y-18123674D01*
X13263206Y-18123674D02*
X13282253Y-18114150D01*
X13282253Y-18114150D02*
X13310825Y-18114150D01*
X13310825Y-18114150D02*
X13329872Y-18123674D01*
X13406063Y-18323674D02*
X13415587Y-18314150D01*
X13415587Y-18314150D02*
X13434634Y-18285579D01*
X13434634Y-18285579D02*
X13444158Y-18266531D01*
X13444158Y-18266531D02*
X13453682Y-18237960D01*
X13453682Y-18237960D02*
X13463206Y-18190341D01*
X13463206Y-18190341D02*
X13463206Y-18152246D01*
X13463206Y-18152246D02*
X13453682Y-18104627D01*
X13453682Y-18104627D02*
X13444158Y-18076055D01*
X13444158Y-18076055D02*
X13434634Y-18057008D01*
X13434634Y-18057008D02*
X13415587Y-18028436D01*
X13415587Y-18028436D02*
X13406063Y-18018912D01*
X8431000Y-18376000D02*
X8631000Y-18576000D01*
X8631000Y-18376000D02*
X8431000Y-18576000D01*
X8531000Y-18576000D02*
X8631000Y-18476000D01*
X8531000Y-18376000D01*
X8431000Y-18476000D01*
X8531000Y-18576000D01*
X8882253Y-18386531D02*
X8891777Y-18377008D01*
X8891777Y-18377008D02*
X8910824Y-18367484D01*
X8910824Y-18367484D02*
X8958444Y-18367484D01*
X8958444Y-18367484D02*
X8977491Y-18377008D01*
X8977491Y-18377008D02*
X8987015Y-18386531D01*
X8987015Y-18386531D02*
X8996539Y-18405579D01*
X8996539Y-18405579D02*
X8996539Y-18424627D01*
X8996539Y-18424627D02*
X8987015Y-18453198D01*
X8987015Y-18453198D02*
X8872729Y-18567484D01*
X8872729Y-18567484D02*
X8996539Y-18567484D01*
X9082253Y-18548436D02*
X9091777Y-18557960D01*
X9091777Y-18557960D02*
X9082253Y-18567484D01*
X9082253Y-18567484D02*
X9072729Y-18557960D01*
X9072729Y-18557960D02*
X9082253Y-18548436D01*
X9082253Y-18548436D02*
X9082253Y-18567484D01*
X9167967Y-18386531D02*
X9177491Y-18377008D01*
X9177491Y-18377008D02*
X9196539Y-18367484D01*
X9196539Y-18367484D02*
X9244158Y-18367484D01*
X9244158Y-18367484D02*
X9263205Y-18377008D01*
X9263205Y-18377008D02*
X9272729Y-18386531D01*
X9272729Y-18386531D02*
X9282253Y-18405579D01*
X9282253Y-18405579D02*
X9282253Y-18424627D01*
X9282253Y-18424627D02*
X9272729Y-18453198D01*
X9272729Y-18453198D02*
X9158444Y-18567484D01*
X9158444Y-18567484D02*
X9282253Y-18567484D01*
X9406063Y-18367484D02*
X9425110Y-18367484D01*
X9425110Y-18367484D02*
X9444158Y-18377008D01*
X9444158Y-18377008D02*
X9453682Y-18386531D01*
X9453682Y-18386531D02*
X9463205Y-18405579D01*
X9463205Y-18405579D02*
X9472729Y-18443674D01*
X9472729Y-18443674D02*
X9472729Y-18491293D01*
X9472729Y-18491293D02*
X9463205Y-18529389D01*
X9463205Y-18529389D02*
X9453682Y-18548436D01*
X9453682Y-18548436D02*
X9444158Y-18557960D01*
X9444158Y-18557960D02*
X9425110Y-18567484D01*
X9425110Y-18567484D02*
X9406063Y-18567484D01*
X9406063Y-18567484D02*
X9387015Y-18557960D01*
X9387015Y-18557960D02*
X9377491Y-18548436D01*
X9377491Y-18548436D02*
X9367967Y-18529389D01*
X9367967Y-18529389D02*
X9358444Y-18491293D01*
X9358444Y-18491293D02*
X9358444Y-18443674D01*
X9358444Y-18443674D02*
X9367967Y-18405579D01*
X9367967Y-18405579D02*
X9377491Y-18386531D01*
X9377491Y-18386531D02*
X9387015Y-18377008D01*
X9387015Y-18377008D02*
X9406063Y-18367484D01*
X9596539Y-18367484D02*
X9615586Y-18367484D01*
X9615586Y-18367484D02*
X9634634Y-18377008D01*
X9634634Y-18377008D02*
X9644158Y-18386531D01*
X9644158Y-18386531D02*
X9653682Y-18405579D01*
X9653682Y-18405579D02*
X9663205Y-18443674D01*
X9663205Y-18443674D02*
X9663205Y-18491293D01*
X9663205Y-18491293D02*
X9653682Y-18529389D01*
X9653682Y-18529389D02*
X9644158Y-18548436D01*
X9644158Y-18548436D02*
X9634634Y-18557960D01*
X9634634Y-18557960D02*
X9615586Y-18567484D01*
X9615586Y-18567484D02*
X9596539Y-18567484D01*
X9596539Y-18567484D02*
X9577491Y-18557960D01*
X9577491Y-18557960D02*
X9567967Y-18548436D01*
X9567967Y-18548436D02*
X9558444Y-18529389D01*
X9558444Y-18529389D02*
X9548920Y-18491293D01*
X9548920Y-18491293D02*
X9548920Y-18443674D01*
X9548920Y-18443674D02*
X9558444Y-18405579D01*
X9558444Y-18405579D02*
X9567967Y-18386531D01*
X9567967Y-18386531D02*
X9577491Y-18377008D01*
X9577491Y-18377008D02*
X9596539Y-18367484D01*
X9748920Y-18567484D02*
X9748920Y-18434150D01*
X9748920Y-18453198D02*
X9758444Y-18443674D01*
X9758444Y-18443674D02*
X9777491Y-18434150D01*
X9777491Y-18434150D02*
X9806063Y-18434150D01*
X9806063Y-18434150D02*
X9825110Y-18443674D01*
X9825110Y-18443674D02*
X9834634Y-18462722D01*
X9834634Y-18462722D02*
X9834634Y-18567484D01*
X9834634Y-18462722D02*
X9844158Y-18443674D01*
X9844158Y-18443674D02*
X9863205Y-18434150D01*
X9863205Y-18434150D02*
X9891777Y-18434150D01*
X9891777Y-18434150D02*
X9910825Y-18443674D01*
X9910825Y-18443674D02*
X9920348Y-18462722D01*
X9920348Y-18462722D02*
X9920348Y-18567484D01*
X10015586Y-18567484D02*
X10015586Y-18434150D01*
X10015586Y-18453198D02*
X10025110Y-18443674D01*
X10025110Y-18443674D02*
X10044158Y-18434150D01*
X10044158Y-18434150D02*
X10072729Y-18434150D01*
X10072729Y-18434150D02*
X10091777Y-18443674D01*
X10091777Y-18443674D02*
X10101301Y-18462722D01*
X10101301Y-18462722D02*
X10101301Y-18567484D01*
X10101301Y-18462722D02*
X10110825Y-18443674D01*
X10110825Y-18443674D02*
X10129872Y-18434150D01*
X10129872Y-18434150D02*
X10158444Y-18434150D01*
X10158444Y-18434150D02*
X10177491Y-18443674D01*
X10177491Y-18443674D02*
X10187015Y-18462722D01*
X10187015Y-18462722D02*
X10187015Y-18567484D01*
X10577491Y-18357960D02*
X10406063Y-18615103D01*
X10834634Y-18367484D02*
X10853682Y-18367484D01*
X10853682Y-18367484D02*
X10872729Y-18377008D01*
X10872729Y-18377008D02*
X10882253Y-18386531D01*
X10882253Y-18386531D02*
X10891777Y-18405579D01*
X10891777Y-18405579D02*
X10901301Y-18443674D01*
X10901301Y-18443674D02*
X10901301Y-18491293D01*
X10901301Y-18491293D02*
X10891777Y-18529389D01*
X10891777Y-18529389D02*
X10882253Y-18548436D01*
X10882253Y-18548436D02*
X10872729Y-18557960D01*
X10872729Y-18557960D02*
X10853682Y-18567484D01*
X10853682Y-18567484D02*
X10834634Y-18567484D01*
X10834634Y-18567484D02*
X10815587Y-18557960D01*
X10815587Y-18557960D02*
X10806063Y-18548436D01*
X10806063Y-18548436D02*
X10796539Y-18529389D01*
X10796539Y-18529389D02*
X10787015Y-18491293D01*
X10787015Y-18491293D02*
X10787015Y-18443674D01*
X10787015Y-18443674D02*
X10796539Y-18405579D01*
X10796539Y-18405579D02*
X10806063Y-18386531D01*
X10806063Y-18386531D02*
X10815587Y-18377008D01*
X10815587Y-18377008D02*
X10834634Y-18367484D01*
X10987015Y-18548436D02*
X10996539Y-18557960D01*
X10996539Y-18557960D02*
X10987015Y-18567484D01*
X10987015Y-18567484D02*
X10977491Y-18557960D01*
X10977491Y-18557960D02*
X10987015Y-18548436D01*
X10987015Y-18548436D02*
X10987015Y-18567484D01*
X11120348Y-18367484D02*
X11139396Y-18367484D01*
X11139396Y-18367484D02*
X11158444Y-18377008D01*
X11158444Y-18377008D02*
X11167968Y-18386531D01*
X11167968Y-18386531D02*
X11177491Y-18405579D01*
X11177491Y-18405579D02*
X11187015Y-18443674D01*
X11187015Y-18443674D02*
X11187015Y-18491293D01*
X11187015Y-18491293D02*
X11177491Y-18529389D01*
X11177491Y-18529389D02*
X11167968Y-18548436D01*
X11167968Y-18548436D02*
X11158444Y-18557960D01*
X11158444Y-18557960D02*
X11139396Y-18567484D01*
X11139396Y-18567484D02*
X11120348Y-18567484D01*
X11120348Y-18567484D02*
X11101301Y-18557960D01*
X11101301Y-18557960D02*
X11091777Y-18548436D01*
X11091777Y-18548436D02*
X11082253Y-18529389D01*
X11082253Y-18529389D02*
X11072729Y-18491293D01*
X11072729Y-18491293D02*
X11072729Y-18443674D01*
X11072729Y-18443674D02*
X11082253Y-18405579D01*
X11082253Y-18405579D02*
X11091777Y-18386531D01*
X11091777Y-18386531D02*
X11101301Y-18377008D01*
X11101301Y-18377008D02*
X11120348Y-18367484D01*
X11301301Y-18453198D02*
X11282253Y-18443674D01*
X11282253Y-18443674D02*
X11272729Y-18434150D01*
X11272729Y-18434150D02*
X11263206Y-18415103D01*
X11263206Y-18415103D02*
X11263206Y-18405579D01*
X11263206Y-18405579D02*
X11272729Y-18386531D01*
X11272729Y-18386531D02*
X11282253Y-18377008D01*
X11282253Y-18377008D02*
X11301301Y-18367484D01*
X11301301Y-18367484D02*
X11339396Y-18367484D01*
X11339396Y-18367484D02*
X11358444Y-18377008D01*
X11358444Y-18377008D02*
X11367967Y-18386531D01*
X11367967Y-18386531D02*
X11377491Y-18405579D01*
X11377491Y-18405579D02*
X11377491Y-18415103D01*
X11377491Y-18415103D02*
X11367967Y-18434150D01*
X11367967Y-18434150D02*
X11358444Y-18443674D01*
X11358444Y-18443674D02*
X11339396Y-18453198D01*
X11339396Y-18453198D02*
X11301301Y-18453198D01*
X11301301Y-18453198D02*
X11282253Y-18462722D01*
X11282253Y-18462722D02*
X11272729Y-18472246D01*
X11272729Y-18472246D02*
X11263206Y-18491293D01*
X11263206Y-18491293D02*
X11263206Y-18529389D01*
X11263206Y-18529389D02*
X11272729Y-18548436D01*
X11272729Y-18548436D02*
X11282253Y-18557960D01*
X11282253Y-18557960D02*
X11301301Y-18567484D01*
X11301301Y-18567484D02*
X11339396Y-18567484D01*
X11339396Y-18567484D02*
X11358444Y-18557960D01*
X11358444Y-18557960D02*
X11367967Y-18548436D01*
X11367967Y-18548436D02*
X11377491Y-18529389D01*
X11377491Y-18529389D02*
X11377491Y-18491293D01*
X11377491Y-18491293D02*
X11367967Y-18472246D01*
X11367967Y-18472246D02*
X11358444Y-18462722D01*
X11358444Y-18462722D02*
X11339396Y-18453198D01*
X11548920Y-18367484D02*
X11510825Y-18367484D01*
X11510825Y-18367484D02*
X11491777Y-18377008D01*
X11491777Y-18377008D02*
X11482253Y-18386531D01*
X11482253Y-18386531D02*
X11463206Y-18415103D01*
X11463206Y-18415103D02*
X11453682Y-18453198D01*
X11453682Y-18453198D02*
X11453682Y-18529389D01*
X11453682Y-18529389D02*
X11463206Y-18548436D01*
X11463206Y-18548436D02*
X11472729Y-18557960D01*
X11472729Y-18557960D02*
X11491777Y-18567484D01*
X11491777Y-18567484D02*
X11529872Y-18567484D01*
X11529872Y-18567484D02*
X11548920Y-18557960D01*
X11548920Y-18557960D02*
X11558444Y-18548436D01*
X11558444Y-18548436D02*
X11567967Y-18529389D01*
X11567967Y-18529389D02*
X11567967Y-18481770D01*
X11567967Y-18481770D02*
X11558444Y-18462722D01*
X11558444Y-18462722D02*
X11548920Y-18453198D01*
X11548920Y-18453198D02*
X11529872Y-18443674D01*
X11529872Y-18443674D02*
X11491777Y-18443674D01*
X11491777Y-18443674D02*
X11472729Y-18453198D01*
X11472729Y-18453198D02*
X11463206Y-18462722D01*
X11463206Y-18462722D02*
X11453682Y-18481770D01*
X11739396Y-18367484D02*
X11701301Y-18367484D01*
X11701301Y-18367484D02*
X11682253Y-18377008D01*
X11682253Y-18377008D02*
X11672729Y-18386531D01*
X11672729Y-18386531D02*
X11653682Y-18415103D01*
X11653682Y-18415103D02*
X11644158Y-18453198D01*
X11644158Y-18453198D02*
X11644158Y-18529389D01*
X11644158Y-18529389D02*
X11653682Y-18548436D01*
X11653682Y-18548436D02*
X11663206Y-18557960D01*
X11663206Y-18557960D02*
X11682253Y-18567484D01*
X11682253Y-18567484D02*
X11720348Y-18567484D01*
X11720348Y-18567484D02*
X11739396Y-18557960D01*
X11739396Y-18557960D02*
X11748920Y-18548436D01*
X11748920Y-18548436D02*
X11758444Y-18529389D01*
X11758444Y-18529389D02*
X11758444Y-18481770D01*
X11758444Y-18481770D02*
X11748920Y-18462722D01*
X11748920Y-18462722D02*
X11739396Y-18453198D01*
X11739396Y-18453198D02*
X11720348Y-18443674D01*
X11720348Y-18443674D02*
X11682253Y-18443674D01*
X11682253Y-18443674D02*
X11663206Y-18453198D01*
X11663206Y-18453198D02*
X11653682Y-18462722D01*
X11653682Y-18462722D02*
X11644158Y-18481770D01*
X11834634Y-18367484D02*
X11834634Y-18405579D01*
X11910825Y-18367484D02*
X11910825Y-18405579D01*
X12206063Y-18643674D02*
X12196539Y-18634150D01*
X12196539Y-18634150D02*
X12177491Y-18605579D01*
X12177491Y-18605579D02*
X12167968Y-18586531D01*
X12167968Y-18586531D02*
X12158444Y-18557960D01*
X12158444Y-18557960D02*
X12148920Y-18510341D01*
X12148920Y-18510341D02*
X12148920Y-18472246D01*
X12148920Y-18472246D02*
X12158444Y-18424627D01*
X12158444Y-18424627D02*
X12167968Y-18396055D01*
X12167968Y-18396055D02*
X12177491Y-18377008D01*
X12177491Y-18377008D02*
X12196539Y-18348436D01*
X12196539Y-18348436D02*
X12206063Y-18338912D01*
X12367968Y-18434150D02*
X12367968Y-18567484D01*
X12320348Y-18357960D02*
X12272729Y-18500817D01*
X12272729Y-18500817D02*
X12396539Y-18500817D01*
X12625110Y-18567484D02*
X12625110Y-18367484D01*
X12710825Y-18567484D02*
X12710825Y-18462722D01*
X12710825Y-18462722D02*
X12701301Y-18443674D01*
X12701301Y-18443674D02*
X12682253Y-18434150D01*
X12682253Y-18434150D02*
X12653682Y-18434150D01*
X12653682Y-18434150D02*
X12634634Y-18443674D01*
X12634634Y-18443674D02*
X12625110Y-18453198D01*
X12834634Y-18567484D02*
X12815587Y-18557960D01*
X12815587Y-18557960D02*
X12806063Y-18548436D01*
X12806063Y-18548436D02*
X12796539Y-18529389D01*
X12796539Y-18529389D02*
X12796539Y-18472246D01*
X12796539Y-18472246D02*
X12806063Y-18453198D01*
X12806063Y-18453198D02*
X12815587Y-18443674D01*
X12815587Y-18443674D02*
X12834634Y-18434150D01*
X12834634Y-18434150D02*
X12863206Y-18434150D01*
X12863206Y-18434150D02*
X12882253Y-18443674D01*
X12882253Y-18443674D02*
X12891777Y-18453198D01*
X12891777Y-18453198D02*
X12901301Y-18472246D01*
X12901301Y-18472246D02*
X12901301Y-18529389D01*
X12901301Y-18529389D02*
X12891777Y-18548436D01*
X12891777Y-18548436D02*
X12882253Y-18557960D01*
X12882253Y-18557960D02*
X12863206Y-18567484D01*
X12863206Y-18567484D02*
X12834634Y-18567484D01*
X13015587Y-18567484D02*
X12996539Y-18557960D01*
X12996539Y-18557960D02*
X12987015Y-18538912D01*
X12987015Y-18538912D02*
X12987015Y-18367484D01*
X13167968Y-18557960D02*
X13148920Y-18567484D01*
X13148920Y-18567484D02*
X13110825Y-18567484D01*
X13110825Y-18567484D02*
X13091777Y-18557960D01*
X13091777Y-18557960D02*
X13082253Y-18538912D01*
X13082253Y-18538912D02*
X13082253Y-18462722D01*
X13082253Y-18462722D02*
X13091777Y-18443674D01*
X13091777Y-18443674D02*
X13110825Y-18434150D01*
X13110825Y-18434150D02*
X13148920Y-18434150D01*
X13148920Y-18434150D02*
X13167968Y-18443674D01*
X13167968Y-18443674D02*
X13177491Y-18462722D01*
X13177491Y-18462722D02*
X13177491Y-18481770D01*
X13177491Y-18481770D02*
X13082253Y-18500817D01*
X13253682Y-18557960D02*
X13272730Y-18567484D01*
X13272730Y-18567484D02*
X13310825Y-18567484D01*
X13310825Y-18567484D02*
X13329872Y-18557960D01*
X13329872Y-18557960D02*
X13339396Y-18538912D01*
X13339396Y-18538912D02*
X13339396Y-18529389D01*
X13339396Y-18529389D02*
X13329872Y-18510341D01*
X13329872Y-18510341D02*
X13310825Y-18500817D01*
X13310825Y-18500817D02*
X13282253Y-18500817D01*
X13282253Y-18500817D02*
X13263206Y-18491293D01*
X13263206Y-18491293D02*
X13253682Y-18472246D01*
X13253682Y-18472246D02*
X13253682Y-18462722D01*
X13253682Y-18462722D02*
X13263206Y-18443674D01*
X13263206Y-18443674D02*
X13282253Y-18434150D01*
X13282253Y-18434150D02*
X13310825Y-18434150D01*
X13310825Y-18434150D02*
X13329872Y-18443674D01*
X13406063Y-18643674D02*
X13415587Y-18634150D01*
X13415587Y-18634150D02*
X13434634Y-18605579D01*
X13434634Y-18605579D02*
X13444158Y-18586531D01*
X13444158Y-18586531D02*
X13453682Y-18557960D01*
X13453682Y-18557960D02*
X13463206Y-18510341D01*
X13463206Y-18510341D02*
X13463206Y-18472246D01*
X13463206Y-18472246D02*
X13453682Y-18424627D01*
X13453682Y-18424627D02*
X13444158Y-18396055D01*
X13444158Y-18396055D02*
X13434634Y-18377008D01*
X13434634Y-18377008D02*
X13415587Y-18348436D01*
X13415587Y-18348436D02*
X13406063Y-18338912D01*
M02*
