M48
; DRILL file {KiCad 7.0.10} date Thu Jul 25 14:37:49 2024
; FORMAT={-:-/ absolute / inch / decimal}
; #@! TF.CreationDate,2024-07-25T14:37:49-06:00
; #@! TF.GenerationSoftware,Kicad,Pcbnew,7.0.10
; #@! TF.FileFunction,Plated,1,4,PTH
FMAT,2
INCH
; #@! TA.AperFunction,Plated,PTH,ViaDrill
T1C0.0157
; #@! TA.AperFunction,Plated,PTH,ComponentDrill
T2C0.0295
; #@! TA.AperFunction,Plated,PTH,ComponentDrill
T3C0.0315
; #@! TA.AperFunction,Plated,PTH,ComponentDrill
T4C0.0394
; #@! TA.AperFunction,Plated,PTH,ComponentDrill
T5C0.0402
; #@! TA.AperFunction,Plated,PTH,ComponentDrill
T6C0.0433
; #@! TA.AperFunction,Plated,PTH,ComponentDrill
T7C0.0630
; #@! TA.AperFunction,Plated,PTH,ComponentDrill
T8C0.0669
; #@! TA.AperFunction,Plated,PTH,ComponentDrill
T9C0.0827
; #@! TA.AperFunction,Plated,PTH,ComponentDrill
T10C0.1260
%
G90
G05
T1
X2.575Y-3.375
X2.6Y-3.5
X2.65Y-3.525
X3.3Y-5.25
T2
X2.625Y-4.775
X2.675Y-4.775
X2.725Y-4.775
X3.175Y-4.8392
X3.225Y-4.8392
X3.275Y-4.8392
X3.65Y-3.725
X3.65Y-3.775
X3.65Y-3.825
X3.8892Y-5.5
X3.8892Y-5.55
X3.8892Y-5.6
X3.9Y-5.15
X3.9Y-5.2
X3.9Y-5.25
X4.65Y-3.9642
X4.7Y-3.9642
X4.75Y-3.9642
T3
X2.25Y-3.9766
X2.25Y-4.1734
X2.575Y-4.4
X2.575Y-4.5
X2.6Y-4.2
X2.6089Y-4.025
X2.625Y-5.025
X2.7Y-4.2
X2.7089Y-4.025
X2.725Y-5.025
X2.8494Y-3.9998
X2.8494Y-4.0998
X2.8494Y-4.1998
X2.8494Y-4.2998
X2.8494Y-4.3998
X2.8494Y-4.4998
X2.8494Y-4.5998
X2.875Y-4.85
X2.975Y-4.85
X3.1Y-2.875
X3.1Y-2.975
X3.1494Y-3.9998
X3.1494Y-4.0998
X3.1494Y-4.1998
X3.1494Y-4.2998
X3.1494Y-4.3998
X3.1494Y-4.4998
X3.1494Y-4.5998
X3.3089Y-3.575
X3.4Y-4.9
X3.4089Y-3.575
X3.425Y-5.575
X3.5Y-4.9
X3.525Y-5.575
X4.05Y-3.825
X4.0839Y-5.0
X4.125Y-5.25
X4.125Y-5.6
X4.15Y-3.825
X4.1839Y-5.0
X4.225Y-5.25
X4.225Y-5.6
X4.275Y-3.5661
X4.275Y-3.6661
X4.3089Y-3.95
X4.4089Y-3.95
X4.9Y-3.6911
X4.9Y-3.7911
X5.1411Y-3.8
X5.2411Y-3.8
X5.475Y-4.9531
X5.475Y-5.15
T4
X2.025Y-4.0244
X2.025Y-4.1244
X2.025Y-4.2244
X2.075Y-4.5016
X2.075Y-4.6
X2.25Y-4.525
X2.25Y-4.625
X3.125Y-5.1
X3.125Y-5.2
X3.125Y-5.3
X3.4Y-2.8281
X3.4Y-3.025
X3.6Y-5.0994
X3.6Y-5.1994
X3.6Y-5.2994
X3.7Y-4.5818
X3.7Y-4.7786
X3.9318Y-4.225
X4.1286Y-4.225
X4.7531Y-4.875
X4.95Y-4.875
X5.65Y-3.9
X5.65Y-4.0
X5.65Y-4.1
X5.65Y-4.2
X5.65Y-4.3
X5.65Y-4.4
X5.65Y-4.65
X5.65Y-4.75
X5.65Y-4.85
X5.65Y-4.95
X5.65Y-5.05
T5
X2.1Y-4.8
X2.1Y-4.9
X2.1Y-5.0
X2.1Y-5.1
X2.1Y-5.275
X2.1Y-5.375
X2.1Y-5.475
X2.1Y-5.575
X2.1545Y-1.875
X2.1545Y-1.975
X2.1545Y-2.075
X2.1545Y-2.175
X2.1545Y-2.275
X2.1545Y-2.375
X2.1545Y-2.475
X2.1545Y-2.575
X2.1545Y-2.675
X2.1545Y-2.775
X2.1545Y-2.875
X2.1545Y-2.975
X2.1545Y-3.075
X2.1545Y-3.175
X2.1545Y-3.275
X2.1545Y-3.375
X2.1545Y-3.475
X2.1545Y-3.575
X2.1545Y-3.675
X2.1545Y-3.775
X2.4045Y-3.7659
X2.5045Y-3.7659
X2.6045Y-3.7659
X2.8545Y-1.875
X2.8545Y-1.975
X2.8545Y-2.075
X2.8545Y-2.175
X2.8545Y-2.275
X2.8545Y-2.375
X2.8545Y-2.475
X2.8545Y-2.575
X2.8545Y-2.675
X2.8545Y-2.775
X2.8545Y-2.875
X2.8545Y-2.975
X2.8545Y-3.075
X2.8545Y-3.175
X2.8545Y-3.275
X2.8545Y-3.375
X2.8545Y-3.475
X2.8545Y-3.575
X2.8545Y-3.675
X2.8545Y-3.775
T6
X2.4Y-4.3
X2.4Y-4.7
X3.425Y-4.2878
X3.525Y-4.2878
X3.625Y-4.2878
X3.8Y-3.525
X3.9Y-3.525
X4.0Y-3.525
X4.0091Y-2.8102
X4.4091Y-2.8102
X4.5Y-4.975
X4.5Y-5.375
X4.5122Y-4.475
X4.5122Y-4.575
X4.5122Y-4.675
X4.9Y-3.4622
X5.0Y-3.4622
X5.0591Y-2.8102
X5.1Y-3.4622
X5.4591Y-2.8102
T7
X3.9Y-3.2
X4.5Y-3.2
X5.0Y-3.15
X5.6Y-3.15
T8
X3.1509Y-2.15
X3.4009Y-2.524
T9
X3.8591Y-2.3102
X4.5591Y-1.9102
X4.5591Y-2.2102
X4.9091Y-2.3102
X5.6091Y-1.9102
X5.6091Y-2.2102
T10
X1.925Y-1.825
X1.925Y-5.775
X5.875Y-1.825
X5.875Y-5.775
M30
