M48
; DRILL file {KiCad 7.0.10} date Fri Jul 19 13:24:43 2024
; FORMAT={-:-/ absolute / inch / decimal}
; #@! TF.CreationDate,2024-07-19T13:24:43-06:00
; #@! TF.GenerationSoftware,Kicad,Pcbnew,7.0.10
; #@! TF.FileFunction,Plated,1,4,PTH
FMAT,2
INCH
; #@! TA.AperFunction,Plated,PTH,ComponentDrill
T1C0.0295
; #@! TA.AperFunction,Plated,PTH,ComponentDrill
T2C0.0315
; #@! TA.AperFunction,Plated,PTH,ComponentDrill
T3C0.0394
; #@! TA.AperFunction,Plated,PTH,ComponentDrill
T4C0.0402
; #@! TA.AperFunction,Plated,PTH,ComponentDrill
T5C0.0433
; #@! TA.AperFunction,Plated,PTH,ComponentDrill
T6C0.0630
; #@! TA.AperFunction,Plated,PTH,ComponentDrill
T7C0.0669
; #@! TA.AperFunction,Plated,PTH,ComponentDrill
T8C0.0827
; #@! TA.AperFunction,Plated,PTH,ComponentDrill
T9C0.0866
%
G90
G05
T1
X4.6Y-4.1
X4.6Y-4.15
X4.6Y-4.2
X6.85Y-4.45
X6.85Y-4.5
X6.85Y-4.55
T2
X4.5Y-4.45
X4.6Y-4.45
X4.7622Y-3.15
X4.85Y-3.8
X4.85Y-3.9
X4.85Y-4.15
X4.9Y-3.15
X4.95Y-4.15
X5.15Y-3.8
X5.15Y-3.9
X5.7016Y-4.05
X5.7213Y-4.35
X5.8Y-4.05
X5.8Y-4.35
X5.85Y-3.6
X5.85Y-3.7
X6.0006Y-4.7502
X6.0006Y-4.8502
X6.0006Y-4.9502
X6.0006Y-5.0502
X6.0006Y-5.1502
X6.0006Y-5.2502
X6.0006Y-5.3502
X6.05Y-3.6
X6.05Y-3.7
X6.3006Y-4.7502
X6.3006Y-4.8502
X6.3006Y-4.9502
X6.3006Y-5.0502
X6.3006Y-5.1502
X6.3006Y-5.2502
X6.3006Y-5.3502
X6.5Y-4.5
X6.6Y-4.5
X6.9Y-5.175
X6.95Y-4.9
X7.0Y-5.175
X7.05Y-4.9
T3
X4.05Y-5.8
X4.15Y-5.8
X4.25Y-5.8
X4.35Y-5.8
X4.45Y-5.8
X4.55Y-5.8
X5.0502Y-5.8
X5.1502Y-5.8
X5.2502Y-5.8
X5.3502Y-5.8
X5.4502Y-5.8
X6.8Y-5.4
X6.8Y-5.5
X6.8Y-5.6
T4
X3.7Y-4.75
X3.7Y-5.45
X3.8Y-4.75
X3.8Y-5.45
X3.9Y-4.75
X3.9Y-5.45
X4.0Y-4.75
X4.0Y-5.45
X4.1Y-4.75
X4.1Y-5.45
X4.2Y-4.75
X4.2Y-5.45
X4.3Y-4.75
X4.3Y-5.45
X4.4Y-4.75
X4.4Y-5.45
X4.5Y-4.75
X4.5Y-5.45
X4.6Y-4.75
X4.6Y-5.45
X4.7Y-4.75
X4.7Y-5.45
X4.8Y-4.75
X4.8Y-5.45
X4.9Y-4.75
X4.9Y-5.45
X5.0Y-4.75
X5.0Y-5.45
X5.1Y-4.75
X5.1Y-5.45
X5.2Y-4.75
X5.2Y-5.45
X5.3Y-4.75
X5.3Y-5.45
X5.4Y-4.75
X5.4Y-5.45
X5.5Y-4.75
X5.5Y-5.45
X5.5909Y-5.0
X5.5909Y-5.1
X5.5909Y-5.2
X5.6Y-4.75
X5.6Y-5.45
T5
X3.8841Y-3.75
X4.2841Y-3.75
X4.7Y-3.5872
X4.8Y-3.5872
X4.9Y-3.5872
X5.9372Y-3.1
X5.9372Y-3.2
X5.9372Y-3.3
X5.9628Y-4.05
X5.9628Y-4.15
X5.9628Y-4.25
X6.55Y-3.75
X6.95Y-3.75
T6
X3.6Y-4.1
X4.2Y-4.1
X6.55Y-4.1
X7.15Y-4.1
T7
X5.2509Y-3.0699
X5.5009Y-3.4439
T8
X3.7341Y-3.25
X4.4341Y-2.85
X4.4341Y-3.15
X6.4Y-3.25
X7.1Y-2.85
X7.1Y-3.15
T9
X3.6Y-5.8
X4.85Y-2.8
X6.0Y-2.8
X7.15Y-5.8
M30
