%TF.GenerationSoftware,KiCad,Pcbnew,7.0.10*%
%TF.CreationDate,2024-07-26T19:37:07-06:00*%
%TF.ProjectId,Pressure-Controlled-Power-Outlet-control-PCB,50726573-7375-4726-952d-436f6e74726f,V1.5.25*%
%TF.SameCoordinates,Original*%
%TF.FileFunction,Soldermask,Top*%
%TF.FilePolarity,Negative*%
%FSLAX46Y46*%
G04 Gerber Fmt 4.6, Leading zero omitted, Abs format (unit mm)*
G04 Created by KiCad (PCBNEW 7.0.10) date 2024-07-26 19:37:07*
%MOMM*%
%LPD*%
G01*
G04 APERTURE LIST*
G04 Aperture macros list*
%AMRoundRect*
0 Rectangle with rounded corners*
0 $1 Rounding radius*
0 $2 $3 $4 $5 $6 $7 $8 $9 X,Y pos of 4 corners*
0 Add a 4 corners polygon primitive as box body*
4,1,4,$2,$3,$4,$5,$6,$7,$8,$9,$2,$3,0*
0 Add four circle primitives for the rounded corners*
1,1,$1+$1,$2,$3*
1,1,$1+$1,$4,$5*
1,1,$1+$1,$6,$7*
1,1,$1+$1,$8,$9*
0 Add four rect primitives between the rounded corners*
20,1,$1+$1,$2,$3,$4,$5,0*
20,1,$1+$1,$4,$5,$6,$7,0*
20,1,$1+$1,$6,$7,$8,$9,0*
20,1,$1+$1,$8,$9,$2,$3,0*%
G04 Aperture macros list end*
%ADD10R,1.500000X1.050000*%
%ADD11O,1.500000X1.050000*%
%ADD12R,1.905000X2.000000*%
%ADD13O,1.905000X2.000000*%
%ADD14C,1.600000*%
%ADD15O,1.600000X1.600000*%
%ADD16R,1.700000X1.700000*%
%ADD17O,1.700000X1.700000*%
%ADD18C,1.100000*%
%ADD19R,2.030000X1.730000*%
%ADD20O,2.030000X1.730000*%
%ADD21R,2.400000X1.600000*%
%ADD22O,2.400000X1.600000*%
%ADD23R,2.200000X2.200000*%
%ADD24O,2.200000X2.200000*%
%ADD25R,2.000000X1.905000*%
%ADD26O,2.000000X1.905000*%
%ADD27C,5.700000*%
%ADD28O,1.800000X1.800000*%
%ADD29O,1.500000X1.500000*%
%ADD30R,3.500000X1.700000*%
%ADD31R,1.700000X3.500000*%
%ADD32R,1.050000X1.500000*%
%ADD33O,1.050000X1.500000*%
%ADD34RoundRect,0.250000X-0.750000X0.600000X-0.750000X-0.600000X0.750000X-0.600000X0.750000X0.600000X0*%
%ADD35O,2.000000X1.700000*%
%ADD36R,2.000000X2.000000*%
%ADD37C,2.000000*%
%ADD38R,3.150000X3.150000*%
%ADD39C,3.150000*%
%ADD40C,1.650000*%
%ADD41R,3.200000X3.200000*%
%ADD42O,3.200000X3.200000*%
%ADD43C,2.550000*%
G04 APERTURE END LIST*
D10*
%TO.C,Q8*%
X145140000Y-142240000D03*
D11*
X145140000Y-140970000D03*
X145140000Y-139700000D03*
%TD*%
D12*
%TO.C,U3*%
X138430000Y-108910000D03*
D13*
X135890000Y-108910000D03*
X133350000Y-108910000D03*
%TD*%
D14*
%TO.C,R1*%
X112620000Y-102235000D03*
D15*
X115160000Y-102235000D03*
%TD*%
D16*
%TO.C,J5*%
X125730000Y-134620000D03*
D17*
X125730000Y-132080000D03*
X125730000Y-129540000D03*
%TD*%
D14*
%TO.C,R3*%
X126590000Y-88265000D03*
D15*
X129130000Y-88265000D03*
%TD*%
D18*
%TO.C,M1*%
X97535000Y-124460000D03*
D19*
X99695000Y-129540000D03*
D20*
X99695000Y-127000000D03*
X99695000Y-124460000D03*
X99695000Y-121920000D03*
%TD*%
D14*
%TO.C,R11*%
X150085000Y-127000000D03*
D15*
X152625000Y-127000000D03*
%TD*%
D21*
%TO.C,U2*%
X118730000Y-101595000D03*
D22*
X118730000Y-104135000D03*
X118730000Y-106675000D03*
X118730000Y-109215000D03*
X118730000Y-111755000D03*
X118730000Y-114295000D03*
X118730000Y-116835000D03*
X126350000Y-116835000D03*
X126350000Y-114295000D03*
X126350000Y-111755000D03*
X126350000Y-109215000D03*
X126350000Y-106675000D03*
X126350000Y-104135000D03*
X126350000Y-101595000D03*
%TD*%
D14*
%TO.C,R7*%
X151765000Y-97155000D03*
D15*
X149225000Y-97155000D03*
%TD*%
D23*
%TO.C,D4*%
X160655000Y-136525000D03*
D24*
X160655000Y-126365000D03*
%TD*%
D16*
%TO.C,J4*%
X189865000Y-99060000D03*
D17*
X189865000Y-101600000D03*
X189865000Y-104140000D03*
X189865000Y-106680000D03*
X189865000Y-109220000D03*
X189865000Y-111760000D03*
%TD*%
D14*
%TO.C,C7*%
X101600000Y-104735000D03*
X101600000Y-99735000D03*
%TD*%
%TO.C,R8*%
X129765000Y-93345000D03*
D15*
X132305000Y-93345000D03*
%TD*%
D25*
%TO.C,U4*%
X160965000Y-118745000D03*
D26*
X160965000Y-116205000D03*
X160965000Y-113665000D03*
%TD*%
D27*
%TO.C,H1*%
X95250000Y-46355000D03*
%TD*%
D14*
%TO.C,C6*%
X185420000Y-125810000D03*
X185420000Y-130810000D03*
%TD*%
D28*
%TO.C,U1*%
X107245000Y-47755000D03*
D29*
X107545000Y-50785000D03*
X112395000Y-50785000D03*
D28*
X112695000Y-47755000D03*
D17*
X101080000Y-47625000D03*
D30*
X100180000Y-47625000D03*
D17*
X101080000Y-50165000D03*
D30*
X100180000Y-50165000D03*
D16*
X101080000Y-52705000D03*
D30*
X100180000Y-52705000D03*
D17*
X101080000Y-55245000D03*
D30*
X100180000Y-55245000D03*
D17*
X101080000Y-57785000D03*
D30*
X100180000Y-57785000D03*
D17*
X101080000Y-60325000D03*
D30*
X100180000Y-60325000D03*
D17*
X101080000Y-62865000D03*
D30*
X100180000Y-62865000D03*
D16*
X101080000Y-65405000D03*
D30*
X100180000Y-65405000D03*
D17*
X101080000Y-67945000D03*
D30*
X100180000Y-67945000D03*
D17*
X101080000Y-70485000D03*
D30*
X100180000Y-70485000D03*
D17*
X101080000Y-73025000D03*
D30*
X100180000Y-73025000D03*
D17*
X101080000Y-75565000D03*
D30*
X100180000Y-75565000D03*
D16*
X101080000Y-78105000D03*
D30*
X100180000Y-78105000D03*
D17*
X101080000Y-80645000D03*
D30*
X100180000Y-80645000D03*
D17*
X101080000Y-83185000D03*
D30*
X100180000Y-83185000D03*
D17*
X101080000Y-85725000D03*
D30*
X100180000Y-85725000D03*
D17*
X101080000Y-88265000D03*
D30*
X100180000Y-88265000D03*
D16*
X101080000Y-90805000D03*
D30*
X100180000Y-90805000D03*
D17*
X101080000Y-93345000D03*
D30*
X100180000Y-93345000D03*
D17*
X101080000Y-95885000D03*
D30*
X100180000Y-95885000D03*
D17*
X118860000Y-95885000D03*
D30*
X119760000Y-95885000D03*
D17*
X118860000Y-93345000D03*
D30*
X119760000Y-93345000D03*
D16*
X118860000Y-90805000D03*
D30*
X119760000Y-90805000D03*
D17*
X118860000Y-88265000D03*
D30*
X119760000Y-88265000D03*
D17*
X118860000Y-85725000D03*
D30*
X119760000Y-85725000D03*
D17*
X118860000Y-83185000D03*
D30*
X119760000Y-83185000D03*
D17*
X118860000Y-80645000D03*
D30*
X119760000Y-80645000D03*
D16*
X118860000Y-78105000D03*
D30*
X119760000Y-78105000D03*
D17*
X118860000Y-75565000D03*
D30*
X119760000Y-75565000D03*
D17*
X118860000Y-73025000D03*
D30*
X119760000Y-73025000D03*
D17*
X118860000Y-70485000D03*
D30*
X119760000Y-70485000D03*
D17*
X118860000Y-67945000D03*
D30*
X119760000Y-67945000D03*
D16*
X118860000Y-65405000D03*
D30*
X119760000Y-65405000D03*
D17*
X118860000Y-62865000D03*
D30*
X119760000Y-62865000D03*
D17*
X118860000Y-60325000D03*
D30*
X119760000Y-60325000D03*
D17*
X118860000Y-57785000D03*
D30*
X119760000Y-57785000D03*
D17*
X118860000Y-55245000D03*
D30*
X119760000Y-55245000D03*
D16*
X118860000Y-52705000D03*
D30*
X119760000Y-52705000D03*
D17*
X118860000Y-50165000D03*
D30*
X119760000Y-50165000D03*
D17*
X118860000Y-47625000D03*
D30*
X119760000Y-47625000D03*
D17*
X107430000Y-95655000D03*
D31*
X107430000Y-96555000D03*
D16*
X109970000Y-95655000D03*
D31*
X109970000Y-96555000D03*
D17*
X112510000Y-95655000D03*
D31*
X112510000Y-96555000D03*
%TD*%
D10*
%TO.C,Q4*%
X139065000Y-97155000D03*
D11*
X139065000Y-95885000D03*
X139065000Y-94615000D03*
%TD*%
D14*
%TO.C,R10*%
X111760000Y-111760000D03*
D15*
X111760000Y-114300000D03*
%TD*%
D32*
%TO.C,Q5*%
X113030000Y-121285000D03*
D33*
X114300000Y-121285000D03*
X115570000Y-121285000D03*
%TD*%
D16*
%TO.C,J3*%
X189865000Y-118110000D03*
D17*
X189865000Y-120650000D03*
X189865000Y-123190000D03*
X189865000Y-125730000D03*
X189865000Y-128270000D03*
%TD*%
D34*
%TO.C,J7*%
X99060000Y-114340000D03*
D35*
X99060000Y-116840000D03*
%TD*%
D16*
%TO.C,J1*%
X97790000Y-105395000D03*
D17*
X97790000Y-102855000D03*
X97790000Y-100315000D03*
%TD*%
D12*
%TO.C,Q2*%
X142875000Y-89535000D03*
D13*
X145415000Y-89535000D03*
X147955000Y-89535000D03*
%TD*%
D36*
%TO.C,C3*%
X144860000Y-107315000D03*
D37*
X149860000Y-107315000D03*
%TD*%
D14*
%TO.C,R13*%
X135255000Y-124460000D03*
D15*
X132715000Y-124460000D03*
%TD*%
D27*
%TO.C,H2*%
X195580000Y-46355000D03*
%TD*%
%TO.C,H3*%
X95250000Y-146685000D03*
%TD*%
D14*
%TO.C,R9*%
X155800000Y-100330000D03*
D15*
X158340000Y-100330000D03*
%TD*%
D14*
%TO.C,R4*%
X154940000Y-93120000D03*
D15*
X154940000Y-90580000D03*
%TD*%
D38*
%TO.C,K1*%
X162155000Y-48520000D03*
D39*
X162155000Y-56140000D03*
D40*
X158345000Y-71380000D03*
X148185000Y-71380000D03*
D39*
X144375000Y-58680000D03*
%TD*%
D18*
%TO.C,M2*%
X97535000Y-136525000D03*
D19*
X99695000Y-141605000D03*
D20*
X99695000Y-139065000D03*
X99695000Y-136525000D03*
X99695000Y-133985000D03*
%TD*%
D41*
%TO.C,D2*%
X188595000Y-81280000D03*
D42*
X173355000Y-81280000D03*
%TD*%
D14*
%TO.C,R16*%
X135890000Y-141605000D03*
D15*
X133350000Y-141605000D03*
%TD*%
D38*
%TO.C,K2*%
X188825000Y-48520000D03*
D39*
X188825000Y-56140000D03*
D40*
X185015000Y-71380000D03*
X174855000Y-71380000D03*
D39*
X171045000Y-58680000D03*
%TD*%
D14*
%TO.C,R5*%
X170815000Y-96295000D03*
D15*
X170815000Y-93755000D03*
%TD*%
D14*
%TO.C,R15*%
X153670000Y-133350000D03*
D15*
X151130000Y-133350000D03*
%TD*%
D10*
%TO.C,Q6*%
X145415000Y-133350000D03*
D11*
X145415000Y-132080000D03*
X145415000Y-130810000D03*
%TD*%
D16*
%TO.C,J10*%
X103505000Y-114935000D03*
D17*
X103505000Y-117475000D03*
%TD*%
D23*
%TO.C,D3*%
X107315000Y-111125000D03*
D24*
X107315000Y-121285000D03*
%TD*%
D36*
%TO.C,C4*%
X165907323Y-116205000D03*
D37*
X170907323Y-116205000D03*
%TD*%
D14*
%TO.C,R14*%
X121920000Y-123190000D03*
D15*
X119380000Y-123190000D03*
%TD*%
D14*
%TO.C,R2*%
X114935000Y-106680000D03*
D15*
X112395000Y-106680000D03*
%TD*%
D32*
%TO.C,Q7*%
X127000000Y-122915000D03*
D33*
X128270000Y-122915000D03*
X129540000Y-122915000D03*
%TD*%
D41*
%TO.C,D1*%
X160655000Y-81280000D03*
D42*
X145415000Y-81280000D03*
%TD*%
D43*
%TO.C,J2*%
X133350000Y-66780000D03*
X127000000Y-57280000D03*
%TD*%
D16*
%TO.C,J6*%
X137795000Y-134605000D03*
D17*
X137795000Y-132065000D03*
X137795000Y-129525000D03*
%TD*%
D12*
%TO.C,Q3*%
X170815000Y-88575000D03*
D13*
X173355000Y-88575000D03*
X175895000Y-88575000D03*
%TD*%
D36*
%TO.C,C2*%
X140335000Y-116377323D03*
D37*
X140335000Y-121377323D03*
%TD*%
D36*
%TO.C,C1*%
X129540000Y-74375000D03*
D37*
X129540000Y-79375000D03*
%TD*%
D32*
%TO.C,Q1*%
X164465000Y-100690000D03*
D33*
X165735000Y-100690000D03*
X167005000Y-100690000D03*
%TD*%
D27*
%TO.C,H4*%
X195580000Y-146685000D03*
%TD*%
D14*
%TO.C,R6*%
X179480000Y-96520000D03*
D15*
X176940000Y-96520000D03*
%TD*%
D14*
%TO.C,R12*%
X115570000Y-127635000D03*
D15*
X113030000Y-127635000D03*
%TD*%
D14*
%TO.C,R17*%
X153670000Y-142240000D03*
D15*
X151130000Y-142240000D03*
%TD*%
M02*
