%TF.GenerationSoftware,KiCad,Pcbnew,7.0.10*%
%TF.CreationDate,2024-07-26T19:37:07-06:00*%
%TF.ProjectId,Pressure-Controlled-Power-Outlet-control-PCB,50726573-7375-4726-952d-436f6e74726f,V1.5.25*%
%TF.SameCoordinates,Original*%
%TF.FileFunction,Legend,Bot*%
%TF.FilePolarity,Positive*%
%FSLAX46Y46*%
G04 Gerber Fmt 4.6, Leading zero omitted, Abs format (unit mm)*
G04 Created by KiCad (PCBNEW 7.0.10) date 2024-07-26 19:37:07*
%MOMM*%
%LPD*%
G01*
G04 APERTURE LIST*
%ADD10C,0.150000*%
G04 APERTURE END LIST*
D10*
X194767030Y-65530057D02*
X194767030Y-62530057D01*
X194767030Y-62530057D02*
X193624173Y-62530057D01*
X193624173Y-62530057D02*
X193338458Y-62672914D01*
X193338458Y-62672914D02*
X193195601Y-62815771D01*
X193195601Y-62815771D02*
X193052744Y-63101485D01*
X193052744Y-63101485D02*
X193052744Y-63530057D01*
X193052744Y-63530057D02*
X193195601Y-63815771D01*
X193195601Y-63815771D02*
X193338458Y-63958628D01*
X193338458Y-63958628D02*
X193624173Y-64101485D01*
X193624173Y-64101485D02*
X194767030Y-64101485D01*
X191767030Y-65530057D02*
X191767030Y-63530057D01*
X191767030Y-64101485D02*
X191624173Y-63815771D01*
X191624173Y-63815771D02*
X191481316Y-63672914D01*
X191481316Y-63672914D02*
X191195601Y-63530057D01*
X191195601Y-63530057D02*
X190909887Y-63530057D01*
X188767030Y-65387200D02*
X189052744Y-65530057D01*
X189052744Y-65530057D02*
X189624173Y-65530057D01*
X189624173Y-65530057D02*
X189909887Y-65387200D01*
X189909887Y-65387200D02*
X190052744Y-65101485D01*
X190052744Y-65101485D02*
X190052744Y-63958628D01*
X190052744Y-63958628D02*
X189909887Y-63672914D01*
X189909887Y-63672914D02*
X189624173Y-63530057D01*
X189624173Y-63530057D02*
X189052744Y-63530057D01*
X189052744Y-63530057D02*
X188767030Y-63672914D01*
X188767030Y-63672914D02*
X188624173Y-63958628D01*
X188624173Y-63958628D02*
X188624173Y-64244342D01*
X188624173Y-64244342D02*
X190052744Y-64530057D01*
X187481315Y-65387200D02*
X187195601Y-65530057D01*
X187195601Y-65530057D02*
X186624172Y-65530057D01*
X186624172Y-65530057D02*
X186338458Y-65387200D01*
X186338458Y-65387200D02*
X186195601Y-65101485D01*
X186195601Y-65101485D02*
X186195601Y-64958628D01*
X186195601Y-64958628D02*
X186338458Y-64672914D01*
X186338458Y-64672914D02*
X186624172Y-64530057D01*
X186624172Y-64530057D02*
X187052744Y-64530057D01*
X187052744Y-64530057D02*
X187338458Y-64387200D01*
X187338458Y-64387200D02*
X187481315Y-64101485D01*
X187481315Y-64101485D02*
X187481315Y-63958628D01*
X187481315Y-63958628D02*
X187338458Y-63672914D01*
X187338458Y-63672914D02*
X187052744Y-63530057D01*
X187052744Y-63530057D02*
X186624172Y-63530057D01*
X186624172Y-63530057D02*
X186338458Y-63672914D01*
X185052744Y-65387200D02*
X184767030Y-65530057D01*
X184767030Y-65530057D02*
X184195601Y-65530057D01*
X184195601Y-65530057D02*
X183909887Y-65387200D01*
X183909887Y-65387200D02*
X183767030Y-65101485D01*
X183767030Y-65101485D02*
X183767030Y-64958628D01*
X183767030Y-64958628D02*
X183909887Y-64672914D01*
X183909887Y-64672914D02*
X184195601Y-64530057D01*
X184195601Y-64530057D02*
X184624173Y-64530057D01*
X184624173Y-64530057D02*
X184909887Y-64387200D01*
X184909887Y-64387200D02*
X185052744Y-64101485D01*
X185052744Y-64101485D02*
X185052744Y-63958628D01*
X185052744Y-63958628D02*
X184909887Y-63672914D01*
X184909887Y-63672914D02*
X184624173Y-63530057D01*
X184624173Y-63530057D02*
X184195601Y-63530057D01*
X184195601Y-63530057D02*
X183909887Y-63672914D01*
X181195602Y-63530057D02*
X181195602Y-65530057D01*
X182481316Y-63530057D02*
X182481316Y-65101485D01*
X182481316Y-65101485D02*
X182338459Y-65387200D01*
X182338459Y-65387200D02*
X182052744Y-65530057D01*
X182052744Y-65530057D02*
X181624173Y-65530057D01*
X181624173Y-65530057D02*
X181338459Y-65387200D01*
X181338459Y-65387200D02*
X181195602Y-65244342D01*
X179767030Y-65530057D02*
X179767030Y-63530057D01*
X179767030Y-64101485D02*
X179624173Y-63815771D01*
X179624173Y-63815771D02*
X179481316Y-63672914D01*
X179481316Y-63672914D02*
X179195601Y-63530057D01*
X179195601Y-63530057D02*
X178909887Y-63530057D01*
X176767030Y-65387200D02*
X177052744Y-65530057D01*
X177052744Y-65530057D02*
X177624173Y-65530057D01*
X177624173Y-65530057D02*
X177909887Y-65387200D01*
X177909887Y-65387200D02*
X178052744Y-65101485D01*
X178052744Y-65101485D02*
X178052744Y-63958628D01*
X178052744Y-63958628D02*
X177909887Y-63672914D01*
X177909887Y-63672914D02*
X177624173Y-63530057D01*
X177624173Y-63530057D02*
X177052744Y-63530057D01*
X177052744Y-63530057D02*
X176767030Y-63672914D01*
X176767030Y-63672914D02*
X176624173Y-63958628D01*
X176624173Y-63958628D02*
X176624173Y-64244342D01*
X176624173Y-64244342D02*
X178052744Y-64530057D01*
X171338458Y-65244342D02*
X171481315Y-65387200D01*
X171481315Y-65387200D02*
X171909887Y-65530057D01*
X171909887Y-65530057D02*
X172195601Y-65530057D01*
X172195601Y-65530057D02*
X172624172Y-65387200D01*
X172624172Y-65387200D02*
X172909887Y-65101485D01*
X172909887Y-65101485D02*
X173052744Y-64815771D01*
X173052744Y-64815771D02*
X173195601Y-64244342D01*
X173195601Y-64244342D02*
X173195601Y-63815771D01*
X173195601Y-63815771D02*
X173052744Y-63244342D01*
X173052744Y-63244342D02*
X172909887Y-62958628D01*
X172909887Y-62958628D02*
X172624172Y-62672914D01*
X172624172Y-62672914D02*
X172195601Y-62530057D01*
X172195601Y-62530057D02*
X171909887Y-62530057D01*
X171909887Y-62530057D02*
X171481315Y-62672914D01*
X171481315Y-62672914D02*
X171338458Y-62815771D01*
X169624172Y-65530057D02*
X169909887Y-65387200D01*
X169909887Y-65387200D02*
X170052744Y-65244342D01*
X170052744Y-65244342D02*
X170195601Y-64958628D01*
X170195601Y-64958628D02*
X170195601Y-64101485D01*
X170195601Y-64101485D02*
X170052744Y-63815771D01*
X170052744Y-63815771D02*
X169909887Y-63672914D01*
X169909887Y-63672914D02*
X169624172Y-63530057D01*
X169624172Y-63530057D02*
X169195601Y-63530057D01*
X169195601Y-63530057D02*
X168909887Y-63672914D01*
X168909887Y-63672914D02*
X168767030Y-63815771D01*
X168767030Y-63815771D02*
X168624172Y-64101485D01*
X168624172Y-64101485D02*
X168624172Y-64958628D01*
X168624172Y-64958628D02*
X168767030Y-65244342D01*
X168767030Y-65244342D02*
X168909887Y-65387200D01*
X168909887Y-65387200D02*
X169195601Y-65530057D01*
X169195601Y-65530057D02*
X169624172Y-65530057D01*
X167338458Y-63530057D02*
X167338458Y-65530057D01*
X167338458Y-63815771D02*
X167195601Y-63672914D01*
X167195601Y-63672914D02*
X166909886Y-63530057D01*
X166909886Y-63530057D02*
X166481315Y-63530057D01*
X166481315Y-63530057D02*
X166195601Y-63672914D01*
X166195601Y-63672914D02*
X166052744Y-63958628D01*
X166052744Y-63958628D02*
X166052744Y-65530057D01*
X165052743Y-63530057D02*
X163909886Y-63530057D01*
X164624172Y-62530057D02*
X164624172Y-65101485D01*
X164624172Y-65101485D02*
X164481315Y-65387200D01*
X164481315Y-65387200D02*
X164195600Y-65530057D01*
X164195600Y-65530057D02*
X163909886Y-65530057D01*
X162909886Y-65530057D02*
X162909886Y-63530057D01*
X162909886Y-64101485D02*
X162767029Y-63815771D01*
X162767029Y-63815771D02*
X162624172Y-63672914D01*
X162624172Y-63672914D02*
X162338457Y-63530057D01*
X162338457Y-63530057D02*
X162052743Y-63530057D01*
X160624171Y-65530057D02*
X160909886Y-65387200D01*
X160909886Y-65387200D02*
X161052743Y-65244342D01*
X161052743Y-65244342D02*
X161195600Y-64958628D01*
X161195600Y-64958628D02*
X161195600Y-64101485D01*
X161195600Y-64101485D02*
X161052743Y-63815771D01*
X161052743Y-63815771D02*
X160909886Y-63672914D01*
X160909886Y-63672914D02*
X160624171Y-63530057D01*
X160624171Y-63530057D02*
X160195600Y-63530057D01*
X160195600Y-63530057D02*
X159909886Y-63672914D01*
X159909886Y-63672914D02*
X159767029Y-63815771D01*
X159767029Y-63815771D02*
X159624171Y-64101485D01*
X159624171Y-64101485D02*
X159624171Y-64958628D01*
X159624171Y-64958628D02*
X159767029Y-65244342D01*
X159767029Y-65244342D02*
X159909886Y-65387200D01*
X159909886Y-65387200D02*
X160195600Y-65530057D01*
X160195600Y-65530057D02*
X160624171Y-65530057D01*
X157909885Y-65530057D02*
X158195600Y-65387200D01*
X158195600Y-65387200D02*
X158338457Y-65101485D01*
X158338457Y-65101485D02*
X158338457Y-62530057D01*
X156338456Y-65530057D02*
X156624171Y-65387200D01*
X156624171Y-65387200D02*
X156767028Y-65101485D01*
X156767028Y-65101485D02*
X156767028Y-62530057D01*
X154052742Y-65387200D02*
X154338456Y-65530057D01*
X154338456Y-65530057D02*
X154909885Y-65530057D01*
X154909885Y-65530057D02*
X155195599Y-65387200D01*
X155195599Y-65387200D02*
X155338456Y-65101485D01*
X155338456Y-65101485D02*
X155338456Y-63958628D01*
X155338456Y-63958628D02*
X155195599Y-63672914D01*
X155195599Y-63672914D02*
X154909885Y-63530057D01*
X154909885Y-63530057D02*
X154338456Y-63530057D01*
X154338456Y-63530057D02*
X154052742Y-63672914D01*
X154052742Y-63672914D02*
X153909885Y-63958628D01*
X153909885Y-63958628D02*
X153909885Y-64244342D01*
X153909885Y-64244342D02*
X155338456Y-64530057D01*
X151338456Y-65530057D02*
X151338456Y-62530057D01*
X151338456Y-65387200D02*
X151624170Y-65530057D01*
X151624170Y-65530057D02*
X152195598Y-65530057D01*
X152195598Y-65530057D02*
X152481313Y-65387200D01*
X152481313Y-65387200D02*
X152624170Y-65244342D01*
X152624170Y-65244342D02*
X152767027Y-64958628D01*
X152767027Y-64958628D02*
X152767027Y-64101485D01*
X152767027Y-64101485D02*
X152624170Y-63815771D01*
X152624170Y-63815771D02*
X152481313Y-63672914D01*
X152481313Y-63672914D02*
X152195598Y-63530057D01*
X152195598Y-63530057D02*
X151624170Y-63530057D01*
X151624170Y-63530057D02*
X151338456Y-63672914D01*
X147052741Y-62530057D02*
X146481313Y-62530057D01*
X146481313Y-62530057D02*
X146195598Y-62672914D01*
X146195598Y-62672914D02*
X145909884Y-62958628D01*
X145909884Y-62958628D02*
X145767027Y-63530057D01*
X145767027Y-63530057D02*
X145767027Y-64530057D01*
X145767027Y-64530057D02*
X145909884Y-65101485D01*
X145909884Y-65101485D02*
X146195598Y-65387200D01*
X146195598Y-65387200D02*
X146481313Y-65530057D01*
X146481313Y-65530057D02*
X147052741Y-65530057D01*
X147052741Y-65530057D02*
X147338456Y-65387200D01*
X147338456Y-65387200D02*
X147624170Y-65101485D01*
X147624170Y-65101485D02*
X147767027Y-64530057D01*
X147767027Y-64530057D02*
X147767027Y-63530057D01*
X147767027Y-63530057D02*
X147624170Y-62958628D01*
X147624170Y-62958628D02*
X147338456Y-62672914D01*
X147338456Y-62672914D02*
X147052741Y-62530057D01*
X143195599Y-63530057D02*
X143195599Y-65530057D01*
X144481313Y-63530057D02*
X144481313Y-65101485D01*
X144481313Y-65101485D02*
X144338456Y-65387200D01*
X144338456Y-65387200D02*
X144052741Y-65530057D01*
X144052741Y-65530057D02*
X143624170Y-65530057D01*
X143624170Y-65530057D02*
X143338456Y-65387200D01*
X143338456Y-65387200D02*
X143195599Y-65244342D01*
X142195598Y-63530057D02*
X141052741Y-63530057D01*
X141767027Y-62530057D02*
X141767027Y-65101485D01*
X141767027Y-65101485D02*
X141624170Y-65387200D01*
X141624170Y-65387200D02*
X141338455Y-65530057D01*
X141338455Y-65530057D02*
X141052741Y-65530057D01*
X139624169Y-65530057D02*
X139909884Y-65387200D01*
X139909884Y-65387200D02*
X140052741Y-65101485D01*
X140052741Y-65101485D02*
X140052741Y-62530057D01*
X137338455Y-65387200D02*
X137624169Y-65530057D01*
X137624169Y-65530057D02*
X138195598Y-65530057D01*
X138195598Y-65530057D02*
X138481312Y-65387200D01*
X138481312Y-65387200D02*
X138624169Y-65101485D01*
X138624169Y-65101485D02*
X138624169Y-63958628D01*
X138624169Y-63958628D02*
X138481312Y-63672914D01*
X138481312Y-63672914D02*
X138195598Y-63530057D01*
X138195598Y-63530057D02*
X137624169Y-63530057D01*
X137624169Y-63530057D02*
X137338455Y-63672914D01*
X137338455Y-63672914D02*
X137195598Y-63958628D01*
X137195598Y-63958628D02*
X137195598Y-64244342D01*
X137195598Y-64244342D02*
X138624169Y-64530057D01*
X136338454Y-63530057D02*
X135195597Y-63530057D01*
X135909883Y-62530057D02*
X135909883Y-65101485D01*
X135909883Y-65101485D02*
X135767026Y-65387200D01*
X135767026Y-65387200D02*
X135481311Y-65530057D01*
X135481311Y-65530057D02*
X135195597Y-65530057D01*
X195195601Y-67360057D02*
X194195601Y-70360057D01*
X194195601Y-70360057D02*
X193195601Y-67360057D01*
X190624172Y-70360057D02*
X192338458Y-70360057D01*
X191481315Y-70360057D02*
X191481315Y-67360057D01*
X191481315Y-67360057D02*
X191767029Y-67788628D01*
X191767029Y-67788628D02*
X192052744Y-68074342D01*
X192052744Y-68074342D02*
X192338458Y-68217200D01*
X189338458Y-70074342D02*
X189195601Y-70217200D01*
X189195601Y-70217200D02*
X189338458Y-70360057D01*
X189338458Y-70360057D02*
X189481315Y-70217200D01*
X189481315Y-70217200D02*
X189338458Y-70074342D01*
X189338458Y-70074342D02*
X189338458Y-70360057D01*
X186481315Y-67360057D02*
X187909887Y-67360057D01*
X187909887Y-67360057D02*
X188052744Y-68788628D01*
X188052744Y-68788628D02*
X187909887Y-68645771D01*
X187909887Y-68645771D02*
X187624173Y-68502914D01*
X187624173Y-68502914D02*
X186909887Y-68502914D01*
X186909887Y-68502914D02*
X186624173Y-68645771D01*
X186624173Y-68645771D02*
X186481315Y-68788628D01*
X186481315Y-68788628D02*
X186338458Y-69074342D01*
X186338458Y-69074342D02*
X186338458Y-69788628D01*
X186338458Y-69788628D02*
X186481315Y-70074342D01*
X186481315Y-70074342D02*
X186624173Y-70217200D01*
X186624173Y-70217200D02*
X186909887Y-70360057D01*
X186909887Y-70360057D02*
X187624173Y-70360057D01*
X187624173Y-70360057D02*
X187909887Y-70217200D01*
X187909887Y-70217200D02*
X188052744Y-70074342D01*
X185052744Y-70074342D02*
X184909887Y-70217200D01*
X184909887Y-70217200D02*
X185052744Y-70360057D01*
X185052744Y-70360057D02*
X185195601Y-70217200D01*
X185195601Y-70217200D02*
X185052744Y-70074342D01*
X185052744Y-70074342D02*
X185052744Y-70360057D01*
X183767030Y-67645771D02*
X183624173Y-67502914D01*
X183624173Y-67502914D02*
X183338459Y-67360057D01*
X183338459Y-67360057D02*
X182624173Y-67360057D01*
X182624173Y-67360057D02*
X182338459Y-67502914D01*
X182338459Y-67502914D02*
X182195601Y-67645771D01*
X182195601Y-67645771D02*
X182052744Y-67931485D01*
X182052744Y-67931485D02*
X182052744Y-68217200D01*
X182052744Y-68217200D02*
X182195601Y-68645771D01*
X182195601Y-68645771D02*
X183909887Y-70360057D01*
X183909887Y-70360057D02*
X182052744Y-70360057D01*
X179338458Y-67360057D02*
X180767030Y-67360057D01*
X180767030Y-67360057D02*
X180909887Y-68788628D01*
X180909887Y-68788628D02*
X180767030Y-68645771D01*
X180767030Y-68645771D02*
X180481316Y-68502914D01*
X180481316Y-68502914D02*
X179767030Y-68502914D01*
X179767030Y-68502914D02*
X179481316Y-68645771D01*
X179481316Y-68645771D02*
X179338458Y-68788628D01*
X179338458Y-68788628D02*
X179195601Y-69074342D01*
X179195601Y-69074342D02*
X179195601Y-69788628D01*
X179195601Y-69788628D02*
X179338458Y-70074342D01*
X179338458Y-70074342D02*
X179481316Y-70217200D01*
X179481316Y-70217200D02*
X179767030Y-70360057D01*
X179767030Y-70360057D02*
X180481316Y-70360057D01*
X180481316Y-70360057D02*
X180767030Y-70217200D01*
X180767030Y-70217200D02*
X180909887Y-70074342D01*
X193767030Y-73618628D02*
X193338458Y-73761485D01*
X193338458Y-73761485D02*
X193195601Y-73904342D01*
X193195601Y-73904342D02*
X193052744Y-74190057D01*
X193052744Y-74190057D02*
X193052744Y-74618628D01*
X193052744Y-74618628D02*
X193195601Y-74904342D01*
X193195601Y-74904342D02*
X193338458Y-75047200D01*
X193338458Y-75047200D02*
X193624173Y-75190057D01*
X193624173Y-75190057D02*
X194767030Y-75190057D01*
X194767030Y-75190057D02*
X194767030Y-72190057D01*
X194767030Y-72190057D02*
X193767030Y-72190057D01*
X193767030Y-72190057D02*
X193481316Y-72332914D01*
X193481316Y-72332914D02*
X193338458Y-72475771D01*
X193338458Y-72475771D02*
X193195601Y-72761485D01*
X193195601Y-72761485D02*
X193195601Y-73047200D01*
X193195601Y-73047200D02*
X193338458Y-73332914D01*
X193338458Y-73332914D02*
X193481316Y-73475771D01*
X193481316Y-73475771D02*
X193767030Y-73618628D01*
X193767030Y-73618628D02*
X194767030Y-73618628D01*
X192052744Y-73190057D02*
X191338458Y-75190057D01*
X190624173Y-73190057D02*
X191338458Y-75190057D01*
X191338458Y-75190057D02*
X191624173Y-75904342D01*
X191624173Y-75904342D02*
X191767030Y-76047200D01*
X191767030Y-76047200D02*
X192052744Y-76190057D01*
X186195602Y-73618628D02*
X185767030Y-73761485D01*
X185767030Y-73761485D02*
X185624173Y-73904342D01*
X185624173Y-73904342D02*
X185481316Y-74190057D01*
X185481316Y-74190057D02*
X185481316Y-74618628D01*
X185481316Y-74618628D02*
X185624173Y-74904342D01*
X185624173Y-74904342D02*
X185767030Y-75047200D01*
X185767030Y-75047200D02*
X186052745Y-75190057D01*
X186052745Y-75190057D02*
X187195602Y-75190057D01*
X187195602Y-75190057D02*
X187195602Y-72190057D01*
X187195602Y-72190057D02*
X186195602Y-72190057D01*
X186195602Y-72190057D02*
X185909888Y-72332914D01*
X185909888Y-72332914D02*
X185767030Y-72475771D01*
X185767030Y-72475771D02*
X185624173Y-72761485D01*
X185624173Y-72761485D02*
X185624173Y-73047200D01*
X185624173Y-73047200D02*
X185767030Y-73332914D01*
X185767030Y-73332914D02*
X185909888Y-73475771D01*
X185909888Y-73475771D02*
X186195602Y-73618628D01*
X186195602Y-73618628D02*
X187195602Y-73618628D01*
X184195602Y-75190057D02*
X184195602Y-73190057D01*
X184195602Y-73761485D02*
X184052745Y-73475771D01*
X184052745Y-73475771D02*
X183909888Y-73332914D01*
X183909888Y-73332914D02*
X183624173Y-73190057D01*
X183624173Y-73190057D02*
X183338459Y-73190057D01*
X182338459Y-75190057D02*
X182338459Y-73190057D01*
X182338459Y-72190057D02*
X182481316Y-72332914D01*
X182481316Y-72332914D02*
X182338459Y-72475771D01*
X182338459Y-72475771D02*
X182195602Y-72332914D01*
X182195602Y-72332914D02*
X182338459Y-72190057D01*
X182338459Y-72190057D02*
X182338459Y-72475771D01*
X179624174Y-75190057D02*
X179624174Y-73618628D01*
X179624174Y-73618628D02*
X179767031Y-73332914D01*
X179767031Y-73332914D02*
X180052745Y-73190057D01*
X180052745Y-73190057D02*
X180624174Y-73190057D01*
X180624174Y-73190057D02*
X180909888Y-73332914D01*
X179624174Y-75047200D02*
X179909888Y-75190057D01*
X179909888Y-75190057D02*
X180624174Y-75190057D01*
X180624174Y-75190057D02*
X180909888Y-75047200D01*
X180909888Y-75047200D02*
X181052745Y-74761485D01*
X181052745Y-74761485D02*
X181052745Y-74475771D01*
X181052745Y-74475771D02*
X180909888Y-74190057D01*
X180909888Y-74190057D02*
X180624174Y-74047200D01*
X180624174Y-74047200D02*
X179909888Y-74047200D01*
X179909888Y-74047200D02*
X179624174Y-73904342D01*
X178195602Y-73190057D02*
X178195602Y-75190057D01*
X178195602Y-73475771D02*
X178052745Y-73332914D01*
X178052745Y-73332914D02*
X177767030Y-73190057D01*
X177767030Y-73190057D02*
X177338459Y-73190057D01*
X177338459Y-73190057D02*
X177052745Y-73332914D01*
X177052745Y-73332914D02*
X176909888Y-73618628D01*
X176909888Y-73618628D02*
X176909888Y-75190057D01*
X172195602Y-73618628D02*
X171767030Y-73761485D01*
X171767030Y-73761485D02*
X171624173Y-73904342D01*
X171624173Y-73904342D02*
X171481316Y-74190057D01*
X171481316Y-74190057D02*
X171481316Y-74618628D01*
X171481316Y-74618628D02*
X171624173Y-74904342D01*
X171624173Y-74904342D02*
X171767030Y-75047200D01*
X171767030Y-75047200D02*
X172052745Y-75190057D01*
X172052745Y-75190057D02*
X173195602Y-75190057D01*
X173195602Y-75190057D02*
X173195602Y-72190057D01*
X173195602Y-72190057D02*
X172195602Y-72190057D01*
X172195602Y-72190057D02*
X171909888Y-72332914D01*
X171909888Y-72332914D02*
X171767030Y-72475771D01*
X171767030Y-72475771D02*
X171624173Y-72761485D01*
X171624173Y-72761485D02*
X171624173Y-73047200D01*
X171624173Y-73047200D02*
X171767030Y-73332914D01*
X171767030Y-73332914D02*
X171909888Y-73475771D01*
X171909888Y-73475771D02*
X172195602Y-73618628D01*
X172195602Y-73618628D02*
X173195602Y-73618628D01*
X168909888Y-75190057D02*
X168909888Y-73618628D01*
X168909888Y-73618628D02*
X169052745Y-73332914D01*
X169052745Y-73332914D02*
X169338459Y-73190057D01*
X169338459Y-73190057D02*
X169909888Y-73190057D01*
X169909888Y-73190057D02*
X170195602Y-73332914D01*
X168909888Y-75047200D02*
X169195602Y-75190057D01*
X169195602Y-75190057D02*
X169909888Y-75190057D01*
X169909888Y-75190057D02*
X170195602Y-75047200D01*
X170195602Y-75047200D02*
X170338459Y-74761485D01*
X170338459Y-74761485D02*
X170338459Y-74475771D01*
X170338459Y-74475771D02*
X170195602Y-74190057D01*
X170195602Y-74190057D02*
X169909888Y-74047200D01*
X169909888Y-74047200D02*
X169195602Y-74047200D01*
X169195602Y-74047200D02*
X168909888Y-73904342D01*
X167481316Y-73190057D02*
X167481316Y-75190057D01*
X167481316Y-73475771D02*
X167338459Y-73332914D01*
X167338459Y-73332914D02*
X167052744Y-73190057D01*
X167052744Y-73190057D02*
X166624173Y-73190057D01*
X166624173Y-73190057D02*
X166338459Y-73332914D01*
X166338459Y-73332914D02*
X166195602Y-73618628D01*
X166195602Y-73618628D02*
X166195602Y-75190057D01*
X163481316Y-75190057D02*
X163481316Y-73618628D01*
X163481316Y-73618628D02*
X163624173Y-73332914D01*
X163624173Y-73332914D02*
X163909887Y-73190057D01*
X163909887Y-73190057D02*
X164481316Y-73190057D01*
X164481316Y-73190057D02*
X164767030Y-73332914D01*
X163481316Y-75047200D02*
X163767030Y-75190057D01*
X163767030Y-75190057D02*
X164481316Y-75190057D01*
X164481316Y-75190057D02*
X164767030Y-75047200D01*
X164767030Y-75047200D02*
X164909887Y-74761485D01*
X164909887Y-74761485D02*
X164909887Y-74475771D01*
X164909887Y-74475771D02*
X164767030Y-74190057D01*
X164767030Y-74190057D02*
X164481316Y-74047200D01*
X164481316Y-74047200D02*
X163767030Y-74047200D01*
X163767030Y-74047200D02*
X163481316Y-73904342D01*
X162195601Y-75047200D02*
X161909887Y-75190057D01*
X161909887Y-75190057D02*
X161338458Y-75190057D01*
X161338458Y-75190057D02*
X161052744Y-75047200D01*
X161052744Y-75047200D02*
X160909887Y-74761485D01*
X160909887Y-74761485D02*
X160909887Y-74618628D01*
X160909887Y-74618628D02*
X161052744Y-74332914D01*
X161052744Y-74332914D02*
X161338458Y-74190057D01*
X161338458Y-74190057D02*
X161767030Y-74190057D01*
X161767030Y-74190057D02*
X162052744Y-74047200D01*
X162052744Y-74047200D02*
X162195601Y-73761485D01*
X162195601Y-73761485D02*
X162195601Y-73618628D01*
X162195601Y-73618628D02*
X162052744Y-73332914D01*
X162052744Y-73332914D02*
X161767030Y-73190057D01*
X161767030Y-73190057D02*
X161338458Y-73190057D01*
X161338458Y-73190057D02*
X161052744Y-73332914D01*
M02*
