%TF.GenerationSoftware,KiCad,Pcbnew,7.0.10*%
%TF.CreationDate,2024-07-29T15:39:42-06:00*%
%TF.ProjectId,Pressure-Controlled-Power-Outlet-control-PCB,50726573-7375-4726-952d-436f6e74726f,V1.5.25*%
%TF.SameCoordinates,Original*%
%TF.FileFunction,Drillmap*%
%TF.FilePolarity,Positive*%
%FSLAX45Y45*%
G04 Gerber Fmt 4.5, Leading zero omitted, Abs format (unit mm)*
G04 Created by KiCad (PCBNEW 7.0.10) date 2024-07-29 15:39:42*
%MOMM*%
%LPD*%
G01*
G04 APERTURE LIST*
%ADD10C,0.100000*%
%ADD11C,0.200000*%
%ADD12C,0.102000*%
%ADD13C,0.110000*%
%ADD14C,0.160000*%
%ADD15C,0.170000*%
%ADD16C,0.210000*%
%ADD17C,0.320000*%
G04 APERTURE END LIST*
D10*
X9461500Y-4572000D02*
X19621500Y-4572000D01*
X19621500Y-14732000D01*
X9461500Y-14732000D01*
X9461500Y-4572000D01*
D11*
D10*
X11156000Y-8552500D02*
X11196000Y-8592500D01*
X11196000Y-8552500D02*
X11156000Y-8592500D01*
X11219500Y-8870000D02*
X11259500Y-8910000D01*
X11259500Y-8870000D02*
X11219500Y-8910000D01*
X11346500Y-8933500D02*
X11386500Y-8973500D01*
X11386500Y-8933500D02*
X11346500Y-8973500D01*
X13251500Y-13823000D02*
X13291500Y-13863000D01*
X13291500Y-13823000D02*
X13251500Y-13863000D01*
X13950000Y-13696000D02*
X13990000Y-13736000D01*
X13990000Y-13696000D02*
X13950000Y-13736000D01*
X11340500Y-12128500D02*
G75*
G03*
X11265500Y-12128500I-37500J0D01*
G01*
X11265500Y-12128500D02*
G75*
G03*
X11340500Y-12128500I37500J0D01*
G01*
X11467500Y-12128500D02*
G75*
G03*
X11392500Y-12128500I-37500J0D01*
G01*
X11392500Y-12128500D02*
G75*
G03*
X11467500Y-12128500I37500J0D01*
G01*
X11594500Y-12128500D02*
G75*
G03*
X11519500Y-12128500I-37500J0D01*
G01*
X11519500Y-12128500D02*
G75*
G03*
X11594500Y-12128500I37500J0D01*
G01*
X12737500Y-12291500D02*
G75*
G03*
X12662500Y-12291500I-37500J0D01*
G01*
X12662500Y-12291500D02*
G75*
G03*
X12737500Y-12291500I37500J0D01*
G01*
X12864500Y-12291500D02*
G75*
G03*
X12789500Y-12291500I-37500J0D01*
G01*
X12789500Y-12291500D02*
G75*
G03*
X12864500Y-12291500I37500J0D01*
G01*
X12991500Y-12291500D02*
G75*
G03*
X12916500Y-12291500I-37500J0D01*
G01*
X12916500Y-12291500D02*
G75*
G03*
X12991500Y-12291500I37500J0D01*
G01*
X13908000Y-9461500D02*
G75*
G03*
X13833000Y-9461500I-37500J0D01*
G01*
X13833000Y-9461500D02*
G75*
G03*
X13908000Y-9461500I37500J0D01*
G01*
X13908000Y-9588500D02*
G75*
G03*
X13833000Y-9588500I-37500J0D01*
G01*
X13833000Y-9588500D02*
G75*
G03*
X13908000Y-9588500I37500J0D01*
G01*
X13908000Y-9715500D02*
G75*
G03*
X13833000Y-9715500I-37500J0D01*
G01*
X13833000Y-9715500D02*
G75*
G03*
X13908000Y-9715500I37500J0D01*
G01*
X14551500Y-13970000D02*
G75*
G03*
X14476500Y-13970000I-37500J0D01*
G01*
X14476500Y-13970000D02*
G75*
G03*
X14551500Y-13970000I37500J0D01*
G01*
X14551500Y-14097000D02*
G75*
G03*
X14476500Y-14097000I-37500J0D01*
G01*
X14476500Y-14097000D02*
G75*
G03*
X14551500Y-14097000I37500J0D01*
G01*
X14551500Y-14224000D02*
G75*
G03*
X14476500Y-14224000I-37500J0D01*
G01*
X14476500Y-14224000D02*
G75*
G03*
X14551500Y-14224000I37500J0D01*
G01*
X14579000Y-13081000D02*
G75*
G03*
X14504000Y-13081000I-37500J0D01*
G01*
X14504000Y-13081000D02*
G75*
G03*
X14579000Y-13081000I37500J0D01*
G01*
X14579000Y-13208000D02*
G75*
G03*
X14504000Y-13208000I-37500J0D01*
G01*
X14504000Y-13208000D02*
G75*
G03*
X14579000Y-13208000I37500J0D01*
G01*
X14579000Y-13335000D02*
G75*
G03*
X14504000Y-13335000I-37500J0D01*
G01*
X14504000Y-13335000D02*
G75*
G03*
X14579000Y-13335000I37500J0D01*
G01*
X16484000Y-10096500D02*
G75*
G03*
X16409000Y-10096500I-37500J0D01*
G01*
X16409000Y-10096500D02*
G75*
G03*
X16484000Y-10096500I37500J0D01*
G01*
X16611000Y-10096500D02*
G75*
G03*
X16536000Y-10096500I-37500J0D01*
G01*
X16536000Y-10096500D02*
G75*
G03*
X16611000Y-10096500I37500J0D01*
G01*
X16738000Y-10096500D02*
G75*
G03*
X16663000Y-10096500I-37500J0D01*
G01*
X16663000Y-10096500D02*
G75*
G03*
X16738000Y-10096500I37500J0D01*
G01*
X12446000Y-9548500D02*
X12446000Y-9628500D01*
X12406000Y-9588500D02*
X12486000Y-9588500D01*
X10188285Y-10001785D02*
X10188285Y-9945216D01*
X10131716Y-9945216D01*
X10131716Y-10001785D01*
X10188285Y-10001785D01*
X10188285Y-10501785D02*
X10188285Y-10445216D01*
X10131716Y-10445216D01*
X10131716Y-10501785D01*
X10188285Y-10501785D01*
X11204284Y-11204284D02*
X11204284Y-11147716D01*
X11147716Y-11147716D01*
X11147716Y-11204284D01*
X11204284Y-11204284D01*
X11204284Y-11458284D02*
X11204284Y-11401715D01*
X11147716Y-11401715D01*
X11147716Y-11458284D01*
X11204284Y-11458284D01*
X11267784Y-10696285D02*
X11267784Y-10639716D01*
X11211215Y-10639716D01*
X11211215Y-10696285D01*
X11267784Y-10696285D01*
X11290284Y-10251785D02*
X11290284Y-10195216D01*
X11233715Y-10195216D01*
X11233715Y-10251785D01*
X11290284Y-10251785D01*
X11331284Y-12791784D02*
X11331284Y-12735215D01*
X11274715Y-12735215D01*
X11274715Y-12791784D01*
X11331284Y-12791784D01*
X11521784Y-10696285D02*
X11521784Y-10639716D01*
X11465215Y-10639716D01*
X11465215Y-10696285D01*
X11521784Y-10696285D01*
X11544284Y-10251785D02*
X11544284Y-10195216D01*
X11487715Y-10195216D01*
X11487715Y-10251785D01*
X11544284Y-10251785D01*
X11585284Y-12791784D02*
X11585284Y-12735215D01*
X11528715Y-12735215D01*
X11528715Y-12791784D01*
X11585284Y-12791784D01*
X11901284Y-10187785D02*
X11901284Y-10131216D01*
X11844715Y-10131216D01*
X11844715Y-10187785D01*
X11901284Y-10187785D01*
X11901284Y-10441785D02*
X11901284Y-10385216D01*
X11844715Y-10385216D01*
X11844715Y-10441785D01*
X11901284Y-10441785D01*
X11901284Y-10695785D02*
X11901284Y-10639216D01*
X11844715Y-10639216D01*
X11844715Y-10695785D01*
X11901284Y-10695785D01*
X11901284Y-10949785D02*
X11901284Y-10893216D01*
X11844715Y-10893216D01*
X11844715Y-10949785D01*
X11901284Y-10949785D01*
X11901284Y-11203784D02*
X11901284Y-11147216D01*
X11844715Y-11147216D01*
X11844715Y-11203784D01*
X11901284Y-11203784D01*
X11901284Y-11457784D02*
X11901284Y-11401215D01*
X11844715Y-11401215D01*
X11844715Y-11457784D01*
X11901284Y-11457784D01*
X11901284Y-11711784D02*
X11901284Y-11655215D01*
X11844715Y-11655215D01*
X11844715Y-11711784D01*
X11901284Y-11711784D01*
X11966284Y-12347284D02*
X11966284Y-12290715D01*
X11909715Y-12290715D01*
X11909715Y-12347284D01*
X11966284Y-12347284D01*
X12220284Y-12347284D02*
X12220284Y-12290715D01*
X12163715Y-12290715D01*
X12163715Y-12347284D01*
X12220284Y-12347284D01*
X12663284Y-10187785D02*
X12663284Y-10131216D01*
X12606715Y-10131216D01*
X12606715Y-10187785D01*
X12663284Y-10187785D01*
X12663284Y-10441785D02*
X12663284Y-10385216D01*
X12606715Y-10385216D01*
X12606715Y-10441785D01*
X12663284Y-10441785D01*
X12663284Y-10695785D02*
X12663284Y-10639216D01*
X12606715Y-10639216D01*
X12606715Y-10695785D01*
X12663284Y-10695785D01*
X12663284Y-10949785D02*
X12663284Y-10893216D01*
X12606715Y-10893216D01*
X12606715Y-10949785D01*
X12663284Y-10949785D01*
X12663284Y-11203784D02*
X12663284Y-11147216D01*
X12606715Y-11147216D01*
X12606715Y-11203784D01*
X12663284Y-11203784D01*
X12663284Y-11457784D02*
X12663284Y-11401215D01*
X12606715Y-11401215D01*
X12606715Y-11457784D01*
X12663284Y-11457784D01*
X12663284Y-11711784D02*
X12663284Y-11655215D01*
X12606715Y-11655215D01*
X12606715Y-11711784D01*
X12663284Y-11711784D01*
X12687284Y-8854785D02*
X12687284Y-8798216D01*
X12630715Y-8798216D01*
X12630715Y-8854785D01*
X12687284Y-8854785D01*
X12941284Y-8854785D02*
X12941284Y-8798216D01*
X12884715Y-8798216D01*
X12884715Y-8854785D01*
X12941284Y-8854785D01*
X13004784Y-9362785D02*
X13004784Y-9306216D01*
X12948215Y-9306216D01*
X12948215Y-9362785D01*
X13004784Y-9362785D01*
X13258784Y-9362785D02*
X13258784Y-9306216D01*
X13202215Y-9306216D01*
X13202215Y-9362785D01*
X13258784Y-9362785D01*
X13299784Y-12474284D02*
X13299784Y-12417715D01*
X13243215Y-12417715D01*
X13243215Y-12474284D01*
X13299784Y-12474284D01*
X13363284Y-14188784D02*
X13363284Y-14132215D01*
X13306715Y-14132215D01*
X13306715Y-14188784D01*
X13363284Y-14188784D01*
X13553784Y-12474284D02*
X13553784Y-12417715D01*
X13497215Y-12417715D01*
X13497215Y-12474284D01*
X13553784Y-12474284D01*
X13617284Y-14188784D02*
X13617284Y-14132215D01*
X13560715Y-14132215D01*
X13560715Y-14188784D01*
X13617284Y-14188784D01*
X14950784Y-9743785D02*
X14950784Y-9687216D01*
X14894215Y-9687216D01*
X14894215Y-9743785D01*
X14950784Y-9743785D01*
X15036784Y-12728284D02*
X15036784Y-12671715D01*
X14980215Y-12671715D01*
X14980215Y-12728284D01*
X15036784Y-12728284D01*
X15141284Y-13363284D02*
X15141284Y-13306715D01*
X15084715Y-13306715D01*
X15084715Y-13363284D01*
X15141284Y-13363284D01*
X15141284Y-14252284D02*
X15141284Y-14195715D01*
X15084715Y-14195715D01*
X15084715Y-14252284D01*
X15141284Y-14252284D01*
X15204784Y-9743785D02*
X15204784Y-9687216D01*
X15148215Y-9687216D01*
X15148215Y-9743785D01*
X15204784Y-9743785D01*
X15290784Y-12728284D02*
X15290784Y-12671715D01*
X15234215Y-12671715D01*
X15234215Y-12728284D01*
X15290784Y-12728284D01*
X15395284Y-13363284D02*
X15395284Y-13306715D01*
X15338715Y-13306715D01*
X15338715Y-13363284D01*
X15395284Y-13363284D01*
X15395284Y-14252284D02*
X15395284Y-14195715D01*
X15338715Y-14195715D01*
X15338715Y-14252284D01*
X15395284Y-14252284D01*
X15522284Y-9086285D02*
X15522284Y-9029716D01*
X15465715Y-9029716D01*
X15465715Y-9086285D01*
X15522284Y-9086285D01*
X15522284Y-9340285D02*
X15522284Y-9283716D01*
X15465715Y-9283716D01*
X15465715Y-9340285D01*
X15522284Y-9340285D01*
X15608284Y-10061285D02*
X15608284Y-10004716D01*
X15551715Y-10004716D01*
X15551715Y-10061285D01*
X15608284Y-10061285D01*
X15862284Y-10061285D02*
X15862284Y-10004716D01*
X15805715Y-10004716D01*
X15805715Y-10061285D01*
X15862284Y-10061285D01*
X17109785Y-9403785D02*
X17109785Y-9347216D01*
X17053216Y-9347216D01*
X17053216Y-9403785D01*
X17109785Y-9403785D01*
X17109785Y-9657785D02*
X17109785Y-9601216D01*
X17053216Y-9601216D01*
X17053216Y-9657785D01*
X17109785Y-9657785D01*
X17722285Y-9680285D02*
X17722285Y-9623716D01*
X17665716Y-9623716D01*
X17665716Y-9680285D01*
X17722285Y-9680285D01*
X17976285Y-9680285D02*
X17976285Y-9623716D01*
X17919716Y-9623716D01*
X17919716Y-9680285D01*
X17976285Y-9680285D01*
X18570285Y-12609284D02*
X18570285Y-12552715D01*
X18513716Y-12552715D01*
X18513716Y-12609284D01*
X18570285Y-12609284D01*
X18570285Y-13109284D02*
X18570285Y-13052715D01*
X18513716Y-13052715D01*
X18513716Y-13109284D01*
X18570285Y-13109284D01*
X9779000Y-10081500D02*
X9829000Y-10031500D01*
X9779000Y-9981500D01*
X9729000Y-10031500D01*
X9779000Y-10081500D01*
X9779000Y-10335500D02*
X9829000Y-10285500D01*
X9779000Y-10235500D01*
X9729000Y-10285500D01*
X9779000Y-10335500D01*
X9779000Y-10589500D02*
X9829000Y-10539500D01*
X9779000Y-10489500D01*
X9729000Y-10539500D01*
X9779000Y-10589500D01*
X9906000Y-11484000D02*
X9956000Y-11434000D01*
X9906000Y-11384000D01*
X9856000Y-11434000D01*
X9906000Y-11484000D01*
X9906000Y-11734000D02*
X9956000Y-11684000D01*
X9906000Y-11634000D01*
X9856000Y-11684000D01*
X9906000Y-11734000D01*
X10350500Y-11543500D02*
X10400500Y-11493500D01*
X10350500Y-11443500D01*
X10300500Y-11493500D01*
X10350500Y-11543500D01*
X10350500Y-11797500D02*
X10400500Y-11747500D01*
X10350500Y-11697500D01*
X10300500Y-11747500D01*
X10350500Y-11797500D01*
X12573000Y-13004000D02*
X12623000Y-12954000D01*
X12573000Y-12904000D01*
X12523000Y-12954000D01*
X12573000Y-13004000D01*
X12573000Y-13258000D02*
X12623000Y-13208000D01*
X12573000Y-13158000D01*
X12523000Y-13208000D01*
X12573000Y-13258000D01*
X12573000Y-13512000D02*
X12623000Y-13462000D01*
X12573000Y-13412000D01*
X12523000Y-13462000D01*
X12573000Y-13512000D01*
X12954000Y-7487500D02*
X13004000Y-7437500D01*
X12954000Y-7387500D01*
X12904000Y-7437500D01*
X12954000Y-7487500D01*
X12954000Y-7987500D02*
X13004000Y-7937500D01*
X12954000Y-7887500D01*
X12904000Y-7937500D01*
X12954000Y-7987500D01*
X13779500Y-13002500D02*
X13829500Y-12952500D01*
X13779500Y-12902500D01*
X13729500Y-12952500D01*
X13779500Y-13002500D01*
X13779500Y-13256500D02*
X13829500Y-13206500D01*
X13779500Y-13156500D01*
X13729500Y-13206500D01*
X13779500Y-13256500D01*
X13779500Y-13510500D02*
X13829500Y-13460500D01*
X13779500Y-13410500D01*
X13729500Y-13460500D01*
X13779500Y-13510500D01*
X14033500Y-11687732D02*
X14083500Y-11637732D01*
X14033500Y-11587732D01*
X13983500Y-11637732D01*
X14033500Y-11687732D01*
X14033500Y-12187732D02*
X14083500Y-12137732D01*
X14033500Y-12087732D01*
X13983500Y-12137732D01*
X14033500Y-12187732D01*
X14486000Y-10781500D02*
X14536000Y-10731500D01*
X14486000Y-10681500D01*
X14436000Y-10731500D01*
X14486000Y-10781500D01*
X14986000Y-10781500D02*
X15036000Y-10731500D01*
X14986000Y-10681500D01*
X14936000Y-10731500D01*
X14986000Y-10781500D01*
X16590732Y-11670500D02*
X16640732Y-11620500D01*
X16590732Y-11570500D01*
X16540732Y-11620500D01*
X16590732Y-11670500D01*
X17090732Y-11670500D02*
X17140732Y-11620500D01*
X17090732Y-11570500D01*
X17040732Y-11620500D01*
X17090732Y-11670500D01*
X18986500Y-9956000D02*
X19036500Y-9906000D01*
X18986500Y-9856000D01*
X18936500Y-9906000D01*
X18986500Y-9956000D01*
X18986500Y-10210000D02*
X19036500Y-10160000D01*
X18986500Y-10110000D01*
X18936500Y-10160000D01*
X18986500Y-10210000D01*
X18986500Y-10464000D02*
X19036500Y-10414000D01*
X18986500Y-10364000D01*
X18936500Y-10414000D01*
X18986500Y-10464000D01*
X18986500Y-10718000D02*
X19036500Y-10668000D01*
X18986500Y-10618000D01*
X18936500Y-10668000D01*
X18986500Y-10718000D01*
X18986500Y-10972000D02*
X19036500Y-10922000D01*
X18986500Y-10872000D01*
X18936500Y-10922000D01*
X18986500Y-10972000D01*
X18986500Y-11226000D02*
X19036500Y-11176000D01*
X18986500Y-11126000D01*
X18936500Y-11176000D01*
X18986500Y-11226000D01*
X18986500Y-11861000D02*
X19036500Y-11811000D01*
X18986500Y-11761000D01*
X18936500Y-11811000D01*
X18986500Y-11861000D01*
X18986500Y-12115000D02*
X19036500Y-12065000D01*
X18986500Y-12015000D01*
X18936500Y-12065000D01*
X18986500Y-12115000D01*
X18986500Y-12369000D02*
X19036500Y-12319000D01*
X18986500Y-12269000D01*
X18936500Y-12319000D01*
X18986500Y-12369000D01*
X18986500Y-12623000D02*
X19036500Y-12573000D01*
X18986500Y-12523000D01*
X18936500Y-12573000D01*
X18986500Y-12623000D01*
X18986500Y-12877000D02*
X19036500Y-12827000D01*
X18986500Y-12777000D01*
X18936500Y-12827000D01*
X18986500Y-12877000D01*
D12*
X9918500Y-12141000D02*
X10020500Y-12243000D01*
X10020500Y-12141000D02*
X9918500Y-12243000D01*
X10020500Y-12192000D02*
G75*
G03*
X9918500Y-12192000I-51000J0D01*
G01*
X9918500Y-12192000D02*
G75*
G03*
X10020500Y-12192000I51000J0D01*
G01*
X9918500Y-12395000D02*
X10020500Y-12497000D01*
X10020500Y-12395000D02*
X9918500Y-12497000D01*
X10020500Y-12446000D02*
G75*
G03*
X9918500Y-12446000I-51000J0D01*
G01*
X9918500Y-12446000D02*
G75*
G03*
X10020500Y-12446000I51000J0D01*
G01*
X9918500Y-12649000D02*
X10020500Y-12751000D01*
X10020500Y-12649000D02*
X9918500Y-12751000D01*
X10020500Y-12700000D02*
G75*
G03*
X9918500Y-12700000I-51000J0D01*
G01*
X9918500Y-12700000D02*
G75*
G03*
X10020500Y-12700000I51000J0D01*
G01*
X9918500Y-12903000D02*
X10020500Y-13005000D01*
X10020500Y-12903000D02*
X9918500Y-13005000D01*
X10020500Y-12954000D02*
G75*
G03*
X9918500Y-12954000I-51000J0D01*
G01*
X9918500Y-12954000D02*
G75*
G03*
X10020500Y-12954000I51000J0D01*
G01*
X9918500Y-13347500D02*
X10020500Y-13449500D01*
X10020500Y-13347500D02*
X9918500Y-13449500D01*
X10020500Y-13398500D02*
G75*
G03*
X9918500Y-13398500I-51000J0D01*
G01*
X9918500Y-13398500D02*
G75*
G03*
X10020500Y-13398500I51000J0D01*
G01*
X9918500Y-13601500D02*
X10020500Y-13703500D01*
X10020500Y-13601500D02*
X9918500Y-13703500D01*
X10020500Y-13652500D02*
G75*
G03*
X9918500Y-13652500I-51000J0D01*
G01*
X9918500Y-13652500D02*
G75*
G03*
X10020500Y-13652500I51000J0D01*
G01*
X9918500Y-13855500D02*
X10020500Y-13957500D01*
X10020500Y-13855500D02*
X9918500Y-13957500D01*
X10020500Y-13906500D02*
G75*
G03*
X9918500Y-13906500I-51000J0D01*
G01*
X9918500Y-13906500D02*
G75*
G03*
X10020500Y-13906500I51000J0D01*
G01*
X9918500Y-14109500D02*
X10020500Y-14211500D01*
X10020500Y-14109500D02*
X9918500Y-14211500D01*
X10020500Y-14160500D02*
G75*
G03*
X9918500Y-14160500I-51000J0D01*
G01*
X9918500Y-14160500D02*
G75*
G03*
X10020500Y-14160500I51000J0D01*
G01*
X10057000Y-4711500D02*
X10159000Y-4813500D01*
X10159000Y-4711500D02*
X10057000Y-4813500D01*
X10159000Y-4762500D02*
G75*
G03*
X10057000Y-4762500I-51000J0D01*
G01*
X10057000Y-4762500D02*
G75*
G03*
X10159000Y-4762500I51000J0D01*
G01*
X10057000Y-4965500D02*
X10159000Y-5067500D01*
X10159000Y-4965500D02*
X10057000Y-5067500D01*
X10159000Y-5016500D02*
G75*
G03*
X10057000Y-5016500I-51000J0D01*
G01*
X10057000Y-5016500D02*
G75*
G03*
X10159000Y-5016500I51000J0D01*
G01*
X10057000Y-5219500D02*
X10159000Y-5321500D01*
X10159000Y-5219500D02*
X10057000Y-5321500D01*
X10159000Y-5270500D02*
G75*
G03*
X10057000Y-5270500I-51000J0D01*
G01*
X10057000Y-5270500D02*
G75*
G03*
X10159000Y-5270500I51000J0D01*
G01*
X10057000Y-5473500D02*
X10159000Y-5575500D01*
X10159000Y-5473500D02*
X10057000Y-5575500D01*
X10159000Y-5524500D02*
G75*
G03*
X10057000Y-5524500I-51000J0D01*
G01*
X10057000Y-5524500D02*
G75*
G03*
X10159000Y-5524500I51000J0D01*
G01*
X10057000Y-5727500D02*
X10159000Y-5829500D01*
X10159000Y-5727500D02*
X10057000Y-5829500D01*
X10159000Y-5778500D02*
G75*
G03*
X10057000Y-5778500I-51000J0D01*
G01*
X10057000Y-5778500D02*
G75*
G03*
X10159000Y-5778500I51000J0D01*
G01*
X10057000Y-5981500D02*
X10159000Y-6083500D01*
X10159000Y-5981500D02*
X10057000Y-6083500D01*
X10159000Y-6032500D02*
G75*
G03*
X10057000Y-6032500I-51000J0D01*
G01*
X10057000Y-6032500D02*
G75*
G03*
X10159000Y-6032500I51000J0D01*
G01*
X10057000Y-6235500D02*
X10159000Y-6337500D01*
X10159000Y-6235500D02*
X10057000Y-6337500D01*
X10159000Y-6286500D02*
G75*
G03*
X10057000Y-6286500I-51000J0D01*
G01*
X10057000Y-6286500D02*
G75*
G03*
X10159000Y-6286500I51000J0D01*
G01*
X10057000Y-6489500D02*
X10159000Y-6591500D01*
X10159000Y-6489500D02*
X10057000Y-6591500D01*
X10159000Y-6540500D02*
G75*
G03*
X10057000Y-6540500I-51000J0D01*
G01*
X10057000Y-6540500D02*
G75*
G03*
X10159000Y-6540500I51000J0D01*
G01*
X10057000Y-6743500D02*
X10159000Y-6845500D01*
X10159000Y-6743500D02*
X10057000Y-6845500D01*
X10159000Y-6794500D02*
G75*
G03*
X10057000Y-6794500I-51000J0D01*
G01*
X10057000Y-6794500D02*
G75*
G03*
X10159000Y-6794500I51000J0D01*
G01*
X10057000Y-6997500D02*
X10159000Y-7099500D01*
X10159000Y-6997500D02*
X10057000Y-7099500D01*
X10159000Y-7048500D02*
G75*
G03*
X10057000Y-7048500I-51000J0D01*
G01*
X10057000Y-7048500D02*
G75*
G03*
X10159000Y-7048500I51000J0D01*
G01*
X10057000Y-7251500D02*
X10159000Y-7353500D01*
X10159000Y-7251500D02*
X10057000Y-7353500D01*
X10159000Y-7302500D02*
G75*
G03*
X10057000Y-7302500I-51000J0D01*
G01*
X10057000Y-7302500D02*
G75*
G03*
X10159000Y-7302500I51000J0D01*
G01*
X10057000Y-7505500D02*
X10159000Y-7607500D01*
X10159000Y-7505500D02*
X10057000Y-7607500D01*
X10159000Y-7556500D02*
G75*
G03*
X10057000Y-7556500I-51000J0D01*
G01*
X10057000Y-7556500D02*
G75*
G03*
X10159000Y-7556500I51000J0D01*
G01*
X10057000Y-7759500D02*
X10159000Y-7861500D01*
X10159000Y-7759500D02*
X10057000Y-7861500D01*
X10159000Y-7810500D02*
G75*
G03*
X10057000Y-7810500I-51000J0D01*
G01*
X10057000Y-7810500D02*
G75*
G03*
X10159000Y-7810500I51000J0D01*
G01*
X10057000Y-8013500D02*
X10159000Y-8115500D01*
X10159000Y-8013500D02*
X10057000Y-8115500D01*
X10159000Y-8064500D02*
G75*
G03*
X10057000Y-8064500I-51000J0D01*
G01*
X10057000Y-8064500D02*
G75*
G03*
X10159000Y-8064500I51000J0D01*
G01*
X10057000Y-8267500D02*
X10159000Y-8369500D01*
X10159000Y-8267500D02*
X10057000Y-8369500D01*
X10159000Y-8318500D02*
G75*
G03*
X10057000Y-8318500I-51000J0D01*
G01*
X10057000Y-8318500D02*
G75*
G03*
X10159000Y-8318500I51000J0D01*
G01*
X10057000Y-8521500D02*
X10159000Y-8623500D01*
X10159000Y-8521500D02*
X10057000Y-8623500D01*
X10159000Y-8572500D02*
G75*
G03*
X10057000Y-8572500I-51000J0D01*
G01*
X10057000Y-8572500D02*
G75*
G03*
X10159000Y-8572500I51000J0D01*
G01*
X10057000Y-8775500D02*
X10159000Y-8877500D01*
X10159000Y-8775500D02*
X10057000Y-8877500D01*
X10159000Y-8826500D02*
G75*
G03*
X10057000Y-8826500I-51000J0D01*
G01*
X10057000Y-8826500D02*
G75*
G03*
X10159000Y-8826500I51000J0D01*
G01*
X10057000Y-9029500D02*
X10159000Y-9131500D01*
X10159000Y-9029500D02*
X10057000Y-9131500D01*
X10159000Y-9080500D02*
G75*
G03*
X10057000Y-9080500I-51000J0D01*
G01*
X10057000Y-9080500D02*
G75*
G03*
X10159000Y-9080500I51000J0D01*
G01*
X10057000Y-9283500D02*
X10159000Y-9385500D01*
X10159000Y-9283500D02*
X10057000Y-9385500D01*
X10159000Y-9334500D02*
G75*
G03*
X10057000Y-9334500I-51000J0D01*
G01*
X10057000Y-9334500D02*
G75*
G03*
X10159000Y-9334500I51000J0D01*
G01*
X10057000Y-9537500D02*
X10159000Y-9639500D01*
X10159000Y-9537500D02*
X10057000Y-9639500D01*
X10159000Y-9588500D02*
G75*
G03*
X10057000Y-9588500I-51000J0D01*
G01*
X10057000Y-9588500D02*
G75*
G03*
X10159000Y-9588500I51000J0D01*
G01*
X10692000Y-9514500D02*
X10794000Y-9616500D01*
X10794000Y-9514500D02*
X10692000Y-9616500D01*
X10794000Y-9565500D02*
G75*
G03*
X10692000Y-9565500I-51000J0D01*
G01*
X10692000Y-9565500D02*
G75*
G03*
X10794000Y-9565500I51000J0D01*
G01*
X10946000Y-9514500D02*
X11048000Y-9616500D01*
X11048000Y-9514500D02*
X10946000Y-9616500D01*
X11048000Y-9565500D02*
G75*
G03*
X10946000Y-9565500I-51000J0D01*
G01*
X10946000Y-9565500D02*
G75*
G03*
X11048000Y-9565500I51000J0D01*
G01*
X11200000Y-9514500D02*
X11302000Y-9616500D01*
X11302000Y-9514500D02*
X11200000Y-9616500D01*
X11302000Y-9565500D02*
G75*
G03*
X11200000Y-9565500I-51000J0D01*
G01*
X11200000Y-9565500D02*
G75*
G03*
X11302000Y-9565500I51000J0D01*
G01*
X11835000Y-4711500D02*
X11937000Y-4813500D01*
X11937000Y-4711500D02*
X11835000Y-4813500D01*
X11937000Y-4762500D02*
G75*
G03*
X11835000Y-4762500I-51000J0D01*
G01*
X11835000Y-4762500D02*
G75*
G03*
X11937000Y-4762500I51000J0D01*
G01*
X11835000Y-4965500D02*
X11937000Y-5067500D01*
X11937000Y-4965500D02*
X11835000Y-5067500D01*
X11937000Y-5016500D02*
G75*
G03*
X11835000Y-5016500I-51000J0D01*
G01*
X11835000Y-5016500D02*
G75*
G03*
X11937000Y-5016500I51000J0D01*
G01*
X11835000Y-5219500D02*
X11937000Y-5321500D01*
X11937000Y-5219500D02*
X11835000Y-5321500D01*
X11937000Y-5270500D02*
G75*
G03*
X11835000Y-5270500I-51000J0D01*
G01*
X11835000Y-5270500D02*
G75*
G03*
X11937000Y-5270500I51000J0D01*
G01*
X11835000Y-5473500D02*
X11937000Y-5575500D01*
X11937000Y-5473500D02*
X11835000Y-5575500D01*
X11937000Y-5524500D02*
G75*
G03*
X11835000Y-5524500I-51000J0D01*
G01*
X11835000Y-5524500D02*
G75*
G03*
X11937000Y-5524500I51000J0D01*
G01*
X11835000Y-5727500D02*
X11937000Y-5829500D01*
X11937000Y-5727500D02*
X11835000Y-5829500D01*
X11937000Y-5778500D02*
G75*
G03*
X11835000Y-5778500I-51000J0D01*
G01*
X11835000Y-5778500D02*
G75*
G03*
X11937000Y-5778500I51000J0D01*
G01*
X11835000Y-5981500D02*
X11937000Y-6083500D01*
X11937000Y-5981500D02*
X11835000Y-6083500D01*
X11937000Y-6032500D02*
G75*
G03*
X11835000Y-6032500I-51000J0D01*
G01*
X11835000Y-6032500D02*
G75*
G03*
X11937000Y-6032500I51000J0D01*
G01*
X11835000Y-6235500D02*
X11937000Y-6337500D01*
X11937000Y-6235500D02*
X11835000Y-6337500D01*
X11937000Y-6286500D02*
G75*
G03*
X11835000Y-6286500I-51000J0D01*
G01*
X11835000Y-6286500D02*
G75*
G03*
X11937000Y-6286500I51000J0D01*
G01*
X11835000Y-6489500D02*
X11937000Y-6591500D01*
X11937000Y-6489500D02*
X11835000Y-6591500D01*
X11937000Y-6540500D02*
G75*
G03*
X11835000Y-6540500I-51000J0D01*
G01*
X11835000Y-6540500D02*
G75*
G03*
X11937000Y-6540500I51000J0D01*
G01*
X11835000Y-6743500D02*
X11937000Y-6845500D01*
X11937000Y-6743500D02*
X11835000Y-6845500D01*
X11937000Y-6794500D02*
G75*
G03*
X11835000Y-6794500I-51000J0D01*
G01*
X11835000Y-6794500D02*
G75*
G03*
X11937000Y-6794500I51000J0D01*
G01*
X11835000Y-6997500D02*
X11937000Y-7099500D01*
X11937000Y-6997500D02*
X11835000Y-7099500D01*
X11937000Y-7048500D02*
G75*
G03*
X11835000Y-7048500I-51000J0D01*
G01*
X11835000Y-7048500D02*
G75*
G03*
X11937000Y-7048500I51000J0D01*
G01*
X11835000Y-7251500D02*
X11937000Y-7353500D01*
X11937000Y-7251500D02*
X11835000Y-7353500D01*
X11937000Y-7302500D02*
G75*
G03*
X11835000Y-7302500I-51000J0D01*
G01*
X11835000Y-7302500D02*
G75*
G03*
X11937000Y-7302500I51000J0D01*
G01*
X11835000Y-7505500D02*
X11937000Y-7607500D01*
X11937000Y-7505500D02*
X11835000Y-7607500D01*
X11937000Y-7556500D02*
G75*
G03*
X11835000Y-7556500I-51000J0D01*
G01*
X11835000Y-7556500D02*
G75*
G03*
X11937000Y-7556500I51000J0D01*
G01*
X11835000Y-7759500D02*
X11937000Y-7861500D01*
X11937000Y-7759500D02*
X11835000Y-7861500D01*
X11937000Y-7810500D02*
G75*
G03*
X11835000Y-7810500I-51000J0D01*
G01*
X11835000Y-7810500D02*
G75*
G03*
X11937000Y-7810500I51000J0D01*
G01*
X11835000Y-8013500D02*
X11937000Y-8115500D01*
X11937000Y-8013500D02*
X11835000Y-8115500D01*
X11937000Y-8064500D02*
G75*
G03*
X11835000Y-8064500I-51000J0D01*
G01*
X11835000Y-8064500D02*
G75*
G03*
X11937000Y-8064500I51000J0D01*
G01*
X11835000Y-8267500D02*
X11937000Y-8369500D01*
X11937000Y-8267500D02*
X11835000Y-8369500D01*
X11937000Y-8318500D02*
G75*
G03*
X11835000Y-8318500I-51000J0D01*
G01*
X11835000Y-8318500D02*
G75*
G03*
X11937000Y-8318500I51000J0D01*
G01*
X11835000Y-8521500D02*
X11937000Y-8623500D01*
X11937000Y-8521500D02*
X11835000Y-8623500D01*
X11937000Y-8572500D02*
G75*
G03*
X11835000Y-8572500I-51000J0D01*
G01*
X11835000Y-8572500D02*
G75*
G03*
X11937000Y-8572500I51000J0D01*
G01*
X11835000Y-8775500D02*
X11937000Y-8877500D01*
X11937000Y-8775500D02*
X11835000Y-8877500D01*
X11937000Y-8826500D02*
G75*
G03*
X11835000Y-8826500I-51000J0D01*
G01*
X11835000Y-8826500D02*
G75*
G03*
X11937000Y-8826500I51000J0D01*
G01*
X11835000Y-9029500D02*
X11937000Y-9131500D01*
X11937000Y-9029500D02*
X11835000Y-9131500D01*
X11937000Y-9080500D02*
G75*
G03*
X11835000Y-9080500I-51000J0D01*
G01*
X11835000Y-9080500D02*
G75*
G03*
X11937000Y-9080500I51000J0D01*
G01*
X11835000Y-9283500D02*
X11937000Y-9385500D01*
X11937000Y-9283500D02*
X11835000Y-9385500D01*
X11937000Y-9334500D02*
G75*
G03*
X11835000Y-9334500I-51000J0D01*
G01*
X11835000Y-9334500D02*
G75*
G03*
X11937000Y-9334500I51000J0D01*
G01*
X11835000Y-9537500D02*
X11937000Y-9639500D01*
X11937000Y-9537500D02*
X11835000Y-9639500D01*
X11937000Y-9588500D02*
G75*
G03*
X11835000Y-9588500I-51000J0D01*
G01*
X11835000Y-9588500D02*
G75*
G03*
X11937000Y-9588500I51000J0D01*
G01*
D13*
X10676500Y-11057500D02*
X10786500Y-11167500D01*
X10786500Y-11057500D02*
X10676500Y-11167500D01*
X10731500Y-11057500D02*
X10731500Y-11167500D01*
X10676500Y-11112500D02*
X10786500Y-11112500D01*
X10676500Y-12073500D02*
X10786500Y-12183500D01*
X10786500Y-12073500D02*
X10676500Y-12183500D01*
X10731500Y-12073500D02*
X10731500Y-12183500D01*
X10676500Y-12128500D02*
X10786500Y-12128500D01*
X13280000Y-10836000D02*
X13390000Y-10946000D01*
X13390000Y-10836000D02*
X13280000Y-10946000D01*
X13335000Y-10836000D02*
X13335000Y-10946000D01*
X13280000Y-10891000D02*
X13390000Y-10891000D01*
X13534000Y-10836000D02*
X13644000Y-10946000D01*
X13644000Y-10836000D02*
X13534000Y-10946000D01*
X13589000Y-10836000D02*
X13589000Y-10946000D01*
X13534000Y-10891000D02*
X13644000Y-10891000D01*
X13788000Y-10836000D02*
X13898000Y-10946000D01*
X13898000Y-10836000D02*
X13788000Y-10946000D01*
X13843000Y-10836000D02*
X13843000Y-10946000D01*
X13788000Y-10891000D02*
X13898000Y-10891000D01*
X14232500Y-8898500D02*
X14342500Y-9008500D01*
X14342500Y-8898500D02*
X14232500Y-9008500D01*
X14287500Y-8898500D02*
X14287500Y-9008500D01*
X14232500Y-8953500D02*
X14342500Y-8953500D01*
X14486500Y-8898500D02*
X14596500Y-9008500D01*
X14596500Y-8898500D02*
X14486500Y-9008500D01*
X14541500Y-8898500D02*
X14541500Y-9008500D01*
X14486500Y-8953500D02*
X14596500Y-8953500D01*
X14700000Y-7083000D02*
X14810000Y-7193000D01*
X14810000Y-7083000D02*
X14700000Y-7193000D01*
X14755000Y-7083000D02*
X14755000Y-7193000D01*
X14700000Y-7138000D02*
X14810000Y-7138000D01*
X14740500Y-8898500D02*
X14850500Y-9008500D01*
X14850500Y-8898500D02*
X14740500Y-9008500D01*
X14795500Y-8898500D02*
X14795500Y-9008500D01*
X14740500Y-8953500D02*
X14850500Y-8953500D01*
X15716000Y-7083000D02*
X15826000Y-7193000D01*
X15826000Y-7083000D02*
X15716000Y-7193000D01*
X15771000Y-7083000D02*
X15771000Y-7193000D01*
X15716000Y-7138000D02*
X15826000Y-7138000D01*
X16010500Y-12581500D02*
X16120500Y-12691500D01*
X16120500Y-12581500D02*
X16010500Y-12691500D01*
X16065500Y-12581500D02*
X16065500Y-12691500D01*
X16010500Y-12636500D02*
X16120500Y-12636500D01*
X16010500Y-13597500D02*
X16120500Y-13707500D01*
X16120500Y-13597500D02*
X16010500Y-13707500D01*
X16065500Y-13597500D02*
X16065500Y-13707500D01*
X16010500Y-13652500D02*
X16120500Y-13652500D01*
X16041500Y-11311500D02*
X16151500Y-11421500D01*
X16151500Y-11311500D02*
X16041500Y-11421500D01*
X16096500Y-11311500D02*
X16096500Y-11421500D01*
X16041500Y-11366500D02*
X16151500Y-11366500D01*
X16041500Y-11565500D02*
X16151500Y-11675500D01*
X16151500Y-11565500D02*
X16041500Y-11675500D01*
X16096500Y-11565500D02*
X16096500Y-11675500D01*
X16041500Y-11620500D02*
X16151500Y-11620500D01*
X16041500Y-11819500D02*
X16151500Y-11929500D01*
X16151500Y-11819500D02*
X16041500Y-11929500D01*
X16096500Y-11819500D02*
X16096500Y-11929500D01*
X16041500Y-11874500D02*
X16151500Y-11874500D01*
X17026500Y-8802500D02*
X17136500Y-8912500D01*
X17136500Y-8802500D02*
X17026500Y-8912500D01*
X17081500Y-8802500D02*
X17081500Y-8912500D01*
X17026500Y-8857500D02*
X17136500Y-8857500D01*
X17280500Y-8802500D02*
X17390500Y-8912500D01*
X17390500Y-8802500D02*
X17280500Y-8912500D01*
X17335500Y-8802500D02*
X17335500Y-8912500D01*
X17280500Y-8857500D02*
X17390500Y-8857500D01*
X17494000Y-7083000D02*
X17604000Y-7193000D01*
X17604000Y-7083000D02*
X17494000Y-7193000D01*
X17549000Y-7083000D02*
X17549000Y-7193000D01*
X17494000Y-7138000D02*
X17604000Y-7138000D01*
X17534500Y-8802500D02*
X17644500Y-8912500D01*
X17644500Y-8802500D02*
X17534500Y-8912500D01*
X17589500Y-8802500D02*
X17589500Y-8912500D01*
X17534500Y-8857500D02*
X17644500Y-8857500D01*
X18510000Y-7083000D02*
X18620000Y-7193000D01*
X18620000Y-7083000D02*
X18510000Y-7193000D01*
X18565000Y-7083000D02*
X18565000Y-7193000D01*
X18510000Y-7138000D02*
X18620000Y-7138000D01*
D14*
X14461500Y-8048000D02*
X14621500Y-8208000D01*
X14621500Y-8048000D02*
X14461500Y-8208000D01*
X14598069Y-8184569D02*
X14598069Y-8071431D01*
X14484931Y-8071431D01*
X14484931Y-8184569D01*
X14598069Y-8184569D01*
X15985500Y-8048000D02*
X16145500Y-8208000D01*
X16145500Y-8048000D02*
X15985500Y-8208000D01*
X16122069Y-8184569D02*
X16122069Y-8071431D01*
X16008931Y-8071431D01*
X16008931Y-8184569D01*
X16122069Y-8184569D01*
X17255500Y-8048000D02*
X17415500Y-8208000D01*
X17415500Y-8048000D02*
X17255500Y-8208000D01*
X17392069Y-8184569D02*
X17392069Y-8071431D01*
X17278931Y-8071431D01*
X17278931Y-8184569D01*
X17392069Y-8184569D01*
X18779500Y-8048000D02*
X18939500Y-8208000D01*
X18939500Y-8048000D02*
X18779500Y-8208000D01*
X18916069Y-8184569D02*
X18916069Y-8071431D01*
X18802931Y-8071431D01*
X18802931Y-8184569D01*
X18916069Y-8184569D01*
D15*
X12615000Y-5643000D02*
X12785000Y-5813000D01*
X12785000Y-5643000D02*
X12615000Y-5813000D01*
X12700000Y-5813000D02*
X12785000Y-5728000D01*
X12700000Y-5643000D01*
X12615000Y-5728000D01*
X12700000Y-5813000D01*
X13250000Y-6593000D02*
X13420000Y-6763000D01*
X13420000Y-6593000D02*
X13250000Y-6763000D01*
X13335000Y-6763000D02*
X13420000Y-6678000D01*
X13335000Y-6593000D01*
X13250000Y-6678000D01*
X13335000Y-6763000D01*
D16*
X14374000Y-5763000D02*
X14374000Y-5973000D01*
X14269000Y-5868000D02*
X14479000Y-5868000D01*
X14479000Y-5868000D02*
G75*
G03*
X14269000Y-5868000I-105000J0D01*
G01*
X14269000Y-5868000D02*
G75*
G03*
X14479000Y-5868000I105000J0D01*
G01*
X16152000Y-4747000D02*
X16152000Y-4957000D01*
X16047000Y-4852000D02*
X16257000Y-4852000D01*
X16257000Y-4852000D02*
G75*
G03*
X16047000Y-4852000I-105000J0D01*
G01*
X16047000Y-4852000D02*
G75*
G03*
X16257000Y-4852000I105000J0D01*
G01*
X16152000Y-5509000D02*
X16152000Y-5719000D01*
X16047000Y-5614000D02*
X16257000Y-5614000D01*
X16257000Y-5614000D02*
G75*
G03*
X16047000Y-5614000I-105000J0D01*
G01*
X16047000Y-5614000D02*
G75*
G03*
X16257000Y-5614000I105000J0D01*
G01*
X17168000Y-5763000D02*
X17168000Y-5973000D01*
X17063000Y-5868000D02*
X17273000Y-5868000D01*
X17273000Y-5868000D02*
G75*
G03*
X17063000Y-5868000I-105000J0D01*
G01*
X17063000Y-5868000D02*
G75*
G03*
X17273000Y-5868000I105000J0D01*
G01*
X18946000Y-4747000D02*
X18946000Y-4957000D01*
X18841000Y-4852000D02*
X19051000Y-4852000D01*
X19051000Y-4852000D02*
G75*
G03*
X18841000Y-4852000I-105000J0D01*
G01*
X18841000Y-4852000D02*
G75*
G03*
X19051000Y-4852000I105000J0D01*
G01*
X18946000Y-5509000D02*
X18946000Y-5719000D01*
X18841000Y-5614000D02*
X19051000Y-5614000D01*
X19051000Y-5614000D02*
G75*
G03*
X18841000Y-5614000I-105000J0D01*
G01*
X18841000Y-5614000D02*
G75*
G03*
X19051000Y-5614000I105000J0D01*
G01*
D17*
X9638138Y-4748638D02*
X9638138Y-4522362D01*
X9411862Y-4522362D01*
X9411862Y-4748638D01*
X9638138Y-4748638D01*
X9685000Y-4635500D02*
G75*
G03*
X9365000Y-4635500I-160000J0D01*
G01*
X9365000Y-4635500D02*
G75*
G03*
X9685000Y-4635500I160000J0D01*
G01*
X9638138Y-14781638D02*
X9638138Y-14555362D01*
X9411862Y-14555362D01*
X9411862Y-14781638D01*
X9638138Y-14781638D01*
X9685000Y-14668500D02*
G75*
G03*
X9365000Y-14668500I-160000J0D01*
G01*
X9365000Y-14668500D02*
G75*
G03*
X9685000Y-14668500I160000J0D01*
G01*
X19671138Y-4748638D02*
X19671138Y-4522362D01*
X19444862Y-4522362D01*
X19444862Y-4748638D01*
X19671138Y-4748638D01*
X19718000Y-4635500D02*
G75*
G03*
X19398000Y-4635500I-160000J0D01*
G01*
X19398000Y-4635500D02*
G75*
G03*
X19718000Y-4635500I160000J0D01*
G01*
X19671138Y-14781638D02*
X19671138Y-14555362D01*
X19444862Y-14555362D01*
X19444862Y-14781638D01*
X19671138Y-14781638D01*
X19718000Y-14668500D02*
G75*
G03*
X19398000Y-14668500I-160000J0D01*
G01*
X19398000Y-14668500D02*
G75*
G03*
X19718000Y-14668500I160000J0D01*
G01*
D11*
X9717277Y-15048484D02*
X9717277Y-14848484D01*
X9717277Y-14848484D02*
X9764896Y-14848484D01*
X9764896Y-14848484D02*
X9793467Y-14858008D01*
X9793467Y-14858008D02*
X9812515Y-14877055D01*
X9812515Y-14877055D02*
X9822039Y-14896103D01*
X9822039Y-14896103D02*
X9831563Y-14934198D01*
X9831563Y-14934198D02*
X9831563Y-14962769D01*
X9831563Y-14962769D02*
X9822039Y-15000865D01*
X9822039Y-15000865D02*
X9812515Y-15019912D01*
X9812515Y-15019912D02*
X9793467Y-15038960D01*
X9793467Y-15038960D02*
X9764896Y-15048484D01*
X9764896Y-15048484D02*
X9717277Y-15048484D01*
X9917277Y-15048484D02*
X9917277Y-14915150D01*
X9917277Y-14953246D02*
X9926801Y-14934198D01*
X9926801Y-14934198D02*
X9936324Y-14924674D01*
X9936324Y-14924674D02*
X9955372Y-14915150D01*
X9955372Y-14915150D02*
X9974420Y-14915150D01*
X10041086Y-15048484D02*
X10041086Y-14915150D01*
X10041086Y-14848484D02*
X10031563Y-14858008D01*
X10031563Y-14858008D02*
X10041086Y-14867531D01*
X10041086Y-14867531D02*
X10050610Y-14858008D01*
X10050610Y-14858008D02*
X10041086Y-14848484D01*
X10041086Y-14848484D02*
X10041086Y-14867531D01*
X10164896Y-15048484D02*
X10145848Y-15038960D01*
X10145848Y-15038960D02*
X10136324Y-15019912D01*
X10136324Y-15019912D02*
X10136324Y-14848484D01*
X10269658Y-15048484D02*
X10250610Y-15038960D01*
X10250610Y-15038960D02*
X10241086Y-15019912D01*
X10241086Y-15019912D02*
X10241086Y-14848484D01*
X10498229Y-15048484D02*
X10498229Y-14848484D01*
X10498229Y-14848484D02*
X10564896Y-14991341D01*
X10564896Y-14991341D02*
X10631563Y-14848484D01*
X10631563Y-14848484D02*
X10631563Y-15048484D01*
X10812515Y-15048484D02*
X10812515Y-14943722D01*
X10812515Y-14943722D02*
X10802991Y-14924674D01*
X10802991Y-14924674D02*
X10783944Y-14915150D01*
X10783944Y-14915150D02*
X10745848Y-14915150D01*
X10745848Y-14915150D02*
X10726801Y-14924674D01*
X10812515Y-15038960D02*
X10793467Y-15048484D01*
X10793467Y-15048484D02*
X10745848Y-15048484D01*
X10745848Y-15048484D02*
X10726801Y-15038960D01*
X10726801Y-15038960D02*
X10717277Y-15019912D01*
X10717277Y-15019912D02*
X10717277Y-15000865D01*
X10717277Y-15000865D02*
X10726801Y-14981817D01*
X10726801Y-14981817D02*
X10745848Y-14972293D01*
X10745848Y-14972293D02*
X10793467Y-14972293D01*
X10793467Y-14972293D02*
X10812515Y-14962769D01*
X10907753Y-14915150D02*
X10907753Y-15115150D01*
X10907753Y-14924674D02*
X10926801Y-14915150D01*
X10926801Y-14915150D02*
X10964896Y-14915150D01*
X10964896Y-14915150D02*
X10983944Y-14924674D01*
X10983944Y-14924674D02*
X10993467Y-14934198D01*
X10993467Y-14934198D02*
X11002991Y-14953246D01*
X11002991Y-14953246D02*
X11002991Y-15010388D01*
X11002991Y-15010388D02*
X10993467Y-15029436D01*
X10993467Y-15029436D02*
X10983944Y-15038960D01*
X10983944Y-15038960D02*
X10964896Y-15048484D01*
X10964896Y-15048484D02*
X10926801Y-15048484D01*
X10926801Y-15048484D02*
X10907753Y-15038960D01*
X11088705Y-15029436D02*
X11098229Y-15038960D01*
X11098229Y-15038960D02*
X11088705Y-15048484D01*
X11088705Y-15048484D02*
X11079182Y-15038960D01*
X11079182Y-15038960D02*
X11088705Y-15029436D01*
X11088705Y-15029436D02*
X11088705Y-15048484D01*
X11088705Y-14924674D02*
X11098229Y-14934198D01*
X11098229Y-14934198D02*
X11088705Y-14943722D01*
X11088705Y-14943722D02*
X11079182Y-14934198D01*
X11079182Y-14934198D02*
X11088705Y-14924674D01*
X11088705Y-14924674D02*
X11088705Y-14943722D01*
D10*
X9416500Y-15357000D02*
X9456500Y-15397000D01*
X9456500Y-15357000D02*
X9416500Y-15397000D01*
D11*
X9755372Y-15268484D02*
X9774420Y-15268484D01*
X9774420Y-15268484D02*
X9793467Y-15278008D01*
X9793467Y-15278008D02*
X9802991Y-15287531D01*
X9802991Y-15287531D02*
X9812515Y-15306579D01*
X9812515Y-15306579D02*
X9822039Y-15344674D01*
X9822039Y-15344674D02*
X9822039Y-15392293D01*
X9822039Y-15392293D02*
X9812515Y-15430388D01*
X9812515Y-15430388D02*
X9802991Y-15449436D01*
X9802991Y-15449436D02*
X9793467Y-15458960D01*
X9793467Y-15458960D02*
X9774420Y-15468484D01*
X9774420Y-15468484D02*
X9755372Y-15468484D01*
X9755372Y-15468484D02*
X9736324Y-15458960D01*
X9736324Y-15458960D02*
X9726801Y-15449436D01*
X9726801Y-15449436D02*
X9717277Y-15430388D01*
X9717277Y-15430388D02*
X9707753Y-15392293D01*
X9707753Y-15392293D02*
X9707753Y-15344674D01*
X9707753Y-15344674D02*
X9717277Y-15306579D01*
X9717277Y-15306579D02*
X9726801Y-15287531D01*
X9726801Y-15287531D02*
X9736324Y-15278008D01*
X9736324Y-15278008D02*
X9755372Y-15268484D01*
X9907753Y-15449436D02*
X9917277Y-15458960D01*
X9917277Y-15458960D02*
X9907753Y-15468484D01*
X9907753Y-15468484D02*
X9898229Y-15458960D01*
X9898229Y-15458960D02*
X9907753Y-15449436D01*
X9907753Y-15449436D02*
X9907753Y-15468484D01*
X10088705Y-15335150D02*
X10088705Y-15468484D01*
X10041086Y-15258960D02*
X9993467Y-15401817D01*
X9993467Y-15401817D02*
X10117277Y-15401817D01*
X10231563Y-15268484D02*
X10250610Y-15268484D01*
X10250610Y-15268484D02*
X10269658Y-15278008D01*
X10269658Y-15278008D02*
X10279182Y-15287531D01*
X10279182Y-15287531D02*
X10288705Y-15306579D01*
X10288705Y-15306579D02*
X10298229Y-15344674D01*
X10298229Y-15344674D02*
X10298229Y-15392293D01*
X10298229Y-15392293D02*
X10288705Y-15430388D01*
X10288705Y-15430388D02*
X10279182Y-15449436D01*
X10279182Y-15449436D02*
X10269658Y-15458960D01*
X10269658Y-15458960D02*
X10250610Y-15468484D01*
X10250610Y-15468484D02*
X10231563Y-15468484D01*
X10231563Y-15468484D02*
X10212515Y-15458960D01*
X10212515Y-15458960D02*
X10202991Y-15449436D01*
X10202991Y-15449436D02*
X10193467Y-15430388D01*
X10193467Y-15430388D02*
X10183944Y-15392293D01*
X10183944Y-15392293D02*
X10183944Y-15344674D01*
X10183944Y-15344674D02*
X10193467Y-15306579D01*
X10193467Y-15306579D02*
X10202991Y-15287531D01*
X10202991Y-15287531D02*
X10212515Y-15278008D01*
X10212515Y-15278008D02*
X10231563Y-15268484D01*
X10422039Y-15268484D02*
X10441086Y-15268484D01*
X10441086Y-15268484D02*
X10460134Y-15278008D01*
X10460134Y-15278008D02*
X10469658Y-15287531D01*
X10469658Y-15287531D02*
X10479182Y-15306579D01*
X10479182Y-15306579D02*
X10488705Y-15344674D01*
X10488705Y-15344674D02*
X10488705Y-15392293D01*
X10488705Y-15392293D02*
X10479182Y-15430388D01*
X10479182Y-15430388D02*
X10469658Y-15449436D01*
X10469658Y-15449436D02*
X10460134Y-15458960D01*
X10460134Y-15458960D02*
X10441086Y-15468484D01*
X10441086Y-15468484D02*
X10422039Y-15468484D01*
X10422039Y-15468484D02*
X10402991Y-15458960D01*
X10402991Y-15458960D02*
X10393467Y-15449436D01*
X10393467Y-15449436D02*
X10383944Y-15430388D01*
X10383944Y-15430388D02*
X10374420Y-15392293D01*
X10374420Y-15392293D02*
X10374420Y-15344674D01*
X10374420Y-15344674D02*
X10383944Y-15306579D01*
X10383944Y-15306579D02*
X10393467Y-15287531D01*
X10393467Y-15287531D02*
X10402991Y-15278008D01*
X10402991Y-15278008D02*
X10422039Y-15268484D01*
X10574420Y-15468484D02*
X10574420Y-15335150D01*
X10574420Y-15354198D02*
X10583944Y-15344674D01*
X10583944Y-15344674D02*
X10602991Y-15335150D01*
X10602991Y-15335150D02*
X10631563Y-15335150D01*
X10631563Y-15335150D02*
X10650610Y-15344674D01*
X10650610Y-15344674D02*
X10660134Y-15363722D01*
X10660134Y-15363722D02*
X10660134Y-15468484D01*
X10660134Y-15363722D02*
X10669658Y-15344674D01*
X10669658Y-15344674D02*
X10688705Y-15335150D01*
X10688705Y-15335150D02*
X10717277Y-15335150D01*
X10717277Y-15335150D02*
X10736325Y-15344674D01*
X10736325Y-15344674D02*
X10745848Y-15363722D01*
X10745848Y-15363722D02*
X10745848Y-15468484D01*
X10841086Y-15468484D02*
X10841086Y-15335150D01*
X10841086Y-15354198D02*
X10850610Y-15344674D01*
X10850610Y-15344674D02*
X10869658Y-15335150D01*
X10869658Y-15335150D02*
X10898229Y-15335150D01*
X10898229Y-15335150D02*
X10917277Y-15344674D01*
X10917277Y-15344674D02*
X10926801Y-15363722D01*
X10926801Y-15363722D02*
X10926801Y-15468484D01*
X10926801Y-15363722D02*
X10936325Y-15344674D01*
X10936325Y-15344674D02*
X10955372Y-15335150D01*
X10955372Y-15335150D02*
X10983944Y-15335150D01*
X10983944Y-15335150D02*
X11002991Y-15344674D01*
X11002991Y-15344674D02*
X11012515Y-15363722D01*
X11012515Y-15363722D02*
X11012515Y-15468484D01*
X11402991Y-15258960D02*
X11231563Y-15516103D01*
X11660134Y-15268484D02*
X11679182Y-15268484D01*
X11679182Y-15268484D02*
X11698229Y-15278008D01*
X11698229Y-15278008D02*
X11707753Y-15287531D01*
X11707753Y-15287531D02*
X11717277Y-15306579D01*
X11717277Y-15306579D02*
X11726801Y-15344674D01*
X11726801Y-15344674D02*
X11726801Y-15392293D01*
X11726801Y-15392293D02*
X11717277Y-15430388D01*
X11717277Y-15430388D02*
X11707753Y-15449436D01*
X11707753Y-15449436D02*
X11698229Y-15458960D01*
X11698229Y-15458960D02*
X11679182Y-15468484D01*
X11679182Y-15468484D02*
X11660134Y-15468484D01*
X11660134Y-15468484D02*
X11641086Y-15458960D01*
X11641086Y-15458960D02*
X11631563Y-15449436D01*
X11631563Y-15449436D02*
X11622039Y-15430388D01*
X11622039Y-15430388D02*
X11612515Y-15392293D01*
X11612515Y-15392293D02*
X11612515Y-15344674D01*
X11612515Y-15344674D02*
X11622039Y-15306579D01*
X11622039Y-15306579D02*
X11631563Y-15287531D01*
X11631563Y-15287531D02*
X11641086Y-15278008D01*
X11641086Y-15278008D02*
X11660134Y-15268484D01*
X11812515Y-15449436D02*
X11822039Y-15458960D01*
X11822039Y-15458960D02*
X11812515Y-15468484D01*
X11812515Y-15468484D02*
X11802991Y-15458960D01*
X11802991Y-15458960D02*
X11812515Y-15449436D01*
X11812515Y-15449436D02*
X11812515Y-15468484D01*
X11945848Y-15268484D02*
X11964896Y-15268484D01*
X11964896Y-15268484D02*
X11983944Y-15278008D01*
X11983944Y-15278008D02*
X11993467Y-15287531D01*
X11993467Y-15287531D02*
X12002991Y-15306579D01*
X12002991Y-15306579D02*
X12012515Y-15344674D01*
X12012515Y-15344674D02*
X12012515Y-15392293D01*
X12012515Y-15392293D02*
X12002991Y-15430388D01*
X12002991Y-15430388D02*
X11993467Y-15449436D01*
X11993467Y-15449436D02*
X11983944Y-15458960D01*
X11983944Y-15458960D02*
X11964896Y-15468484D01*
X11964896Y-15468484D02*
X11945848Y-15468484D01*
X11945848Y-15468484D02*
X11926801Y-15458960D01*
X11926801Y-15458960D02*
X11917277Y-15449436D01*
X11917277Y-15449436D02*
X11907753Y-15430388D01*
X11907753Y-15430388D02*
X11898229Y-15392293D01*
X11898229Y-15392293D02*
X11898229Y-15344674D01*
X11898229Y-15344674D02*
X11907753Y-15306579D01*
X11907753Y-15306579D02*
X11917277Y-15287531D01*
X11917277Y-15287531D02*
X11926801Y-15278008D01*
X11926801Y-15278008D02*
X11945848Y-15268484D01*
X12202991Y-15468484D02*
X12088706Y-15468484D01*
X12145848Y-15468484D02*
X12145848Y-15268484D01*
X12145848Y-15268484D02*
X12126801Y-15297055D01*
X12126801Y-15297055D02*
X12107753Y-15316103D01*
X12107753Y-15316103D02*
X12088706Y-15325627D01*
X12383944Y-15268484D02*
X12288706Y-15268484D01*
X12288706Y-15268484D02*
X12279182Y-15363722D01*
X12279182Y-15363722D02*
X12288706Y-15354198D01*
X12288706Y-15354198D02*
X12307753Y-15344674D01*
X12307753Y-15344674D02*
X12355372Y-15344674D01*
X12355372Y-15344674D02*
X12374420Y-15354198D01*
X12374420Y-15354198D02*
X12383944Y-15363722D01*
X12383944Y-15363722D02*
X12393467Y-15382769D01*
X12393467Y-15382769D02*
X12393467Y-15430388D01*
X12393467Y-15430388D02*
X12383944Y-15449436D01*
X12383944Y-15449436D02*
X12374420Y-15458960D01*
X12374420Y-15458960D02*
X12355372Y-15468484D01*
X12355372Y-15468484D02*
X12307753Y-15468484D01*
X12307753Y-15468484D02*
X12288706Y-15458960D01*
X12288706Y-15458960D02*
X12279182Y-15449436D01*
X12460134Y-15268484D02*
X12593467Y-15268484D01*
X12593467Y-15268484D02*
X12507753Y-15468484D01*
X12660134Y-15268484D02*
X12660134Y-15306579D01*
X12736325Y-15268484D02*
X12736325Y-15306579D01*
X13031563Y-15544674D02*
X13022039Y-15535150D01*
X13022039Y-15535150D02*
X13002991Y-15506579D01*
X13002991Y-15506579D02*
X12993468Y-15487531D01*
X12993468Y-15487531D02*
X12983944Y-15458960D01*
X12983944Y-15458960D02*
X12974420Y-15411341D01*
X12974420Y-15411341D02*
X12974420Y-15373246D01*
X12974420Y-15373246D02*
X12983944Y-15325627D01*
X12983944Y-15325627D02*
X12993468Y-15297055D01*
X12993468Y-15297055D02*
X13002991Y-15278008D01*
X13002991Y-15278008D02*
X13022039Y-15249436D01*
X13022039Y-15249436D02*
X13031563Y-15239912D01*
X13202991Y-15268484D02*
X13107753Y-15268484D01*
X13107753Y-15268484D02*
X13098229Y-15363722D01*
X13098229Y-15363722D02*
X13107753Y-15354198D01*
X13107753Y-15354198D02*
X13126801Y-15344674D01*
X13126801Y-15344674D02*
X13174420Y-15344674D01*
X13174420Y-15344674D02*
X13193468Y-15354198D01*
X13193468Y-15354198D02*
X13202991Y-15363722D01*
X13202991Y-15363722D02*
X13212515Y-15382769D01*
X13212515Y-15382769D02*
X13212515Y-15430388D01*
X13212515Y-15430388D02*
X13202991Y-15449436D01*
X13202991Y-15449436D02*
X13193468Y-15458960D01*
X13193468Y-15458960D02*
X13174420Y-15468484D01*
X13174420Y-15468484D02*
X13126801Y-15468484D01*
X13126801Y-15468484D02*
X13107753Y-15458960D01*
X13107753Y-15458960D02*
X13098229Y-15449436D01*
X13450610Y-15468484D02*
X13450610Y-15268484D01*
X13536325Y-15468484D02*
X13536325Y-15363722D01*
X13536325Y-15363722D02*
X13526801Y-15344674D01*
X13526801Y-15344674D02*
X13507753Y-15335150D01*
X13507753Y-15335150D02*
X13479182Y-15335150D01*
X13479182Y-15335150D02*
X13460134Y-15344674D01*
X13460134Y-15344674D02*
X13450610Y-15354198D01*
X13660134Y-15468484D02*
X13641087Y-15458960D01*
X13641087Y-15458960D02*
X13631563Y-15449436D01*
X13631563Y-15449436D02*
X13622039Y-15430388D01*
X13622039Y-15430388D02*
X13622039Y-15373246D01*
X13622039Y-15373246D02*
X13631563Y-15354198D01*
X13631563Y-15354198D02*
X13641087Y-15344674D01*
X13641087Y-15344674D02*
X13660134Y-15335150D01*
X13660134Y-15335150D02*
X13688706Y-15335150D01*
X13688706Y-15335150D02*
X13707753Y-15344674D01*
X13707753Y-15344674D02*
X13717277Y-15354198D01*
X13717277Y-15354198D02*
X13726801Y-15373246D01*
X13726801Y-15373246D02*
X13726801Y-15430388D01*
X13726801Y-15430388D02*
X13717277Y-15449436D01*
X13717277Y-15449436D02*
X13707753Y-15458960D01*
X13707753Y-15458960D02*
X13688706Y-15468484D01*
X13688706Y-15468484D02*
X13660134Y-15468484D01*
X13841087Y-15468484D02*
X13822039Y-15458960D01*
X13822039Y-15458960D02*
X13812515Y-15439912D01*
X13812515Y-15439912D02*
X13812515Y-15268484D01*
X13993468Y-15458960D02*
X13974420Y-15468484D01*
X13974420Y-15468484D02*
X13936325Y-15468484D01*
X13936325Y-15468484D02*
X13917277Y-15458960D01*
X13917277Y-15458960D02*
X13907753Y-15439912D01*
X13907753Y-15439912D02*
X13907753Y-15363722D01*
X13907753Y-15363722D02*
X13917277Y-15344674D01*
X13917277Y-15344674D02*
X13936325Y-15335150D01*
X13936325Y-15335150D02*
X13974420Y-15335150D01*
X13974420Y-15335150D02*
X13993468Y-15344674D01*
X13993468Y-15344674D02*
X14002991Y-15363722D01*
X14002991Y-15363722D02*
X14002991Y-15382769D01*
X14002991Y-15382769D02*
X13907753Y-15401817D01*
X14079182Y-15458960D02*
X14098230Y-15468484D01*
X14098230Y-15468484D02*
X14136325Y-15468484D01*
X14136325Y-15468484D02*
X14155372Y-15458960D01*
X14155372Y-15458960D02*
X14164896Y-15439912D01*
X14164896Y-15439912D02*
X14164896Y-15430388D01*
X14164896Y-15430388D02*
X14155372Y-15411341D01*
X14155372Y-15411341D02*
X14136325Y-15401817D01*
X14136325Y-15401817D02*
X14107753Y-15401817D01*
X14107753Y-15401817D02*
X14088706Y-15392293D01*
X14088706Y-15392293D02*
X14079182Y-15373246D01*
X14079182Y-15373246D02*
X14079182Y-15363722D01*
X14079182Y-15363722D02*
X14088706Y-15344674D01*
X14088706Y-15344674D02*
X14107753Y-15335150D01*
X14107753Y-15335150D02*
X14136325Y-15335150D01*
X14136325Y-15335150D02*
X14155372Y-15344674D01*
X14231563Y-15544674D02*
X14241087Y-15535150D01*
X14241087Y-15535150D02*
X14260134Y-15506579D01*
X14260134Y-15506579D02*
X14269658Y-15487531D01*
X14269658Y-15487531D02*
X14279182Y-15458960D01*
X14279182Y-15458960D02*
X14288706Y-15411341D01*
X14288706Y-15411341D02*
X14288706Y-15373246D01*
X14288706Y-15373246D02*
X14279182Y-15325627D01*
X14279182Y-15325627D02*
X14269658Y-15297055D01*
X14269658Y-15297055D02*
X14260134Y-15278008D01*
X14260134Y-15278008D02*
X14241087Y-15249436D01*
X14241087Y-15249436D02*
X14231563Y-15239912D01*
D10*
X9456500Y-15641000D02*
G75*
G03*
X9381500Y-15641000I-37500J0D01*
G01*
X9381500Y-15641000D02*
G75*
G03*
X9456500Y-15641000I37500J0D01*
G01*
D11*
X9755372Y-15532484D02*
X9774420Y-15532484D01*
X9774420Y-15532484D02*
X9793467Y-15542008D01*
X9793467Y-15542008D02*
X9802991Y-15551531D01*
X9802991Y-15551531D02*
X9812515Y-15570579D01*
X9812515Y-15570579D02*
X9822039Y-15608674D01*
X9822039Y-15608674D02*
X9822039Y-15656293D01*
X9822039Y-15656293D02*
X9812515Y-15694388D01*
X9812515Y-15694388D02*
X9802991Y-15713436D01*
X9802991Y-15713436D02*
X9793467Y-15722960D01*
X9793467Y-15722960D02*
X9774420Y-15732484D01*
X9774420Y-15732484D02*
X9755372Y-15732484D01*
X9755372Y-15732484D02*
X9736324Y-15722960D01*
X9736324Y-15722960D02*
X9726801Y-15713436D01*
X9726801Y-15713436D02*
X9717277Y-15694388D01*
X9717277Y-15694388D02*
X9707753Y-15656293D01*
X9707753Y-15656293D02*
X9707753Y-15608674D01*
X9707753Y-15608674D02*
X9717277Y-15570579D01*
X9717277Y-15570579D02*
X9726801Y-15551531D01*
X9726801Y-15551531D02*
X9736324Y-15542008D01*
X9736324Y-15542008D02*
X9755372Y-15532484D01*
X9907753Y-15713436D02*
X9917277Y-15722960D01*
X9917277Y-15722960D02*
X9907753Y-15732484D01*
X9907753Y-15732484D02*
X9898229Y-15722960D01*
X9898229Y-15722960D02*
X9907753Y-15713436D01*
X9907753Y-15713436D02*
X9907753Y-15732484D01*
X9983944Y-15532484D02*
X10117277Y-15532484D01*
X10117277Y-15532484D02*
X10031563Y-15732484D01*
X10288705Y-15532484D02*
X10193467Y-15532484D01*
X10193467Y-15532484D02*
X10183944Y-15627722D01*
X10183944Y-15627722D02*
X10193467Y-15618198D01*
X10193467Y-15618198D02*
X10212515Y-15608674D01*
X10212515Y-15608674D02*
X10260134Y-15608674D01*
X10260134Y-15608674D02*
X10279182Y-15618198D01*
X10279182Y-15618198D02*
X10288705Y-15627722D01*
X10288705Y-15627722D02*
X10298229Y-15646769D01*
X10298229Y-15646769D02*
X10298229Y-15694388D01*
X10298229Y-15694388D02*
X10288705Y-15713436D01*
X10288705Y-15713436D02*
X10279182Y-15722960D01*
X10279182Y-15722960D02*
X10260134Y-15732484D01*
X10260134Y-15732484D02*
X10212515Y-15732484D01*
X10212515Y-15732484D02*
X10193467Y-15722960D01*
X10193467Y-15722960D02*
X10183944Y-15713436D01*
X10422039Y-15532484D02*
X10441086Y-15532484D01*
X10441086Y-15532484D02*
X10460134Y-15542008D01*
X10460134Y-15542008D02*
X10469658Y-15551531D01*
X10469658Y-15551531D02*
X10479182Y-15570579D01*
X10479182Y-15570579D02*
X10488705Y-15608674D01*
X10488705Y-15608674D02*
X10488705Y-15656293D01*
X10488705Y-15656293D02*
X10479182Y-15694388D01*
X10479182Y-15694388D02*
X10469658Y-15713436D01*
X10469658Y-15713436D02*
X10460134Y-15722960D01*
X10460134Y-15722960D02*
X10441086Y-15732484D01*
X10441086Y-15732484D02*
X10422039Y-15732484D01*
X10422039Y-15732484D02*
X10402991Y-15722960D01*
X10402991Y-15722960D02*
X10393467Y-15713436D01*
X10393467Y-15713436D02*
X10383944Y-15694388D01*
X10383944Y-15694388D02*
X10374420Y-15656293D01*
X10374420Y-15656293D02*
X10374420Y-15608674D01*
X10374420Y-15608674D02*
X10383944Y-15570579D01*
X10383944Y-15570579D02*
X10393467Y-15551531D01*
X10393467Y-15551531D02*
X10402991Y-15542008D01*
X10402991Y-15542008D02*
X10422039Y-15532484D01*
X10574420Y-15732484D02*
X10574420Y-15599150D01*
X10574420Y-15618198D02*
X10583944Y-15608674D01*
X10583944Y-15608674D02*
X10602991Y-15599150D01*
X10602991Y-15599150D02*
X10631563Y-15599150D01*
X10631563Y-15599150D02*
X10650610Y-15608674D01*
X10650610Y-15608674D02*
X10660134Y-15627722D01*
X10660134Y-15627722D02*
X10660134Y-15732484D01*
X10660134Y-15627722D02*
X10669658Y-15608674D01*
X10669658Y-15608674D02*
X10688705Y-15599150D01*
X10688705Y-15599150D02*
X10717277Y-15599150D01*
X10717277Y-15599150D02*
X10736325Y-15608674D01*
X10736325Y-15608674D02*
X10745848Y-15627722D01*
X10745848Y-15627722D02*
X10745848Y-15732484D01*
X10841086Y-15732484D02*
X10841086Y-15599150D01*
X10841086Y-15618198D02*
X10850610Y-15608674D01*
X10850610Y-15608674D02*
X10869658Y-15599150D01*
X10869658Y-15599150D02*
X10898229Y-15599150D01*
X10898229Y-15599150D02*
X10917277Y-15608674D01*
X10917277Y-15608674D02*
X10926801Y-15627722D01*
X10926801Y-15627722D02*
X10926801Y-15732484D01*
X10926801Y-15627722D02*
X10936325Y-15608674D01*
X10936325Y-15608674D02*
X10955372Y-15599150D01*
X10955372Y-15599150D02*
X10983944Y-15599150D01*
X10983944Y-15599150D02*
X11002991Y-15608674D01*
X11002991Y-15608674D02*
X11012515Y-15627722D01*
X11012515Y-15627722D02*
X11012515Y-15732484D01*
X11402991Y-15522960D02*
X11231563Y-15780103D01*
X11660134Y-15532484D02*
X11679182Y-15532484D01*
X11679182Y-15532484D02*
X11698229Y-15542008D01*
X11698229Y-15542008D02*
X11707753Y-15551531D01*
X11707753Y-15551531D02*
X11717277Y-15570579D01*
X11717277Y-15570579D02*
X11726801Y-15608674D01*
X11726801Y-15608674D02*
X11726801Y-15656293D01*
X11726801Y-15656293D02*
X11717277Y-15694388D01*
X11717277Y-15694388D02*
X11707753Y-15713436D01*
X11707753Y-15713436D02*
X11698229Y-15722960D01*
X11698229Y-15722960D02*
X11679182Y-15732484D01*
X11679182Y-15732484D02*
X11660134Y-15732484D01*
X11660134Y-15732484D02*
X11641086Y-15722960D01*
X11641086Y-15722960D02*
X11631563Y-15713436D01*
X11631563Y-15713436D02*
X11622039Y-15694388D01*
X11622039Y-15694388D02*
X11612515Y-15656293D01*
X11612515Y-15656293D02*
X11612515Y-15608674D01*
X11612515Y-15608674D02*
X11622039Y-15570579D01*
X11622039Y-15570579D02*
X11631563Y-15551531D01*
X11631563Y-15551531D02*
X11641086Y-15542008D01*
X11641086Y-15542008D02*
X11660134Y-15532484D01*
X11812515Y-15713436D02*
X11822039Y-15722960D01*
X11822039Y-15722960D02*
X11812515Y-15732484D01*
X11812515Y-15732484D02*
X11802991Y-15722960D01*
X11802991Y-15722960D02*
X11812515Y-15713436D01*
X11812515Y-15713436D02*
X11812515Y-15732484D01*
X11945848Y-15532484D02*
X11964896Y-15532484D01*
X11964896Y-15532484D02*
X11983944Y-15542008D01*
X11983944Y-15542008D02*
X11993467Y-15551531D01*
X11993467Y-15551531D02*
X12002991Y-15570579D01*
X12002991Y-15570579D02*
X12012515Y-15608674D01*
X12012515Y-15608674D02*
X12012515Y-15656293D01*
X12012515Y-15656293D02*
X12002991Y-15694388D01*
X12002991Y-15694388D02*
X11993467Y-15713436D01*
X11993467Y-15713436D02*
X11983944Y-15722960D01*
X11983944Y-15722960D02*
X11964896Y-15732484D01*
X11964896Y-15732484D02*
X11945848Y-15732484D01*
X11945848Y-15732484D02*
X11926801Y-15722960D01*
X11926801Y-15722960D02*
X11917277Y-15713436D01*
X11917277Y-15713436D02*
X11907753Y-15694388D01*
X11907753Y-15694388D02*
X11898229Y-15656293D01*
X11898229Y-15656293D02*
X11898229Y-15608674D01*
X11898229Y-15608674D02*
X11907753Y-15570579D01*
X11907753Y-15570579D02*
X11917277Y-15551531D01*
X11917277Y-15551531D02*
X11926801Y-15542008D01*
X11926801Y-15542008D02*
X11945848Y-15532484D01*
X12088706Y-15551531D02*
X12098229Y-15542008D01*
X12098229Y-15542008D02*
X12117277Y-15532484D01*
X12117277Y-15532484D02*
X12164896Y-15532484D01*
X12164896Y-15532484D02*
X12183944Y-15542008D01*
X12183944Y-15542008D02*
X12193467Y-15551531D01*
X12193467Y-15551531D02*
X12202991Y-15570579D01*
X12202991Y-15570579D02*
X12202991Y-15589627D01*
X12202991Y-15589627D02*
X12193467Y-15618198D01*
X12193467Y-15618198D02*
X12079182Y-15732484D01*
X12079182Y-15732484D02*
X12202991Y-15732484D01*
X12298229Y-15732484D02*
X12336325Y-15732484D01*
X12336325Y-15732484D02*
X12355372Y-15722960D01*
X12355372Y-15722960D02*
X12364896Y-15713436D01*
X12364896Y-15713436D02*
X12383944Y-15684865D01*
X12383944Y-15684865D02*
X12393467Y-15646769D01*
X12393467Y-15646769D02*
X12393467Y-15570579D01*
X12393467Y-15570579D02*
X12383944Y-15551531D01*
X12383944Y-15551531D02*
X12374420Y-15542008D01*
X12374420Y-15542008D02*
X12355372Y-15532484D01*
X12355372Y-15532484D02*
X12317277Y-15532484D01*
X12317277Y-15532484D02*
X12298229Y-15542008D01*
X12298229Y-15542008D02*
X12288706Y-15551531D01*
X12288706Y-15551531D02*
X12279182Y-15570579D01*
X12279182Y-15570579D02*
X12279182Y-15618198D01*
X12279182Y-15618198D02*
X12288706Y-15637246D01*
X12288706Y-15637246D02*
X12298229Y-15646769D01*
X12298229Y-15646769D02*
X12317277Y-15656293D01*
X12317277Y-15656293D02*
X12355372Y-15656293D01*
X12355372Y-15656293D02*
X12374420Y-15646769D01*
X12374420Y-15646769D02*
X12383944Y-15637246D01*
X12383944Y-15637246D02*
X12393467Y-15618198D01*
X12574420Y-15532484D02*
X12479182Y-15532484D01*
X12479182Y-15532484D02*
X12469658Y-15627722D01*
X12469658Y-15627722D02*
X12479182Y-15618198D01*
X12479182Y-15618198D02*
X12498229Y-15608674D01*
X12498229Y-15608674D02*
X12545848Y-15608674D01*
X12545848Y-15608674D02*
X12564896Y-15618198D01*
X12564896Y-15618198D02*
X12574420Y-15627722D01*
X12574420Y-15627722D02*
X12583944Y-15646769D01*
X12583944Y-15646769D02*
X12583944Y-15694388D01*
X12583944Y-15694388D02*
X12574420Y-15713436D01*
X12574420Y-15713436D02*
X12564896Y-15722960D01*
X12564896Y-15722960D02*
X12545848Y-15732484D01*
X12545848Y-15732484D02*
X12498229Y-15732484D01*
X12498229Y-15732484D02*
X12479182Y-15722960D01*
X12479182Y-15722960D02*
X12469658Y-15713436D01*
X12660134Y-15532484D02*
X12660134Y-15570579D01*
X12736325Y-15532484D02*
X12736325Y-15570579D01*
X13031563Y-15808674D02*
X13022039Y-15799150D01*
X13022039Y-15799150D02*
X13002991Y-15770579D01*
X13002991Y-15770579D02*
X12993468Y-15751531D01*
X12993468Y-15751531D02*
X12983944Y-15722960D01*
X12983944Y-15722960D02*
X12974420Y-15675341D01*
X12974420Y-15675341D02*
X12974420Y-15637246D01*
X12974420Y-15637246D02*
X12983944Y-15589627D01*
X12983944Y-15589627D02*
X12993468Y-15561055D01*
X12993468Y-15561055D02*
X13002991Y-15542008D01*
X13002991Y-15542008D02*
X13022039Y-15513436D01*
X13022039Y-15513436D02*
X13031563Y-15503912D01*
X13212515Y-15732484D02*
X13098229Y-15732484D01*
X13155372Y-15732484D02*
X13155372Y-15532484D01*
X13155372Y-15532484D02*
X13136325Y-15561055D01*
X13136325Y-15561055D02*
X13117277Y-15580103D01*
X13117277Y-15580103D02*
X13098229Y-15589627D01*
X13326801Y-15618198D02*
X13307753Y-15608674D01*
X13307753Y-15608674D02*
X13298229Y-15599150D01*
X13298229Y-15599150D02*
X13288706Y-15580103D01*
X13288706Y-15580103D02*
X13288706Y-15570579D01*
X13288706Y-15570579D02*
X13298229Y-15551531D01*
X13298229Y-15551531D02*
X13307753Y-15542008D01*
X13307753Y-15542008D02*
X13326801Y-15532484D01*
X13326801Y-15532484D02*
X13364896Y-15532484D01*
X13364896Y-15532484D02*
X13383944Y-15542008D01*
X13383944Y-15542008D02*
X13393468Y-15551531D01*
X13393468Y-15551531D02*
X13402991Y-15570579D01*
X13402991Y-15570579D02*
X13402991Y-15580103D01*
X13402991Y-15580103D02*
X13393468Y-15599150D01*
X13393468Y-15599150D02*
X13383944Y-15608674D01*
X13383944Y-15608674D02*
X13364896Y-15618198D01*
X13364896Y-15618198D02*
X13326801Y-15618198D01*
X13326801Y-15618198D02*
X13307753Y-15627722D01*
X13307753Y-15627722D02*
X13298229Y-15637246D01*
X13298229Y-15637246D02*
X13288706Y-15656293D01*
X13288706Y-15656293D02*
X13288706Y-15694388D01*
X13288706Y-15694388D02*
X13298229Y-15713436D01*
X13298229Y-15713436D02*
X13307753Y-15722960D01*
X13307753Y-15722960D02*
X13326801Y-15732484D01*
X13326801Y-15732484D02*
X13364896Y-15732484D01*
X13364896Y-15732484D02*
X13383944Y-15722960D01*
X13383944Y-15722960D02*
X13393468Y-15713436D01*
X13393468Y-15713436D02*
X13402991Y-15694388D01*
X13402991Y-15694388D02*
X13402991Y-15656293D01*
X13402991Y-15656293D02*
X13393468Y-15637246D01*
X13393468Y-15637246D02*
X13383944Y-15627722D01*
X13383944Y-15627722D02*
X13364896Y-15618198D01*
X13641087Y-15732484D02*
X13641087Y-15532484D01*
X13726801Y-15732484D02*
X13726801Y-15627722D01*
X13726801Y-15627722D02*
X13717277Y-15608674D01*
X13717277Y-15608674D02*
X13698230Y-15599150D01*
X13698230Y-15599150D02*
X13669658Y-15599150D01*
X13669658Y-15599150D02*
X13650610Y-15608674D01*
X13650610Y-15608674D02*
X13641087Y-15618198D01*
X13850610Y-15732484D02*
X13831563Y-15722960D01*
X13831563Y-15722960D02*
X13822039Y-15713436D01*
X13822039Y-15713436D02*
X13812515Y-15694388D01*
X13812515Y-15694388D02*
X13812515Y-15637246D01*
X13812515Y-15637246D02*
X13822039Y-15618198D01*
X13822039Y-15618198D02*
X13831563Y-15608674D01*
X13831563Y-15608674D02*
X13850610Y-15599150D01*
X13850610Y-15599150D02*
X13879182Y-15599150D01*
X13879182Y-15599150D02*
X13898230Y-15608674D01*
X13898230Y-15608674D02*
X13907753Y-15618198D01*
X13907753Y-15618198D02*
X13917277Y-15637246D01*
X13917277Y-15637246D02*
X13917277Y-15694388D01*
X13917277Y-15694388D02*
X13907753Y-15713436D01*
X13907753Y-15713436D02*
X13898230Y-15722960D01*
X13898230Y-15722960D02*
X13879182Y-15732484D01*
X13879182Y-15732484D02*
X13850610Y-15732484D01*
X14031563Y-15732484D02*
X14012515Y-15722960D01*
X14012515Y-15722960D02*
X14002991Y-15703912D01*
X14002991Y-15703912D02*
X14002991Y-15532484D01*
X14183944Y-15722960D02*
X14164896Y-15732484D01*
X14164896Y-15732484D02*
X14126801Y-15732484D01*
X14126801Y-15732484D02*
X14107753Y-15722960D01*
X14107753Y-15722960D02*
X14098230Y-15703912D01*
X14098230Y-15703912D02*
X14098230Y-15627722D01*
X14098230Y-15627722D02*
X14107753Y-15608674D01*
X14107753Y-15608674D02*
X14126801Y-15599150D01*
X14126801Y-15599150D02*
X14164896Y-15599150D01*
X14164896Y-15599150D02*
X14183944Y-15608674D01*
X14183944Y-15608674D02*
X14193468Y-15627722D01*
X14193468Y-15627722D02*
X14193468Y-15646769D01*
X14193468Y-15646769D02*
X14098230Y-15665817D01*
X14269658Y-15722960D02*
X14288706Y-15732484D01*
X14288706Y-15732484D02*
X14326801Y-15732484D01*
X14326801Y-15732484D02*
X14345849Y-15722960D01*
X14345849Y-15722960D02*
X14355372Y-15703912D01*
X14355372Y-15703912D02*
X14355372Y-15694388D01*
X14355372Y-15694388D02*
X14345849Y-15675341D01*
X14345849Y-15675341D02*
X14326801Y-15665817D01*
X14326801Y-15665817D02*
X14298230Y-15665817D01*
X14298230Y-15665817D02*
X14279182Y-15656293D01*
X14279182Y-15656293D02*
X14269658Y-15637246D01*
X14269658Y-15637246D02*
X14269658Y-15627722D01*
X14269658Y-15627722D02*
X14279182Y-15608674D01*
X14279182Y-15608674D02*
X14298230Y-15599150D01*
X14298230Y-15599150D02*
X14326801Y-15599150D01*
X14326801Y-15599150D02*
X14345849Y-15608674D01*
X14422039Y-15808674D02*
X14431563Y-15799150D01*
X14431563Y-15799150D02*
X14450611Y-15770579D01*
X14450611Y-15770579D02*
X14460134Y-15751531D01*
X14460134Y-15751531D02*
X14469658Y-15722960D01*
X14469658Y-15722960D02*
X14479182Y-15675341D01*
X14479182Y-15675341D02*
X14479182Y-15637246D01*
X14479182Y-15637246D02*
X14469658Y-15589627D01*
X14469658Y-15589627D02*
X14460134Y-15561055D01*
X14460134Y-15561055D02*
X14450611Y-15542008D01*
X14450611Y-15542008D02*
X14431563Y-15513436D01*
X14431563Y-15513436D02*
X14422039Y-15503912D01*
D10*
X9416500Y-15865000D02*
X9416500Y-15945000D01*
X9376500Y-15905000D02*
X9456500Y-15905000D01*
D11*
X9755372Y-15796484D02*
X9774420Y-15796484D01*
X9774420Y-15796484D02*
X9793467Y-15806008D01*
X9793467Y-15806008D02*
X9802991Y-15815531D01*
X9802991Y-15815531D02*
X9812515Y-15834579D01*
X9812515Y-15834579D02*
X9822039Y-15872674D01*
X9822039Y-15872674D02*
X9822039Y-15920293D01*
X9822039Y-15920293D02*
X9812515Y-15958388D01*
X9812515Y-15958388D02*
X9802991Y-15977436D01*
X9802991Y-15977436D02*
X9793467Y-15986960D01*
X9793467Y-15986960D02*
X9774420Y-15996484D01*
X9774420Y-15996484D02*
X9755372Y-15996484D01*
X9755372Y-15996484D02*
X9736324Y-15986960D01*
X9736324Y-15986960D02*
X9726801Y-15977436D01*
X9726801Y-15977436D02*
X9717277Y-15958388D01*
X9717277Y-15958388D02*
X9707753Y-15920293D01*
X9707753Y-15920293D02*
X9707753Y-15872674D01*
X9707753Y-15872674D02*
X9717277Y-15834579D01*
X9717277Y-15834579D02*
X9726801Y-15815531D01*
X9726801Y-15815531D02*
X9736324Y-15806008D01*
X9736324Y-15806008D02*
X9755372Y-15796484D01*
X9907753Y-15977436D02*
X9917277Y-15986960D01*
X9917277Y-15986960D02*
X9907753Y-15996484D01*
X9907753Y-15996484D02*
X9898229Y-15986960D01*
X9898229Y-15986960D02*
X9907753Y-15977436D01*
X9907753Y-15977436D02*
X9907753Y-15996484D01*
X10031563Y-15882198D02*
X10012515Y-15872674D01*
X10012515Y-15872674D02*
X10002991Y-15863150D01*
X10002991Y-15863150D02*
X9993467Y-15844103D01*
X9993467Y-15844103D02*
X9993467Y-15834579D01*
X9993467Y-15834579D02*
X10002991Y-15815531D01*
X10002991Y-15815531D02*
X10012515Y-15806008D01*
X10012515Y-15806008D02*
X10031563Y-15796484D01*
X10031563Y-15796484D02*
X10069658Y-15796484D01*
X10069658Y-15796484D02*
X10088705Y-15806008D01*
X10088705Y-15806008D02*
X10098229Y-15815531D01*
X10098229Y-15815531D02*
X10107753Y-15834579D01*
X10107753Y-15834579D02*
X10107753Y-15844103D01*
X10107753Y-15844103D02*
X10098229Y-15863150D01*
X10098229Y-15863150D02*
X10088705Y-15872674D01*
X10088705Y-15872674D02*
X10069658Y-15882198D01*
X10069658Y-15882198D02*
X10031563Y-15882198D01*
X10031563Y-15882198D02*
X10012515Y-15891722D01*
X10012515Y-15891722D02*
X10002991Y-15901246D01*
X10002991Y-15901246D02*
X9993467Y-15920293D01*
X9993467Y-15920293D02*
X9993467Y-15958388D01*
X9993467Y-15958388D02*
X10002991Y-15977436D01*
X10002991Y-15977436D02*
X10012515Y-15986960D01*
X10012515Y-15986960D02*
X10031563Y-15996484D01*
X10031563Y-15996484D02*
X10069658Y-15996484D01*
X10069658Y-15996484D02*
X10088705Y-15986960D01*
X10088705Y-15986960D02*
X10098229Y-15977436D01*
X10098229Y-15977436D02*
X10107753Y-15958388D01*
X10107753Y-15958388D02*
X10107753Y-15920293D01*
X10107753Y-15920293D02*
X10098229Y-15901246D01*
X10098229Y-15901246D02*
X10088705Y-15891722D01*
X10088705Y-15891722D02*
X10069658Y-15882198D01*
X10231563Y-15796484D02*
X10250610Y-15796484D01*
X10250610Y-15796484D02*
X10269658Y-15806008D01*
X10269658Y-15806008D02*
X10279182Y-15815531D01*
X10279182Y-15815531D02*
X10288705Y-15834579D01*
X10288705Y-15834579D02*
X10298229Y-15872674D01*
X10298229Y-15872674D02*
X10298229Y-15920293D01*
X10298229Y-15920293D02*
X10288705Y-15958388D01*
X10288705Y-15958388D02*
X10279182Y-15977436D01*
X10279182Y-15977436D02*
X10269658Y-15986960D01*
X10269658Y-15986960D02*
X10250610Y-15996484D01*
X10250610Y-15996484D02*
X10231563Y-15996484D01*
X10231563Y-15996484D02*
X10212515Y-15986960D01*
X10212515Y-15986960D02*
X10202991Y-15977436D01*
X10202991Y-15977436D02*
X10193467Y-15958388D01*
X10193467Y-15958388D02*
X10183944Y-15920293D01*
X10183944Y-15920293D02*
X10183944Y-15872674D01*
X10183944Y-15872674D02*
X10193467Y-15834579D01*
X10193467Y-15834579D02*
X10202991Y-15815531D01*
X10202991Y-15815531D02*
X10212515Y-15806008D01*
X10212515Y-15806008D02*
X10231563Y-15796484D01*
X10422039Y-15796484D02*
X10441086Y-15796484D01*
X10441086Y-15796484D02*
X10460134Y-15806008D01*
X10460134Y-15806008D02*
X10469658Y-15815531D01*
X10469658Y-15815531D02*
X10479182Y-15834579D01*
X10479182Y-15834579D02*
X10488705Y-15872674D01*
X10488705Y-15872674D02*
X10488705Y-15920293D01*
X10488705Y-15920293D02*
X10479182Y-15958388D01*
X10479182Y-15958388D02*
X10469658Y-15977436D01*
X10469658Y-15977436D02*
X10460134Y-15986960D01*
X10460134Y-15986960D02*
X10441086Y-15996484D01*
X10441086Y-15996484D02*
X10422039Y-15996484D01*
X10422039Y-15996484D02*
X10402991Y-15986960D01*
X10402991Y-15986960D02*
X10393467Y-15977436D01*
X10393467Y-15977436D02*
X10383944Y-15958388D01*
X10383944Y-15958388D02*
X10374420Y-15920293D01*
X10374420Y-15920293D02*
X10374420Y-15872674D01*
X10374420Y-15872674D02*
X10383944Y-15834579D01*
X10383944Y-15834579D02*
X10393467Y-15815531D01*
X10393467Y-15815531D02*
X10402991Y-15806008D01*
X10402991Y-15806008D02*
X10422039Y-15796484D01*
X10574420Y-15996484D02*
X10574420Y-15863150D01*
X10574420Y-15882198D02*
X10583944Y-15872674D01*
X10583944Y-15872674D02*
X10602991Y-15863150D01*
X10602991Y-15863150D02*
X10631563Y-15863150D01*
X10631563Y-15863150D02*
X10650610Y-15872674D01*
X10650610Y-15872674D02*
X10660134Y-15891722D01*
X10660134Y-15891722D02*
X10660134Y-15996484D01*
X10660134Y-15891722D02*
X10669658Y-15872674D01*
X10669658Y-15872674D02*
X10688705Y-15863150D01*
X10688705Y-15863150D02*
X10717277Y-15863150D01*
X10717277Y-15863150D02*
X10736325Y-15872674D01*
X10736325Y-15872674D02*
X10745848Y-15891722D01*
X10745848Y-15891722D02*
X10745848Y-15996484D01*
X10841086Y-15996484D02*
X10841086Y-15863150D01*
X10841086Y-15882198D02*
X10850610Y-15872674D01*
X10850610Y-15872674D02*
X10869658Y-15863150D01*
X10869658Y-15863150D02*
X10898229Y-15863150D01*
X10898229Y-15863150D02*
X10917277Y-15872674D01*
X10917277Y-15872674D02*
X10926801Y-15891722D01*
X10926801Y-15891722D02*
X10926801Y-15996484D01*
X10926801Y-15891722D02*
X10936325Y-15872674D01*
X10936325Y-15872674D02*
X10955372Y-15863150D01*
X10955372Y-15863150D02*
X10983944Y-15863150D01*
X10983944Y-15863150D02*
X11002991Y-15872674D01*
X11002991Y-15872674D02*
X11012515Y-15891722D01*
X11012515Y-15891722D02*
X11012515Y-15996484D01*
X11402991Y-15786960D02*
X11231563Y-16044103D01*
X11660134Y-15796484D02*
X11679182Y-15796484D01*
X11679182Y-15796484D02*
X11698229Y-15806008D01*
X11698229Y-15806008D02*
X11707753Y-15815531D01*
X11707753Y-15815531D02*
X11717277Y-15834579D01*
X11717277Y-15834579D02*
X11726801Y-15872674D01*
X11726801Y-15872674D02*
X11726801Y-15920293D01*
X11726801Y-15920293D02*
X11717277Y-15958388D01*
X11717277Y-15958388D02*
X11707753Y-15977436D01*
X11707753Y-15977436D02*
X11698229Y-15986960D01*
X11698229Y-15986960D02*
X11679182Y-15996484D01*
X11679182Y-15996484D02*
X11660134Y-15996484D01*
X11660134Y-15996484D02*
X11641086Y-15986960D01*
X11641086Y-15986960D02*
X11631563Y-15977436D01*
X11631563Y-15977436D02*
X11622039Y-15958388D01*
X11622039Y-15958388D02*
X11612515Y-15920293D01*
X11612515Y-15920293D02*
X11612515Y-15872674D01*
X11612515Y-15872674D02*
X11622039Y-15834579D01*
X11622039Y-15834579D02*
X11631563Y-15815531D01*
X11631563Y-15815531D02*
X11641086Y-15806008D01*
X11641086Y-15806008D02*
X11660134Y-15796484D01*
X11812515Y-15977436D02*
X11822039Y-15986960D01*
X11822039Y-15986960D02*
X11812515Y-15996484D01*
X11812515Y-15996484D02*
X11802991Y-15986960D01*
X11802991Y-15986960D02*
X11812515Y-15977436D01*
X11812515Y-15977436D02*
X11812515Y-15996484D01*
X11945848Y-15796484D02*
X11964896Y-15796484D01*
X11964896Y-15796484D02*
X11983944Y-15806008D01*
X11983944Y-15806008D02*
X11993467Y-15815531D01*
X11993467Y-15815531D02*
X12002991Y-15834579D01*
X12002991Y-15834579D02*
X12012515Y-15872674D01*
X12012515Y-15872674D02*
X12012515Y-15920293D01*
X12012515Y-15920293D02*
X12002991Y-15958388D01*
X12002991Y-15958388D02*
X11993467Y-15977436D01*
X11993467Y-15977436D02*
X11983944Y-15986960D01*
X11983944Y-15986960D02*
X11964896Y-15996484D01*
X11964896Y-15996484D02*
X11945848Y-15996484D01*
X11945848Y-15996484D02*
X11926801Y-15986960D01*
X11926801Y-15986960D02*
X11917277Y-15977436D01*
X11917277Y-15977436D02*
X11907753Y-15958388D01*
X11907753Y-15958388D02*
X11898229Y-15920293D01*
X11898229Y-15920293D02*
X11898229Y-15872674D01*
X11898229Y-15872674D02*
X11907753Y-15834579D01*
X11907753Y-15834579D02*
X11917277Y-15815531D01*
X11917277Y-15815531D02*
X11926801Y-15806008D01*
X11926801Y-15806008D02*
X11945848Y-15796484D01*
X12079182Y-15796484D02*
X12202991Y-15796484D01*
X12202991Y-15796484D02*
X12136325Y-15872674D01*
X12136325Y-15872674D02*
X12164896Y-15872674D01*
X12164896Y-15872674D02*
X12183944Y-15882198D01*
X12183944Y-15882198D02*
X12193467Y-15891722D01*
X12193467Y-15891722D02*
X12202991Y-15910769D01*
X12202991Y-15910769D02*
X12202991Y-15958388D01*
X12202991Y-15958388D02*
X12193467Y-15977436D01*
X12193467Y-15977436D02*
X12183944Y-15986960D01*
X12183944Y-15986960D02*
X12164896Y-15996484D01*
X12164896Y-15996484D02*
X12107753Y-15996484D01*
X12107753Y-15996484D02*
X12088706Y-15986960D01*
X12088706Y-15986960D02*
X12079182Y-15977436D01*
X12393467Y-15996484D02*
X12279182Y-15996484D01*
X12336325Y-15996484D02*
X12336325Y-15796484D01*
X12336325Y-15796484D02*
X12317277Y-15825055D01*
X12317277Y-15825055D02*
X12298229Y-15844103D01*
X12298229Y-15844103D02*
X12279182Y-15853627D01*
X12574420Y-15796484D02*
X12479182Y-15796484D01*
X12479182Y-15796484D02*
X12469658Y-15891722D01*
X12469658Y-15891722D02*
X12479182Y-15882198D01*
X12479182Y-15882198D02*
X12498229Y-15872674D01*
X12498229Y-15872674D02*
X12545848Y-15872674D01*
X12545848Y-15872674D02*
X12564896Y-15882198D01*
X12564896Y-15882198D02*
X12574420Y-15891722D01*
X12574420Y-15891722D02*
X12583944Y-15910769D01*
X12583944Y-15910769D02*
X12583944Y-15958388D01*
X12583944Y-15958388D02*
X12574420Y-15977436D01*
X12574420Y-15977436D02*
X12564896Y-15986960D01*
X12564896Y-15986960D02*
X12545848Y-15996484D01*
X12545848Y-15996484D02*
X12498229Y-15996484D01*
X12498229Y-15996484D02*
X12479182Y-15986960D01*
X12479182Y-15986960D02*
X12469658Y-15977436D01*
X12660134Y-15796484D02*
X12660134Y-15834579D01*
X12736325Y-15796484D02*
X12736325Y-15834579D01*
X13031563Y-16072674D02*
X13022039Y-16063150D01*
X13022039Y-16063150D02*
X13002991Y-16034579D01*
X13002991Y-16034579D02*
X12993468Y-16015531D01*
X12993468Y-16015531D02*
X12983944Y-15986960D01*
X12983944Y-15986960D02*
X12974420Y-15939341D01*
X12974420Y-15939341D02*
X12974420Y-15901246D01*
X12974420Y-15901246D02*
X12983944Y-15853627D01*
X12983944Y-15853627D02*
X12993468Y-15825055D01*
X12993468Y-15825055D02*
X13002991Y-15806008D01*
X13002991Y-15806008D02*
X13022039Y-15777436D01*
X13022039Y-15777436D02*
X13031563Y-15767912D01*
X13212515Y-15996484D02*
X13098229Y-15996484D01*
X13155372Y-15996484D02*
X13155372Y-15796484D01*
X13155372Y-15796484D02*
X13136325Y-15825055D01*
X13136325Y-15825055D02*
X13117277Y-15844103D01*
X13117277Y-15844103D02*
X13098229Y-15853627D01*
X13450610Y-15996484D02*
X13450610Y-15796484D01*
X13536325Y-15996484D02*
X13536325Y-15891722D01*
X13536325Y-15891722D02*
X13526801Y-15872674D01*
X13526801Y-15872674D02*
X13507753Y-15863150D01*
X13507753Y-15863150D02*
X13479182Y-15863150D01*
X13479182Y-15863150D02*
X13460134Y-15872674D01*
X13460134Y-15872674D02*
X13450610Y-15882198D01*
X13660134Y-15996484D02*
X13641087Y-15986960D01*
X13641087Y-15986960D02*
X13631563Y-15977436D01*
X13631563Y-15977436D02*
X13622039Y-15958388D01*
X13622039Y-15958388D02*
X13622039Y-15901246D01*
X13622039Y-15901246D02*
X13631563Y-15882198D01*
X13631563Y-15882198D02*
X13641087Y-15872674D01*
X13641087Y-15872674D02*
X13660134Y-15863150D01*
X13660134Y-15863150D02*
X13688706Y-15863150D01*
X13688706Y-15863150D02*
X13707753Y-15872674D01*
X13707753Y-15872674D02*
X13717277Y-15882198D01*
X13717277Y-15882198D02*
X13726801Y-15901246D01*
X13726801Y-15901246D02*
X13726801Y-15958388D01*
X13726801Y-15958388D02*
X13717277Y-15977436D01*
X13717277Y-15977436D02*
X13707753Y-15986960D01*
X13707753Y-15986960D02*
X13688706Y-15996484D01*
X13688706Y-15996484D02*
X13660134Y-15996484D01*
X13841087Y-15996484D02*
X13822039Y-15986960D01*
X13822039Y-15986960D02*
X13812515Y-15967912D01*
X13812515Y-15967912D02*
X13812515Y-15796484D01*
X13993468Y-15986960D02*
X13974420Y-15996484D01*
X13974420Y-15996484D02*
X13936325Y-15996484D01*
X13936325Y-15996484D02*
X13917277Y-15986960D01*
X13917277Y-15986960D02*
X13907753Y-15967912D01*
X13907753Y-15967912D02*
X13907753Y-15891722D01*
X13907753Y-15891722D02*
X13917277Y-15872674D01*
X13917277Y-15872674D02*
X13936325Y-15863150D01*
X13936325Y-15863150D02*
X13974420Y-15863150D01*
X13974420Y-15863150D02*
X13993468Y-15872674D01*
X13993468Y-15872674D02*
X14002991Y-15891722D01*
X14002991Y-15891722D02*
X14002991Y-15910769D01*
X14002991Y-15910769D02*
X13907753Y-15929817D01*
X14069658Y-16072674D02*
X14079182Y-16063150D01*
X14079182Y-16063150D02*
X14098230Y-16034579D01*
X14098230Y-16034579D02*
X14107753Y-16015531D01*
X14107753Y-16015531D02*
X14117277Y-15986960D01*
X14117277Y-15986960D02*
X14126801Y-15939341D01*
X14126801Y-15939341D02*
X14126801Y-15901246D01*
X14126801Y-15901246D02*
X14117277Y-15853627D01*
X14117277Y-15853627D02*
X14107753Y-15825055D01*
X14107753Y-15825055D02*
X14098230Y-15806008D01*
X14098230Y-15806008D02*
X14079182Y-15777436D01*
X14079182Y-15777436D02*
X14069658Y-15767912D01*
D10*
X9444785Y-16197284D02*
X9444785Y-16140715D01*
X9388216Y-16140715D01*
X9388216Y-16197284D01*
X9444785Y-16197284D01*
D11*
X9755372Y-16060484D02*
X9774420Y-16060484D01*
X9774420Y-16060484D02*
X9793467Y-16070008D01*
X9793467Y-16070008D02*
X9802991Y-16079531D01*
X9802991Y-16079531D02*
X9812515Y-16098579D01*
X9812515Y-16098579D02*
X9822039Y-16136674D01*
X9822039Y-16136674D02*
X9822039Y-16184293D01*
X9822039Y-16184293D02*
X9812515Y-16222388D01*
X9812515Y-16222388D02*
X9802991Y-16241436D01*
X9802991Y-16241436D02*
X9793467Y-16250960D01*
X9793467Y-16250960D02*
X9774420Y-16260484D01*
X9774420Y-16260484D02*
X9755372Y-16260484D01*
X9755372Y-16260484D02*
X9736324Y-16250960D01*
X9736324Y-16250960D02*
X9726801Y-16241436D01*
X9726801Y-16241436D02*
X9717277Y-16222388D01*
X9717277Y-16222388D02*
X9707753Y-16184293D01*
X9707753Y-16184293D02*
X9707753Y-16136674D01*
X9707753Y-16136674D02*
X9717277Y-16098579D01*
X9717277Y-16098579D02*
X9726801Y-16079531D01*
X9726801Y-16079531D02*
X9736324Y-16070008D01*
X9736324Y-16070008D02*
X9755372Y-16060484D01*
X9907753Y-16241436D02*
X9917277Y-16250960D01*
X9917277Y-16250960D02*
X9907753Y-16260484D01*
X9907753Y-16260484D02*
X9898229Y-16250960D01*
X9898229Y-16250960D02*
X9907753Y-16241436D01*
X9907753Y-16241436D02*
X9907753Y-16260484D01*
X10031563Y-16146198D02*
X10012515Y-16136674D01*
X10012515Y-16136674D02*
X10002991Y-16127150D01*
X10002991Y-16127150D02*
X9993467Y-16108103D01*
X9993467Y-16108103D02*
X9993467Y-16098579D01*
X9993467Y-16098579D02*
X10002991Y-16079531D01*
X10002991Y-16079531D02*
X10012515Y-16070008D01*
X10012515Y-16070008D02*
X10031563Y-16060484D01*
X10031563Y-16060484D02*
X10069658Y-16060484D01*
X10069658Y-16060484D02*
X10088705Y-16070008D01*
X10088705Y-16070008D02*
X10098229Y-16079531D01*
X10098229Y-16079531D02*
X10107753Y-16098579D01*
X10107753Y-16098579D02*
X10107753Y-16108103D01*
X10107753Y-16108103D02*
X10098229Y-16127150D01*
X10098229Y-16127150D02*
X10088705Y-16136674D01*
X10088705Y-16136674D02*
X10069658Y-16146198D01*
X10069658Y-16146198D02*
X10031563Y-16146198D01*
X10031563Y-16146198D02*
X10012515Y-16155722D01*
X10012515Y-16155722D02*
X10002991Y-16165246D01*
X10002991Y-16165246D02*
X9993467Y-16184293D01*
X9993467Y-16184293D02*
X9993467Y-16222388D01*
X9993467Y-16222388D02*
X10002991Y-16241436D01*
X10002991Y-16241436D02*
X10012515Y-16250960D01*
X10012515Y-16250960D02*
X10031563Y-16260484D01*
X10031563Y-16260484D02*
X10069658Y-16260484D01*
X10069658Y-16260484D02*
X10088705Y-16250960D01*
X10088705Y-16250960D02*
X10098229Y-16241436D01*
X10098229Y-16241436D02*
X10107753Y-16222388D01*
X10107753Y-16222388D02*
X10107753Y-16184293D01*
X10107753Y-16184293D02*
X10098229Y-16165246D01*
X10098229Y-16165246D02*
X10088705Y-16155722D01*
X10088705Y-16155722D02*
X10069658Y-16146198D01*
X10231563Y-16060484D02*
X10250610Y-16060484D01*
X10250610Y-16060484D02*
X10269658Y-16070008D01*
X10269658Y-16070008D02*
X10279182Y-16079531D01*
X10279182Y-16079531D02*
X10288705Y-16098579D01*
X10288705Y-16098579D02*
X10298229Y-16136674D01*
X10298229Y-16136674D02*
X10298229Y-16184293D01*
X10298229Y-16184293D02*
X10288705Y-16222388D01*
X10288705Y-16222388D02*
X10279182Y-16241436D01*
X10279182Y-16241436D02*
X10269658Y-16250960D01*
X10269658Y-16250960D02*
X10250610Y-16260484D01*
X10250610Y-16260484D02*
X10231563Y-16260484D01*
X10231563Y-16260484D02*
X10212515Y-16250960D01*
X10212515Y-16250960D02*
X10202991Y-16241436D01*
X10202991Y-16241436D02*
X10193467Y-16222388D01*
X10193467Y-16222388D02*
X10183944Y-16184293D01*
X10183944Y-16184293D02*
X10183944Y-16136674D01*
X10183944Y-16136674D02*
X10193467Y-16098579D01*
X10193467Y-16098579D02*
X10202991Y-16079531D01*
X10202991Y-16079531D02*
X10212515Y-16070008D01*
X10212515Y-16070008D02*
X10231563Y-16060484D01*
X10422039Y-16060484D02*
X10441086Y-16060484D01*
X10441086Y-16060484D02*
X10460134Y-16070008D01*
X10460134Y-16070008D02*
X10469658Y-16079531D01*
X10469658Y-16079531D02*
X10479182Y-16098579D01*
X10479182Y-16098579D02*
X10488705Y-16136674D01*
X10488705Y-16136674D02*
X10488705Y-16184293D01*
X10488705Y-16184293D02*
X10479182Y-16222388D01*
X10479182Y-16222388D02*
X10469658Y-16241436D01*
X10469658Y-16241436D02*
X10460134Y-16250960D01*
X10460134Y-16250960D02*
X10441086Y-16260484D01*
X10441086Y-16260484D02*
X10422039Y-16260484D01*
X10422039Y-16260484D02*
X10402991Y-16250960D01*
X10402991Y-16250960D02*
X10393467Y-16241436D01*
X10393467Y-16241436D02*
X10383944Y-16222388D01*
X10383944Y-16222388D02*
X10374420Y-16184293D01*
X10374420Y-16184293D02*
X10374420Y-16136674D01*
X10374420Y-16136674D02*
X10383944Y-16098579D01*
X10383944Y-16098579D02*
X10393467Y-16079531D01*
X10393467Y-16079531D02*
X10402991Y-16070008D01*
X10402991Y-16070008D02*
X10422039Y-16060484D01*
X10574420Y-16260484D02*
X10574420Y-16127150D01*
X10574420Y-16146198D02*
X10583944Y-16136674D01*
X10583944Y-16136674D02*
X10602991Y-16127150D01*
X10602991Y-16127150D02*
X10631563Y-16127150D01*
X10631563Y-16127150D02*
X10650610Y-16136674D01*
X10650610Y-16136674D02*
X10660134Y-16155722D01*
X10660134Y-16155722D02*
X10660134Y-16260484D01*
X10660134Y-16155722D02*
X10669658Y-16136674D01*
X10669658Y-16136674D02*
X10688705Y-16127150D01*
X10688705Y-16127150D02*
X10717277Y-16127150D01*
X10717277Y-16127150D02*
X10736325Y-16136674D01*
X10736325Y-16136674D02*
X10745848Y-16155722D01*
X10745848Y-16155722D02*
X10745848Y-16260484D01*
X10841086Y-16260484D02*
X10841086Y-16127150D01*
X10841086Y-16146198D02*
X10850610Y-16136674D01*
X10850610Y-16136674D02*
X10869658Y-16127150D01*
X10869658Y-16127150D02*
X10898229Y-16127150D01*
X10898229Y-16127150D02*
X10917277Y-16136674D01*
X10917277Y-16136674D02*
X10926801Y-16155722D01*
X10926801Y-16155722D02*
X10926801Y-16260484D01*
X10926801Y-16155722D02*
X10936325Y-16136674D01*
X10936325Y-16136674D02*
X10955372Y-16127150D01*
X10955372Y-16127150D02*
X10983944Y-16127150D01*
X10983944Y-16127150D02*
X11002991Y-16136674D01*
X11002991Y-16136674D02*
X11012515Y-16155722D01*
X11012515Y-16155722D02*
X11012515Y-16260484D01*
X11402991Y-16050960D02*
X11231563Y-16308103D01*
X11660134Y-16060484D02*
X11679182Y-16060484D01*
X11679182Y-16060484D02*
X11698229Y-16070008D01*
X11698229Y-16070008D02*
X11707753Y-16079531D01*
X11707753Y-16079531D02*
X11717277Y-16098579D01*
X11717277Y-16098579D02*
X11726801Y-16136674D01*
X11726801Y-16136674D02*
X11726801Y-16184293D01*
X11726801Y-16184293D02*
X11717277Y-16222388D01*
X11717277Y-16222388D02*
X11707753Y-16241436D01*
X11707753Y-16241436D02*
X11698229Y-16250960D01*
X11698229Y-16250960D02*
X11679182Y-16260484D01*
X11679182Y-16260484D02*
X11660134Y-16260484D01*
X11660134Y-16260484D02*
X11641086Y-16250960D01*
X11641086Y-16250960D02*
X11631563Y-16241436D01*
X11631563Y-16241436D02*
X11622039Y-16222388D01*
X11622039Y-16222388D02*
X11612515Y-16184293D01*
X11612515Y-16184293D02*
X11612515Y-16136674D01*
X11612515Y-16136674D02*
X11622039Y-16098579D01*
X11622039Y-16098579D02*
X11631563Y-16079531D01*
X11631563Y-16079531D02*
X11641086Y-16070008D01*
X11641086Y-16070008D02*
X11660134Y-16060484D01*
X11812515Y-16241436D02*
X11822039Y-16250960D01*
X11822039Y-16250960D02*
X11812515Y-16260484D01*
X11812515Y-16260484D02*
X11802991Y-16250960D01*
X11802991Y-16250960D02*
X11812515Y-16241436D01*
X11812515Y-16241436D02*
X11812515Y-16260484D01*
X11945848Y-16060484D02*
X11964896Y-16060484D01*
X11964896Y-16060484D02*
X11983944Y-16070008D01*
X11983944Y-16070008D02*
X11993467Y-16079531D01*
X11993467Y-16079531D02*
X12002991Y-16098579D01*
X12002991Y-16098579D02*
X12012515Y-16136674D01*
X12012515Y-16136674D02*
X12012515Y-16184293D01*
X12012515Y-16184293D02*
X12002991Y-16222388D01*
X12002991Y-16222388D02*
X11993467Y-16241436D01*
X11993467Y-16241436D02*
X11983944Y-16250960D01*
X11983944Y-16250960D02*
X11964896Y-16260484D01*
X11964896Y-16260484D02*
X11945848Y-16260484D01*
X11945848Y-16260484D02*
X11926801Y-16250960D01*
X11926801Y-16250960D02*
X11917277Y-16241436D01*
X11917277Y-16241436D02*
X11907753Y-16222388D01*
X11907753Y-16222388D02*
X11898229Y-16184293D01*
X11898229Y-16184293D02*
X11898229Y-16136674D01*
X11898229Y-16136674D02*
X11907753Y-16098579D01*
X11907753Y-16098579D02*
X11917277Y-16079531D01*
X11917277Y-16079531D02*
X11926801Y-16070008D01*
X11926801Y-16070008D02*
X11945848Y-16060484D01*
X12079182Y-16060484D02*
X12202991Y-16060484D01*
X12202991Y-16060484D02*
X12136325Y-16136674D01*
X12136325Y-16136674D02*
X12164896Y-16136674D01*
X12164896Y-16136674D02*
X12183944Y-16146198D01*
X12183944Y-16146198D02*
X12193467Y-16155722D01*
X12193467Y-16155722D02*
X12202991Y-16174769D01*
X12202991Y-16174769D02*
X12202991Y-16222388D01*
X12202991Y-16222388D02*
X12193467Y-16241436D01*
X12193467Y-16241436D02*
X12183944Y-16250960D01*
X12183944Y-16250960D02*
X12164896Y-16260484D01*
X12164896Y-16260484D02*
X12107753Y-16260484D01*
X12107753Y-16260484D02*
X12088706Y-16250960D01*
X12088706Y-16250960D02*
X12079182Y-16241436D01*
X12393467Y-16260484D02*
X12279182Y-16260484D01*
X12336325Y-16260484D02*
X12336325Y-16060484D01*
X12336325Y-16060484D02*
X12317277Y-16089055D01*
X12317277Y-16089055D02*
X12298229Y-16108103D01*
X12298229Y-16108103D02*
X12279182Y-16117627D01*
X12574420Y-16060484D02*
X12479182Y-16060484D01*
X12479182Y-16060484D02*
X12469658Y-16155722D01*
X12469658Y-16155722D02*
X12479182Y-16146198D01*
X12479182Y-16146198D02*
X12498229Y-16136674D01*
X12498229Y-16136674D02*
X12545848Y-16136674D01*
X12545848Y-16136674D02*
X12564896Y-16146198D01*
X12564896Y-16146198D02*
X12574420Y-16155722D01*
X12574420Y-16155722D02*
X12583944Y-16174769D01*
X12583944Y-16174769D02*
X12583944Y-16222388D01*
X12583944Y-16222388D02*
X12574420Y-16241436D01*
X12574420Y-16241436D02*
X12564896Y-16250960D01*
X12564896Y-16250960D02*
X12545848Y-16260484D01*
X12545848Y-16260484D02*
X12498229Y-16260484D01*
X12498229Y-16260484D02*
X12479182Y-16250960D01*
X12479182Y-16250960D02*
X12469658Y-16241436D01*
X12660134Y-16060484D02*
X12660134Y-16098579D01*
X12736325Y-16060484D02*
X12736325Y-16098579D01*
X13031563Y-16336674D02*
X13022039Y-16327150D01*
X13022039Y-16327150D02*
X13002991Y-16298579D01*
X13002991Y-16298579D02*
X12993468Y-16279531D01*
X12993468Y-16279531D02*
X12983944Y-16250960D01*
X12983944Y-16250960D02*
X12974420Y-16203341D01*
X12974420Y-16203341D02*
X12974420Y-16165246D01*
X12974420Y-16165246D02*
X12983944Y-16117627D01*
X12983944Y-16117627D02*
X12993468Y-16089055D01*
X12993468Y-16089055D02*
X13002991Y-16070008D01*
X13002991Y-16070008D02*
X13022039Y-16041436D01*
X13022039Y-16041436D02*
X13031563Y-16031912D01*
X13202991Y-16060484D02*
X13107753Y-16060484D01*
X13107753Y-16060484D02*
X13098229Y-16155722D01*
X13098229Y-16155722D02*
X13107753Y-16146198D01*
X13107753Y-16146198D02*
X13126801Y-16136674D01*
X13126801Y-16136674D02*
X13174420Y-16136674D01*
X13174420Y-16136674D02*
X13193468Y-16146198D01*
X13193468Y-16146198D02*
X13202991Y-16155722D01*
X13202991Y-16155722D02*
X13212515Y-16174769D01*
X13212515Y-16174769D02*
X13212515Y-16222388D01*
X13212515Y-16222388D02*
X13202991Y-16241436D01*
X13202991Y-16241436D02*
X13193468Y-16250960D01*
X13193468Y-16250960D02*
X13174420Y-16260484D01*
X13174420Y-16260484D02*
X13126801Y-16260484D01*
X13126801Y-16260484D02*
X13107753Y-16250960D01*
X13107753Y-16250960D02*
X13098229Y-16241436D01*
X13288706Y-16079531D02*
X13298229Y-16070008D01*
X13298229Y-16070008D02*
X13317277Y-16060484D01*
X13317277Y-16060484D02*
X13364896Y-16060484D01*
X13364896Y-16060484D02*
X13383944Y-16070008D01*
X13383944Y-16070008D02*
X13393468Y-16079531D01*
X13393468Y-16079531D02*
X13402991Y-16098579D01*
X13402991Y-16098579D02*
X13402991Y-16117627D01*
X13402991Y-16117627D02*
X13393468Y-16146198D01*
X13393468Y-16146198D02*
X13279182Y-16260484D01*
X13279182Y-16260484D02*
X13402991Y-16260484D01*
X13641087Y-16260484D02*
X13641087Y-16060484D01*
X13726801Y-16260484D02*
X13726801Y-16155722D01*
X13726801Y-16155722D02*
X13717277Y-16136674D01*
X13717277Y-16136674D02*
X13698230Y-16127150D01*
X13698230Y-16127150D02*
X13669658Y-16127150D01*
X13669658Y-16127150D02*
X13650610Y-16136674D01*
X13650610Y-16136674D02*
X13641087Y-16146198D01*
X13850610Y-16260484D02*
X13831563Y-16250960D01*
X13831563Y-16250960D02*
X13822039Y-16241436D01*
X13822039Y-16241436D02*
X13812515Y-16222388D01*
X13812515Y-16222388D02*
X13812515Y-16165246D01*
X13812515Y-16165246D02*
X13822039Y-16146198D01*
X13822039Y-16146198D02*
X13831563Y-16136674D01*
X13831563Y-16136674D02*
X13850610Y-16127150D01*
X13850610Y-16127150D02*
X13879182Y-16127150D01*
X13879182Y-16127150D02*
X13898230Y-16136674D01*
X13898230Y-16136674D02*
X13907753Y-16146198D01*
X13907753Y-16146198D02*
X13917277Y-16165246D01*
X13917277Y-16165246D02*
X13917277Y-16222388D01*
X13917277Y-16222388D02*
X13907753Y-16241436D01*
X13907753Y-16241436D02*
X13898230Y-16250960D01*
X13898230Y-16250960D02*
X13879182Y-16260484D01*
X13879182Y-16260484D02*
X13850610Y-16260484D01*
X14031563Y-16260484D02*
X14012515Y-16250960D01*
X14012515Y-16250960D02*
X14002991Y-16231912D01*
X14002991Y-16231912D02*
X14002991Y-16060484D01*
X14183944Y-16250960D02*
X14164896Y-16260484D01*
X14164896Y-16260484D02*
X14126801Y-16260484D01*
X14126801Y-16260484D02*
X14107753Y-16250960D01*
X14107753Y-16250960D02*
X14098230Y-16231912D01*
X14098230Y-16231912D02*
X14098230Y-16155722D01*
X14098230Y-16155722D02*
X14107753Y-16136674D01*
X14107753Y-16136674D02*
X14126801Y-16127150D01*
X14126801Y-16127150D02*
X14164896Y-16127150D01*
X14164896Y-16127150D02*
X14183944Y-16136674D01*
X14183944Y-16136674D02*
X14193468Y-16155722D01*
X14193468Y-16155722D02*
X14193468Y-16174769D01*
X14193468Y-16174769D02*
X14098230Y-16193817D01*
X14269658Y-16250960D02*
X14288706Y-16260484D01*
X14288706Y-16260484D02*
X14326801Y-16260484D01*
X14326801Y-16260484D02*
X14345849Y-16250960D01*
X14345849Y-16250960D02*
X14355372Y-16231912D01*
X14355372Y-16231912D02*
X14355372Y-16222388D01*
X14355372Y-16222388D02*
X14345849Y-16203341D01*
X14345849Y-16203341D02*
X14326801Y-16193817D01*
X14326801Y-16193817D02*
X14298230Y-16193817D01*
X14298230Y-16193817D02*
X14279182Y-16184293D01*
X14279182Y-16184293D02*
X14269658Y-16165246D01*
X14269658Y-16165246D02*
X14269658Y-16155722D01*
X14269658Y-16155722D02*
X14279182Y-16136674D01*
X14279182Y-16136674D02*
X14298230Y-16127150D01*
X14298230Y-16127150D02*
X14326801Y-16127150D01*
X14326801Y-16127150D02*
X14345849Y-16136674D01*
X14422039Y-16336674D02*
X14431563Y-16327150D01*
X14431563Y-16327150D02*
X14450611Y-16298579D01*
X14450611Y-16298579D02*
X14460134Y-16279531D01*
X14460134Y-16279531D02*
X14469658Y-16250960D01*
X14469658Y-16250960D02*
X14479182Y-16203341D01*
X14479182Y-16203341D02*
X14479182Y-16165246D01*
X14479182Y-16165246D02*
X14469658Y-16117627D01*
X14469658Y-16117627D02*
X14460134Y-16089055D01*
X14460134Y-16089055D02*
X14450611Y-16070008D01*
X14450611Y-16070008D02*
X14431563Y-16041436D01*
X14431563Y-16041436D02*
X14422039Y-16031912D01*
D10*
X9406500Y-16483000D02*
X9456500Y-16433000D01*
X9406500Y-16383000D01*
X9356500Y-16433000D01*
X9406500Y-16483000D01*
D11*
X9822039Y-16524484D02*
X9707753Y-16524484D01*
X9764896Y-16524484D02*
X9764896Y-16324484D01*
X9764896Y-16324484D02*
X9745848Y-16353055D01*
X9745848Y-16353055D02*
X9726801Y-16372103D01*
X9726801Y-16372103D02*
X9707753Y-16381627D01*
X9907753Y-16505436D02*
X9917277Y-16514960D01*
X9917277Y-16514960D02*
X9907753Y-16524484D01*
X9907753Y-16524484D02*
X9898229Y-16514960D01*
X9898229Y-16514960D02*
X9907753Y-16505436D01*
X9907753Y-16505436D02*
X9907753Y-16524484D01*
X10041086Y-16324484D02*
X10060134Y-16324484D01*
X10060134Y-16324484D02*
X10079182Y-16334008D01*
X10079182Y-16334008D02*
X10088705Y-16343531D01*
X10088705Y-16343531D02*
X10098229Y-16362579D01*
X10098229Y-16362579D02*
X10107753Y-16400674D01*
X10107753Y-16400674D02*
X10107753Y-16448293D01*
X10107753Y-16448293D02*
X10098229Y-16486388D01*
X10098229Y-16486388D02*
X10088705Y-16505436D01*
X10088705Y-16505436D02*
X10079182Y-16514960D01*
X10079182Y-16514960D02*
X10060134Y-16524484D01*
X10060134Y-16524484D02*
X10041086Y-16524484D01*
X10041086Y-16524484D02*
X10022039Y-16514960D01*
X10022039Y-16514960D02*
X10012515Y-16505436D01*
X10012515Y-16505436D02*
X10002991Y-16486388D01*
X10002991Y-16486388D02*
X9993467Y-16448293D01*
X9993467Y-16448293D02*
X9993467Y-16400674D01*
X9993467Y-16400674D02*
X10002991Y-16362579D01*
X10002991Y-16362579D02*
X10012515Y-16343531D01*
X10012515Y-16343531D02*
X10022039Y-16334008D01*
X10022039Y-16334008D02*
X10041086Y-16324484D01*
X10231563Y-16324484D02*
X10250610Y-16324484D01*
X10250610Y-16324484D02*
X10269658Y-16334008D01*
X10269658Y-16334008D02*
X10279182Y-16343531D01*
X10279182Y-16343531D02*
X10288705Y-16362579D01*
X10288705Y-16362579D02*
X10298229Y-16400674D01*
X10298229Y-16400674D02*
X10298229Y-16448293D01*
X10298229Y-16448293D02*
X10288705Y-16486388D01*
X10288705Y-16486388D02*
X10279182Y-16505436D01*
X10279182Y-16505436D02*
X10269658Y-16514960D01*
X10269658Y-16514960D02*
X10250610Y-16524484D01*
X10250610Y-16524484D02*
X10231563Y-16524484D01*
X10231563Y-16524484D02*
X10212515Y-16514960D01*
X10212515Y-16514960D02*
X10202991Y-16505436D01*
X10202991Y-16505436D02*
X10193467Y-16486388D01*
X10193467Y-16486388D02*
X10183944Y-16448293D01*
X10183944Y-16448293D02*
X10183944Y-16400674D01*
X10183944Y-16400674D02*
X10193467Y-16362579D01*
X10193467Y-16362579D02*
X10202991Y-16343531D01*
X10202991Y-16343531D02*
X10212515Y-16334008D01*
X10212515Y-16334008D02*
X10231563Y-16324484D01*
X10422039Y-16324484D02*
X10441086Y-16324484D01*
X10441086Y-16324484D02*
X10460134Y-16334008D01*
X10460134Y-16334008D02*
X10469658Y-16343531D01*
X10469658Y-16343531D02*
X10479182Y-16362579D01*
X10479182Y-16362579D02*
X10488705Y-16400674D01*
X10488705Y-16400674D02*
X10488705Y-16448293D01*
X10488705Y-16448293D02*
X10479182Y-16486388D01*
X10479182Y-16486388D02*
X10469658Y-16505436D01*
X10469658Y-16505436D02*
X10460134Y-16514960D01*
X10460134Y-16514960D02*
X10441086Y-16524484D01*
X10441086Y-16524484D02*
X10422039Y-16524484D01*
X10422039Y-16524484D02*
X10402991Y-16514960D01*
X10402991Y-16514960D02*
X10393467Y-16505436D01*
X10393467Y-16505436D02*
X10383944Y-16486388D01*
X10383944Y-16486388D02*
X10374420Y-16448293D01*
X10374420Y-16448293D02*
X10374420Y-16400674D01*
X10374420Y-16400674D02*
X10383944Y-16362579D01*
X10383944Y-16362579D02*
X10393467Y-16343531D01*
X10393467Y-16343531D02*
X10402991Y-16334008D01*
X10402991Y-16334008D02*
X10422039Y-16324484D01*
X10574420Y-16524484D02*
X10574420Y-16391150D01*
X10574420Y-16410198D02*
X10583944Y-16400674D01*
X10583944Y-16400674D02*
X10602991Y-16391150D01*
X10602991Y-16391150D02*
X10631563Y-16391150D01*
X10631563Y-16391150D02*
X10650610Y-16400674D01*
X10650610Y-16400674D02*
X10660134Y-16419722D01*
X10660134Y-16419722D02*
X10660134Y-16524484D01*
X10660134Y-16419722D02*
X10669658Y-16400674D01*
X10669658Y-16400674D02*
X10688705Y-16391150D01*
X10688705Y-16391150D02*
X10717277Y-16391150D01*
X10717277Y-16391150D02*
X10736325Y-16400674D01*
X10736325Y-16400674D02*
X10745848Y-16419722D01*
X10745848Y-16419722D02*
X10745848Y-16524484D01*
X10841086Y-16524484D02*
X10841086Y-16391150D01*
X10841086Y-16410198D02*
X10850610Y-16400674D01*
X10850610Y-16400674D02*
X10869658Y-16391150D01*
X10869658Y-16391150D02*
X10898229Y-16391150D01*
X10898229Y-16391150D02*
X10917277Y-16400674D01*
X10917277Y-16400674D02*
X10926801Y-16419722D01*
X10926801Y-16419722D02*
X10926801Y-16524484D01*
X10926801Y-16419722D02*
X10936325Y-16400674D01*
X10936325Y-16400674D02*
X10955372Y-16391150D01*
X10955372Y-16391150D02*
X10983944Y-16391150D01*
X10983944Y-16391150D02*
X11002991Y-16400674D01*
X11002991Y-16400674D02*
X11012515Y-16419722D01*
X11012515Y-16419722D02*
X11012515Y-16524484D01*
X11402991Y-16314960D02*
X11231563Y-16572103D01*
X11660134Y-16324484D02*
X11679182Y-16324484D01*
X11679182Y-16324484D02*
X11698229Y-16334008D01*
X11698229Y-16334008D02*
X11707753Y-16343531D01*
X11707753Y-16343531D02*
X11717277Y-16362579D01*
X11717277Y-16362579D02*
X11726801Y-16400674D01*
X11726801Y-16400674D02*
X11726801Y-16448293D01*
X11726801Y-16448293D02*
X11717277Y-16486388D01*
X11717277Y-16486388D02*
X11707753Y-16505436D01*
X11707753Y-16505436D02*
X11698229Y-16514960D01*
X11698229Y-16514960D02*
X11679182Y-16524484D01*
X11679182Y-16524484D02*
X11660134Y-16524484D01*
X11660134Y-16524484D02*
X11641086Y-16514960D01*
X11641086Y-16514960D02*
X11631563Y-16505436D01*
X11631563Y-16505436D02*
X11622039Y-16486388D01*
X11622039Y-16486388D02*
X11612515Y-16448293D01*
X11612515Y-16448293D02*
X11612515Y-16400674D01*
X11612515Y-16400674D02*
X11622039Y-16362579D01*
X11622039Y-16362579D02*
X11631563Y-16343531D01*
X11631563Y-16343531D02*
X11641086Y-16334008D01*
X11641086Y-16334008D02*
X11660134Y-16324484D01*
X11812515Y-16505436D02*
X11822039Y-16514960D01*
X11822039Y-16514960D02*
X11812515Y-16524484D01*
X11812515Y-16524484D02*
X11802991Y-16514960D01*
X11802991Y-16514960D02*
X11812515Y-16505436D01*
X11812515Y-16505436D02*
X11812515Y-16524484D01*
X11945848Y-16324484D02*
X11964896Y-16324484D01*
X11964896Y-16324484D02*
X11983944Y-16334008D01*
X11983944Y-16334008D02*
X11993467Y-16343531D01*
X11993467Y-16343531D02*
X12002991Y-16362579D01*
X12002991Y-16362579D02*
X12012515Y-16400674D01*
X12012515Y-16400674D02*
X12012515Y-16448293D01*
X12012515Y-16448293D02*
X12002991Y-16486388D01*
X12002991Y-16486388D02*
X11993467Y-16505436D01*
X11993467Y-16505436D02*
X11983944Y-16514960D01*
X11983944Y-16514960D02*
X11964896Y-16524484D01*
X11964896Y-16524484D02*
X11945848Y-16524484D01*
X11945848Y-16524484D02*
X11926801Y-16514960D01*
X11926801Y-16514960D02*
X11917277Y-16505436D01*
X11917277Y-16505436D02*
X11907753Y-16486388D01*
X11907753Y-16486388D02*
X11898229Y-16448293D01*
X11898229Y-16448293D02*
X11898229Y-16400674D01*
X11898229Y-16400674D02*
X11907753Y-16362579D01*
X11907753Y-16362579D02*
X11917277Y-16343531D01*
X11917277Y-16343531D02*
X11926801Y-16334008D01*
X11926801Y-16334008D02*
X11945848Y-16324484D01*
X12079182Y-16324484D02*
X12202991Y-16324484D01*
X12202991Y-16324484D02*
X12136325Y-16400674D01*
X12136325Y-16400674D02*
X12164896Y-16400674D01*
X12164896Y-16400674D02*
X12183944Y-16410198D01*
X12183944Y-16410198D02*
X12193467Y-16419722D01*
X12193467Y-16419722D02*
X12202991Y-16438769D01*
X12202991Y-16438769D02*
X12202991Y-16486388D01*
X12202991Y-16486388D02*
X12193467Y-16505436D01*
X12193467Y-16505436D02*
X12183944Y-16514960D01*
X12183944Y-16514960D02*
X12164896Y-16524484D01*
X12164896Y-16524484D02*
X12107753Y-16524484D01*
X12107753Y-16524484D02*
X12088706Y-16514960D01*
X12088706Y-16514960D02*
X12079182Y-16505436D01*
X12298229Y-16524484D02*
X12336325Y-16524484D01*
X12336325Y-16524484D02*
X12355372Y-16514960D01*
X12355372Y-16514960D02*
X12364896Y-16505436D01*
X12364896Y-16505436D02*
X12383944Y-16476865D01*
X12383944Y-16476865D02*
X12393467Y-16438769D01*
X12393467Y-16438769D02*
X12393467Y-16362579D01*
X12393467Y-16362579D02*
X12383944Y-16343531D01*
X12383944Y-16343531D02*
X12374420Y-16334008D01*
X12374420Y-16334008D02*
X12355372Y-16324484D01*
X12355372Y-16324484D02*
X12317277Y-16324484D01*
X12317277Y-16324484D02*
X12298229Y-16334008D01*
X12298229Y-16334008D02*
X12288706Y-16343531D01*
X12288706Y-16343531D02*
X12279182Y-16362579D01*
X12279182Y-16362579D02*
X12279182Y-16410198D01*
X12279182Y-16410198D02*
X12288706Y-16429246D01*
X12288706Y-16429246D02*
X12298229Y-16438769D01*
X12298229Y-16438769D02*
X12317277Y-16448293D01*
X12317277Y-16448293D02*
X12355372Y-16448293D01*
X12355372Y-16448293D02*
X12374420Y-16438769D01*
X12374420Y-16438769D02*
X12383944Y-16429246D01*
X12383944Y-16429246D02*
X12393467Y-16410198D01*
X12564896Y-16391150D02*
X12564896Y-16524484D01*
X12517277Y-16314960D02*
X12469658Y-16457817D01*
X12469658Y-16457817D02*
X12593467Y-16457817D01*
X12660134Y-16324484D02*
X12660134Y-16362579D01*
X12736325Y-16324484D02*
X12736325Y-16362579D01*
X13031563Y-16600674D02*
X13022039Y-16591150D01*
X13022039Y-16591150D02*
X13002991Y-16562579D01*
X13002991Y-16562579D02*
X12993468Y-16543531D01*
X12993468Y-16543531D02*
X12983944Y-16514960D01*
X12983944Y-16514960D02*
X12974420Y-16467341D01*
X12974420Y-16467341D02*
X12974420Y-16429246D01*
X12974420Y-16429246D02*
X12983944Y-16381627D01*
X12983944Y-16381627D02*
X12993468Y-16353055D01*
X12993468Y-16353055D02*
X13002991Y-16334008D01*
X13002991Y-16334008D02*
X13022039Y-16305436D01*
X13022039Y-16305436D02*
X13031563Y-16295912D01*
X13088706Y-16324484D02*
X13212515Y-16324484D01*
X13212515Y-16324484D02*
X13145848Y-16400674D01*
X13145848Y-16400674D02*
X13174420Y-16400674D01*
X13174420Y-16400674D02*
X13193468Y-16410198D01*
X13193468Y-16410198D02*
X13202991Y-16419722D01*
X13202991Y-16419722D02*
X13212515Y-16438769D01*
X13212515Y-16438769D02*
X13212515Y-16486388D01*
X13212515Y-16486388D02*
X13202991Y-16505436D01*
X13202991Y-16505436D02*
X13193468Y-16514960D01*
X13193468Y-16514960D02*
X13174420Y-16524484D01*
X13174420Y-16524484D02*
X13117277Y-16524484D01*
X13117277Y-16524484D02*
X13098229Y-16514960D01*
X13098229Y-16514960D02*
X13088706Y-16505436D01*
X13288706Y-16343531D02*
X13298229Y-16334008D01*
X13298229Y-16334008D02*
X13317277Y-16324484D01*
X13317277Y-16324484D02*
X13364896Y-16324484D01*
X13364896Y-16324484D02*
X13383944Y-16334008D01*
X13383944Y-16334008D02*
X13393468Y-16343531D01*
X13393468Y-16343531D02*
X13402991Y-16362579D01*
X13402991Y-16362579D02*
X13402991Y-16381627D01*
X13402991Y-16381627D02*
X13393468Y-16410198D01*
X13393468Y-16410198D02*
X13279182Y-16524484D01*
X13279182Y-16524484D02*
X13402991Y-16524484D01*
X13641087Y-16524484D02*
X13641087Y-16324484D01*
X13726801Y-16524484D02*
X13726801Y-16419722D01*
X13726801Y-16419722D02*
X13717277Y-16400674D01*
X13717277Y-16400674D02*
X13698230Y-16391150D01*
X13698230Y-16391150D02*
X13669658Y-16391150D01*
X13669658Y-16391150D02*
X13650610Y-16400674D01*
X13650610Y-16400674D02*
X13641087Y-16410198D01*
X13850610Y-16524484D02*
X13831563Y-16514960D01*
X13831563Y-16514960D02*
X13822039Y-16505436D01*
X13822039Y-16505436D02*
X13812515Y-16486388D01*
X13812515Y-16486388D02*
X13812515Y-16429246D01*
X13812515Y-16429246D02*
X13822039Y-16410198D01*
X13822039Y-16410198D02*
X13831563Y-16400674D01*
X13831563Y-16400674D02*
X13850610Y-16391150D01*
X13850610Y-16391150D02*
X13879182Y-16391150D01*
X13879182Y-16391150D02*
X13898230Y-16400674D01*
X13898230Y-16400674D02*
X13907753Y-16410198D01*
X13907753Y-16410198D02*
X13917277Y-16429246D01*
X13917277Y-16429246D02*
X13917277Y-16486388D01*
X13917277Y-16486388D02*
X13907753Y-16505436D01*
X13907753Y-16505436D02*
X13898230Y-16514960D01*
X13898230Y-16514960D02*
X13879182Y-16524484D01*
X13879182Y-16524484D02*
X13850610Y-16524484D01*
X14031563Y-16524484D02*
X14012515Y-16514960D01*
X14012515Y-16514960D02*
X14002991Y-16495912D01*
X14002991Y-16495912D02*
X14002991Y-16324484D01*
X14183944Y-16514960D02*
X14164896Y-16524484D01*
X14164896Y-16524484D02*
X14126801Y-16524484D01*
X14126801Y-16524484D02*
X14107753Y-16514960D01*
X14107753Y-16514960D02*
X14098230Y-16495912D01*
X14098230Y-16495912D02*
X14098230Y-16419722D01*
X14098230Y-16419722D02*
X14107753Y-16400674D01*
X14107753Y-16400674D02*
X14126801Y-16391150D01*
X14126801Y-16391150D02*
X14164896Y-16391150D01*
X14164896Y-16391150D02*
X14183944Y-16400674D01*
X14183944Y-16400674D02*
X14193468Y-16419722D01*
X14193468Y-16419722D02*
X14193468Y-16438769D01*
X14193468Y-16438769D02*
X14098230Y-16457817D01*
X14269658Y-16514960D02*
X14288706Y-16524484D01*
X14288706Y-16524484D02*
X14326801Y-16524484D01*
X14326801Y-16524484D02*
X14345849Y-16514960D01*
X14345849Y-16514960D02*
X14355372Y-16495912D01*
X14355372Y-16495912D02*
X14355372Y-16486388D01*
X14355372Y-16486388D02*
X14345849Y-16467341D01*
X14345849Y-16467341D02*
X14326801Y-16457817D01*
X14326801Y-16457817D02*
X14298230Y-16457817D01*
X14298230Y-16457817D02*
X14279182Y-16448293D01*
X14279182Y-16448293D02*
X14269658Y-16429246D01*
X14269658Y-16429246D02*
X14269658Y-16419722D01*
X14269658Y-16419722D02*
X14279182Y-16400674D01*
X14279182Y-16400674D02*
X14298230Y-16391150D01*
X14298230Y-16391150D02*
X14326801Y-16391150D01*
X14326801Y-16391150D02*
X14345849Y-16400674D01*
X14422039Y-16600674D02*
X14431563Y-16591150D01*
X14431563Y-16591150D02*
X14450611Y-16562579D01*
X14450611Y-16562579D02*
X14460134Y-16543531D01*
X14460134Y-16543531D02*
X14469658Y-16514960D01*
X14469658Y-16514960D02*
X14479182Y-16467341D01*
X14479182Y-16467341D02*
X14479182Y-16429246D01*
X14479182Y-16429246D02*
X14469658Y-16381627D01*
X14469658Y-16381627D02*
X14460134Y-16353055D01*
X14460134Y-16353055D02*
X14450611Y-16334008D01*
X14450611Y-16334008D02*
X14431563Y-16305436D01*
X14431563Y-16305436D02*
X14422039Y-16295912D01*
D12*
X9354500Y-16646000D02*
X9456500Y-16748000D01*
X9456500Y-16646000D02*
X9354500Y-16748000D01*
X9456500Y-16697000D02*
G75*
G03*
X9354500Y-16697000I-51000J0D01*
G01*
X9354500Y-16697000D02*
G75*
G03*
X9456500Y-16697000I51000J0D01*
G01*
D11*
X9822039Y-16788484D02*
X9707753Y-16788484D01*
X9764896Y-16788484D02*
X9764896Y-16588484D01*
X9764896Y-16588484D02*
X9745848Y-16617055D01*
X9745848Y-16617055D02*
X9726801Y-16636103D01*
X9726801Y-16636103D02*
X9707753Y-16645627D01*
X9907753Y-16769436D02*
X9917277Y-16778960D01*
X9917277Y-16778960D02*
X9907753Y-16788484D01*
X9907753Y-16788484D02*
X9898229Y-16778960D01*
X9898229Y-16778960D02*
X9907753Y-16769436D01*
X9907753Y-16769436D02*
X9907753Y-16788484D01*
X10041086Y-16588484D02*
X10060134Y-16588484D01*
X10060134Y-16588484D02*
X10079182Y-16598008D01*
X10079182Y-16598008D02*
X10088705Y-16607531D01*
X10088705Y-16607531D02*
X10098229Y-16626579D01*
X10098229Y-16626579D02*
X10107753Y-16664674D01*
X10107753Y-16664674D02*
X10107753Y-16712293D01*
X10107753Y-16712293D02*
X10098229Y-16750388D01*
X10098229Y-16750388D02*
X10088705Y-16769436D01*
X10088705Y-16769436D02*
X10079182Y-16778960D01*
X10079182Y-16778960D02*
X10060134Y-16788484D01*
X10060134Y-16788484D02*
X10041086Y-16788484D01*
X10041086Y-16788484D02*
X10022039Y-16778960D01*
X10022039Y-16778960D02*
X10012515Y-16769436D01*
X10012515Y-16769436D02*
X10002991Y-16750388D01*
X10002991Y-16750388D02*
X9993467Y-16712293D01*
X9993467Y-16712293D02*
X9993467Y-16664674D01*
X9993467Y-16664674D02*
X10002991Y-16626579D01*
X10002991Y-16626579D02*
X10012515Y-16607531D01*
X10012515Y-16607531D02*
X10022039Y-16598008D01*
X10022039Y-16598008D02*
X10041086Y-16588484D01*
X10183944Y-16607531D02*
X10193467Y-16598008D01*
X10193467Y-16598008D02*
X10212515Y-16588484D01*
X10212515Y-16588484D02*
X10260134Y-16588484D01*
X10260134Y-16588484D02*
X10279182Y-16598008D01*
X10279182Y-16598008D02*
X10288705Y-16607531D01*
X10288705Y-16607531D02*
X10298229Y-16626579D01*
X10298229Y-16626579D02*
X10298229Y-16645627D01*
X10298229Y-16645627D02*
X10288705Y-16674198D01*
X10288705Y-16674198D02*
X10174420Y-16788484D01*
X10174420Y-16788484D02*
X10298229Y-16788484D01*
X10422039Y-16588484D02*
X10441086Y-16588484D01*
X10441086Y-16588484D02*
X10460134Y-16598008D01*
X10460134Y-16598008D02*
X10469658Y-16607531D01*
X10469658Y-16607531D02*
X10479182Y-16626579D01*
X10479182Y-16626579D02*
X10488705Y-16664674D01*
X10488705Y-16664674D02*
X10488705Y-16712293D01*
X10488705Y-16712293D02*
X10479182Y-16750388D01*
X10479182Y-16750388D02*
X10469658Y-16769436D01*
X10469658Y-16769436D02*
X10460134Y-16778960D01*
X10460134Y-16778960D02*
X10441086Y-16788484D01*
X10441086Y-16788484D02*
X10422039Y-16788484D01*
X10422039Y-16788484D02*
X10402991Y-16778960D01*
X10402991Y-16778960D02*
X10393467Y-16769436D01*
X10393467Y-16769436D02*
X10383944Y-16750388D01*
X10383944Y-16750388D02*
X10374420Y-16712293D01*
X10374420Y-16712293D02*
X10374420Y-16664674D01*
X10374420Y-16664674D02*
X10383944Y-16626579D01*
X10383944Y-16626579D02*
X10393467Y-16607531D01*
X10393467Y-16607531D02*
X10402991Y-16598008D01*
X10402991Y-16598008D02*
X10422039Y-16588484D01*
X10574420Y-16788484D02*
X10574420Y-16655150D01*
X10574420Y-16674198D02*
X10583944Y-16664674D01*
X10583944Y-16664674D02*
X10602991Y-16655150D01*
X10602991Y-16655150D02*
X10631563Y-16655150D01*
X10631563Y-16655150D02*
X10650610Y-16664674D01*
X10650610Y-16664674D02*
X10660134Y-16683722D01*
X10660134Y-16683722D02*
X10660134Y-16788484D01*
X10660134Y-16683722D02*
X10669658Y-16664674D01*
X10669658Y-16664674D02*
X10688705Y-16655150D01*
X10688705Y-16655150D02*
X10717277Y-16655150D01*
X10717277Y-16655150D02*
X10736325Y-16664674D01*
X10736325Y-16664674D02*
X10745848Y-16683722D01*
X10745848Y-16683722D02*
X10745848Y-16788484D01*
X10841086Y-16788484D02*
X10841086Y-16655150D01*
X10841086Y-16674198D02*
X10850610Y-16664674D01*
X10850610Y-16664674D02*
X10869658Y-16655150D01*
X10869658Y-16655150D02*
X10898229Y-16655150D01*
X10898229Y-16655150D02*
X10917277Y-16664674D01*
X10917277Y-16664674D02*
X10926801Y-16683722D01*
X10926801Y-16683722D02*
X10926801Y-16788484D01*
X10926801Y-16683722D02*
X10936325Y-16664674D01*
X10936325Y-16664674D02*
X10955372Y-16655150D01*
X10955372Y-16655150D02*
X10983944Y-16655150D01*
X10983944Y-16655150D02*
X11002991Y-16664674D01*
X11002991Y-16664674D02*
X11012515Y-16683722D01*
X11012515Y-16683722D02*
X11012515Y-16788484D01*
X11402991Y-16578960D02*
X11231563Y-16836103D01*
X11660134Y-16588484D02*
X11679182Y-16588484D01*
X11679182Y-16588484D02*
X11698229Y-16598008D01*
X11698229Y-16598008D02*
X11707753Y-16607531D01*
X11707753Y-16607531D02*
X11717277Y-16626579D01*
X11717277Y-16626579D02*
X11726801Y-16664674D01*
X11726801Y-16664674D02*
X11726801Y-16712293D01*
X11726801Y-16712293D02*
X11717277Y-16750388D01*
X11717277Y-16750388D02*
X11707753Y-16769436D01*
X11707753Y-16769436D02*
X11698229Y-16778960D01*
X11698229Y-16778960D02*
X11679182Y-16788484D01*
X11679182Y-16788484D02*
X11660134Y-16788484D01*
X11660134Y-16788484D02*
X11641086Y-16778960D01*
X11641086Y-16778960D02*
X11631563Y-16769436D01*
X11631563Y-16769436D02*
X11622039Y-16750388D01*
X11622039Y-16750388D02*
X11612515Y-16712293D01*
X11612515Y-16712293D02*
X11612515Y-16664674D01*
X11612515Y-16664674D02*
X11622039Y-16626579D01*
X11622039Y-16626579D02*
X11631563Y-16607531D01*
X11631563Y-16607531D02*
X11641086Y-16598008D01*
X11641086Y-16598008D02*
X11660134Y-16588484D01*
X11812515Y-16769436D02*
X11822039Y-16778960D01*
X11822039Y-16778960D02*
X11812515Y-16788484D01*
X11812515Y-16788484D02*
X11802991Y-16778960D01*
X11802991Y-16778960D02*
X11812515Y-16769436D01*
X11812515Y-16769436D02*
X11812515Y-16788484D01*
X11945848Y-16588484D02*
X11964896Y-16588484D01*
X11964896Y-16588484D02*
X11983944Y-16598008D01*
X11983944Y-16598008D02*
X11993467Y-16607531D01*
X11993467Y-16607531D02*
X12002991Y-16626579D01*
X12002991Y-16626579D02*
X12012515Y-16664674D01*
X12012515Y-16664674D02*
X12012515Y-16712293D01*
X12012515Y-16712293D02*
X12002991Y-16750388D01*
X12002991Y-16750388D02*
X11993467Y-16769436D01*
X11993467Y-16769436D02*
X11983944Y-16778960D01*
X11983944Y-16778960D02*
X11964896Y-16788484D01*
X11964896Y-16788484D02*
X11945848Y-16788484D01*
X11945848Y-16788484D02*
X11926801Y-16778960D01*
X11926801Y-16778960D02*
X11917277Y-16769436D01*
X11917277Y-16769436D02*
X11907753Y-16750388D01*
X11907753Y-16750388D02*
X11898229Y-16712293D01*
X11898229Y-16712293D02*
X11898229Y-16664674D01*
X11898229Y-16664674D02*
X11907753Y-16626579D01*
X11907753Y-16626579D02*
X11917277Y-16607531D01*
X11917277Y-16607531D02*
X11926801Y-16598008D01*
X11926801Y-16598008D02*
X11945848Y-16588484D01*
X12183944Y-16655150D02*
X12183944Y-16788484D01*
X12136325Y-16578960D02*
X12088706Y-16721817D01*
X12088706Y-16721817D02*
X12212515Y-16721817D01*
X12326801Y-16588484D02*
X12345848Y-16588484D01*
X12345848Y-16588484D02*
X12364896Y-16598008D01*
X12364896Y-16598008D02*
X12374420Y-16607531D01*
X12374420Y-16607531D02*
X12383944Y-16626579D01*
X12383944Y-16626579D02*
X12393467Y-16664674D01*
X12393467Y-16664674D02*
X12393467Y-16712293D01*
X12393467Y-16712293D02*
X12383944Y-16750388D01*
X12383944Y-16750388D02*
X12374420Y-16769436D01*
X12374420Y-16769436D02*
X12364896Y-16778960D01*
X12364896Y-16778960D02*
X12345848Y-16788484D01*
X12345848Y-16788484D02*
X12326801Y-16788484D01*
X12326801Y-16788484D02*
X12307753Y-16778960D01*
X12307753Y-16778960D02*
X12298229Y-16769436D01*
X12298229Y-16769436D02*
X12288706Y-16750388D01*
X12288706Y-16750388D02*
X12279182Y-16712293D01*
X12279182Y-16712293D02*
X12279182Y-16664674D01*
X12279182Y-16664674D02*
X12288706Y-16626579D01*
X12288706Y-16626579D02*
X12298229Y-16607531D01*
X12298229Y-16607531D02*
X12307753Y-16598008D01*
X12307753Y-16598008D02*
X12326801Y-16588484D01*
X12469658Y-16607531D02*
X12479182Y-16598008D01*
X12479182Y-16598008D02*
X12498229Y-16588484D01*
X12498229Y-16588484D02*
X12545848Y-16588484D01*
X12545848Y-16588484D02*
X12564896Y-16598008D01*
X12564896Y-16598008D02*
X12574420Y-16607531D01*
X12574420Y-16607531D02*
X12583944Y-16626579D01*
X12583944Y-16626579D02*
X12583944Y-16645627D01*
X12583944Y-16645627D02*
X12574420Y-16674198D01*
X12574420Y-16674198D02*
X12460134Y-16788484D01*
X12460134Y-16788484D02*
X12583944Y-16788484D01*
X12660134Y-16588484D02*
X12660134Y-16626579D01*
X12736325Y-16588484D02*
X12736325Y-16626579D01*
X13031563Y-16864674D02*
X13022039Y-16855150D01*
X13022039Y-16855150D02*
X13002991Y-16826579D01*
X13002991Y-16826579D02*
X12993468Y-16807531D01*
X12993468Y-16807531D02*
X12983944Y-16778960D01*
X12983944Y-16778960D02*
X12974420Y-16731341D01*
X12974420Y-16731341D02*
X12974420Y-16693246D01*
X12974420Y-16693246D02*
X12983944Y-16645627D01*
X12983944Y-16645627D02*
X12993468Y-16617055D01*
X12993468Y-16617055D02*
X13002991Y-16598008D01*
X13002991Y-16598008D02*
X13022039Y-16569436D01*
X13022039Y-16569436D02*
X13031563Y-16559912D01*
X13202991Y-16588484D02*
X13107753Y-16588484D01*
X13107753Y-16588484D02*
X13098229Y-16683722D01*
X13098229Y-16683722D02*
X13107753Y-16674198D01*
X13107753Y-16674198D02*
X13126801Y-16664674D01*
X13126801Y-16664674D02*
X13174420Y-16664674D01*
X13174420Y-16664674D02*
X13193468Y-16674198D01*
X13193468Y-16674198D02*
X13202991Y-16683722D01*
X13202991Y-16683722D02*
X13212515Y-16702769D01*
X13212515Y-16702769D02*
X13212515Y-16750388D01*
X13212515Y-16750388D02*
X13202991Y-16769436D01*
X13202991Y-16769436D02*
X13193468Y-16778960D01*
X13193468Y-16778960D02*
X13174420Y-16788484D01*
X13174420Y-16788484D02*
X13126801Y-16788484D01*
X13126801Y-16788484D02*
X13107753Y-16778960D01*
X13107753Y-16778960D02*
X13098229Y-16769436D01*
X13402991Y-16788484D02*
X13288706Y-16788484D01*
X13345848Y-16788484D02*
X13345848Y-16588484D01*
X13345848Y-16588484D02*
X13326801Y-16617055D01*
X13326801Y-16617055D02*
X13307753Y-16636103D01*
X13307753Y-16636103D02*
X13288706Y-16645627D01*
X13641087Y-16788484D02*
X13641087Y-16588484D01*
X13726801Y-16788484D02*
X13726801Y-16683722D01*
X13726801Y-16683722D02*
X13717277Y-16664674D01*
X13717277Y-16664674D02*
X13698230Y-16655150D01*
X13698230Y-16655150D02*
X13669658Y-16655150D01*
X13669658Y-16655150D02*
X13650610Y-16664674D01*
X13650610Y-16664674D02*
X13641087Y-16674198D01*
X13850610Y-16788484D02*
X13831563Y-16778960D01*
X13831563Y-16778960D02*
X13822039Y-16769436D01*
X13822039Y-16769436D02*
X13812515Y-16750388D01*
X13812515Y-16750388D02*
X13812515Y-16693246D01*
X13812515Y-16693246D02*
X13822039Y-16674198D01*
X13822039Y-16674198D02*
X13831563Y-16664674D01*
X13831563Y-16664674D02*
X13850610Y-16655150D01*
X13850610Y-16655150D02*
X13879182Y-16655150D01*
X13879182Y-16655150D02*
X13898230Y-16664674D01*
X13898230Y-16664674D02*
X13907753Y-16674198D01*
X13907753Y-16674198D02*
X13917277Y-16693246D01*
X13917277Y-16693246D02*
X13917277Y-16750388D01*
X13917277Y-16750388D02*
X13907753Y-16769436D01*
X13907753Y-16769436D02*
X13898230Y-16778960D01*
X13898230Y-16778960D02*
X13879182Y-16788484D01*
X13879182Y-16788484D02*
X13850610Y-16788484D01*
X14031563Y-16788484D02*
X14012515Y-16778960D01*
X14012515Y-16778960D02*
X14002991Y-16759912D01*
X14002991Y-16759912D02*
X14002991Y-16588484D01*
X14183944Y-16778960D02*
X14164896Y-16788484D01*
X14164896Y-16788484D02*
X14126801Y-16788484D01*
X14126801Y-16788484D02*
X14107753Y-16778960D01*
X14107753Y-16778960D02*
X14098230Y-16759912D01*
X14098230Y-16759912D02*
X14098230Y-16683722D01*
X14098230Y-16683722D02*
X14107753Y-16664674D01*
X14107753Y-16664674D02*
X14126801Y-16655150D01*
X14126801Y-16655150D02*
X14164896Y-16655150D01*
X14164896Y-16655150D02*
X14183944Y-16664674D01*
X14183944Y-16664674D02*
X14193468Y-16683722D01*
X14193468Y-16683722D02*
X14193468Y-16702769D01*
X14193468Y-16702769D02*
X14098230Y-16721817D01*
X14269658Y-16778960D02*
X14288706Y-16788484D01*
X14288706Y-16788484D02*
X14326801Y-16788484D01*
X14326801Y-16788484D02*
X14345849Y-16778960D01*
X14345849Y-16778960D02*
X14355372Y-16759912D01*
X14355372Y-16759912D02*
X14355372Y-16750388D01*
X14355372Y-16750388D02*
X14345849Y-16731341D01*
X14345849Y-16731341D02*
X14326801Y-16721817D01*
X14326801Y-16721817D02*
X14298230Y-16721817D01*
X14298230Y-16721817D02*
X14279182Y-16712293D01*
X14279182Y-16712293D02*
X14269658Y-16693246D01*
X14269658Y-16693246D02*
X14269658Y-16683722D01*
X14269658Y-16683722D02*
X14279182Y-16664674D01*
X14279182Y-16664674D02*
X14298230Y-16655150D01*
X14298230Y-16655150D02*
X14326801Y-16655150D01*
X14326801Y-16655150D02*
X14345849Y-16664674D01*
X14422039Y-16864674D02*
X14431563Y-16855150D01*
X14431563Y-16855150D02*
X14450611Y-16826579D01*
X14450611Y-16826579D02*
X14460134Y-16807531D01*
X14460134Y-16807531D02*
X14469658Y-16778960D01*
X14469658Y-16778960D02*
X14479182Y-16731341D01*
X14479182Y-16731341D02*
X14479182Y-16693246D01*
X14479182Y-16693246D02*
X14469658Y-16645627D01*
X14469658Y-16645627D02*
X14460134Y-16617055D01*
X14460134Y-16617055D02*
X14450611Y-16598008D01*
X14450611Y-16598008D02*
X14431563Y-16569436D01*
X14431563Y-16569436D02*
X14422039Y-16559912D01*
D13*
X9346500Y-16906000D02*
X9456500Y-17016000D01*
X9456500Y-16906000D02*
X9346500Y-17016000D01*
X9401500Y-16906000D02*
X9401500Y-17016000D01*
X9346500Y-16961000D02*
X9456500Y-16961000D01*
D11*
X9822039Y-17052484D02*
X9707753Y-17052484D01*
X9764896Y-17052484D02*
X9764896Y-16852484D01*
X9764896Y-16852484D02*
X9745848Y-16881055D01*
X9745848Y-16881055D02*
X9726801Y-16900103D01*
X9726801Y-16900103D02*
X9707753Y-16909627D01*
X9907753Y-17033436D02*
X9917277Y-17042960D01*
X9917277Y-17042960D02*
X9907753Y-17052484D01*
X9907753Y-17052484D02*
X9898229Y-17042960D01*
X9898229Y-17042960D02*
X9907753Y-17033436D01*
X9907753Y-17033436D02*
X9907753Y-17052484D01*
X10107753Y-17052484D02*
X9993467Y-17052484D01*
X10050610Y-17052484D02*
X10050610Y-16852484D01*
X10050610Y-16852484D02*
X10031563Y-16881055D01*
X10031563Y-16881055D02*
X10012515Y-16900103D01*
X10012515Y-16900103D02*
X9993467Y-16909627D01*
X10231563Y-16852484D02*
X10250610Y-16852484D01*
X10250610Y-16852484D02*
X10269658Y-16862008D01*
X10269658Y-16862008D02*
X10279182Y-16871531D01*
X10279182Y-16871531D02*
X10288705Y-16890579D01*
X10288705Y-16890579D02*
X10298229Y-16928674D01*
X10298229Y-16928674D02*
X10298229Y-16976293D01*
X10298229Y-16976293D02*
X10288705Y-17014389D01*
X10288705Y-17014389D02*
X10279182Y-17033436D01*
X10279182Y-17033436D02*
X10269658Y-17042960D01*
X10269658Y-17042960D02*
X10250610Y-17052484D01*
X10250610Y-17052484D02*
X10231563Y-17052484D01*
X10231563Y-17052484D02*
X10212515Y-17042960D01*
X10212515Y-17042960D02*
X10202991Y-17033436D01*
X10202991Y-17033436D02*
X10193467Y-17014389D01*
X10193467Y-17014389D02*
X10183944Y-16976293D01*
X10183944Y-16976293D02*
X10183944Y-16928674D01*
X10183944Y-16928674D02*
X10193467Y-16890579D01*
X10193467Y-16890579D02*
X10202991Y-16871531D01*
X10202991Y-16871531D02*
X10212515Y-16862008D01*
X10212515Y-16862008D02*
X10231563Y-16852484D01*
X10422039Y-16852484D02*
X10441086Y-16852484D01*
X10441086Y-16852484D02*
X10460134Y-16862008D01*
X10460134Y-16862008D02*
X10469658Y-16871531D01*
X10469658Y-16871531D02*
X10479182Y-16890579D01*
X10479182Y-16890579D02*
X10488705Y-16928674D01*
X10488705Y-16928674D02*
X10488705Y-16976293D01*
X10488705Y-16976293D02*
X10479182Y-17014389D01*
X10479182Y-17014389D02*
X10469658Y-17033436D01*
X10469658Y-17033436D02*
X10460134Y-17042960D01*
X10460134Y-17042960D02*
X10441086Y-17052484D01*
X10441086Y-17052484D02*
X10422039Y-17052484D01*
X10422039Y-17052484D02*
X10402991Y-17042960D01*
X10402991Y-17042960D02*
X10393467Y-17033436D01*
X10393467Y-17033436D02*
X10383944Y-17014389D01*
X10383944Y-17014389D02*
X10374420Y-16976293D01*
X10374420Y-16976293D02*
X10374420Y-16928674D01*
X10374420Y-16928674D02*
X10383944Y-16890579D01*
X10383944Y-16890579D02*
X10393467Y-16871531D01*
X10393467Y-16871531D02*
X10402991Y-16862008D01*
X10402991Y-16862008D02*
X10422039Y-16852484D01*
X10574420Y-17052484D02*
X10574420Y-16919150D01*
X10574420Y-16938198D02*
X10583944Y-16928674D01*
X10583944Y-16928674D02*
X10602991Y-16919150D01*
X10602991Y-16919150D02*
X10631563Y-16919150D01*
X10631563Y-16919150D02*
X10650610Y-16928674D01*
X10650610Y-16928674D02*
X10660134Y-16947722D01*
X10660134Y-16947722D02*
X10660134Y-17052484D01*
X10660134Y-16947722D02*
X10669658Y-16928674D01*
X10669658Y-16928674D02*
X10688705Y-16919150D01*
X10688705Y-16919150D02*
X10717277Y-16919150D01*
X10717277Y-16919150D02*
X10736325Y-16928674D01*
X10736325Y-16928674D02*
X10745848Y-16947722D01*
X10745848Y-16947722D02*
X10745848Y-17052484D01*
X10841086Y-17052484D02*
X10841086Y-16919150D01*
X10841086Y-16938198D02*
X10850610Y-16928674D01*
X10850610Y-16928674D02*
X10869658Y-16919150D01*
X10869658Y-16919150D02*
X10898229Y-16919150D01*
X10898229Y-16919150D02*
X10917277Y-16928674D01*
X10917277Y-16928674D02*
X10926801Y-16947722D01*
X10926801Y-16947722D02*
X10926801Y-17052484D01*
X10926801Y-16947722D02*
X10936325Y-16928674D01*
X10936325Y-16928674D02*
X10955372Y-16919150D01*
X10955372Y-16919150D02*
X10983944Y-16919150D01*
X10983944Y-16919150D02*
X11002991Y-16928674D01*
X11002991Y-16928674D02*
X11012515Y-16947722D01*
X11012515Y-16947722D02*
X11012515Y-17052484D01*
X11402991Y-16842960D02*
X11231563Y-17100103D01*
X11660134Y-16852484D02*
X11679182Y-16852484D01*
X11679182Y-16852484D02*
X11698229Y-16862008D01*
X11698229Y-16862008D02*
X11707753Y-16871531D01*
X11707753Y-16871531D02*
X11717277Y-16890579D01*
X11717277Y-16890579D02*
X11726801Y-16928674D01*
X11726801Y-16928674D02*
X11726801Y-16976293D01*
X11726801Y-16976293D02*
X11717277Y-17014389D01*
X11717277Y-17014389D02*
X11707753Y-17033436D01*
X11707753Y-17033436D02*
X11698229Y-17042960D01*
X11698229Y-17042960D02*
X11679182Y-17052484D01*
X11679182Y-17052484D02*
X11660134Y-17052484D01*
X11660134Y-17052484D02*
X11641086Y-17042960D01*
X11641086Y-17042960D02*
X11631563Y-17033436D01*
X11631563Y-17033436D02*
X11622039Y-17014389D01*
X11622039Y-17014389D02*
X11612515Y-16976293D01*
X11612515Y-16976293D02*
X11612515Y-16928674D01*
X11612515Y-16928674D02*
X11622039Y-16890579D01*
X11622039Y-16890579D02*
X11631563Y-16871531D01*
X11631563Y-16871531D02*
X11641086Y-16862008D01*
X11641086Y-16862008D02*
X11660134Y-16852484D01*
X11812515Y-17033436D02*
X11822039Y-17042960D01*
X11822039Y-17042960D02*
X11812515Y-17052484D01*
X11812515Y-17052484D02*
X11802991Y-17042960D01*
X11802991Y-17042960D02*
X11812515Y-17033436D01*
X11812515Y-17033436D02*
X11812515Y-17052484D01*
X11945848Y-16852484D02*
X11964896Y-16852484D01*
X11964896Y-16852484D02*
X11983944Y-16862008D01*
X11983944Y-16862008D02*
X11993467Y-16871531D01*
X11993467Y-16871531D02*
X12002991Y-16890579D01*
X12002991Y-16890579D02*
X12012515Y-16928674D01*
X12012515Y-16928674D02*
X12012515Y-16976293D01*
X12012515Y-16976293D02*
X12002991Y-17014389D01*
X12002991Y-17014389D02*
X11993467Y-17033436D01*
X11993467Y-17033436D02*
X11983944Y-17042960D01*
X11983944Y-17042960D02*
X11964896Y-17052484D01*
X11964896Y-17052484D02*
X11945848Y-17052484D01*
X11945848Y-17052484D02*
X11926801Y-17042960D01*
X11926801Y-17042960D02*
X11917277Y-17033436D01*
X11917277Y-17033436D02*
X11907753Y-17014389D01*
X11907753Y-17014389D02*
X11898229Y-16976293D01*
X11898229Y-16976293D02*
X11898229Y-16928674D01*
X11898229Y-16928674D02*
X11907753Y-16890579D01*
X11907753Y-16890579D02*
X11917277Y-16871531D01*
X11917277Y-16871531D02*
X11926801Y-16862008D01*
X11926801Y-16862008D02*
X11945848Y-16852484D01*
X12183944Y-16919150D02*
X12183944Y-17052484D01*
X12136325Y-16842960D02*
X12088706Y-16985817D01*
X12088706Y-16985817D02*
X12212515Y-16985817D01*
X12269658Y-16852484D02*
X12393467Y-16852484D01*
X12393467Y-16852484D02*
X12326801Y-16928674D01*
X12326801Y-16928674D02*
X12355372Y-16928674D01*
X12355372Y-16928674D02*
X12374420Y-16938198D01*
X12374420Y-16938198D02*
X12383944Y-16947722D01*
X12383944Y-16947722D02*
X12393467Y-16966770D01*
X12393467Y-16966770D02*
X12393467Y-17014389D01*
X12393467Y-17014389D02*
X12383944Y-17033436D01*
X12383944Y-17033436D02*
X12374420Y-17042960D01*
X12374420Y-17042960D02*
X12355372Y-17052484D01*
X12355372Y-17052484D02*
X12298229Y-17052484D01*
X12298229Y-17052484D02*
X12279182Y-17042960D01*
X12279182Y-17042960D02*
X12269658Y-17033436D01*
X12460134Y-16852484D02*
X12583944Y-16852484D01*
X12583944Y-16852484D02*
X12517277Y-16928674D01*
X12517277Y-16928674D02*
X12545848Y-16928674D01*
X12545848Y-16928674D02*
X12564896Y-16938198D01*
X12564896Y-16938198D02*
X12574420Y-16947722D01*
X12574420Y-16947722D02*
X12583944Y-16966770D01*
X12583944Y-16966770D02*
X12583944Y-17014389D01*
X12583944Y-17014389D02*
X12574420Y-17033436D01*
X12574420Y-17033436D02*
X12564896Y-17042960D01*
X12564896Y-17042960D02*
X12545848Y-17052484D01*
X12545848Y-17052484D02*
X12488706Y-17052484D01*
X12488706Y-17052484D02*
X12469658Y-17042960D01*
X12469658Y-17042960D02*
X12460134Y-17033436D01*
X12660134Y-16852484D02*
X12660134Y-16890579D01*
X12736325Y-16852484D02*
X12736325Y-16890579D01*
X13031563Y-17128674D02*
X13022039Y-17119150D01*
X13022039Y-17119150D02*
X13002991Y-17090579D01*
X13002991Y-17090579D02*
X12993468Y-17071531D01*
X12993468Y-17071531D02*
X12983944Y-17042960D01*
X12983944Y-17042960D02*
X12974420Y-16995341D01*
X12974420Y-16995341D02*
X12974420Y-16957246D01*
X12974420Y-16957246D02*
X12983944Y-16909627D01*
X12983944Y-16909627D02*
X12993468Y-16881055D01*
X12993468Y-16881055D02*
X13002991Y-16862008D01*
X13002991Y-16862008D02*
X13022039Y-16833436D01*
X13022039Y-16833436D02*
X13031563Y-16823912D01*
X13098229Y-16871531D02*
X13107753Y-16862008D01*
X13107753Y-16862008D02*
X13126801Y-16852484D01*
X13126801Y-16852484D02*
X13174420Y-16852484D01*
X13174420Y-16852484D02*
X13193468Y-16862008D01*
X13193468Y-16862008D02*
X13202991Y-16871531D01*
X13202991Y-16871531D02*
X13212515Y-16890579D01*
X13212515Y-16890579D02*
X13212515Y-16909627D01*
X13212515Y-16909627D02*
X13202991Y-16938198D01*
X13202991Y-16938198D02*
X13088706Y-17052484D01*
X13088706Y-17052484D02*
X13212515Y-17052484D01*
X13336325Y-16852484D02*
X13355372Y-16852484D01*
X13355372Y-16852484D02*
X13374420Y-16862008D01*
X13374420Y-16862008D02*
X13383944Y-16871531D01*
X13383944Y-16871531D02*
X13393468Y-16890579D01*
X13393468Y-16890579D02*
X13402991Y-16928674D01*
X13402991Y-16928674D02*
X13402991Y-16976293D01*
X13402991Y-16976293D02*
X13393468Y-17014389D01*
X13393468Y-17014389D02*
X13383944Y-17033436D01*
X13383944Y-17033436D02*
X13374420Y-17042960D01*
X13374420Y-17042960D02*
X13355372Y-17052484D01*
X13355372Y-17052484D02*
X13336325Y-17052484D01*
X13336325Y-17052484D02*
X13317277Y-17042960D01*
X13317277Y-17042960D02*
X13307753Y-17033436D01*
X13307753Y-17033436D02*
X13298229Y-17014389D01*
X13298229Y-17014389D02*
X13288706Y-16976293D01*
X13288706Y-16976293D02*
X13288706Y-16928674D01*
X13288706Y-16928674D02*
X13298229Y-16890579D01*
X13298229Y-16890579D02*
X13307753Y-16871531D01*
X13307753Y-16871531D02*
X13317277Y-16862008D01*
X13317277Y-16862008D02*
X13336325Y-16852484D01*
X13641087Y-17052484D02*
X13641087Y-16852484D01*
X13726801Y-17052484D02*
X13726801Y-16947722D01*
X13726801Y-16947722D02*
X13717277Y-16928674D01*
X13717277Y-16928674D02*
X13698230Y-16919150D01*
X13698230Y-16919150D02*
X13669658Y-16919150D01*
X13669658Y-16919150D02*
X13650610Y-16928674D01*
X13650610Y-16928674D02*
X13641087Y-16938198D01*
X13850610Y-17052484D02*
X13831563Y-17042960D01*
X13831563Y-17042960D02*
X13822039Y-17033436D01*
X13822039Y-17033436D02*
X13812515Y-17014389D01*
X13812515Y-17014389D02*
X13812515Y-16957246D01*
X13812515Y-16957246D02*
X13822039Y-16938198D01*
X13822039Y-16938198D02*
X13831563Y-16928674D01*
X13831563Y-16928674D02*
X13850610Y-16919150D01*
X13850610Y-16919150D02*
X13879182Y-16919150D01*
X13879182Y-16919150D02*
X13898230Y-16928674D01*
X13898230Y-16928674D02*
X13907753Y-16938198D01*
X13907753Y-16938198D02*
X13917277Y-16957246D01*
X13917277Y-16957246D02*
X13917277Y-17014389D01*
X13917277Y-17014389D02*
X13907753Y-17033436D01*
X13907753Y-17033436D02*
X13898230Y-17042960D01*
X13898230Y-17042960D02*
X13879182Y-17052484D01*
X13879182Y-17052484D02*
X13850610Y-17052484D01*
X14031563Y-17052484D02*
X14012515Y-17042960D01*
X14012515Y-17042960D02*
X14002991Y-17023912D01*
X14002991Y-17023912D02*
X14002991Y-16852484D01*
X14183944Y-17042960D02*
X14164896Y-17052484D01*
X14164896Y-17052484D02*
X14126801Y-17052484D01*
X14126801Y-17052484D02*
X14107753Y-17042960D01*
X14107753Y-17042960D02*
X14098230Y-17023912D01*
X14098230Y-17023912D02*
X14098230Y-16947722D01*
X14098230Y-16947722D02*
X14107753Y-16928674D01*
X14107753Y-16928674D02*
X14126801Y-16919150D01*
X14126801Y-16919150D02*
X14164896Y-16919150D01*
X14164896Y-16919150D02*
X14183944Y-16928674D01*
X14183944Y-16928674D02*
X14193468Y-16947722D01*
X14193468Y-16947722D02*
X14193468Y-16966770D01*
X14193468Y-16966770D02*
X14098230Y-16985817D01*
X14269658Y-17042960D02*
X14288706Y-17052484D01*
X14288706Y-17052484D02*
X14326801Y-17052484D01*
X14326801Y-17052484D02*
X14345849Y-17042960D01*
X14345849Y-17042960D02*
X14355372Y-17023912D01*
X14355372Y-17023912D02*
X14355372Y-17014389D01*
X14355372Y-17014389D02*
X14345849Y-16995341D01*
X14345849Y-16995341D02*
X14326801Y-16985817D01*
X14326801Y-16985817D02*
X14298230Y-16985817D01*
X14298230Y-16985817D02*
X14279182Y-16976293D01*
X14279182Y-16976293D02*
X14269658Y-16957246D01*
X14269658Y-16957246D02*
X14269658Y-16947722D01*
X14269658Y-16947722D02*
X14279182Y-16928674D01*
X14279182Y-16928674D02*
X14298230Y-16919150D01*
X14298230Y-16919150D02*
X14326801Y-16919150D01*
X14326801Y-16919150D02*
X14345849Y-16928674D01*
X14422039Y-17128674D02*
X14431563Y-17119150D01*
X14431563Y-17119150D02*
X14450611Y-17090579D01*
X14450611Y-17090579D02*
X14460134Y-17071531D01*
X14460134Y-17071531D02*
X14469658Y-17042960D01*
X14469658Y-17042960D02*
X14479182Y-16995341D01*
X14479182Y-16995341D02*
X14479182Y-16957246D01*
X14479182Y-16957246D02*
X14469658Y-16909627D01*
X14469658Y-16909627D02*
X14460134Y-16881055D01*
X14460134Y-16881055D02*
X14450611Y-16862008D01*
X14450611Y-16862008D02*
X14431563Y-16833436D01*
X14431563Y-16833436D02*
X14422039Y-16823912D01*
D14*
X9296500Y-17145000D02*
X9456500Y-17305000D01*
X9456500Y-17145000D02*
X9296500Y-17305000D01*
X9433069Y-17281569D02*
X9433069Y-17168431D01*
X9319931Y-17168431D01*
X9319931Y-17281569D01*
X9433069Y-17281569D01*
D11*
X9822039Y-17316484D02*
X9707753Y-17316484D01*
X9764896Y-17316484D02*
X9764896Y-17116484D01*
X9764896Y-17116484D02*
X9745848Y-17145055D01*
X9745848Y-17145055D02*
X9726801Y-17164103D01*
X9726801Y-17164103D02*
X9707753Y-17173627D01*
X9907753Y-17297436D02*
X9917277Y-17306960D01*
X9917277Y-17306960D02*
X9907753Y-17316484D01*
X9907753Y-17316484D02*
X9898229Y-17306960D01*
X9898229Y-17306960D02*
X9907753Y-17297436D01*
X9907753Y-17297436D02*
X9907753Y-17316484D01*
X10088705Y-17116484D02*
X10050610Y-17116484D01*
X10050610Y-17116484D02*
X10031563Y-17126008D01*
X10031563Y-17126008D02*
X10022039Y-17135531D01*
X10022039Y-17135531D02*
X10002991Y-17164103D01*
X10002991Y-17164103D02*
X9993467Y-17202198D01*
X9993467Y-17202198D02*
X9993467Y-17278389D01*
X9993467Y-17278389D02*
X10002991Y-17297436D01*
X10002991Y-17297436D02*
X10012515Y-17306960D01*
X10012515Y-17306960D02*
X10031563Y-17316484D01*
X10031563Y-17316484D02*
X10069658Y-17316484D01*
X10069658Y-17316484D02*
X10088705Y-17306960D01*
X10088705Y-17306960D02*
X10098229Y-17297436D01*
X10098229Y-17297436D02*
X10107753Y-17278389D01*
X10107753Y-17278389D02*
X10107753Y-17230770D01*
X10107753Y-17230770D02*
X10098229Y-17211722D01*
X10098229Y-17211722D02*
X10088705Y-17202198D01*
X10088705Y-17202198D02*
X10069658Y-17192674D01*
X10069658Y-17192674D02*
X10031563Y-17192674D01*
X10031563Y-17192674D02*
X10012515Y-17202198D01*
X10012515Y-17202198D02*
X10002991Y-17211722D01*
X10002991Y-17211722D02*
X9993467Y-17230770D01*
X10231563Y-17116484D02*
X10250610Y-17116484D01*
X10250610Y-17116484D02*
X10269658Y-17126008D01*
X10269658Y-17126008D02*
X10279182Y-17135531D01*
X10279182Y-17135531D02*
X10288705Y-17154579D01*
X10288705Y-17154579D02*
X10298229Y-17192674D01*
X10298229Y-17192674D02*
X10298229Y-17240293D01*
X10298229Y-17240293D02*
X10288705Y-17278389D01*
X10288705Y-17278389D02*
X10279182Y-17297436D01*
X10279182Y-17297436D02*
X10269658Y-17306960D01*
X10269658Y-17306960D02*
X10250610Y-17316484D01*
X10250610Y-17316484D02*
X10231563Y-17316484D01*
X10231563Y-17316484D02*
X10212515Y-17306960D01*
X10212515Y-17306960D02*
X10202991Y-17297436D01*
X10202991Y-17297436D02*
X10193467Y-17278389D01*
X10193467Y-17278389D02*
X10183944Y-17240293D01*
X10183944Y-17240293D02*
X10183944Y-17192674D01*
X10183944Y-17192674D02*
X10193467Y-17154579D01*
X10193467Y-17154579D02*
X10202991Y-17135531D01*
X10202991Y-17135531D02*
X10212515Y-17126008D01*
X10212515Y-17126008D02*
X10231563Y-17116484D01*
X10422039Y-17116484D02*
X10441086Y-17116484D01*
X10441086Y-17116484D02*
X10460134Y-17126008D01*
X10460134Y-17126008D02*
X10469658Y-17135531D01*
X10469658Y-17135531D02*
X10479182Y-17154579D01*
X10479182Y-17154579D02*
X10488705Y-17192674D01*
X10488705Y-17192674D02*
X10488705Y-17240293D01*
X10488705Y-17240293D02*
X10479182Y-17278389D01*
X10479182Y-17278389D02*
X10469658Y-17297436D01*
X10469658Y-17297436D02*
X10460134Y-17306960D01*
X10460134Y-17306960D02*
X10441086Y-17316484D01*
X10441086Y-17316484D02*
X10422039Y-17316484D01*
X10422039Y-17316484D02*
X10402991Y-17306960D01*
X10402991Y-17306960D02*
X10393467Y-17297436D01*
X10393467Y-17297436D02*
X10383944Y-17278389D01*
X10383944Y-17278389D02*
X10374420Y-17240293D01*
X10374420Y-17240293D02*
X10374420Y-17192674D01*
X10374420Y-17192674D02*
X10383944Y-17154579D01*
X10383944Y-17154579D02*
X10393467Y-17135531D01*
X10393467Y-17135531D02*
X10402991Y-17126008D01*
X10402991Y-17126008D02*
X10422039Y-17116484D01*
X10574420Y-17316484D02*
X10574420Y-17183150D01*
X10574420Y-17202198D02*
X10583944Y-17192674D01*
X10583944Y-17192674D02*
X10602991Y-17183150D01*
X10602991Y-17183150D02*
X10631563Y-17183150D01*
X10631563Y-17183150D02*
X10650610Y-17192674D01*
X10650610Y-17192674D02*
X10660134Y-17211722D01*
X10660134Y-17211722D02*
X10660134Y-17316484D01*
X10660134Y-17211722D02*
X10669658Y-17192674D01*
X10669658Y-17192674D02*
X10688705Y-17183150D01*
X10688705Y-17183150D02*
X10717277Y-17183150D01*
X10717277Y-17183150D02*
X10736325Y-17192674D01*
X10736325Y-17192674D02*
X10745848Y-17211722D01*
X10745848Y-17211722D02*
X10745848Y-17316484D01*
X10841086Y-17316484D02*
X10841086Y-17183150D01*
X10841086Y-17202198D02*
X10850610Y-17192674D01*
X10850610Y-17192674D02*
X10869658Y-17183150D01*
X10869658Y-17183150D02*
X10898229Y-17183150D01*
X10898229Y-17183150D02*
X10917277Y-17192674D01*
X10917277Y-17192674D02*
X10926801Y-17211722D01*
X10926801Y-17211722D02*
X10926801Y-17316484D01*
X10926801Y-17211722D02*
X10936325Y-17192674D01*
X10936325Y-17192674D02*
X10955372Y-17183150D01*
X10955372Y-17183150D02*
X10983944Y-17183150D01*
X10983944Y-17183150D02*
X11002991Y-17192674D01*
X11002991Y-17192674D02*
X11012515Y-17211722D01*
X11012515Y-17211722D02*
X11012515Y-17316484D01*
X11402991Y-17106960D02*
X11231563Y-17364103D01*
X11660134Y-17116484D02*
X11679182Y-17116484D01*
X11679182Y-17116484D02*
X11698229Y-17126008D01*
X11698229Y-17126008D02*
X11707753Y-17135531D01*
X11707753Y-17135531D02*
X11717277Y-17154579D01*
X11717277Y-17154579D02*
X11726801Y-17192674D01*
X11726801Y-17192674D02*
X11726801Y-17240293D01*
X11726801Y-17240293D02*
X11717277Y-17278389D01*
X11717277Y-17278389D02*
X11707753Y-17297436D01*
X11707753Y-17297436D02*
X11698229Y-17306960D01*
X11698229Y-17306960D02*
X11679182Y-17316484D01*
X11679182Y-17316484D02*
X11660134Y-17316484D01*
X11660134Y-17316484D02*
X11641086Y-17306960D01*
X11641086Y-17306960D02*
X11631563Y-17297436D01*
X11631563Y-17297436D02*
X11622039Y-17278389D01*
X11622039Y-17278389D02*
X11612515Y-17240293D01*
X11612515Y-17240293D02*
X11612515Y-17192674D01*
X11612515Y-17192674D02*
X11622039Y-17154579D01*
X11622039Y-17154579D02*
X11631563Y-17135531D01*
X11631563Y-17135531D02*
X11641086Y-17126008D01*
X11641086Y-17126008D02*
X11660134Y-17116484D01*
X11812515Y-17297436D02*
X11822039Y-17306960D01*
X11822039Y-17306960D02*
X11812515Y-17316484D01*
X11812515Y-17316484D02*
X11802991Y-17306960D01*
X11802991Y-17306960D02*
X11812515Y-17297436D01*
X11812515Y-17297436D02*
X11812515Y-17316484D01*
X11945848Y-17116484D02*
X11964896Y-17116484D01*
X11964896Y-17116484D02*
X11983944Y-17126008D01*
X11983944Y-17126008D02*
X11993467Y-17135531D01*
X11993467Y-17135531D02*
X12002991Y-17154579D01*
X12002991Y-17154579D02*
X12012515Y-17192674D01*
X12012515Y-17192674D02*
X12012515Y-17240293D01*
X12012515Y-17240293D02*
X12002991Y-17278389D01*
X12002991Y-17278389D02*
X11993467Y-17297436D01*
X11993467Y-17297436D02*
X11983944Y-17306960D01*
X11983944Y-17306960D02*
X11964896Y-17316484D01*
X11964896Y-17316484D02*
X11945848Y-17316484D01*
X11945848Y-17316484D02*
X11926801Y-17306960D01*
X11926801Y-17306960D02*
X11917277Y-17297436D01*
X11917277Y-17297436D02*
X11907753Y-17278389D01*
X11907753Y-17278389D02*
X11898229Y-17240293D01*
X11898229Y-17240293D02*
X11898229Y-17192674D01*
X11898229Y-17192674D02*
X11907753Y-17154579D01*
X11907753Y-17154579D02*
X11917277Y-17135531D01*
X11917277Y-17135531D02*
X11926801Y-17126008D01*
X11926801Y-17126008D02*
X11945848Y-17116484D01*
X12183944Y-17116484D02*
X12145848Y-17116484D01*
X12145848Y-17116484D02*
X12126801Y-17126008D01*
X12126801Y-17126008D02*
X12117277Y-17135531D01*
X12117277Y-17135531D02*
X12098229Y-17164103D01*
X12098229Y-17164103D02*
X12088706Y-17202198D01*
X12088706Y-17202198D02*
X12088706Y-17278389D01*
X12088706Y-17278389D02*
X12098229Y-17297436D01*
X12098229Y-17297436D02*
X12107753Y-17306960D01*
X12107753Y-17306960D02*
X12126801Y-17316484D01*
X12126801Y-17316484D02*
X12164896Y-17316484D01*
X12164896Y-17316484D02*
X12183944Y-17306960D01*
X12183944Y-17306960D02*
X12193467Y-17297436D01*
X12193467Y-17297436D02*
X12202991Y-17278389D01*
X12202991Y-17278389D02*
X12202991Y-17230770D01*
X12202991Y-17230770D02*
X12193467Y-17211722D01*
X12193467Y-17211722D02*
X12183944Y-17202198D01*
X12183944Y-17202198D02*
X12164896Y-17192674D01*
X12164896Y-17192674D02*
X12126801Y-17192674D01*
X12126801Y-17192674D02*
X12107753Y-17202198D01*
X12107753Y-17202198D02*
X12098229Y-17211722D01*
X12098229Y-17211722D02*
X12088706Y-17230770D01*
X12269658Y-17116484D02*
X12393467Y-17116484D01*
X12393467Y-17116484D02*
X12326801Y-17192674D01*
X12326801Y-17192674D02*
X12355372Y-17192674D01*
X12355372Y-17192674D02*
X12374420Y-17202198D01*
X12374420Y-17202198D02*
X12383944Y-17211722D01*
X12383944Y-17211722D02*
X12393467Y-17230770D01*
X12393467Y-17230770D02*
X12393467Y-17278389D01*
X12393467Y-17278389D02*
X12383944Y-17297436D01*
X12383944Y-17297436D02*
X12374420Y-17306960D01*
X12374420Y-17306960D02*
X12355372Y-17316484D01*
X12355372Y-17316484D02*
X12298229Y-17316484D01*
X12298229Y-17316484D02*
X12279182Y-17306960D01*
X12279182Y-17306960D02*
X12269658Y-17297436D01*
X12517277Y-17116484D02*
X12536325Y-17116484D01*
X12536325Y-17116484D02*
X12555372Y-17126008D01*
X12555372Y-17126008D02*
X12564896Y-17135531D01*
X12564896Y-17135531D02*
X12574420Y-17154579D01*
X12574420Y-17154579D02*
X12583944Y-17192674D01*
X12583944Y-17192674D02*
X12583944Y-17240293D01*
X12583944Y-17240293D02*
X12574420Y-17278389D01*
X12574420Y-17278389D02*
X12564896Y-17297436D01*
X12564896Y-17297436D02*
X12555372Y-17306960D01*
X12555372Y-17306960D02*
X12536325Y-17316484D01*
X12536325Y-17316484D02*
X12517277Y-17316484D01*
X12517277Y-17316484D02*
X12498229Y-17306960D01*
X12498229Y-17306960D02*
X12488706Y-17297436D01*
X12488706Y-17297436D02*
X12479182Y-17278389D01*
X12479182Y-17278389D02*
X12469658Y-17240293D01*
X12469658Y-17240293D02*
X12469658Y-17192674D01*
X12469658Y-17192674D02*
X12479182Y-17154579D01*
X12479182Y-17154579D02*
X12488706Y-17135531D01*
X12488706Y-17135531D02*
X12498229Y-17126008D01*
X12498229Y-17126008D02*
X12517277Y-17116484D01*
X12660134Y-17116484D02*
X12660134Y-17154579D01*
X12736325Y-17116484D02*
X12736325Y-17154579D01*
X13031563Y-17392674D02*
X13022039Y-17383150D01*
X13022039Y-17383150D02*
X13002991Y-17354579D01*
X13002991Y-17354579D02*
X12993468Y-17335531D01*
X12993468Y-17335531D02*
X12983944Y-17306960D01*
X12983944Y-17306960D02*
X12974420Y-17259341D01*
X12974420Y-17259341D02*
X12974420Y-17221246D01*
X12974420Y-17221246D02*
X12983944Y-17173627D01*
X12983944Y-17173627D02*
X12993468Y-17145055D01*
X12993468Y-17145055D02*
X13002991Y-17126008D01*
X13002991Y-17126008D02*
X13022039Y-17097436D01*
X13022039Y-17097436D02*
X13031563Y-17087912D01*
X13193468Y-17183150D02*
X13193468Y-17316484D01*
X13145848Y-17106960D02*
X13098229Y-17249817D01*
X13098229Y-17249817D02*
X13222039Y-17249817D01*
X13450610Y-17316484D02*
X13450610Y-17116484D01*
X13536325Y-17316484D02*
X13536325Y-17211722D01*
X13536325Y-17211722D02*
X13526801Y-17192674D01*
X13526801Y-17192674D02*
X13507753Y-17183150D01*
X13507753Y-17183150D02*
X13479182Y-17183150D01*
X13479182Y-17183150D02*
X13460134Y-17192674D01*
X13460134Y-17192674D02*
X13450610Y-17202198D01*
X13660134Y-17316484D02*
X13641087Y-17306960D01*
X13641087Y-17306960D02*
X13631563Y-17297436D01*
X13631563Y-17297436D02*
X13622039Y-17278389D01*
X13622039Y-17278389D02*
X13622039Y-17221246D01*
X13622039Y-17221246D02*
X13631563Y-17202198D01*
X13631563Y-17202198D02*
X13641087Y-17192674D01*
X13641087Y-17192674D02*
X13660134Y-17183150D01*
X13660134Y-17183150D02*
X13688706Y-17183150D01*
X13688706Y-17183150D02*
X13707753Y-17192674D01*
X13707753Y-17192674D02*
X13717277Y-17202198D01*
X13717277Y-17202198D02*
X13726801Y-17221246D01*
X13726801Y-17221246D02*
X13726801Y-17278389D01*
X13726801Y-17278389D02*
X13717277Y-17297436D01*
X13717277Y-17297436D02*
X13707753Y-17306960D01*
X13707753Y-17306960D02*
X13688706Y-17316484D01*
X13688706Y-17316484D02*
X13660134Y-17316484D01*
X13841087Y-17316484D02*
X13822039Y-17306960D01*
X13822039Y-17306960D02*
X13812515Y-17287912D01*
X13812515Y-17287912D02*
X13812515Y-17116484D01*
X13993468Y-17306960D02*
X13974420Y-17316484D01*
X13974420Y-17316484D02*
X13936325Y-17316484D01*
X13936325Y-17316484D02*
X13917277Y-17306960D01*
X13917277Y-17306960D02*
X13907753Y-17287912D01*
X13907753Y-17287912D02*
X13907753Y-17211722D01*
X13907753Y-17211722D02*
X13917277Y-17192674D01*
X13917277Y-17192674D02*
X13936325Y-17183150D01*
X13936325Y-17183150D02*
X13974420Y-17183150D01*
X13974420Y-17183150D02*
X13993468Y-17192674D01*
X13993468Y-17192674D02*
X14002991Y-17211722D01*
X14002991Y-17211722D02*
X14002991Y-17230770D01*
X14002991Y-17230770D02*
X13907753Y-17249817D01*
X14079182Y-17306960D02*
X14098230Y-17316484D01*
X14098230Y-17316484D02*
X14136325Y-17316484D01*
X14136325Y-17316484D02*
X14155372Y-17306960D01*
X14155372Y-17306960D02*
X14164896Y-17287912D01*
X14164896Y-17287912D02*
X14164896Y-17278389D01*
X14164896Y-17278389D02*
X14155372Y-17259341D01*
X14155372Y-17259341D02*
X14136325Y-17249817D01*
X14136325Y-17249817D02*
X14107753Y-17249817D01*
X14107753Y-17249817D02*
X14088706Y-17240293D01*
X14088706Y-17240293D02*
X14079182Y-17221246D01*
X14079182Y-17221246D02*
X14079182Y-17211722D01*
X14079182Y-17211722D02*
X14088706Y-17192674D01*
X14088706Y-17192674D02*
X14107753Y-17183150D01*
X14107753Y-17183150D02*
X14136325Y-17183150D01*
X14136325Y-17183150D02*
X14155372Y-17192674D01*
X14231563Y-17392674D02*
X14241087Y-17383150D01*
X14241087Y-17383150D02*
X14260134Y-17354579D01*
X14260134Y-17354579D02*
X14269658Y-17335531D01*
X14269658Y-17335531D02*
X14279182Y-17306960D01*
X14279182Y-17306960D02*
X14288706Y-17259341D01*
X14288706Y-17259341D02*
X14288706Y-17221246D01*
X14288706Y-17221246D02*
X14279182Y-17173627D01*
X14279182Y-17173627D02*
X14269658Y-17145055D01*
X14269658Y-17145055D02*
X14260134Y-17126008D01*
X14260134Y-17126008D02*
X14241087Y-17097436D01*
X14241087Y-17097436D02*
X14231563Y-17087912D01*
D15*
X9286500Y-17420000D02*
X9456500Y-17590000D01*
X9456500Y-17420000D02*
X9286500Y-17590000D01*
X9371500Y-17590000D02*
X9456500Y-17505000D01*
X9371500Y-17420000D01*
X9286500Y-17505000D01*
X9371500Y-17590000D01*
D11*
X9822039Y-17596484D02*
X9707753Y-17596484D01*
X9764896Y-17596484D02*
X9764896Y-17396484D01*
X9764896Y-17396484D02*
X9745848Y-17425055D01*
X9745848Y-17425055D02*
X9726801Y-17444103D01*
X9726801Y-17444103D02*
X9707753Y-17453627D01*
X9907753Y-17577436D02*
X9917277Y-17586960D01*
X9917277Y-17586960D02*
X9907753Y-17596484D01*
X9907753Y-17596484D02*
X9898229Y-17586960D01*
X9898229Y-17586960D02*
X9907753Y-17577436D01*
X9907753Y-17577436D02*
X9907753Y-17596484D01*
X9983944Y-17396484D02*
X10117277Y-17396484D01*
X10117277Y-17396484D02*
X10031563Y-17596484D01*
X10231563Y-17396484D02*
X10250610Y-17396484D01*
X10250610Y-17396484D02*
X10269658Y-17406008D01*
X10269658Y-17406008D02*
X10279182Y-17415531D01*
X10279182Y-17415531D02*
X10288705Y-17434579D01*
X10288705Y-17434579D02*
X10298229Y-17472674D01*
X10298229Y-17472674D02*
X10298229Y-17520293D01*
X10298229Y-17520293D02*
X10288705Y-17558389D01*
X10288705Y-17558389D02*
X10279182Y-17577436D01*
X10279182Y-17577436D02*
X10269658Y-17586960D01*
X10269658Y-17586960D02*
X10250610Y-17596484D01*
X10250610Y-17596484D02*
X10231563Y-17596484D01*
X10231563Y-17596484D02*
X10212515Y-17586960D01*
X10212515Y-17586960D02*
X10202991Y-17577436D01*
X10202991Y-17577436D02*
X10193467Y-17558389D01*
X10193467Y-17558389D02*
X10183944Y-17520293D01*
X10183944Y-17520293D02*
X10183944Y-17472674D01*
X10183944Y-17472674D02*
X10193467Y-17434579D01*
X10193467Y-17434579D02*
X10202991Y-17415531D01*
X10202991Y-17415531D02*
X10212515Y-17406008D01*
X10212515Y-17406008D02*
X10231563Y-17396484D01*
X10422039Y-17396484D02*
X10441086Y-17396484D01*
X10441086Y-17396484D02*
X10460134Y-17406008D01*
X10460134Y-17406008D02*
X10469658Y-17415531D01*
X10469658Y-17415531D02*
X10479182Y-17434579D01*
X10479182Y-17434579D02*
X10488705Y-17472674D01*
X10488705Y-17472674D02*
X10488705Y-17520293D01*
X10488705Y-17520293D02*
X10479182Y-17558389D01*
X10479182Y-17558389D02*
X10469658Y-17577436D01*
X10469658Y-17577436D02*
X10460134Y-17586960D01*
X10460134Y-17586960D02*
X10441086Y-17596484D01*
X10441086Y-17596484D02*
X10422039Y-17596484D01*
X10422039Y-17596484D02*
X10402991Y-17586960D01*
X10402991Y-17586960D02*
X10393467Y-17577436D01*
X10393467Y-17577436D02*
X10383944Y-17558389D01*
X10383944Y-17558389D02*
X10374420Y-17520293D01*
X10374420Y-17520293D02*
X10374420Y-17472674D01*
X10374420Y-17472674D02*
X10383944Y-17434579D01*
X10383944Y-17434579D02*
X10393467Y-17415531D01*
X10393467Y-17415531D02*
X10402991Y-17406008D01*
X10402991Y-17406008D02*
X10422039Y-17396484D01*
X10574420Y-17596484D02*
X10574420Y-17463150D01*
X10574420Y-17482198D02*
X10583944Y-17472674D01*
X10583944Y-17472674D02*
X10602991Y-17463150D01*
X10602991Y-17463150D02*
X10631563Y-17463150D01*
X10631563Y-17463150D02*
X10650610Y-17472674D01*
X10650610Y-17472674D02*
X10660134Y-17491722D01*
X10660134Y-17491722D02*
X10660134Y-17596484D01*
X10660134Y-17491722D02*
X10669658Y-17472674D01*
X10669658Y-17472674D02*
X10688705Y-17463150D01*
X10688705Y-17463150D02*
X10717277Y-17463150D01*
X10717277Y-17463150D02*
X10736325Y-17472674D01*
X10736325Y-17472674D02*
X10745848Y-17491722D01*
X10745848Y-17491722D02*
X10745848Y-17596484D01*
X10841086Y-17596484D02*
X10841086Y-17463150D01*
X10841086Y-17482198D02*
X10850610Y-17472674D01*
X10850610Y-17472674D02*
X10869658Y-17463150D01*
X10869658Y-17463150D02*
X10898229Y-17463150D01*
X10898229Y-17463150D02*
X10917277Y-17472674D01*
X10917277Y-17472674D02*
X10926801Y-17491722D01*
X10926801Y-17491722D02*
X10926801Y-17596484D01*
X10926801Y-17491722D02*
X10936325Y-17472674D01*
X10936325Y-17472674D02*
X10955372Y-17463150D01*
X10955372Y-17463150D02*
X10983944Y-17463150D01*
X10983944Y-17463150D02*
X11002991Y-17472674D01*
X11002991Y-17472674D02*
X11012515Y-17491722D01*
X11012515Y-17491722D02*
X11012515Y-17596484D01*
X11402991Y-17386960D02*
X11231563Y-17644103D01*
X11660134Y-17396484D02*
X11679182Y-17396484D01*
X11679182Y-17396484D02*
X11698229Y-17406008D01*
X11698229Y-17406008D02*
X11707753Y-17415531D01*
X11707753Y-17415531D02*
X11717277Y-17434579D01*
X11717277Y-17434579D02*
X11726801Y-17472674D01*
X11726801Y-17472674D02*
X11726801Y-17520293D01*
X11726801Y-17520293D02*
X11717277Y-17558389D01*
X11717277Y-17558389D02*
X11707753Y-17577436D01*
X11707753Y-17577436D02*
X11698229Y-17586960D01*
X11698229Y-17586960D02*
X11679182Y-17596484D01*
X11679182Y-17596484D02*
X11660134Y-17596484D01*
X11660134Y-17596484D02*
X11641086Y-17586960D01*
X11641086Y-17586960D02*
X11631563Y-17577436D01*
X11631563Y-17577436D02*
X11622039Y-17558389D01*
X11622039Y-17558389D02*
X11612515Y-17520293D01*
X11612515Y-17520293D02*
X11612515Y-17472674D01*
X11612515Y-17472674D02*
X11622039Y-17434579D01*
X11622039Y-17434579D02*
X11631563Y-17415531D01*
X11631563Y-17415531D02*
X11641086Y-17406008D01*
X11641086Y-17406008D02*
X11660134Y-17396484D01*
X11812515Y-17577436D02*
X11822039Y-17586960D01*
X11822039Y-17586960D02*
X11812515Y-17596484D01*
X11812515Y-17596484D02*
X11802991Y-17586960D01*
X11802991Y-17586960D02*
X11812515Y-17577436D01*
X11812515Y-17577436D02*
X11812515Y-17596484D01*
X11945848Y-17396484D02*
X11964896Y-17396484D01*
X11964896Y-17396484D02*
X11983944Y-17406008D01*
X11983944Y-17406008D02*
X11993467Y-17415531D01*
X11993467Y-17415531D02*
X12002991Y-17434579D01*
X12002991Y-17434579D02*
X12012515Y-17472674D01*
X12012515Y-17472674D02*
X12012515Y-17520293D01*
X12012515Y-17520293D02*
X12002991Y-17558389D01*
X12002991Y-17558389D02*
X11993467Y-17577436D01*
X11993467Y-17577436D02*
X11983944Y-17586960D01*
X11983944Y-17586960D02*
X11964896Y-17596484D01*
X11964896Y-17596484D02*
X11945848Y-17596484D01*
X11945848Y-17596484D02*
X11926801Y-17586960D01*
X11926801Y-17586960D02*
X11917277Y-17577436D01*
X11917277Y-17577436D02*
X11907753Y-17558389D01*
X11907753Y-17558389D02*
X11898229Y-17520293D01*
X11898229Y-17520293D02*
X11898229Y-17472674D01*
X11898229Y-17472674D02*
X11907753Y-17434579D01*
X11907753Y-17434579D02*
X11917277Y-17415531D01*
X11917277Y-17415531D02*
X11926801Y-17406008D01*
X11926801Y-17406008D02*
X11945848Y-17396484D01*
X12183944Y-17396484D02*
X12145848Y-17396484D01*
X12145848Y-17396484D02*
X12126801Y-17406008D01*
X12126801Y-17406008D02*
X12117277Y-17415531D01*
X12117277Y-17415531D02*
X12098229Y-17444103D01*
X12098229Y-17444103D02*
X12088706Y-17482198D01*
X12088706Y-17482198D02*
X12088706Y-17558389D01*
X12088706Y-17558389D02*
X12098229Y-17577436D01*
X12098229Y-17577436D02*
X12107753Y-17586960D01*
X12107753Y-17586960D02*
X12126801Y-17596484D01*
X12126801Y-17596484D02*
X12164896Y-17596484D01*
X12164896Y-17596484D02*
X12183944Y-17586960D01*
X12183944Y-17586960D02*
X12193467Y-17577436D01*
X12193467Y-17577436D02*
X12202991Y-17558389D01*
X12202991Y-17558389D02*
X12202991Y-17510770D01*
X12202991Y-17510770D02*
X12193467Y-17491722D01*
X12193467Y-17491722D02*
X12183944Y-17482198D01*
X12183944Y-17482198D02*
X12164896Y-17472674D01*
X12164896Y-17472674D02*
X12126801Y-17472674D01*
X12126801Y-17472674D02*
X12107753Y-17482198D01*
X12107753Y-17482198D02*
X12098229Y-17491722D01*
X12098229Y-17491722D02*
X12088706Y-17510770D01*
X12374420Y-17396484D02*
X12336325Y-17396484D01*
X12336325Y-17396484D02*
X12317277Y-17406008D01*
X12317277Y-17406008D02*
X12307753Y-17415531D01*
X12307753Y-17415531D02*
X12288706Y-17444103D01*
X12288706Y-17444103D02*
X12279182Y-17482198D01*
X12279182Y-17482198D02*
X12279182Y-17558389D01*
X12279182Y-17558389D02*
X12288706Y-17577436D01*
X12288706Y-17577436D02*
X12298229Y-17586960D01*
X12298229Y-17586960D02*
X12317277Y-17596484D01*
X12317277Y-17596484D02*
X12355372Y-17596484D01*
X12355372Y-17596484D02*
X12374420Y-17586960D01*
X12374420Y-17586960D02*
X12383944Y-17577436D01*
X12383944Y-17577436D02*
X12393467Y-17558389D01*
X12393467Y-17558389D02*
X12393467Y-17510770D01*
X12393467Y-17510770D02*
X12383944Y-17491722D01*
X12383944Y-17491722D02*
X12374420Y-17482198D01*
X12374420Y-17482198D02*
X12355372Y-17472674D01*
X12355372Y-17472674D02*
X12317277Y-17472674D01*
X12317277Y-17472674D02*
X12298229Y-17482198D01*
X12298229Y-17482198D02*
X12288706Y-17491722D01*
X12288706Y-17491722D02*
X12279182Y-17510770D01*
X12488706Y-17596484D02*
X12526801Y-17596484D01*
X12526801Y-17596484D02*
X12545848Y-17586960D01*
X12545848Y-17586960D02*
X12555372Y-17577436D01*
X12555372Y-17577436D02*
X12574420Y-17548865D01*
X12574420Y-17548865D02*
X12583944Y-17510770D01*
X12583944Y-17510770D02*
X12583944Y-17434579D01*
X12583944Y-17434579D02*
X12574420Y-17415531D01*
X12574420Y-17415531D02*
X12564896Y-17406008D01*
X12564896Y-17406008D02*
X12545848Y-17396484D01*
X12545848Y-17396484D02*
X12507753Y-17396484D01*
X12507753Y-17396484D02*
X12488706Y-17406008D01*
X12488706Y-17406008D02*
X12479182Y-17415531D01*
X12479182Y-17415531D02*
X12469658Y-17434579D01*
X12469658Y-17434579D02*
X12469658Y-17482198D01*
X12469658Y-17482198D02*
X12479182Y-17501246D01*
X12479182Y-17501246D02*
X12488706Y-17510770D01*
X12488706Y-17510770D02*
X12507753Y-17520293D01*
X12507753Y-17520293D02*
X12545848Y-17520293D01*
X12545848Y-17520293D02*
X12564896Y-17510770D01*
X12564896Y-17510770D02*
X12574420Y-17501246D01*
X12574420Y-17501246D02*
X12583944Y-17482198D01*
X12660134Y-17396484D02*
X12660134Y-17434579D01*
X12736325Y-17396484D02*
X12736325Y-17434579D01*
X13031563Y-17672674D02*
X13022039Y-17663150D01*
X13022039Y-17663150D02*
X13002991Y-17634579D01*
X13002991Y-17634579D02*
X12993468Y-17615531D01*
X12993468Y-17615531D02*
X12983944Y-17586960D01*
X12983944Y-17586960D02*
X12974420Y-17539341D01*
X12974420Y-17539341D02*
X12974420Y-17501246D01*
X12974420Y-17501246D02*
X12983944Y-17453627D01*
X12983944Y-17453627D02*
X12993468Y-17425055D01*
X12993468Y-17425055D02*
X13002991Y-17406008D01*
X13002991Y-17406008D02*
X13022039Y-17377436D01*
X13022039Y-17377436D02*
X13031563Y-17367912D01*
X13098229Y-17415531D02*
X13107753Y-17406008D01*
X13107753Y-17406008D02*
X13126801Y-17396484D01*
X13126801Y-17396484D02*
X13174420Y-17396484D01*
X13174420Y-17396484D02*
X13193468Y-17406008D01*
X13193468Y-17406008D02*
X13202991Y-17415531D01*
X13202991Y-17415531D02*
X13212515Y-17434579D01*
X13212515Y-17434579D02*
X13212515Y-17453627D01*
X13212515Y-17453627D02*
X13202991Y-17482198D01*
X13202991Y-17482198D02*
X13088706Y-17596484D01*
X13088706Y-17596484D02*
X13212515Y-17596484D01*
X13450610Y-17596484D02*
X13450610Y-17396484D01*
X13536325Y-17596484D02*
X13536325Y-17491722D01*
X13536325Y-17491722D02*
X13526801Y-17472674D01*
X13526801Y-17472674D02*
X13507753Y-17463150D01*
X13507753Y-17463150D02*
X13479182Y-17463150D01*
X13479182Y-17463150D02*
X13460134Y-17472674D01*
X13460134Y-17472674D02*
X13450610Y-17482198D01*
X13660134Y-17596484D02*
X13641087Y-17586960D01*
X13641087Y-17586960D02*
X13631563Y-17577436D01*
X13631563Y-17577436D02*
X13622039Y-17558389D01*
X13622039Y-17558389D02*
X13622039Y-17501246D01*
X13622039Y-17501246D02*
X13631563Y-17482198D01*
X13631563Y-17482198D02*
X13641087Y-17472674D01*
X13641087Y-17472674D02*
X13660134Y-17463150D01*
X13660134Y-17463150D02*
X13688706Y-17463150D01*
X13688706Y-17463150D02*
X13707753Y-17472674D01*
X13707753Y-17472674D02*
X13717277Y-17482198D01*
X13717277Y-17482198D02*
X13726801Y-17501246D01*
X13726801Y-17501246D02*
X13726801Y-17558389D01*
X13726801Y-17558389D02*
X13717277Y-17577436D01*
X13717277Y-17577436D02*
X13707753Y-17586960D01*
X13707753Y-17586960D02*
X13688706Y-17596484D01*
X13688706Y-17596484D02*
X13660134Y-17596484D01*
X13841087Y-17596484D02*
X13822039Y-17586960D01*
X13822039Y-17586960D02*
X13812515Y-17567912D01*
X13812515Y-17567912D02*
X13812515Y-17396484D01*
X13993468Y-17586960D02*
X13974420Y-17596484D01*
X13974420Y-17596484D02*
X13936325Y-17596484D01*
X13936325Y-17596484D02*
X13917277Y-17586960D01*
X13917277Y-17586960D02*
X13907753Y-17567912D01*
X13907753Y-17567912D02*
X13907753Y-17491722D01*
X13907753Y-17491722D02*
X13917277Y-17472674D01*
X13917277Y-17472674D02*
X13936325Y-17463150D01*
X13936325Y-17463150D02*
X13974420Y-17463150D01*
X13974420Y-17463150D02*
X13993468Y-17472674D01*
X13993468Y-17472674D02*
X14002991Y-17491722D01*
X14002991Y-17491722D02*
X14002991Y-17510770D01*
X14002991Y-17510770D02*
X13907753Y-17529817D01*
X14079182Y-17586960D02*
X14098230Y-17596484D01*
X14098230Y-17596484D02*
X14136325Y-17596484D01*
X14136325Y-17596484D02*
X14155372Y-17586960D01*
X14155372Y-17586960D02*
X14164896Y-17567912D01*
X14164896Y-17567912D02*
X14164896Y-17558389D01*
X14164896Y-17558389D02*
X14155372Y-17539341D01*
X14155372Y-17539341D02*
X14136325Y-17529817D01*
X14136325Y-17529817D02*
X14107753Y-17529817D01*
X14107753Y-17529817D02*
X14088706Y-17520293D01*
X14088706Y-17520293D02*
X14079182Y-17501246D01*
X14079182Y-17501246D02*
X14079182Y-17491722D01*
X14079182Y-17491722D02*
X14088706Y-17472674D01*
X14088706Y-17472674D02*
X14107753Y-17463150D01*
X14107753Y-17463150D02*
X14136325Y-17463150D01*
X14136325Y-17463150D02*
X14155372Y-17472674D01*
X14231563Y-17672674D02*
X14241087Y-17663150D01*
X14241087Y-17663150D02*
X14260134Y-17634579D01*
X14260134Y-17634579D02*
X14269658Y-17615531D01*
X14269658Y-17615531D02*
X14279182Y-17586960D01*
X14279182Y-17586960D02*
X14288706Y-17539341D01*
X14288706Y-17539341D02*
X14288706Y-17501246D01*
X14288706Y-17501246D02*
X14279182Y-17453627D01*
X14279182Y-17453627D02*
X14269658Y-17425055D01*
X14269658Y-17425055D02*
X14260134Y-17406008D01*
X14260134Y-17406008D02*
X14241087Y-17377436D01*
X14241087Y-17377436D02*
X14231563Y-17367912D01*
X9356500Y-17695000D02*
X9356500Y-17895000D01*
X9256500Y-17795000D02*
X9456500Y-17795000D01*
X9456500Y-17795000D02*
G75*
G03*
X9256500Y-17795000I-100000J0D01*
G01*
X9256500Y-17795000D02*
G75*
G03*
X9456500Y-17795000I100000J0D01*
G01*
X9707753Y-17705531D02*
X9717277Y-17696008D01*
X9717277Y-17696008D02*
X9736324Y-17686484D01*
X9736324Y-17686484D02*
X9783944Y-17686484D01*
X9783944Y-17686484D02*
X9802991Y-17696008D01*
X9802991Y-17696008D02*
X9812515Y-17705531D01*
X9812515Y-17705531D02*
X9822039Y-17724579D01*
X9822039Y-17724579D02*
X9822039Y-17743627D01*
X9822039Y-17743627D02*
X9812515Y-17772198D01*
X9812515Y-17772198D02*
X9698229Y-17886484D01*
X9698229Y-17886484D02*
X9822039Y-17886484D01*
X9907753Y-17867436D02*
X9917277Y-17876960D01*
X9917277Y-17876960D02*
X9907753Y-17886484D01*
X9907753Y-17886484D02*
X9898229Y-17876960D01*
X9898229Y-17876960D02*
X9907753Y-17867436D01*
X9907753Y-17867436D02*
X9907753Y-17886484D01*
X10107753Y-17886484D02*
X9993467Y-17886484D01*
X10050610Y-17886484D02*
X10050610Y-17686484D01*
X10050610Y-17686484D02*
X10031563Y-17715055D01*
X10031563Y-17715055D02*
X10012515Y-17734103D01*
X10012515Y-17734103D02*
X9993467Y-17743627D01*
X10231563Y-17686484D02*
X10250610Y-17686484D01*
X10250610Y-17686484D02*
X10269658Y-17696008D01*
X10269658Y-17696008D02*
X10279182Y-17705531D01*
X10279182Y-17705531D02*
X10288705Y-17724579D01*
X10288705Y-17724579D02*
X10298229Y-17762674D01*
X10298229Y-17762674D02*
X10298229Y-17810293D01*
X10298229Y-17810293D02*
X10288705Y-17848389D01*
X10288705Y-17848389D02*
X10279182Y-17867436D01*
X10279182Y-17867436D02*
X10269658Y-17876960D01*
X10269658Y-17876960D02*
X10250610Y-17886484D01*
X10250610Y-17886484D02*
X10231563Y-17886484D01*
X10231563Y-17886484D02*
X10212515Y-17876960D01*
X10212515Y-17876960D02*
X10202991Y-17867436D01*
X10202991Y-17867436D02*
X10193467Y-17848389D01*
X10193467Y-17848389D02*
X10183944Y-17810293D01*
X10183944Y-17810293D02*
X10183944Y-17762674D01*
X10183944Y-17762674D02*
X10193467Y-17724579D01*
X10193467Y-17724579D02*
X10202991Y-17705531D01*
X10202991Y-17705531D02*
X10212515Y-17696008D01*
X10212515Y-17696008D02*
X10231563Y-17686484D01*
X10422039Y-17686484D02*
X10441086Y-17686484D01*
X10441086Y-17686484D02*
X10460134Y-17696008D01*
X10460134Y-17696008D02*
X10469658Y-17705531D01*
X10469658Y-17705531D02*
X10479182Y-17724579D01*
X10479182Y-17724579D02*
X10488705Y-17762674D01*
X10488705Y-17762674D02*
X10488705Y-17810293D01*
X10488705Y-17810293D02*
X10479182Y-17848389D01*
X10479182Y-17848389D02*
X10469658Y-17867436D01*
X10469658Y-17867436D02*
X10460134Y-17876960D01*
X10460134Y-17876960D02*
X10441086Y-17886484D01*
X10441086Y-17886484D02*
X10422039Y-17886484D01*
X10422039Y-17886484D02*
X10402991Y-17876960D01*
X10402991Y-17876960D02*
X10393467Y-17867436D01*
X10393467Y-17867436D02*
X10383944Y-17848389D01*
X10383944Y-17848389D02*
X10374420Y-17810293D01*
X10374420Y-17810293D02*
X10374420Y-17762674D01*
X10374420Y-17762674D02*
X10383944Y-17724579D01*
X10383944Y-17724579D02*
X10393467Y-17705531D01*
X10393467Y-17705531D02*
X10402991Y-17696008D01*
X10402991Y-17696008D02*
X10422039Y-17686484D01*
X10574420Y-17886484D02*
X10574420Y-17753150D01*
X10574420Y-17772198D02*
X10583944Y-17762674D01*
X10583944Y-17762674D02*
X10602991Y-17753150D01*
X10602991Y-17753150D02*
X10631563Y-17753150D01*
X10631563Y-17753150D02*
X10650610Y-17762674D01*
X10650610Y-17762674D02*
X10660134Y-17781722D01*
X10660134Y-17781722D02*
X10660134Y-17886484D01*
X10660134Y-17781722D02*
X10669658Y-17762674D01*
X10669658Y-17762674D02*
X10688705Y-17753150D01*
X10688705Y-17753150D02*
X10717277Y-17753150D01*
X10717277Y-17753150D02*
X10736325Y-17762674D01*
X10736325Y-17762674D02*
X10745848Y-17781722D01*
X10745848Y-17781722D02*
X10745848Y-17886484D01*
X10841086Y-17886484D02*
X10841086Y-17753150D01*
X10841086Y-17772198D02*
X10850610Y-17762674D01*
X10850610Y-17762674D02*
X10869658Y-17753150D01*
X10869658Y-17753150D02*
X10898229Y-17753150D01*
X10898229Y-17753150D02*
X10917277Y-17762674D01*
X10917277Y-17762674D02*
X10926801Y-17781722D01*
X10926801Y-17781722D02*
X10926801Y-17886484D01*
X10926801Y-17781722D02*
X10936325Y-17762674D01*
X10936325Y-17762674D02*
X10955372Y-17753150D01*
X10955372Y-17753150D02*
X10983944Y-17753150D01*
X10983944Y-17753150D02*
X11002991Y-17762674D01*
X11002991Y-17762674D02*
X11012515Y-17781722D01*
X11012515Y-17781722D02*
X11012515Y-17886484D01*
X11402991Y-17676960D02*
X11231563Y-17934103D01*
X11660134Y-17686484D02*
X11679182Y-17686484D01*
X11679182Y-17686484D02*
X11698229Y-17696008D01*
X11698229Y-17696008D02*
X11707753Y-17705531D01*
X11707753Y-17705531D02*
X11717277Y-17724579D01*
X11717277Y-17724579D02*
X11726801Y-17762674D01*
X11726801Y-17762674D02*
X11726801Y-17810293D01*
X11726801Y-17810293D02*
X11717277Y-17848389D01*
X11717277Y-17848389D02*
X11707753Y-17867436D01*
X11707753Y-17867436D02*
X11698229Y-17876960D01*
X11698229Y-17876960D02*
X11679182Y-17886484D01*
X11679182Y-17886484D02*
X11660134Y-17886484D01*
X11660134Y-17886484D02*
X11641086Y-17876960D01*
X11641086Y-17876960D02*
X11631563Y-17867436D01*
X11631563Y-17867436D02*
X11622039Y-17848389D01*
X11622039Y-17848389D02*
X11612515Y-17810293D01*
X11612515Y-17810293D02*
X11612515Y-17762674D01*
X11612515Y-17762674D02*
X11622039Y-17724579D01*
X11622039Y-17724579D02*
X11631563Y-17705531D01*
X11631563Y-17705531D02*
X11641086Y-17696008D01*
X11641086Y-17696008D02*
X11660134Y-17686484D01*
X11812515Y-17867436D02*
X11822039Y-17876960D01*
X11822039Y-17876960D02*
X11812515Y-17886484D01*
X11812515Y-17886484D02*
X11802991Y-17876960D01*
X11802991Y-17876960D02*
X11812515Y-17867436D01*
X11812515Y-17867436D02*
X11812515Y-17886484D01*
X11945848Y-17686484D02*
X11964896Y-17686484D01*
X11964896Y-17686484D02*
X11983944Y-17696008D01*
X11983944Y-17696008D02*
X11993467Y-17705531D01*
X11993467Y-17705531D02*
X12002991Y-17724579D01*
X12002991Y-17724579D02*
X12012515Y-17762674D01*
X12012515Y-17762674D02*
X12012515Y-17810293D01*
X12012515Y-17810293D02*
X12002991Y-17848389D01*
X12002991Y-17848389D02*
X11993467Y-17867436D01*
X11993467Y-17867436D02*
X11983944Y-17876960D01*
X11983944Y-17876960D02*
X11964896Y-17886484D01*
X11964896Y-17886484D02*
X11945848Y-17886484D01*
X11945848Y-17886484D02*
X11926801Y-17876960D01*
X11926801Y-17876960D02*
X11917277Y-17867436D01*
X11917277Y-17867436D02*
X11907753Y-17848389D01*
X11907753Y-17848389D02*
X11898229Y-17810293D01*
X11898229Y-17810293D02*
X11898229Y-17762674D01*
X11898229Y-17762674D02*
X11907753Y-17724579D01*
X11907753Y-17724579D02*
X11917277Y-17705531D01*
X11917277Y-17705531D02*
X11926801Y-17696008D01*
X11926801Y-17696008D02*
X11945848Y-17686484D01*
X12126801Y-17772198D02*
X12107753Y-17762674D01*
X12107753Y-17762674D02*
X12098229Y-17753150D01*
X12098229Y-17753150D02*
X12088706Y-17734103D01*
X12088706Y-17734103D02*
X12088706Y-17724579D01*
X12088706Y-17724579D02*
X12098229Y-17705531D01*
X12098229Y-17705531D02*
X12107753Y-17696008D01*
X12107753Y-17696008D02*
X12126801Y-17686484D01*
X12126801Y-17686484D02*
X12164896Y-17686484D01*
X12164896Y-17686484D02*
X12183944Y-17696008D01*
X12183944Y-17696008D02*
X12193467Y-17705531D01*
X12193467Y-17705531D02*
X12202991Y-17724579D01*
X12202991Y-17724579D02*
X12202991Y-17734103D01*
X12202991Y-17734103D02*
X12193467Y-17753150D01*
X12193467Y-17753150D02*
X12183944Y-17762674D01*
X12183944Y-17762674D02*
X12164896Y-17772198D01*
X12164896Y-17772198D02*
X12126801Y-17772198D01*
X12126801Y-17772198D02*
X12107753Y-17781722D01*
X12107753Y-17781722D02*
X12098229Y-17791246D01*
X12098229Y-17791246D02*
X12088706Y-17810293D01*
X12088706Y-17810293D02*
X12088706Y-17848389D01*
X12088706Y-17848389D02*
X12098229Y-17867436D01*
X12098229Y-17867436D02*
X12107753Y-17876960D01*
X12107753Y-17876960D02*
X12126801Y-17886484D01*
X12126801Y-17886484D02*
X12164896Y-17886484D01*
X12164896Y-17886484D02*
X12183944Y-17876960D01*
X12183944Y-17876960D02*
X12193467Y-17867436D01*
X12193467Y-17867436D02*
X12202991Y-17848389D01*
X12202991Y-17848389D02*
X12202991Y-17810293D01*
X12202991Y-17810293D02*
X12193467Y-17791246D01*
X12193467Y-17791246D02*
X12183944Y-17781722D01*
X12183944Y-17781722D02*
X12164896Y-17772198D01*
X12279182Y-17705531D02*
X12288706Y-17696008D01*
X12288706Y-17696008D02*
X12307753Y-17686484D01*
X12307753Y-17686484D02*
X12355372Y-17686484D01*
X12355372Y-17686484D02*
X12374420Y-17696008D01*
X12374420Y-17696008D02*
X12383944Y-17705531D01*
X12383944Y-17705531D02*
X12393467Y-17724579D01*
X12393467Y-17724579D02*
X12393467Y-17743627D01*
X12393467Y-17743627D02*
X12383944Y-17772198D01*
X12383944Y-17772198D02*
X12269658Y-17886484D01*
X12269658Y-17886484D02*
X12393467Y-17886484D01*
X12460134Y-17686484D02*
X12593467Y-17686484D01*
X12593467Y-17686484D02*
X12507753Y-17886484D01*
X12660134Y-17686484D02*
X12660134Y-17724579D01*
X12736325Y-17686484D02*
X12736325Y-17724579D01*
X13031563Y-17962674D02*
X13022039Y-17953150D01*
X13022039Y-17953150D02*
X13002991Y-17924579D01*
X13002991Y-17924579D02*
X12993468Y-17905531D01*
X12993468Y-17905531D02*
X12983944Y-17876960D01*
X12983944Y-17876960D02*
X12974420Y-17829341D01*
X12974420Y-17829341D02*
X12974420Y-17791246D01*
X12974420Y-17791246D02*
X12983944Y-17743627D01*
X12983944Y-17743627D02*
X12993468Y-17715055D01*
X12993468Y-17715055D02*
X13002991Y-17696008D01*
X13002991Y-17696008D02*
X13022039Y-17667436D01*
X13022039Y-17667436D02*
X13031563Y-17657912D01*
X13193468Y-17686484D02*
X13155372Y-17686484D01*
X13155372Y-17686484D02*
X13136325Y-17696008D01*
X13136325Y-17696008D02*
X13126801Y-17705531D01*
X13126801Y-17705531D02*
X13107753Y-17734103D01*
X13107753Y-17734103D02*
X13098229Y-17772198D01*
X13098229Y-17772198D02*
X13098229Y-17848389D01*
X13098229Y-17848389D02*
X13107753Y-17867436D01*
X13107753Y-17867436D02*
X13117277Y-17876960D01*
X13117277Y-17876960D02*
X13136325Y-17886484D01*
X13136325Y-17886484D02*
X13174420Y-17886484D01*
X13174420Y-17886484D02*
X13193468Y-17876960D01*
X13193468Y-17876960D02*
X13202991Y-17867436D01*
X13202991Y-17867436D02*
X13212515Y-17848389D01*
X13212515Y-17848389D02*
X13212515Y-17800770D01*
X13212515Y-17800770D02*
X13202991Y-17781722D01*
X13202991Y-17781722D02*
X13193468Y-17772198D01*
X13193468Y-17772198D02*
X13174420Y-17762674D01*
X13174420Y-17762674D02*
X13136325Y-17762674D01*
X13136325Y-17762674D02*
X13117277Y-17772198D01*
X13117277Y-17772198D02*
X13107753Y-17781722D01*
X13107753Y-17781722D02*
X13098229Y-17800770D01*
X13450610Y-17886484D02*
X13450610Y-17686484D01*
X13536325Y-17886484D02*
X13536325Y-17781722D01*
X13536325Y-17781722D02*
X13526801Y-17762674D01*
X13526801Y-17762674D02*
X13507753Y-17753150D01*
X13507753Y-17753150D02*
X13479182Y-17753150D01*
X13479182Y-17753150D02*
X13460134Y-17762674D01*
X13460134Y-17762674D02*
X13450610Y-17772198D01*
X13660134Y-17886484D02*
X13641087Y-17876960D01*
X13641087Y-17876960D02*
X13631563Y-17867436D01*
X13631563Y-17867436D02*
X13622039Y-17848389D01*
X13622039Y-17848389D02*
X13622039Y-17791246D01*
X13622039Y-17791246D02*
X13631563Y-17772198D01*
X13631563Y-17772198D02*
X13641087Y-17762674D01*
X13641087Y-17762674D02*
X13660134Y-17753150D01*
X13660134Y-17753150D02*
X13688706Y-17753150D01*
X13688706Y-17753150D02*
X13707753Y-17762674D01*
X13707753Y-17762674D02*
X13717277Y-17772198D01*
X13717277Y-17772198D02*
X13726801Y-17791246D01*
X13726801Y-17791246D02*
X13726801Y-17848389D01*
X13726801Y-17848389D02*
X13717277Y-17867436D01*
X13717277Y-17867436D02*
X13707753Y-17876960D01*
X13707753Y-17876960D02*
X13688706Y-17886484D01*
X13688706Y-17886484D02*
X13660134Y-17886484D01*
X13841087Y-17886484D02*
X13822039Y-17876960D01*
X13822039Y-17876960D02*
X13812515Y-17857912D01*
X13812515Y-17857912D02*
X13812515Y-17686484D01*
X13993468Y-17876960D02*
X13974420Y-17886484D01*
X13974420Y-17886484D02*
X13936325Y-17886484D01*
X13936325Y-17886484D02*
X13917277Y-17876960D01*
X13917277Y-17876960D02*
X13907753Y-17857912D01*
X13907753Y-17857912D02*
X13907753Y-17781722D01*
X13907753Y-17781722D02*
X13917277Y-17762674D01*
X13917277Y-17762674D02*
X13936325Y-17753150D01*
X13936325Y-17753150D02*
X13974420Y-17753150D01*
X13974420Y-17753150D02*
X13993468Y-17762674D01*
X13993468Y-17762674D02*
X14002991Y-17781722D01*
X14002991Y-17781722D02*
X14002991Y-17800770D01*
X14002991Y-17800770D02*
X13907753Y-17819817D01*
X14079182Y-17876960D02*
X14098230Y-17886484D01*
X14098230Y-17886484D02*
X14136325Y-17886484D01*
X14136325Y-17886484D02*
X14155372Y-17876960D01*
X14155372Y-17876960D02*
X14164896Y-17857912D01*
X14164896Y-17857912D02*
X14164896Y-17848389D01*
X14164896Y-17848389D02*
X14155372Y-17829341D01*
X14155372Y-17829341D02*
X14136325Y-17819817D01*
X14136325Y-17819817D02*
X14107753Y-17819817D01*
X14107753Y-17819817D02*
X14088706Y-17810293D01*
X14088706Y-17810293D02*
X14079182Y-17791246D01*
X14079182Y-17791246D02*
X14079182Y-17781722D01*
X14079182Y-17781722D02*
X14088706Y-17762674D01*
X14088706Y-17762674D02*
X14107753Y-17753150D01*
X14107753Y-17753150D02*
X14136325Y-17753150D01*
X14136325Y-17753150D02*
X14155372Y-17762674D01*
X14231563Y-17962674D02*
X14241087Y-17953150D01*
X14241087Y-17953150D02*
X14260134Y-17924579D01*
X14260134Y-17924579D02*
X14269658Y-17905531D01*
X14269658Y-17905531D02*
X14279182Y-17876960D01*
X14279182Y-17876960D02*
X14288706Y-17829341D01*
X14288706Y-17829341D02*
X14288706Y-17791246D01*
X14288706Y-17791246D02*
X14279182Y-17743627D01*
X14279182Y-17743627D02*
X14269658Y-17715055D01*
X14269658Y-17715055D02*
X14260134Y-17696008D01*
X14260134Y-17696008D02*
X14241087Y-17667436D01*
X14241087Y-17667436D02*
X14231563Y-17657912D01*
X9427211Y-18185711D02*
X9427211Y-18044289D01*
X9285789Y-18044289D01*
X9285789Y-18185711D01*
X9427211Y-18185711D01*
X9456500Y-18115000D02*
G75*
G03*
X9256500Y-18115000I-100000J0D01*
G01*
X9256500Y-18115000D02*
G75*
G03*
X9456500Y-18115000I100000J0D01*
G01*
X9698229Y-18006484D02*
X9822039Y-18006484D01*
X9822039Y-18006484D02*
X9755372Y-18082674D01*
X9755372Y-18082674D02*
X9783944Y-18082674D01*
X9783944Y-18082674D02*
X9802991Y-18092198D01*
X9802991Y-18092198D02*
X9812515Y-18101722D01*
X9812515Y-18101722D02*
X9822039Y-18120770D01*
X9822039Y-18120770D02*
X9822039Y-18168389D01*
X9822039Y-18168389D02*
X9812515Y-18187436D01*
X9812515Y-18187436D02*
X9802991Y-18196960D01*
X9802991Y-18196960D02*
X9783944Y-18206484D01*
X9783944Y-18206484D02*
X9726801Y-18206484D01*
X9726801Y-18206484D02*
X9707753Y-18196960D01*
X9707753Y-18196960D02*
X9698229Y-18187436D01*
X9907753Y-18187436D02*
X9917277Y-18196960D01*
X9917277Y-18196960D02*
X9907753Y-18206484D01*
X9907753Y-18206484D02*
X9898229Y-18196960D01*
X9898229Y-18196960D02*
X9907753Y-18187436D01*
X9907753Y-18187436D02*
X9907753Y-18206484D01*
X9993467Y-18025531D02*
X10002991Y-18016008D01*
X10002991Y-18016008D02*
X10022039Y-18006484D01*
X10022039Y-18006484D02*
X10069658Y-18006484D01*
X10069658Y-18006484D02*
X10088705Y-18016008D01*
X10088705Y-18016008D02*
X10098229Y-18025531D01*
X10098229Y-18025531D02*
X10107753Y-18044579D01*
X10107753Y-18044579D02*
X10107753Y-18063627D01*
X10107753Y-18063627D02*
X10098229Y-18092198D01*
X10098229Y-18092198D02*
X9983944Y-18206484D01*
X9983944Y-18206484D02*
X10107753Y-18206484D01*
X10231563Y-18006484D02*
X10250610Y-18006484D01*
X10250610Y-18006484D02*
X10269658Y-18016008D01*
X10269658Y-18016008D02*
X10279182Y-18025531D01*
X10279182Y-18025531D02*
X10288705Y-18044579D01*
X10288705Y-18044579D02*
X10298229Y-18082674D01*
X10298229Y-18082674D02*
X10298229Y-18130293D01*
X10298229Y-18130293D02*
X10288705Y-18168389D01*
X10288705Y-18168389D02*
X10279182Y-18187436D01*
X10279182Y-18187436D02*
X10269658Y-18196960D01*
X10269658Y-18196960D02*
X10250610Y-18206484D01*
X10250610Y-18206484D02*
X10231563Y-18206484D01*
X10231563Y-18206484D02*
X10212515Y-18196960D01*
X10212515Y-18196960D02*
X10202991Y-18187436D01*
X10202991Y-18187436D02*
X10193467Y-18168389D01*
X10193467Y-18168389D02*
X10183944Y-18130293D01*
X10183944Y-18130293D02*
X10183944Y-18082674D01*
X10183944Y-18082674D02*
X10193467Y-18044579D01*
X10193467Y-18044579D02*
X10202991Y-18025531D01*
X10202991Y-18025531D02*
X10212515Y-18016008D01*
X10212515Y-18016008D02*
X10231563Y-18006484D01*
X10422039Y-18006484D02*
X10441086Y-18006484D01*
X10441086Y-18006484D02*
X10460134Y-18016008D01*
X10460134Y-18016008D02*
X10469658Y-18025531D01*
X10469658Y-18025531D02*
X10479182Y-18044579D01*
X10479182Y-18044579D02*
X10488705Y-18082674D01*
X10488705Y-18082674D02*
X10488705Y-18130293D01*
X10488705Y-18130293D02*
X10479182Y-18168389D01*
X10479182Y-18168389D02*
X10469658Y-18187436D01*
X10469658Y-18187436D02*
X10460134Y-18196960D01*
X10460134Y-18196960D02*
X10441086Y-18206484D01*
X10441086Y-18206484D02*
X10422039Y-18206484D01*
X10422039Y-18206484D02*
X10402991Y-18196960D01*
X10402991Y-18196960D02*
X10393467Y-18187436D01*
X10393467Y-18187436D02*
X10383944Y-18168389D01*
X10383944Y-18168389D02*
X10374420Y-18130293D01*
X10374420Y-18130293D02*
X10374420Y-18082674D01*
X10374420Y-18082674D02*
X10383944Y-18044579D01*
X10383944Y-18044579D02*
X10393467Y-18025531D01*
X10393467Y-18025531D02*
X10402991Y-18016008D01*
X10402991Y-18016008D02*
X10422039Y-18006484D01*
X10574420Y-18206484D02*
X10574420Y-18073150D01*
X10574420Y-18092198D02*
X10583944Y-18082674D01*
X10583944Y-18082674D02*
X10602991Y-18073150D01*
X10602991Y-18073150D02*
X10631563Y-18073150D01*
X10631563Y-18073150D02*
X10650610Y-18082674D01*
X10650610Y-18082674D02*
X10660134Y-18101722D01*
X10660134Y-18101722D02*
X10660134Y-18206484D01*
X10660134Y-18101722D02*
X10669658Y-18082674D01*
X10669658Y-18082674D02*
X10688705Y-18073150D01*
X10688705Y-18073150D02*
X10717277Y-18073150D01*
X10717277Y-18073150D02*
X10736325Y-18082674D01*
X10736325Y-18082674D02*
X10745848Y-18101722D01*
X10745848Y-18101722D02*
X10745848Y-18206484D01*
X10841086Y-18206484D02*
X10841086Y-18073150D01*
X10841086Y-18092198D02*
X10850610Y-18082674D01*
X10850610Y-18082674D02*
X10869658Y-18073150D01*
X10869658Y-18073150D02*
X10898229Y-18073150D01*
X10898229Y-18073150D02*
X10917277Y-18082674D01*
X10917277Y-18082674D02*
X10926801Y-18101722D01*
X10926801Y-18101722D02*
X10926801Y-18206484D01*
X10926801Y-18101722D02*
X10936325Y-18082674D01*
X10936325Y-18082674D02*
X10955372Y-18073150D01*
X10955372Y-18073150D02*
X10983944Y-18073150D01*
X10983944Y-18073150D02*
X11002991Y-18082674D01*
X11002991Y-18082674D02*
X11012515Y-18101722D01*
X11012515Y-18101722D02*
X11012515Y-18206484D01*
X11402991Y-17996960D02*
X11231563Y-18254103D01*
X11660134Y-18006484D02*
X11679182Y-18006484D01*
X11679182Y-18006484D02*
X11698229Y-18016008D01*
X11698229Y-18016008D02*
X11707753Y-18025531D01*
X11707753Y-18025531D02*
X11717277Y-18044579D01*
X11717277Y-18044579D02*
X11726801Y-18082674D01*
X11726801Y-18082674D02*
X11726801Y-18130293D01*
X11726801Y-18130293D02*
X11717277Y-18168389D01*
X11717277Y-18168389D02*
X11707753Y-18187436D01*
X11707753Y-18187436D02*
X11698229Y-18196960D01*
X11698229Y-18196960D02*
X11679182Y-18206484D01*
X11679182Y-18206484D02*
X11660134Y-18206484D01*
X11660134Y-18206484D02*
X11641086Y-18196960D01*
X11641086Y-18196960D02*
X11631563Y-18187436D01*
X11631563Y-18187436D02*
X11622039Y-18168389D01*
X11622039Y-18168389D02*
X11612515Y-18130293D01*
X11612515Y-18130293D02*
X11612515Y-18082674D01*
X11612515Y-18082674D02*
X11622039Y-18044579D01*
X11622039Y-18044579D02*
X11631563Y-18025531D01*
X11631563Y-18025531D02*
X11641086Y-18016008D01*
X11641086Y-18016008D02*
X11660134Y-18006484D01*
X11812515Y-18187436D02*
X11822039Y-18196960D01*
X11822039Y-18196960D02*
X11812515Y-18206484D01*
X11812515Y-18206484D02*
X11802991Y-18196960D01*
X11802991Y-18196960D02*
X11812515Y-18187436D01*
X11812515Y-18187436D02*
X11812515Y-18206484D01*
X12012515Y-18206484D02*
X11898229Y-18206484D01*
X11955372Y-18206484D02*
X11955372Y-18006484D01*
X11955372Y-18006484D02*
X11936325Y-18035055D01*
X11936325Y-18035055D02*
X11917277Y-18054103D01*
X11917277Y-18054103D02*
X11898229Y-18063627D01*
X12088706Y-18025531D02*
X12098229Y-18016008D01*
X12098229Y-18016008D02*
X12117277Y-18006484D01*
X12117277Y-18006484D02*
X12164896Y-18006484D01*
X12164896Y-18006484D02*
X12183944Y-18016008D01*
X12183944Y-18016008D02*
X12193467Y-18025531D01*
X12193467Y-18025531D02*
X12202991Y-18044579D01*
X12202991Y-18044579D02*
X12202991Y-18063627D01*
X12202991Y-18063627D02*
X12193467Y-18092198D01*
X12193467Y-18092198D02*
X12079182Y-18206484D01*
X12079182Y-18206484D02*
X12202991Y-18206484D01*
X12374420Y-18006484D02*
X12336325Y-18006484D01*
X12336325Y-18006484D02*
X12317277Y-18016008D01*
X12317277Y-18016008D02*
X12307753Y-18025531D01*
X12307753Y-18025531D02*
X12288706Y-18054103D01*
X12288706Y-18054103D02*
X12279182Y-18092198D01*
X12279182Y-18092198D02*
X12279182Y-18168389D01*
X12279182Y-18168389D02*
X12288706Y-18187436D01*
X12288706Y-18187436D02*
X12298229Y-18196960D01*
X12298229Y-18196960D02*
X12317277Y-18206484D01*
X12317277Y-18206484D02*
X12355372Y-18206484D01*
X12355372Y-18206484D02*
X12374420Y-18196960D01*
X12374420Y-18196960D02*
X12383944Y-18187436D01*
X12383944Y-18187436D02*
X12393467Y-18168389D01*
X12393467Y-18168389D02*
X12393467Y-18120770D01*
X12393467Y-18120770D02*
X12383944Y-18101722D01*
X12383944Y-18101722D02*
X12374420Y-18092198D01*
X12374420Y-18092198D02*
X12355372Y-18082674D01*
X12355372Y-18082674D02*
X12317277Y-18082674D01*
X12317277Y-18082674D02*
X12298229Y-18092198D01*
X12298229Y-18092198D02*
X12288706Y-18101722D01*
X12288706Y-18101722D02*
X12279182Y-18120770D01*
X12517277Y-18006484D02*
X12536325Y-18006484D01*
X12536325Y-18006484D02*
X12555372Y-18016008D01*
X12555372Y-18016008D02*
X12564896Y-18025531D01*
X12564896Y-18025531D02*
X12574420Y-18044579D01*
X12574420Y-18044579D02*
X12583944Y-18082674D01*
X12583944Y-18082674D02*
X12583944Y-18130293D01*
X12583944Y-18130293D02*
X12574420Y-18168389D01*
X12574420Y-18168389D02*
X12564896Y-18187436D01*
X12564896Y-18187436D02*
X12555372Y-18196960D01*
X12555372Y-18196960D02*
X12536325Y-18206484D01*
X12536325Y-18206484D02*
X12517277Y-18206484D01*
X12517277Y-18206484D02*
X12498229Y-18196960D01*
X12498229Y-18196960D02*
X12488706Y-18187436D01*
X12488706Y-18187436D02*
X12479182Y-18168389D01*
X12479182Y-18168389D02*
X12469658Y-18130293D01*
X12469658Y-18130293D02*
X12469658Y-18082674D01*
X12469658Y-18082674D02*
X12479182Y-18044579D01*
X12479182Y-18044579D02*
X12488706Y-18025531D01*
X12488706Y-18025531D02*
X12498229Y-18016008D01*
X12498229Y-18016008D02*
X12517277Y-18006484D01*
X12660134Y-18006484D02*
X12660134Y-18044579D01*
X12736325Y-18006484D02*
X12736325Y-18044579D01*
X13031563Y-18282674D02*
X13022039Y-18273150D01*
X13022039Y-18273150D02*
X13002991Y-18244579D01*
X13002991Y-18244579D02*
X12993468Y-18225531D01*
X12993468Y-18225531D02*
X12983944Y-18196960D01*
X12983944Y-18196960D02*
X12974420Y-18149341D01*
X12974420Y-18149341D02*
X12974420Y-18111246D01*
X12974420Y-18111246D02*
X12983944Y-18063627D01*
X12983944Y-18063627D02*
X12993468Y-18035055D01*
X12993468Y-18035055D02*
X13002991Y-18016008D01*
X13002991Y-18016008D02*
X13022039Y-17987436D01*
X13022039Y-17987436D02*
X13031563Y-17977912D01*
X13193468Y-18073150D02*
X13193468Y-18206484D01*
X13145848Y-17996960D02*
X13098229Y-18139817D01*
X13098229Y-18139817D02*
X13222039Y-18139817D01*
X13450610Y-18206484D02*
X13450610Y-18006484D01*
X13536325Y-18206484D02*
X13536325Y-18101722D01*
X13536325Y-18101722D02*
X13526801Y-18082674D01*
X13526801Y-18082674D02*
X13507753Y-18073150D01*
X13507753Y-18073150D02*
X13479182Y-18073150D01*
X13479182Y-18073150D02*
X13460134Y-18082674D01*
X13460134Y-18082674D02*
X13450610Y-18092198D01*
X13660134Y-18206484D02*
X13641087Y-18196960D01*
X13641087Y-18196960D02*
X13631563Y-18187436D01*
X13631563Y-18187436D02*
X13622039Y-18168389D01*
X13622039Y-18168389D02*
X13622039Y-18111246D01*
X13622039Y-18111246D02*
X13631563Y-18092198D01*
X13631563Y-18092198D02*
X13641087Y-18082674D01*
X13641087Y-18082674D02*
X13660134Y-18073150D01*
X13660134Y-18073150D02*
X13688706Y-18073150D01*
X13688706Y-18073150D02*
X13707753Y-18082674D01*
X13707753Y-18082674D02*
X13717277Y-18092198D01*
X13717277Y-18092198D02*
X13726801Y-18111246D01*
X13726801Y-18111246D02*
X13726801Y-18168389D01*
X13726801Y-18168389D02*
X13717277Y-18187436D01*
X13717277Y-18187436D02*
X13707753Y-18196960D01*
X13707753Y-18196960D02*
X13688706Y-18206484D01*
X13688706Y-18206484D02*
X13660134Y-18206484D01*
X13841087Y-18206484D02*
X13822039Y-18196960D01*
X13822039Y-18196960D02*
X13812515Y-18177912D01*
X13812515Y-18177912D02*
X13812515Y-18006484D01*
X13993468Y-18196960D02*
X13974420Y-18206484D01*
X13974420Y-18206484D02*
X13936325Y-18206484D01*
X13936325Y-18206484D02*
X13917277Y-18196960D01*
X13917277Y-18196960D02*
X13907753Y-18177912D01*
X13907753Y-18177912D02*
X13907753Y-18101722D01*
X13907753Y-18101722D02*
X13917277Y-18082674D01*
X13917277Y-18082674D02*
X13936325Y-18073150D01*
X13936325Y-18073150D02*
X13974420Y-18073150D01*
X13974420Y-18073150D02*
X13993468Y-18082674D01*
X13993468Y-18082674D02*
X14002991Y-18101722D01*
X14002991Y-18101722D02*
X14002991Y-18120770D01*
X14002991Y-18120770D02*
X13907753Y-18139817D01*
X14079182Y-18196960D02*
X14098230Y-18206484D01*
X14098230Y-18206484D02*
X14136325Y-18206484D01*
X14136325Y-18206484D02*
X14155372Y-18196960D01*
X14155372Y-18196960D02*
X14164896Y-18177912D01*
X14164896Y-18177912D02*
X14164896Y-18168389D01*
X14164896Y-18168389D02*
X14155372Y-18149341D01*
X14155372Y-18149341D02*
X14136325Y-18139817D01*
X14136325Y-18139817D02*
X14107753Y-18139817D01*
X14107753Y-18139817D02*
X14088706Y-18130293D01*
X14088706Y-18130293D02*
X14079182Y-18111246D01*
X14079182Y-18111246D02*
X14079182Y-18101722D01*
X14079182Y-18101722D02*
X14088706Y-18082674D01*
X14088706Y-18082674D02*
X14107753Y-18073150D01*
X14107753Y-18073150D02*
X14136325Y-18073150D01*
X14136325Y-18073150D02*
X14155372Y-18082674D01*
X14231563Y-18282674D02*
X14241087Y-18273150D01*
X14241087Y-18273150D02*
X14260134Y-18244579D01*
X14260134Y-18244579D02*
X14269658Y-18225531D01*
X14269658Y-18225531D02*
X14279182Y-18196960D01*
X14279182Y-18196960D02*
X14288706Y-18149341D01*
X14288706Y-18149341D02*
X14288706Y-18111246D01*
X14288706Y-18111246D02*
X14279182Y-18063627D01*
X14279182Y-18063627D02*
X14269658Y-18035055D01*
X14269658Y-18035055D02*
X14260134Y-18016008D01*
X14260134Y-18016008D02*
X14241087Y-17987436D01*
X14241087Y-17987436D02*
X14231563Y-17977912D01*
M02*
