M48
; DRILL file {KiCad 7.0.10} date Thu Jul 18 14:33:10 2024
; FORMAT={-:-/ absolute / inch / decimal}
; #@! TF.CreationDate,2024-07-18T14:33:10-06:00
; #@! TF.GenerationSoftware,Kicad,Pcbnew,7.0.10
; #@! TF.FileFunction,Plated,1,4,PTH
FMAT,2
INCH
; #@! TA.AperFunction,Plated,PTH,ComponentDrill
T1C0.0236
; #@! TA.AperFunction,Plated,PTH,ComponentDrill
T2C0.0295
; #@! TA.AperFunction,Plated,PTH,ComponentDrill
T3C0.0315
; #@! TA.AperFunction,Plated,PTH,ComponentDrill
T4C0.0394
; #@! TA.AperFunction,Plated,PTH,ComponentDrill
T5C0.0402
; #@! TA.AperFunction,Plated,PTH,ComponentDrill
T6C0.0433
; #@! TA.AperFunction,Plated,PTH,ComponentDrill
T7C0.0472
; #@! TA.AperFunction,Plated,PTH,ComponentDrill
T8C0.0512
; #@! TA.AperFunction,Plated,PTH,ComponentDrill
T9C0.0630
; #@! TA.AperFunction,Plated,PTH,ComponentDrill
T10C0.0669
%
G90
G05
T1
X5.25Y-3.95
X5.3287Y-3.95
T2
X4.6Y-4.1
X4.6Y-4.15
X4.6Y-4.2
X6.25Y-4.1
X6.25Y-4.15
X6.25Y-4.2
T3
X4.4Y-3.7
X4.4Y-3.8
X4.5Y-4.45
X4.6Y-4.45
X4.65Y-3.7
X4.65Y-3.8
X4.85Y-4.15
X4.9Y-2.9016
X4.9Y-3.0
X4.95Y-4.15
X5.2Y-4.25
X5.2984Y-4.25
X5.95Y-4.15
X6.0006Y-4.7502
X6.0006Y-4.8502
X6.0006Y-4.9502
X6.0006Y-5.0502
X6.0006Y-5.1502
X6.0006Y-5.2502
X6.0006Y-5.3502
X6.05Y-4.15
X6.15Y-3.7
X6.15Y-3.8
X6.3006Y-4.7502
X6.3006Y-4.8502
X6.3006Y-4.9502
X6.3006Y-5.0502
X6.3006Y-5.1502
X6.3006Y-5.2502
X6.3006Y-5.3502
X6.4Y-3.7
X6.4Y-3.8
T4
X6.799Y-5.3994
X6.799Y-5.4994
X6.799Y-5.5994
T5
X3.7Y-4.75
X3.7Y-5.45
X3.8Y-4.75
X3.8Y-5.45
X3.9Y-4.75
X3.9Y-5.45
X4.0Y-4.75
X4.0Y-5.45
X4.1Y-4.75
X4.1Y-5.45
X4.2Y-4.75
X4.2Y-5.45
X4.3Y-4.75
X4.3Y-5.45
X4.4Y-4.75
X4.4Y-5.45
X4.5Y-4.75
X4.5Y-5.45
X4.6Y-4.75
X4.6Y-5.45
X4.7Y-4.75
X4.7Y-5.45
X4.8Y-4.75
X4.8Y-5.45
X4.9Y-4.75
X4.9Y-5.45
X5.0Y-4.75
X5.0Y-5.45
X5.1Y-4.75
X5.1Y-5.45
X5.2Y-4.75
X5.2Y-5.45
X5.3Y-4.75
X5.3Y-5.45
X5.4Y-4.75
X5.4Y-5.45
X5.5Y-4.75
X5.5Y-5.45
X5.5909Y-5.0
X5.5909Y-5.1
X5.5909Y-5.2
X5.6Y-4.75
X5.6Y-5.45
T6
X4.4Y-3.3372
X4.5Y-3.3372
X4.6Y-3.3372
X5.5628Y-4.05
X5.5628Y-4.15
X5.5628Y-4.25
X6.15Y-3.3372
X6.25Y-3.3372
X6.35Y-3.3372
T7
X6.775Y-4.5543
X6.775Y-4.7543
X6.775Y-4.975
X6.775Y-5.175
T8
X3.7496Y-2.8406
X3.7496Y-3.7831
X4.0496Y-3.039
X4.0496Y-3.7831
X6.7496Y-2.8406
X6.7496Y-3.7831
X7.0496Y-3.039
X7.0496Y-3.7831
T9
X3.6Y-4.15
X4.2Y-4.15
X6.55Y-4.15
X7.15Y-4.15
T10
X5.2524Y-3.0699
X5.5024Y-3.4439
M30
