%TF.GenerationSoftware,KiCad,Pcbnew,7.0.10*%
%TF.CreationDate,2024-07-20T16:55:26-06:00*%
%TF.ProjectId,Pressure-Controlled-Power-Outlet-control-PCB,50726573-7375-4726-952d-436f6e74726f,V1.2.3*%
%TF.SameCoordinates,Original*%
%TF.FileFunction,Drillmap*%
%TF.FilePolarity,Positive*%
%FSLAX45Y45*%
G04 Gerber Fmt 4.5, Leading zero omitted, Abs format (unit mm)*
G04 Created by KiCad (PCBNEW 7.0.10) date 2024-07-20 16:55:26*
%MOMM*%
%LPD*%
G01*
G04 APERTURE LIST*
%ADD10C,0.100000*%
%ADD11C,0.200000*%
%ADD12C,0.110000*%
%ADD13C,0.150000*%
%ADD14C,0.180000*%
G04 APERTURE END LIST*
D10*
X8636000Y-5588000D02*
X18669000Y-5588000D01*
X18669000Y-15621000D01*
X8636000Y-15621000D01*
X8636000Y-5588000D01*
D11*
D12*
X15185000Y-15147000D02*
X15295000Y-15257000D01*
X15295000Y-15147000D02*
X15185000Y-15257000D01*
X16963000Y-15177000D02*
X17073000Y-15287000D01*
X17073000Y-15177000D02*
X16963000Y-15287000D01*
D13*
X9789000Y-12711500D02*
G75*
G03*
X9639000Y-12711500I-75000J0D01*
G01*
X9639000Y-12711500D02*
G75*
G03*
X9789000Y-12711500I75000J0D01*
G01*
X9789000Y-13196500D02*
G75*
G03*
X9639000Y-13196500I-75000J0D01*
G01*
X9639000Y-13196500D02*
G75*
G03*
X9789000Y-13196500I75000J0D01*
G01*
D14*
X9411000Y-12591500D02*
X9411000Y-12771500D01*
X9321000Y-12681500D02*
X9501000Y-12681500D01*
X9411000Y-13136500D02*
X9411000Y-13316500D01*
X9321000Y-13226500D02*
X9501000Y-13226500D01*
D11*
X8891777Y-15937484D02*
X8891777Y-15737484D01*
X8891777Y-15737484D02*
X8939396Y-15737484D01*
X8939396Y-15737484D02*
X8967967Y-15747008D01*
X8967967Y-15747008D02*
X8987015Y-15766055D01*
X8987015Y-15766055D02*
X8996539Y-15785103D01*
X8996539Y-15785103D02*
X9006063Y-15823198D01*
X9006063Y-15823198D02*
X9006063Y-15851769D01*
X9006063Y-15851769D02*
X8996539Y-15889865D01*
X8996539Y-15889865D02*
X8987015Y-15908912D01*
X8987015Y-15908912D02*
X8967967Y-15927960D01*
X8967967Y-15927960D02*
X8939396Y-15937484D01*
X8939396Y-15937484D02*
X8891777Y-15937484D01*
X9091777Y-15937484D02*
X9091777Y-15804150D01*
X9091777Y-15842246D02*
X9101301Y-15823198D01*
X9101301Y-15823198D02*
X9110824Y-15813674D01*
X9110824Y-15813674D02*
X9129872Y-15804150D01*
X9129872Y-15804150D02*
X9148920Y-15804150D01*
X9215586Y-15937484D02*
X9215586Y-15804150D01*
X9215586Y-15737484D02*
X9206063Y-15747008D01*
X9206063Y-15747008D02*
X9215586Y-15756531D01*
X9215586Y-15756531D02*
X9225110Y-15747008D01*
X9225110Y-15747008D02*
X9215586Y-15737484D01*
X9215586Y-15737484D02*
X9215586Y-15756531D01*
X9339396Y-15937484D02*
X9320348Y-15927960D01*
X9320348Y-15927960D02*
X9310824Y-15908912D01*
X9310824Y-15908912D02*
X9310824Y-15737484D01*
X9444158Y-15937484D02*
X9425110Y-15927960D01*
X9425110Y-15927960D02*
X9415586Y-15908912D01*
X9415586Y-15908912D02*
X9415586Y-15737484D01*
X9672729Y-15937484D02*
X9672729Y-15737484D01*
X9672729Y-15737484D02*
X9739396Y-15880341D01*
X9739396Y-15880341D02*
X9806063Y-15737484D01*
X9806063Y-15737484D02*
X9806063Y-15937484D01*
X9987015Y-15937484D02*
X9987015Y-15832722D01*
X9987015Y-15832722D02*
X9977491Y-15813674D01*
X9977491Y-15813674D02*
X9958444Y-15804150D01*
X9958444Y-15804150D02*
X9920348Y-15804150D01*
X9920348Y-15804150D02*
X9901301Y-15813674D01*
X9987015Y-15927960D02*
X9967967Y-15937484D01*
X9967967Y-15937484D02*
X9920348Y-15937484D01*
X9920348Y-15937484D02*
X9901301Y-15927960D01*
X9901301Y-15927960D02*
X9891777Y-15908912D01*
X9891777Y-15908912D02*
X9891777Y-15889865D01*
X9891777Y-15889865D02*
X9901301Y-15870817D01*
X9901301Y-15870817D02*
X9920348Y-15861293D01*
X9920348Y-15861293D02*
X9967967Y-15861293D01*
X9967967Y-15861293D02*
X9987015Y-15851769D01*
X10082253Y-15804150D02*
X10082253Y-16004150D01*
X10082253Y-15813674D02*
X10101301Y-15804150D01*
X10101301Y-15804150D02*
X10139396Y-15804150D01*
X10139396Y-15804150D02*
X10158444Y-15813674D01*
X10158444Y-15813674D02*
X10167967Y-15823198D01*
X10167967Y-15823198D02*
X10177491Y-15842246D01*
X10177491Y-15842246D02*
X10177491Y-15899388D01*
X10177491Y-15899388D02*
X10167967Y-15918436D01*
X10167967Y-15918436D02*
X10158444Y-15927960D01*
X10158444Y-15927960D02*
X10139396Y-15937484D01*
X10139396Y-15937484D02*
X10101301Y-15937484D01*
X10101301Y-15937484D02*
X10082253Y-15927960D01*
X10263205Y-15918436D02*
X10272729Y-15927960D01*
X10272729Y-15927960D02*
X10263205Y-15937484D01*
X10263205Y-15937484D02*
X10253682Y-15927960D01*
X10253682Y-15927960D02*
X10263205Y-15918436D01*
X10263205Y-15918436D02*
X10263205Y-15937484D01*
X10263205Y-15813674D02*
X10272729Y-15823198D01*
X10272729Y-15823198D02*
X10263205Y-15832722D01*
X10263205Y-15832722D02*
X10253682Y-15823198D01*
X10253682Y-15823198D02*
X10263205Y-15813674D01*
X10263205Y-15813674D02*
X10263205Y-15832722D01*
D12*
X8521000Y-16211000D02*
X8631000Y-16321000D01*
X8631000Y-16211000D02*
X8521000Y-16321000D01*
D11*
X8996539Y-16357484D02*
X8882253Y-16357484D01*
X8939396Y-16357484D02*
X8939396Y-16157484D01*
X8939396Y-16157484D02*
X8920348Y-16186055D01*
X8920348Y-16186055D02*
X8901301Y-16205103D01*
X8901301Y-16205103D02*
X8882253Y-16214627D01*
X9082253Y-16338436D02*
X9091777Y-16347960D01*
X9091777Y-16347960D02*
X9082253Y-16357484D01*
X9082253Y-16357484D02*
X9072729Y-16347960D01*
X9072729Y-16347960D02*
X9082253Y-16338436D01*
X9082253Y-16338436D02*
X9082253Y-16357484D01*
X9282253Y-16357484D02*
X9167967Y-16357484D01*
X9225110Y-16357484D02*
X9225110Y-16157484D01*
X9225110Y-16157484D02*
X9206063Y-16186055D01*
X9206063Y-16186055D02*
X9187015Y-16205103D01*
X9187015Y-16205103D02*
X9167967Y-16214627D01*
X9406063Y-16157484D02*
X9425110Y-16157484D01*
X9425110Y-16157484D02*
X9444158Y-16167008D01*
X9444158Y-16167008D02*
X9453682Y-16176531D01*
X9453682Y-16176531D02*
X9463205Y-16195579D01*
X9463205Y-16195579D02*
X9472729Y-16233674D01*
X9472729Y-16233674D02*
X9472729Y-16281293D01*
X9472729Y-16281293D02*
X9463205Y-16319388D01*
X9463205Y-16319388D02*
X9453682Y-16338436D01*
X9453682Y-16338436D02*
X9444158Y-16347960D01*
X9444158Y-16347960D02*
X9425110Y-16357484D01*
X9425110Y-16357484D02*
X9406063Y-16357484D01*
X9406063Y-16357484D02*
X9387015Y-16347960D01*
X9387015Y-16347960D02*
X9377491Y-16338436D01*
X9377491Y-16338436D02*
X9367967Y-16319388D01*
X9367967Y-16319388D02*
X9358444Y-16281293D01*
X9358444Y-16281293D02*
X9358444Y-16233674D01*
X9358444Y-16233674D02*
X9367967Y-16195579D01*
X9367967Y-16195579D02*
X9377491Y-16176531D01*
X9377491Y-16176531D02*
X9387015Y-16167008D01*
X9387015Y-16167008D02*
X9406063Y-16157484D01*
X9596539Y-16157484D02*
X9615586Y-16157484D01*
X9615586Y-16157484D02*
X9634634Y-16167008D01*
X9634634Y-16167008D02*
X9644158Y-16176531D01*
X9644158Y-16176531D02*
X9653682Y-16195579D01*
X9653682Y-16195579D02*
X9663205Y-16233674D01*
X9663205Y-16233674D02*
X9663205Y-16281293D01*
X9663205Y-16281293D02*
X9653682Y-16319388D01*
X9653682Y-16319388D02*
X9644158Y-16338436D01*
X9644158Y-16338436D02*
X9634634Y-16347960D01*
X9634634Y-16347960D02*
X9615586Y-16357484D01*
X9615586Y-16357484D02*
X9596539Y-16357484D01*
X9596539Y-16357484D02*
X9577491Y-16347960D01*
X9577491Y-16347960D02*
X9567967Y-16338436D01*
X9567967Y-16338436D02*
X9558444Y-16319388D01*
X9558444Y-16319388D02*
X9548920Y-16281293D01*
X9548920Y-16281293D02*
X9548920Y-16233674D01*
X9548920Y-16233674D02*
X9558444Y-16195579D01*
X9558444Y-16195579D02*
X9567967Y-16176531D01*
X9567967Y-16176531D02*
X9577491Y-16167008D01*
X9577491Y-16167008D02*
X9596539Y-16157484D01*
X9748920Y-16357484D02*
X9748920Y-16224150D01*
X9748920Y-16243198D02*
X9758444Y-16233674D01*
X9758444Y-16233674D02*
X9777491Y-16224150D01*
X9777491Y-16224150D02*
X9806063Y-16224150D01*
X9806063Y-16224150D02*
X9825110Y-16233674D01*
X9825110Y-16233674D02*
X9834634Y-16252722D01*
X9834634Y-16252722D02*
X9834634Y-16357484D01*
X9834634Y-16252722D02*
X9844158Y-16233674D01*
X9844158Y-16233674D02*
X9863205Y-16224150D01*
X9863205Y-16224150D02*
X9891777Y-16224150D01*
X9891777Y-16224150D02*
X9910825Y-16233674D01*
X9910825Y-16233674D02*
X9920348Y-16252722D01*
X9920348Y-16252722D02*
X9920348Y-16357484D01*
X10015586Y-16357484D02*
X10015586Y-16224150D01*
X10015586Y-16243198D02*
X10025110Y-16233674D01*
X10025110Y-16233674D02*
X10044158Y-16224150D01*
X10044158Y-16224150D02*
X10072729Y-16224150D01*
X10072729Y-16224150D02*
X10091777Y-16233674D01*
X10091777Y-16233674D02*
X10101301Y-16252722D01*
X10101301Y-16252722D02*
X10101301Y-16357484D01*
X10101301Y-16252722D02*
X10110825Y-16233674D01*
X10110825Y-16233674D02*
X10129872Y-16224150D01*
X10129872Y-16224150D02*
X10158444Y-16224150D01*
X10158444Y-16224150D02*
X10177491Y-16233674D01*
X10177491Y-16233674D02*
X10187015Y-16252722D01*
X10187015Y-16252722D02*
X10187015Y-16357484D01*
X10577491Y-16147960D02*
X10406063Y-16405103D01*
X10834634Y-16157484D02*
X10853682Y-16157484D01*
X10853682Y-16157484D02*
X10872729Y-16167008D01*
X10872729Y-16167008D02*
X10882253Y-16176531D01*
X10882253Y-16176531D02*
X10891777Y-16195579D01*
X10891777Y-16195579D02*
X10901301Y-16233674D01*
X10901301Y-16233674D02*
X10901301Y-16281293D01*
X10901301Y-16281293D02*
X10891777Y-16319388D01*
X10891777Y-16319388D02*
X10882253Y-16338436D01*
X10882253Y-16338436D02*
X10872729Y-16347960D01*
X10872729Y-16347960D02*
X10853682Y-16357484D01*
X10853682Y-16357484D02*
X10834634Y-16357484D01*
X10834634Y-16357484D02*
X10815587Y-16347960D01*
X10815587Y-16347960D02*
X10806063Y-16338436D01*
X10806063Y-16338436D02*
X10796539Y-16319388D01*
X10796539Y-16319388D02*
X10787015Y-16281293D01*
X10787015Y-16281293D02*
X10787015Y-16233674D01*
X10787015Y-16233674D02*
X10796539Y-16195579D01*
X10796539Y-16195579D02*
X10806063Y-16176531D01*
X10806063Y-16176531D02*
X10815587Y-16167008D01*
X10815587Y-16167008D02*
X10834634Y-16157484D01*
X10987015Y-16338436D02*
X10996539Y-16347960D01*
X10996539Y-16347960D02*
X10987015Y-16357484D01*
X10987015Y-16357484D02*
X10977491Y-16347960D01*
X10977491Y-16347960D02*
X10987015Y-16338436D01*
X10987015Y-16338436D02*
X10987015Y-16357484D01*
X11120348Y-16157484D02*
X11139396Y-16157484D01*
X11139396Y-16157484D02*
X11158444Y-16167008D01*
X11158444Y-16167008D02*
X11167968Y-16176531D01*
X11167968Y-16176531D02*
X11177491Y-16195579D01*
X11177491Y-16195579D02*
X11187015Y-16233674D01*
X11187015Y-16233674D02*
X11187015Y-16281293D01*
X11187015Y-16281293D02*
X11177491Y-16319388D01*
X11177491Y-16319388D02*
X11167968Y-16338436D01*
X11167968Y-16338436D02*
X11158444Y-16347960D01*
X11158444Y-16347960D02*
X11139396Y-16357484D01*
X11139396Y-16357484D02*
X11120348Y-16357484D01*
X11120348Y-16357484D02*
X11101301Y-16347960D01*
X11101301Y-16347960D02*
X11091777Y-16338436D01*
X11091777Y-16338436D02*
X11082253Y-16319388D01*
X11082253Y-16319388D02*
X11072729Y-16281293D01*
X11072729Y-16281293D02*
X11072729Y-16233674D01*
X11072729Y-16233674D02*
X11082253Y-16195579D01*
X11082253Y-16195579D02*
X11091777Y-16176531D01*
X11091777Y-16176531D02*
X11101301Y-16167008D01*
X11101301Y-16167008D02*
X11120348Y-16157484D01*
X11358444Y-16224150D02*
X11358444Y-16357484D01*
X11310825Y-16147960D02*
X11263206Y-16290817D01*
X11263206Y-16290817D02*
X11387015Y-16290817D01*
X11444158Y-16157484D02*
X11567967Y-16157484D01*
X11567967Y-16157484D02*
X11501301Y-16233674D01*
X11501301Y-16233674D02*
X11529872Y-16233674D01*
X11529872Y-16233674D02*
X11548920Y-16243198D01*
X11548920Y-16243198D02*
X11558444Y-16252722D01*
X11558444Y-16252722D02*
X11567967Y-16271769D01*
X11567967Y-16271769D02*
X11567967Y-16319388D01*
X11567967Y-16319388D02*
X11558444Y-16338436D01*
X11558444Y-16338436D02*
X11548920Y-16347960D01*
X11548920Y-16347960D02*
X11529872Y-16357484D01*
X11529872Y-16357484D02*
X11472729Y-16357484D01*
X11472729Y-16357484D02*
X11453682Y-16347960D01*
X11453682Y-16347960D02*
X11444158Y-16338436D01*
X11634634Y-16157484D02*
X11758444Y-16157484D01*
X11758444Y-16157484D02*
X11691777Y-16233674D01*
X11691777Y-16233674D02*
X11720348Y-16233674D01*
X11720348Y-16233674D02*
X11739396Y-16243198D01*
X11739396Y-16243198D02*
X11748920Y-16252722D01*
X11748920Y-16252722D02*
X11758444Y-16271769D01*
X11758444Y-16271769D02*
X11758444Y-16319388D01*
X11758444Y-16319388D02*
X11748920Y-16338436D01*
X11748920Y-16338436D02*
X11739396Y-16347960D01*
X11739396Y-16347960D02*
X11720348Y-16357484D01*
X11720348Y-16357484D02*
X11663206Y-16357484D01*
X11663206Y-16357484D02*
X11644158Y-16347960D01*
X11644158Y-16347960D02*
X11634634Y-16338436D01*
X11834634Y-16157484D02*
X11834634Y-16195579D01*
X11910825Y-16157484D02*
X11910825Y-16195579D01*
X12206063Y-16433674D02*
X12196539Y-16424150D01*
X12196539Y-16424150D02*
X12177491Y-16395579D01*
X12177491Y-16395579D02*
X12167968Y-16376531D01*
X12167968Y-16376531D02*
X12158444Y-16347960D01*
X12158444Y-16347960D02*
X12148920Y-16300341D01*
X12148920Y-16300341D02*
X12148920Y-16262246D01*
X12148920Y-16262246D02*
X12158444Y-16214627D01*
X12158444Y-16214627D02*
X12167968Y-16186055D01*
X12167968Y-16186055D02*
X12177491Y-16167008D01*
X12177491Y-16167008D02*
X12196539Y-16138436D01*
X12196539Y-16138436D02*
X12206063Y-16128912D01*
X12272729Y-16176531D02*
X12282253Y-16167008D01*
X12282253Y-16167008D02*
X12301301Y-16157484D01*
X12301301Y-16157484D02*
X12348920Y-16157484D01*
X12348920Y-16157484D02*
X12367968Y-16167008D01*
X12367968Y-16167008D02*
X12377491Y-16176531D01*
X12377491Y-16176531D02*
X12387015Y-16195579D01*
X12387015Y-16195579D02*
X12387015Y-16214627D01*
X12387015Y-16214627D02*
X12377491Y-16243198D01*
X12377491Y-16243198D02*
X12263206Y-16357484D01*
X12263206Y-16357484D02*
X12387015Y-16357484D01*
X12625110Y-16357484D02*
X12625110Y-16157484D01*
X12710825Y-16357484D02*
X12710825Y-16252722D01*
X12710825Y-16252722D02*
X12701301Y-16233674D01*
X12701301Y-16233674D02*
X12682253Y-16224150D01*
X12682253Y-16224150D02*
X12653682Y-16224150D01*
X12653682Y-16224150D02*
X12634634Y-16233674D01*
X12634634Y-16233674D02*
X12625110Y-16243198D01*
X12834634Y-16357484D02*
X12815587Y-16347960D01*
X12815587Y-16347960D02*
X12806063Y-16338436D01*
X12806063Y-16338436D02*
X12796539Y-16319388D01*
X12796539Y-16319388D02*
X12796539Y-16262246D01*
X12796539Y-16262246D02*
X12806063Y-16243198D01*
X12806063Y-16243198D02*
X12815587Y-16233674D01*
X12815587Y-16233674D02*
X12834634Y-16224150D01*
X12834634Y-16224150D02*
X12863206Y-16224150D01*
X12863206Y-16224150D02*
X12882253Y-16233674D01*
X12882253Y-16233674D02*
X12891777Y-16243198D01*
X12891777Y-16243198D02*
X12901301Y-16262246D01*
X12901301Y-16262246D02*
X12901301Y-16319388D01*
X12901301Y-16319388D02*
X12891777Y-16338436D01*
X12891777Y-16338436D02*
X12882253Y-16347960D01*
X12882253Y-16347960D02*
X12863206Y-16357484D01*
X12863206Y-16357484D02*
X12834634Y-16357484D01*
X13015587Y-16357484D02*
X12996539Y-16347960D01*
X12996539Y-16347960D02*
X12987015Y-16328912D01*
X12987015Y-16328912D02*
X12987015Y-16157484D01*
X13167968Y-16347960D02*
X13148920Y-16357484D01*
X13148920Y-16357484D02*
X13110825Y-16357484D01*
X13110825Y-16357484D02*
X13091777Y-16347960D01*
X13091777Y-16347960D02*
X13082253Y-16328912D01*
X13082253Y-16328912D02*
X13082253Y-16252722D01*
X13082253Y-16252722D02*
X13091777Y-16233674D01*
X13091777Y-16233674D02*
X13110825Y-16224150D01*
X13110825Y-16224150D02*
X13148920Y-16224150D01*
X13148920Y-16224150D02*
X13167968Y-16233674D01*
X13167968Y-16233674D02*
X13177491Y-16252722D01*
X13177491Y-16252722D02*
X13177491Y-16271769D01*
X13177491Y-16271769D02*
X13082253Y-16290817D01*
X13253682Y-16347960D02*
X13272730Y-16357484D01*
X13272730Y-16357484D02*
X13310825Y-16357484D01*
X13310825Y-16357484D02*
X13329872Y-16347960D01*
X13329872Y-16347960D02*
X13339396Y-16328912D01*
X13339396Y-16328912D02*
X13339396Y-16319388D01*
X13339396Y-16319388D02*
X13329872Y-16300341D01*
X13329872Y-16300341D02*
X13310825Y-16290817D01*
X13310825Y-16290817D02*
X13282253Y-16290817D01*
X13282253Y-16290817D02*
X13263206Y-16281293D01*
X13263206Y-16281293D02*
X13253682Y-16262246D01*
X13253682Y-16262246D02*
X13253682Y-16252722D01*
X13253682Y-16252722D02*
X13263206Y-16233674D01*
X13263206Y-16233674D02*
X13282253Y-16224150D01*
X13282253Y-16224150D02*
X13310825Y-16224150D01*
X13310825Y-16224150D02*
X13329872Y-16233674D01*
X13406063Y-16433674D02*
X13415587Y-16424150D01*
X13415587Y-16424150D02*
X13434634Y-16395579D01*
X13434634Y-16395579D02*
X13444158Y-16376531D01*
X13444158Y-16376531D02*
X13453682Y-16347960D01*
X13453682Y-16347960D02*
X13463206Y-16300341D01*
X13463206Y-16300341D02*
X13463206Y-16262246D01*
X13463206Y-16262246D02*
X13453682Y-16214627D01*
X13453682Y-16214627D02*
X13444158Y-16186055D01*
X13444158Y-16186055D02*
X13434634Y-16167008D01*
X13434634Y-16167008D02*
X13415587Y-16138436D01*
X13415587Y-16138436D02*
X13406063Y-16128912D01*
X13767968Y-16433674D02*
X13758444Y-16424150D01*
X13758444Y-16424150D02*
X13739396Y-16395579D01*
X13739396Y-16395579D02*
X13729872Y-16376531D01*
X13729872Y-16376531D02*
X13720349Y-16347960D01*
X13720349Y-16347960D02*
X13710825Y-16300341D01*
X13710825Y-16300341D02*
X13710825Y-16262246D01*
X13710825Y-16262246D02*
X13720349Y-16214627D01*
X13720349Y-16214627D02*
X13729872Y-16186055D01*
X13729872Y-16186055D02*
X13739396Y-16167008D01*
X13739396Y-16167008D02*
X13758444Y-16138436D01*
X13758444Y-16138436D02*
X13767968Y-16128912D01*
X13844158Y-16224150D02*
X13844158Y-16357484D01*
X13844158Y-16243198D02*
X13853682Y-16233674D01*
X13853682Y-16233674D02*
X13872730Y-16224150D01*
X13872730Y-16224150D02*
X13901301Y-16224150D01*
X13901301Y-16224150D02*
X13920349Y-16233674D01*
X13920349Y-16233674D02*
X13929872Y-16252722D01*
X13929872Y-16252722D02*
X13929872Y-16357484D01*
X14053682Y-16357484D02*
X14034634Y-16347960D01*
X14034634Y-16347960D02*
X14025111Y-16338436D01*
X14025111Y-16338436D02*
X14015587Y-16319388D01*
X14015587Y-16319388D02*
X14015587Y-16262246D01*
X14015587Y-16262246D02*
X14025111Y-16243198D01*
X14025111Y-16243198D02*
X14034634Y-16233674D01*
X14034634Y-16233674D02*
X14053682Y-16224150D01*
X14053682Y-16224150D02*
X14082253Y-16224150D01*
X14082253Y-16224150D02*
X14101301Y-16233674D01*
X14101301Y-16233674D02*
X14110825Y-16243198D01*
X14110825Y-16243198D02*
X14120349Y-16262246D01*
X14120349Y-16262246D02*
X14120349Y-16319388D01*
X14120349Y-16319388D02*
X14110825Y-16338436D01*
X14110825Y-16338436D02*
X14101301Y-16347960D01*
X14101301Y-16347960D02*
X14082253Y-16357484D01*
X14082253Y-16357484D02*
X14053682Y-16357484D01*
X14177492Y-16224150D02*
X14253682Y-16224150D01*
X14206063Y-16157484D02*
X14206063Y-16328912D01*
X14206063Y-16328912D02*
X14215587Y-16347960D01*
X14215587Y-16347960D02*
X14234634Y-16357484D01*
X14234634Y-16357484D02*
X14253682Y-16357484D01*
X14472730Y-16224150D02*
X14472730Y-16424150D01*
X14472730Y-16233674D02*
X14491777Y-16224150D01*
X14491777Y-16224150D02*
X14529873Y-16224150D01*
X14529873Y-16224150D02*
X14548920Y-16233674D01*
X14548920Y-16233674D02*
X14558444Y-16243198D01*
X14558444Y-16243198D02*
X14567968Y-16262246D01*
X14567968Y-16262246D02*
X14567968Y-16319388D01*
X14567968Y-16319388D02*
X14558444Y-16338436D01*
X14558444Y-16338436D02*
X14548920Y-16347960D01*
X14548920Y-16347960D02*
X14529873Y-16357484D01*
X14529873Y-16357484D02*
X14491777Y-16357484D01*
X14491777Y-16357484D02*
X14472730Y-16347960D01*
X14682253Y-16357484D02*
X14663206Y-16347960D01*
X14663206Y-16347960D02*
X14653682Y-16328912D01*
X14653682Y-16328912D02*
X14653682Y-16157484D01*
X14844158Y-16357484D02*
X14844158Y-16252722D01*
X14844158Y-16252722D02*
X14834634Y-16233674D01*
X14834634Y-16233674D02*
X14815587Y-16224150D01*
X14815587Y-16224150D02*
X14777492Y-16224150D01*
X14777492Y-16224150D02*
X14758444Y-16233674D01*
X14844158Y-16347960D02*
X14825111Y-16357484D01*
X14825111Y-16357484D02*
X14777492Y-16357484D01*
X14777492Y-16357484D02*
X14758444Y-16347960D01*
X14758444Y-16347960D02*
X14748920Y-16328912D01*
X14748920Y-16328912D02*
X14748920Y-16309865D01*
X14748920Y-16309865D02*
X14758444Y-16290817D01*
X14758444Y-16290817D02*
X14777492Y-16281293D01*
X14777492Y-16281293D02*
X14825111Y-16281293D01*
X14825111Y-16281293D02*
X14844158Y-16271769D01*
X14910825Y-16224150D02*
X14987015Y-16224150D01*
X14939396Y-16157484D02*
X14939396Y-16328912D01*
X14939396Y-16328912D02*
X14948920Y-16347960D01*
X14948920Y-16347960D02*
X14967968Y-16357484D01*
X14967968Y-16357484D02*
X14987015Y-16357484D01*
X15129873Y-16347960D02*
X15110825Y-16357484D01*
X15110825Y-16357484D02*
X15072730Y-16357484D01*
X15072730Y-16357484D02*
X15053682Y-16347960D01*
X15053682Y-16347960D02*
X15044158Y-16328912D01*
X15044158Y-16328912D02*
X15044158Y-16252722D01*
X15044158Y-16252722D02*
X15053682Y-16233674D01*
X15053682Y-16233674D02*
X15072730Y-16224150D01*
X15072730Y-16224150D02*
X15110825Y-16224150D01*
X15110825Y-16224150D02*
X15129873Y-16233674D01*
X15129873Y-16233674D02*
X15139396Y-16252722D01*
X15139396Y-16252722D02*
X15139396Y-16271769D01*
X15139396Y-16271769D02*
X15044158Y-16290817D01*
X15310825Y-16357484D02*
X15310825Y-16157484D01*
X15310825Y-16347960D02*
X15291777Y-16357484D01*
X15291777Y-16357484D02*
X15253682Y-16357484D01*
X15253682Y-16357484D02*
X15234634Y-16347960D01*
X15234634Y-16347960D02*
X15225111Y-16338436D01*
X15225111Y-16338436D02*
X15215587Y-16319388D01*
X15215587Y-16319388D02*
X15215587Y-16262246D01*
X15215587Y-16262246D02*
X15225111Y-16243198D01*
X15225111Y-16243198D02*
X15234634Y-16233674D01*
X15234634Y-16233674D02*
X15253682Y-16224150D01*
X15253682Y-16224150D02*
X15291777Y-16224150D01*
X15291777Y-16224150D02*
X15310825Y-16233674D01*
X15387015Y-16433674D02*
X15396539Y-16424150D01*
X15396539Y-16424150D02*
X15415587Y-16395579D01*
X15415587Y-16395579D02*
X15425111Y-16376531D01*
X15425111Y-16376531D02*
X15434634Y-16347960D01*
X15434634Y-16347960D02*
X15444158Y-16300341D01*
X15444158Y-16300341D02*
X15444158Y-16262246D01*
X15444158Y-16262246D02*
X15434634Y-16214627D01*
X15434634Y-16214627D02*
X15425111Y-16186055D01*
X15425111Y-16186055D02*
X15415587Y-16167008D01*
X15415587Y-16167008D02*
X15396539Y-16138436D01*
X15396539Y-16138436D02*
X15387015Y-16128912D01*
D13*
X8631000Y-16530000D02*
G75*
G03*
X8481000Y-16530000I-75000J0D01*
G01*
X8481000Y-16530000D02*
G75*
G03*
X8631000Y-16530000I75000J0D01*
G01*
D11*
X8996539Y-16621484D02*
X8882253Y-16621484D01*
X8939396Y-16621484D02*
X8939396Y-16421484D01*
X8939396Y-16421484D02*
X8920348Y-16450055D01*
X8920348Y-16450055D02*
X8901301Y-16469103D01*
X8901301Y-16469103D02*
X8882253Y-16478627D01*
X9082253Y-16602436D02*
X9091777Y-16611960D01*
X9091777Y-16611960D02*
X9082253Y-16621484D01*
X9082253Y-16621484D02*
X9072729Y-16611960D01*
X9072729Y-16611960D02*
X9082253Y-16602436D01*
X9082253Y-16602436D02*
X9082253Y-16621484D01*
X9272729Y-16421484D02*
X9177491Y-16421484D01*
X9177491Y-16421484D02*
X9167967Y-16516722D01*
X9167967Y-16516722D02*
X9177491Y-16507198D01*
X9177491Y-16507198D02*
X9196539Y-16497674D01*
X9196539Y-16497674D02*
X9244158Y-16497674D01*
X9244158Y-16497674D02*
X9263205Y-16507198D01*
X9263205Y-16507198D02*
X9272729Y-16516722D01*
X9272729Y-16516722D02*
X9282253Y-16535769D01*
X9282253Y-16535769D02*
X9282253Y-16583388D01*
X9282253Y-16583388D02*
X9272729Y-16602436D01*
X9272729Y-16602436D02*
X9263205Y-16611960D01*
X9263205Y-16611960D02*
X9244158Y-16621484D01*
X9244158Y-16621484D02*
X9196539Y-16621484D01*
X9196539Y-16621484D02*
X9177491Y-16611960D01*
X9177491Y-16611960D02*
X9167967Y-16602436D01*
X9406063Y-16421484D02*
X9425110Y-16421484D01*
X9425110Y-16421484D02*
X9444158Y-16431008D01*
X9444158Y-16431008D02*
X9453682Y-16440531D01*
X9453682Y-16440531D02*
X9463205Y-16459579D01*
X9463205Y-16459579D02*
X9472729Y-16497674D01*
X9472729Y-16497674D02*
X9472729Y-16545293D01*
X9472729Y-16545293D02*
X9463205Y-16583388D01*
X9463205Y-16583388D02*
X9453682Y-16602436D01*
X9453682Y-16602436D02*
X9444158Y-16611960D01*
X9444158Y-16611960D02*
X9425110Y-16621484D01*
X9425110Y-16621484D02*
X9406063Y-16621484D01*
X9406063Y-16621484D02*
X9387015Y-16611960D01*
X9387015Y-16611960D02*
X9377491Y-16602436D01*
X9377491Y-16602436D02*
X9367967Y-16583388D01*
X9367967Y-16583388D02*
X9358444Y-16545293D01*
X9358444Y-16545293D02*
X9358444Y-16497674D01*
X9358444Y-16497674D02*
X9367967Y-16459579D01*
X9367967Y-16459579D02*
X9377491Y-16440531D01*
X9377491Y-16440531D02*
X9387015Y-16431008D01*
X9387015Y-16431008D02*
X9406063Y-16421484D01*
X9596539Y-16421484D02*
X9615586Y-16421484D01*
X9615586Y-16421484D02*
X9634634Y-16431008D01*
X9634634Y-16431008D02*
X9644158Y-16440531D01*
X9644158Y-16440531D02*
X9653682Y-16459579D01*
X9653682Y-16459579D02*
X9663205Y-16497674D01*
X9663205Y-16497674D02*
X9663205Y-16545293D01*
X9663205Y-16545293D02*
X9653682Y-16583388D01*
X9653682Y-16583388D02*
X9644158Y-16602436D01*
X9644158Y-16602436D02*
X9634634Y-16611960D01*
X9634634Y-16611960D02*
X9615586Y-16621484D01*
X9615586Y-16621484D02*
X9596539Y-16621484D01*
X9596539Y-16621484D02*
X9577491Y-16611960D01*
X9577491Y-16611960D02*
X9567967Y-16602436D01*
X9567967Y-16602436D02*
X9558444Y-16583388D01*
X9558444Y-16583388D02*
X9548920Y-16545293D01*
X9548920Y-16545293D02*
X9548920Y-16497674D01*
X9548920Y-16497674D02*
X9558444Y-16459579D01*
X9558444Y-16459579D02*
X9567967Y-16440531D01*
X9567967Y-16440531D02*
X9577491Y-16431008D01*
X9577491Y-16431008D02*
X9596539Y-16421484D01*
X9748920Y-16621484D02*
X9748920Y-16488150D01*
X9748920Y-16507198D02*
X9758444Y-16497674D01*
X9758444Y-16497674D02*
X9777491Y-16488150D01*
X9777491Y-16488150D02*
X9806063Y-16488150D01*
X9806063Y-16488150D02*
X9825110Y-16497674D01*
X9825110Y-16497674D02*
X9834634Y-16516722D01*
X9834634Y-16516722D02*
X9834634Y-16621484D01*
X9834634Y-16516722D02*
X9844158Y-16497674D01*
X9844158Y-16497674D02*
X9863205Y-16488150D01*
X9863205Y-16488150D02*
X9891777Y-16488150D01*
X9891777Y-16488150D02*
X9910825Y-16497674D01*
X9910825Y-16497674D02*
X9920348Y-16516722D01*
X9920348Y-16516722D02*
X9920348Y-16621484D01*
X10015586Y-16621484D02*
X10015586Y-16488150D01*
X10015586Y-16507198D02*
X10025110Y-16497674D01*
X10025110Y-16497674D02*
X10044158Y-16488150D01*
X10044158Y-16488150D02*
X10072729Y-16488150D01*
X10072729Y-16488150D02*
X10091777Y-16497674D01*
X10091777Y-16497674D02*
X10101301Y-16516722D01*
X10101301Y-16516722D02*
X10101301Y-16621484D01*
X10101301Y-16516722D02*
X10110825Y-16497674D01*
X10110825Y-16497674D02*
X10129872Y-16488150D01*
X10129872Y-16488150D02*
X10158444Y-16488150D01*
X10158444Y-16488150D02*
X10177491Y-16497674D01*
X10177491Y-16497674D02*
X10187015Y-16516722D01*
X10187015Y-16516722D02*
X10187015Y-16621484D01*
X10577491Y-16411960D02*
X10406063Y-16669103D01*
X10834634Y-16421484D02*
X10853682Y-16421484D01*
X10853682Y-16421484D02*
X10872729Y-16431008D01*
X10872729Y-16431008D02*
X10882253Y-16440531D01*
X10882253Y-16440531D02*
X10891777Y-16459579D01*
X10891777Y-16459579D02*
X10901301Y-16497674D01*
X10901301Y-16497674D02*
X10901301Y-16545293D01*
X10901301Y-16545293D02*
X10891777Y-16583388D01*
X10891777Y-16583388D02*
X10882253Y-16602436D01*
X10882253Y-16602436D02*
X10872729Y-16611960D01*
X10872729Y-16611960D02*
X10853682Y-16621484D01*
X10853682Y-16621484D02*
X10834634Y-16621484D01*
X10834634Y-16621484D02*
X10815587Y-16611960D01*
X10815587Y-16611960D02*
X10806063Y-16602436D01*
X10806063Y-16602436D02*
X10796539Y-16583388D01*
X10796539Y-16583388D02*
X10787015Y-16545293D01*
X10787015Y-16545293D02*
X10787015Y-16497674D01*
X10787015Y-16497674D02*
X10796539Y-16459579D01*
X10796539Y-16459579D02*
X10806063Y-16440531D01*
X10806063Y-16440531D02*
X10815587Y-16431008D01*
X10815587Y-16431008D02*
X10834634Y-16421484D01*
X10987015Y-16602436D02*
X10996539Y-16611960D01*
X10996539Y-16611960D02*
X10987015Y-16621484D01*
X10987015Y-16621484D02*
X10977491Y-16611960D01*
X10977491Y-16611960D02*
X10987015Y-16602436D01*
X10987015Y-16602436D02*
X10987015Y-16621484D01*
X11120348Y-16421484D02*
X11139396Y-16421484D01*
X11139396Y-16421484D02*
X11158444Y-16431008D01*
X11158444Y-16431008D02*
X11167968Y-16440531D01*
X11167968Y-16440531D02*
X11177491Y-16459579D01*
X11177491Y-16459579D02*
X11187015Y-16497674D01*
X11187015Y-16497674D02*
X11187015Y-16545293D01*
X11187015Y-16545293D02*
X11177491Y-16583388D01*
X11177491Y-16583388D02*
X11167968Y-16602436D01*
X11167968Y-16602436D02*
X11158444Y-16611960D01*
X11158444Y-16611960D02*
X11139396Y-16621484D01*
X11139396Y-16621484D02*
X11120348Y-16621484D01*
X11120348Y-16621484D02*
X11101301Y-16611960D01*
X11101301Y-16611960D02*
X11091777Y-16602436D01*
X11091777Y-16602436D02*
X11082253Y-16583388D01*
X11082253Y-16583388D02*
X11072729Y-16545293D01*
X11072729Y-16545293D02*
X11072729Y-16497674D01*
X11072729Y-16497674D02*
X11082253Y-16459579D01*
X11082253Y-16459579D02*
X11091777Y-16440531D01*
X11091777Y-16440531D02*
X11101301Y-16431008D01*
X11101301Y-16431008D02*
X11120348Y-16421484D01*
X11367967Y-16421484D02*
X11272729Y-16421484D01*
X11272729Y-16421484D02*
X11263206Y-16516722D01*
X11263206Y-16516722D02*
X11272729Y-16507198D01*
X11272729Y-16507198D02*
X11291777Y-16497674D01*
X11291777Y-16497674D02*
X11339396Y-16497674D01*
X11339396Y-16497674D02*
X11358444Y-16507198D01*
X11358444Y-16507198D02*
X11367967Y-16516722D01*
X11367967Y-16516722D02*
X11377491Y-16535769D01*
X11377491Y-16535769D02*
X11377491Y-16583388D01*
X11377491Y-16583388D02*
X11367967Y-16602436D01*
X11367967Y-16602436D02*
X11358444Y-16611960D01*
X11358444Y-16611960D02*
X11339396Y-16621484D01*
X11339396Y-16621484D02*
X11291777Y-16621484D01*
X11291777Y-16621484D02*
X11272729Y-16611960D01*
X11272729Y-16611960D02*
X11263206Y-16602436D01*
X11472729Y-16621484D02*
X11510825Y-16621484D01*
X11510825Y-16621484D02*
X11529872Y-16611960D01*
X11529872Y-16611960D02*
X11539396Y-16602436D01*
X11539396Y-16602436D02*
X11558444Y-16573865D01*
X11558444Y-16573865D02*
X11567967Y-16535769D01*
X11567967Y-16535769D02*
X11567967Y-16459579D01*
X11567967Y-16459579D02*
X11558444Y-16440531D01*
X11558444Y-16440531D02*
X11548920Y-16431008D01*
X11548920Y-16431008D02*
X11529872Y-16421484D01*
X11529872Y-16421484D02*
X11491777Y-16421484D01*
X11491777Y-16421484D02*
X11472729Y-16431008D01*
X11472729Y-16431008D02*
X11463206Y-16440531D01*
X11463206Y-16440531D02*
X11453682Y-16459579D01*
X11453682Y-16459579D02*
X11453682Y-16507198D01*
X11453682Y-16507198D02*
X11463206Y-16526246D01*
X11463206Y-16526246D02*
X11472729Y-16535769D01*
X11472729Y-16535769D02*
X11491777Y-16545293D01*
X11491777Y-16545293D02*
X11529872Y-16545293D01*
X11529872Y-16545293D02*
X11548920Y-16535769D01*
X11548920Y-16535769D02*
X11558444Y-16526246D01*
X11558444Y-16526246D02*
X11567967Y-16507198D01*
X11758444Y-16621484D02*
X11644158Y-16621484D01*
X11701301Y-16621484D02*
X11701301Y-16421484D01*
X11701301Y-16421484D02*
X11682253Y-16450055D01*
X11682253Y-16450055D02*
X11663206Y-16469103D01*
X11663206Y-16469103D02*
X11644158Y-16478627D01*
X11834634Y-16421484D02*
X11834634Y-16459579D01*
X11910825Y-16421484D02*
X11910825Y-16459579D01*
X12206063Y-16697674D02*
X12196539Y-16688150D01*
X12196539Y-16688150D02*
X12177491Y-16659579D01*
X12177491Y-16659579D02*
X12167968Y-16640531D01*
X12167968Y-16640531D02*
X12158444Y-16611960D01*
X12158444Y-16611960D02*
X12148920Y-16564341D01*
X12148920Y-16564341D02*
X12148920Y-16526246D01*
X12148920Y-16526246D02*
X12158444Y-16478627D01*
X12158444Y-16478627D02*
X12167968Y-16450055D01*
X12167968Y-16450055D02*
X12177491Y-16431008D01*
X12177491Y-16431008D02*
X12196539Y-16402436D01*
X12196539Y-16402436D02*
X12206063Y-16392912D01*
X12272729Y-16440531D02*
X12282253Y-16431008D01*
X12282253Y-16431008D02*
X12301301Y-16421484D01*
X12301301Y-16421484D02*
X12348920Y-16421484D01*
X12348920Y-16421484D02*
X12367968Y-16431008D01*
X12367968Y-16431008D02*
X12377491Y-16440531D01*
X12377491Y-16440531D02*
X12387015Y-16459579D01*
X12387015Y-16459579D02*
X12387015Y-16478627D01*
X12387015Y-16478627D02*
X12377491Y-16507198D01*
X12377491Y-16507198D02*
X12263206Y-16621484D01*
X12263206Y-16621484D02*
X12387015Y-16621484D01*
X12625110Y-16621484D02*
X12625110Y-16421484D01*
X12710825Y-16621484D02*
X12710825Y-16516722D01*
X12710825Y-16516722D02*
X12701301Y-16497674D01*
X12701301Y-16497674D02*
X12682253Y-16488150D01*
X12682253Y-16488150D02*
X12653682Y-16488150D01*
X12653682Y-16488150D02*
X12634634Y-16497674D01*
X12634634Y-16497674D02*
X12625110Y-16507198D01*
X12834634Y-16621484D02*
X12815587Y-16611960D01*
X12815587Y-16611960D02*
X12806063Y-16602436D01*
X12806063Y-16602436D02*
X12796539Y-16583388D01*
X12796539Y-16583388D02*
X12796539Y-16526246D01*
X12796539Y-16526246D02*
X12806063Y-16507198D01*
X12806063Y-16507198D02*
X12815587Y-16497674D01*
X12815587Y-16497674D02*
X12834634Y-16488150D01*
X12834634Y-16488150D02*
X12863206Y-16488150D01*
X12863206Y-16488150D02*
X12882253Y-16497674D01*
X12882253Y-16497674D02*
X12891777Y-16507198D01*
X12891777Y-16507198D02*
X12901301Y-16526246D01*
X12901301Y-16526246D02*
X12901301Y-16583388D01*
X12901301Y-16583388D02*
X12891777Y-16602436D01*
X12891777Y-16602436D02*
X12882253Y-16611960D01*
X12882253Y-16611960D02*
X12863206Y-16621484D01*
X12863206Y-16621484D02*
X12834634Y-16621484D01*
X13015587Y-16621484D02*
X12996539Y-16611960D01*
X12996539Y-16611960D02*
X12987015Y-16592912D01*
X12987015Y-16592912D02*
X12987015Y-16421484D01*
X13167968Y-16611960D02*
X13148920Y-16621484D01*
X13148920Y-16621484D02*
X13110825Y-16621484D01*
X13110825Y-16621484D02*
X13091777Y-16611960D01*
X13091777Y-16611960D02*
X13082253Y-16592912D01*
X13082253Y-16592912D02*
X13082253Y-16516722D01*
X13082253Y-16516722D02*
X13091777Y-16497674D01*
X13091777Y-16497674D02*
X13110825Y-16488150D01*
X13110825Y-16488150D02*
X13148920Y-16488150D01*
X13148920Y-16488150D02*
X13167968Y-16497674D01*
X13167968Y-16497674D02*
X13177491Y-16516722D01*
X13177491Y-16516722D02*
X13177491Y-16535769D01*
X13177491Y-16535769D02*
X13082253Y-16554817D01*
X13253682Y-16611960D02*
X13272730Y-16621484D01*
X13272730Y-16621484D02*
X13310825Y-16621484D01*
X13310825Y-16621484D02*
X13329872Y-16611960D01*
X13329872Y-16611960D02*
X13339396Y-16592912D01*
X13339396Y-16592912D02*
X13339396Y-16583388D01*
X13339396Y-16583388D02*
X13329872Y-16564341D01*
X13329872Y-16564341D02*
X13310825Y-16554817D01*
X13310825Y-16554817D02*
X13282253Y-16554817D01*
X13282253Y-16554817D02*
X13263206Y-16545293D01*
X13263206Y-16545293D02*
X13253682Y-16526246D01*
X13253682Y-16526246D02*
X13253682Y-16516722D01*
X13253682Y-16516722D02*
X13263206Y-16497674D01*
X13263206Y-16497674D02*
X13282253Y-16488150D01*
X13282253Y-16488150D02*
X13310825Y-16488150D01*
X13310825Y-16488150D02*
X13329872Y-16497674D01*
X13406063Y-16697674D02*
X13415587Y-16688150D01*
X13415587Y-16688150D02*
X13434634Y-16659579D01*
X13434634Y-16659579D02*
X13444158Y-16640531D01*
X13444158Y-16640531D02*
X13453682Y-16611960D01*
X13453682Y-16611960D02*
X13463206Y-16564341D01*
X13463206Y-16564341D02*
X13463206Y-16526246D01*
X13463206Y-16526246D02*
X13453682Y-16478627D01*
X13453682Y-16478627D02*
X13444158Y-16450055D01*
X13444158Y-16450055D02*
X13434634Y-16431008D01*
X13434634Y-16431008D02*
X13415587Y-16402436D01*
X13415587Y-16402436D02*
X13406063Y-16392912D01*
X13767968Y-16697674D02*
X13758444Y-16688150D01*
X13758444Y-16688150D02*
X13739396Y-16659579D01*
X13739396Y-16659579D02*
X13729872Y-16640531D01*
X13729872Y-16640531D02*
X13720349Y-16611960D01*
X13720349Y-16611960D02*
X13710825Y-16564341D01*
X13710825Y-16564341D02*
X13710825Y-16526246D01*
X13710825Y-16526246D02*
X13720349Y-16478627D01*
X13720349Y-16478627D02*
X13729872Y-16450055D01*
X13729872Y-16450055D02*
X13739396Y-16431008D01*
X13739396Y-16431008D02*
X13758444Y-16402436D01*
X13758444Y-16402436D02*
X13767968Y-16392912D01*
X13844158Y-16488150D02*
X13844158Y-16621484D01*
X13844158Y-16507198D02*
X13853682Y-16497674D01*
X13853682Y-16497674D02*
X13872730Y-16488150D01*
X13872730Y-16488150D02*
X13901301Y-16488150D01*
X13901301Y-16488150D02*
X13920349Y-16497674D01*
X13920349Y-16497674D02*
X13929872Y-16516722D01*
X13929872Y-16516722D02*
X13929872Y-16621484D01*
X14053682Y-16621484D02*
X14034634Y-16611960D01*
X14034634Y-16611960D02*
X14025111Y-16602436D01*
X14025111Y-16602436D02*
X14015587Y-16583388D01*
X14015587Y-16583388D02*
X14015587Y-16526246D01*
X14015587Y-16526246D02*
X14025111Y-16507198D01*
X14025111Y-16507198D02*
X14034634Y-16497674D01*
X14034634Y-16497674D02*
X14053682Y-16488150D01*
X14053682Y-16488150D02*
X14082253Y-16488150D01*
X14082253Y-16488150D02*
X14101301Y-16497674D01*
X14101301Y-16497674D02*
X14110825Y-16507198D01*
X14110825Y-16507198D02*
X14120349Y-16526246D01*
X14120349Y-16526246D02*
X14120349Y-16583388D01*
X14120349Y-16583388D02*
X14110825Y-16602436D01*
X14110825Y-16602436D02*
X14101301Y-16611960D01*
X14101301Y-16611960D02*
X14082253Y-16621484D01*
X14082253Y-16621484D02*
X14053682Y-16621484D01*
X14177492Y-16488150D02*
X14253682Y-16488150D01*
X14206063Y-16421484D02*
X14206063Y-16592912D01*
X14206063Y-16592912D02*
X14215587Y-16611960D01*
X14215587Y-16611960D02*
X14234634Y-16621484D01*
X14234634Y-16621484D02*
X14253682Y-16621484D01*
X14472730Y-16488150D02*
X14472730Y-16688150D01*
X14472730Y-16497674D02*
X14491777Y-16488150D01*
X14491777Y-16488150D02*
X14529873Y-16488150D01*
X14529873Y-16488150D02*
X14548920Y-16497674D01*
X14548920Y-16497674D02*
X14558444Y-16507198D01*
X14558444Y-16507198D02*
X14567968Y-16526246D01*
X14567968Y-16526246D02*
X14567968Y-16583388D01*
X14567968Y-16583388D02*
X14558444Y-16602436D01*
X14558444Y-16602436D02*
X14548920Y-16611960D01*
X14548920Y-16611960D02*
X14529873Y-16621484D01*
X14529873Y-16621484D02*
X14491777Y-16621484D01*
X14491777Y-16621484D02*
X14472730Y-16611960D01*
X14682253Y-16621484D02*
X14663206Y-16611960D01*
X14663206Y-16611960D02*
X14653682Y-16592912D01*
X14653682Y-16592912D02*
X14653682Y-16421484D01*
X14844158Y-16621484D02*
X14844158Y-16516722D01*
X14844158Y-16516722D02*
X14834634Y-16497674D01*
X14834634Y-16497674D02*
X14815587Y-16488150D01*
X14815587Y-16488150D02*
X14777492Y-16488150D01*
X14777492Y-16488150D02*
X14758444Y-16497674D01*
X14844158Y-16611960D02*
X14825111Y-16621484D01*
X14825111Y-16621484D02*
X14777492Y-16621484D01*
X14777492Y-16621484D02*
X14758444Y-16611960D01*
X14758444Y-16611960D02*
X14748920Y-16592912D01*
X14748920Y-16592912D02*
X14748920Y-16573865D01*
X14748920Y-16573865D02*
X14758444Y-16554817D01*
X14758444Y-16554817D02*
X14777492Y-16545293D01*
X14777492Y-16545293D02*
X14825111Y-16545293D01*
X14825111Y-16545293D02*
X14844158Y-16535769D01*
X14910825Y-16488150D02*
X14987015Y-16488150D01*
X14939396Y-16421484D02*
X14939396Y-16592912D01*
X14939396Y-16592912D02*
X14948920Y-16611960D01*
X14948920Y-16611960D02*
X14967968Y-16621484D01*
X14967968Y-16621484D02*
X14987015Y-16621484D01*
X15129873Y-16611960D02*
X15110825Y-16621484D01*
X15110825Y-16621484D02*
X15072730Y-16621484D01*
X15072730Y-16621484D02*
X15053682Y-16611960D01*
X15053682Y-16611960D02*
X15044158Y-16592912D01*
X15044158Y-16592912D02*
X15044158Y-16516722D01*
X15044158Y-16516722D02*
X15053682Y-16497674D01*
X15053682Y-16497674D02*
X15072730Y-16488150D01*
X15072730Y-16488150D02*
X15110825Y-16488150D01*
X15110825Y-16488150D02*
X15129873Y-16497674D01*
X15129873Y-16497674D02*
X15139396Y-16516722D01*
X15139396Y-16516722D02*
X15139396Y-16535769D01*
X15139396Y-16535769D02*
X15044158Y-16554817D01*
X15310825Y-16621484D02*
X15310825Y-16421484D01*
X15310825Y-16611960D02*
X15291777Y-16621484D01*
X15291777Y-16621484D02*
X15253682Y-16621484D01*
X15253682Y-16621484D02*
X15234634Y-16611960D01*
X15234634Y-16611960D02*
X15225111Y-16602436D01*
X15225111Y-16602436D02*
X15215587Y-16583388D01*
X15215587Y-16583388D02*
X15215587Y-16526246D01*
X15215587Y-16526246D02*
X15225111Y-16507198D01*
X15225111Y-16507198D02*
X15234634Y-16497674D01*
X15234634Y-16497674D02*
X15253682Y-16488150D01*
X15253682Y-16488150D02*
X15291777Y-16488150D01*
X15291777Y-16488150D02*
X15310825Y-16497674D01*
X15387015Y-16697674D02*
X15396539Y-16688150D01*
X15396539Y-16688150D02*
X15415587Y-16659579D01*
X15415587Y-16659579D02*
X15425111Y-16640531D01*
X15425111Y-16640531D02*
X15434634Y-16611960D01*
X15434634Y-16611960D02*
X15444158Y-16564341D01*
X15444158Y-16564341D02*
X15444158Y-16526246D01*
X15444158Y-16526246D02*
X15434634Y-16478627D01*
X15434634Y-16478627D02*
X15425111Y-16450055D01*
X15425111Y-16450055D02*
X15415587Y-16431008D01*
X15415587Y-16431008D02*
X15396539Y-16402436D01*
X15396539Y-16402436D02*
X15387015Y-16392912D01*
D14*
X8541000Y-16710000D02*
X8541000Y-16890000D01*
X8451000Y-16800000D02*
X8631000Y-16800000D01*
D11*
X8996539Y-16891484D02*
X8882253Y-16891484D01*
X8939396Y-16891484D02*
X8939396Y-16691484D01*
X8939396Y-16691484D02*
X8920348Y-16720055D01*
X8920348Y-16720055D02*
X8901301Y-16739103D01*
X8901301Y-16739103D02*
X8882253Y-16748627D01*
X9082253Y-16872436D02*
X9091777Y-16881960D01*
X9091777Y-16881960D02*
X9082253Y-16891484D01*
X9082253Y-16891484D02*
X9072729Y-16881960D01*
X9072729Y-16881960D02*
X9082253Y-16872436D01*
X9082253Y-16872436D02*
X9082253Y-16891484D01*
X9206063Y-16777198D02*
X9187015Y-16767674D01*
X9187015Y-16767674D02*
X9177491Y-16758150D01*
X9177491Y-16758150D02*
X9167967Y-16739103D01*
X9167967Y-16739103D02*
X9167967Y-16729579D01*
X9167967Y-16729579D02*
X9177491Y-16710531D01*
X9177491Y-16710531D02*
X9187015Y-16701008D01*
X9187015Y-16701008D02*
X9206063Y-16691484D01*
X9206063Y-16691484D02*
X9244158Y-16691484D01*
X9244158Y-16691484D02*
X9263205Y-16701008D01*
X9263205Y-16701008D02*
X9272729Y-16710531D01*
X9272729Y-16710531D02*
X9282253Y-16729579D01*
X9282253Y-16729579D02*
X9282253Y-16739103D01*
X9282253Y-16739103D02*
X9272729Y-16758150D01*
X9272729Y-16758150D02*
X9263205Y-16767674D01*
X9263205Y-16767674D02*
X9244158Y-16777198D01*
X9244158Y-16777198D02*
X9206063Y-16777198D01*
X9206063Y-16777198D02*
X9187015Y-16786722D01*
X9187015Y-16786722D02*
X9177491Y-16796246D01*
X9177491Y-16796246D02*
X9167967Y-16815293D01*
X9167967Y-16815293D02*
X9167967Y-16853389D01*
X9167967Y-16853389D02*
X9177491Y-16872436D01*
X9177491Y-16872436D02*
X9187015Y-16881960D01*
X9187015Y-16881960D02*
X9206063Y-16891484D01*
X9206063Y-16891484D02*
X9244158Y-16891484D01*
X9244158Y-16891484D02*
X9263205Y-16881960D01*
X9263205Y-16881960D02*
X9272729Y-16872436D01*
X9272729Y-16872436D02*
X9282253Y-16853389D01*
X9282253Y-16853389D02*
X9282253Y-16815293D01*
X9282253Y-16815293D02*
X9272729Y-16796246D01*
X9272729Y-16796246D02*
X9263205Y-16786722D01*
X9263205Y-16786722D02*
X9244158Y-16777198D01*
X9406063Y-16691484D02*
X9425110Y-16691484D01*
X9425110Y-16691484D02*
X9444158Y-16701008D01*
X9444158Y-16701008D02*
X9453682Y-16710531D01*
X9453682Y-16710531D02*
X9463205Y-16729579D01*
X9463205Y-16729579D02*
X9472729Y-16767674D01*
X9472729Y-16767674D02*
X9472729Y-16815293D01*
X9472729Y-16815293D02*
X9463205Y-16853389D01*
X9463205Y-16853389D02*
X9453682Y-16872436D01*
X9453682Y-16872436D02*
X9444158Y-16881960D01*
X9444158Y-16881960D02*
X9425110Y-16891484D01*
X9425110Y-16891484D02*
X9406063Y-16891484D01*
X9406063Y-16891484D02*
X9387015Y-16881960D01*
X9387015Y-16881960D02*
X9377491Y-16872436D01*
X9377491Y-16872436D02*
X9367967Y-16853389D01*
X9367967Y-16853389D02*
X9358444Y-16815293D01*
X9358444Y-16815293D02*
X9358444Y-16767674D01*
X9358444Y-16767674D02*
X9367967Y-16729579D01*
X9367967Y-16729579D02*
X9377491Y-16710531D01*
X9377491Y-16710531D02*
X9387015Y-16701008D01*
X9387015Y-16701008D02*
X9406063Y-16691484D01*
X9596539Y-16691484D02*
X9615586Y-16691484D01*
X9615586Y-16691484D02*
X9634634Y-16701008D01*
X9634634Y-16701008D02*
X9644158Y-16710531D01*
X9644158Y-16710531D02*
X9653682Y-16729579D01*
X9653682Y-16729579D02*
X9663205Y-16767674D01*
X9663205Y-16767674D02*
X9663205Y-16815293D01*
X9663205Y-16815293D02*
X9653682Y-16853389D01*
X9653682Y-16853389D02*
X9644158Y-16872436D01*
X9644158Y-16872436D02*
X9634634Y-16881960D01*
X9634634Y-16881960D02*
X9615586Y-16891484D01*
X9615586Y-16891484D02*
X9596539Y-16891484D01*
X9596539Y-16891484D02*
X9577491Y-16881960D01*
X9577491Y-16881960D02*
X9567967Y-16872436D01*
X9567967Y-16872436D02*
X9558444Y-16853389D01*
X9558444Y-16853389D02*
X9548920Y-16815293D01*
X9548920Y-16815293D02*
X9548920Y-16767674D01*
X9548920Y-16767674D02*
X9558444Y-16729579D01*
X9558444Y-16729579D02*
X9567967Y-16710531D01*
X9567967Y-16710531D02*
X9577491Y-16701008D01*
X9577491Y-16701008D02*
X9596539Y-16691484D01*
X9748920Y-16891484D02*
X9748920Y-16758150D01*
X9748920Y-16777198D02*
X9758444Y-16767674D01*
X9758444Y-16767674D02*
X9777491Y-16758150D01*
X9777491Y-16758150D02*
X9806063Y-16758150D01*
X9806063Y-16758150D02*
X9825110Y-16767674D01*
X9825110Y-16767674D02*
X9834634Y-16786722D01*
X9834634Y-16786722D02*
X9834634Y-16891484D01*
X9834634Y-16786722D02*
X9844158Y-16767674D01*
X9844158Y-16767674D02*
X9863205Y-16758150D01*
X9863205Y-16758150D02*
X9891777Y-16758150D01*
X9891777Y-16758150D02*
X9910825Y-16767674D01*
X9910825Y-16767674D02*
X9920348Y-16786722D01*
X9920348Y-16786722D02*
X9920348Y-16891484D01*
X10015586Y-16891484D02*
X10015586Y-16758150D01*
X10015586Y-16777198D02*
X10025110Y-16767674D01*
X10025110Y-16767674D02*
X10044158Y-16758150D01*
X10044158Y-16758150D02*
X10072729Y-16758150D01*
X10072729Y-16758150D02*
X10091777Y-16767674D01*
X10091777Y-16767674D02*
X10101301Y-16786722D01*
X10101301Y-16786722D02*
X10101301Y-16891484D01*
X10101301Y-16786722D02*
X10110825Y-16767674D01*
X10110825Y-16767674D02*
X10129872Y-16758150D01*
X10129872Y-16758150D02*
X10158444Y-16758150D01*
X10158444Y-16758150D02*
X10177491Y-16767674D01*
X10177491Y-16767674D02*
X10187015Y-16786722D01*
X10187015Y-16786722D02*
X10187015Y-16891484D01*
X10577491Y-16681960D02*
X10406063Y-16939103D01*
X10834634Y-16691484D02*
X10853682Y-16691484D01*
X10853682Y-16691484D02*
X10872729Y-16701008D01*
X10872729Y-16701008D02*
X10882253Y-16710531D01*
X10882253Y-16710531D02*
X10891777Y-16729579D01*
X10891777Y-16729579D02*
X10901301Y-16767674D01*
X10901301Y-16767674D02*
X10901301Y-16815293D01*
X10901301Y-16815293D02*
X10891777Y-16853389D01*
X10891777Y-16853389D02*
X10882253Y-16872436D01*
X10882253Y-16872436D02*
X10872729Y-16881960D01*
X10872729Y-16881960D02*
X10853682Y-16891484D01*
X10853682Y-16891484D02*
X10834634Y-16891484D01*
X10834634Y-16891484D02*
X10815587Y-16881960D01*
X10815587Y-16881960D02*
X10806063Y-16872436D01*
X10806063Y-16872436D02*
X10796539Y-16853389D01*
X10796539Y-16853389D02*
X10787015Y-16815293D01*
X10787015Y-16815293D02*
X10787015Y-16767674D01*
X10787015Y-16767674D02*
X10796539Y-16729579D01*
X10796539Y-16729579D02*
X10806063Y-16710531D01*
X10806063Y-16710531D02*
X10815587Y-16701008D01*
X10815587Y-16701008D02*
X10834634Y-16691484D01*
X10987015Y-16872436D02*
X10996539Y-16881960D01*
X10996539Y-16881960D02*
X10987015Y-16891484D01*
X10987015Y-16891484D02*
X10977491Y-16881960D01*
X10977491Y-16881960D02*
X10987015Y-16872436D01*
X10987015Y-16872436D02*
X10987015Y-16891484D01*
X11120348Y-16691484D02*
X11139396Y-16691484D01*
X11139396Y-16691484D02*
X11158444Y-16701008D01*
X11158444Y-16701008D02*
X11167968Y-16710531D01*
X11167968Y-16710531D02*
X11177491Y-16729579D01*
X11177491Y-16729579D02*
X11187015Y-16767674D01*
X11187015Y-16767674D02*
X11187015Y-16815293D01*
X11187015Y-16815293D02*
X11177491Y-16853389D01*
X11177491Y-16853389D02*
X11167968Y-16872436D01*
X11167968Y-16872436D02*
X11158444Y-16881960D01*
X11158444Y-16881960D02*
X11139396Y-16891484D01*
X11139396Y-16891484D02*
X11120348Y-16891484D01*
X11120348Y-16891484D02*
X11101301Y-16881960D01*
X11101301Y-16881960D02*
X11091777Y-16872436D01*
X11091777Y-16872436D02*
X11082253Y-16853389D01*
X11082253Y-16853389D02*
X11072729Y-16815293D01*
X11072729Y-16815293D02*
X11072729Y-16767674D01*
X11072729Y-16767674D02*
X11082253Y-16729579D01*
X11082253Y-16729579D02*
X11091777Y-16710531D01*
X11091777Y-16710531D02*
X11101301Y-16701008D01*
X11101301Y-16701008D02*
X11120348Y-16691484D01*
X11253682Y-16691484D02*
X11387015Y-16691484D01*
X11387015Y-16691484D02*
X11301301Y-16891484D01*
X11501301Y-16691484D02*
X11520348Y-16691484D01*
X11520348Y-16691484D02*
X11539396Y-16701008D01*
X11539396Y-16701008D02*
X11548920Y-16710531D01*
X11548920Y-16710531D02*
X11558444Y-16729579D01*
X11558444Y-16729579D02*
X11567967Y-16767674D01*
X11567967Y-16767674D02*
X11567967Y-16815293D01*
X11567967Y-16815293D02*
X11558444Y-16853389D01*
X11558444Y-16853389D02*
X11548920Y-16872436D01*
X11548920Y-16872436D02*
X11539396Y-16881960D01*
X11539396Y-16881960D02*
X11520348Y-16891484D01*
X11520348Y-16891484D02*
X11501301Y-16891484D01*
X11501301Y-16891484D02*
X11482253Y-16881960D01*
X11482253Y-16881960D02*
X11472729Y-16872436D01*
X11472729Y-16872436D02*
X11463206Y-16853389D01*
X11463206Y-16853389D02*
X11453682Y-16815293D01*
X11453682Y-16815293D02*
X11453682Y-16767674D01*
X11453682Y-16767674D02*
X11463206Y-16729579D01*
X11463206Y-16729579D02*
X11472729Y-16710531D01*
X11472729Y-16710531D02*
X11482253Y-16701008D01*
X11482253Y-16701008D02*
X11501301Y-16691484D01*
X11663206Y-16891484D02*
X11701301Y-16891484D01*
X11701301Y-16891484D02*
X11720348Y-16881960D01*
X11720348Y-16881960D02*
X11729872Y-16872436D01*
X11729872Y-16872436D02*
X11748920Y-16843865D01*
X11748920Y-16843865D02*
X11758444Y-16805770D01*
X11758444Y-16805770D02*
X11758444Y-16729579D01*
X11758444Y-16729579D02*
X11748920Y-16710531D01*
X11748920Y-16710531D02*
X11739396Y-16701008D01*
X11739396Y-16701008D02*
X11720348Y-16691484D01*
X11720348Y-16691484D02*
X11682253Y-16691484D01*
X11682253Y-16691484D02*
X11663206Y-16701008D01*
X11663206Y-16701008D02*
X11653682Y-16710531D01*
X11653682Y-16710531D02*
X11644158Y-16729579D01*
X11644158Y-16729579D02*
X11644158Y-16777198D01*
X11644158Y-16777198D02*
X11653682Y-16796246D01*
X11653682Y-16796246D02*
X11663206Y-16805770D01*
X11663206Y-16805770D02*
X11682253Y-16815293D01*
X11682253Y-16815293D02*
X11720348Y-16815293D01*
X11720348Y-16815293D02*
X11739396Y-16805770D01*
X11739396Y-16805770D02*
X11748920Y-16796246D01*
X11748920Y-16796246D02*
X11758444Y-16777198D01*
X11834634Y-16691484D02*
X11834634Y-16729579D01*
X11910825Y-16691484D02*
X11910825Y-16729579D01*
X12206063Y-16967674D02*
X12196539Y-16958150D01*
X12196539Y-16958150D02*
X12177491Y-16929579D01*
X12177491Y-16929579D02*
X12167968Y-16910531D01*
X12167968Y-16910531D02*
X12158444Y-16881960D01*
X12158444Y-16881960D02*
X12148920Y-16834341D01*
X12148920Y-16834341D02*
X12148920Y-16796246D01*
X12148920Y-16796246D02*
X12158444Y-16748627D01*
X12158444Y-16748627D02*
X12167968Y-16720055D01*
X12167968Y-16720055D02*
X12177491Y-16701008D01*
X12177491Y-16701008D02*
X12196539Y-16672436D01*
X12196539Y-16672436D02*
X12206063Y-16662912D01*
X12272729Y-16710531D02*
X12282253Y-16701008D01*
X12282253Y-16701008D02*
X12301301Y-16691484D01*
X12301301Y-16691484D02*
X12348920Y-16691484D01*
X12348920Y-16691484D02*
X12367968Y-16701008D01*
X12367968Y-16701008D02*
X12377491Y-16710531D01*
X12377491Y-16710531D02*
X12387015Y-16729579D01*
X12387015Y-16729579D02*
X12387015Y-16748627D01*
X12387015Y-16748627D02*
X12377491Y-16777198D01*
X12377491Y-16777198D02*
X12263206Y-16891484D01*
X12263206Y-16891484D02*
X12387015Y-16891484D01*
X12625110Y-16891484D02*
X12625110Y-16691484D01*
X12710825Y-16891484D02*
X12710825Y-16786722D01*
X12710825Y-16786722D02*
X12701301Y-16767674D01*
X12701301Y-16767674D02*
X12682253Y-16758150D01*
X12682253Y-16758150D02*
X12653682Y-16758150D01*
X12653682Y-16758150D02*
X12634634Y-16767674D01*
X12634634Y-16767674D02*
X12625110Y-16777198D01*
X12834634Y-16891484D02*
X12815587Y-16881960D01*
X12815587Y-16881960D02*
X12806063Y-16872436D01*
X12806063Y-16872436D02*
X12796539Y-16853389D01*
X12796539Y-16853389D02*
X12796539Y-16796246D01*
X12796539Y-16796246D02*
X12806063Y-16777198D01*
X12806063Y-16777198D02*
X12815587Y-16767674D01*
X12815587Y-16767674D02*
X12834634Y-16758150D01*
X12834634Y-16758150D02*
X12863206Y-16758150D01*
X12863206Y-16758150D02*
X12882253Y-16767674D01*
X12882253Y-16767674D02*
X12891777Y-16777198D01*
X12891777Y-16777198D02*
X12901301Y-16796246D01*
X12901301Y-16796246D02*
X12901301Y-16853389D01*
X12901301Y-16853389D02*
X12891777Y-16872436D01*
X12891777Y-16872436D02*
X12882253Y-16881960D01*
X12882253Y-16881960D02*
X12863206Y-16891484D01*
X12863206Y-16891484D02*
X12834634Y-16891484D01*
X13015587Y-16891484D02*
X12996539Y-16881960D01*
X12996539Y-16881960D02*
X12987015Y-16862912D01*
X12987015Y-16862912D02*
X12987015Y-16691484D01*
X13167968Y-16881960D02*
X13148920Y-16891484D01*
X13148920Y-16891484D02*
X13110825Y-16891484D01*
X13110825Y-16891484D02*
X13091777Y-16881960D01*
X13091777Y-16881960D02*
X13082253Y-16862912D01*
X13082253Y-16862912D02*
X13082253Y-16786722D01*
X13082253Y-16786722D02*
X13091777Y-16767674D01*
X13091777Y-16767674D02*
X13110825Y-16758150D01*
X13110825Y-16758150D02*
X13148920Y-16758150D01*
X13148920Y-16758150D02*
X13167968Y-16767674D01*
X13167968Y-16767674D02*
X13177491Y-16786722D01*
X13177491Y-16786722D02*
X13177491Y-16805770D01*
X13177491Y-16805770D02*
X13082253Y-16824817D01*
X13253682Y-16881960D02*
X13272730Y-16891484D01*
X13272730Y-16891484D02*
X13310825Y-16891484D01*
X13310825Y-16891484D02*
X13329872Y-16881960D01*
X13329872Y-16881960D02*
X13339396Y-16862912D01*
X13339396Y-16862912D02*
X13339396Y-16853389D01*
X13339396Y-16853389D02*
X13329872Y-16834341D01*
X13329872Y-16834341D02*
X13310825Y-16824817D01*
X13310825Y-16824817D02*
X13282253Y-16824817D01*
X13282253Y-16824817D02*
X13263206Y-16815293D01*
X13263206Y-16815293D02*
X13253682Y-16796246D01*
X13253682Y-16796246D02*
X13253682Y-16786722D01*
X13253682Y-16786722D02*
X13263206Y-16767674D01*
X13263206Y-16767674D02*
X13282253Y-16758150D01*
X13282253Y-16758150D02*
X13310825Y-16758150D01*
X13310825Y-16758150D02*
X13329872Y-16767674D01*
X13406063Y-16967674D02*
X13415587Y-16958150D01*
X13415587Y-16958150D02*
X13434634Y-16929579D01*
X13434634Y-16929579D02*
X13444158Y-16910531D01*
X13444158Y-16910531D02*
X13453682Y-16881960D01*
X13453682Y-16881960D02*
X13463206Y-16834341D01*
X13463206Y-16834341D02*
X13463206Y-16796246D01*
X13463206Y-16796246D02*
X13453682Y-16748627D01*
X13453682Y-16748627D02*
X13444158Y-16720055D01*
X13444158Y-16720055D02*
X13434634Y-16701008D01*
X13434634Y-16701008D02*
X13415587Y-16672436D01*
X13415587Y-16672436D02*
X13406063Y-16662912D01*
X13767968Y-16967674D02*
X13758444Y-16958150D01*
X13758444Y-16958150D02*
X13739396Y-16929579D01*
X13739396Y-16929579D02*
X13729872Y-16910531D01*
X13729872Y-16910531D02*
X13720349Y-16881960D01*
X13720349Y-16881960D02*
X13710825Y-16834341D01*
X13710825Y-16834341D02*
X13710825Y-16796246D01*
X13710825Y-16796246D02*
X13720349Y-16748627D01*
X13720349Y-16748627D02*
X13729872Y-16720055D01*
X13729872Y-16720055D02*
X13739396Y-16701008D01*
X13739396Y-16701008D02*
X13758444Y-16672436D01*
X13758444Y-16672436D02*
X13767968Y-16662912D01*
X13844158Y-16758150D02*
X13844158Y-16891484D01*
X13844158Y-16777198D02*
X13853682Y-16767674D01*
X13853682Y-16767674D02*
X13872730Y-16758150D01*
X13872730Y-16758150D02*
X13901301Y-16758150D01*
X13901301Y-16758150D02*
X13920349Y-16767674D01*
X13920349Y-16767674D02*
X13929872Y-16786722D01*
X13929872Y-16786722D02*
X13929872Y-16891484D01*
X14053682Y-16891484D02*
X14034634Y-16881960D01*
X14034634Y-16881960D02*
X14025111Y-16872436D01*
X14025111Y-16872436D02*
X14015587Y-16853389D01*
X14015587Y-16853389D02*
X14015587Y-16796246D01*
X14015587Y-16796246D02*
X14025111Y-16777198D01*
X14025111Y-16777198D02*
X14034634Y-16767674D01*
X14034634Y-16767674D02*
X14053682Y-16758150D01*
X14053682Y-16758150D02*
X14082253Y-16758150D01*
X14082253Y-16758150D02*
X14101301Y-16767674D01*
X14101301Y-16767674D02*
X14110825Y-16777198D01*
X14110825Y-16777198D02*
X14120349Y-16796246D01*
X14120349Y-16796246D02*
X14120349Y-16853389D01*
X14120349Y-16853389D02*
X14110825Y-16872436D01*
X14110825Y-16872436D02*
X14101301Y-16881960D01*
X14101301Y-16881960D02*
X14082253Y-16891484D01*
X14082253Y-16891484D02*
X14053682Y-16891484D01*
X14177492Y-16758150D02*
X14253682Y-16758150D01*
X14206063Y-16691484D02*
X14206063Y-16862912D01*
X14206063Y-16862912D02*
X14215587Y-16881960D01*
X14215587Y-16881960D02*
X14234634Y-16891484D01*
X14234634Y-16891484D02*
X14253682Y-16891484D01*
X14472730Y-16758150D02*
X14472730Y-16958150D01*
X14472730Y-16767674D02*
X14491777Y-16758150D01*
X14491777Y-16758150D02*
X14529873Y-16758150D01*
X14529873Y-16758150D02*
X14548920Y-16767674D01*
X14548920Y-16767674D02*
X14558444Y-16777198D01*
X14558444Y-16777198D02*
X14567968Y-16796246D01*
X14567968Y-16796246D02*
X14567968Y-16853389D01*
X14567968Y-16853389D02*
X14558444Y-16872436D01*
X14558444Y-16872436D02*
X14548920Y-16881960D01*
X14548920Y-16881960D02*
X14529873Y-16891484D01*
X14529873Y-16891484D02*
X14491777Y-16891484D01*
X14491777Y-16891484D02*
X14472730Y-16881960D01*
X14682253Y-16891484D02*
X14663206Y-16881960D01*
X14663206Y-16881960D02*
X14653682Y-16862912D01*
X14653682Y-16862912D02*
X14653682Y-16691484D01*
X14844158Y-16891484D02*
X14844158Y-16786722D01*
X14844158Y-16786722D02*
X14834634Y-16767674D01*
X14834634Y-16767674D02*
X14815587Y-16758150D01*
X14815587Y-16758150D02*
X14777492Y-16758150D01*
X14777492Y-16758150D02*
X14758444Y-16767674D01*
X14844158Y-16881960D02*
X14825111Y-16891484D01*
X14825111Y-16891484D02*
X14777492Y-16891484D01*
X14777492Y-16891484D02*
X14758444Y-16881960D01*
X14758444Y-16881960D02*
X14748920Y-16862912D01*
X14748920Y-16862912D02*
X14748920Y-16843865D01*
X14748920Y-16843865D02*
X14758444Y-16824817D01*
X14758444Y-16824817D02*
X14777492Y-16815293D01*
X14777492Y-16815293D02*
X14825111Y-16815293D01*
X14825111Y-16815293D02*
X14844158Y-16805770D01*
X14910825Y-16758150D02*
X14987015Y-16758150D01*
X14939396Y-16691484D02*
X14939396Y-16862912D01*
X14939396Y-16862912D02*
X14948920Y-16881960D01*
X14948920Y-16881960D02*
X14967968Y-16891484D01*
X14967968Y-16891484D02*
X14987015Y-16891484D01*
X15129873Y-16881960D02*
X15110825Y-16891484D01*
X15110825Y-16891484D02*
X15072730Y-16891484D01*
X15072730Y-16891484D02*
X15053682Y-16881960D01*
X15053682Y-16881960D02*
X15044158Y-16862912D01*
X15044158Y-16862912D02*
X15044158Y-16786722D01*
X15044158Y-16786722D02*
X15053682Y-16767674D01*
X15053682Y-16767674D02*
X15072730Y-16758150D01*
X15072730Y-16758150D02*
X15110825Y-16758150D01*
X15110825Y-16758150D02*
X15129873Y-16767674D01*
X15129873Y-16767674D02*
X15139396Y-16786722D01*
X15139396Y-16786722D02*
X15139396Y-16805770D01*
X15139396Y-16805770D02*
X15044158Y-16824817D01*
X15310825Y-16891484D02*
X15310825Y-16691484D01*
X15310825Y-16881960D02*
X15291777Y-16891484D01*
X15291777Y-16891484D02*
X15253682Y-16891484D01*
X15253682Y-16891484D02*
X15234634Y-16881960D01*
X15234634Y-16881960D02*
X15225111Y-16872436D01*
X15225111Y-16872436D02*
X15215587Y-16853389D01*
X15215587Y-16853389D02*
X15215587Y-16796246D01*
X15215587Y-16796246D02*
X15225111Y-16777198D01*
X15225111Y-16777198D02*
X15234634Y-16767674D01*
X15234634Y-16767674D02*
X15253682Y-16758150D01*
X15253682Y-16758150D02*
X15291777Y-16758150D01*
X15291777Y-16758150D02*
X15310825Y-16767674D01*
X15387015Y-16967674D02*
X15396539Y-16958150D01*
X15396539Y-16958150D02*
X15415587Y-16929579D01*
X15415587Y-16929579D02*
X15425111Y-16910531D01*
X15425111Y-16910531D02*
X15434634Y-16881960D01*
X15434634Y-16881960D02*
X15444158Y-16834341D01*
X15444158Y-16834341D02*
X15444158Y-16796246D01*
X15444158Y-16796246D02*
X15434634Y-16748627D01*
X15434634Y-16748627D02*
X15425111Y-16720055D01*
X15425111Y-16720055D02*
X15415587Y-16701008D01*
X15415587Y-16701008D02*
X15396539Y-16672436D01*
X15396539Y-16672436D02*
X15387015Y-16662912D01*
M02*
