%TF.GenerationSoftware,KiCad,Pcbnew,7.0.10*%
%TF.CreationDate,2024-07-23T11:02:22-06:00*%
%TF.ProjectId,Pressure-Controlled-Power-Outlet-control-PCB,50726573-7375-4726-952d-436f6e74726f,V1.3.1*%
%TF.SameCoordinates,Original*%
%TF.FileFunction,Copper,L4,Bot*%
%TF.FilePolarity,Positive*%
%FSLAX46Y46*%
G04 Gerber Fmt 4.6, Leading zero omitted, Abs format (unit mm)*
G04 Created by KiCad (PCBNEW 7.0.10) date 2024-07-23 11:02:22*
%MOMM*%
%LPD*%
G01*
G04 APERTURE LIST*
G04 Aperture macros list*
%AMRoundRect*
0 Rectangle with rounded corners*
0 $1 Rounding radius*
0 $2 $3 $4 $5 $6 $7 $8 $9 X,Y pos of 4 corners*
0 Add a 4 corners polygon primitive as box body*
4,1,4,$2,$3,$4,$5,$6,$7,$8,$9,$2,$3,0*
0 Add four circle primitives for the rounded corners*
1,1,$1+$1,$2,$3*
1,1,$1+$1,$4,$5*
1,1,$1+$1,$6,$7*
1,1,$1+$1,$8,$9*
0 Add four rect primitives between the rounded corners*
20,1,$1+$1,$2,$3,$4,$5,0*
20,1,$1+$1,$4,$5,$6,$7,0*
20,1,$1+$1,$6,$7,$8,$9,0*
20,1,$1+$1,$8,$9,$2,$3,0*%
G04 Aperture macros list end*
%TA.AperFunction,ComponentPad*%
%ADD10R,1.905000X2.000000*%
%TD*%
%TA.AperFunction,ComponentPad*%
%ADD11O,1.905000X2.000000*%
%TD*%
%TA.AperFunction,ComponentPad*%
%ADD12R,1.050000X1.500000*%
%TD*%
%TA.AperFunction,ComponentPad*%
%ADD13O,1.050000X1.500000*%
%TD*%
%TA.AperFunction,ComponentPad*%
%ADD14R,3.200000X3.200000*%
%TD*%
%TA.AperFunction,ComponentPad*%
%ADD15O,3.200000X3.200000*%
%TD*%
%TA.AperFunction,ComponentPad*%
%ADD16R,2.000000X2.000000*%
%TD*%
%TA.AperFunction,ComponentPad*%
%ADD17C,2.000000*%
%TD*%
%TA.AperFunction,ComponentPad*%
%ADD18R,2.200000X2.200000*%
%TD*%
%TA.AperFunction,ComponentPad*%
%ADD19O,2.200000X2.200000*%
%TD*%
%TA.AperFunction,ComponentPad*%
%ADD20R,2.000000X1.905000*%
%TD*%
%TA.AperFunction,ComponentPad*%
%ADD21O,2.000000X1.905000*%
%TD*%
%TA.AperFunction,ComponentPad*%
%ADD22R,3.150000X3.150000*%
%TD*%
%TA.AperFunction,ComponentPad*%
%ADD23C,3.150000*%
%TD*%
%TA.AperFunction,ComponentPad*%
%ADD24C,1.650000*%
%TD*%
%TA.AperFunction,ComponentPad*%
%ADD25C,1.600000*%
%TD*%
%TA.AperFunction,ComponentPad*%
%ADD26O,1.600000X1.600000*%
%TD*%
%TA.AperFunction,ComponentPad*%
%ADD27R,1.700000X1.700000*%
%TD*%
%TA.AperFunction,ComponentPad*%
%ADD28O,1.700000X1.700000*%
%TD*%
%TA.AperFunction,ComponentPad*%
%ADD29C,8.600000*%
%TD*%
%TA.AperFunction,ComponentPad*%
%ADD30R,1.500000X1.050000*%
%TD*%
%TA.AperFunction,ComponentPad*%
%ADD31O,1.500000X1.050000*%
%TD*%
%TA.AperFunction,ComponentPad*%
%ADD32R,1.730000X2.030000*%
%TD*%
%TA.AperFunction,ComponentPad*%
%ADD33O,1.730000X2.030000*%
%TD*%
%TA.AperFunction,ComponentPad*%
%ADD34RoundRect,0.250000X0.750000X-0.600000X0.750000X0.600000X-0.750000X0.600000X-0.750000X-0.600000X0*%
%TD*%
%TA.AperFunction,ComponentPad*%
%ADD35O,2.000000X1.700000*%
%TD*%
%TA.AperFunction,ComponentPad*%
%ADD36C,2.550000*%
%TD*%
%TA.AperFunction,ComponentPad*%
%ADD37R,1.600000X2.400000*%
%TD*%
%TA.AperFunction,ComponentPad*%
%ADD38O,1.600000X2.400000*%
%TD*%
%TA.AperFunction,ViaPad*%
%ADD39C,0.800000*%
%TD*%
%TA.AperFunction,Conductor*%
%ADD40C,0.250000*%
%TD*%
%TA.AperFunction,Conductor*%
%ADD41C,1.500000*%
%TD*%
G04 APERTURE END LIST*
D10*
%TO.P,Q3,1,G*%
%TO.N,Net-(Q3-G)*%
X153670000Y-80335000D03*
D11*
%TO.P,Q3,2,D*%
%TO.N,Net-(D2-A)*%
X151130000Y-80335000D03*
%TO.P,Q3,3,S*%
%TO.N,GND*%
X148590000Y-80335000D03*
%TD*%
D12*
%TO.P,Q7,1,E*%
%TO.N,/FanA_Tac*%
X157480000Y-136885000D03*
D13*
%TO.P,Q7,2,B*%
%TO.N,Net-(Q7-B)*%
X158750000Y-136885000D03*
%TO.P,Q7,3,C*%
%TO.N,+3.3V*%
X160020000Y-136885000D03*
%TD*%
D14*
%TO.P,D1,1,K*%
%TO.N,+24V*%
X107315000Y-93980000D03*
D15*
%TO.P,D1,2,A*%
%TO.N,Net-(D1-A)*%
X92075000Y-93980000D03*
%TD*%
D16*
%TO.P,C2,1*%
%TO.N,+5V*%
X139620000Y-107950000D03*
D17*
%TO.P,C2,2*%
%TO.N,GND*%
X134620000Y-107950000D03*
%TD*%
D18*
%TO.P,D3,1,K*%
%TO.N,+5V*%
X177165000Y-123825000D03*
D19*
%TO.P,D3,2,A*%
%TO.N,GND*%
X177165000Y-133985000D03*
%TD*%
D18*
%TO.P,D4,1,K*%
%TO.N,+12V*%
X170815000Y-122555000D03*
D19*
%TO.P,D4,2,A*%
%TO.N,GND*%
X170815000Y-132715000D03*
%TD*%
D16*
%TO.P,C4,1*%
%TO.N,+12V*%
X176450000Y-114300000D03*
D17*
%TO.P,C4,2*%
%TO.N,GND*%
X171450000Y-114300000D03*
%TD*%
D20*
%TO.P,Q2,1,G*%
%TO.N,Net-(Q2-G)*%
X120650000Y-95250000D03*
D21*
%TO.P,Q2,2,D*%
%TO.N,Net-(D1-A)*%
X120650000Y-92710000D03*
%TO.P,Q2,3,S*%
%TO.N,GND*%
X120650000Y-90170000D03*
%TD*%
D22*
%TO.P,K1,1,NC*%
%TO.N,unconnected-(K1-NC-Pad1)*%
X112625000Y-62490000D03*
D23*
%TO.P,K1,2,NO*%
%TO.N,unconnected-(K1-NO-Pad2)*%
X112625000Y-70110000D03*
D24*
%TO.P,K1,3,COIL_1*%
%TO.N,+24V*%
X108815000Y-85350000D03*
%TO.P,K1,4,COIL_2*%
%TO.N,Net-(D1-A)*%
X98655000Y-85350000D03*
D23*
%TO.P,K1,5,COM*%
%TO.N,unconnected-(K1-COM-Pad5)*%
X94845000Y-72650000D03*
%TD*%
D25*
%TO.P,R3,1*%
%TO.N,Net-(U1-AGND)*%
X124460000Y-111760000D03*
D26*
%TO.P,R3,2*%
%TO.N,GND*%
X127000000Y-111760000D03*
%TD*%
D27*
%TO.P,J5,1,Pin_1*%
%TO.N,+12V*%
X175260000Y-138430000D03*
D28*
%TO.P,J5,2,Pin_2*%
%TO.N,/FanA_Power*%
X177800000Y-138430000D03*
%TO.P,J5,3,Pin_3*%
%TO.N,+5V*%
X180340000Y-138430000D03*
%TD*%
D29*
%TO.P,H1,1,1*%
%TO.N,GND*%
X180340000Y-149860000D03*
%TD*%
D25*
%TO.P,R15,1*%
%TO.N,GND*%
X161290000Y-151130000D03*
D26*
%TO.P,R15,2*%
%TO.N,Net-(M2-PWM)*%
X161290000Y-148590000D03*
%TD*%
D25*
%TO.P,R14,1*%
%TO.N,GND*%
X143510000Y-149860000D03*
D26*
%TO.P,R14,2*%
%TO.N,Net-(M1-PWM)*%
X146050000Y-149860000D03*
%TD*%
D25*
%TO.P,R10,1*%
%TO.N,/FanA_PWM*%
X154940000Y-113665000D03*
D26*
%TO.P,R10,2*%
%TO.N,Net-(Q5-B)*%
X157480000Y-113665000D03*
%TD*%
D29*
%TO.P,H2,1,1*%
%TO.N,GND*%
X92710000Y-149860000D03*
%TD*%
D25*
%TO.P,C5,1*%
%TO.N,+5V*%
X90170000Y-119340000D03*
%TO.P,C5,2*%
%TO.N,GND*%
X90170000Y-114340000D03*
%TD*%
%TO.P,R8,1*%
%TO.N,/Activate_Live*%
X127000000Y-102870000D03*
D26*
%TO.P,R8,2*%
%TO.N,Net-(Q4-B)*%
X129540000Y-102870000D03*
%TD*%
D30*
%TO.P,Q1,1,E*%
%TO.N,Net-(Q1-E)*%
X153670000Y-91440000D03*
D31*
%TO.P,Q1,2,B*%
%TO.N,Net-(Q1-B)*%
X153670000Y-92710000D03*
%TO.P,Q1,3,C*%
%TO.N,+5V*%
X153670000Y-93980000D03*
%TD*%
D12*
%TO.P,Q8,1,E*%
%TO.N,/FanB_Tac*%
X148590000Y-116565000D03*
D13*
%TO.P,Q8,2,B*%
%TO.N,Net-(Q8-B)*%
X149860000Y-116565000D03*
%TO.P,Q8,3,C*%
%TO.N,+3.3V*%
X151130000Y-116565000D03*
%TD*%
D27*
%TO.P,J1,1,Pin_1*%
%TO.N,/Water Pressure 5V*%
X90805000Y-104140000D03*
D28*
%TO.P,J1,2,Pin_2*%
%TO.N,+5V*%
X90805000Y-106680000D03*
%TO.P,J1,3,Pin_3*%
%TO.N,GND*%
X90805000Y-109220000D03*
%TD*%
D25*
%TO.P,R12,1*%
%TO.N,Net-(Q7-B)*%
X165100000Y-135480000D03*
D26*
%TO.P,R12,2*%
%TO.N,Net-(M1-Tacho)*%
X165100000Y-138020000D03*
%TD*%
D25*
%TO.P,R9,1*%
%TO.N,/Activate_Neutral*%
X146050000Y-92710000D03*
D26*
%TO.P,R9,2*%
%TO.N,Net-(Q1-B)*%
X148590000Y-92710000D03*
%TD*%
D27*
%TO.P,J3,1,Pin_1*%
%TO.N,+5V*%
X128275000Y-149860000D03*
D28*
%TO.P,J3,2,Pin_2*%
%TO.N,+3.3V*%
X130815000Y-149860000D03*
%TO.P,J3,3,Pin_3*%
%TO.N,/I2C0_SDA*%
X133355000Y-149860000D03*
%TO.P,J3,4,Pin_4*%
%TO.N,/I2C0_SCL*%
X135895000Y-149860000D03*
%TO.P,J3,5,Pin_5*%
%TO.N,GND*%
X138435000Y-149860000D03*
%TD*%
D16*
%TO.P,C3,1*%
%TO.N,+24V*%
X151845000Y-103505000D03*
D17*
%TO.P,C3,2*%
%TO.N,GND*%
X156845000Y-103505000D03*
%TD*%
D25*
%TO.P,R6,1*%
%TO.N,GND*%
X148590000Y-86360000D03*
D26*
%TO.P,R6,2*%
%TO.N,Net-(Q1-E)*%
X146050000Y-86360000D03*
%TD*%
D20*
%TO.P,U3,1,VI*%
%TO.N,+24V*%
X144780000Y-101600000D03*
D21*
%TO.P,U3,2,GND*%
%TO.N,GND*%
X144780000Y-104140000D03*
%TO.P,U3,3,VO*%
%TO.N,+5V*%
X144780000Y-106680000D03*
%TD*%
D32*
%TO.P,M1,1,-*%
%TO.N,GND*%
X157480000Y-149860000D03*
D33*
%TO.P,M1,2,+*%
%TO.N,/FanA_Power*%
X154940000Y-149860000D03*
%TO.P,M1,3,Tacho*%
%TO.N,Net-(M1-Tacho)*%
X152400000Y-149860000D03*
%TO.P,M1,4,PWM*%
%TO.N,Net-(M1-PWM)*%
X149860000Y-149860000D03*
%TD*%
D34*
%TO.P,J7,1,Pin_1*%
%TO.N,+5V*%
X181610000Y-121880000D03*
D35*
%TO.P,J7,2,Pin_2*%
%TO.N,GND*%
X181610000Y-119380000D03*
%TD*%
D36*
%TO.P,J2,1,1*%
%TO.N,GND*%
X139722500Y-75035000D03*
%TO.P,J2,2,2*%
%TO.N,+24V*%
X133372500Y-65535000D03*
%TD*%
D25*
%TO.P,R16,1*%
%TO.N,Net-(Q8-B)*%
X158975000Y-120015000D03*
D26*
%TO.P,R16,2*%
%TO.N,Net-(M2-Tacho)*%
X161515000Y-120015000D03*
%TD*%
D27*
%TO.P,J10,1,Pin_1*%
%TO.N,+5V*%
X182245000Y-128265000D03*
D28*
%TO.P,J10,2,Pin_2*%
%TO.N,GND*%
X182245000Y-130805000D03*
%TD*%
D29*
%TO.P,H4,1,1*%
%TO.N,GND*%
X123190000Y-62230000D03*
%TD*%
D25*
%TO.P,R13,1*%
%TO.N,GND*%
X151130000Y-132305000D03*
D26*
%TO.P,R13,2*%
%TO.N,/FanA_Tac*%
X151130000Y-134845000D03*
%TD*%
D25*
%TO.P,R11,1*%
%TO.N,/FanB_PWM*%
X154305000Y-124460000D03*
D26*
%TO.P,R11,2*%
%TO.N,Net-(Q6-B)*%
X154305000Y-127000000D03*
%TD*%
D25*
%TO.P,R7,1*%
%TO.N,GND*%
X133350000Y-97790000D03*
D26*
%TO.P,R7,2*%
%TO.N,Net-(Q4-E)*%
X133350000Y-95250000D03*
%TD*%
D16*
%TO.P,C1,1*%
%TO.N,+24V*%
X130175000Y-83265000D03*
D17*
%TO.P,C1,2*%
%TO.N,GND*%
X130175000Y-88265000D03*
%TD*%
D22*
%TO.P,K2,1,NC*%
%TO.N,unconnected-(K2-NC-Pad1)*%
X180340000Y-62490000D03*
D23*
%TO.P,K2,2,NO*%
%TO.N,unconnected-(K2-NO-Pad2)*%
X180340000Y-70110000D03*
D24*
%TO.P,K2,3,COIL_1*%
%TO.N,+24V*%
X176530000Y-85350000D03*
%TO.P,K2,4,COIL_2*%
%TO.N,Net-(D2-A)*%
X166370000Y-85350000D03*
D23*
%TO.P,K2,5,COM*%
%TO.N,unconnected-(K2-COM-Pad5)*%
X162560000Y-72650000D03*
%TD*%
D28*
%TO.P,U1,1,GPIO0*%
%TO.N,/Activate_Live*%
X93980000Y-138430000D03*
%TO.P,U1,2,GPIO1*%
%TO.N,/Activate_Neutral*%
X96520000Y-138430000D03*
D27*
%TO.P,U1,3,GND*%
%TO.N,GND*%
X99060000Y-138430000D03*
D28*
%TO.P,U1,4,GPIO2*%
%TO.N,unconnected-(U1-GPIO2-Pad4)*%
X101600000Y-138430000D03*
%TO.P,U1,5,GPIO3*%
%TO.N,unconnected-(U1-GPIO3-Pad5)*%
X104140000Y-138430000D03*
%TO.P,U1,6,GPIO4*%
%TO.N,/I2C0_SDA*%
X106680000Y-138430000D03*
%TO.P,U1,7,GPIO5*%
%TO.N,/I2C0_SCL*%
X109220000Y-138430000D03*
D27*
%TO.P,U1,8,GND*%
%TO.N,GND*%
X111760000Y-138430000D03*
D28*
%TO.P,U1,9,GPIO6*%
%TO.N,unconnected-(U1-GPIO6-Pad9)*%
X114300000Y-138430000D03*
%TO.P,U1,10,GPIO7*%
%TO.N,unconnected-(U1-GPIO7-Pad10)*%
X116840000Y-138430000D03*
%TO.P,U1,11,GPIO8*%
%TO.N,/SPI1_RX*%
X119380000Y-138430000D03*
%TO.P,U1,12,GPIO9*%
%TO.N,/SPI1_CSn*%
X121920000Y-138430000D03*
D27*
%TO.P,U1,13,GND*%
%TO.N,GND*%
X124460000Y-138430000D03*
D28*
%TO.P,U1,14,GPIO10*%
%TO.N,/SPI1_TX*%
X127000000Y-138430000D03*
%TO.P,U1,15,GPIO11*%
%TO.N,unconnected-(U1-GPIO11-Pad15)*%
X129540000Y-138430000D03*
%TO.P,U1,16,GPIO12*%
%TO.N,/FanA_PWM*%
X132080000Y-138430000D03*
%TO.P,U1,17,GPIO13*%
%TO.N,/FanA_Tac*%
X134620000Y-138430000D03*
D27*
%TO.P,U1,18,GND*%
%TO.N,GND*%
X137160000Y-138430000D03*
D28*
%TO.P,U1,19,GPIO14*%
%TO.N,/FanB_PWM*%
X139700000Y-138430000D03*
%TO.P,U1,20,GPIO15*%
%TO.N,/FanB_Tac*%
X142240000Y-138430000D03*
%TO.P,U1,21,GPIO16*%
%TO.N,unconnected-(U1-GPIO16-Pad21)*%
X142240000Y-120650000D03*
%TO.P,U1,22,GPIO17*%
%TO.N,unconnected-(U1-GPIO17-Pad22)*%
X139700000Y-120650000D03*
D27*
%TO.P,U1,23,GND*%
%TO.N,GND*%
X137160000Y-120650000D03*
D28*
%TO.P,U1,24,GPIO18*%
%TO.N,unconnected-(U1-GPIO18-Pad24)*%
X134620000Y-120650000D03*
%TO.P,U1,25,GPIO19*%
%TO.N,unconnected-(U1-GPIO19-Pad25)*%
X132080000Y-120650000D03*
%TO.P,U1,26,GPIO20*%
%TO.N,unconnected-(U1-GPIO20-Pad26)*%
X129540000Y-120650000D03*
%TO.P,U1,27,GPIO21*%
%TO.N,unconnected-(U1-GPIO21-Pad27)*%
X127000000Y-120650000D03*
D27*
%TO.P,U1,28,GND*%
%TO.N,GND*%
X124460000Y-120650000D03*
D28*
%TO.P,U1,29,GPIO22*%
%TO.N,unconnected-(U1-GPIO22-Pad29)*%
X121920000Y-120650000D03*
%TO.P,U1,30,RUN*%
%TO.N,unconnected-(U1-RUN-Pad30)*%
X119380000Y-120650000D03*
%TO.P,U1,31,GPIO26_ADC0*%
%TO.N,/ADC0*%
X116840000Y-120650000D03*
%TO.P,U1,32,GPIO27_ADC1*%
%TO.N,unconnected-(U1-GPIO27_ADC1-Pad32)*%
X114300000Y-120650000D03*
D27*
%TO.P,U1,33,AGND*%
%TO.N,Net-(U1-AGND)*%
X111760000Y-120650000D03*
D28*
%TO.P,U1,34,GPIO28_ADC2*%
%TO.N,unconnected-(U1-GPIO28_ADC2-Pad34)*%
X109220000Y-120650000D03*
%TO.P,U1,35,ADC_VREF*%
%TO.N,unconnected-(U1-ADC_VREF-Pad35)*%
X106680000Y-120650000D03*
%TO.P,U1,36,3V3*%
%TO.N,+3.3V*%
X104140000Y-120650000D03*
%TO.P,U1,37,3V3_EN*%
%TO.N,unconnected-(U1-3V3_EN-Pad37)*%
X101600000Y-120650000D03*
D27*
%TO.P,U1,38,GND*%
%TO.N,GND*%
X99060000Y-120650000D03*
D28*
%TO.P,U1,39,VSYS*%
%TO.N,unconnected-(U1-VSYS-Pad39)*%
X96520000Y-120650000D03*
%TO.P,U1,40,VBUS*%
%TO.N,+5V*%
X93980000Y-120650000D03*
%TO.P,U1,41,SWCLK*%
%TO.N,unconnected-(U1-SWCLK-Pad41)*%
X142010000Y-132080000D03*
D27*
%TO.P,U1,42,GND*%
%TO.N,GND*%
X142010000Y-129540000D03*
D28*
%TO.P,U1,43,SWDIO*%
%TO.N,unconnected-(U1-SWDIO-Pad43)*%
X142010000Y-127000000D03*
%TD*%
D32*
%TO.P,M2,1,-*%
%TO.N,GND*%
X172720000Y-150160000D03*
D33*
%TO.P,M2,2,+*%
%TO.N,/FanB_Power*%
X170180000Y-150160000D03*
%TO.P,M2,3,Tacho*%
%TO.N,Net-(M2-Tacho)*%
X167640000Y-150160000D03*
%TO.P,M2,4,PWM*%
%TO.N,Net-(M2-PWM)*%
X165100000Y-150160000D03*
%TD*%
D25*
%TO.P,R1,1*%
%TO.N,/Water Pressure 5V*%
X97790000Y-101600000D03*
D26*
%TO.P,R1,2*%
%TO.N,Net-(U2A-+)*%
X100330000Y-101600000D03*
%TD*%
D25*
%TO.P,C7,1*%
%TO.N,+5V*%
X94655000Y-111760000D03*
%TO.P,C7,2*%
%TO.N,GND*%
X99655000Y-111760000D03*
%TD*%
D29*
%TO.P,H3,1,1*%
%TO.N,GND*%
X151130000Y-62230000D03*
%TD*%
D10*
%TO.P,U4,1,GND*%
%TO.N,GND*%
X180340000Y-102235000D03*
D11*
%TO.P,U4,2,VO*%
%TO.N,+12V*%
X177800000Y-102235000D03*
%TO.P,U4,3,VI*%
%TO.N,+24V*%
X175260000Y-102235000D03*
%TD*%
D25*
%TO.P,R5,1*%
%TO.N,Net-(Q1-E)*%
X139700000Y-86360000D03*
D26*
%TO.P,R5,2*%
%TO.N,Net-(Q3-G)*%
X139700000Y-83820000D03*
%TD*%
D37*
%TO.P,U2,1*%
%TO.N,/ADC0*%
X104135000Y-109235000D03*
D38*
%TO.P,U2,2,-*%
X106675000Y-109235000D03*
%TO.P,U2,3,+*%
%TO.N,Net-(U2A-+)*%
X109215000Y-109235000D03*
%TO.P,U2,4,V+*%
%TO.N,+5V*%
X111755000Y-109235000D03*
%TO.P,U2,5*%
%TO.N,N/C*%
X114295000Y-109235000D03*
%TO.P,U2,6*%
X116835000Y-109235000D03*
%TO.P,U2,7*%
X119375000Y-109235000D03*
%TO.P,U2,8*%
X119375000Y-101615000D03*
%TO.P,U2,9*%
X116835000Y-101615000D03*
%TO.P,U2,10*%
X114295000Y-101615000D03*
%TO.P,U2,11,V-*%
%TO.N,GND*%
X111755000Y-101615000D03*
%TO.P,U2,12*%
%TO.N,N/C*%
X109215000Y-101615000D03*
%TO.P,U2,13*%
X106675000Y-101615000D03*
%TO.P,U2,14*%
X104135000Y-101615000D03*
%TD*%
D25*
%TO.P,R17,1*%
%TO.N,GND*%
X148590000Y-125730000D03*
D26*
%TO.P,R17,2*%
%TO.N,/FanB_Tac*%
X148590000Y-123190000D03*
%TD*%
D25*
%TO.P,R2,1*%
%TO.N,Net-(U2A-+)*%
X107950000Y-113030000D03*
D26*
%TO.P,R2,2*%
%TO.N,GND*%
X110490000Y-113030000D03*
%TD*%
D12*
%TO.P,Q4,1,E*%
%TO.N,Net-(Q4-E)*%
X137160000Y-96520000D03*
D13*
%TO.P,Q4,2,B*%
%TO.N,Net-(Q4-B)*%
X138430000Y-96520000D03*
%TO.P,Q4,3,C*%
%TO.N,+5V*%
X139700000Y-96520000D03*
%TD*%
D25*
%TO.P,R4,1*%
%TO.N,Net-(Q4-E)*%
X127000000Y-97790000D03*
D26*
%TO.P,R4,2*%
%TO.N,Net-(Q2-G)*%
X127000000Y-95250000D03*
%TD*%
D12*
%TO.P,Q6,1,E*%
%TO.N,Net-(M2-PWM)*%
X165100000Y-124460000D03*
D13*
%TO.P,Q6,2,B*%
%TO.N,Net-(Q6-B)*%
X166370000Y-124460000D03*
%TO.P,Q6,3,C*%
%TO.N,+5V*%
X167640000Y-124460000D03*
%TD*%
D12*
%TO.P,Q5,1,E*%
%TO.N,Net-(M1-PWM)*%
X161925000Y-114300000D03*
D13*
%TO.P,Q5,2,B*%
%TO.N,Net-(Q5-B)*%
X163195000Y-114300000D03*
%TO.P,Q5,3,C*%
%TO.N,+5V*%
X164465000Y-114300000D03*
%TD*%
D27*
%TO.P,J6,1,Pin_1*%
%TO.N,+12V*%
X175260000Y-142240000D03*
D28*
%TO.P,J6,2,Pin_2*%
%TO.N,/FanB_Power*%
X177800000Y-142240000D03*
%TO.P,J6,3,Pin_3*%
%TO.N,+5V*%
X180340000Y-142240000D03*
%TD*%
D14*
%TO.P,D2,1,K*%
%TO.N,+24V*%
X181610000Y-95250000D03*
D15*
%TO.P,D2,2,A*%
%TO.N,Net-(D2-A)*%
X166370000Y-95250000D03*
%TD*%
D27*
%TO.P,J4,1,Pin_1*%
%TO.N,+5V*%
X102870000Y-149860000D03*
D28*
%TO.P,J4,2,Pin_2*%
%TO.N,+3.3V*%
X105410000Y-149860000D03*
%TO.P,J4,3,Pin_3*%
%TO.N,/SPI1_RX*%
X107950000Y-149860000D03*
%TO.P,J4,4,Pin_4*%
%TO.N,/SPI1_TX*%
X110490000Y-149860000D03*
%TO.P,J4,5,Pin_5*%
%TO.N,/SPI1_CSn*%
X113030000Y-149860000D03*
%TO.P,J4,6,Pin_6*%
%TO.N,GND*%
X115570000Y-149860000D03*
%TD*%
D25*
%TO.P,C6,1*%
%TO.N,+3.3V*%
X120015000Y-144780000D03*
%TO.P,C6,2*%
%TO.N,GND*%
X120015000Y-149780000D03*
%TD*%
D39*
%TO.N,+3.3V*%
X102870000Y-144780000D03*
%TO.N,Net-(M1-PWM)*%
X162560000Y-123190000D03*
%TO.N,+5V*%
X160655000Y-107950000D03*
%TO.N,Net-(M2-PWM)*%
X166370000Y-140970000D03*
%TD*%
D40*
%TO.N,/I2C0_SDA*%
X114395000Y-146145000D02*
X106680000Y-138430000D01*
X133355000Y-149860000D02*
X129640000Y-146145000D01*
X129640000Y-146145000D02*
X114395000Y-146145000D01*
%TO.N,/I2C0_SCL*%
X116485000Y-145695000D02*
X109220000Y-138430000D01*
X131730000Y-145695000D02*
X116485000Y-145695000D01*
X135895000Y-149860000D02*
X131730000Y-145695000D01*
%TO.N,Net-(M1-PWM)*%
X149860000Y-138430000D02*
X149860000Y-149860000D01*
X162560000Y-123190000D02*
X162560000Y-125730000D01*
X162560000Y-125730000D02*
X149860000Y-138430000D01*
%TO.N,Net-(U1-AGND)*%
X111760000Y-118110000D02*
X111760000Y-120650000D01*
X124460000Y-111760000D02*
X119850001Y-116369999D01*
X119850001Y-116369999D02*
X113500001Y-116369999D01*
X113500001Y-116369999D02*
X111760000Y-118110000D01*
D41*
%TO.N,Net-(D1-A)*%
X120650000Y-92710000D02*
X120451959Y-92710000D01*
X98885000Y-89535000D02*
X98655000Y-89305000D01*
X117276959Y-89535000D02*
X98885000Y-89535000D01*
X93980000Y-93980000D02*
X92075000Y-93980000D01*
X120451959Y-92710000D02*
X117276959Y-89535000D01*
X98655000Y-89305000D02*
X93980000Y-93980000D01*
X98655000Y-85350000D02*
X98655000Y-89305000D01*
D40*
%TO.N,/Activate_Live*%
X108899009Y-116840000D02*
X92710000Y-116840000D01*
X127000000Y-102870000D02*
X124460000Y-105410000D01*
X124460000Y-105410000D02*
X124460000Y-109220000D01*
X91440000Y-135890000D02*
X93980000Y-138430000D01*
X110169009Y-115570000D02*
X108899009Y-116840000D01*
X118110000Y-115570000D02*
X110169009Y-115570000D01*
X91440000Y-118110000D02*
X91440000Y-135890000D01*
X124460000Y-109220000D02*
X118110000Y-115570000D01*
X92710000Y-116840000D02*
X91440000Y-118110000D01*
%TO.N,/Activate_Neutral*%
X110490000Y-124460000D02*
X96520000Y-138430000D01*
X147320000Y-118745000D02*
X141605000Y-124460000D01*
X147320000Y-93980000D02*
X147320000Y-118745000D01*
X141605000Y-124460000D02*
X110490000Y-124460000D01*
X146050000Y-92710000D02*
X147320000Y-93980000D01*
%TO.N,Net-(M2-PWM)*%
X165100000Y-127000000D02*
X167640000Y-129540000D01*
X165100000Y-124460000D02*
X165100000Y-127000000D01*
X167640000Y-129540000D02*
X167640000Y-139700000D01*
X167640000Y-139700000D02*
X166370000Y-140970000D01*
%TO.N,Net-(Q6-B)*%
X156845000Y-127000000D02*
X161925000Y-121920000D01*
X165370000Y-121920000D02*
X166370000Y-122920000D01*
X166370000Y-122920000D02*
X166370000Y-124460000D01*
X161925000Y-121920000D02*
X165370000Y-121920000D01*
X154305000Y-127000000D02*
X156845000Y-127000000D01*
%TO.N,/FanA_PWM*%
X154530000Y-117250000D02*
X154530000Y-114075000D01*
X148904009Y-120015000D02*
X151765000Y-120015000D01*
X132080000Y-133350000D02*
X140520000Y-124910000D01*
X132080000Y-138430000D02*
X132080000Y-133350000D01*
X147465000Y-121454009D02*
X148904009Y-120015000D01*
X154530000Y-114075000D02*
X154940000Y-113665000D01*
X144012500Y-124910000D02*
X147465000Y-121457500D01*
X140520000Y-124910000D02*
X144012500Y-124910000D01*
X147465000Y-121457500D02*
X147465000Y-121454009D01*
X151765000Y-120015000D02*
X154530000Y-117250000D01*
%TO.N,/FanB_PWM*%
X154305000Y-124460000D02*
X153670000Y-124460000D01*
X153670000Y-124460000D02*
X144780000Y-133350000D01*
X144780000Y-133350000D02*
X142240000Y-133350000D01*
X139700000Y-135890000D02*
X139700000Y-138430000D01*
X142240000Y-133350000D02*
X139700000Y-135890000D01*
D41*
%TO.N,/FanA_Power*%
X177060000Y-136630000D02*
X173460000Y-136630000D01*
X177800000Y-137370000D02*
X177060000Y-136630000D01*
X157990000Y-145570000D02*
X154940000Y-148620000D01*
X154940000Y-148620000D02*
X154940000Y-149860000D01*
X172720000Y-137370000D02*
X172720000Y-138430000D01*
X160020000Y-143510000D02*
X157990000Y-145540000D01*
X157990000Y-145540000D02*
X157990000Y-145570000D01*
X167640000Y-143510000D02*
X160020000Y-143510000D01*
X172720000Y-138430000D02*
X167640000Y-143510000D01*
X173460000Y-136630000D02*
X172720000Y-137370000D01*
X177800000Y-138430000D02*
X177800000Y-137370000D01*
%TO.N,/FanB_Power*%
X177800000Y-143510000D02*
X173115000Y-148195000D01*
X173115000Y-148195000D02*
X170905000Y-148195000D01*
X170905000Y-148195000D02*
X170180000Y-148920000D01*
X177800000Y-142240000D02*
X177800000Y-143510000D01*
X170180000Y-148920000D02*
X170180000Y-150160000D01*
%TD*%
M02*
