M48
; DRILL file {KiCad 7.0.10} date Fri Jul 26 19:37:04 2024
; FORMAT={-:-/ absolute / inch / decimal}
; #@! TF.CreationDate,2024-07-26T19:37:04-06:00
; #@! TF.GenerationSoftware,Kicad,Pcbnew,7.0.10
; #@! TF.FileFunction,Plated,1,4,PTH
FMAT,2
INCH
; #@! TA.AperFunction,Plated,PTH,ViaDrill
T1C0.0157
; #@! TA.AperFunction,Plated,PTH,ComponentDrill
T2C0.0295
; #@! TA.AperFunction,Plated,PTH,ComponentDrill
T3C0.0315
; #@! TA.AperFunction,Plated,PTH,ComponentDrill
T4C0.0394
; #@! TA.AperFunction,Plated,PTH,ComponentDrill
T5C0.0402
; #@! TA.AperFunction,Plated,PTH,ComponentDrill
T6C0.0433
; #@! TA.AperFunction,Plated,PTH,ComponentDrill
T7C0.0630
; #@! TA.AperFunction,Plated,PTH,ComponentDrill
T8C0.0669
; #@! TA.AperFunction,Plated,PTH,ComponentDrill
T9C0.0827
; #@! TA.AperFunction,Plated,PTH,ComponentDrill
T10C0.1260
%
G90
G05
T1
X4.4Y-3.375
X4.425Y-3.5
X4.475Y-3.525
X5.125Y-5.25
T2
X4.45Y-4.775
X4.5Y-4.775
X4.55Y-4.775
X5.0Y-4.8392
X5.05Y-4.8392
X5.1Y-4.8392
X5.475Y-3.725
X5.475Y-3.775
X5.475Y-3.825
X5.7142Y-5.5
X5.7142Y-5.55
X5.7142Y-5.6
X5.725Y-5.15
X5.725Y-5.2
X5.725Y-5.25
X6.475Y-3.9642
X6.525Y-3.9642
X6.575Y-3.9642
T3
X4.0Y-3.9266
X4.0Y-4.1234
X4.4Y-4.4
X4.4Y-4.5
X4.425Y-4.2
X4.4339Y-4.025
X4.45Y-5.025
X4.525Y-4.2
X4.5339Y-4.025
X4.55Y-5.025
X4.6744Y-3.9998
X4.6744Y-4.0998
X4.6744Y-4.1998
X4.6744Y-4.2998
X4.6744Y-4.3998
X4.6744Y-4.4998
X4.6744Y-4.5998
X4.7Y-4.85
X4.8Y-4.85
X4.9744Y-3.9998
X4.9744Y-4.0998
X4.9744Y-4.1998
X4.9744Y-4.2998
X4.9744Y-4.3998
X4.9744Y-4.4998
X4.9744Y-4.5998
X4.9839Y-3.475
X5.0839Y-3.475
X5.1089Y-3.675
X5.2089Y-3.675
X5.225Y-4.9
X5.25Y-5.575
X5.325Y-4.9
X5.35Y-5.575
X5.875Y-3.825
X5.9089Y-5.0
X5.95Y-5.25
X5.95Y-5.6
X5.975Y-3.825
X6.0089Y-5.0
X6.05Y-5.25
X6.05Y-5.6
X6.1Y-3.5661
X6.1Y-3.6661
X6.1339Y-3.95
X6.2339Y-3.95
X6.725Y-3.6911
X6.725Y-3.7911
X6.9661Y-3.8
X7.0661Y-3.8
X7.3Y-4.9531
X7.3Y-5.15
T4
X3.85Y-3.9494
X3.85Y-4.0494
X3.85Y-4.1494
X3.9Y-4.5016
X3.9Y-4.6
X4.075Y-4.525
X4.075Y-4.625
X4.95Y-5.1
X4.95Y-5.2
X4.95Y-5.3
X5.1Y-2.9281
X5.1Y-3.125
X5.425Y-5.0994
X5.425Y-5.1994
X5.425Y-5.2994
X5.525Y-4.5818
X5.525Y-4.7786
X5.7031Y-4.225
X5.9Y-4.225
X6.5318Y-4.575
X6.7286Y-4.575
X7.475Y-3.9
X7.475Y-4.0
X7.475Y-4.1
X7.475Y-4.2
X7.475Y-4.3
X7.475Y-4.4
X7.475Y-4.65
X7.475Y-4.75
X7.475Y-4.85
X7.475Y-4.95
X7.475Y-5.05
T5
X3.925Y-4.8
X3.925Y-4.9
X3.925Y-5.0
X3.925Y-5.1
X3.925Y-5.275
X3.925Y-5.375
X3.925Y-5.475
X3.925Y-5.575
X3.9795Y-1.875
X3.9795Y-1.975
X3.9795Y-2.075
X3.9795Y-2.175
X3.9795Y-2.275
X3.9795Y-2.375
X3.9795Y-2.475
X3.9795Y-2.575
X3.9795Y-2.675
X3.9795Y-2.775
X3.9795Y-2.875
X3.9795Y-2.975
X3.9795Y-3.075
X3.9795Y-3.175
X3.9795Y-3.275
X3.9795Y-3.375
X3.9795Y-3.475
X3.9795Y-3.575
X3.9795Y-3.675
X3.9795Y-3.775
X4.2295Y-3.7659
X4.3295Y-3.7659
X4.4295Y-3.7659
X4.6795Y-1.875
X4.6795Y-1.975
X4.6795Y-2.075
X4.6795Y-2.175
X4.6795Y-2.275
X4.6795Y-2.375
X4.6795Y-2.475
X4.6795Y-2.575
X4.6795Y-2.675
X4.6795Y-2.775
X4.6795Y-2.875
X4.6795Y-2.975
X4.6795Y-3.075
X4.6795Y-3.175
X4.6795Y-3.275
X4.6795Y-3.375
X4.6795Y-3.475
X4.6795Y-3.575
X4.6795Y-3.675
X4.6795Y-3.775
T6
X4.225Y-4.375
X4.225Y-4.775
X5.25Y-4.2878
X5.35Y-4.2878
X5.45Y-4.2878
X5.625Y-3.525
X5.725Y-3.525
X5.825Y-3.525
X5.8341Y-2.8102
X6.2341Y-2.8102
X6.325Y-4.975
X6.325Y-5.375
X6.3372Y-4.475
X6.3372Y-4.575
X6.3372Y-4.675
X6.725Y-3.4872
X6.825Y-3.4872
X6.8841Y-2.8102
X6.925Y-3.4872
X7.2841Y-2.8102
T7
X5.725Y-3.2
X6.325Y-3.2
X6.825Y-3.2
X7.425Y-3.2
T8
X5.0Y-2.2551
X5.25Y-2.6291
T9
X5.6841Y-2.3102
X6.3841Y-1.9102
X6.3841Y-2.2102
X6.7341Y-2.3102
X7.4341Y-1.9102
X7.4341Y-2.2102
T10
X3.75Y-1.825
X3.75Y-5.775
X7.7Y-1.825
X7.7Y-5.775
M30
