%TF.GenerationSoftware,KiCad,Pcbnew,7.0.10*%
%TF.CreationDate,2024-07-19T10:33:54-06:00*%
%TF.ProjectId,Pressure-Controlled-Power-Outlet-control-PCB,50726573-7375-4726-952d-436f6e74726f,V1.1.1*%
%TF.SameCoordinates,Original*%
%TF.FileFunction,Drillmap*%
%TF.FilePolarity,Positive*%
%FSLAX45Y45*%
G04 Gerber Fmt 4.5, Leading zero omitted, Abs format (unit mm)*
G04 Created by KiCad (PCBNEW 7.0.10) date 2024-07-19 10:33:54*
%MOMM*%
%LPD*%
G01*
G04 APERTURE LIST*
%ADD10C,0.100000*%
%ADD11C,0.200000*%
%ADD12C,0.102000*%
%ADD13C,0.110000*%
%ADD14C,0.120000*%
%ADD15C,0.160000*%
%ADD16C,0.170000*%
%ADD17C,0.210000*%
G04 APERTURE END LIST*
D10*
X8636000Y-6604000D02*
X18669000Y-6604000D01*
X18669000Y-14859000D01*
X8636000Y-14859000D01*
X8636000Y-6604000D01*
D11*
D10*
X13305000Y-10003000D02*
X13365000Y-10063000D01*
X13365000Y-10003000D02*
X13305000Y-10063000D01*
X13505000Y-10003000D02*
X13565000Y-10063000D01*
X13565000Y-10003000D02*
X13505000Y-10063000D01*
X11721500Y-10414000D02*
G75*
G03*
X11646500Y-10414000I-37500J0D01*
G01*
X11646500Y-10414000D02*
G75*
G03*
X11721500Y-10414000I37500J0D01*
G01*
X11721500Y-10541000D02*
G75*
G03*
X11646500Y-10541000I-37500J0D01*
G01*
X11646500Y-10541000D02*
G75*
G03*
X11721500Y-10541000I37500J0D01*
G01*
X11721500Y-10668000D02*
G75*
G03*
X11646500Y-10668000I-37500J0D01*
G01*
X11646500Y-10668000D02*
G75*
G03*
X11721500Y-10668000I37500J0D01*
G01*
X15912500Y-10414000D02*
G75*
G03*
X15837500Y-10414000I-37500J0D01*
G01*
X15837500Y-10414000D02*
G75*
G03*
X15912500Y-10414000I37500J0D01*
G01*
X15912500Y-10541000D02*
G75*
G03*
X15837500Y-10541000I-37500J0D01*
G01*
X15837500Y-10541000D02*
G75*
G03*
X15912500Y-10541000I37500J0D01*
G01*
X15912500Y-10668000D02*
G75*
G03*
X15837500Y-10668000I-37500J0D01*
G01*
X15837500Y-10668000D02*
G75*
G03*
X15912500Y-10668000I37500J0D01*
G01*
X11430000Y-11263000D02*
X11430000Y-11343000D01*
X11390000Y-11303000D02*
X11470000Y-11303000D01*
X11684000Y-11263000D02*
X11684000Y-11343000D01*
X11644000Y-11303000D02*
X11724000Y-11303000D01*
X11938000Y-9104000D02*
X11938000Y-9184000D01*
X11898000Y-9144000D02*
X11978000Y-9144000D01*
X11938000Y-9358000D02*
X11938000Y-9438000D01*
X11898000Y-9398000D02*
X11978000Y-9398000D01*
X12319000Y-10501000D02*
X12319000Y-10581000D01*
X12279000Y-10541000D02*
X12359000Y-10541000D01*
X12446000Y-7330000D02*
X12446000Y-7410000D01*
X12406000Y-7370000D02*
X12486000Y-7370000D01*
X12446000Y-7580000D02*
X12446000Y-7660000D01*
X12406000Y-7620000D02*
X12486000Y-7620000D01*
X12446000Y-9104000D02*
X12446000Y-9184000D01*
X12406000Y-9144000D02*
X12486000Y-9144000D01*
X12446000Y-9358000D02*
X12446000Y-9438000D01*
X12406000Y-9398000D02*
X12486000Y-9398000D01*
X12573000Y-10501000D02*
X12573000Y-10581000D01*
X12533000Y-10541000D02*
X12613000Y-10541000D01*
X13208000Y-10755000D02*
X13208000Y-10835000D01*
X13168000Y-10795000D02*
X13248000Y-10795000D01*
X13458000Y-10755000D02*
X13458000Y-10835000D01*
X13418000Y-10795000D02*
X13498000Y-10795000D01*
X14859000Y-9104000D02*
X14859000Y-9184000D01*
X14819000Y-9144000D02*
X14899000Y-9144000D01*
X14859000Y-9358000D02*
X14859000Y-9438000D01*
X14819000Y-9398000D02*
X14899000Y-9398000D01*
X15113000Y-10501000D02*
X15113000Y-10581000D01*
X15073000Y-10541000D02*
X15153000Y-10541000D01*
X15241500Y-12025500D02*
X15241500Y-12105500D01*
X15201500Y-12065500D02*
X15281500Y-12065500D01*
X15241500Y-12279500D02*
X15241500Y-12359500D01*
X15201500Y-12319500D02*
X15281500Y-12319500D01*
X15241500Y-12533500D02*
X15241500Y-12613500D01*
X15201500Y-12573500D02*
X15281500Y-12573500D01*
X15241500Y-12787500D02*
X15241500Y-12867500D01*
X15201500Y-12827500D02*
X15281500Y-12827500D01*
X15241500Y-13041500D02*
X15241500Y-13121500D01*
X15201500Y-13081500D02*
X15281500Y-13081500D01*
X15241500Y-13295500D02*
X15241500Y-13375500D01*
X15201500Y-13335500D02*
X15281500Y-13335500D01*
X15241500Y-13549500D02*
X15241500Y-13629500D01*
X15201500Y-13589500D02*
X15281500Y-13589500D01*
X15367000Y-9104000D02*
X15367000Y-9184000D01*
X15327000Y-9144000D02*
X15407000Y-9144000D01*
X15367000Y-9358000D02*
X15367000Y-9438000D01*
X15327000Y-9398000D02*
X15407000Y-9398000D01*
X15367000Y-10501000D02*
X15367000Y-10581000D01*
X15327000Y-10541000D02*
X15407000Y-10541000D01*
X16003500Y-12025500D02*
X16003500Y-12105500D01*
X15963500Y-12065500D02*
X16043500Y-12065500D01*
X16003500Y-12279500D02*
X16003500Y-12359500D01*
X15963500Y-12319500D02*
X16043500Y-12319500D01*
X16003500Y-12533500D02*
X16003500Y-12613500D01*
X15963500Y-12573500D02*
X16043500Y-12573500D01*
X16003500Y-12787500D02*
X16003500Y-12867500D01*
X15963500Y-12827500D02*
X16043500Y-12827500D01*
X16003500Y-13041500D02*
X16003500Y-13121500D01*
X15963500Y-13081500D02*
X16043500Y-13081500D01*
X16003500Y-13295500D02*
X16003500Y-13375500D01*
X15963500Y-13335500D02*
X16043500Y-13335500D01*
X16003500Y-13549500D02*
X16003500Y-13629500D01*
X15963500Y-13589500D02*
X16043500Y-13589500D01*
X17304856Y-13749856D02*
X17304856Y-13679144D01*
X17234144Y-13679144D01*
X17234144Y-13749856D01*
X17304856Y-13749856D01*
X17304856Y-14003856D02*
X17304856Y-13933144D01*
X17234144Y-13933144D01*
X17234144Y-14003856D01*
X17304856Y-14003856D01*
X17304856Y-14257856D02*
X17304856Y-14187144D01*
X17234144Y-14187144D01*
X17234144Y-14257856D01*
X17304856Y-14257856D01*
D12*
X9398000Y-12116000D02*
X9449000Y-12065000D01*
X9398000Y-12014000D01*
X9347000Y-12065000D01*
X9398000Y-12116000D01*
X9398000Y-13894000D02*
X9449000Y-13843000D01*
X9398000Y-13792000D01*
X9347000Y-13843000D01*
X9398000Y-13894000D01*
X9652000Y-12116000D02*
X9703000Y-12065000D01*
X9652000Y-12014000D01*
X9601000Y-12065000D01*
X9652000Y-12116000D01*
X9652000Y-13894000D02*
X9703000Y-13843000D01*
X9652000Y-13792000D01*
X9601000Y-13843000D01*
X9652000Y-13894000D01*
X9906000Y-12116000D02*
X9957000Y-12065000D01*
X9906000Y-12014000D01*
X9855000Y-12065000D01*
X9906000Y-12116000D01*
X9906000Y-13894000D02*
X9957000Y-13843000D01*
X9906000Y-13792000D01*
X9855000Y-13843000D01*
X9906000Y-13894000D01*
X10160000Y-12116000D02*
X10211000Y-12065000D01*
X10160000Y-12014000D01*
X10109000Y-12065000D01*
X10160000Y-12116000D01*
X10160000Y-13894000D02*
X10211000Y-13843000D01*
X10160000Y-13792000D01*
X10109000Y-13843000D01*
X10160000Y-13894000D01*
X10414000Y-12116000D02*
X10465000Y-12065000D01*
X10414000Y-12014000D01*
X10363000Y-12065000D01*
X10414000Y-12116000D01*
X10414000Y-13894000D02*
X10465000Y-13843000D01*
X10414000Y-13792000D01*
X10363000Y-13843000D01*
X10414000Y-13894000D01*
X10668000Y-12116000D02*
X10719000Y-12065000D01*
X10668000Y-12014000D01*
X10617000Y-12065000D01*
X10668000Y-12116000D01*
X10668000Y-13894000D02*
X10719000Y-13843000D01*
X10668000Y-13792000D01*
X10617000Y-13843000D01*
X10668000Y-13894000D01*
X10922000Y-12116000D02*
X10973000Y-12065000D01*
X10922000Y-12014000D01*
X10871000Y-12065000D01*
X10922000Y-12116000D01*
X10922000Y-13894000D02*
X10973000Y-13843000D01*
X10922000Y-13792000D01*
X10871000Y-13843000D01*
X10922000Y-13894000D01*
X11176000Y-12116000D02*
X11227000Y-12065000D01*
X11176000Y-12014000D01*
X11125000Y-12065000D01*
X11176000Y-12116000D01*
X11176000Y-13894000D02*
X11227000Y-13843000D01*
X11176000Y-13792000D01*
X11125000Y-13843000D01*
X11176000Y-13894000D01*
X11430000Y-12116000D02*
X11481000Y-12065000D01*
X11430000Y-12014000D01*
X11379000Y-12065000D01*
X11430000Y-12116000D01*
X11430000Y-13894000D02*
X11481000Y-13843000D01*
X11430000Y-13792000D01*
X11379000Y-13843000D01*
X11430000Y-13894000D01*
X11684000Y-12116000D02*
X11735000Y-12065000D01*
X11684000Y-12014000D01*
X11633000Y-12065000D01*
X11684000Y-12116000D01*
X11684000Y-13894000D02*
X11735000Y-13843000D01*
X11684000Y-13792000D01*
X11633000Y-13843000D01*
X11684000Y-13894000D01*
X11938000Y-12116000D02*
X11989000Y-12065000D01*
X11938000Y-12014000D01*
X11887000Y-12065000D01*
X11938000Y-12116000D01*
X11938000Y-13894000D02*
X11989000Y-13843000D01*
X11938000Y-13792000D01*
X11887000Y-13843000D01*
X11938000Y-13894000D01*
X12192000Y-12116000D02*
X12243000Y-12065000D01*
X12192000Y-12014000D01*
X12141000Y-12065000D01*
X12192000Y-12116000D01*
X12192000Y-13894000D02*
X12243000Y-13843000D01*
X12192000Y-13792000D01*
X12141000Y-13843000D01*
X12192000Y-13894000D01*
X12446000Y-12116000D02*
X12497000Y-12065000D01*
X12446000Y-12014000D01*
X12395000Y-12065000D01*
X12446000Y-12116000D01*
X12446000Y-13894000D02*
X12497000Y-13843000D01*
X12446000Y-13792000D01*
X12395000Y-13843000D01*
X12446000Y-13894000D01*
X12700000Y-12116000D02*
X12751000Y-12065000D01*
X12700000Y-12014000D01*
X12649000Y-12065000D01*
X12700000Y-12116000D01*
X12700000Y-13894000D02*
X12751000Y-13843000D01*
X12700000Y-13792000D01*
X12649000Y-13843000D01*
X12700000Y-13894000D01*
X12954000Y-12116000D02*
X13005000Y-12065000D01*
X12954000Y-12014000D01*
X12903000Y-12065000D01*
X12954000Y-12116000D01*
X12954000Y-13894000D02*
X13005000Y-13843000D01*
X12954000Y-13792000D01*
X12903000Y-13843000D01*
X12954000Y-13894000D01*
X13208000Y-12116000D02*
X13259000Y-12065000D01*
X13208000Y-12014000D01*
X13157000Y-12065000D01*
X13208000Y-12116000D01*
X13208000Y-13894000D02*
X13259000Y-13843000D01*
X13208000Y-13792000D01*
X13157000Y-13843000D01*
X13208000Y-13894000D01*
X13462000Y-12116000D02*
X13513000Y-12065000D01*
X13462000Y-12014000D01*
X13411000Y-12065000D01*
X13462000Y-12116000D01*
X13462000Y-13894000D02*
X13513000Y-13843000D01*
X13462000Y-13792000D01*
X13411000Y-13843000D01*
X13462000Y-13894000D01*
X13716000Y-12116000D02*
X13767000Y-12065000D01*
X13716000Y-12014000D01*
X13665000Y-12065000D01*
X13716000Y-12116000D01*
X13716000Y-13894000D02*
X13767000Y-13843000D01*
X13716000Y-13792000D01*
X13665000Y-13843000D01*
X13716000Y-13894000D01*
X13970000Y-12116000D02*
X14021000Y-12065000D01*
X13970000Y-12014000D01*
X13919000Y-12065000D01*
X13970000Y-12116000D01*
X13970000Y-13894000D02*
X14021000Y-13843000D01*
X13970000Y-13792000D01*
X13919000Y-13843000D01*
X13970000Y-13894000D01*
X14201000Y-12751000D02*
X14252000Y-12700000D01*
X14201000Y-12649000D01*
X14150000Y-12700000D01*
X14201000Y-12751000D01*
X14201000Y-13005000D02*
X14252000Y-12954000D01*
X14201000Y-12903000D01*
X14150000Y-12954000D01*
X14201000Y-13005000D01*
X14201000Y-13259000D02*
X14252000Y-13208000D01*
X14201000Y-13157000D01*
X14150000Y-13208000D01*
X14201000Y-13259000D01*
X14224000Y-12116000D02*
X14275000Y-12065000D01*
X14224000Y-12014000D01*
X14173000Y-12065000D01*
X14224000Y-12116000D01*
X14224000Y-13894000D02*
X14275000Y-13843000D01*
X14224000Y-13792000D01*
X14173000Y-13843000D01*
X14224000Y-13894000D01*
D13*
X9810500Y-9470000D02*
X9920500Y-9580000D01*
X9920500Y-9470000D02*
X9810500Y-9580000D01*
X9920500Y-9525000D02*
G75*
G03*
X9810500Y-9525000I-55000J0D01*
G01*
X9810500Y-9525000D02*
G75*
G03*
X9920500Y-9525000I55000J0D01*
G01*
X10826500Y-9470000D02*
X10936500Y-9580000D01*
X10936500Y-9470000D02*
X10826500Y-9580000D01*
X10936500Y-9525000D02*
G75*
G03*
X10826500Y-9525000I-55000J0D01*
G01*
X10826500Y-9525000D02*
G75*
G03*
X10936500Y-9525000I55000J0D01*
G01*
X11883000Y-8421500D02*
X11993000Y-8531500D01*
X11993000Y-8421500D02*
X11883000Y-8531500D01*
X11993000Y-8476500D02*
G75*
G03*
X11883000Y-8476500I-55000J0D01*
G01*
X11883000Y-8476500D02*
G75*
G03*
X11993000Y-8476500I55000J0D01*
G01*
X12137000Y-8421500D02*
X12247000Y-8531500D01*
X12247000Y-8421500D02*
X12137000Y-8531500D01*
X12247000Y-8476500D02*
G75*
G03*
X12137000Y-8476500I-55000J0D01*
G01*
X12137000Y-8476500D02*
G75*
G03*
X12247000Y-8476500I55000J0D01*
G01*
X12391000Y-8421500D02*
X12501000Y-8531500D01*
X12501000Y-8421500D02*
X12391000Y-8531500D01*
X12501000Y-8476500D02*
G75*
G03*
X12391000Y-8476500I-55000J0D01*
G01*
X12391000Y-8476500D02*
G75*
G03*
X12501000Y-8476500I55000J0D01*
G01*
X14074500Y-10232000D02*
X14184500Y-10342000D01*
X14184500Y-10232000D02*
X14074500Y-10342000D01*
X14184500Y-10287000D02*
G75*
G03*
X14074500Y-10287000I-55000J0D01*
G01*
X14074500Y-10287000D02*
G75*
G03*
X14184500Y-10287000I55000J0D01*
G01*
X14074500Y-10486000D02*
X14184500Y-10596000D01*
X14184500Y-10486000D02*
X14074500Y-10596000D01*
X14184500Y-10541000D02*
G75*
G03*
X14074500Y-10541000I-55000J0D01*
G01*
X14074500Y-10541000D02*
G75*
G03*
X14184500Y-10541000I55000J0D01*
G01*
X14074500Y-10740000D02*
X14184500Y-10850000D01*
X14184500Y-10740000D02*
X14074500Y-10850000D01*
X14184500Y-10795000D02*
G75*
G03*
X14074500Y-10795000I-55000J0D01*
G01*
X14074500Y-10795000D02*
G75*
G03*
X14184500Y-10795000I55000J0D01*
G01*
X15025500Y-7819000D02*
X15135500Y-7929000D01*
X15135500Y-7819000D02*
X15025500Y-7929000D01*
X15135500Y-7874000D02*
G75*
G03*
X15025500Y-7874000I-55000J0D01*
G01*
X15025500Y-7874000D02*
G75*
G03*
X15135500Y-7874000I55000J0D01*
G01*
X15025500Y-8073000D02*
X15135500Y-8183000D01*
X15135500Y-8073000D02*
X15025500Y-8183000D01*
X15135500Y-8128000D02*
G75*
G03*
X15025500Y-8128000I-55000J0D01*
G01*
X15025500Y-8128000D02*
G75*
G03*
X15135500Y-8128000I55000J0D01*
G01*
X15025500Y-8327000D02*
X15135500Y-8437000D01*
X15135500Y-8327000D02*
X15025500Y-8437000D01*
X15135500Y-8382000D02*
G75*
G03*
X15025500Y-8382000I-55000J0D01*
G01*
X15025500Y-8382000D02*
G75*
G03*
X15135500Y-8382000I55000J0D01*
G01*
X16582000Y-9470000D02*
X16692000Y-9580000D01*
X16692000Y-9470000D02*
X16582000Y-9580000D01*
X16692000Y-9525000D02*
G75*
G03*
X16582000Y-9525000I-55000J0D01*
G01*
X16582000Y-9525000D02*
G75*
G03*
X16692000Y-9525000I55000J0D01*
G01*
X17598000Y-9470000D02*
X17708000Y-9580000D01*
X17708000Y-9470000D02*
X17598000Y-9580000D01*
X17708000Y-9525000D02*
G75*
G03*
X17598000Y-9525000I-55000J0D01*
G01*
X17598000Y-9525000D02*
G75*
G03*
X17708000Y-9525000I55000J0D01*
G01*
D14*
X17148500Y-11508000D02*
X17268500Y-11628000D01*
X17268500Y-11508000D02*
X17148500Y-11628000D01*
X17208500Y-11508000D02*
X17208500Y-11628000D01*
X17148500Y-11568000D02*
X17268500Y-11568000D01*
X17148500Y-12016000D02*
X17268500Y-12136000D01*
X17268500Y-12016000D02*
X17148500Y-12136000D01*
X17208500Y-12016000D02*
X17208500Y-12136000D01*
X17148500Y-12076000D02*
X17268500Y-12076000D01*
X17148500Y-12576500D02*
X17268500Y-12696500D01*
X17268500Y-12576500D02*
X17148500Y-12696500D01*
X17208500Y-12576500D02*
X17208500Y-12696500D01*
X17148500Y-12636500D02*
X17268500Y-12636500D01*
X17148500Y-13084500D02*
X17268500Y-13204500D01*
X17268500Y-13084500D02*
X17148500Y-13204500D01*
X17208500Y-13084500D02*
X17208500Y-13204500D01*
X17148500Y-13144500D02*
X17268500Y-13144500D01*
D15*
X9064000Y-10334000D02*
X9224000Y-10494000D01*
X9224000Y-10334000D02*
X9064000Y-10494000D01*
X9200569Y-10470569D02*
X9200569Y-10357431D01*
X9087431Y-10357431D01*
X9087431Y-10470569D01*
X9200569Y-10470569D01*
X10588000Y-10334000D02*
X10748000Y-10494000D01*
X10748000Y-10334000D02*
X10588000Y-10494000D01*
X10724569Y-10470569D02*
X10724569Y-10357431D01*
X10611431Y-10357431D01*
X10611431Y-10470569D01*
X10724569Y-10470569D01*
X16557000Y-10334000D02*
X16717000Y-10494000D01*
X16717000Y-10334000D02*
X16557000Y-10494000D01*
X16693569Y-10470569D02*
X16693569Y-10357431D01*
X16580431Y-10357431D01*
X16580431Y-10470569D01*
X16693569Y-10470569D01*
X18081000Y-10334000D02*
X18241000Y-10494000D01*
X18241000Y-10334000D02*
X18081000Y-10494000D01*
X18217569Y-10470569D02*
X18217569Y-10357431D01*
X18104431Y-10357431D01*
X18104431Y-10470569D01*
X18217569Y-10470569D01*
D16*
X13252250Y-7712500D02*
X13422250Y-7882500D01*
X13422250Y-7712500D02*
X13252250Y-7882500D01*
X13337250Y-7882500D02*
X13422250Y-7797500D01*
X13337250Y-7712500D01*
X13252250Y-7797500D01*
X13337250Y-7882500D01*
X13887250Y-8662500D02*
X14057250Y-8832500D01*
X14057250Y-8662500D02*
X13887250Y-8832500D01*
X13972250Y-8832500D02*
X14057250Y-8747500D01*
X13972250Y-8662500D01*
X13887250Y-8747500D01*
X13972250Y-8832500D01*
D17*
X9484500Y-8150000D02*
X9484500Y-8360000D01*
X9379500Y-8255000D02*
X9589500Y-8255000D01*
X9589500Y-8255000D02*
G75*
G03*
X9379500Y-8255000I-105000J0D01*
G01*
X9379500Y-8255000D02*
G75*
G03*
X9589500Y-8255000I105000J0D01*
G01*
X11262500Y-7134000D02*
X11262500Y-7344000D01*
X11157500Y-7239000D02*
X11367500Y-7239000D01*
X11367500Y-7239000D02*
G75*
G03*
X11157500Y-7239000I-105000J0D01*
G01*
X11157500Y-7239000D02*
G75*
G03*
X11367500Y-7239000I105000J0D01*
G01*
X11262500Y-7896000D02*
X11262500Y-8106000D01*
X11157500Y-8001000D02*
X11367500Y-8001000D01*
X11367500Y-8001000D02*
G75*
G03*
X11157500Y-8001000I-105000J0D01*
G01*
X11157500Y-8001000D02*
G75*
G03*
X11367500Y-8001000I105000J0D01*
G01*
X16256000Y-8150000D02*
X16256000Y-8360000D01*
X16151000Y-8255000D02*
X16361000Y-8255000D01*
X16361000Y-8255000D02*
G75*
G03*
X16151000Y-8255000I-105000J0D01*
G01*
X16151000Y-8255000D02*
G75*
G03*
X16361000Y-8255000I105000J0D01*
G01*
X18034000Y-7134000D02*
X18034000Y-7344000D01*
X17929000Y-7239000D02*
X18139000Y-7239000D01*
X18139000Y-7239000D02*
G75*
G03*
X17929000Y-7239000I-105000J0D01*
G01*
X17929000Y-7239000D02*
G75*
G03*
X18139000Y-7239000I105000J0D01*
G01*
X18034000Y-7896000D02*
X18034000Y-8106000D01*
X17929000Y-8001000D02*
X18139000Y-8001000D01*
X18139000Y-8001000D02*
G75*
G03*
X17929000Y-8001000I-105000J0D01*
G01*
X17929000Y-8001000D02*
G75*
G03*
X18139000Y-8001000I105000J0D01*
G01*
D11*
X8891777Y-15175484D02*
X8891777Y-14975484D01*
X8891777Y-14975484D02*
X8939396Y-14975484D01*
X8939396Y-14975484D02*
X8967967Y-14985008D01*
X8967967Y-14985008D02*
X8987015Y-15004055D01*
X8987015Y-15004055D02*
X8996539Y-15023103D01*
X8996539Y-15023103D02*
X9006063Y-15061198D01*
X9006063Y-15061198D02*
X9006063Y-15089769D01*
X9006063Y-15089769D02*
X8996539Y-15127865D01*
X8996539Y-15127865D02*
X8987015Y-15146912D01*
X8987015Y-15146912D02*
X8967967Y-15165960D01*
X8967967Y-15165960D02*
X8939396Y-15175484D01*
X8939396Y-15175484D02*
X8891777Y-15175484D01*
X9091777Y-15175484D02*
X9091777Y-15042150D01*
X9091777Y-15080246D02*
X9101301Y-15061198D01*
X9101301Y-15061198D02*
X9110824Y-15051674D01*
X9110824Y-15051674D02*
X9129872Y-15042150D01*
X9129872Y-15042150D02*
X9148920Y-15042150D01*
X9215586Y-15175484D02*
X9215586Y-15042150D01*
X9215586Y-14975484D02*
X9206063Y-14985008D01*
X9206063Y-14985008D02*
X9215586Y-14994531D01*
X9215586Y-14994531D02*
X9225110Y-14985008D01*
X9225110Y-14985008D02*
X9215586Y-14975484D01*
X9215586Y-14975484D02*
X9215586Y-14994531D01*
X9339396Y-15175484D02*
X9320348Y-15165960D01*
X9320348Y-15165960D02*
X9310824Y-15146912D01*
X9310824Y-15146912D02*
X9310824Y-14975484D01*
X9444158Y-15175484D02*
X9425110Y-15165960D01*
X9425110Y-15165960D02*
X9415586Y-15146912D01*
X9415586Y-15146912D02*
X9415586Y-14975484D01*
X9672729Y-15175484D02*
X9672729Y-14975484D01*
X9672729Y-14975484D02*
X9739396Y-15118341D01*
X9739396Y-15118341D02*
X9806063Y-14975484D01*
X9806063Y-14975484D02*
X9806063Y-15175484D01*
X9987015Y-15175484D02*
X9987015Y-15070722D01*
X9987015Y-15070722D02*
X9977491Y-15051674D01*
X9977491Y-15051674D02*
X9958444Y-15042150D01*
X9958444Y-15042150D02*
X9920348Y-15042150D01*
X9920348Y-15042150D02*
X9901301Y-15051674D01*
X9987015Y-15165960D02*
X9967967Y-15175484D01*
X9967967Y-15175484D02*
X9920348Y-15175484D01*
X9920348Y-15175484D02*
X9901301Y-15165960D01*
X9901301Y-15165960D02*
X9891777Y-15146912D01*
X9891777Y-15146912D02*
X9891777Y-15127865D01*
X9891777Y-15127865D02*
X9901301Y-15108817D01*
X9901301Y-15108817D02*
X9920348Y-15099293D01*
X9920348Y-15099293D02*
X9967967Y-15099293D01*
X9967967Y-15099293D02*
X9987015Y-15089769D01*
X10082253Y-15042150D02*
X10082253Y-15242150D01*
X10082253Y-15051674D02*
X10101301Y-15042150D01*
X10101301Y-15042150D02*
X10139396Y-15042150D01*
X10139396Y-15042150D02*
X10158444Y-15051674D01*
X10158444Y-15051674D02*
X10167967Y-15061198D01*
X10167967Y-15061198D02*
X10177491Y-15080246D01*
X10177491Y-15080246D02*
X10177491Y-15137388D01*
X10177491Y-15137388D02*
X10167967Y-15156436D01*
X10167967Y-15156436D02*
X10158444Y-15165960D01*
X10158444Y-15165960D02*
X10139396Y-15175484D01*
X10139396Y-15175484D02*
X10101301Y-15175484D01*
X10101301Y-15175484D02*
X10082253Y-15165960D01*
X10263205Y-15156436D02*
X10272729Y-15165960D01*
X10272729Y-15165960D02*
X10263205Y-15175484D01*
X10263205Y-15175484D02*
X10253682Y-15165960D01*
X10253682Y-15165960D02*
X10263205Y-15156436D01*
X10263205Y-15156436D02*
X10263205Y-15175484D01*
X10263205Y-15051674D02*
X10272729Y-15061198D01*
X10272729Y-15061198D02*
X10263205Y-15070722D01*
X10263205Y-15070722D02*
X10253682Y-15061198D01*
X10253682Y-15061198D02*
X10263205Y-15051674D01*
X10263205Y-15051674D02*
X10263205Y-15070722D01*
D10*
X8571000Y-15474000D02*
X8631000Y-15534000D01*
X8631000Y-15474000D02*
X8571000Y-15534000D01*
D11*
X8929872Y-15395484D02*
X8948920Y-15395484D01*
X8948920Y-15395484D02*
X8967967Y-15405008D01*
X8967967Y-15405008D02*
X8977491Y-15414531D01*
X8977491Y-15414531D02*
X8987015Y-15433579D01*
X8987015Y-15433579D02*
X8996539Y-15471674D01*
X8996539Y-15471674D02*
X8996539Y-15519293D01*
X8996539Y-15519293D02*
X8987015Y-15557388D01*
X8987015Y-15557388D02*
X8977491Y-15576436D01*
X8977491Y-15576436D02*
X8967967Y-15585960D01*
X8967967Y-15585960D02*
X8948920Y-15595484D01*
X8948920Y-15595484D02*
X8929872Y-15595484D01*
X8929872Y-15595484D02*
X8910824Y-15585960D01*
X8910824Y-15585960D02*
X8901301Y-15576436D01*
X8901301Y-15576436D02*
X8891777Y-15557388D01*
X8891777Y-15557388D02*
X8882253Y-15519293D01*
X8882253Y-15519293D02*
X8882253Y-15471674D01*
X8882253Y-15471674D02*
X8891777Y-15433579D01*
X8891777Y-15433579D02*
X8901301Y-15414531D01*
X8901301Y-15414531D02*
X8910824Y-15405008D01*
X8910824Y-15405008D02*
X8929872Y-15395484D01*
X9082253Y-15576436D02*
X9091777Y-15585960D01*
X9091777Y-15585960D02*
X9082253Y-15595484D01*
X9082253Y-15595484D02*
X9072729Y-15585960D01*
X9072729Y-15585960D02*
X9082253Y-15576436D01*
X9082253Y-15576436D02*
X9082253Y-15595484D01*
X9263205Y-15395484D02*
X9225110Y-15395484D01*
X9225110Y-15395484D02*
X9206063Y-15405008D01*
X9206063Y-15405008D02*
X9196539Y-15414531D01*
X9196539Y-15414531D02*
X9177491Y-15443103D01*
X9177491Y-15443103D02*
X9167967Y-15481198D01*
X9167967Y-15481198D02*
X9167967Y-15557388D01*
X9167967Y-15557388D02*
X9177491Y-15576436D01*
X9177491Y-15576436D02*
X9187015Y-15585960D01*
X9187015Y-15585960D02*
X9206063Y-15595484D01*
X9206063Y-15595484D02*
X9244158Y-15595484D01*
X9244158Y-15595484D02*
X9263205Y-15585960D01*
X9263205Y-15585960D02*
X9272729Y-15576436D01*
X9272729Y-15576436D02*
X9282253Y-15557388D01*
X9282253Y-15557388D02*
X9282253Y-15509769D01*
X9282253Y-15509769D02*
X9272729Y-15490722D01*
X9272729Y-15490722D02*
X9263205Y-15481198D01*
X9263205Y-15481198D02*
X9244158Y-15471674D01*
X9244158Y-15471674D02*
X9206063Y-15471674D01*
X9206063Y-15471674D02*
X9187015Y-15481198D01*
X9187015Y-15481198D02*
X9177491Y-15490722D01*
X9177491Y-15490722D02*
X9167967Y-15509769D01*
X9406063Y-15395484D02*
X9425110Y-15395484D01*
X9425110Y-15395484D02*
X9444158Y-15405008D01*
X9444158Y-15405008D02*
X9453682Y-15414531D01*
X9453682Y-15414531D02*
X9463205Y-15433579D01*
X9463205Y-15433579D02*
X9472729Y-15471674D01*
X9472729Y-15471674D02*
X9472729Y-15519293D01*
X9472729Y-15519293D02*
X9463205Y-15557388D01*
X9463205Y-15557388D02*
X9453682Y-15576436D01*
X9453682Y-15576436D02*
X9444158Y-15585960D01*
X9444158Y-15585960D02*
X9425110Y-15595484D01*
X9425110Y-15595484D02*
X9406063Y-15595484D01*
X9406063Y-15595484D02*
X9387015Y-15585960D01*
X9387015Y-15585960D02*
X9377491Y-15576436D01*
X9377491Y-15576436D02*
X9367967Y-15557388D01*
X9367967Y-15557388D02*
X9358444Y-15519293D01*
X9358444Y-15519293D02*
X9358444Y-15471674D01*
X9358444Y-15471674D02*
X9367967Y-15433579D01*
X9367967Y-15433579D02*
X9377491Y-15414531D01*
X9377491Y-15414531D02*
X9387015Y-15405008D01*
X9387015Y-15405008D02*
X9406063Y-15395484D01*
X9596539Y-15395484D02*
X9615586Y-15395484D01*
X9615586Y-15395484D02*
X9634634Y-15405008D01*
X9634634Y-15405008D02*
X9644158Y-15414531D01*
X9644158Y-15414531D02*
X9653682Y-15433579D01*
X9653682Y-15433579D02*
X9663205Y-15471674D01*
X9663205Y-15471674D02*
X9663205Y-15519293D01*
X9663205Y-15519293D02*
X9653682Y-15557388D01*
X9653682Y-15557388D02*
X9644158Y-15576436D01*
X9644158Y-15576436D02*
X9634634Y-15585960D01*
X9634634Y-15585960D02*
X9615586Y-15595484D01*
X9615586Y-15595484D02*
X9596539Y-15595484D01*
X9596539Y-15595484D02*
X9577491Y-15585960D01*
X9577491Y-15585960D02*
X9567967Y-15576436D01*
X9567967Y-15576436D02*
X9558444Y-15557388D01*
X9558444Y-15557388D02*
X9548920Y-15519293D01*
X9548920Y-15519293D02*
X9548920Y-15471674D01*
X9548920Y-15471674D02*
X9558444Y-15433579D01*
X9558444Y-15433579D02*
X9567967Y-15414531D01*
X9567967Y-15414531D02*
X9577491Y-15405008D01*
X9577491Y-15405008D02*
X9596539Y-15395484D01*
X9748920Y-15595484D02*
X9748920Y-15462150D01*
X9748920Y-15481198D02*
X9758444Y-15471674D01*
X9758444Y-15471674D02*
X9777491Y-15462150D01*
X9777491Y-15462150D02*
X9806063Y-15462150D01*
X9806063Y-15462150D02*
X9825110Y-15471674D01*
X9825110Y-15471674D02*
X9834634Y-15490722D01*
X9834634Y-15490722D02*
X9834634Y-15595484D01*
X9834634Y-15490722D02*
X9844158Y-15471674D01*
X9844158Y-15471674D02*
X9863205Y-15462150D01*
X9863205Y-15462150D02*
X9891777Y-15462150D01*
X9891777Y-15462150D02*
X9910825Y-15471674D01*
X9910825Y-15471674D02*
X9920348Y-15490722D01*
X9920348Y-15490722D02*
X9920348Y-15595484D01*
X10015586Y-15595484D02*
X10015586Y-15462150D01*
X10015586Y-15481198D02*
X10025110Y-15471674D01*
X10025110Y-15471674D02*
X10044158Y-15462150D01*
X10044158Y-15462150D02*
X10072729Y-15462150D01*
X10072729Y-15462150D02*
X10091777Y-15471674D01*
X10091777Y-15471674D02*
X10101301Y-15490722D01*
X10101301Y-15490722D02*
X10101301Y-15595484D01*
X10101301Y-15490722D02*
X10110825Y-15471674D01*
X10110825Y-15471674D02*
X10129872Y-15462150D01*
X10129872Y-15462150D02*
X10158444Y-15462150D01*
X10158444Y-15462150D02*
X10177491Y-15471674D01*
X10177491Y-15471674D02*
X10187015Y-15490722D01*
X10187015Y-15490722D02*
X10187015Y-15595484D01*
X10577491Y-15385960D02*
X10406063Y-15643103D01*
X10834634Y-15395484D02*
X10853682Y-15395484D01*
X10853682Y-15395484D02*
X10872729Y-15405008D01*
X10872729Y-15405008D02*
X10882253Y-15414531D01*
X10882253Y-15414531D02*
X10891777Y-15433579D01*
X10891777Y-15433579D02*
X10901301Y-15471674D01*
X10901301Y-15471674D02*
X10901301Y-15519293D01*
X10901301Y-15519293D02*
X10891777Y-15557388D01*
X10891777Y-15557388D02*
X10882253Y-15576436D01*
X10882253Y-15576436D02*
X10872729Y-15585960D01*
X10872729Y-15585960D02*
X10853682Y-15595484D01*
X10853682Y-15595484D02*
X10834634Y-15595484D01*
X10834634Y-15595484D02*
X10815587Y-15585960D01*
X10815587Y-15585960D02*
X10806063Y-15576436D01*
X10806063Y-15576436D02*
X10796539Y-15557388D01*
X10796539Y-15557388D02*
X10787015Y-15519293D01*
X10787015Y-15519293D02*
X10787015Y-15471674D01*
X10787015Y-15471674D02*
X10796539Y-15433579D01*
X10796539Y-15433579D02*
X10806063Y-15414531D01*
X10806063Y-15414531D02*
X10815587Y-15405008D01*
X10815587Y-15405008D02*
X10834634Y-15395484D01*
X10987015Y-15576436D02*
X10996539Y-15585960D01*
X10996539Y-15585960D02*
X10987015Y-15595484D01*
X10987015Y-15595484D02*
X10977491Y-15585960D01*
X10977491Y-15585960D02*
X10987015Y-15576436D01*
X10987015Y-15576436D02*
X10987015Y-15595484D01*
X11120348Y-15395484D02*
X11139396Y-15395484D01*
X11139396Y-15395484D02*
X11158444Y-15405008D01*
X11158444Y-15405008D02*
X11167968Y-15414531D01*
X11167968Y-15414531D02*
X11177491Y-15433579D01*
X11177491Y-15433579D02*
X11187015Y-15471674D01*
X11187015Y-15471674D02*
X11187015Y-15519293D01*
X11187015Y-15519293D02*
X11177491Y-15557388D01*
X11177491Y-15557388D02*
X11167968Y-15576436D01*
X11167968Y-15576436D02*
X11158444Y-15585960D01*
X11158444Y-15585960D02*
X11139396Y-15595484D01*
X11139396Y-15595484D02*
X11120348Y-15595484D01*
X11120348Y-15595484D02*
X11101301Y-15585960D01*
X11101301Y-15585960D02*
X11091777Y-15576436D01*
X11091777Y-15576436D02*
X11082253Y-15557388D01*
X11082253Y-15557388D02*
X11072729Y-15519293D01*
X11072729Y-15519293D02*
X11072729Y-15471674D01*
X11072729Y-15471674D02*
X11082253Y-15433579D01*
X11082253Y-15433579D02*
X11091777Y-15414531D01*
X11091777Y-15414531D02*
X11101301Y-15405008D01*
X11101301Y-15405008D02*
X11120348Y-15395484D01*
X11263206Y-15414531D02*
X11272729Y-15405008D01*
X11272729Y-15405008D02*
X11291777Y-15395484D01*
X11291777Y-15395484D02*
X11339396Y-15395484D01*
X11339396Y-15395484D02*
X11358444Y-15405008D01*
X11358444Y-15405008D02*
X11367967Y-15414531D01*
X11367967Y-15414531D02*
X11377491Y-15433579D01*
X11377491Y-15433579D02*
X11377491Y-15452627D01*
X11377491Y-15452627D02*
X11367967Y-15481198D01*
X11367967Y-15481198D02*
X11253682Y-15595484D01*
X11253682Y-15595484D02*
X11377491Y-15595484D01*
X11444158Y-15395484D02*
X11567967Y-15395484D01*
X11567967Y-15395484D02*
X11501301Y-15471674D01*
X11501301Y-15471674D02*
X11529872Y-15471674D01*
X11529872Y-15471674D02*
X11548920Y-15481198D01*
X11548920Y-15481198D02*
X11558444Y-15490722D01*
X11558444Y-15490722D02*
X11567967Y-15509769D01*
X11567967Y-15509769D02*
X11567967Y-15557388D01*
X11567967Y-15557388D02*
X11558444Y-15576436D01*
X11558444Y-15576436D02*
X11548920Y-15585960D01*
X11548920Y-15585960D02*
X11529872Y-15595484D01*
X11529872Y-15595484D02*
X11472729Y-15595484D01*
X11472729Y-15595484D02*
X11453682Y-15585960D01*
X11453682Y-15585960D02*
X11444158Y-15576436D01*
X11739396Y-15395484D02*
X11701301Y-15395484D01*
X11701301Y-15395484D02*
X11682253Y-15405008D01*
X11682253Y-15405008D02*
X11672729Y-15414531D01*
X11672729Y-15414531D02*
X11653682Y-15443103D01*
X11653682Y-15443103D02*
X11644158Y-15481198D01*
X11644158Y-15481198D02*
X11644158Y-15557388D01*
X11644158Y-15557388D02*
X11653682Y-15576436D01*
X11653682Y-15576436D02*
X11663206Y-15585960D01*
X11663206Y-15585960D02*
X11682253Y-15595484D01*
X11682253Y-15595484D02*
X11720348Y-15595484D01*
X11720348Y-15595484D02*
X11739396Y-15585960D01*
X11739396Y-15585960D02*
X11748920Y-15576436D01*
X11748920Y-15576436D02*
X11758444Y-15557388D01*
X11758444Y-15557388D02*
X11758444Y-15509769D01*
X11758444Y-15509769D02*
X11748920Y-15490722D01*
X11748920Y-15490722D02*
X11739396Y-15481198D01*
X11739396Y-15481198D02*
X11720348Y-15471674D01*
X11720348Y-15471674D02*
X11682253Y-15471674D01*
X11682253Y-15471674D02*
X11663206Y-15481198D01*
X11663206Y-15481198D02*
X11653682Y-15490722D01*
X11653682Y-15490722D02*
X11644158Y-15509769D01*
X11834634Y-15395484D02*
X11834634Y-15433579D01*
X11910825Y-15395484D02*
X11910825Y-15433579D01*
X12206063Y-15671674D02*
X12196539Y-15662150D01*
X12196539Y-15662150D02*
X12177491Y-15633579D01*
X12177491Y-15633579D02*
X12167968Y-15614531D01*
X12167968Y-15614531D02*
X12158444Y-15585960D01*
X12158444Y-15585960D02*
X12148920Y-15538341D01*
X12148920Y-15538341D02*
X12148920Y-15500246D01*
X12148920Y-15500246D02*
X12158444Y-15452627D01*
X12158444Y-15452627D02*
X12167968Y-15424055D01*
X12167968Y-15424055D02*
X12177491Y-15405008D01*
X12177491Y-15405008D02*
X12196539Y-15376436D01*
X12196539Y-15376436D02*
X12206063Y-15366912D01*
X12272729Y-15414531D02*
X12282253Y-15405008D01*
X12282253Y-15405008D02*
X12301301Y-15395484D01*
X12301301Y-15395484D02*
X12348920Y-15395484D01*
X12348920Y-15395484D02*
X12367968Y-15405008D01*
X12367968Y-15405008D02*
X12377491Y-15414531D01*
X12377491Y-15414531D02*
X12387015Y-15433579D01*
X12387015Y-15433579D02*
X12387015Y-15452627D01*
X12387015Y-15452627D02*
X12377491Y-15481198D01*
X12377491Y-15481198D02*
X12263206Y-15595484D01*
X12263206Y-15595484D02*
X12387015Y-15595484D01*
X12625110Y-15595484D02*
X12625110Y-15395484D01*
X12710825Y-15595484D02*
X12710825Y-15490722D01*
X12710825Y-15490722D02*
X12701301Y-15471674D01*
X12701301Y-15471674D02*
X12682253Y-15462150D01*
X12682253Y-15462150D02*
X12653682Y-15462150D01*
X12653682Y-15462150D02*
X12634634Y-15471674D01*
X12634634Y-15471674D02*
X12625110Y-15481198D01*
X12834634Y-15595484D02*
X12815587Y-15585960D01*
X12815587Y-15585960D02*
X12806063Y-15576436D01*
X12806063Y-15576436D02*
X12796539Y-15557388D01*
X12796539Y-15557388D02*
X12796539Y-15500246D01*
X12796539Y-15500246D02*
X12806063Y-15481198D01*
X12806063Y-15481198D02*
X12815587Y-15471674D01*
X12815587Y-15471674D02*
X12834634Y-15462150D01*
X12834634Y-15462150D02*
X12863206Y-15462150D01*
X12863206Y-15462150D02*
X12882253Y-15471674D01*
X12882253Y-15471674D02*
X12891777Y-15481198D01*
X12891777Y-15481198D02*
X12901301Y-15500246D01*
X12901301Y-15500246D02*
X12901301Y-15557388D01*
X12901301Y-15557388D02*
X12891777Y-15576436D01*
X12891777Y-15576436D02*
X12882253Y-15585960D01*
X12882253Y-15585960D02*
X12863206Y-15595484D01*
X12863206Y-15595484D02*
X12834634Y-15595484D01*
X13015587Y-15595484D02*
X12996539Y-15585960D01*
X12996539Y-15585960D02*
X12987015Y-15566912D01*
X12987015Y-15566912D02*
X12987015Y-15395484D01*
X13167968Y-15585960D02*
X13148920Y-15595484D01*
X13148920Y-15595484D02*
X13110825Y-15595484D01*
X13110825Y-15595484D02*
X13091777Y-15585960D01*
X13091777Y-15585960D02*
X13082253Y-15566912D01*
X13082253Y-15566912D02*
X13082253Y-15490722D01*
X13082253Y-15490722D02*
X13091777Y-15471674D01*
X13091777Y-15471674D02*
X13110825Y-15462150D01*
X13110825Y-15462150D02*
X13148920Y-15462150D01*
X13148920Y-15462150D02*
X13167968Y-15471674D01*
X13167968Y-15471674D02*
X13177491Y-15490722D01*
X13177491Y-15490722D02*
X13177491Y-15509769D01*
X13177491Y-15509769D02*
X13082253Y-15528817D01*
X13253682Y-15585960D02*
X13272730Y-15595484D01*
X13272730Y-15595484D02*
X13310825Y-15595484D01*
X13310825Y-15595484D02*
X13329872Y-15585960D01*
X13329872Y-15585960D02*
X13339396Y-15566912D01*
X13339396Y-15566912D02*
X13339396Y-15557388D01*
X13339396Y-15557388D02*
X13329872Y-15538341D01*
X13329872Y-15538341D02*
X13310825Y-15528817D01*
X13310825Y-15528817D02*
X13282253Y-15528817D01*
X13282253Y-15528817D02*
X13263206Y-15519293D01*
X13263206Y-15519293D02*
X13253682Y-15500246D01*
X13253682Y-15500246D02*
X13253682Y-15490722D01*
X13253682Y-15490722D02*
X13263206Y-15471674D01*
X13263206Y-15471674D02*
X13282253Y-15462150D01*
X13282253Y-15462150D02*
X13310825Y-15462150D01*
X13310825Y-15462150D02*
X13329872Y-15471674D01*
X13406063Y-15671674D02*
X13415587Y-15662150D01*
X13415587Y-15662150D02*
X13434634Y-15633579D01*
X13434634Y-15633579D02*
X13444158Y-15614531D01*
X13444158Y-15614531D02*
X13453682Y-15585960D01*
X13453682Y-15585960D02*
X13463206Y-15538341D01*
X13463206Y-15538341D02*
X13463206Y-15500246D01*
X13463206Y-15500246D02*
X13453682Y-15452627D01*
X13453682Y-15452627D02*
X13444158Y-15424055D01*
X13444158Y-15424055D02*
X13434634Y-15405008D01*
X13434634Y-15405008D02*
X13415587Y-15376436D01*
X13415587Y-15376436D02*
X13406063Y-15366912D01*
D10*
X8631000Y-15768000D02*
G75*
G03*
X8556000Y-15768000I-37500J0D01*
G01*
X8556000Y-15768000D02*
G75*
G03*
X8631000Y-15768000I37500J0D01*
G01*
D11*
X8929872Y-15659484D02*
X8948920Y-15659484D01*
X8948920Y-15659484D02*
X8967967Y-15669008D01*
X8967967Y-15669008D02*
X8977491Y-15678531D01*
X8977491Y-15678531D02*
X8987015Y-15697579D01*
X8987015Y-15697579D02*
X8996539Y-15735674D01*
X8996539Y-15735674D02*
X8996539Y-15783293D01*
X8996539Y-15783293D02*
X8987015Y-15821388D01*
X8987015Y-15821388D02*
X8977491Y-15840436D01*
X8977491Y-15840436D02*
X8967967Y-15849960D01*
X8967967Y-15849960D02*
X8948920Y-15859484D01*
X8948920Y-15859484D02*
X8929872Y-15859484D01*
X8929872Y-15859484D02*
X8910824Y-15849960D01*
X8910824Y-15849960D02*
X8901301Y-15840436D01*
X8901301Y-15840436D02*
X8891777Y-15821388D01*
X8891777Y-15821388D02*
X8882253Y-15783293D01*
X8882253Y-15783293D02*
X8882253Y-15735674D01*
X8882253Y-15735674D02*
X8891777Y-15697579D01*
X8891777Y-15697579D02*
X8901301Y-15678531D01*
X8901301Y-15678531D02*
X8910824Y-15669008D01*
X8910824Y-15669008D02*
X8929872Y-15659484D01*
X9082253Y-15840436D02*
X9091777Y-15849960D01*
X9091777Y-15849960D02*
X9082253Y-15859484D01*
X9082253Y-15859484D02*
X9072729Y-15849960D01*
X9072729Y-15849960D02*
X9082253Y-15840436D01*
X9082253Y-15840436D02*
X9082253Y-15859484D01*
X9158444Y-15659484D02*
X9291777Y-15659484D01*
X9291777Y-15659484D02*
X9206063Y-15859484D01*
X9463205Y-15659484D02*
X9367967Y-15659484D01*
X9367967Y-15659484D02*
X9358444Y-15754722D01*
X9358444Y-15754722D02*
X9367967Y-15745198D01*
X9367967Y-15745198D02*
X9387015Y-15735674D01*
X9387015Y-15735674D02*
X9434634Y-15735674D01*
X9434634Y-15735674D02*
X9453682Y-15745198D01*
X9453682Y-15745198D02*
X9463205Y-15754722D01*
X9463205Y-15754722D02*
X9472729Y-15773769D01*
X9472729Y-15773769D02*
X9472729Y-15821388D01*
X9472729Y-15821388D02*
X9463205Y-15840436D01*
X9463205Y-15840436D02*
X9453682Y-15849960D01*
X9453682Y-15849960D02*
X9434634Y-15859484D01*
X9434634Y-15859484D02*
X9387015Y-15859484D01*
X9387015Y-15859484D02*
X9367967Y-15849960D01*
X9367967Y-15849960D02*
X9358444Y-15840436D01*
X9596539Y-15659484D02*
X9615586Y-15659484D01*
X9615586Y-15659484D02*
X9634634Y-15669008D01*
X9634634Y-15669008D02*
X9644158Y-15678531D01*
X9644158Y-15678531D02*
X9653682Y-15697579D01*
X9653682Y-15697579D02*
X9663205Y-15735674D01*
X9663205Y-15735674D02*
X9663205Y-15783293D01*
X9663205Y-15783293D02*
X9653682Y-15821388D01*
X9653682Y-15821388D02*
X9644158Y-15840436D01*
X9644158Y-15840436D02*
X9634634Y-15849960D01*
X9634634Y-15849960D02*
X9615586Y-15859484D01*
X9615586Y-15859484D02*
X9596539Y-15859484D01*
X9596539Y-15859484D02*
X9577491Y-15849960D01*
X9577491Y-15849960D02*
X9567967Y-15840436D01*
X9567967Y-15840436D02*
X9558444Y-15821388D01*
X9558444Y-15821388D02*
X9548920Y-15783293D01*
X9548920Y-15783293D02*
X9548920Y-15735674D01*
X9548920Y-15735674D02*
X9558444Y-15697579D01*
X9558444Y-15697579D02*
X9567967Y-15678531D01*
X9567967Y-15678531D02*
X9577491Y-15669008D01*
X9577491Y-15669008D02*
X9596539Y-15659484D01*
X9748920Y-15859484D02*
X9748920Y-15726150D01*
X9748920Y-15745198D02*
X9758444Y-15735674D01*
X9758444Y-15735674D02*
X9777491Y-15726150D01*
X9777491Y-15726150D02*
X9806063Y-15726150D01*
X9806063Y-15726150D02*
X9825110Y-15735674D01*
X9825110Y-15735674D02*
X9834634Y-15754722D01*
X9834634Y-15754722D02*
X9834634Y-15859484D01*
X9834634Y-15754722D02*
X9844158Y-15735674D01*
X9844158Y-15735674D02*
X9863205Y-15726150D01*
X9863205Y-15726150D02*
X9891777Y-15726150D01*
X9891777Y-15726150D02*
X9910825Y-15735674D01*
X9910825Y-15735674D02*
X9920348Y-15754722D01*
X9920348Y-15754722D02*
X9920348Y-15859484D01*
X10015586Y-15859484D02*
X10015586Y-15726150D01*
X10015586Y-15745198D02*
X10025110Y-15735674D01*
X10025110Y-15735674D02*
X10044158Y-15726150D01*
X10044158Y-15726150D02*
X10072729Y-15726150D01*
X10072729Y-15726150D02*
X10091777Y-15735674D01*
X10091777Y-15735674D02*
X10101301Y-15754722D01*
X10101301Y-15754722D02*
X10101301Y-15859484D01*
X10101301Y-15754722D02*
X10110825Y-15735674D01*
X10110825Y-15735674D02*
X10129872Y-15726150D01*
X10129872Y-15726150D02*
X10158444Y-15726150D01*
X10158444Y-15726150D02*
X10177491Y-15735674D01*
X10177491Y-15735674D02*
X10187015Y-15754722D01*
X10187015Y-15754722D02*
X10187015Y-15859484D01*
X10577491Y-15649960D02*
X10406063Y-15907103D01*
X10834634Y-15659484D02*
X10853682Y-15659484D01*
X10853682Y-15659484D02*
X10872729Y-15669008D01*
X10872729Y-15669008D02*
X10882253Y-15678531D01*
X10882253Y-15678531D02*
X10891777Y-15697579D01*
X10891777Y-15697579D02*
X10901301Y-15735674D01*
X10901301Y-15735674D02*
X10901301Y-15783293D01*
X10901301Y-15783293D02*
X10891777Y-15821388D01*
X10891777Y-15821388D02*
X10882253Y-15840436D01*
X10882253Y-15840436D02*
X10872729Y-15849960D01*
X10872729Y-15849960D02*
X10853682Y-15859484D01*
X10853682Y-15859484D02*
X10834634Y-15859484D01*
X10834634Y-15859484D02*
X10815587Y-15849960D01*
X10815587Y-15849960D02*
X10806063Y-15840436D01*
X10806063Y-15840436D02*
X10796539Y-15821388D01*
X10796539Y-15821388D02*
X10787015Y-15783293D01*
X10787015Y-15783293D02*
X10787015Y-15735674D01*
X10787015Y-15735674D02*
X10796539Y-15697579D01*
X10796539Y-15697579D02*
X10806063Y-15678531D01*
X10806063Y-15678531D02*
X10815587Y-15669008D01*
X10815587Y-15669008D02*
X10834634Y-15659484D01*
X10987015Y-15840436D02*
X10996539Y-15849960D01*
X10996539Y-15849960D02*
X10987015Y-15859484D01*
X10987015Y-15859484D02*
X10977491Y-15849960D01*
X10977491Y-15849960D02*
X10987015Y-15840436D01*
X10987015Y-15840436D02*
X10987015Y-15859484D01*
X11120348Y-15659484D02*
X11139396Y-15659484D01*
X11139396Y-15659484D02*
X11158444Y-15669008D01*
X11158444Y-15669008D02*
X11167968Y-15678531D01*
X11167968Y-15678531D02*
X11177491Y-15697579D01*
X11177491Y-15697579D02*
X11187015Y-15735674D01*
X11187015Y-15735674D02*
X11187015Y-15783293D01*
X11187015Y-15783293D02*
X11177491Y-15821388D01*
X11177491Y-15821388D02*
X11167968Y-15840436D01*
X11167968Y-15840436D02*
X11158444Y-15849960D01*
X11158444Y-15849960D02*
X11139396Y-15859484D01*
X11139396Y-15859484D02*
X11120348Y-15859484D01*
X11120348Y-15859484D02*
X11101301Y-15849960D01*
X11101301Y-15849960D02*
X11091777Y-15840436D01*
X11091777Y-15840436D02*
X11082253Y-15821388D01*
X11082253Y-15821388D02*
X11072729Y-15783293D01*
X11072729Y-15783293D02*
X11072729Y-15735674D01*
X11072729Y-15735674D02*
X11082253Y-15697579D01*
X11082253Y-15697579D02*
X11091777Y-15678531D01*
X11091777Y-15678531D02*
X11101301Y-15669008D01*
X11101301Y-15669008D02*
X11120348Y-15659484D01*
X11263206Y-15678531D02*
X11272729Y-15669008D01*
X11272729Y-15669008D02*
X11291777Y-15659484D01*
X11291777Y-15659484D02*
X11339396Y-15659484D01*
X11339396Y-15659484D02*
X11358444Y-15669008D01*
X11358444Y-15669008D02*
X11367967Y-15678531D01*
X11367967Y-15678531D02*
X11377491Y-15697579D01*
X11377491Y-15697579D02*
X11377491Y-15716627D01*
X11377491Y-15716627D02*
X11367967Y-15745198D01*
X11367967Y-15745198D02*
X11253682Y-15859484D01*
X11253682Y-15859484D02*
X11377491Y-15859484D01*
X11472729Y-15859484D02*
X11510825Y-15859484D01*
X11510825Y-15859484D02*
X11529872Y-15849960D01*
X11529872Y-15849960D02*
X11539396Y-15840436D01*
X11539396Y-15840436D02*
X11558444Y-15811865D01*
X11558444Y-15811865D02*
X11567967Y-15773769D01*
X11567967Y-15773769D02*
X11567967Y-15697579D01*
X11567967Y-15697579D02*
X11558444Y-15678531D01*
X11558444Y-15678531D02*
X11548920Y-15669008D01*
X11548920Y-15669008D02*
X11529872Y-15659484D01*
X11529872Y-15659484D02*
X11491777Y-15659484D01*
X11491777Y-15659484D02*
X11472729Y-15669008D01*
X11472729Y-15669008D02*
X11463206Y-15678531D01*
X11463206Y-15678531D02*
X11453682Y-15697579D01*
X11453682Y-15697579D02*
X11453682Y-15745198D01*
X11453682Y-15745198D02*
X11463206Y-15764246D01*
X11463206Y-15764246D02*
X11472729Y-15773769D01*
X11472729Y-15773769D02*
X11491777Y-15783293D01*
X11491777Y-15783293D02*
X11529872Y-15783293D01*
X11529872Y-15783293D02*
X11548920Y-15773769D01*
X11548920Y-15773769D02*
X11558444Y-15764246D01*
X11558444Y-15764246D02*
X11567967Y-15745198D01*
X11748920Y-15659484D02*
X11653682Y-15659484D01*
X11653682Y-15659484D02*
X11644158Y-15754722D01*
X11644158Y-15754722D02*
X11653682Y-15745198D01*
X11653682Y-15745198D02*
X11672729Y-15735674D01*
X11672729Y-15735674D02*
X11720348Y-15735674D01*
X11720348Y-15735674D02*
X11739396Y-15745198D01*
X11739396Y-15745198D02*
X11748920Y-15754722D01*
X11748920Y-15754722D02*
X11758444Y-15773769D01*
X11758444Y-15773769D02*
X11758444Y-15821388D01*
X11758444Y-15821388D02*
X11748920Y-15840436D01*
X11748920Y-15840436D02*
X11739396Y-15849960D01*
X11739396Y-15849960D02*
X11720348Y-15859484D01*
X11720348Y-15859484D02*
X11672729Y-15859484D01*
X11672729Y-15859484D02*
X11653682Y-15849960D01*
X11653682Y-15849960D02*
X11644158Y-15840436D01*
X11834634Y-15659484D02*
X11834634Y-15697579D01*
X11910825Y-15659484D02*
X11910825Y-15697579D01*
X12206063Y-15935674D02*
X12196539Y-15926150D01*
X12196539Y-15926150D02*
X12177491Y-15897579D01*
X12177491Y-15897579D02*
X12167968Y-15878531D01*
X12167968Y-15878531D02*
X12158444Y-15849960D01*
X12158444Y-15849960D02*
X12148920Y-15802341D01*
X12148920Y-15802341D02*
X12148920Y-15764246D01*
X12148920Y-15764246D02*
X12158444Y-15716627D01*
X12158444Y-15716627D02*
X12167968Y-15688055D01*
X12167968Y-15688055D02*
X12177491Y-15669008D01*
X12177491Y-15669008D02*
X12196539Y-15640436D01*
X12196539Y-15640436D02*
X12206063Y-15630912D01*
X12367968Y-15659484D02*
X12329872Y-15659484D01*
X12329872Y-15659484D02*
X12310825Y-15669008D01*
X12310825Y-15669008D02*
X12301301Y-15678531D01*
X12301301Y-15678531D02*
X12282253Y-15707103D01*
X12282253Y-15707103D02*
X12272729Y-15745198D01*
X12272729Y-15745198D02*
X12272729Y-15821388D01*
X12272729Y-15821388D02*
X12282253Y-15840436D01*
X12282253Y-15840436D02*
X12291777Y-15849960D01*
X12291777Y-15849960D02*
X12310825Y-15859484D01*
X12310825Y-15859484D02*
X12348920Y-15859484D01*
X12348920Y-15859484D02*
X12367968Y-15849960D01*
X12367968Y-15849960D02*
X12377491Y-15840436D01*
X12377491Y-15840436D02*
X12387015Y-15821388D01*
X12387015Y-15821388D02*
X12387015Y-15773769D01*
X12387015Y-15773769D02*
X12377491Y-15754722D01*
X12377491Y-15754722D02*
X12367968Y-15745198D01*
X12367968Y-15745198D02*
X12348920Y-15735674D01*
X12348920Y-15735674D02*
X12310825Y-15735674D01*
X12310825Y-15735674D02*
X12291777Y-15745198D01*
X12291777Y-15745198D02*
X12282253Y-15754722D01*
X12282253Y-15754722D02*
X12272729Y-15773769D01*
X12625110Y-15859484D02*
X12625110Y-15659484D01*
X12710825Y-15859484D02*
X12710825Y-15754722D01*
X12710825Y-15754722D02*
X12701301Y-15735674D01*
X12701301Y-15735674D02*
X12682253Y-15726150D01*
X12682253Y-15726150D02*
X12653682Y-15726150D01*
X12653682Y-15726150D02*
X12634634Y-15735674D01*
X12634634Y-15735674D02*
X12625110Y-15745198D01*
X12834634Y-15859484D02*
X12815587Y-15849960D01*
X12815587Y-15849960D02*
X12806063Y-15840436D01*
X12806063Y-15840436D02*
X12796539Y-15821388D01*
X12796539Y-15821388D02*
X12796539Y-15764246D01*
X12796539Y-15764246D02*
X12806063Y-15745198D01*
X12806063Y-15745198D02*
X12815587Y-15735674D01*
X12815587Y-15735674D02*
X12834634Y-15726150D01*
X12834634Y-15726150D02*
X12863206Y-15726150D01*
X12863206Y-15726150D02*
X12882253Y-15735674D01*
X12882253Y-15735674D02*
X12891777Y-15745198D01*
X12891777Y-15745198D02*
X12901301Y-15764246D01*
X12901301Y-15764246D02*
X12901301Y-15821388D01*
X12901301Y-15821388D02*
X12891777Y-15840436D01*
X12891777Y-15840436D02*
X12882253Y-15849960D01*
X12882253Y-15849960D02*
X12863206Y-15859484D01*
X12863206Y-15859484D02*
X12834634Y-15859484D01*
X13015587Y-15859484D02*
X12996539Y-15849960D01*
X12996539Y-15849960D02*
X12987015Y-15830912D01*
X12987015Y-15830912D02*
X12987015Y-15659484D01*
X13167968Y-15849960D02*
X13148920Y-15859484D01*
X13148920Y-15859484D02*
X13110825Y-15859484D01*
X13110825Y-15859484D02*
X13091777Y-15849960D01*
X13091777Y-15849960D02*
X13082253Y-15830912D01*
X13082253Y-15830912D02*
X13082253Y-15754722D01*
X13082253Y-15754722D02*
X13091777Y-15735674D01*
X13091777Y-15735674D02*
X13110825Y-15726150D01*
X13110825Y-15726150D02*
X13148920Y-15726150D01*
X13148920Y-15726150D02*
X13167968Y-15735674D01*
X13167968Y-15735674D02*
X13177491Y-15754722D01*
X13177491Y-15754722D02*
X13177491Y-15773769D01*
X13177491Y-15773769D02*
X13082253Y-15792817D01*
X13253682Y-15849960D02*
X13272730Y-15859484D01*
X13272730Y-15859484D02*
X13310825Y-15859484D01*
X13310825Y-15859484D02*
X13329872Y-15849960D01*
X13329872Y-15849960D02*
X13339396Y-15830912D01*
X13339396Y-15830912D02*
X13339396Y-15821388D01*
X13339396Y-15821388D02*
X13329872Y-15802341D01*
X13329872Y-15802341D02*
X13310825Y-15792817D01*
X13310825Y-15792817D02*
X13282253Y-15792817D01*
X13282253Y-15792817D02*
X13263206Y-15783293D01*
X13263206Y-15783293D02*
X13253682Y-15764246D01*
X13253682Y-15764246D02*
X13253682Y-15754722D01*
X13253682Y-15754722D02*
X13263206Y-15735674D01*
X13263206Y-15735674D02*
X13282253Y-15726150D01*
X13282253Y-15726150D02*
X13310825Y-15726150D01*
X13310825Y-15726150D02*
X13329872Y-15735674D01*
X13406063Y-15935674D02*
X13415587Y-15926150D01*
X13415587Y-15926150D02*
X13434634Y-15897579D01*
X13434634Y-15897579D02*
X13444158Y-15878531D01*
X13444158Y-15878531D02*
X13453682Y-15849960D01*
X13453682Y-15849960D02*
X13463206Y-15802341D01*
X13463206Y-15802341D02*
X13463206Y-15764246D01*
X13463206Y-15764246D02*
X13453682Y-15716627D01*
X13453682Y-15716627D02*
X13444158Y-15688055D01*
X13444158Y-15688055D02*
X13434634Y-15669008D01*
X13434634Y-15669008D02*
X13415587Y-15640436D01*
X13415587Y-15640436D02*
X13406063Y-15630912D01*
D10*
X8591000Y-15992000D02*
X8591000Y-16072000D01*
X8551000Y-16032000D02*
X8631000Y-16032000D01*
D11*
X8929872Y-15923484D02*
X8948920Y-15923484D01*
X8948920Y-15923484D02*
X8967967Y-15933008D01*
X8967967Y-15933008D02*
X8977491Y-15942531D01*
X8977491Y-15942531D02*
X8987015Y-15961579D01*
X8987015Y-15961579D02*
X8996539Y-15999674D01*
X8996539Y-15999674D02*
X8996539Y-16047293D01*
X8996539Y-16047293D02*
X8987015Y-16085388D01*
X8987015Y-16085388D02*
X8977491Y-16104436D01*
X8977491Y-16104436D02*
X8967967Y-16113960D01*
X8967967Y-16113960D02*
X8948920Y-16123484D01*
X8948920Y-16123484D02*
X8929872Y-16123484D01*
X8929872Y-16123484D02*
X8910824Y-16113960D01*
X8910824Y-16113960D02*
X8901301Y-16104436D01*
X8901301Y-16104436D02*
X8891777Y-16085388D01*
X8891777Y-16085388D02*
X8882253Y-16047293D01*
X8882253Y-16047293D02*
X8882253Y-15999674D01*
X8882253Y-15999674D02*
X8891777Y-15961579D01*
X8891777Y-15961579D02*
X8901301Y-15942531D01*
X8901301Y-15942531D02*
X8910824Y-15933008D01*
X8910824Y-15933008D02*
X8929872Y-15923484D01*
X9082253Y-16104436D02*
X9091777Y-16113960D01*
X9091777Y-16113960D02*
X9082253Y-16123484D01*
X9082253Y-16123484D02*
X9072729Y-16113960D01*
X9072729Y-16113960D02*
X9082253Y-16104436D01*
X9082253Y-16104436D02*
X9082253Y-16123484D01*
X9206063Y-16009198D02*
X9187015Y-15999674D01*
X9187015Y-15999674D02*
X9177491Y-15990150D01*
X9177491Y-15990150D02*
X9167967Y-15971103D01*
X9167967Y-15971103D02*
X9167967Y-15961579D01*
X9167967Y-15961579D02*
X9177491Y-15942531D01*
X9177491Y-15942531D02*
X9187015Y-15933008D01*
X9187015Y-15933008D02*
X9206063Y-15923484D01*
X9206063Y-15923484D02*
X9244158Y-15923484D01*
X9244158Y-15923484D02*
X9263205Y-15933008D01*
X9263205Y-15933008D02*
X9272729Y-15942531D01*
X9272729Y-15942531D02*
X9282253Y-15961579D01*
X9282253Y-15961579D02*
X9282253Y-15971103D01*
X9282253Y-15971103D02*
X9272729Y-15990150D01*
X9272729Y-15990150D02*
X9263205Y-15999674D01*
X9263205Y-15999674D02*
X9244158Y-16009198D01*
X9244158Y-16009198D02*
X9206063Y-16009198D01*
X9206063Y-16009198D02*
X9187015Y-16018722D01*
X9187015Y-16018722D02*
X9177491Y-16028246D01*
X9177491Y-16028246D02*
X9167967Y-16047293D01*
X9167967Y-16047293D02*
X9167967Y-16085388D01*
X9167967Y-16085388D02*
X9177491Y-16104436D01*
X9177491Y-16104436D02*
X9187015Y-16113960D01*
X9187015Y-16113960D02*
X9206063Y-16123484D01*
X9206063Y-16123484D02*
X9244158Y-16123484D01*
X9244158Y-16123484D02*
X9263205Y-16113960D01*
X9263205Y-16113960D02*
X9272729Y-16104436D01*
X9272729Y-16104436D02*
X9282253Y-16085388D01*
X9282253Y-16085388D02*
X9282253Y-16047293D01*
X9282253Y-16047293D02*
X9272729Y-16028246D01*
X9272729Y-16028246D02*
X9263205Y-16018722D01*
X9263205Y-16018722D02*
X9244158Y-16009198D01*
X9406063Y-15923484D02*
X9425110Y-15923484D01*
X9425110Y-15923484D02*
X9444158Y-15933008D01*
X9444158Y-15933008D02*
X9453682Y-15942531D01*
X9453682Y-15942531D02*
X9463205Y-15961579D01*
X9463205Y-15961579D02*
X9472729Y-15999674D01*
X9472729Y-15999674D02*
X9472729Y-16047293D01*
X9472729Y-16047293D02*
X9463205Y-16085388D01*
X9463205Y-16085388D02*
X9453682Y-16104436D01*
X9453682Y-16104436D02*
X9444158Y-16113960D01*
X9444158Y-16113960D02*
X9425110Y-16123484D01*
X9425110Y-16123484D02*
X9406063Y-16123484D01*
X9406063Y-16123484D02*
X9387015Y-16113960D01*
X9387015Y-16113960D02*
X9377491Y-16104436D01*
X9377491Y-16104436D02*
X9367967Y-16085388D01*
X9367967Y-16085388D02*
X9358444Y-16047293D01*
X9358444Y-16047293D02*
X9358444Y-15999674D01*
X9358444Y-15999674D02*
X9367967Y-15961579D01*
X9367967Y-15961579D02*
X9377491Y-15942531D01*
X9377491Y-15942531D02*
X9387015Y-15933008D01*
X9387015Y-15933008D02*
X9406063Y-15923484D01*
X9596539Y-15923484D02*
X9615586Y-15923484D01*
X9615586Y-15923484D02*
X9634634Y-15933008D01*
X9634634Y-15933008D02*
X9644158Y-15942531D01*
X9644158Y-15942531D02*
X9653682Y-15961579D01*
X9653682Y-15961579D02*
X9663205Y-15999674D01*
X9663205Y-15999674D02*
X9663205Y-16047293D01*
X9663205Y-16047293D02*
X9653682Y-16085388D01*
X9653682Y-16085388D02*
X9644158Y-16104436D01*
X9644158Y-16104436D02*
X9634634Y-16113960D01*
X9634634Y-16113960D02*
X9615586Y-16123484D01*
X9615586Y-16123484D02*
X9596539Y-16123484D01*
X9596539Y-16123484D02*
X9577491Y-16113960D01*
X9577491Y-16113960D02*
X9567967Y-16104436D01*
X9567967Y-16104436D02*
X9558444Y-16085388D01*
X9558444Y-16085388D02*
X9548920Y-16047293D01*
X9548920Y-16047293D02*
X9548920Y-15999674D01*
X9548920Y-15999674D02*
X9558444Y-15961579D01*
X9558444Y-15961579D02*
X9567967Y-15942531D01*
X9567967Y-15942531D02*
X9577491Y-15933008D01*
X9577491Y-15933008D02*
X9596539Y-15923484D01*
X9748920Y-16123484D02*
X9748920Y-15990150D01*
X9748920Y-16009198D02*
X9758444Y-15999674D01*
X9758444Y-15999674D02*
X9777491Y-15990150D01*
X9777491Y-15990150D02*
X9806063Y-15990150D01*
X9806063Y-15990150D02*
X9825110Y-15999674D01*
X9825110Y-15999674D02*
X9834634Y-16018722D01*
X9834634Y-16018722D02*
X9834634Y-16123484D01*
X9834634Y-16018722D02*
X9844158Y-15999674D01*
X9844158Y-15999674D02*
X9863205Y-15990150D01*
X9863205Y-15990150D02*
X9891777Y-15990150D01*
X9891777Y-15990150D02*
X9910825Y-15999674D01*
X9910825Y-15999674D02*
X9920348Y-16018722D01*
X9920348Y-16018722D02*
X9920348Y-16123484D01*
X10015586Y-16123484D02*
X10015586Y-15990150D01*
X10015586Y-16009198D02*
X10025110Y-15999674D01*
X10025110Y-15999674D02*
X10044158Y-15990150D01*
X10044158Y-15990150D02*
X10072729Y-15990150D01*
X10072729Y-15990150D02*
X10091777Y-15999674D01*
X10091777Y-15999674D02*
X10101301Y-16018722D01*
X10101301Y-16018722D02*
X10101301Y-16123484D01*
X10101301Y-16018722D02*
X10110825Y-15999674D01*
X10110825Y-15999674D02*
X10129872Y-15990150D01*
X10129872Y-15990150D02*
X10158444Y-15990150D01*
X10158444Y-15990150D02*
X10177491Y-15999674D01*
X10177491Y-15999674D02*
X10187015Y-16018722D01*
X10187015Y-16018722D02*
X10187015Y-16123484D01*
X10577491Y-15913960D02*
X10406063Y-16171103D01*
X10834634Y-15923484D02*
X10853682Y-15923484D01*
X10853682Y-15923484D02*
X10872729Y-15933008D01*
X10872729Y-15933008D02*
X10882253Y-15942531D01*
X10882253Y-15942531D02*
X10891777Y-15961579D01*
X10891777Y-15961579D02*
X10901301Y-15999674D01*
X10901301Y-15999674D02*
X10901301Y-16047293D01*
X10901301Y-16047293D02*
X10891777Y-16085388D01*
X10891777Y-16085388D02*
X10882253Y-16104436D01*
X10882253Y-16104436D02*
X10872729Y-16113960D01*
X10872729Y-16113960D02*
X10853682Y-16123484D01*
X10853682Y-16123484D02*
X10834634Y-16123484D01*
X10834634Y-16123484D02*
X10815587Y-16113960D01*
X10815587Y-16113960D02*
X10806063Y-16104436D01*
X10806063Y-16104436D02*
X10796539Y-16085388D01*
X10796539Y-16085388D02*
X10787015Y-16047293D01*
X10787015Y-16047293D02*
X10787015Y-15999674D01*
X10787015Y-15999674D02*
X10796539Y-15961579D01*
X10796539Y-15961579D02*
X10806063Y-15942531D01*
X10806063Y-15942531D02*
X10815587Y-15933008D01*
X10815587Y-15933008D02*
X10834634Y-15923484D01*
X10987015Y-16104436D02*
X10996539Y-16113960D01*
X10996539Y-16113960D02*
X10987015Y-16123484D01*
X10987015Y-16123484D02*
X10977491Y-16113960D01*
X10977491Y-16113960D02*
X10987015Y-16104436D01*
X10987015Y-16104436D02*
X10987015Y-16123484D01*
X11120348Y-15923484D02*
X11139396Y-15923484D01*
X11139396Y-15923484D02*
X11158444Y-15933008D01*
X11158444Y-15933008D02*
X11167968Y-15942531D01*
X11167968Y-15942531D02*
X11177491Y-15961579D01*
X11177491Y-15961579D02*
X11187015Y-15999674D01*
X11187015Y-15999674D02*
X11187015Y-16047293D01*
X11187015Y-16047293D02*
X11177491Y-16085388D01*
X11177491Y-16085388D02*
X11167968Y-16104436D01*
X11167968Y-16104436D02*
X11158444Y-16113960D01*
X11158444Y-16113960D02*
X11139396Y-16123484D01*
X11139396Y-16123484D02*
X11120348Y-16123484D01*
X11120348Y-16123484D02*
X11101301Y-16113960D01*
X11101301Y-16113960D02*
X11091777Y-16104436D01*
X11091777Y-16104436D02*
X11082253Y-16085388D01*
X11082253Y-16085388D02*
X11072729Y-16047293D01*
X11072729Y-16047293D02*
X11072729Y-15999674D01*
X11072729Y-15999674D02*
X11082253Y-15961579D01*
X11082253Y-15961579D02*
X11091777Y-15942531D01*
X11091777Y-15942531D02*
X11101301Y-15933008D01*
X11101301Y-15933008D02*
X11120348Y-15923484D01*
X11253682Y-15923484D02*
X11377491Y-15923484D01*
X11377491Y-15923484D02*
X11310825Y-15999674D01*
X11310825Y-15999674D02*
X11339396Y-15999674D01*
X11339396Y-15999674D02*
X11358444Y-16009198D01*
X11358444Y-16009198D02*
X11367967Y-16018722D01*
X11367967Y-16018722D02*
X11377491Y-16037769D01*
X11377491Y-16037769D02*
X11377491Y-16085388D01*
X11377491Y-16085388D02*
X11367967Y-16104436D01*
X11367967Y-16104436D02*
X11358444Y-16113960D01*
X11358444Y-16113960D02*
X11339396Y-16123484D01*
X11339396Y-16123484D02*
X11282253Y-16123484D01*
X11282253Y-16123484D02*
X11263206Y-16113960D01*
X11263206Y-16113960D02*
X11253682Y-16104436D01*
X11567967Y-16123484D02*
X11453682Y-16123484D01*
X11510825Y-16123484D02*
X11510825Y-15923484D01*
X11510825Y-15923484D02*
X11491777Y-15952055D01*
X11491777Y-15952055D02*
X11472729Y-15971103D01*
X11472729Y-15971103D02*
X11453682Y-15980627D01*
X11748920Y-15923484D02*
X11653682Y-15923484D01*
X11653682Y-15923484D02*
X11644158Y-16018722D01*
X11644158Y-16018722D02*
X11653682Y-16009198D01*
X11653682Y-16009198D02*
X11672729Y-15999674D01*
X11672729Y-15999674D02*
X11720348Y-15999674D01*
X11720348Y-15999674D02*
X11739396Y-16009198D01*
X11739396Y-16009198D02*
X11748920Y-16018722D01*
X11748920Y-16018722D02*
X11758444Y-16037769D01*
X11758444Y-16037769D02*
X11758444Y-16085388D01*
X11758444Y-16085388D02*
X11748920Y-16104436D01*
X11748920Y-16104436D02*
X11739396Y-16113960D01*
X11739396Y-16113960D02*
X11720348Y-16123484D01*
X11720348Y-16123484D02*
X11672729Y-16123484D01*
X11672729Y-16123484D02*
X11653682Y-16113960D01*
X11653682Y-16113960D02*
X11644158Y-16104436D01*
X11834634Y-15923484D02*
X11834634Y-15961579D01*
X11910825Y-15923484D02*
X11910825Y-15961579D01*
X12206063Y-16199674D02*
X12196539Y-16190150D01*
X12196539Y-16190150D02*
X12177491Y-16161579D01*
X12177491Y-16161579D02*
X12167968Y-16142531D01*
X12167968Y-16142531D02*
X12158444Y-16113960D01*
X12158444Y-16113960D02*
X12148920Y-16066341D01*
X12148920Y-16066341D02*
X12148920Y-16028246D01*
X12148920Y-16028246D02*
X12158444Y-15980627D01*
X12158444Y-15980627D02*
X12167968Y-15952055D01*
X12167968Y-15952055D02*
X12177491Y-15933008D01*
X12177491Y-15933008D02*
X12196539Y-15904436D01*
X12196539Y-15904436D02*
X12206063Y-15894912D01*
X12263206Y-15923484D02*
X12387015Y-15923484D01*
X12387015Y-15923484D02*
X12320348Y-15999674D01*
X12320348Y-15999674D02*
X12348920Y-15999674D01*
X12348920Y-15999674D02*
X12367968Y-16009198D01*
X12367968Y-16009198D02*
X12377491Y-16018722D01*
X12377491Y-16018722D02*
X12387015Y-16037769D01*
X12387015Y-16037769D02*
X12387015Y-16085388D01*
X12387015Y-16085388D02*
X12377491Y-16104436D01*
X12377491Y-16104436D02*
X12367968Y-16113960D01*
X12367968Y-16113960D02*
X12348920Y-16123484D01*
X12348920Y-16123484D02*
X12291777Y-16123484D01*
X12291777Y-16123484D02*
X12272729Y-16113960D01*
X12272729Y-16113960D02*
X12263206Y-16104436D01*
X12463206Y-15942531D02*
X12472729Y-15933008D01*
X12472729Y-15933008D02*
X12491777Y-15923484D01*
X12491777Y-15923484D02*
X12539396Y-15923484D01*
X12539396Y-15923484D02*
X12558444Y-15933008D01*
X12558444Y-15933008D02*
X12567968Y-15942531D01*
X12567968Y-15942531D02*
X12577491Y-15961579D01*
X12577491Y-15961579D02*
X12577491Y-15980627D01*
X12577491Y-15980627D02*
X12567968Y-16009198D01*
X12567968Y-16009198D02*
X12453682Y-16123484D01*
X12453682Y-16123484D02*
X12577491Y-16123484D01*
X12815587Y-16123484D02*
X12815587Y-15923484D01*
X12901301Y-16123484D02*
X12901301Y-16018722D01*
X12901301Y-16018722D02*
X12891777Y-15999674D01*
X12891777Y-15999674D02*
X12872730Y-15990150D01*
X12872730Y-15990150D02*
X12844158Y-15990150D01*
X12844158Y-15990150D02*
X12825110Y-15999674D01*
X12825110Y-15999674D02*
X12815587Y-16009198D01*
X13025110Y-16123484D02*
X13006063Y-16113960D01*
X13006063Y-16113960D02*
X12996539Y-16104436D01*
X12996539Y-16104436D02*
X12987015Y-16085388D01*
X12987015Y-16085388D02*
X12987015Y-16028246D01*
X12987015Y-16028246D02*
X12996539Y-16009198D01*
X12996539Y-16009198D02*
X13006063Y-15999674D01*
X13006063Y-15999674D02*
X13025110Y-15990150D01*
X13025110Y-15990150D02*
X13053682Y-15990150D01*
X13053682Y-15990150D02*
X13072730Y-15999674D01*
X13072730Y-15999674D02*
X13082253Y-16009198D01*
X13082253Y-16009198D02*
X13091777Y-16028246D01*
X13091777Y-16028246D02*
X13091777Y-16085388D01*
X13091777Y-16085388D02*
X13082253Y-16104436D01*
X13082253Y-16104436D02*
X13072730Y-16113960D01*
X13072730Y-16113960D02*
X13053682Y-16123484D01*
X13053682Y-16123484D02*
X13025110Y-16123484D01*
X13206063Y-16123484D02*
X13187015Y-16113960D01*
X13187015Y-16113960D02*
X13177491Y-16094912D01*
X13177491Y-16094912D02*
X13177491Y-15923484D01*
X13358444Y-16113960D02*
X13339396Y-16123484D01*
X13339396Y-16123484D02*
X13301301Y-16123484D01*
X13301301Y-16123484D02*
X13282253Y-16113960D01*
X13282253Y-16113960D02*
X13272730Y-16094912D01*
X13272730Y-16094912D02*
X13272730Y-16018722D01*
X13272730Y-16018722D02*
X13282253Y-15999674D01*
X13282253Y-15999674D02*
X13301301Y-15990150D01*
X13301301Y-15990150D02*
X13339396Y-15990150D01*
X13339396Y-15990150D02*
X13358444Y-15999674D01*
X13358444Y-15999674D02*
X13367968Y-16018722D01*
X13367968Y-16018722D02*
X13367968Y-16037769D01*
X13367968Y-16037769D02*
X13272730Y-16056817D01*
X13444158Y-16113960D02*
X13463206Y-16123484D01*
X13463206Y-16123484D02*
X13501301Y-16123484D01*
X13501301Y-16123484D02*
X13520349Y-16113960D01*
X13520349Y-16113960D02*
X13529872Y-16094912D01*
X13529872Y-16094912D02*
X13529872Y-16085388D01*
X13529872Y-16085388D02*
X13520349Y-16066341D01*
X13520349Y-16066341D02*
X13501301Y-16056817D01*
X13501301Y-16056817D02*
X13472730Y-16056817D01*
X13472730Y-16056817D02*
X13453682Y-16047293D01*
X13453682Y-16047293D02*
X13444158Y-16028246D01*
X13444158Y-16028246D02*
X13444158Y-16018722D01*
X13444158Y-16018722D02*
X13453682Y-15999674D01*
X13453682Y-15999674D02*
X13472730Y-15990150D01*
X13472730Y-15990150D02*
X13501301Y-15990150D01*
X13501301Y-15990150D02*
X13520349Y-15999674D01*
X13596539Y-16199674D02*
X13606063Y-16190150D01*
X13606063Y-16190150D02*
X13625111Y-16161579D01*
X13625111Y-16161579D02*
X13634634Y-16142531D01*
X13634634Y-16142531D02*
X13644158Y-16113960D01*
X13644158Y-16113960D02*
X13653682Y-16066341D01*
X13653682Y-16066341D02*
X13653682Y-16028246D01*
X13653682Y-16028246D02*
X13644158Y-15980627D01*
X13644158Y-15980627D02*
X13634634Y-15952055D01*
X13634634Y-15952055D02*
X13625111Y-15933008D01*
X13625111Y-15933008D02*
X13606063Y-15904436D01*
X13606063Y-15904436D02*
X13596539Y-15894912D01*
D10*
X8616356Y-16331356D02*
X8616356Y-16260644D01*
X8545644Y-16260644D01*
X8545644Y-16331356D01*
X8616356Y-16331356D01*
D11*
X8996539Y-16387484D02*
X8882253Y-16387484D01*
X8939396Y-16387484D02*
X8939396Y-16187484D01*
X8939396Y-16187484D02*
X8920348Y-16216055D01*
X8920348Y-16216055D02*
X8901301Y-16235103D01*
X8901301Y-16235103D02*
X8882253Y-16244627D01*
X9082253Y-16368436D02*
X9091777Y-16377960D01*
X9091777Y-16377960D02*
X9082253Y-16387484D01*
X9082253Y-16387484D02*
X9072729Y-16377960D01*
X9072729Y-16377960D02*
X9082253Y-16368436D01*
X9082253Y-16368436D02*
X9082253Y-16387484D01*
X9215586Y-16187484D02*
X9234634Y-16187484D01*
X9234634Y-16187484D02*
X9253682Y-16197008D01*
X9253682Y-16197008D02*
X9263205Y-16206531D01*
X9263205Y-16206531D02*
X9272729Y-16225579D01*
X9272729Y-16225579D02*
X9282253Y-16263674D01*
X9282253Y-16263674D02*
X9282253Y-16311293D01*
X9282253Y-16311293D02*
X9272729Y-16349388D01*
X9272729Y-16349388D02*
X9263205Y-16368436D01*
X9263205Y-16368436D02*
X9253682Y-16377960D01*
X9253682Y-16377960D02*
X9234634Y-16387484D01*
X9234634Y-16387484D02*
X9215586Y-16387484D01*
X9215586Y-16387484D02*
X9196539Y-16377960D01*
X9196539Y-16377960D02*
X9187015Y-16368436D01*
X9187015Y-16368436D02*
X9177491Y-16349388D01*
X9177491Y-16349388D02*
X9167967Y-16311293D01*
X9167967Y-16311293D02*
X9167967Y-16263674D01*
X9167967Y-16263674D02*
X9177491Y-16225579D01*
X9177491Y-16225579D02*
X9187015Y-16206531D01*
X9187015Y-16206531D02*
X9196539Y-16197008D01*
X9196539Y-16197008D02*
X9215586Y-16187484D01*
X9406063Y-16187484D02*
X9425110Y-16187484D01*
X9425110Y-16187484D02*
X9444158Y-16197008D01*
X9444158Y-16197008D02*
X9453682Y-16206531D01*
X9453682Y-16206531D02*
X9463205Y-16225579D01*
X9463205Y-16225579D02*
X9472729Y-16263674D01*
X9472729Y-16263674D02*
X9472729Y-16311293D01*
X9472729Y-16311293D02*
X9463205Y-16349388D01*
X9463205Y-16349388D02*
X9453682Y-16368436D01*
X9453682Y-16368436D02*
X9444158Y-16377960D01*
X9444158Y-16377960D02*
X9425110Y-16387484D01*
X9425110Y-16387484D02*
X9406063Y-16387484D01*
X9406063Y-16387484D02*
X9387015Y-16377960D01*
X9387015Y-16377960D02*
X9377491Y-16368436D01*
X9377491Y-16368436D02*
X9367967Y-16349388D01*
X9367967Y-16349388D02*
X9358444Y-16311293D01*
X9358444Y-16311293D02*
X9358444Y-16263674D01*
X9358444Y-16263674D02*
X9367967Y-16225579D01*
X9367967Y-16225579D02*
X9377491Y-16206531D01*
X9377491Y-16206531D02*
X9387015Y-16197008D01*
X9387015Y-16197008D02*
X9406063Y-16187484D01*
X9596539Y-16187484D02*
X9615586Y-16187484D01*
X9615586Y-16187484D02*
X9634634Y-16197008D01*
X9634634Y-16197008D02*
X9644158Y-16206531D01*
X9644158Y-16206531D02*
X9653682Y-16225579D01*
X9653682Y-16225579D02*
X9663205Y-16263674D01*
X9663205Y-16263674D02*
X9663205Y-16311293D01*
X9663205Y-16311293D02*
X9653682Y-16349388D01*
X9653682Y-16349388D02*
X9644158Y-16368436D01*
X9644158Y-16368436D02*
X9634634Y-16377960D01*
X9634634Y-16377960D02*
X9615586Y-16387484D01*
X9615586Y-16387484D02*
X9596539Y-16387484D01*
X9596539Y-16387484D02*
X9577491Y-16377960D01*
X9577491Y-16377960D02*
X9567967Y-16368436D01*
X9567967Y-16368436D02*
X9558444Y-16349388D01*
X9558444Y-16349388D02*
X9548920Y-16311293D01*
X9548920Y-16311293D02*
X9548920Y-16263674D01*
X9548920Y-16263674D02*
X9558444Y-16225579D01*
X9558444Y-16225579D02*
X9567967Y-16206531D01*
X9567967Y-16206531D02*
X9577491Y-16197008D01*
X9577491Y-16197008D02*
X9596539Y-16187484D01*
X9748920Y-16387484D02*
X9748920Y-16254150D01*
X9748920Y-16273198D02*
X9758444Y-16263674D01*
X9758444Y-16263674D02*
X9777491Y-16254150D01*
X9777491Y-16254150D02*
X9806063Y-16254150D01*
X9806063Y-16254150D02*
X9825110Y-16263674D01*
X9825110Y-16263674D02*
X9834634Y-16282722D01*
X9834634Y-16282722D02*
X9834634Y-16387484D01*
X9834634Y-16282722D02*
X9844158Y-16263674D01*
X9844158Y-16263674D02*
X9863205Y-16254150D01*
X9863205Y-16254150D02*
X9891777Y-16254150D01*
X9891777Y-16254150D02*
X9910825Y-16263674D01*
X9910825Y-16263674D02*
X9920348Y-16282722D01*
X9920348Y-16282722D02*
X9920348Y-16387484D01*
X10015586Y-16387484D02*
X10015586Y-16254150D01*
X10015586Y-16273198D02*
X10025110Y-16263674D01*
X10025110Y-16263674D02*
X10044158Y-16254150D01*
X10044158Y-16254150D02*
X10072729Y-16254150D01*
X10072729Y-16254150D02*
X10091777Y-16263674D01*
X10091777Y-16263674D02*
X10101301Y-16282722D01*
X10101301Y-16282722D02*
X10101301Y-16387484D01*
X10101301Y-16282722D02*
X10110825Y-16263674D01*
X10110825Y-16263674D02*
X10129872Y-16254150D01*
X10129872Y-16254150D02*
X10158444Y-16254150D01*
X10158444Y-16254150D02*
X10177491Y-16263674D01*
X10177491Y-16263674D02*
X10187015Y-16282722D01*
X10187015Y-16282722D02*
X10187015Y-16387484D01*
X10577491Y-16177960D02*
X10406063Y-16435103D01*
X10834634Y-16187484D02*
X10853682Y-16187484D01*
X10853682Y-16187484D02*
X10872729Y-16197008D01*
X10872729Y-16197008D02*
X10882253Y-16206531D01*
X10882253Y-16206531D02*
X10891777Y-16225579D01*
X10891777Y-16225579D02*
X10901301Y-16263674D01*
X10901301Y-16263674D02*
X10901301Y-16311293D01*
X10901301Y-16311293D02*
X10891777Y-16349388D01*
X10891777Y-16349388D02*
X10882253Y-16368436D01*
X10882253Y-16368436D02*
X10872729Y-16377960D01*
X10872729Y-16377960D02*
X10853682Y-16387484D01*
X10853682Y-16387484D02*
X10834634Y-16387484D01*
X10834634Y-16387484D02*
X10815587Y-16377960D01*
X10815587Y-16377960D02*
X10806063Y-16368436D01*
X10806063Y-16368436D02*
X10796539Y-16349388D01*
X10796539Y-16349388D02*
X10787015Y-16311293D01*
X10787015Y-16311293D02*
X10787015Y-16263674D01*
X10787015Y-16263674D02*
X10796539Y-16225579D01*
X10796539Y-16225579D02*
X10806063Y-16206531D01*
X10806063Y-16206531D02*
X10815587Y-16197008D01*
X10815587Y-16197008D02*
X10834634Y-16187484D01*
X10987015Y-16368436D02*
X10996539Y-16377960D01*
X10996539Y-16377960D02*
X10987015Y-16387484D01*
X10987015Y-16387484D02*
X10977491Y-16377960D01*
X10977491Y-16377960D02*
X10987015Y-16368436D01*
X10987015Y-16368436D02*
X10987015Y-16387484D01*
X11120348Y-16187484D02*
X11139396Y-16187484D01*
X11139396Y-16187484D02*
X11158444Y-16197008D01*
X11158444Y-16197008D02*
X11167968Y-16206531D01*
X11167968Y-16206531D02*
X11177491Y-16225579D01*
X11177491Y-16225579D02*
X11187015Y-16263674D01*
X11187015Y-16263674D02*
X11187015Y-16311293D01*
X11187015Y-16311293D02*
X11177491Y-16349388D01*
X11177491Y-16349388D02*
X11167968Y-16368436D01*
X11167968Y-16368436D02*
X11158444Y-16377960D01*
X11158444Y-16377960D02*
X11139396Y-16387484D01*
X11139396Y-16387484D02*
X11120348Y-16387484D01*
X11120348Y-16387484D02*
X11101301Y-16377960D01*
X11101301Y-16377960D02*
X11091777Y-16368436D01*
X11091777Y-16368436D02*
X11082253Y-16349388D01*
X11082253Y-16349388D02*
X11072729Y-16311293D01*
X11072729Y-16311293D02*
X11072729Y-16263674D01*
X11072729Y-16263674D02*
X11082253Y-16225579D01*
X11082253Y-16225579D02*
X11091777Y-16206531D01*
X11091777Y-16206531D02*
X11101301Y-16197008D01*
X11101301Y-16197008D02*
X11120348Y-16187484D01*
X11253682Y-16187484D02*
X11377491Y-16187484D01*
X11377491Y-16187484D02*
X11310825Y-16263674D01*
X11310825Y-16263674D02*
X11339396Y-16263674D01*
X11339396Y-16263674D02*
X11358444Y-16273198D01*
X11358444Y-16273198D02*
X11367967Y-16282722D01*
X11367967Y-16282722D02*
X11377491Y-16301769D01*
X11377491Y-16301769D02*
X11377491Y-16349388D01*
X11377491Y-16349388D02*
X11367967Y-16368436D01*
X11367967Y-16368436D02*
X11358444Y-16377960D01*
X11358444Y-16377960D02*
X11339396Y-16387484D01*
X11339396Y-16387484D02*
X11282253Y-16387484D01*
X11282253Y-16387484D02*
X11263206Y-16377960D01*
X11263206Y-16377960D02*
X11253682Y-16368436D01*
X11472729Y-16387484D02*
X11510825Y-16387484D01*
X11510825Y-16387484D02*
X11529872Y-16377960D01*
X11529872Y-16377960D02*
X11539396Y-16368436D01*
X11539396Y-16368436D02*
X11558444Y-16339865D01*
X11558444Y-16339865D02*
X11567967Y-16301769D01*
X11567967Y-16301769D02*
X11567967Y-16225579D01*
X11567967Y-16225579D02*
X11558444Y-16206531D01*
X11558444Y-16206531D02*
X11548920Y-16197008D01*
X11548920Y-16197008D02*
X11529872Y-16187484D01*
X11529872Y-16187484D02*
X11491777Y-16187484D01*
X11491777Y-16187484D02*
X11472729Y-16197008D01*
X11472729Y-16197008D02*
X11463206Y-16206531D01*
X11463206Y-16206531D02*
X11453682Y-16225579D01*
X11453682Y-16225579D02*
X11453682Y-16273198D01*
X11453682Y-16273198D02*
X11463206Y-16292246D01*
X11463206Y-16292246D02*
X11472729Y-16301769D01*
X11472729Y-16301769D02*
X11491777Y-16311293D01*
X11491777Y-16311293D02*
X11529872Y-16311293D01*
X11529872Y-16311293D02*
X11548920Y-16301769D01*
X11548920Y-16301769D02*
X11558444Y-16292246D01*
X11558444Y-16292246D02*
X11567967Y-16273198D01*
X11739396Y-16254150D02*
X11739396Y-16387484D01*
X11691777Y-16177960D02*
X11644158Y-16320817D01*
X11644158Y-16320817D02*
X11767967Y-16320817D01*
X11834634Y-16187484D02*
X11834634Y-16225579D01*
X11910825Y-16187484D02*
X11910825Y-16225579D01*
X12206063Y-16463674D02*
X12196539Y-16454150D01*
X12196539Y-16454150D02*
X12177491Y-16425579D01*
X12177491Y-16425579D02*
X12167968Y-16406531D01*
X12167968Y-16406531D02*
X12158444Y-16377960D01*
X12158444Y-16377960D02*
X12148920Y-16330341D01*
X12148920Y-16330341D02*
X12148920Y-16292246D01*
X12148920Y-16292246D02*
X12158444Y-16244627D01*
X12158444Y-16244627D02*
X12167968Y-16216055D01*
X12167968Y-16216055D02*
X12177491Y-16197008D01*
X12177491Y-16197008D02*
X12196539Y-16168436D01*
X12196539Y-16168436D02*
X12206063Y-16158912D01*
X12263206Y-16187484D02*
X12387015Y-16187484D01*
X12387015Y-16187484D02*
X12320348Y-16263674D01*
X12320348Y-16263674D02*
X12348920Y-16263674D01*
X12348920Y-16263674D02*
X12367968Y-16273198D01*
X12367968Y-16273198D02*
X12377491Y-16282722D01*
X12377491Y-16282722D02*
X12387015Y-16301769D01*
X12387015Y-16301769D02*
X12387015Y-16349388D01*
X12387015Y-16349388D02*
X12377491Y-16368436D01*
X12377491Y-16368436D02*
X12367968Y-16377960D01*
X12367968Y-16377960D02*
X12348920Y-16387484D01*
X12348920Y-16387484D02*
X12291777Y-16387484D01*
X12291777Y-16387484D02*
X12272729Y-16377960D01*
X12272729Y-16377960D02*
X12263206Y-16368436D01*
X12625110Y-16387484D02*
X12625110Y-16187484D01*
X12710825Y-16387484D02*
X12710825Y-16282722D01*
X12710825Y-16282722D02*
X12701301Y-16263674D01*
X12701301Y-16263674D02*
X12682253Y-16254150D01*
X12682253Y-16254150D02*
X12653682Y-16254150D01*
X12653682Y-16254150D02*
X12634634Y-16263674D01*
X12634634Y-16263674D02*
X12625110Y-16273198D01*
X12834634Y-16387484D02*
X12815587Y-16377960D01*
X12815587Y-16377960D02*
X12806063Y-16368436D01*
X12806063Y-16368436D02*
X12796539Y-16349388D01*
X12796539Y-16349388D02*
X12796539Y-16292246D01*
X12796539Y-16292246D02*
X12806063Y-16273198D01*
X12806063Y-16273198D02*
X12815587Y-16263674D01*
X12815587Y-16263674D02*
X12834634Y-16254150D01*
X12834634Y-16254150D02*
X12863206Y-16254150D01*
X12863206Y-16254150D02*
X12882253Y-16263674D01*
X12882253Y-16263674D02*
X12891777Y-16273198D01*
X12891777Y-16273198D02*
X12901301Y-16292246D01*
X12901301Y-16292246D02*
X12901301Y-16349388D01*
X12901301Y-16349388D02*
X12891777Y-16368436D01*
X12891777Y-16368436D02*
X12882253Y-16377960D01*
X12882253Y-16377960D02*
X12863206Y-16387484D01*
X12863206Y-16387484D02*
X12834634Y-16387484D01*
X13015587Y-16387484D02*
X12996539Y-16377960D01*
X12996539Y-16377960D02*
X12987015Y-16358912D01*
X12987015Y-16358912D02*
X12987015Y-16187484D01*
X13167968Y-16377960D02*
X13148920Y-16387484D01*
X13148920Y-16387484D02*
X13110825Y-16387484D01*
X13110825Y-16387484D02*
X13091777Y-16377960D01*
X13091777Y-16377960D02*
X13082253Y-16358912D01*
X13082253Y-16358912D02*
X13082253Y-16282722D01*
X13082253Y-16282722D02*
X13091777Y-16263674D01*
X13091777Y-16263674D02*
X13110825Y-16254150D01*
X13110825Y-16254150D02*
X13148920Y-16254150D01*
X13148920Y-16254150D02*
X13167968Y-16263674D01*
X13167968Y-16263674D02*
X13177491Y-16282722D01*
X13177491Y-16282722D02*
X13177491Y-16301769D01*
X13177491Y-16301769D02*
X13082253Y-16320817D01*
X13253682Y-16377960D02*
X13272730Y-16387484D01*
X13272730Y-16387484D02*
X13310825Y-16387484D01*
X13310825Y-16387484D02*
X13329872Y-16377960D01*
X13329872Y-16377960D02*
X13339396Y-16358912D01*
X13339396Y-16358912D02*
X13339396Y-16349388D01*
X13339396Y-16349388D02*
X13329872Y-16330341D01*
X13329872Y-16330341D02*
X13310825Y-16320817D01*
X13310825Y-16320817D02*
X13282253Y-16320817D01*
X13282253Y-16320817D02*
X13263206Y-16311293D01*
X13263206Y-16311293D02*
X13253682Y-16292246D01*
X13253682Y-16292246D02*
X13253682Y-16282722D01*
X13253682Y-16282722D02*
X13263206Y-16263674D01*
X13263206Y-16263674D02*
X13282253Y-16254150D01*
X13282253Y-16254150D02*
X13310825Y-16254150D01*
X13310825Y-16254150D02*
X13329872Y-16263674D01*
X13406063Y-16463674D02*
X13415587Y-16454150D01*
X13415587Y-16454150D02*
X13434634Y-16425579D01*
X13434634Y-16425579D02*
X13444158Y-16406531D01*
X13444158Y-16406531D02*
X13453682Y-16377960D01*
X13453682Y-16377960D02*
X13463206Y-16330341D01*
X13463206Y-16330341D02*
X13463206Y-16292246D01*
X13463206Y-16292246D02*
X13453682Y-16244627D01*
X13453682Y-16244627D02*
X13444158Y-16216055D01*
X13444158Y-16216055D02*
X13434634Y-16197008D01*
X13434634Y-16197008D02*
X13415587Y-16168436D01*
X13415587Y-16168436D02*
X13406063Y-16158912D01*
D12*
X8580000Y-16611000D02*
X8631000Y-16560000D01*
X8580000Y-16509000D01*
X8529000Y-16560000D01*
X8580000Y-16611000D01*
D11*
X8996539Y-16651484D02*
X8882253Y-16651484D01*
X8939396Y-16651484D02*
X8939396Y-16451484D01*
X8939396Y-16451484D02*
X8920348Y-16480055D01*
X8920348Y-16480055D02*
X8901301Y-16499103D01*
X8901301Y-16499103D02*
X8882253Y-16508627D01*
X9082253Y-16632436D02*
X9091777Y-16641960D01*
X9091777Y-16641960D02*
X9082253Y-16651484D01*
X9082253Y-16651484D02*
X9072729Y-16641960D01*
X9072729Y-16641960D02*
X9082253Y-16632436D01*
X9082253Y-16632436D02*
X9082253Y-16651484D01*
X9215586Y-16451484D02*
X9234634Y-16451484D01*
X9234634Y-16451484D02*
X9253682Y-16461008D01*
X9253682Y-16461008D02*
X9263205Y-16470531D01*
X9263205Y-16470531D02*
X9272729Y-16489579D01*
X9272729Y-16489579D02*
X9282253Y-16527674D01*
X9282253Y-16527674D02*
X9282253Y-16575293D01*
X9282253Y-16575293D02*
X9272729Y-16613388D01*
X9272729Y-16613388D02*
X9263205Y-16632436D01*
X9263205Y-16632436D02*
X9253682Y-16641960D01*
X9253682Y-16641960D02*
X9234634Y-16651484D01*
X9234634Y-16651484D02*
X9215586Y-16651484D01*
X9215586Y-16651484D02*
X9196539Y-16641960D01*
X9196539Y-16641960D02*
X9187015Y-16632436D01*
X9187015Y-16632436D02*
X9177491Y-16613388D01*
X9177491Y-16613388D02*
X9167967Y-16575293D01*
X9167967Y-16575293D02*
X9167967Y-16527674D01*
X9167967Y-16527674D02*
X9177491Y-16489579D01*
X9177491Y-16489579D02*
X9187015Y-16470531D01*
X9187015Y-16470531D02*
X9196539Y-16461008D01*
X9196539Y-16461008D02*
X9215586Y-16451484D01*
X9358444Y-16470531D02*
X9367967Y-16461008D01*
X9367967Y-16461008D02*
X9387015Y-16451484D01*
X9387015Y-16451484D02*
X9434634Y-16451484D01*
X9434634Y-16451484D02*
X9453682Y-16461008D01*
X9453682Y-16461008D02*
X9463205Y-16470531D01*
X9463205Y-16470531D02*
X9472729Y-16489579D01*
X9472729Y-16489579D02*
X9472729Y-16508627D01*
X9472729Y-16508627D02*
X9463205Y-16537198D01*
X9463205Y-16537198D02*
X9348920Y-16651484D01*
X9348920Y-16651484D02*
X9472729Y-16651484D01*
X9596539Y-16451484D02*
X9615586Y-16451484D01*
X9615586Y-16451484D02*
X9634634Y-16461008D01*
X9634634Y-16461008D02*
X9644158Y-16470531D01*
X9644158Y-16470531D02*
X9653682Y-16489579D01*
X9653682Y-16489579D02*
X9663205Y-16527674D01*
X9663205Y-16527674D02*
X9663205Y-16575293D01*
X9663205Y-16575293D02*
X9653682Y-16613388D01*
X9653682Y-16613388D02*
X9644158Y-16632436D01*
X9644158Y-16632436D02*
X9634634Y-16641960D01*
X9634634Y-16641960D02*
X9615586Y-16651484D01*
X9615586Y-16651484D02*
X9596539Y-16651484D01*
X9596539Y-16651484D02*
X9577491Y-16641960D01*
X9577491Y-16641960D02*
X9567967Y-16632436D01*
X9567967Y-16632436D02*
X9558444Y-16613388D01*
X9558444Y-16613388D02*
X9548920Y-16575293D01*
X9548920Y-16575293D02*
X9548920Y-16527674D01*
X9548920Y-16527674D02*
X9558444Y-16489579D01*
X9558444Y-16489579D02*
X9567967Y-16470531D01*
X9567967Y-16470531D02*
X9577491Y-16461008D01*
X9577491Y-16461008D02*
X9596539Y-16451484D01*
X9748920Y-16651484D02*
X9748920Y-16518150D01*
X9748920Y-16537198D02*
X9758444Y-16527674D01*
X9758444Y-16527674D02*
X9777491Y-16518150D01*
X9777491Y-16518150D02*
X9806063Y-16518150D01*
X9806063Y-16518150D02*
X9825110Y-16527674D01*
X9825110Y-16527674D02*
X9834634Y-16546722D01*
X9834634Y-16546722D02*
X9834634Y-16651484D01*
X9834634Y-16546722D02*
X9844158Y-16527674D01*
X9844158Y-16527674D02*
X9863205Y-16518150D01*
X9863205Y-16518150D02*
X9891777Y-16518150D01*
X9891777Y-16518150D02*
X9910825Y-16527674D01*
X9910825Y-16527674D02*
X9920348Y-16546722D01*
X9920348Y-16546722D02*
X9920348Y-16651484D01*
X10015586Y-16651484D02*
X10015586Y-16518150D01*
X10015586Y-16537198D02*
X10025110Y-16527674D01*
X10025110Y-16527674D02*
X10044158Y-16518150D01*
X10044158Y-16518150D02*
X10072729Y-16518150D01*
X10072729Y-16518150D02*
X10091777Y-16527674D01*
X10091777Y-16527674D02*
X10101301Y-16546722D01*
X10101301Y-16546722D02*
X10101301Y-16651484D01*
X10101301Y-16546722D02*
X10110825Y-16527674D01*
X10110825Y-16527674D02*
X10129872Y-16518150D01*
X10129872Y-16518150D02*
X10158444Y-16518150D01*
X10158444Y-16518150D02*
X10177491Y-16527674D01*
X10177491Y-16527674D02*
X10187015Y-16546722D01*
X10187015Y-16546722D02*
X10187015Y-16651484D01*
X10577491Y-16441960D02*
X10406063Y-16699103D01*
X10834634Y-16451484D02*
X10853682Y-16451484D01*
X10853682Y-16451484D02*
X10872729Y-16461008D01*
X10872729Y-16461008D02*
X10882253Y-16470531D01*
X10882253Y-16470531D02*
X10891777Y-16489579D01*
X10891777Y-16489579D02*
X10901301Y-16527674D01*
X10901301Y-16527674D02*
X10901301Y-16575293D01*
X10901301Y-16575293D02*
X10891777Y-16613388D01*
X10891777Y-16613388D02*
X10882253Y-16632436D01*
X10882253Y-16632436D02*
X10872729Y-16641960D01*
X10872729Y-16641960D02*
X10853682Y-16651484D01*
X10853682Y-16651484D02*
X10834634Y-16651484D01*
X10834634Y-16651484D02*
X10815587Y-16641960D01*
X10815587Y-16641960D02*
X10806063Y-16632436D01*
X10806063Y-16632436D02*
X10796539Y-16613388D01*
X10796539Y-16613388D02*
X10787015Y-16575293D01*
X10787015Y-16575293D02*
X10787015Y-16527674D01*
X10787015Y-16527674D02*
X10796539Y-16489579D01*
X10796539Y-16489579D02*
X10806063Y-16470531D01*
X10806063Y-16470531D02*
X10815587Y-16461008D01*
X10815587Y-16461008D02*
X10834634Y-16451484D01*
X10987015Y-16632436D02*
X10996539Y-16641960D01*
X10996539Y-16641960D02*
X10987015Y-16651484D01*
X10987015Y-16651484D02*
X10977491Y-16641960D01*
X10977491Y-16641960D02*
X10987015Y-16632436D01*
X10987015Y-16632436D02*
X10987015Y-16651484D01*
X11120348Y-16451484D02*
X11139396Y-16451484D01*
X11139396Y-16451484D02*
X11158444Y-16461008D01*
X11158444Y-16461008D02*
X11167968Y-16470531D01*
X11167968Y-16470531D02*
X11177491Y-16489579D01*
X11177491Y-16489579D02*
X11187015Y-16527674D01*
X11187015Y-16527674D02*
X11187015Y-16575293D01*
X11187015Y-16575293D02*
X11177491Y-16613388D01*
X11177491Y-16613388D02*
X11167968Y-16632436D01*
X11167968Y-16632436D02*
X11158444Y-16641960D01*
X11158444Y-16641960D02*
X11139396Y-16651484D01*
X11139396Y-16651484D02*
X11120348Y-16651484D01*
X11120348Y-16651484D02*
X11101301Y-16641960D01*
X11101301Y-16641960D02*
X11091777Y-16632436D01*
X11091777Y-16632436D02*
X11082253Y-16613388D01*
X11082253Y-16613388D02*
X11072729Y-16575293D01*
X11072729Y-16575293D02*
X11072729Y-16527674D01*
X11072729Y-16527674D02*
X11082253Y-16489579D01*
X11082253Y-16489579D02*
X11091777Y-16470531D01*
X11091777Y-16470531D02*
X11101301Y-16461008D01*
X11101301Y-16461008D02*
X11120348Y-16451484D01*
X11358444Y-16518150D02*
X11358444Y-16651484D01*
X11310825Y-16441960D02*
X11263206Y-16584817D01*
X11263206Y-16584817D02*
X11387015Y-16584817D01*
X11501301Y-16451484D02*
X11520348Y-16451484D01*
X11520348Y-16451484D02*
X11539396Y-16461008D01*
X11539396Y-16461008D02*
X11548920Y-16470531D01*
X11548920Y-16470531D02*
X11558444Y-16489579D01*
X11558444Y-16489579D02*
X11567967Y-16527674D01*
X11567967Y-16527674D02*
X11567967Y-16575293D01*
X11567967Y-16575293D02*
X11558444Y-16613388D01*
X11558444Y-16613388D02*
X11548920Y-16632436D01*
X11548920Y-16632436D02*
X11539396Y-16641960D01*
X11539396Y-16641960D02*
X11520348Y-16651484D01*
X11520348Y-16651484D02*
X11501301Y-16651484D01*
X11501301Y-16651484D02*
X11482253Y-16641960D01*
X11482253Y-16641960D02*
X11472729Y-16632436D01*
X11472729Y-16632436D02*
X11463206Y-16613388D01*
X11463206Y-16613388D02*
X11453682Y-16575293D01*
X11453682Y-16575293D02*
X11453682Y-16527674D01*
X11453682Y-16527674D02*
X11463206Y-16489579D01*
X11463206Y-16489579D02*
X11472729Y-16470531D01*
X11472729Y-16470531D02*
X11482253Y-16461008D01*
X11482253Y-16461008D02*
X11501301Y-16451484D01*
X11644158Y-16470531D02*
X11653682Y-16461008D01*
X11653682Y-16461008D02*
X11672729Y-16451484D01*
X11672729Y-16451484D02*
X11720348Y-16451484D01*
X11720348Y-16451484D02*
X11739396Y-16461008D01*
X11739396Y-16461008D02*
X11748920Y-16470531D01*
X11748920Y-16470531D02*
X11758444Y-16489579D01*
X11758444Y-16489579D02*
X11758444Y-16508627D01*
X11758444Y-16508627D02*
X11748920Y-16537198D01*
X11748920Y-16537198D02*
X11634634Y-16651484D01*
X11634634Y-16651484D02*
X11758444Y-16651484D01*
X11834634Y-16451484D02*
X11834634Y-16489579D01*
X11910825Y-16451484D02*
X11910825Y-16489579D01*
X12206063Y-16727674D02*
X12196539Y-16718150D01*
X12196539Y-16718150D02*
X12177491Y-16689579D01*
X12177491Y-16689579D02*
X12167968Y-16670531D01*
X12167968Y-16670531D02*
X12158444Y-16641960D01*
X12158444Y-16641960D02*
X12148920Y-16594341D01*
X12148920Y-16594341D02*
X12148920Y-16556246D01*
X12148920Y-16556246D02*
X12158444Y-16508627D01*
X12158444Y-16508627D02*
X12167968Y-16480055D01*
X12167968Y-16480055D02*
X12177491Y-16461008D01*
X12177491Y-16461008D02*
X12196539Y-16432436D01*
X12196539Y-16432436D02*
X12206063Y-16422912D01*
X12367968Y-16518150D02*
X12367968Y-16651484D01*
X12320348Y-16441960D02*
X12272729Y-16584817D01*
X12272729Y-16584817D02*
X12396539Y-16584817D01*
X12453682Y-16451484D02*
X12577491Y-16451484D01*
X12577491Y-16451484D02*
X12510825Y-16527674D01*
X12510825Y-16527674D02*
X12539396Y-16527674D01*
X12539396Y-16527674D02*
X12558444Y-16537198D01*
X12558444Y-16537198D02*
X12567968Y-16546722D01*
X12567968Y-16546722D02*
X12577491Y-16565769D01*
X12577491Y-16565769D02*
X12577491Y-16613388D01*
X12577491Y-16613388D02*
X12567968Y-16632436D01*
X12567968Y-16632436D02*
X12558444Y-16641960D01*
X12558444Y-16641960D02*
X12539396Y-16651484D01*
X12539396Y-16651484D02*
X12482253Y-16651484D01*
X12482253Y-16651484D02*
X12463206Y-16641960D01*
X12463206Y-16641960D02*
X12453682Y-16632436D01*
X12815587Y-16651484D02*
X12815587Y-16451484D01*
X12901301Y-16651484D02*
X12901301Y-16546722D01*
X12901301Y-16546722D02*
X12891777Y-16527674D01*
X12891777Y-16527674D02*
X12872730Y-16518150D01*
X12872730Y-16518150D02*
X12844158Y-16518150D01*
X12844158Y-16518150D02*
X12825110Y-16527674D01*
X12825110Y-16527674D02*
X12815587Y-16537198D01*
X13025110Y-16651484D02*
X13006063Y-16641960D01*
X13006063Y-16641960D02*
X12996539Y-16632436D01*
X12996539Y-16632436D02*
X12987015Y-16613388D01*
X12987015Y-16613388D02*
X12987015Y-16556246D01*
X12987015Y-16556246D02*
X12996539Y-16537198D01*
X12996539Y-16537198D02*
X13006063Y-16527674D01*
X13006063Y-16527674D02*
X13025110Y-16518150D01*
X13025110Y-16518150D02*
X13053682Y-16518150D01*
X13053682Y-16518150D02*
X13072730Y-16527674D01*
X13072730Y-16527674D02*
X13082253Y-16537198D01*
X13082253Y-16537198D02*
X13091777Y-16556246D01*
X13091777Y-16556246D02*
X13091777Y-16613388D01*
X13091777Y-16613388D02*
X13082253Y-16632436D01*
X13082253Y-16632436D02*
X13072730Y-16641960D01*
X13072730Y-16641960D02*
X13053682Y-16651484D01*
X13053682Y-16651484D02*
X13025110Y-16651484D01*
X13206063Y-16651484D02*
X13187015Y-16641960D01*
X13187015Y-16641960D02*
X13177491Y-16622912D01*
X13177491Y-16622912D02*
X13177491Y-16451484D01*
X13358444Y-16641960D02*
X13339396Y-16651484D01*
X13339396Y-16651484D02*
X13301301Y-16651484D01*
X13301301Y-16651484D02*
X13282253Y-16641960D01*
X13282253Y-16641960D02*
X13272730Y-16622912D01*
X13272730Y-16622912D02*
X13272730Y-16546722D01*
X13272730Y-16546722D02*
X13282253Y-16527674D01*
X13282253Y-16527674D02*
X13301301Y-16518150D01*
X13301301Y-16518150D02*
X13339396Y-16518150D01*
X13339396Y-16518150D02*
X13358444Y-16527674D01*
X13358444Y-16527674D02*
X13367968Y-16546722D01*
X13367968Y-16546722D02*
X13367968Y-16565769D01*
X13367968Y-16565769D02*
X13272730Y-16584817D01*
X13444158Y-16641960D02*
X13463206Y-16651484D01*
X13463206Y-16651484D02*
X13501301Y-16651484D01*
X13501301Y-16651484D02*
X13520349Y-16641960D01*
X13520349Y-16641960D02*
X13529872Y-16622912D01*
X13529872Y-16622912D02*
X13529872Y-16613388D01*
X13529872Y-16613388D02*
X13520349Y-16594341D01*
X13520349Y-16594341D02*
X13501301Y-16584817D01*
X13501301Y-16584817D02*
X13472730Y-16584817D01*
X13472730Y-16584817D02*
X13453682Y-16575293D01*
X13453682Y-16575293D02*
X13444158Y-16556246D01*
X13444158Y-16556246D02*
X13444158Y-16546722D01*
X13444158Y-16546722D02*
X13453682Y-16527674D01*
X13453682Y-16527674D02*
X13472730Y-16518150D01*
X13472730Y-16518150D02*
X13501301Y-16518150D01*
X13501301Y-16518150D02*
X13520349Y-16527674D01*
X13596539Y-16727674D02*
X13606063Y-16718150D01*
X13606063Y-16718150D02*
X13625111Y-16689579D01*
X13625111Y-16689579D02*
X13634634Y-16670531D01*
X13634634Y-16670531D02*
X13644158Y-16641960D01*
X13644158Y-16641960D02*
X13653682Y-16594341D01*
X13653682Y-16594341D02*
X13653682Y-16556246D01*
X13653682Y-16556246D02*
X13644158Y-16508627D01*
X13644158Y-16508627D02*
X13634634Y-16480055D01*
X13634634Y-16480055D02*
X13625111Y-16461008D01*
X13625111Y-16461008D02*
X13606063Y-16432436D01*
X13606063Y-16432436D02*
X13596539Y-16422912D01*
D13*
X8521000Y-16769000D02*
X8631000Y-16879000D01*
X8631000Y-16769000D02*
X8521000Y-16879000D01*
X8631000Y-16824000D02*
G75*
G03*
X8521000Y-16824000I-55000J0D01*
G01*
X8521000Y-16824000D02*
G75*
G03*
X8631000Y-16824000I55000J0D01*
G01*
D11*
X8996539Y-16915484D02*
X8882253Y-16915484D01*
X8939396Y-16915484D02*
X8939396Y-16715484D01*
X8939396Y-16715484D02*
X8920348Y-16744055D01*
X8920348Y-16744055D02*
X8901301Y-16763103D01*
X8901301Y-16763103D02*
X8882253Y-16772627D01*
X9082253Y-16896436D02*
X9091777Y-16905960D01*
X9091777Y-16905960D02*
X9082253Y-16915484D01*
X9082253Y-16915484D02*
X9072729Y-16905960D01*
X9072729Y-16905960D02*
X9082253Y-16896436D01*
X9082253Y-16896436D02*
X9082253Y-16915484D01*
X9282253Y-16915484D02*
X9167967Y-16915484D01*
X9225110Y-16915484D02*
X9225110Y-16715484D01*
X9225110Y-16715484D02*
X9206063Y-16744055D01*
X9206063Y-16744055D02*
X9187015Y-16763103D01*
X9187015Y-16763103D02*
X9167967Y-16772627D01*
X9406063Y-16715484D02*
X9425110Y-16715484D01*
X9425110Y-16715484D02*
X9444158Y-16725008D01*
X9444158Y-16725008D02*
X9453682Y-16734531D01*
X9453682Y-16734531D02*
X9463205Y-16753579D01*
X9463205Y-16753579D02*
X9472729Y-16791674D01*
X9472729Y-16791674D02*
X9472729Y-16839293D01*
X9472729Y-16839293D02*
X9463205Y-16877389D01*
X9463205Y-16877389D02*
X9453682Y-16896436D01*
X9453682Y-16896436D02*
X9444158Y-16905960D01*
X9444158Y-16905960D02*
X9425110Y-16915484D01*
X9425110Y-16915484D02*
X9406063Y-16915484D01*
X9406063Y-16915484D02*
X9387015Y-16905960D01*
X9387015Y-16905960D02*
X9377491Y-16896436D01*
X9377491Y-16896436D02*
X9367967Y-16877389D01*
X9367967Y-16877389D02*
X9358444Y-16839293D01*
X9358444Y-16839293D02*
X9358444Y-16791674D01*
X9358444Y-16791674D02*
X9367967Y-16753579D01*
X9367967Y-16753579D02*
X9377491Y-16734531D01*
X9377491Y-16734531D02*
X9387015Y-16725008D01*
X9387015Y-16725008D02*
X9406063Y-16715484D01*
X9596539Y-16715484D02*
X9615586Y-16715484D01*
X9615586Y-16715484D02*
X9634634Y-16725008D01*
X9634634Y-16725008D02*
X9644158Y-16734531D01*
X9644158Y-16734531D02*
X9653682Y-16753579D01*
X9653682Y-16753579D02*
X9663205Y-16791674D01*
X9663205Y-16791674D02*
X9663205Y-16839293D01*
X9663205Y-16839293D02*
X9653682Y-16877389D01*
X9653682Y-16877389D02*
X9644158Y-16896436D01*
X9644158Y-16896436D02*
X9634634Y-16905960D01*
X9634634Y-16905960D02*
X9615586Y-16915484D01*
X9615586Y-16915484D02*
X9596539Y-16915484D01*
X9596539Y-16915484D02*
X9577491Y-16905960D01*
X9577491Y-16905960D02*
X9567967Y-16896436D01*
X9567967Y-16896436D02*
X9558444Y-16877389D01*
X9558444Y-16877389D02*
X9548920Y-16839293D01*
X9548920Y-16839293D02*
X9548920Y-16791674D01*
X9548920Y-16791674D02*
X9558444Y-16753579D01*
X9558444Y-16753579D02*
X9567967Y-16734531D01*
X9567967Y-16734531D02*
X9577491Y-16725008D01*
X9577491Y-16725008D02*
X9596539Y-16715484D01*
X9748920Y-16915484D02*
X9748920Y-16782150D01*
X9748920Y-16801198D02*
X9758444Y-16791674D01*
X9758444Y-16791674D02*
X9777491Y-16782150D01*
X9777491Y-16782150D02*
X9806063Y-16782150D01*
X9806063Y-16782150D02*
X9825110Y-16791674D01*
X9825110Y-16791674D02*
X9834634Y-16810722D01*
X9834634Y-16810722D02*
X9834634Y-16915484D01*
X9834634Y-16810722D02*
X9844158Y-16791674D01*
X9844158Y-16791674D02*
X9863205Y-16782150D01*
X9863205Y-16782150D02*
X9891777Y-16782150D01*
X9891777Y-16782150D02*
X9910825Y-16791674D01*
X9910825Y-16791674D02*
X9920348Y-16810722D01*
X9920348Y-16810722D02*
X9920348Y-16915484D01*
X10015586Y-16915484D02*
X10015586Y-16782150D01*
X10015586Y-16801198D02*
X10025110Y-16791674D01*
X10025110Y-16791674D02*
X10044158Y-16782150D01*
X10044158Y-16782150D02*
X10072729Y-16782150D01*
X10072729Y-16782150D02*
X10091777Y-16791674D01*
X10091777Y-16791674D02*
X10101301Y-16810722D01*
X10101301Y-16810722D02*
X10101301Y-16915484D01*
X10101301Y-16810722D02*
X10110825Y-16791674D01*
X10110825Y-16791674D02*
X10129872Y-16782150D01*
X10129872Y-16782150D02*
X10158444Y-16782150D01*
X10158444Y-16782150D02*
X10177491Y-16791674D01*
X10177491Y-16791674D02*
X10187015Y-16810722D01*
X10187015Y-16810722D02*
X10187015Y-16915484D01*
X10577491Y-16705960D02*
X10406063Y-16963103D01*
X10834634Y-16715484D02*
X10853682Y-16715484D01*
X10853682Y-16715484D02*
X10872729Y-16725008D01*
X10872729Y-16725008D02*
X10882253Y-16734531D01*
X10882253Y-16734531D02*
X10891777Y-16753579D01*
X10891777Y-16753579D02*
X10901301Y-16791674D01*
X10901301Y-16791674D02*
X10901301Y-16839293D01*
X10901301Y-16839293D02*
X10891777Y-16877389D01*
X10891777Y-16877389D02*
X10882253Y-16896436D01*
X10882253Y-16896436D02*
X10872729Y-16905960D01*
X10872729Y-16905960D02*
X10853682Y-16915484D01*
X10853682Y-16915484D02*
X10834634Y-16915484D01*
X10834634Y-16915484D02*
X10815587Y-16905960D01*
X10815587Y-16905960D02*
X10806063Y-16896436D01*
X10806063Y-16896436D02*
X10796539Y-16877389D01*
X10796539Y-16877389D02*
X10787015Y-16839293D01*
X10787015Y-16839293D02*
X10787015Y-16791674D01*
X10787015Y-16791674D02*
X10796539Y-16753579D01*
X10796539Y-16753579D02*
X10806063Y-16734531D01*
X10806063Y-16734531D02*
X10815587Y-16725008D01*
X10815587Y-16725008D02*
X10834634Y-16715484D01*
X10987015Y-16896436D02*
X10996539Y-16905960D01*
X10996539Y-16905960D02*
X10987015Y-16915484D01*
X10987015Y-16915484D02*
X10977491Y-16905960D01*
X10977491Y-16905960D02*
X10987015Y-16896436D01*
X10987015Y-16896436D02*
X10987015Y-16915484D01*
X11120348Y-16715484D02*
X11139396Y-16715484D01*
X11139396Y-16715484D02*
X11158444Y-16725008D01*
X11158444Y-16725008D02*
X11167968Y-16734531D01*
X11167968Y-16734531D02*
X11177491Y-16753579D01*
X11177491Y-16753579D02*
X11187015Y-16791674D01*
X11187015Y-16791674D02*
X11187015Y-16839293D01*
X11187015Y-16839293D02*
X11177491Y-16877389D01*
X11177491Y-16877389D02*
X11167968Y-16896436D01*
X11167968Y-16896436D02*
X11158444Y-16905960D01*
X11158444Y-16905960D02*
X11139396Y-16915484D01*
X11139396Y-16915484D02*
X11120348Y-16915484D01*
X11120348Y-16915484D02*
X11101301Y-16905960D01*
X11101301Y-16905960D02*
X11091777Y-16896436D01*
X11091777Y-16896436D02*
X11082253Y-16877389D01*
X11082253Y-16877389D02*
X11072729Y-16839293D01*
X11072729Y-16839293D02*
X11072729Y-16791674D01*
X11072729Y-16791674D02*
X11082253Y-16753579D01*
X11082253Y-16753579D02*
X11091777Y-16734531D01*
X11091777Y-16734531D02*
X11101301Y-16725008D01*
X11101301Y-16725008D02*
X11120348Y-16715484D01*
X11358444Y-16782150D02*
X11358444Y-16915484D01*
X11310825Y-16705960D02*
X11263206Y-16848817D01*
X11263206Y-16848817D02*
X11387015Y-16848817D01*
X11444158Y-16715484D02*
X11567967Y-16715484D01*
X11567967Y-16715484D02*
X11501301Y-16791674D01*
X11501301Y-16791674D02*
X11529872Y-16791674D01*
X11529872Y-16791674D02*
X11548920Y-16801198D01*
X11548920Y-16801198D02*
X11558444Y-16810722D01*
X11558444Y-16810722D02*
X11567967Y-16829770D01*
X11567967Y-16829770D02*
X11567967Y-16877389D01*
X11567967Y-16877389D02*
X11558444Y-16896436D01*
X11558444Y-16896436D02*
X11548920Y-16905960D01*
X11548920Y-16905960D02*
X11529872Y-16915484D01*
X11529872Y-16915484D02*
X11472729Y-16915484D01*
X11472729Y-16915484D02*
X11453682Y-16905960D01*
X11453682Y-16905960D02*
X11444158Y-16896436D01*
X11634634Y-16715484D02*
X11758444Y-16715484D01*
X11758444Y-16715484D02*
X11691777Y-16791674D01*
X11691777Y-16791674D02*
X11720348Y-16791674D01*
X11720348Y-16791674D02*
X11739396Y-16801198D01*
X11739396Y-16801198D02*
X11748920Y-16810722D01*
X11748920Y-16810722D02*
X11758444Y-16829770D01*
X11758444Y-16829770D02*
X11758444Y-16877389D01*
X11758444Y-16877389D02*
X11748920Y-16896436D01*
X11748920Y-16896436D02*
X11739396Y-16905960D01*
X11739396Y-16905960D02*
X11720348Y-16915484D01*
X11720348Y-16915484D02*
X11663206Y-16915484D01*
X11663206Y-16915484D02*
X11644158Y-16905960D01*
X11644158Y-16905960D02*
X11634634Y-16896436D01*
X11834634Y-16715484D02*
X11834634Y-16753579D01*
X11910825Y-16715484D02*
X11910825Y-16753579D01*
X12206063Y-16991674D02*
X12196539Y-16982150D01*
X12196539Y-16982150D02*
X12177491Y-16953579D01*
X12177491Y-16953579D02*
X12167968Y-16934531D01*
X12167968Y-16934531D02*
X12158444Y-16905960D01*
X12158444Y-16905960D02*
X12148920Y-16858341D01*
X12148920Y-16858341D02*
X12148920Y-16820246D01*
X12148920Y-16820246D02*
X12158444Y-16772627D01*
X12158444Y-16772627D02*
X12167968Y-16744055D01*
X12167968Y-16744055D02*
X12177491Y-16725008D01*
X12177491Y-16725008D02*
X12196539Y-16696436D01*
X12196539Y-16696436D02*
X12206063Y-16686912D01*
X12387015Y-16915484D02*
X12272729Y-16915484D01*
X12329872Y-16915484D02*
X12329872Y-16715484D01*
X12329872Y-16715484D02*
X12310825Y-16744055D01*
X12310825Y-16744055D02*
X12291777Y-16763103D01*
X12291777Y-16763103D02*
X12272729Y-16772627D01*
X12453682Y-16715484D02*
X12577491Y-16715484D01*
X12577491Y-16715484D02*
X12510825Y-16791674D01*
X12510825Y-16791674D02*
X12539396Y-16791674D01*
X12539396Y-16791674D02*
X12558444Y-16801198D01*
X12558444Y-16801198D02*
X12567968Y-16810722D01*
X12567968Y-16810722D02*
X12577491Y-16829770D01*
X12577491Y-16829770D02*
X12577491Y-16877389D01*
X12577491Y-16877389D02*
X12567968Y-16896436D01*
X12567968Y-16896436D02*
X12558444Y-16905960D01*
X12558444Y-16905960D02*
X12539396Y-16915484D01*
X12539396Y-16915484D02*
X12482253Y-16915484D01*
X12482253Y-16915484D02*
X12463206Y-16905960D01*
X12463206Y-16905960D02*
X12453682Y-16896436D01*
X12815587Y-16915484D02*
X12815587Y-16715484D01*
X12901301Y-16915484D02*
X12901301Y-16810722D01*
X12901301Y-16810722D02*
X12891777Y-16791674D01*
X12891777Y-16791674D02*
X12872730Y-16782150D01*
X12872730Y-16782150D02*
X12844158Y-16782150D01*
X12844158Y-16782150D02*
X12825110Y-16791674D01*
X12825110Y-16791674D02*
X12815587Y-16801198D01*
X13025110Y-16915484D02*
X13006063Y-16905960D01*
X13006063Y-16905960D02*
X12996539Y-16896436D01*
X12996539Y-16896436D02*
X12987015Y-16877389D01*
X12987015Y-16877389D02*
X12987015Y-16820246D01*
X12987015Y-16820246D02*
X12996539Y-16801198D01*
X12996539Y-16801198D02*
X13006063Y-16791674D01*
X13006063Y-16791674D02*
X13025110Y-16782150D01*
X13025110Y-16782150D02*
X13053682Y-16782150D01*
X13053682Y-16782150D02*
X13072730Y-16791674D01*
X13072730Y-16791674D02*
X13082253Y-16801198D01*
X13082253Y-16801198D02*
X13091777Y-16820246D01*
X13091777Y-16820246D02*
X13091777Y-16877389D01*
X13091777Y-16877389D02*
X13082253Y-16896436D01*
X13082253Y-16896436D02*
X13072730Y-16905960D01*
X13072730Y-16905960D02*
X13053682Y-16915484D01*
X13053682Y-16915484D02*
X13025110Y-16915484D01*
X13206063Y-16915484D02*
X13187015Y-16905960D01*
X13187015Y-16905960D02*
X13177491Y-16886912D01*
X13177491Y-16886912D02*
X13177491Y-16715484D01*
X13358444Y-16905960D02*
X13339396Y-16915484D01*
X13339396Y-16915484D02*
X13301301Y-16915484D01*
X13301301Y-16915484D02*
X13282253Y-16905960D01*
X13282253Y-16905960D02*
X13272730Y-16886912D01*
X13272730Y-16886912D02*
X13272730Y-16810722D01*
X13272730Y-16810722D02*
X13282253Y-16791674D01*
X13282253Y-16791674D02*
X13301301Y-16782150D01*
X13301301Y-16782150D02*
X13339396Y-16782150D01*
X13339396Y-16782150D02*
X13358444Y-16791674D01*
X13358444Y-16791674D02*
X13367968Y-16810722D01*
X13367968Y-16810722D02*
X13367968Y-16829770D01*
X13367968Y-16829770D02*
X13272730Y-16848817D01*
X13444158Y-16905960D02*
X13463206Y-16915484D01*
X13463206Y-16915484D02*
X13501301Y-16915484D01*
X13501301Y-16915484D02*
X13520349Y-16905960D01*
X13520349Y-16905960D02*
X13529872Y-16886912D01*
X13529872Y-16886912D02*
X13529872Y-16877389D01*
X13529872Y-16877389D02*
X13520349Y-16858341D01*
X13520349Y-16858341D02*
X13501301Y-16848817D01*
X13501301Y-16848817D02*
X13472730Y-16848817D01*
X13472730Y-16848817D02*
X13453682Y-16839293D01*
X13453682Y-16839293D02*
X13444158Y-16820246D01*
X13444158Y-16820246D02*
X13444158Y-16810722D01*
X13444158Y-16810722D02*
X13453682Y-16791674D01*
X13453682Y-16791674D02*
X13472730Y-16782150D01*
X13472730Y-16782150D02*
X13501301Y-16782150D01*
X13501301Y-16782150D02*
X13520349Y-16791674D01*
X13596539Y-16991674D02*
X13606063Y-16982150D01*
X13606063Y-16982150D02*
X13625111Y-16953579D01*
X13625111Y-16953579D02*
X13634634Y-16934531D01*
X13634634Y-16934531D02*
X13644158Y-16905960D01*
X13644158Y-16905960D02*
X13653682Y-16858341D01*
X13653682Y-16858341D02*
X13653682Y-16820246D01*
X13653682Y-16820246D02*
X13644158Y-16772627D01*
X13644158Y-16772627D02*
X13634634Y-16744055D01*
X13634634Y-16744055D02*
X13625111Y-16725008D01*
X13625111Y-16725008D02*
X13606063Y-16696436D01*
X13606063Y-16696436D02*
X13596539Y-16686912D01*
D14*
X8511000Y-17028000D02*
X8631000Y-17148000D01*
X8631000Y-17028000D02*
X8511000Y-17148000D01*
X8571000Y-17028000D02*
X8571000Y-17148000D01*
X8511000Y-17088000D02*
X8631000Y-17088000D01*
D11*
X8996539Y-17179484D02*
X8882253Y-17179484D01*
X8939396Y-17179484D02*
X8939396Y-16979484D01*
X8939396Y-16979484D02*
X8920348Y-17008055D01*
X8920348Y-17008055D02*
X8901301Y-17027103D01*
X8901301Y-17027103D02*
X8882253Y-17036627D01*
X9082253Y-17160436D02*
X9091777Y-17169960D01*
X9091777Y-17169960D02*
X9082253Y-17179484D01*
X9082253Y-17179484D02*
X9072729Y-17169960D01*
X9072729Y-17169960D02*
X9082253Y-17160436D01*
X9082253Y-17160436D02*
X9082253Y-17179484D01*
X9167967Y-16998531D02*
X9177491Y-16989008D01*
X9177491Y-16989008D02*
X9196539Y-16979484D01*
X9196539Y-16979484D02*
X9244158Y-16979484D01*
X9244158Y-16979484D02*
X9263205Y-16989008D01*
X9263205Y-16989008D02*
X9272729Y-16998531D01*
X9272729Y-16998531D02*
X9282253Y-17017579D01*
X9282253Y-17017579D02*
X9282253Y-17036627D01*
X9282253Y-17036627D02*
X9272729Y-17065198D01*
X9272729Y-17065198D02*
X9158444Y-17179484D01*
X9158444Y-17179484D02*
X9282253Y-17179484D01*
X9406063Y-16979484D02*
X9425110Y-16979484D01*
X9425110Y-16979484D02*
X9444158Y-16989008D01*
X9444158Y-16989008D02*
X9453682Y-16998531D01*
X9453682Y-16998531D02*
X9463205Y-17017579D01*
X9463205Y-17017579D02*
X9472729Y-17055674D01*
X9472729Y-17055674D02*
X9472729Y-17103293D01*
X9472729Y-17103293D02*
X9463205Y-17141389D01*
X9463205Y-17141389D02*
X9453682Y-17160436D01*
X9453682Y-17160436D02*
X9444158Y-17169960D01*
X9444158Y-17169960D02*
X9425110Y-17179484D01*
X9425110Y-17179484D02*
X9406063Y-17179484D01*
X9406063Y-17179484D02*
X9387015Y-17169960D01*
X9387015Y-17169960D02*
X9377491Y-17160436D01*
X9377491Y-17160436D02*
X9367967Y-17141389D01*
X9367967Y-17141389D02*
X9358444Y-17103293D01*
X9358444Y-17103293D02*
X9358444Y-17055674D01*
X9358444Y-17055674D02*
X9367967Y-17017579D01*
X9367967Y-17017579D02*
X9377491Y-16998531D01*
X9377491Y-16998531D02*
X9387015Y-16989008D01*
X9387015Y-16989008D02*
X9406063Y-16979484D01*
X9596539Y-16979484D02*
X9615586Y-16979484D01*
X9615586Y-16979484D02*
X9634634Y-16989008D01*
X9634634Y-16989008D02*
X9644158Y-16998531D01*
X9644158Y-16998531D02*
X9653682Y-17017579D01*
X9653682Y-17017579D02*
X9663205Y-17055674D01*
X9663205Y-17055674D02*
X9663205Y-17103293D01*
X9663205Y-17103293D02*
X9653682Y-17141389D01*
X9653682Y-17141389D02*
X9644158Y-17160436D01*
X9644158Y-17160436D02*
X9634634Y-17169960D01*
X9634634Y-17169960D02*
X9615586Y-17179484D01*
X9615586Y-17179484D02*
X9596539Y-17179484D01*
X9596539Y-17179484D02*
X9577491Y-17169960D01*
X9577491Y-17169960D02*
X9567967Y-17160436D01*
X9567967Y-17160436D02*
X9558444Y-17141389D01*
X9558444Y-17141389D02*
X9548920Y-17103293D01*
X9548920Y-17103293D02*
X9548920Y-17055674D01*
X9548920Y-17055674D02*
X9558444Y-17017579D01*
X9558444Y-17017579D02*
X9567967Y-16998531D01*
X9567967Y-16998531D02*
X9577491Y-16989008D01*
X9577491Y-16989008D02*
X9596539Y-16979484D01*
X9748920Y-17179484D02*
X9748920Y-17046150D01*
X9748920Y-17065198D02*
X9758444Y-17055674D01*
X9758444Y-17055674D02*
X9777491Y-17046150D01*
X9777491Y-17046150D02*
X9806063Y-17046150D01*
X9806063Y-17046150D02*
X9825110Y-17055674D01*
X9825110Y-17055674D02*
X9834634Y-17074722D01*
X9834634Y-17074722D02*
X9834634Y-17179484D01*
X9834634Y-17074722D02*
X9844158Y-17055674D01*
X9844158Y-17055674D02*
X9863205Y-17046150D01*
X9863205Y-17046150D02*
X9891777Y-17046150D01*
X9891777Y-17046150D02*
X9910825Y-17055674D01*
X9910825Y-17055674D02*
X9920348Y-17074722D01*
X9920348Y-17074722D02*
X9920348Y-17179484D01*
X10015586Y-17179484D02*
X10015586Y-17046150D01*
X10015586Y-17065198D02*
X10025110Y-17055674D01*
X10025110Y-17055674D02*
X10044158Y-17046150D01*
X10044158Y-17046150D02*
X10072729Y-17046150D01*
X10072729Y-17046150D02*
X10091777Y-17055674D01*
X10091777Y-17055674D02*
X10101301Y-17074722D01*
X10101301Y-17074722D02*
X10101301Y-17179484D01*
X10101301Y-17074722D02*
X10110825Y-17055674D01*
X10110825Y-17055674D02*
X10129872Y-17046150D01*
X10129872Y-17046150D02*
X10158444Y-17046150D01*
X10158444Y-17046150D02*
X10177491Y-17055674D01*
X10177491Y-17055674D02*
X10187015Y-17074722D01*
X10187015Y-17074722D02*
X10187015Y-17179484D01*
X10577491Y-16969960D02*
X10406063Y-17227103D01*
X10834634Y-16979484D02*
X10853682Y-16979484D01*
X10853682Y-16979484D02*
X10872729Y-16989008D01*
X10872729Y-16989008D02*
X10882253Y-16998531D01*
X10882253Y-16998531D02*
X10891777Y-17017579D01*
X10891777Y-17017579D02*
X10901301Y-17055674D01*
X10901301Y-17055674D02*
X10901301Y-17103293D01*
X10901301Y-17103293D02*
X10891777Y-17141389D01*
X10891777Y-17141389D02*
X10882253Y-17160436D01*
X10882253Y-17160436D02*
X10872729Y-17169960D01*
X10872729Y-17169960D02*
X10853682Y-17179484D01*
X10853682Y-17179484D02*
X10834634Y-17179484D01*
X10834634Y-17179484D02*
X10815587Y-17169960D01*
X10815587Y-17169960D02*
X10806063Y-17160436D01*
X10806063Y-17160436D02*
X10796539Y-17141389D01*
X10796539Y-17141389D02*
X10787015Y-17103293D01*
X10787015Y-17103293D02*
X10787015Y-17055674D01*
X10787015Y-17055674D02*
X10796539Y-17017579D01*
X10796539Y-17017579D02*
X10806063Y-16998531D01*
X10806063Y-16998531D02*
X10815587Y-16989008D01*
X10815587Y-16989008D02*
X10834634Y-16979484D01*
X10987015Y-17160436D02*
X10996539Y-17169960D01*
X10996539Y-17169960D02*
X10987015Y-17179484D01*
X10987015Y-17179484D02*
X10977491Y-17169960D01*
X10977491Y-17169960D02*
X10987015Y-17160436D01*
X10987015Y-17160436D02*
X10987015Y-17179484D01*
X11120348Y-16979484D02*
X11139396Y-16979484D01*
X11139396Y-16979484D02*
X11158444Y-16989008D01*
X11158444Y-16989008D02*
X11167968Y-16998531D01*
X11167968Y-16998531D02*
X11177491Y-17017579D01*
X11177491Y-17017579D02*
X11187015Y-17055674D01*
X11187015Y-17055674D02*
X11187015Y-17103293D01*
X11187015Y-17103293D02*
X11177491Y-17141389D01*
X11177491Y-17141389D02*
X11167968Y-17160436D01*
X11167968Y-17160436D02*
X11158444Y-17169960D01*
X11158444Y-17169960D02*
X11139396Y-17179484D01*
X11139396Y-17179484D02*
X11120348Y-17179484D01*
X11120348Y-17179484D02*
X11101301Y-17169960D01*
X11101301Y-17169960D02*
X11091777Y-17160436D01*
X11091777Y-17160436D02*
X11082253Y-17141389D01*
X11082253Y-17141389D02*
X11072729Y-17103293D01*
X11072729Y-17103293D02*
X11072729Y-17055674D01*
X11072729Y-17055674D02*
X11082253Y-17017579D01*
X11082253Y-17017579D02*
X11091777Y-16998531D01*
X11091777Y-16998531D02*
X11101301Y-16989008D01*
X11101301Y-16989008D02*
X11120348Y-16979484D01*
X11358444Y-17046150D02*
X11358444Y-17179484D01*
X11310825Y-16969960D02*
X11263206Y-17112817D01*
X11263206Y-17112817D02*
X11387015Y-17112817D01*
X11444158Y-16979484D02*
X11577491Y-16979484D01*
X11577491Y-16979484D02*
X11491777Y-17179484D01*
X11644158Y-16998531D02*
X11653682Y-16989008D01*
X11653682Y-16989008D02*
X11672729Y-16979484D01*
X11672729Y-16979484D02*
X11720348Y-16979484D01*
X11720348Y-16979484D02*
X11739396Y-16989008D01*
X11739396Y-16989008D02*
X11748920Y-16998531D01*
X11748920Y-16998531D02*
X11758444Y-17017579D01*
X11758444Y-17017579D02*
X11758444Y-17036627D01*
X11758444Y-17036627D02*
X11748920Y-17065198D01*
X11748920Y-17065198D02*
X11634634Y-17179484D01*
X11634634Y-17179484D02*
X11758444Y-17179484D01*
X11834634Y-16979484D02*
X11834634Y-17017579D01*
X11910825Y-16979484D02*
X11910825Y-17017579D01*
X12206063Y-17255674D02*
X12196539Y-17246150D01*
X12196539Y-17246150D02*
X12177491Y-17217579D01*
X12177491Y-17217579D02*
X12167968Y-17198531D01*
X12167968Y-17198531D02*
X12158444Y-17169960D01*
X12158444Y-17169960D02*
X12148920Y-17122341D01*
X12148920Y-17122341D02*
X12148920Y-17084246D01*
X12148920Y-17084246D02*
X12158444Y-17036627D01*
X12158444Y-17036627D02*
X12167968Y-17008055D01*
X12167968Y-17008055D02*
X12177491Y-16989008D01*
X12177491Y-16989008D02*
X12196539Y-16960436D01*
X12196539Y-16960436D02*
X12206063Y-16950912D01*
X12367968Y-17046150D02*
X12367968Y-17179484D01*
X12320348Y-16969960D02*
X12272729Y-17112817D01*
X12272729Y-17112817D02*
X12396539Y-17112817D01*
X12625110Y-17179484D02*
X12625110Y-16979484D01*
X12710825Y-17179484D02*
X12710825Y-17074722D01*
X12710825Y-17074722D02*
X12701301Y-17055674D01*
X12701301Y-17055674D02*
X12682253Y-17046150D01*
X12682253Y-17046150D02*
X12653682Y-17046150D01*
X12653682Y-17046150D02*
X12634634Y-17055674D01*
X12634634Y-17055674D02*
X12625110Y-17065198D01*
X12834634Y-17179484D02*
X12815587Y-17169960D01*
X12815587Y-17169960D02*
X12806063Y-17160436D01*
X12806063Y-17160436D02*
X12796539Y-17141389D01*
X12796539Y-17141389D02*
X12796539Y-17084246D01*
X12796539Y-17084246D02*
X12806063Y-17065198D01*
X12806063Y-17065198D02*
X12815587Y-17055674D01*
X12815587Y-17055674D02*
X12834634Y-17046150D01*
X12834634Y-17046150D02*
X12863206Y-17046150D01*
X12863206Y-17046150D02*
X12882253Y-17055674D01*
X12882253Y-17055674D02*
X12891777Y-17065198D01*
X12891777Y-17065198D02*
X12901301Y-17084246D01*
X12901301Y-17084246D02*
X12901301Y-17141389D01*
X12901301Y-17141389D02*
X12891777Y-17160436D01*
X12891777Y-17160436D02*
X12882253Y-17169960D01*
X12882253Y-17169960D02*
X12863206Y-17179484D01*
X12863206Y-17179484D02*
X12834634Y-17179484D01*
X13015587Y-17179484D02*
X12996539Y-17169960D01*
X12996539Y-17169960D02*
X12987015Y-17150912D01*
X12987015Y-17150912D02*
X12987015Y-16979484D01*
X13167968Y-17169960D02*
X13148920Y-17179484D01*
X13148920Y-17179484D02*
X13110825Y-17179484D01*
X13110825Y-17179484D02*
X13091777Y-17169960D01*
X13091777Y-17169960D02*
X13082253Y-17150912D01*
X13082253Y-17150912D02*
X13082253Y-17074722D01*
X13082253Y-17074722D02*
X13091777Y-17055674D01*
X13091777Y-17055674D02*
X13110825Y-17046150D01*
X13110825Y-17046150D02*
X13148920Y-17046150D01*
X13148920Y-17046150D02*
X13167968Y-17055674D01*
X13167968Y-17055674D02*
X13177491Y-17074722D01*
X13177491Y-17074722D02*
X13177491Y-17093770D01*
X13177491Y-17093770D02*
X13082253Y-17112817D01*
X13253682Y-17169960D02*
X13272730Y-17179484D01*
X13272730Y-17179484D02*
X13310825Y-17179484D01*
X13310825Y-17179484D02*
X13329872Y-17169960D01*
X13329872Y-17169960D02*
X13339396Y-17150912D01*
X13339396Y-17150912D02*
X13339396Y-17141389D01*
X13339396Y-17141389D02*
X13329872Y-17122341D01*
X13329872Y-17122341D02*
X13310825Y-17112817D01*
X13310825Y-17112817D02*
X13282253Y-17112817D01*
X13282253Y-17112817D02*
X13263206Y-17103293D01*
X13263206Y-17103293D02*
X13253682Y-17084246D01*
X13253682Y-17084246D02*
X13253682Y-17074722D01*
X13253682Y-17074722D02*
X13263206Y-17055674D01*
X13263206Y-17055674D02*
X13282253Y-17046150D01*
X13282253Y-17046150D02*
X13310825Y-17046150D01*
X13310825Y-17046150D02*
X13329872Y-17055674D01*
X13406063Y-17255674D02*
X13415587Y-17246150D01*
X13415587Y-17246150D02*
X13434634Y-17217579D01*
X13434634Y-17217579D02*
X13444158Y-17198531D01*
X13444158Y-17198531D02*
X13453682Y-17169960D01*
X13453682Y-17169960D02*
X13463206Y-17122341D01*
X13463206Y-17122341D02*
X13463206Y-17084246D01*
X13463206Y-17084246D02*
X13453682Y-17036627D01*
X13453682Y-17036627D02*
X13444158Y-17008055D01*
X13444158Y-17008055D02*
X13434634Y-16989008D01*
X13434634Y-16989008D02*
X13415587Y-16960436D01*
X13415587Y-16960436D02*
X13406063Y-16950912D01*
D15*
X8471000Y-17272000D02*
X8631000Y-17432000D01*
X8631000Y-17272000D02*
X8471000Y-17432000D01*
X8607569Y-17408569D02*
X8607569Y-17295431D01*
X8494431Y-17295431D01*
X8494431Y-17408569D01*
X8607569Y-17408569D01*
D11*
X8996539Y-17443484D02*
X8882253Y-17443484D01*
X8939396Y-17443484D02*
X8939396Y-17243484D01*
X8939396Y-17243484D02*
X8920348Y-17272055D01*
X8920348Y-17272055D02*
X8901301Y-17291103D01*
X8901301Y-17291103D02*
X8882253Y-17300627D01*
X9082253Y-17424436D02*
X9091777Y-17433960D01*
X9091777Y-17433960D02*
X9082253Y-17443484D01*
X9082253Y-17443484D02*
X9072729Y-17433960D01*
X9072729Y-17433960D02*
X9082253Y-17424436D01*
X9082253Y-17424436D02*
X9082253Y-17443484D01*
X9263205Y-17243484D02*
X9225110Y-17243484D01*
X9225110Y-17243484D02*
X9206063Y-17253008D01*
X9206063Y-17253008D02*
X9196539Y-17262531D01*
X9196539Y-17262531D02*
X9177491Y-17291103D01*
X9177491Y-17291103D02*
X9167967Y-17329198D01*
X9167967Y-17329198D02*
X9167967Y-17405389D01*
X9167967Y-17405389D02*
X9177491Y-17424436D01*
X9177491Y-17424436D02*
X9187015Y-17433960D01*
X9187015Y-17433960D02*
X9206063Y-17443484D01*
X9206063Y-17443484D02*
X9244158Y-17443484D01*
X9244158Y-17443484D02*
X9263205Y-17433960D01*
X9263205Y-17433960D02*
X9272729Y-17424436D01*
X9272729Y-17424436D02*
X9282253Y-17405389D01*
X9282253Y-17405389D02*
X9282253Y-17357770D01*
X9282253Y-17357770D02*
X9272729Y-17338722D01*
X9272729Y-17338722D02*
X9263205Y-17329198D01*
X9263205Y-17329198D02*
X9244158Y-17319674D01*
X9244158Y-17319674D02*
X9206063Y-17319674D01*
X9206063Y-17319674D02*
X9187015Y-17329198D01*
X9187015Y-17329198D02*
X9177491Y-17338722D01*
X9177491Y-17338722D02*
X9167967Y-17357770D01*
X9406063Y-17243484D02*
X9425110Y-17243484D01*
X9425110Y-17243484D02*
X9444158Y-17253008D01*
X9444158Y-17253008D02*
X9453682Y-17262531D01*
X9453682Y-17262531D02*
X9463205Y-17281579D01*
X9463205Y-17281579D02*
X9472729Y-17319674D01*
X9472729Y-17319674D02*
X9472729Y-17367293D01*
X9472729Y-17367293D02*
X9463205Y-17405389D01*
X9463205Y-17405389D02*
X9453682Y-17424436D01*
X9453682Y-17424436D02*
X9444158Y-17433960D01*
X9444158Y-17433960D02*
X9425110Y-17443484D01*
X9425110Y-17443484D02*
X9406063Y-17443484D01*
X9406063Y-17443484D02*
X9387015Y-17433960D01*
X9387015Y-17433960D02*
X9377491Y-17424436D01*
X9377491Y-17424436D02*
X9367967Y-17405389D01*
X9367967Y-17405389D02*
X9358444Y-17367293D01*
X9358444Y-17367293D02*
X9358444Y-17319674D01*
X9358444Y-17319674D02*
X9367967Y-17281579D01*
X9367967Y-17281579D02*
X9377491Y-17262531D01*
X9377491Y-17262531D02*
X9387015Y-17253008D01*
X9387015Y-17253008D02*
X9406063Y-17243484D01*
X9596539Y-17243484D02*
X9615586Y-17243484D01*
X9615586Y-17243484D02*
X9634634Y-17253008D01*
X9634634Y-17253008D02*
X9644158Y-17262531D01*
X9644158Y-17262531D02*
X9653682Y-17281579D01*
X9653682Y-17281579D02*
X9663205Y-17319674D01*
X9663205Y-17319674D02*
X9663205Y-17367293D01*
X9663205Y-17367293D02*
X9653682Y-17405389D01*
X9653682Y-17405389D02*
X9644158Y-17424436D01*
X9644158Y-17424436D02*
X9634634Y-17433960D01*
X9634634Y-17433960D02*
X9615586Y-17443484D01*
X9615586Y-17443484D02*
X9596539Y-17443484D01*
X9596539Y-17443484D02*
X9577491Y-17433960D01*
X9577491Y-17433960D02*
X9567967Y-17424436D01*
X9567967Y-17424436D02*
X9558444Y-17405389D01*
X9558444Y-17405389D02*
X9548920Y-17367293D01*
X9548920Y-17367293D02*
X9548920Y-17319674D01*
X9548920Y-17319674D02*
X9558444Y-17281579D01*
X9558444Y-17281579D02*
X9567967Y-17262531D01*
X9567967Y-17262531D02*
X9577491Y-17253008D01*
X9577491Y-17253008D02*
X9596539Y-17243484D01*
X9748920Y-17443484D02*
X9748920Y-17310150D01*
X9748920Y-17329198D02*
X9758444Y-17319674D01*
X9758444Y-17319674D02*
X9777491Y-17310150D01*
X9777491Y-17310150D02*
X9806063Y-17310150D01*
X9806063Y-17310150D02*
X9825110Y-17319674D01*
X9825110Y-17319674D02*
X9834634Y-17338722D01*
X9834634Y-17338722D02*
X9834634Y-17443484D01*
X9834634Y-17338722D02*
X9844158Y-17319674D01*
X9844158Y-17319674D02*
X9863205Y-17310150D01*
X9863205Y-17310150D02*
X9891777Y-17310150D01*
X9891777Y-17310150D02*
X9910825Y-17319674D01*
X9910825Y-17319674D02*
X9920348Y-17338722D01*
X9920348Y-17338722D02*
X9920348Y-17443484D01*
X10015586Y-17443484D02*
X10015586Y-17310150D01*
X10015586Y-17329198D02*
X10025110Y-17319674D01*
X10025110Y-17319674D02*
X10044158Y-17310150D01*
X10044158Y-17310150D02*
X10072729Y-17310150D01*
X10072729Y-17310150D02*
X10091777Y-17319674D01*
X10091777Y-17319674D02*
X10101301Y-17338722D01*
X10101301Y-17338722D02*
X10101301Y-17443484D01*
X10101301Y-17338722D02*
X10110825Y-17319674D01*
X10110825Y-17319674D02*
X10129872Y-17310150D01*
X10129872Y-17310150D02*
X10158444Y-17310150D01*
X10158444Y-17310150D02*
X10177491Y-17319674D01*
X10177491Y-17319674D02*
X10187015Y-17338722D01*
X10187015Y-17338722D02*
X10187015Y-17443484D01*
X10577491Y-17233960D02*
X10406063Y-17491103D01*
X10834634Y-17243484D02*
X10853682Y-17243484D01*
X10853682Y-17243484D02*
X10872729Y-17253008D01*
X10872729Y-17253008D02*
X10882253Y-17262531D01*
X10882253Y-17262531D02*
X10891777Y-17281579D01*
X10891777Y-17281579D02*
X10901301Y-17319674D01*
X10901301Y-17319674D02*
X10901301Y-17367293D01*
X10901301Y-17367293D02*
X10891777Y-17405389D01*
X10891777Y-17405389D02*
X10882253Y-17424436D01*
X10882253Y-17424436D02*
X10872729Y-17433960D01*
X10872729Y-17433960D02*
X10853682Y-17443484D01*
X10853682Y-17443484D02*
X10834634Y-17443484D01*
X10834634Y-17443484D02*
X10815587Y-17433960D01*
X10815587Y-17433960D02*
X10806063Y-17424436D01*
X10806063Y-17424436D02*
X10796539Y-17405389D01*
X10796539Y-17405389D02*
X10787015Y-17367293D01*
X10787015Y-17367293D02*
X10787015Y-17319674D01*
X10787015Y-17319674D02*
X10796539Y-17281579D01*
X10796539Y-17281579D02*
X10806063Y-17262531D01*
X10806063Y-17262531D02*
X10815587Y-17253008D01*
X10815587Y-17253008D02*
X10834634Y-17243484D01*
X10987015Y-17424436D02*
X10996539Y-17433960D01*
X10996539Y-17433960D02*
X10987015Y-17443484D01*
X10987015Y-17443484D02*
X10977491Y-17433960D01*
X10977491Y-17433960D02*
X10987015Y-17424436D01*
X10987015Y-17424436D02*
X10987015Y-17443484D01*
X11120348Y-17243484D02*
X11139396Y-17243484D01*
X11139396Y-17243484D02*
X11158444Y-17253008D01*
X11158444Y-17253008D02*
X11167968Y-17262531D01*
X11167968Y-17262531D02*
X11177491Y-17281579D01*
X11177491Y-17281579D02*
X11187015Y-17319674D01*
X11187015Y-17319674D02*
X11187015Y-17367293D01*
X11187015Y-17367293D02*
X11177491Y-17405389D01*
X11177491Y-17405389D02*
X11167968Y-17424436D01*
X11167968Y-17424436D02*
X11158444Y-17433960D01*
X11158444Y-17433960D02*
X11139396Y-17443484D01*
X11139396Y-17443484D02*
X11120348Y-17443484D01*
X11120348Y-17443484D02*
X11101301Y-17433960D01*
X11101301Y-17433960D02*
X11091777Y-17424436D01*
X11091777Y-17424436D02*
X11082253Y-17405389D01*
X11082253Y-17405389D02*
X11072729Y-17367293D01*
X11072729Y-17367293D02*
X11072729Y-17319674D01*
X11072729Y-17319674D02*
X11082253Y-17281579D01*
X11082253Y-17281579D02*
X11091777Y-17262531D01*
X11091777Y-17262531D02*
X11101301Y-17253008D01*
X11101301Y-17253008D02*
X11120348Y-17243484D01*
X11358444Y-17243484D02*
X11320348Y-17243484D01*
X11320348Y-17243484D02*
X11301301Y-17253008D01*
X11301301Y-17253008D02*
X11291777Y-17262531D01*
X11291777Y-17262531D02*
X11272729Y-17291103D01*
X11272729Y-17291103D02*
X11263206Y-17329198D01*
X11263206Y-17329198D02*
X11263206Y-17405389D01*
X11263206Y-17405389D02*
X11272729Y-17424436D01*
X11272729Y-17424436D02*
X11282253Y-17433960D01*
X11282253Y-17433960D02*
X11301301Y-17443484D01*
X11301301Y-17443484D02*
X11339396Y-17443484D01*
X11339396Y-17443484D02*
X11358444Y-17433960D01*
X11358444Y-17433960D02*
X11367967Y-17424436D01*
X11367967Y-17424436D02*
X11377491Y-17405389D01*
X11377491Y-17405389D02*
X11377491Y-17357770D01*
X11377491Y-17357770D02*
X11367967Y-17338722D01*
X11367967Y-17338722D02*
X11358444Y-17329198D01*
X11358444Y-17329198D02*
X11339396Y-17319674D01*
X11339396Y-17319674D02*
X11301301Y-17319674D01*
X11301301Y-17319674D02*
X11282253Y-17329198D01*
X11282253Y-17329198D02*
X11272729Y-17338722D01*
X11272729Y-17338722D02*
X11263206Y-17357770D01*
X11444158Y-17243484D02*
X11567967Y-17243484D01*
X11567967Y-17243484D02*
X11501301Y-17319674D01*
X11501301Y-17319674D02*
X11529872Y-17319674D01*
X11529872Y-17319674D02*
X11548920Y-17329198D01*
X11548920Y-17329198D02*
X11558444Y-17338722D01*
X11558444Y-17338722D02*
X11567967Y-17357770D01*
X11567967Y-17357770D02*
X11567967Y-17405389D01*
X11567967Y-17405389D02*
X11558444Y-17424436D01*
X11558444Y-17424436D02*
X11548920Y-17433960D01*
X11548920Y-17433960D02*
X11529872Y-17443484D01*
X11529872Y-17443484D02*
X11472729Y-17443484D01*
X11472729Y-17443484D02*
X11453682Y-17433960D01*
X11453682Y-17433960D02*
X11444158Y-17424436D01*
X11691777Y-17243484D02*
X11710825Y-17243484D01*
X11710825Y-17243484D02*
X11729872Y-17253008D01*
X11729872Y-17253008D02*
X11739396Y-17262531D01*
X11739396Y-17262531D02*
X11748920Y-17281579D01*
X11748920Y-17281579D02*
X11758444Y-17319674D01*
X11758444Y-17319674D02*
X11758444Y-17367293D01*
X11758444Y-17367293D02*
X11748920Y-17405389D01*
X11748920Y-17405389D02*
X11739396Y-17424436D01*
X11739396Y-17424436D02*
X11729872Y-17433960D01*
X11729872Y-17433960D02*
X11710825Y-17443484D01*
X11710825Y-17443484D02*
X11691777Y-17443484D01*
X11691777Y-17443484D02*
X11672729Y-17433960D01*
X11672729Y-17433960D02*
X11663206Y-17424436D01*
X11663206Y-17424436D02*
X11653682Y-17405389D01*
X11653682Y-17405389D02*
X11644158Y-17367293D01*
X11644158Y-17367293D02*
X11644158Y-17319674D01*
X11644158Y-17319674D02*
X11653682Y-17281579D01*
X11653682Y-17281579D02*
X11663206Y-17262531D01*
X11663206Y-17262531D02*
X11672729Y-17253008D01*
X11672729Y-17253008D02*
X11691777Y-17243484D01*
X11834634Y-17243484D02*
X11834634Y-17281579D01*
X11910825Y-17243484D02*
X11910825Y-17281579D01*
X12206063Y-17519674D02*
X12196539Y-17510150D01*
X12196539Y-17510150D02*
X12177491Y-17481579D01*
X12177491Y-17481579D02*
X12167968Y-17462531D01*
X12167968Y-17462531D02*
X12158444Y-17433960D01*
X12158444Y-17433960D02*
X12148920Y-17386341D01*
X12148920Y-17386341D02*
X12148920Y-17348246D01*
X12148920Y-17348246D02*
X12158444Y-17300627D01*
X12158444Y-17300627D02*
X12167968Y-17272055D01*
X12167968Y-17272055D02*
X12177491Y-17253008D01*
X12177491Y-17253008D02*
X12196539Y-17224436D01*
X12196539Y-17224436D02*
X12206063Y-17214912D01*
X12367968Y-17310150D02*
X12367968Y-17443484D01*
X12320348Y-17233960D02*
X12272729Y-17376817D01*
X12272729Y-17376817D02*
X12396539Y-17376817D01*
X12625110Y-17443484D02*
X12625110Y-17243484D01*
X12710825Y-17443484D02*
X12710825Y-17338722D01*
X12710825Y-17338722D02*
X12701301Y-17319674D01*
X12701301Y-17319674D02*
X12682253Y-17310150D01*
X12682253Y-17310150D02*
X12653682Y-17310150D01*
X12653682Y-17310150D02*
X12634634Y-17319674D01*
X12634634Y-17319674D02*
X12625110Y-17329198D01*
X12834634Y-17443484D02*
X12815587Y-17433960D01*
X12815587Y-17433960D02*
X12806063Y-17424436D01*
X12806063Y-17424436D02*
X12796539Y-17405389D01*
X12796539Y-17405389D02*
X12796539Y-17348246D01*
X12796539Y-17348246D02*
X12806063Y-17329198D01*
X12806063Y-17329198D02*
X12815587Y-17319674D01*
X12815587Y-17319674D02*
X12834634Y-17310150D01*
X12834634Y-17310150D02*
X12863206Y-17310150D01*
X12863206Y-17310150D02*
X12882253Y-17319674D01*
X12882253Y-17319674D02*
X12891777Y-17329198D01*
X12891777Y-17329198D02*
X12901301Y-17348246D01*
X12901301Y-17348246D02*
X12901301Y-17405389D01*
X12901301Y-17405389D02*
X12891777Y-17424436D01*
X12891777Y-17424436D02*
X12882253Y-17433960D01*
X12882253Y-17433960D02*
X12863206Y-17443484D01*
X12863206Y-17443484D02*
X12834634Y-17443484D01*
X13015587Y-17443484D02*
X12996539Y-17433960D01*
X12996539Y-17433960D02*
X12987015Y-17414912D01*
X12987015Y-17414912D02*
X12987015Y-17243484D01*
X13167968Y-17433960D02*
X13148920Y-17443484D01*
X13148920Y-17443484D02*
X13110825Y-17443484D01*
X13110825Y-17443484D02*
X13091777Y-17433960D01*
X13091777Y-17433960D02*
X13082253Y-17414912D01*
X13082253Y-17414912D02*
X13082253Y-17338722D01*
X13082253Y-17338722D02*
X13091777Y-17319674D01*
X13091777Y-17319674D02*
X13110825Y-17310150D01*
X13110825Y-17310150D02*
X13148920Y-17310150D01*
X13148920Y-17310150D02*
X13167968Y-17319674D01*
X13167968Y-17319674D02*
X13177491Y-17338722D01*
X13177491Y-17338722D02*
X13177491Y-17357770D01*
X13177491Y-17357770D02*
X13082253Y-17376817D01*
X13253682Y-17433960D02*
X13272730Y-17443484D01*
X13272730Y-17443484D02*
X13310825Y-17443484D01*
X13310825Y-17443484D02*
X13329872Y-17433960D01*
X13329872Y-17433960D02*
X13339396Y-17414912D01*
X13339396Y-17414912D02*
X13339396Y-17405389D01*
X13339396Y-17405389D02*
X13329872Y-17386341D01*
X13329872Y-17386341D02*
X13310825Y-17376817D01*
X13310825Y-17376817D02*
X13282253Y-17376817D01*
X13282253Y-17376817D02*
X13263206Y-17367293D01*
X13263206Y-17367293D02*
X13253682Y-17348246D01*
X13253682Y-17348246D02*
X13253682Y-17338722D01*
X13253682Y-17338722D02*
X13263206Y-17319674D01*
X13263206Y-17319674D02*
X13282253Y-17310150D01*
X13282253Y-17310150D02*
X13310825Y-17310150D01*
X13310825Y-17310150D02*
X13329872Y-17319674D01*
X13406063Y-17519674D02*
X13415587Y-17510150D01*
X13415587Y-17510150D02*
X13434634Y-17481579D01*
X13434634Y-17481579D02*
X13444158Y-17462531D01*
X13444158Y-17462531D02*
X13453682Y-17433960D01*
X13453682Y-17433960D02*
X13463206Y-17386341D01*
X13463206Y-17386341D02*
X13463206Y-17348246D01*
X13463206Y-17348246D02*
X13453682Y-17300627D01*
X13453682Y-17300627D02*
X13444158Y-17272055D01*
X13444158Y-17272055D02*
X13434634Y-17253008D01*
X13434634Y-17253008D02*
X13415587Y-17224436D01*
X13415587Y-17224436D02*
X13406063Y-17214912D01*
D16*
X8461000Y-17547000D02*
X8631000Y-17717000D01*
X8631000Y-17547000D02*
X8461000Y-17717000D01*
X8546000Y-17717000D02*
X8631000Y-17632000D01*
X8546000Y-17547000D01*
X8461000Y-17632000D01*
X8546000Y-17717000D01*
D11*
X8996539Y-17723484D02*
X8882253Y-17723484D01*
X8939396Y-17723484D02*
X8939396Y-17523484D01*
X8939396Y-17523484D02*
X8920348Y-17552055D01*
X8920348Y-17552055D02*
X8901301Y-17571103D01*
X8901301Y-17571103D02*
X8882253Y-17580627D01*
X9082253Y-17704436D02*
X9091777Y-17713960D01*
X9091777Y-17713960D02*
X9082253Y-17723484D01*
X9082253Y-17723484D02*
X9072729Y-17713960D01*
X9072729Y-17713960D02*
X9082253Y-17704436D01*
X9082253Y-17704436D02*
X9082253Y-17723484D01*
X9158444Y-17523484D02*
X9291777Y-17523484D01*
X9291777Y-17523484D02*
X9206063Y-17723484D01*
X9406063Y-17523484D02*
X9425110Y-17523484D01*
X9425110Y-17523484D02*
X9444158Y-17533008D01*
X9444158Y-17533008D02*
X9453682Y-17542531D01*
X9453682Y-17542531D02*
X9463205Y-17561579D01*
X9463205Y-17561579D02*
X9472729Y-17599674D01*
X9472729Y-17599674D02*
X9472729Y-17647293D01*
X9472729Y-17647293D02*
X9463205Y-17685389D01*
X9463205Y-17685389D02*
X9453682Y-17704436D01*
X9453682Y-17704436D02*
X9444158Y-17713960D01*
X9444158Y-17713960D02*
X9425110Y-17723484D01*
X9425110Y-17723484D02*
X9406063Y-17723484D01*
X9406063Y-17723484D02*
X9387015Y-17713960D01*
X9387015Y-17713960D02*
X9377491Y-17704436D01*
X9377491Y-17704436D02*
X9367967Y-17685389D01*
X9367967Y-17685389D02*
X9358444Y-17647293D01*
X9358444Y-17647293D02*
X9358444Y-17599674D01*
X9358444Y-17599674D02*
X9367967Y-17561579D01*
X9367967Y-17561579D02*
X9377491Y-17542531D01*
X9377491Y-17542531D02*
X9387015Y-17533008D01*
X9387015Y-17533008D02*
X9406063Y-17523484D01*
X9596539Y-17523484D02*
X9615586Y-17523484D01*
X9615586Y-17523484D02*
X9634634Y-17533008D01*
X9634634Y-17533008D02*
X9644158Y-17542531D01*
X9644158Y-17542531D02*
X9653682Y-17561579D01*
X9653682Y-17561579D02*
X9663205Y-17599674D01*
X9663205Y-17599674D02*
X9663205Y-17647293D01*
X9663205Y-17647293D02*
X9653682Y-17685389D01*
X9653682Y-17685389D02*
X9644158Y-17704436D01*
X9644158Y-17704436D02*
X9634634Y-17713960D01*
X9634634Y-17713960D02*
X9615586Y-17723484D01*
X9615586Y-17723484D02*
X9596539Y-17723484D01*
X9596539Y-17723484D02*
X9577491Y-17713960D01*
X9577491Y-17713960D02*
X9567967Y-17704436D01*
X9567967Y-17704436D02*
X9558444Y-17685389D01*
X9558444Y-17685389D02*
X9548920Y-17647293D01*
X9548920Y-17647293D02*
X9548920Y-17599674D01*
X9548920Y-17599674D02*
X9558444Y-17561579D01*
X9558444Y-17561579D02*
X9567967Y-17542531D01*
X9567967Y-17542531D02*
X9577491Y-17533008D01*
X9577491Y-17533008D02*
X9596539Y-17523484D01*
X9748920Y-17723484D02*
X9748920Y-17590150D01*
X9748920Y-17609198D02*
X9758444Y-17599674D01*
X9758444Y-17599674D02*
X9777491Y-17590150D01*
X9777491Y-17590150D02*
X9806063Y-17590150D01*
X9806063Y-17590150D02*
X9825110Y-17599674D01*
X9825110Y-17599674D02*
X9834634Y-17618722D01*
X9834634Y-17618722D02*
X9834634Y-17723484D01*
X9834634Y-17618722D02*
X9844158Y-17599674D01*
X9844158Y-17599674D02*
X9863205Y-17590150D01*
X9863205Y-17590150D02*
X9891777Y-17590150D01*
X9891777Y-17590150D02*
X9910825Y-17599674D01*
X9910825Y-17599674D02*
X9920348Y-17618722D01*
X9920348Y-17618722D02*
X9920348Y-17723484D01*
X10015586Y-17723484D02*
X10015586Y-17590150D01*
X10015586Y-17609198D02*
X10025110Y-17599674D01*
X10025110Y-17599674D02*
X10044158Y-17590150D01*
X10044158Y-17590150D02*
X10072729Y-17590150D01*
X10072729Y-17590150D02*
X10091777Y-17599674D01*
X10091777Y-17599674D02*
X10101301Y-17618722D01*
X10101301Y-17618722D02*
X10101301Y-17723484D01*
X10101301Y-17618722D02*
X10110825Y-17599674D01*
X10110825Y-17599674D02*
X10129872Y-17590150D01*
X10129872Y-17590150D02*
X10158444Y-17590150D01*
X10158444Y-17590150D02*
X10177491Y-17599674D01*
X10177491Y-17599674D02*
X10187015Y-17618722D01*
X10187015Y-17618722D02*
X10187015Y-17723484D01*
X10577491Y-17513960D02*
X10406063Y-17771103D01*
X10834634Y-17523484D02*
X10853682Y-17523484D01*
X10853682Y-17523484D02*
X10872729Y-17533008D01*
X10872729Y-17533008D02*
X10882253Y-17542531D01*
X10882253Y-17542531D02*
X10891777Y-17561579D01*
X10891777Y-17561579D02*
X10901301Y-17599674D01*
X10901301Y-17599674D02*
X10901301Y-17647293D01*
X10901301Y-17647293D02*
X10891777Y-17685389D01*
X10891777Y-17685389D02*
X10882253Y-17704436D01*
X10882253Y-17704436D02*
X10872729Y-17713960D01*
X10872729Y-17713960D02*
X10853682Y-17723484D01*
X10853682Y-17723484D02*
X10834634Y-17723484D01*
X10834634Y-17723484D02*
X10815587Y-17713960D01*
X10815587Y-17713960D02*
X10806063Y-17704436D01*
X10806063Y-17704436D02*
X10796539Y-17685389D01*
X10796539Y-17685389D02*
X10787015Y-17647293D01*
X10787015Y-17647293D02*
X10787015Y-17599674D01*
X10787015Y-17599674D02*
X10796539Y-17561579D01*
X10796539Y-17561579D02*
X10806063Y-17542531D01*
X10806063Y-17542531D02*
X10815587Y-17533008D01*
X10815587Y-17533008D02*
X10834634Y-17523484D01*
X10987015Y-17704436D02*
X10996539Y-17713960D01*
X10996539Y-17713960D02*
X10987015Y-17723484D01*
X10987015Y-17723484D02*
X10977491Y-17713960D01*
X10977491Y-17713960D02*
X10987015Y-17704436D01*
X10987015Y-17704436D02*
X10987015Y-17723484D01*
X11120348Y-17523484D02*
X11139396Y-17523484D01*
X11139396Y-17523484D02*
X11158444Y-17533008D01*
X11158444Y-17533008D02*
X11167968Y-17542531D01*
X11167968Y-17542531D02*
X11177491Y-17561579D01*
X11177491Y-17561579D02*
X11187015Y-17599674D01*
X11187015Y-17599674D02*
X11187015Y-17647293D01*
X11187015Y-17647293D02*
X11177491Y-17685389D01*
X11177491Y-17685389D02*
X11167968Y-17704436D01*
X11167968Y-17704436D02*
X11158444Y-17713960D01*
X11158444Y-17713960D02*
X11139396Y-17723484D01*
X11139396Y-17723484D02*
X11120348Y-17723484D01*
X11120348Y-17723484D02*
X11101301Y-17713960D01*
X11101301Y-17713960D02*
X11091777Y-17704436D01*
X11091777Y-17704436D02*
X11082253Y-17685389D01*
X11082253Y-17685389D02*
X11072729Y-17647293D01*
X11072729Y-17647293D02*
X11072729Y-17599674D01*
X11072729Y-17599674D02*
X11082253Y-17561579D01*
X11082253Y-17561579D02*
X11091777Y-17542531D01*
X11091777Y-17542531D02*
X11101301Y-17533008D01*
X11101301Y-17533008D02*
X11120348Y-17523484D01*
X11358444Y-17523484D02*
X11320348Y-17523484D01*
X11320348Y-17523484D02*
X11301301Y-17533008D01*
X11301301Y-17533008D02*
X11291777Y-17542531D01*
X11291777Y-17542531D02*
X11272729Y-17571103D01*
X11272729Y-17571103D02*
X11263206Y-17609198D01*
X11263206Y-17609198D02*
X11263206Y-17685389D01*
X11263206Y-17685389D02*
X11272729Y-17704436D01*
X11272729Y-17704436D02*
X11282253Y-17713960D01*
X11282253Y-17713960D02*
X11301301Y-17723484D01*
X11301301Y-17723484D02*
X11339396Y-17723484D01*
X11339396Y-17723484D02*
X11358444Y-17713960D01*
X11358444Y-17713960D02*
X11367967Y-17704436D01*
X11367967Y-17704436D02*
X11377491Y-17685389D01*
X11377491Y-17685389D02*
X11377491Y-17637770D01*
X11377491Y-17637770D02*
X11367967Y-17618722D01*
X11367967Y-17618722D02*
X11358444Y-17609198D01*
X11358444Y-17609198D02*
X11339396Y-17599674D01*
X11339396Y-17599674D02*
X11301301Y-17599674D01*
X11301301Y-17599674D02*
X11282253Y-17609198D01*
X11282253Y-17609198D02*
X11272729Y-17618722D01*
X11272729Y-17618722D02*
X11263206Y-17637770D01*
X11548920Y-17523484D02*
X11510825Y-17523484D01*
X11510825Y-17523484D02*
X11491777Y-17533008D01*
X11491777Y-17533008D02*
X11482253Y-17542531D01*
X11482253Y-17542531D02*
X11463206Y-17571103D01*
X11463206Y-17571103D02*
X11453682Y-17609198D01*
X11453682Y-17609198D02*
X11453682Y-17685389D01*
X11453682Y-17685389D02*
X11463206Y-17704436D01*
X11463206Y-17704436D02*
X11472729Y-17713960D01*
X11472729Y-17713960D02*
X11491777Y-17723484D01*
X11491777Y-17723484D02*
X11529872Y-17723484D01*
X11529872Y-17723484D02*
X11548920Y-17713960D01*
X11548920Y-17713960D02*
X11558444Y-17704436D01*
X11558444Y-17704436D02*
X11567967Y-17685389D01*
X11567967Y-17685389D02*
X11567967Y-17637770D01*
X11567967Y-17637770D02*
X11558444Y-17618722D01*
X11558444Y-17618722D02*
X11548920Y-17609198D01*
X11548920Y-17609198D02*
X11529872Y-17599674D01*
X11529872Y-17599674D02*
X11491777Y-17599674D01*
X11491777Y-17599674D02*
X11472729Y-17609198D01*
X11472729Y-17609198D02*
X11463206Y-17618722D01*
X11463206Y-17618722D02*
X11453682Y-17637770D01*
X11663206Y-17723484D02*
X11701301Y-17723484D01*
X11701301Y-17723484D02*
X11720348Y-17713960D01*
X11720348Y-17713960D02*
X11729872Y-17704436D01*
X11729872Y-17704436D02*
X11748920Y-17675865D01*
X11748920Y-17675865D02*
X11758444Y-17637770D01*
X11758444Y-17637770D02*
X11758444Y-17561579D01*
X11758444Y-17561579D02*
X11748920Y-17542531D01*
X11748920Y-17542531D02*
X11739396Y-17533008D01*
X11739396Y-17533008D02*
X11720348Y-17523484D01*
X11720348Y-17523484D02*
X11682253Y-17523484D01*
X11682253Y-17523484D02*
X11663206Y-17533008D01*
X11663206Y-17533008D02*
X11653682Y-17542531D01*
X11653682Y-17542531D02*
X11644158Y-17561579D01*
X11644158Y-17561579D02*
X11644158Y-17609198D01*
X11644158Y-17609198D02*
X11653682Y-17628246D01*
X11653682Y-17628246D02*
X11663206Y-17637770D01*
X11663206Y-17637770D02*
X11682253Y-17647293D01*
X11682253Y-17647293D02*
X11720348Y-17647293D01*
X11720348Y-17647293D02*
X11739396Y-17637770D01*
X11739396Y-17637770D02*
X11748920Y-17628246D01*
X11748920Y-17628246D02*
X11758444Y-17609198D01*
X11834634Y-17523484D02*
X11834634Y-17561579D01*
X11910825Y-17523484D02*
X11910825Y-17561579D01*
X12206063Y-17799674D02*
X12196539Y-17790150D01*
X12196539Y-17790150D02*
X12177491Y-17761579D01*
X12177491Y-17761579D02*
X12167968Y-17742531D01*
X12167968Y-17742531D02*
X12158444Y-17713960D01*
X12158444Y-17713960D02*
X12148920Y-17666341D01*
X12148920Y-17666341D02*
X12148920Y-17628246D01*
X12148920Y-17628246D02*
X12158444Y-17580627D01*
X12158444Y-17580627D02*
X12167968Y-17552055D01*
X12167968Y-17552055D02*
X12177491Y-17533008D01*
X12177491Y-17533008D02*
X12196539Y-17504436D01*
X12196539Y-17504436D02*
X12206063Y-17494912D01*
X12272729Y-17542531D02*
X12282253Y-17533008D01*
X12282253Y-17533008D02*
X12301301Y-17523484D01*
X12301301Y-17523484D02*
X12348920Y-17523484D01*
X12348920Y-17523484D02*
X12367968Y-17533008D01*
X12367968Y-17533008D02*
X12377491Y-17542531D01*
X12377491Y-17542531D02*
X12387015Y-17561579D01*
X12387015Y-17561579D02*
X12387015Y-17580627D01*
X12387015Y-17580627D02*
X12377491Y-17609198D01*
X12377491Y-17609198D02*
X12263206Y-17723484D01*
X12263206Y-17723484D02*
X12387015Y-17723484D01*
X12625110Y-17723484D02*
X12625110Y-17523484D01*
X12710825Y-17723484D02*
X12710825Y-17618722D01*
X12710825Y-17618722D02*
X12701301Y-17599674D01*
X12701301Y-17599674D02*
X12682253Y-17590150D01*
X12682253Y-17590150D02*
X12653682Y-17590150D01*
X12653682Y-17590150D02*
X12634634Y-17599674D01*
X12634634Y-17599674D02*
X12625110Y-17609198D01*
X12834634Y-17723484D02*
X12815587Y-17713960D01*
X12815587Y-17713960D02*
X12806063Y-17704436D01*
X12806063Y-17704436D02*
X12796539Y-17685389D01*
X12796539Y-17685389D02*
X12796539Y-17628246D01*
X12796539Y-17628246D02*
X12806063Y-17609198D01*
X12806063Y-17609198D02*
X12815587Y-17599674D01*
X12815587Y-17599674D02*
X12834634Y-17590150D01*
X12834634Y-17590150D02*
X12863206Y-17590150D01*
X12863206Y-17590150D02*
X12882253Y-17599674D01*
X12882253Y-17599674D02*
X12891777Y-17609198D01*
X12891777Y-17609198D02*
X12901301Y-17628246D01*
X12901301Y-17628246D02*
X12901301Y-17685389D01*
X12901301Y-17685389D02*
X12891777Y-17704436D01*
X12891777Y-17704436D02*
X12882253Y-17713960D01*
X12882253Y-17713960D02*
X12863206Y-17723484D01*
X12863206Y-17723484D02*
X12834634Y-17723484D01*
X13015587Y-17723484D02*
X12996539Y-17713960D01*
X12996539Y-17713960D02*
X12987015Y-17694912D01*
X12987015Y-17694912D02*
X12987015Y-17523484D01*
X13167968Y-17713960D02*
X13148920Y-17723484D01*
X13148920Y-17723484D02*
X13110825Y-17723484D01*
X13110825Y-17723484D02*
X13091777Y-17713960D01*
X13091777Y-17713960D02*
X13082253Y-17694912D01*
X13082253Y-17694912D02*
X13082253Y-17618722D01*
X13082253Y-17618722D02*
X13091777Y-17599674D01*
X13091777Y-17599674D02*
X13110825Y-17590150D01*
X13110825Y-17590150D02*
X13148920Y-17590150D01*
X13148920Y-17590150D02*
X13167968Y-17599674D01*
X13167968Y-17599674D02*
X13177491Y-17618722D01*
X13177491Y-17618722D02*
X13177491Y-17637770D01*
X13177491Y-17637770D02*
X13082253Y-17656817D01*
X13253682Y-17713960D02*
X13272730Y-17723484D01*
X13272730Y-17723484D02*
X13310825Y-17723484D01*
X13310825Y-17723484D02*
X13329872Y-17713960D01*
X13329872Y-17713960D02*
X13339396Y-17694912D01*
X13339396Y-17694912D02*
X13339396Y-17685389D01*
X13339396Y-17685389D02*
X13329872Y-17666341D01*
X13329872Y-17666341D02*
X13310825Y-17656817D01*
X13310825Y-17656817D02*
X13282253Y-17656817D01*
X13282253Y-17656817D02*
X13263206Y-17647293D01*
X13263206Y-17647293D02*
X13253682Y-17628246D01*
X13253682Y-17628246D02*
X13253682Y-17618722D01*
X13253682Y-17618722D02*
X13263206Y-17599674D01*
X13263206Y-17599674D02*
X13282253Y-17590150D01*
X13282253Y-17590150D02*
X13310825Y-17590150D01*
X13310825Y-17590150D02*
X13329872Y-17599674D01*
X13406063Y-17799674D02*
X13415587Y-17790150D01*
X13415587Y-17790150D02*
X13434634Y-17761579D01*
X13434634Y-17761579D02*
X13444158Y-17742531D01*
X13444158Y-17742531D02*
X13453682Y-17713960D01*
X13453682Y-17713960D02*
X13463206Y-17666341D01*
X13463206Y-17666341D02*
X13463206Y-17628246D01*
X13463206Y-17628246D02*
X13453682Y-17580627D01*
X13453682Y-17580627D02*
X13444158Y-17552055D01*
X13444158Y-17552055D02*
X13434634Y-17533008D01*
X13434634Y-17533008D02*
X13415587Y-17504436D01*
X13415587Y-17504436D02*
X13406063Y-17494912D01*
X8531000Y-17822000D02*
X8531000Y-18022000D01*
X8431000Y-17922000D02*
X8631000Y-17922000D01*
X8631000Y-17922000D02*
G75*
G03*
X8431000Y-17922000I-100000J0D01*
G01*
X8431000Y-17922000D02*
G75*
G03*
X8631000Y-17922000I100000J0D01*
G01*
X8882253Y-17832531D02*
X8891777Y-17823008D01*
X8891777Y-17823008D02*
X8910824Y-17813484D01*
X8910824Y-17813484D02*
X8958444Y-17813484D01*
X8958444Y-17813484D02*
X8977491Y-17823008D01*
X8977491Y-17823008D02*
X8987015Y-17832531D01*
X8987015Y-17832531D02*
X8996539Y-17851579D01*
X8996539Y-17851579D02*
X8996539Y-17870627D01*
X8996539Y-17870627D02*
X8987015Y-17899198D01*
X8987015Y-17899198D02*
X8872729Y-18013484D01*
X8872729Y-18013484D02*
X8996539Y-18013484D01*
X9082253Y-17994436D02*
X9091777Y-18003960D01*
X9091777Y-18003960D02*
X9082253Y-18013484D01*
X9082253Y-18013484D02*
X9072729Y-18003960D01*
X9072729Y-18003960D02*
X9082253Y-17994436D01*
X9082253Y-17994436D02*
X9082253Y-18013484D01*
X9282253Y-18013484D02*
X9167967Y-18013484D01*
X9225110Y-18013484D02*
X9225110Y-17813484D01*
X9225110Y-17813484D02*
X9206063Y-17842055D01*
X9206063Y-17842055D02*
X9187015Y-17861103D01*
X9187015Y-17861103D02*
X9167967Y-17870627D01*
X9406063Y-17813484D02*
X9425110Y-17813484D01*
X9425110Y-17813484D02*
X9444158Y-17823008D01*
X9444158Y-17823008D02*
X9453682Y-17832531D01*
X9453682Y-17832531D02*
X9463205Y-17851579D01*
X9463205Y-17851579D02*
X9472729Y-17889674D01*
X9472729Y-17889674D02*
X9472729Y-17937293D01*
X9472729Y-17937293D02*
X9463205Y-17975389D01*
X9463205Y-17975389D02*
X9453682Y-17994436D01*
X9453682Y-17994436D02*
X9444158Y-18003960D01*
X9444158Y-18003960D02*
X9425110Y-18013484D01*
X9425110Y-18013484D02*
X9406063Y-18013484D01*
X9406063Y-18013484D02*
X9387015Y-18003960D01*
X9387015Y-18003960D02*
X9377491Y-17994436D01*
X9377491Y-17994436D02*
X9367967Y-17975389D01*
X9367967Y-17975389D02*
X9358444Y-17937293D01*
X9358444Y-17937293D02*
X9358444Y-17889674D01*
X9358444Y-17889674D02*
X9367967Y-17851579D01*
X9367967Y-17851579D02*
X9377491Y-17832531D01*
X9377491Y-17832531D02*
X9387015Y-17823008D01*
X9387015Y-17823008D02*
X9406063Y-17813484D01*
X9596539Y-17813484D02*
X9615586Y-17813484D01*
X9615586Y-17813484D02*
X9634634Y-17823008D01*
X9634634Y-17823008D02*
X9644158Y-17832531D01*
X9644158Y-17832531D02*
X9653682Y-17851579D01*
X9653682Y-17851579D02*
X9663205Y-17889674D01*
X9663205Y-17889674D02*
X9663205Y-17937293D01*
X9663205Y-17937293D02*
X9653682Y-17975389D01*
X9653682Y-17975389D02*
X9644158Y-17994436D01*
X9644158Y-17994436D02*
X9634634Y-18003960D01*
X9634634Y-18003960D02*
X9615586Y-18013484D01*
X9615586Y-18013484D02*
X9596539Y-18013484D01*
X9596539Y-18013484D02*
X9577491Y-18003960D01*
X9577491Y-18003960D02*
X9567967Y-17994436D01*
X9567967Y-17994436D02*
X9558444Y-17975389D01*
X9558444Y-17975389D02*
X9548920Y-17937293D01*
X9548920Y-17937293D02*
X9548920Y-17889674D01*
X9548920Y-17889674D02*
X9558444Y-17851579D01*
X9558444Y-17851579D02*
X9567967Y-17832531D01*
X9567967Y-17832531D02*
X9577491Y-17823008D01*
X9577491Y-17823008D02*
X9596539Y-17813484D01*
X9748920Y-18013484D02*
X9748920Y-17880150D01*
X9748920Y-17899198D02*
X9758444Y-17889674D01*
X9758444Y-17889674D02*
X9777491Y-17880150D01*
X9777491Y-17880150D02*
X9806063Y-17880150D01*
X9806063Y-17880150D02*
X9825110Y-17889674D01*
X9825110Y-17889674D02*
X9834634Y-17908722D01*
X9834634Y-17908722D02*
X9834634Y-18013484D01*
X9834634Y-17908722D02*
X9844158Y-17889674D01*
X9844158Y-17889674D02*
X9863205Y-17880150D01*
X9863205Y-17880150D02*
X9891777Y-17880150D01*
X9891777Y-17880150D02*
X9910825Y-17889674D01*
X9910825Y-17889674D02*
X9920348Y-17908722D01*
X9920348Y-17908722D02*
X9920348Y-18013484D01*
X10015586Y-18013484D02*
X10015586Y-17880150D01*
X10015586Y-17899198D02*
X10025110Y-17889674D01*
X10025110Y-17889674D02*
X10044158Y-17880150D01*
X10044158Y-17880150D02*
X10072729Y-17880150D01*
X10072729Y-17880150D02*
X10091777Y-17889674D01*
X10091777Y-17889674D02*
X10101301Y-17908722D01*
X10101301Y-17908722D02*
X10101301Y-18013484D01*
X10101301Y-17908722D02*
X10110825Y-17889674D01*
X10110825Y-17889674D02*
X10129872Y-17880150D01*
X10129872Y-17880150D02*
X10158444Y-17880150D01*
X10158444Y-17880150D02*
X10177491Y-17889674D01*
X10177491Y-17889674D02*
X10187015Y-17908722D01*
X10187015Y-17908722D02*
X10187015Y-18013484D01*
X10577491Y-17803960D02*
X10406063Y-18061103D01*
X10834634Y-17813484D02*
X10853682Y-17813484D01*
X10853682Y-17813484D02*
X10872729Y-17823008D01*
X10872729Y-17823008D02*
X10882253Y-17832531D01*
X10882253Y-17832531D02*
X10891777Y-17851579D01*
X10891777Y-17851579D02*
X10901301Y-17889674D01*
X10901301Y-17889674D02*
X10901301Y-17937293D01*
X10901301Y-17937293D02*
X10891777Y-17975389D01*
X10891777Y-17975389D02*
X10882253Y-17994436D01*
X10882253Y-17994436D02*
X10872729Y-18003960D01*
X10872729Y-18003960D02*
X10853682Y-18013484D01*
X10853682Y-18013484D02*
X10834634Y-18013484D01*
X10834634Y-18013484D02*
X10815587Y-18003960D01*
X10815587Y-18003960D02*
X10806063Y-17994436D01*
X10806063Y-17994436D02*
X10796539Y-17975389D01*
X10796539Y-17975389D02*
X10787015Y-17937293D01*
X10787015Y-17937293D02*
X10787015Y-17889674D01*
X10787015Y-17889674D02*
X10796539Y-17851579D01*
X10796539Y-17851579D02*
X10806063Y-17832531D01*
X10806063Y-17832531D02*
X10815587Y-17823008D01*
X10815587Y-17823008D02*
X10834634Y-17813484D01*
X10987015Y-17994436D02*
X10996539Y-18003960D01*
X10996539Y-18003960D02*
X10987015Y-18013484D01*
X10987015Y-18013484D02*
X10977491Y-18003960D01*
X10977491Y-18003960D02*
X10987015Y-17994436D01*
X10987015Y-17994436D02*
X10987015Y-18013484D01*
X11120348Y-17813484D02*
X11139396Y-17813484D01*
X11139396Y-17813484D02*
X11158444Y-17823008D01*
X11158444Y-17823008D02*
X11167968Y-17832531D01*
X11167968Y-17832531D02*
X11177491Y-17851579D01*
X11177491Y-17851579D02*
X11187015Y-17889674D01*
X11187015Y-17889674D02*
X11187015Y-17937293D01*
X11187015Y-17937293D02*
X11177491Y-17975389D01*
X11177491Y-17975389D02*
X11167968Y-17994436D01*
X11167968Y-17994436D02*
X11158444Y-18003960D01*
X11158444Y-18003960D02*
X11139396Y-18013484D01*
X11139396Y-18013484D02*
X11120348Y-18013484D01*
X11120348Y-18013484D02*
X11101301Y-18003960D01*
X11101301Y-18003960D02*
X11091777Y-17994436D01*
X11091777Y-17994436D02*
X11082253Y-17975389D01*
X11082253Y-17975389D02*
X11072729Y-17937293D01*
X11072729Y-17937293D02*
X11072729Y-17889674D01*
X11072729Y-17889674D02*
X11082253Y-17851579D01*
X11082253Y-17851579D02*
X11091777Y-17832531D01*
X11091777Y-17832531D02*
X11101301Y-17823008D01*
X11101301Y-17823008D02*
X11120348Y-17813484D01*
X11301301Y-17899198D02*
X11282253Y-17889674D01*
X11282253Y-17889674D02*
X11272729Y-17880150D01*
X11272729Y-17880150D02*
X11263206Y-17861103D01*
X11263206Y-17861103D02*
X11263206Y-17851579D01*
X11263206Y-17851579D02*
X11272729Y-17832531D01*
X11272729Y-17832531D02*
X11282253Y-17823008D01*
X11282253Y-17823008D02*
X11301301Y-17813484D01*
X11301301Y-17813484D02*
X11339396Y-17813484D01*
X11339396Y-17813484D02*
X11358444Y-17823008D01*
X11358444Y-17823008D02*
X11367967Y-17832531D01*
X11367967Y-17832531D02*
X11377491Y-17851579D01*
X11377491Y-17851579D02*
X11377491Y-17861103D01*
X11377491Y-17861103D02*
X11367967Y-17880150D01*
X11367967Y-17880150D02*
X11358444Y-17889674D01*
X11358444Y-17889674D02*
X11339396Y-17899198D01*
X11339396Y-17899198D02*
X11301301Y-17899198D01*
X11301301Y-17899198D02*
X11282253Y-17908722D01*
X11282253Y-17908722D02*
X11272729Y-17918246D01*
X11272729Y-17918246D02*
X11263206Y-17937293D01*
X11263206Y-17937293D02*
X11263206Y-17975389D01*
X11263206Y-17975389D02*
X11272729Y-17994436D01*
X11272729Y-17994436D02*
X11282253Y-18003960D01*
X11282253Y-18003960D02*
X11301301Y-18013484D01*
X11301301Y-18013484D02*
X11339396Y-18013484D01*
X11339396Y-18013484D02*
X11358444Y-18003960D01*
X11358444Y-18003960D02*
X11367967Y-17994436D01*
X11367967Y-17994436D02*
X11377491Y-17975389D01*
X11377491Y-17975389D02*
X11377491Y-17937293D01*
X11377491Y-17937293D02*
X11367967Y-17918246D01*
X11367967Y-17918246D02*
X11358444Y-17908722D01*
X11358444Y-17908722D02*
X11339396Y-17899198D01*
X11453682Y-17832531D02*
X11463206Y-17823008D01*
X11463206Y-17823008D02*
X11482253Y-17813484D01*
X11482253Y-17813484D02*
X11529872Y-17813484D01*
X11529872Y-17813484D02*
X11548920Y-17823008D01*
X11548920Y-17823008D02*
X11558444Y-17832531D01*
X11558444Y-17832531D02*
X11567967Y-17851579D01*
X11567967Y-17851579D02*
X11567967Y-17870627D01*
X11567967Y-17870627D02*
X11558444Y-17899198D01*
X11558444Y-17899198D02*
X11444158Y-18013484D01*
X11444158Y-18013484D02*
X11567967Y-18013484D01*
X11634634Y-17813484D02*
X11767967Y-17813484D01*
X11767967Y-17813484D02*
X11682253Y-18013484D01*
X11834634Y-17813484D02*
X11834634Y-17851579D01*
X11910825Y-17813484D02*
X11910825Y-17851579D01*
X12206063Y-18089674D02*
X12196539Y-18080150D01*
X12196539Y-18080150D02*
X12177491Y-18051579D01*
X12177491Y-18051579D02*
X12167968Y-18032531D01*
X12167968Y-18032531D02*
X12158444Y-18003960D01*
X12158444Y-18003960D02*
X12148920Y-17956341D01*
X12148920Y-17956341D02*
X12148920Y-17918246D01*
X12148920Y-17918246D02*
X12158444Y-17870627D01*
X12158444Y-17870627D02*
X12167968Y-17842055D01*
X12167968Y-17842055D02*
X12177491Y-17823008D01*
X12177491Y-17823008D02*
X12196539Y-17794436D01*
X12196539Y-17794436D02*
X12206063Y-17784912D01*
X12367968Y-17813484D02*
X12329872Y-17813484D01*
X12329872Y-17813484D02*
X12310825Y-17823008D01*
X12310825Y-17823008D02*
X12301301Y-17832531D01*
X12301301Y-17832531D02*
X12282253Y-17861103D01*
X12282253Y-17861103D02*
X12272729Y-17899198D01*
X12272729Y-17899198D02*
X12272729Y-17975389D01*
X12272729Y-17975389D02*
X12282253Y-17994436D01*
X12282253Y-17994436D02*
X12291777Y-18003960D01*
X12291777Y-18003960D02*
X12310825Y-18013484D01*
X12310825Y-18013484D02*
X12348920Y-18013484D01*
X12348920Y-18013484D02*
X12367968Y-18003960D01*
X12367968Y-18003960D02*
X12377491Y-17994436D01*
X12377491Y-17994436D02*
X12387015Y-17975389D01*
X12387015Y-17975389D02*
X12387015Y-17927770D01*
X12387015Y-17927770D02*
X12377491Y-17908722D01*
X12377491Y-17908722D02*
X12367968Y-17899198D01*
X12367968Y-17899198D02*
X12348920Y-17889674D01*
X12348920Y-17889674D02*
X12310825Y-17889674D01*
X12310825Y-17889674D02*
X12291777Y-17899198D01*
X12291777Y-17899198D02*
X12282253Y-17908722D01*
X12282253Y-17908722D02*
X12272729Y-17927770D01*
X12625110Y-18013484D02*
X12625110Y-17813484D01*
X12710825Y-18013484D02*
X12710825Y-17908722D01*
X12710825Y-17908722D02*
X12701301Y-17889674D01*
X12701301Y-17889674D02*
X12682253Y-17880150D01*
X12682253Y-17880150D02*
X12653682Y-17880150D01*
X12653682Y-17880150D02*
X12634634Y-17889674D01*
X12634634Y-17889674D02*
X12625110Y-17899198D01*
X12834634Y-18013484D02*
X12815587Y-18003960D01*
X12815587Y-18003960D02*
X12806063Y-17994436D01*
X12806063Y-17994436D02*
X12796539Y-17975389D01*
X12796539Y-17975389D02*
X12796539Y-17918246D01*
X12796539Y-17918246D02*
X12806063Y-17899198D01*
X12806063Y-17899198D02*
X12815587Y-17889674D01*
X12815587Y-17889674D02*
X12834634Y-17880150D01*
X12834634Y-17880150D02*
X12863206Y-17880150D01*
X12863206Y-17880150D02*
X12882253Y-17889674D01*
X12882253Y-17889674D02*
X12891777Y-17899198D01*
X12891777Y-17899198D02*
X12901301Y-17918246D01*
X12901301Y-17918246D02*
X12901301Y-17975389D01*
X12901301Y-17975389D02*
X12891777Y-17994436D01*
X12891777Y-17994436D02*
X12882253Y-18003960D01*
X12882253Y-18003960D02*
X12863206Y-18013484D01*
X12863206Y-18013484D02*
X12834634Y-18013484D01*
X13015587Y-18013484D02*
X12996539Y-18003960D01*
X12996539Y-18003960D02*
X12987015Y-17984912D01*
X12987015Y-17984912D02*
X12987015Y-17813484D01*
X13167968Y-18003960D02*
X13148920Y-18013484D01*
X13148920Y-18013484D02*
X13110825Y-18013484D01*
X13110825Y-18013484D02*
X13091777Y-18003960D01*
X13091777Y-18003960D02*
X13082253Y-17984912D01*
X13082253Y-17984912D02*
X13082253Y-17908722D01*
X13082253Y-17908722D02*
X13091777Y-17889674D01*
X13091777Y-17889674D02*
X13110825Y-17880150D01*
X13110825Y-17880150D02*
X13148920Y-17880150D01*
X13148920Y-17880150D02*
X13167968Y-17889674D01*
X13167968Y-17889674D02*
X13177491Y-17908722D01*
X13177491Y-17908722D02*
X13177491Y-17927770D01*
X13177491Y-17927770D02*
X13082253Y-17946817D01*
X13253682Y-18003960D02*
X13272730Y-18013484D01*
X13272730Y-18013484D02*
X13310825Y-18013484D01*
X13310825Y-18013484D02*
X13329872Y-18003960D01*
X13329872Y-18003960D02*
X13339396Y-17984912D01*
X13339396Y-17984912D02*
X13339396Y-17975389D01*
X13339396Y-17975389D02*
X13329872Y-17956341D01*
X13329872Y-17956341D02*
X13310825Y-17946817D01*
X13310825Y-17946817D02*
X13282253Y-17946817D01*
X13282253Y-17946817D02*
X13263206Y-17937293D01*
X13263206Y-17937293D02*
X13253682Y-17918246D01*
X13253682Y-17918246D02*
X13253682Y-17908722D01*
X13253682Y-17908722D02*
X13263206Y-17889674D01*
X13263206Y-17889674D02*
X13282253Y-17880150D01*
X13282253Y-17880150D02*
X13310825Y-17880150D01*
X13310825Y-17880150D02*
X13329872Y-17889674D01*
X13406063Y-18089674D02*
X13415587Y-18080150D01*
X13415587Y-18080150D02*
X13434634Y-18051579D01*
X13434634Y-18051579D02*
X13444158Y-18032531D01*
X13444158Y-18032531D02*
X13453682Y-18003960D01*
X13453682Y-18003960D02*
X13463206Y-17956341D01*
X13463206Y-17956341D02*
X13463206Y-17918246D01*
X13463206Y-17918246D02*
X13453682Y-17870627D01*
X13453682Y-17870627D02*
X13444158Y-17842055D01*
X13444158Y-17842055D02*
X13434634Y-17823008D01*
X13434634Y-17823008D02*
X13415587Y-17794436D01*
X13415587Y-17794436D02*
X13406063Y-17784912D01*
M02*
