%TF.GenerationSoftware,KiCad,Pcbnew,7.0.10*%
%TF.CreationDate,2024-07-25T14:37:52-06:00*%
%TF.ProjectId,Pressure-Controlled-Power-Outlet-control-PCB,50726573-7375-4726-952d-436f6e74726f,V1.3.1*%
%TF.SameCoordinates,Original*%
%TF.FileFunction,Copper,L4,Bot*%
%TF.FilePolarity,Positive*%
%FSLAX46Y46*%
G04 Gerber Fmt 4.6, Leading zero omitted, Abs format (unit mm)*
G04 Created by KiCad (PCBNEW 7.0.10) date 2024-07-25 14:37:52*
%MOMM*%
%LPD*%
G01*
G04 APERTURE LIST*
G04 Aperture macros list*
%AMRoundRect*
0 Rectangle with rounded corners*
0 $1 Rounding radius*
0 $2 $3 $4 $5 $6 $7 $8 $9 X,Y pos of 4 corners*
0 Add a 4 corners polygon primitive as box body*
4,1,4,$2,$3,$4,$5,$6,$7,$8,$9,$2,$3,0*
0 Add four circle primitives for the rounded corners*
1,1,$1+$1,$2,$3*
1,1,$1+$1,$4,$5*
1,1,$1+$1,$6,$7*
1,1,$1+$1,$8,$9*
0 Add four rect primitives between the rounded corners*
20,1,$1+$1,$2,$3,$4,$5,0*
20,1,$1+$1,$4,$5,$6,$7,0*
20,1,$1+$1,$6,$7,$8,$9,0*
20,1,$1+$1,$8,$9,$2,$3,0*%
G04 Aperture macros list end*
%TA.AperFunction,ComponentPad*%
%ADD10C,1.600000*%
%TD*%
%TA.AperFunction,ComponentPad*%
%ADD11O,1.600000X1.600000*%
%TD*%
%TA.AperFunction,ComponentPad*%
%ADD12R,1.500000X1.050000*%
%TD*%
%TA.AperFunction,ComponentPad*%
%ADD13O,1.500000X1.050000*%
%TD*%
%TA.AperFunction,ComponentPad*%
%ADD14R,1.905000X2.000000*%
%TD*%
%TA.AperFunction,ComponentPad*%
%ADD15O,1.905000X2.000000*%
%TD*%
%TA.AperFunction,ComponentPad*%
%ADD16R,1.050000X1.500000*%
%TD*%
%TA.AperFunction,ComponentPad*%
%ADD17O,1.050000X1.500000*%
%TD*%
%TA.AperFunction,ComponentPad*%
%ADD18R,3.200000X3.200000*%
%TD*%
%TA.AperFunction,ComponentPad*%
%ADD19O,3.200000X3.200000*%
%TD*%
%TA.AperFunction,ComponentPad*%
%ADD20R,3.150000X3.150000*%
%TD*%
%TA.AperFunction,ComponentPad*%
%ADD21C,3.150000*%
%TD*%
%TA.AperFunction,ComponentPad*%
%ADD22C,1.650000*%
%TD*%
%TA.AperFunction,ComponentPad*%
%ADD23C,5.700000*%
%TD*%
%TA.AperFunction,ComponentPad*%
%ADD24R,2.000000X1.905000*%
%TD*%
%TA.AperFunction,ComponentPad*%
%ADD25O,2.000000X1.905000*%
%TD*%
%TA.AperFunction,ComponentPad*%
%ADD26O,2.400000X1.600000*%
%TD*%
%TA.AperFunction,ComponentPad*%
%ADD27R,2.400000X1.600000*%
%TD*%
%TA.AperFunction,ComponentPad*%
%ADD28O,1.700000X1.700000*%
%TD*%
%TA.AperFunction,ComponentPad*%
%ADD29R,1.700000X1.700000*%
%TD*%
%TA.AperFunction,ComponentPad*%
%ADD30O,2.030000X1.730000*%
%TD*%
%TA.AperFunction,ComponentPad*%
%ADD31R,2.030000X1.730000*%
%TD*%
%TA.AperFunction,ComponentPad*%
%ADD32O,2.000000X1.700000*%
%TD*%
%TA.AperFunction,ComponentPad*%
%ADD33RoundRect,0.250000X-0.750000X0.600000X-0.750000X-0.600000X0.750000X-0.600000X0.750000X0.600000X0*%
%TD*%
%TA.AperFunction,ComponentPad*%
%ADD34C,2.550000*%
%TD*%
%TA.AperFunction,ComponentPad*%
%ADD35R,2.200000X2.200000*%
%TD*%
%TA.AperFunction,ComponentPad*%
%ADD36O,2.200000X2.200000*%
%TD*%
%TA.AperFunction,ComponentPad*%
%ADD37R,2.000000X2.000000*%
%TD*%
%TA.AperFunction,ComponentPad*%
%ADD38C,2.000000*%
%TD*%
%TA.AperFunction,ViaPad*%
%ADD39C,0.800000*%
%TD*%
%TA.AperFunction,Conductor*%
%ADD40C,0.250000*%
%TD*%
%TA.AperFunction,Conductor*%
%ADD41C,2.500000*%
%TD*%
G04 APERTURE END LIST*
D10*
%TO.P,R9,1*%
%TO.N,/Activate_Neutral*%
X109445000Y-100330000D03*
D11*
%TO.P,R9,2*%
%TO.N,Net-(Q1-B)*%
X111985000Y-100330000D03*
%TD*%
D10*
%TO.P,R8,1*%
%TO.N,/Activate_Live*%
X84045000Y-90805000D03*
D11*
%TO.P,R8,2*%
%TO.N,Net-(Q4-B)*%
X86585000Y-90805000D03*
%TD*%
D10*
%TO.P,R7,1*%
%TO.N,GND*%
X105410000Y-97155000D03*
D11*
%TO.P,R7,2*%
%TO.N,Net-(Q4-E)*%
X102870000Y-97155000D03*
%TD*%
D10*
%TO.P,R6,1*%
%TO.N,GND*%
X133125000Y-96520000D03*
D11*
%TO.P,R6,2*%
%TO.N,Net-(Q1-E)*%
X130585000Y-96520000D03*
%TD*%
D10*
%TO.P,R5,1*%
%TO.N,Net-(Q1-E)*%
X124460000Y-96295000D03*
D11*
%TO.P,R5,2*%
%TO.N,Net-(Q3-G)*%
X124460000Y-93755000D03*
%TD*%
D10*
%TO.P,R4,1*%
%TO.N,Net-(Q4-E)*%
X108585000Y-93120000D03*
D11*
%TO.P,R4,2*%
%TO.N,Net-(Q2-G)*%
X108585000Y-90580000D03*
%TD*%
D12*
%TO.P,Q4,1,E*%
%TO.N,Net-(Q4-E)*%
X92710000Y-97155000D03*
D13*
%TO.P,Q4,2,B*%
%TO.N,Net-(Q4-B)*%
X92710000Y-95885000D03*
%TO.P,Q4,3,C*%
%TO.N,+5V*%
X92710000Y-94615000D03*
%TD*%
D14*
%TO.P,Q3,1,G*%
%TO.N,Net-(Q3-G)*%
X124460000Y-87940000D03*
D15*
%TO.P,Q3,2,D*%
%TO.N,Net-(D2-A)*%
X127000000Y-87940000D03*
%TO.P,Q3,3,S*%
%TO.N,GND*%
X129540000Y-87940000D03*
%TD*%
D14*
%TO.P,Q2,1,G*%
%TO.N,Net-(Q2-G)*%
X96520000Y-89535000D03*
D15*
%TO.P,Q2,2,D*%
%TO.N,Net-(D1-A)*%
X99060000Y-89535000D03*
%TO.P,Q2,3,S*%
%TO.N,GND*%
X101600000Y-89535000D03*
%TD*%
D16*
%TO.P,Q1,1,E*%
%TO.N,Net-(Q1-E)*%
X118110000Y-100690000D03*
D17*
%TO.P,Q1,2,B*%
%TO.N,Net-(Q1-B)*%
X119380000Y-100690000D03*
%TO.P,Q1,3,C*%
%TO.N,+5V*%
X120650000Y-100690000D03*
%TD*%
D18*
%TO.P,D2,1,K*%
%TO.N,+24V*%
X142240000Y-80010000D03*
D19*
%TO.P,D2,2,A*%
%TO.N,Net-(D2-A)*%
X127000000Y-80010000D03*
%TD*%
D18*
%TO.P,D1,1,K*%
%TO.N,+24V*%
X114300000Y-81280000D03*
D19*
%TO.P,D1,2,A*%
%TO.N,Net-(D1-A)*%
X99060000Y-81280000D03*
%TD*%
D20*
%TO.P,K2,1,NC*%
%TO.N,unconnected-(K2-NC-Pad1)*%
X142470000Y-48520000D03*
D21*
%TO.P,K2,2,NO*%
%TO.N,unconnected-(K2-NO-Pad2)*%
X142470000Y-56140000D03*
D22*
%TO.P,K2,3,COIL_1*%
%TO.N,+24V*%
X138660000Y-71380000D03*
%TO.P,K2,4,COIL_2*%
%TO.N,Net-(D2-A)*%
X128500000Y-71380000D03*
D21*
%TO.P,K2,5,COM*%
%TO.N,unconnected-(K2-COM-Pad5)*%
X124690000Y-58680000D03*
%TD*%
D20*
%TO.P,K1,1,NC*%
%TO.N,unconnected-(K1-NC-Pad1)*%
X115800000Y-48520000D03*
D21*
%TO.P,K1,2,NO*%
%TO.N,unconnected-(K1-NO-Pad2)*%
X115800000Y-56140000D03*
D22*
%TO.P,K1,3,COIL_1*%
%TO.N,+24V*%
X111990000Y-71380000D03*
%TO.P,K1,4,COIL_2*%
%TO.N,Net-(D1-A)*%
X101830000Y-71380000D03*
D21*
%TO.P,K1,5,COM*%
%TO.N,unconnected-(K1-COM-Pad5)*%
X98020000Y-58680000D03*
%TD*%
D10*
%TO.P,R1,1*%
%TO.N,Net-(U2A-+)*%
X66265000Y-102235000D03*
D11*
%TO.P,R1,2*%
%TO.N,/Water Pressure 5V*%
X68805000Y-102235000D03*
%TD*%
D23*
%TO.P,H4,1,1*%
%TO.N,GND*%
X149225000Y-146685000D03*
%TD*%
%TO.P,H3,1,1*%
%TO.N,GND*%
X48895000Y-146685000D03*
%TD*%
%TO.P,H2,1,1*%
%TO.N,GND*%
X149225000Y-46355000D03*
%TD*%
%TO.P,H1,1,1*%
%TO.N,GND*%
X48895000Y-46355000D03*
%TD*%
D24*
%TO.P,U4,1,GND*%
%TO.N,GND*%
X114610000Y-118745000D03*
D25*
%TO.P,U4,2,VO*%
%TO.N,+12V*%
X114610000Y-116205000D03*
%TO.P,U4,3,VI*%
%TO.N,+24V*%
X114610000Y-113665000D03*
%TD*%
D14*
%TO.P,U3,1,VI*%
%TO.N,+24V*%
X92075000Y-108910000D03*
D15*
%TO.P,U3,2,GND*%
%TO.N,GND*%
X89535000Y-108910000D03*
%TO.P,U3,3,VO*%
%TO.N,+5V*%
X86995000Y-108910000D03*
%TD*%
D26*
%TO.P,U2,14*%
%TO.N,N/C*%
X79995000Y-101595000D03*
%TO.P,U2,13*%
X79995000Y-104135000D03*
%TO.P,U2,12*%
X79995000Y-106675000D03*
%TO.P,U2,11,V-*%
%TO.N,GND*%
X79995000Y-109215000D03*
%TO.P,U2,10*%
%TO.N,N/C*%
X79995000Y-111755000D03*
%TO.P,U2,9*%
X79995000Y-114295000D03*
%TO.P,U2,8*%
X79995000Y-116835000D03*
%TO.P,U2,7*%
X72375000Y-116835000D03*
%TO.P,U2,6*%
X72375000Y-114295000D03*
%TO.P,U2,5*%
X72375000Y-111755000D03*
%TO.P,U2,4,V+*%
%TO.N,+5V*%
X72375000Y-109215000D03*
%TO.P,U2,3,+*%
%TO.N,Net-(U2A-+)*%
X72375000Y-106675000D03*
%TO.P,U2,2,-*%
%TO.N,/ADC0*%
X72375000Y-104135000D03*
D27*
%TO.P,U2,1*%
X72375000Y-101595000D03*
%TD*%
D28*
%TO.P,U1,43,SWDIO*%
%TO.N,unconnected-(U1-SWDIO-Pad43)*%
X66155000Y-95655000D03*
D29*
%TO.P,U1,42,GND*%
%TO.N,GND*%
X63615000Y-95655000D03*
D28*
%TO.P,U1,41,SWCLK*%
%TO.N,unconnected-(U1-SWCLK-Pad41)*%
X61075000Y-95655000D03*
%TO.P,U1,40,VBUS*%
%TO.N,+5V*%
X72505000Y-47625000D03*
%TO.P,U1,39,VSYS*%
%TO.N,unconnected-(U1-VSYS-Pad39)*%
X72505000Y-50165000D03*
D29*
%TO.P,U1,38,GND*%
%TO.N,GND*%
X72505000Y-52705000D03*
D28*
%TO.P,U1,37,3V3_EN*%
%TO.N,unconnected-(U1-3V3_EN-Pad37)*%
X72505000Y-55245000D03*
%TO.P,U1,36,3V3*%
%TO.N,+3.3V*%
X72505000Y-57785000D03*
%TO.P,U1,35,ADC_VREF*%
%TO.N,unconnected-(U1-ADC_VREF-Pad35)*%
X72505000Y-60325000D03*
%TO.P,U1,34,GPIO28_ADC2*%
%TO.N,unconnected-(U1-GPIO28_ADC2-Pad34)*%
X72505000Y-62865000D03*
D29*
%TO.P,U1,33,AGND*%
%TO.N,Net-(U1-AGND)*%
X72505000Y-65405000D03*
D28*
%TO.P,U1,32,GPIO27_ADC1*%
%TO.N,unconnected-(U1-GPIO27_ADC1-Pad32)*%
X72505000Y-67945000D03*
%TO.P,U1,31,GPIO26_ADC0*%
%TO.N,/ADC0*%
X72505000Y-70485000D03*
%TO.P,U1,30,RUN*%
%TO.N,unconnected-(U1-RUN-Pad30)*%
X72505000Y-73025000D03*
%TO.P,U1,29,GPIO22*%
%TO.N,unconnected-(U1-GPIO22-Pad29)*%
X72505000Y-75565000D03*
D29*
%TO.P,U1,28,GND*%
%TO.N,GND*%
X72505000Y-78105000D03*
D28*
%TO.P,U1,27,GPIO21*%
%TO.N,unconnected-(U1-GPIO21-Pad27)*%
X72505000Y-80645000D03*
%TO.P,U1,26,GPIO20*%
%TO.N,unconnected-(U1-GPIO20-Pad26)*%
X72505000Y-83185000D03*
%TO.P,U1,25,GPIO19*%
%TO.N,/Activate_Live*%
X72505000Y-85725000D03*
%TO.P,U1,24,GPIO18*%
%TO.N,/Activate_Neutral*%
X72505000Y-88265000D03*
D29*
%TO.P,U1,23,GND*%
%TO.N,GND*%
X72505000Y-90805000D03*
D28*
%TO.P,U1,22,GPIO17*%
%TO.N,unconnected-(U1-GPIO17-Pad22)*%
X72505000Y-93345000D03*
%TO.P,U1,21,GPIO16*%
%TO.N,unconnected-(U1-GPIO16-Pad21)*%
X72505000Y-95885000D03*
%TO.P,U1,20,GPIO15*%
%TO.N,/FanB_Tac*%
X54725000Y-95885000D03*
%TO.P,U1,19,GPIO14*%
%TO.N,/FanB_PWM*%
X54725000Y-93345000D03*
D29*
%TO.P,U1,18,GND*%
%TO.N,GND*%
X54725000Y-90805000D03*
D28*
%TO.P,U1,17,GPIO13*%
%TO.N,/FanA_Tac*%
X54725000Y-88265000D03*
%TO.P,U1,16,GPIO12*%
%TO.N,/FanA_PWM*%
X54725000Y-85725000D03*
%TO.P,U1,15,GPIO11*%
%TO.N,unconnected-(U1-GPIO11-Pad15)*%
X54725000Y-83185000D03*
%TO.P,U1,14,GPIO10*%
%TO.N,/SPI1_TX*%
X54725000Y-80645000D03*
D29*
%TO.P,U1,13,GND*%
%TO.N,GND*%
X54725000Y-78105000D03*
D28*
%TO.P,U1,12,GPIO9*%
%TO.N,/SPI1_CSn*%
X54725000Y-75565000D03*
%TO.P,U1,11,GPIO8*%
%TO.N,/SPI1_RX*%
X54725000Y-73025000D03*
%TO.P,U1,10,GPIO7*%
%TO.N,unconnected-(U1-GPIO7-Pad10)*%
X54725000Y-70485000D03*
%TO.P,U1,9,GPIO6*%
%TO.N,unconnected-(U1-GPIO6-Pad9)*%
X54725000Y-67945000D03*
D29*
%TO.P,U1,8,GND*%
%TO.N,GND*%
X54725000Y-65405000D03*
D28*
%TO.P,U1,7,GPIO5*%
%TO.N,/I2C0_SCL*%
X54725000Y-62865000D03*
%TO.P,U1,6,GPIO4*%
%TO.N,/I2C0_SDA*%
X54725000Y-60325000D03*
%TO.P,U1,5,GPIO3*%
%TO.N,unconnected-(U1-GPIO3-Pad5)*%
X54725000Y-57785000D03*
%TO.P,U1,4,GPIO2*%
%TO.N,unconnected-(U1-GPIO2-Pad4)*%
X54725000Y-55245000D03*
D29*
%TO.P,U1,3,GND*%
%TO.N,GND*%
X54725000Y-52705000D03*
D28*
%TO.P,U1,2,GPIO1*%
%TO.N,unconnected-(U1-GPIO1-Pad2)*%
X54725000Y-50165000D03*
%TO.P,U1,1,GPIO0*%
%TO.N,unconnected-(U1-GPIO0-Pad1)*%
X54725000Y-47625000D03*
%TD*%
D10*
%TO.P,R17,1*%
%TO.N,GND*%
X107315000Y-142240000D03*
D11*
%TO.P,R17,2*%
%TO.N,/FanB_Tac*%
X104775000Y-142240000D03*
%TD*%
D10*
%TO.P,R16,1*%
%TO.N,Net-(Q8-B)*%
X89535000Y-141605000D03*
D11*
%TO.P,R16,2*%
%TO.N,Net-(M2-Tacho)*%
X86995000Y-141605000D03*
%TD*%
D10*
%TO.P,R15,1*%
%TO.N,GND*%
X107315000Y-133350000D03*
D11*
%TO.P,R15,2*%
%TO.N,Net-(M2-PWM)*%
X104775000Y-133350000D03*
%TD*%
D10*
%TO.P,R14,1*%
%TO.N,GND*%
X75565000Y-123190000D03*
D11*
%TO.P,R14,2*%
%TO.N,Net-(M1-PWM)*%
X73025000Y-123190000D03*
%TD*%
D10*
%TO.P,R13,1*%
%TO.N,GND*%
X88900000Y-124460000D03*
D11*
%TO.P,R13,2*%
%TO.N,/FanA_Tac*%
X86360000Y-124460000D03*
%TD*%
D10*
%TO.P,R12,1*%
%TO.N,Net-(Q7-B)*%
X69215000Y-127635000D03*
D11*
%TO.P,R12,2*%
%TO.N,Net-(M1-Tacho)*%
X66675000Y-127635000D03*
%TD*%
D10*
%TO.P,R11,1*%
%TO.N,/FanB_PWM*%
X103730000Y-127000000D03*
D11*
%TO.P,R11,2*%
%TO.N,Net-(Q6-B)*%
X106270000Y-127000000D03*
%TD*%
D10*
%TO.P,R10,1*%
%TO.N,/FanA_PWM*%
X65405000Y-111760000D03*
D11*
%TO.P,R10,2*%
%TO.N,Net-(Q5-B)*%
X65405000Y-114300000D03*
%TD*%
D10*
%TO.P,R3,1*%
%TO.N,Net-(U1-AGND)*%
X78740000Y-73025000D03*
D11*
%TO.P,R3,2*%
%TO.N,GND*%
X78740000Y-75565000D03*
%TD*%
D10*
%TO.P,R2,1*%
%TO.N,Net-(U2A-+)*%
X68580000Y-106680000D03*
D11*
%TO.P,R2,2*%
%TO.N,GND*%
X66040000Y-106680000D03*
%TD*%
D13*
%TO.P,Q8,3,C*%
%TO.N,+3.3V*%
X98785000Y-139700000D03*
%TO.P,Q8,2,B*%
%TO.N,Net-(Q8-B)*%
X98785000Y-140970000D03*
D12*
%TO.P,Q8,1,E*%
%TO.N,/FanB_Tac*%
X98785000Y-142240000D03*
%TD*%
D17*
%TO.P,Q7,3,C*%
%TO.N,+3.3V*%
X83185000Y-122915000D03*
%TO.P,Q7,2,B*%
%TO.N,Net-(Q7-B)*%
X81915000Y-122915000D03*
D16*
%TO.P,Q7,1,E*%
%TO.N,/FanA_Tac*%
X80645000Y-122915000D03*
%TD*%
D13*
%TO.P,Q6,3,C*%
%TO.N,+5V*%
X99060000Y-130810000D03*
%TO.P,Q6,2,B*%
%TO.N,Net-(Q6-B)*%
X99060000Y-132080000D03*
D12*
%TO.P,Q6,1,E*%
%TO.N,Net-(M2-PWM)*%
X99060000Y-133350000D03*
%TD*%
D17*
%TO.P,Q5,3,C*%
%TO.N,+5V*%
X69215000Y-121285000D03*
%TO.P,Q5,2,B*%
%TO.N,Net-(Q5-B)*%
X67945000Y-121285000D03*
D16*
%TO.P,Q5,1,E*%
%TO.N,Net-(M1-PWM)*%
X66675000Y-121285000D03*
%TD*%
D30*
%TO.P,M2,4,PWM*%
%TO.N,Net-(M2-PWM)*%
X53340000Y-133985000D03*
%TO.P,M2,3,Tacho*%
%TO.N,Net-(M2-Tacho)*%
X53340000Y-136525000D03*
%TO.P,M2,2,+*%
%TO.N,/FanB_Power*%
X53340000Y-139065000D03*
D31*
%TO.P,M2,1,-*%
%TO.N,GND*%
X53340000Y-141605000D03*
%TD*%
%TO.P,M1,1,-*%
%TO.N,GND*%
X53340000Y-129540000D03*
D30*
%TO.P,M1,2,+*%
%TO.N,/FanA_Power*%
X53340000Y-127000000D03*
%TO.P,M1,3,Tacho*%
%TO.N,Net-(M1-Tacho)*%
X53340000Y-124460000D03*
%TO.P,M1,4,PWM*%
%TO.N,Net-(M1-PWM)*%
X53340000Y-121920000D03*
%TD*%
D29*
%TO.P,J10,1,Pin_1*%
%TO.N,+5V*%
X57150000Y-114935000D03*
D28*
%TO.P,J10,2,Pin_2*%
%TO.N,GND*%
X57150000Y-117475000D03*
%TD*%
D32*
%TO.P,J7,2,Pin_2*%
%TO.N,GND*%
X52705000Y-116840000D03*
D33*
%TO.P,J7,1,Pin_1*%
%TO.N,+5V*%
X52705000Y-114340000D03*
%TD*%
D29*
%TO.P,J6,1,Pin_1*%
%TO.N,+12V*%
X91440000Y-134605000D03*
D28*
%TO.P,J6,2,Pin_2*%
%TO.N,/FanB_Power*%
X91440000Y-132065000D03*
%TO.P,J6,3,Pin_3*%
%TO.N,+5V*%
X91440000Y-129525000D03*
%TD*%
D29*
%TO.P,J5,1,Pin_1*%
%TO.N,+12V*%
X79375000Y-134620000D03*
D28*
%TO.P,J5,2,Pin_2*%
%TO.N,/FanA_Power*%
X79375000Y-132080000D03*
%TO.P,J5,3,Pin_3*%
%TO.N,+5V*%
X79375000Y-129540000D03*
%TD*%
D29*
%TO.P,J4,1,Pin_1*%
%TO.N,+5V*%
X143510000Y-99060000D03*
D28*
%TO.P,J4,2,Pin_2*%
%TO.N,+3.3V*%
X143510000Y-101600000D03*
%TO.P,J4,3,Pin_3*%
%TO.N,/SPI1_RX*%
X143510000Y-104140000D03*
%TO.P,J4,4,Pin_4*%
%TO.N,/SPI1_TX*%
X143510000Y-106680000D03*
%TO.P,J4,5,Pin_5*%
%TO.N,/SPI1_CSn*%
X143510000Y-109220000D03*
%TO.P,J4,6,Pin_6*%
%TO.N,GND*%
X143510000Y-111760000D03*
%TD*%
%TO.P,J3,5,Pin_5*%
%TO.N,GND*%
X143510000Y-128270000D03*
%TO.P,J3,4,Pin_4*%
%TO.N,/I2C0_SCL*%
X143510000Y-125730000D03*
%TO.P,J3,3,Pin_3*%
%TO.N,/I2C0_SDA*%
X143510000Y-123190000D03*
%TO.P,J3,2,Pin_2*%
%TO.N,+3.3V*%
X143510000Y-120650000D03*
D29*
%TO.P,J3,1,Pin_1*%
%TO.N,+5V*%
X143510000Y-118110000D03*
%TD*%
D34*
%TO.P,J2,1,1*%
%TO.N,GND*%
X86382500Y-64110000D03*
%TO.P,J2,2,2*%
%TO.N,+24V*%
X80032500Y-54610000D03*
%TD*%
D29*
%TO.P,J1,1,Pin_1*%
%TO.N,/Water Pressure 5V*%
X51435000Y-107300000D03*
D28*
%TO.P,J1,2,Pin_2*%
%TO.N,+5V*%
X51435000Y-104760000D03*
%TO.P,J1,3,Pin_3*%
%TO.N,GND*%
X51435000Y-102220000D03*
%TD*%
D35*
%TO.P,D4,1,K*%
%TO.N,+12V*%
X114300000Y-136525000D03*
D36*
%TO.P,D4,2,A*%
%TO.N,GND*%
X114300000Y-126365000D03*
%TD*%
D35*
%TO.P,D3,1,K*%
%TO.N,+5V*%
X60960000Y-109220000D03*
D36*
%TO.P,D3,2,A*%
%TO.N,GND*%
X60960000Y-119380000D03*
%TD*%
D10*
%TO.P,C7,1*%
%TO.N,+5V*%
X57150000Y-101005000D03*
%TO.P,C7,2*%
%TO.N,GND*%
X57150000Y-106005000D03*
%TD*%
%TO.P,C6,1*%
%TO.N,+3.3V*%
X139065000Y-125810000D03*
%TO.P,C6,2*%
%TO.N,GND*%
X139065000Y-130810000D03*
%TD*%
D37*
%TO.P,C4,1*%
%TO.N,+12V*%
X120730000Y-123825000D03*
D38*
%TO.P,C4,2*%
%TO.N,GND*%
X125730000Y-123825000D03*
%TD*%
D37*
%TO.P,C3,1*%
%TO.N,+24V*%
X99867323Y-107315000D03*
D38*
%TO.P,C3,2*%
%TO.N,GND*%
X104867323Y-107315000D03*
%TD*%
D37*
%TO.P,C2,1*%
%TO.N,+5V*%
X93980000Y-116377323D03*
D38*
%TO.P,C2,2*%
%TO.N,GND*%
X93980000Y-121377323D03*
%TD*%
D37*
%TO.P,C1,1*%
%TO.N,+24V*%
X86360000Y-71835000D03*
D38*
%TO.P,C1,2*%
%TO.N,GND*%
X86360000Y-76835000D03*
%TD*%
D39*
%TO.N,/I2C0_SDA*%
X67310000Y-89535000D03*
%TO.N,/I2C0_SCL*%
X66040000Y-88900000D03*
%TO.N,/SPI1_CSn*%
X65405000Y-85725000D03*
%TO.N,+3.3V*%
X83820000Y-133350000D03*
%TD*%
D40*
%TO.N,/I2C0_SDA*%
X123825000Y-104775000D02*
X142240000Y-123190000D01*
X82175812Y-99325000D02*
X87625812Y-104775000D01*
X87625812Y-104775000D02*
X123825000Y-104775000D01*
X70112208Y-99325000D02*
X82175812Y-99325000D01*
X142240000Y-123190000D02*
X143510000Y-123190000D01*
X68315000Y-97527792D02*
X70112208Y-99325000D01*
X68315000Y-90540000D02*
X68315000Y-97527792D01*
X67310000Y-89535000D02*
X68315000Y-90540000D01*
%TO.N,Net-(U2A-+)*%
X68580000Y-104550000D02*
X66265000Y-102235000D01*
X68580000Y-106680000D02*
X68580000Y-104550000D01*
%TO.N,/I2C0_SCL*%
X87624416Y-105410000D02*
X123190000Y-105410000D01*
X81989416Y-99775000D02*
X87624416Y-105410000D01*
X69925812Y-99775000D02*
X81989416Y-99775000D01*
X123190000Y-105410000D02*
X143510000Y-125730000D01*
X67865000Y-97714188D02*
X69925812Y-99775000D01*
X66040000Y-89615000D02*
X67865000Y-91440000D01*
X67865000Y-91440000D02*
X67865000Y-97714188D01*
X66040000Y-88900000D02*
X66040000Y-89615000D01*
%TO.N,/SPI1_CSn*%
X82362208Y-98875000D02*
X87627208Y-104140000D01*
X87627208Y-104140000D02*
X138430000Y-104140000D01*
X70298604Y-98875000D02*
X82362208Y-98875000D01*
X68765000Y-89085000D02*
X68765000Y-97341396D01*
X68765000Y-97341396D02*
X70298604Y-98875000D01*
X65405000Y-85725000D02*
X68765000Y-89085000D01*
X138430000Y-104140000D02*
X143510000Y-109220000D01*
%TO.N,/SPI1_TX*%
X61595000Y-80645000D02*
X54725000Y-80645000D01*
X69215000Y-88265000D02*
X61595000Y-80645000D01*
X69215000Y-97155000D02*
X69215000Y-88265000D01*
X70485000Y-98425000D02*
X69215000Y-97155000D01*
X87628604Y-103505000D02*
X82548604Y-98425000D01*
X82548604Y-98425000D02*
X70485000Y-98425000D01*
X140335000Y-103505000D02*
X87628604Y-103505000D01*
X143510000Y-106680000D02*
X140335000Y-103505000D01*
%TO.N,/SPI1_RX*%
X69665000Y-87965000D02*
X54725000Y-73025000D01*
X70671396Y-97975000D02*
X69665000Y-96968604D01*
X140336396Y-102870000D02*
X87630000Y-102870000D01*
X82735000Y-97975000D02*
X70671396Y-97975000D01*
X69665000Y-96968604D02*
X69665000Y-87965000D01*
X141606396Y-104140000D02*
X140336396Y-102870000D01*
X143510000Y-104140000D02*
X141606396Y-104140000D01*
X87630000Y-102870000D02*
X82735000Y-97975000D01*
%TO.N,/FanA_PWM*%
X64585000Y-104472208D02*
X64585000Y-110940000D01*
X57208896Y-97096104D02*
X64585000Y-104472208D01*
X64585000Y-110940000D02*
X65405000Y-111760000D01*
X57208896Y-88208896D02*
X57208896Y-97096104D01*
X54725000Y-85725000D02*
X57208896Y-88208896D01*
%TO.N,/FanB_PWM*%
X56515000Y-95135000D02*
X54725000Y-93345000D01*
X64135000Y-104658604D02*
X56515000Y-97038604D01*
X68560000Y-125095000D02*
X64135000Y-120670000D01*
X75565000Y-125095000D02*
X68560000Y-125095000D01*
X76835000Y-126365000D02*
X75565000Y-125095000D01*
X56515000Y-97038604D02*
X56515000Y-95135000D01*
X103730000Y-127000000D02*
X103095000Y-126365000D01*
X103095000Y-126365000D02*
X76835000Y-126365000D01*
X64135000Y-120670000D02*
X64135000Y-104658604D01*
%TO.N,/FanB_Tac*%
X97155000Y-142240000D02*
X98785000Y-142240000D01*
X94615000Y-139700000D02*
X97155000Y-142240000D01*
X92075000Y-127635000D02*
X94615000Y-130175000D01*
X76200000Y-127635000D02*
X92075000Y-127635000D01*
X94615000Y-130175000D02*
X94615000Y-139700000D01*
X66040000Y-125730000D02*
X74295000Y-125730000D01*
X74295000Y-125730000D02*
X76200000Y-127635000D01*
X63500000Y-104660000D02*
X63500000Y-123190000D01*
X54725000Y-95885000D02*
X63500000Y-104660000D01*
X63500000Y-123190000D02*
X66040000Y-125730000D01*
D41*
%TO.N,/FanA_Power*%
X57785000Y-127000000D02*
X53340000Y-127000000D01*
X62865000Y-132080000D02*
X57785000Y-127000000D01*
X79375000Y-132080000D02*
X62865000Y-132080000D01*
%TO.N,/FanB_Power*%
X81915000Y-139065000D02*
X53340000Y-139065000D01*
X91440000Y-132065000D02*
X88915000Y-132065000D01*
X88915000Y-132065000D02*
X81915000Y-139065000D01*
D40*
%TO.N,Net-(U2A-+)*%
X68585000Y-106675000D02*
X72375000Y-106675000D01*
%TD*%
M02*
