%TF.GenerationSoftware,KiCad,Pcbnew,7.0.10*%
%TF.CreationDate,2024-07-19T10:33:51-06:00*%
%TF.ProjectId,Pressure-Controlled-Power-Outlet-control-PCB,50726573-7375-4726-952d-436f6e74726f,V1.1.1*%
%TF.SameCoordinates,Original*%
%TF.FileFunction,Legend,Bot*%
%TF.FilePolarity,Positive*%
%FSLAX46Y46*%
G04 Gerber Fmt 4.6, Leading zero omitted, Abs format (unit mm)*
G04 Created by KiCad (PCBNEW 7.0.10) date 2024-07-19 10:33:51*
%MOMM*%
%LPD*%
G01*
G04 APERTURE LIST*
%ADD10C,0.150000*%
G04 APERTURE END LIST*
D10*
X90744874Y-114642561D02*
X90744874Y-116642561D01*
X90744874Y-116642561D02*
X91506779Y-116642561D01*
X91506779Y-116642561D02*
X91697255Y-116547323D01*
X91697255Y-116547323D02*
X91792493Y-116452085D01*
X91792493Y-116452085D02*
X91887731Y-116261609D01*
X91887731Y-116261609D02*
X91887731Y-115975895D01*
X91887731Y-115975895D02*
X91792493Y-115785419D01*
X91792493Y-115785419D02*
X91697255Y-115690180D01*
X91697255Y-115690180D02*
X91506779Y-115594942D01*
X91506779Y-115594942D02*
X90744874Y-115594942D01*
X92744874Y-114642561D02*
X92744874Y-115975895D01*
X92744874Y-115594942D02*
X92840112Y-115785419D01*
X92840112Y-115785419D02*
X92935350Y-115880657D01*
X92935350Y-115880657D02*
X93125826Y-115975895D01*
X93125826Y-115975895D02*
X93316303Y-115975895D01*
X94744874Y-114737800D02*
X94554398Y-114642561D01*
X94554398Y-114642561D02*
X94173445Y-114642561D01*
X94173445Y-114642561D02*
X93982969Y-114737800D01*
X93982969Y-114737800D02*
X93887731Y-114928276D01*
X93887731Y-114928276D02*
X93887731Y-115690180D01*
X93887731Y-115690180D02*
X93982969Y-115880657D01*
X93982969Y-115880657D02*
X94173445Y-115975895D01*
X94173445Y-115975895D02*
X94554398Y-115975895D01*
X94554398Y-115975895D02*
X94744874Y-115880657D01*
X94744874Y-115880657D02*
X94840112Y-115690180D01*
X94840112Y-115690180D02*
X94840112Y-115499704D01*
X94840112Y-115499704D02*
X93887731Y-115309228D01*
X95602017Y-114737800D02*
X95792493Y-114642561D01*
X95792493Y-114642561D02*
X96173445Y-114642561D01*
X96173445Y-114642561D02*
X96363922Y-114737800D01*
X96363922Y-114737800D02*
X96459160Y-114928276D01*
X96459160Y-114928276D02*
X96459160Y-115023514D01*
X96459160Y-115023514D02*
X96363922Y-115213990D01*
X96363922Y-115213990D02*
X96173445Y-115309228D01*
X96173445Y-115309228D02*
X95887731Y-115309228D01*
X95887731Y-115309228D02*
X95697255Y-115404466D01*
X95697255Y-115404466D02*
X95602017Y-115594942D01*
X95602017Y-115594942D02*
X95602017Y-115690180D01*
X95602017Y-115690180D02*
X95697255Y-115880657D01*
X95697255Y-115880657D02*
X95887731Y-115975895D01*
X95887731Y-115975895D02*
X96173445Y-115975895D01*
X96173445Y-115975895D02*
X96363922Y-115880657D01*
X97221065Y-114737800D02*
X97411541Y-114642561D01*
X97411541Y-114642561D02*
X97792493Y-114642561D01*
X97792493Y-114642561D02*
X97982970Y-114737800D01*
X97982970Y-114737800D02*
X98078208Y-114928276D01*
X98078208Y-114928276D02*
X98078208Y-115023514D01*
X98078208Y-115023514D02*
X97982970Y-115213990D01*
X97982970Y-115213990D02*
X97792493Y-115309228D01*
X97792493Y-115309228D02*
X97506779Y-115309228D01*
X97506779Y-115309228D02*
X97316303Y-115404466D01*
X97316303Y-115404466D02*
X97221065Y-115594942D01*
X97221065Y-115594942D02*
X97221065Y-115690180D01*
X97221065Y-115690180D02*
X97316303Y-115880657D01*
X97316303Y-115880657D02*
X97506779Y-115975895D01*
X97506779Y-115975895D02*
X97792493Y-115975895D01*
X97792493Y-115975895D02*
X97982970Y-115880657D01*
X99792494Y-115975895D02*
X99792494Y-114642561D01*
X98935351Y-115975895D02*
X98935351Y-114928276D01*
X98935351Y-114928276D02*
X99030589Y-114737800D01*
X99030589Y-114737800D02*
X99221065Y-114642561D01*
X99221065Y-114642561D02*
X99506780Y-114642561D01*
X99506780Y-114642561D02*
X99697256Y-114737800D01*
X99697256Y-114737800D02*
X99792494Y-114833038D01*
X100744875Y-114642561D02*
X100744875Y-115975895D01*
X100744875Y-115594942D02*
X100840113Y-115785419D01*
X100840113Y-115785419D02*
X100935351Y-115880657D01*
X100935351Y-115880657D02*
X101125827Y-115975895D01*
X101125827Y-115975895D02*
X101316304Y-115975895D01*
X102744875Y-114737800D02*
X102554399Y-114642561D01*
X102554399Y-114642561D02*
X102173446Y-114642561D01*
X102173446Y-114642561D02*
X101982970Y-114737800D01*
X101982970Y-114737800D02*
X101887732Y-114928276D01*
X101887732Y-114928276D02*
X101887732Y-115690180D01*
X101887732Y-115690180D02*
X101982970Y-115880657D01*
X101982970Y-115880657D02*
X102173446Y-115975895D01*
X102173446Y-115975895D02*
X102554399Y-115975895D01*
X102554399Y-115975895D02*
X102744875Y-115880657D01*
X102744875Y-115880657D02*
X102840113Y-115690180D01*
X102840113Y-115690180D02*
X102840113Y-115499704D01*
X102840113Y-115499704D02*
X101887732Y-115309228D01*
X106363923Y-114833038D02*
X106268685Y-114737800D01*
X106268685Y-114737800D02*
X105982971Y-114642561D01*
X105982971Y-114642561D02*
X105792495Y-114642561D01*
X105792495Y-114642561D02*
X105506780Y-114737800D01*
X105506780Y-114737800D02*
X105316304Y-114928276D01*
X105316304Y-114928276D02*
X105221066Y-115118752D01*
X105221066Y-115118752D02*
X105125828Y-115499704D01*
X105125828Y-115499704D02*
X105125828Y-115785419D01*
X105125828Y-115785419D02*
X105221066Y-116166371D01*
X105221066Y-116166371D02*
X105316304Y-116356847D01*
X105316304Y-116356847D02*
X105506780Y-116547323D01*
X105506780Y-116547323D02*
X105792495Y-116642561D01*
X105792495Y-116642561D02*
X105982971Y-116642561D01*
X105982971Y-116642561D02*
X106268685Y-116547323D01*
X106268685Y-116547323D02*
X106363923Y-116452085D01*
X107506780Y-114642561D02*
X107316304Y-114737800D01*
X107316304Y-114737800D02*
X107221066Y-114833038D01*
X107221066Y-114833038D02*
X107125828Y-115023514D01*
X107125828Y-115023514D02*
X107125828Y-115594942D01*
X107125828Y-115594942D02*
X107221066Y-115785419D01*
X107221066Y-115785419D02*
X107316304Y-115880657D01*
X107316304Y-115880657D02*
X107506780Y-115975895D01*
X107506780Y-115975895D02*
X107792495Y-115975895D01*
X107792495Y-115975895D02*
X107982971Y-115880657D01*
X107982971Y-115880657D02*
X108078209Y-115785419D01*
X108078209Y-115785419D02*
X108173447Y-115594942D01*
X108173447Y-115594942D02*
X108173447Y-115023514D01*
X108173447Y-115023514D02*
X108078209Y-114833038D01*
X108078209Y-114833038D02*
X107982971Y-114737800D01*
X107982971Y-114737800D02*
X107792495Y-114642561D01*
X107792495Y-114642561D02*
X107506780Y-114642561D01*
X109030590Y-115975895D02*
X109030590Y-114642561D01*
X109030590Y-115785419D02*
X109125828Y-115880657D01*
X109125828Y-115880657D02*
X109316304Y-115975895D01*
X109316304Y-115975895D02*
X109602019Y-115975895D01*
X109602019Y-115975895D02*
X109792495Y-115880657D01*
X109792495Y-115880657D02*
X109887733Y-115690180D01*
X109887733Y-115690180D02*
X109887733Y-114642561D01*
X110554400Y-115975895D02*
X111316304Y-115975895D01*
X110840114Y-116642561D02*
X110840114Y-114928276D01*
X110840114Y-114928276D02*
X110935352Y-114737800D01*
X110935352Y-114737800D02*
X111125828Y-114642561D01*
X111125828Y-114642561D02*
X111316304Y-114642561D01*
X111982971Y-114642561D02*
X111982971Y-115975895D01*
X111982971Y-115594942D02*
X112078209Y-115785419D01*
X112078209Y-115785419D02*
X112173447Y-115880657D01*
X112173447Y-115880657D02*
X112363923Y-115975895D01*
X112363923Y-115975895D02*
X112554400Y-115975895D01*
X113506780Y-114642561D02*
X113316304Y-114737800D01*
X113316304Y-114737800D02*
X113221066Y-114833038D01*
X113221066Y-114833038D02*
X113125828Y-115023514D01*
X113125828Y-115023514D02*
X113125828Y-115594942D01*
X113125828Y-115594942D02*
X113221066Y-115785419D01*
X113221066Y-115785419D02*
X113316304Y-115880657D01*
X113316304Y-115880657D02*
X113506780Y-115975895D01*
X113506780Y-115975895D02*
X113792495Y-115975895D01*
X113792495Y-115975895D02*
X113982971Y-115880657D01*
X113982971Y-115880657D02*
X114078209Y-115785419D01*
X114078209Y-115785419D02*
X114173447Y-115594942D01*
X114173447Y-115594942D02*
X114173447Y-115023514D01*
X114173447Y-115023514D02*
X114078209Y-114833038D01*
X114078209Y-114833038D02*
X113982971Y-114737800D01*
X113982971Y-114737800D02*
X113792495Y-114642561D01*
X113792495Y-114642561D02*
X113506780Y-114642561D01*
X115316304Y-114642561D02*
X115125828Y-114737800D01*
X115125828Y-114737800D02*
X115030590Y-114928276D01*
X115030590Y-114928276D02*
X115030590Y-116642561D01*
X116363923Y-114642561D02*
X116173447Y-114737800D01*
X116173447Y-114737800D02*
X116078209Y-114928276D01*
X116078209Y-114928276D02*
X116078209Y-116642561D01*
X117887733Y-114737800D02*
X117697257Y-114642561D01*
X117697257Y-114642561D02*
X117316304Y-114642561D01*
X117316304Y-114642561D02*
X117125828Y-114737800D01*
X117125828Y-114737800D02*
X117030590Y-114928276D01*
X117030590Y-114928276D02*
X117030590Y-115690180D01*
X117030590Y-115690180D02*
X117125828Y-115880657D01*
X117125828Y-115880657D02*
X117316304Y-115975895D01*
X117316304Y-115975895D02*
X117697257Y-115975895D01*
X117697257Y-115975895D02*
X117887733Y-115880657D01*
X117887733Y-115880657D02*
X117982971Y-115690180D01*
X117982971Y-115690180D02*
X117982971Y-115499704D01*
X117982971Y-115499704D02*
X117030590Y-115309228D01*
X119697257Y-114642561D02*
X119697257Y-116642561D01*
X119697257Y-114737800D02*
X119506781Y-114642561D01*
X119506781Y-114642561D02*
X119125828Y-114642561D01*
X119125828Y-114642561D02*
X118935352Y-114737800D01*
X118935352Y-114737800D02*
X118840114Y-114833038D01*
X118840114Y-114833038D02*
X118744876Y-115023514D01*
X118744876Y-115023514D02*
X118744876Y-115594942D01*
X118744876Y-115594942D02*
X118840114Y-115785419D01*
X118840114Y-115785419D02*
X118935352Y-115880657D01*
X118935352Y-115880657D02*
X119125828Y-115975895D01*
X119125828Y-115975895D02*
X119506781Y-115975895D01*
X119506781Y-115975895D02*
X119697257Y-115880657D01*
X122173448Y-114642561D02*
X122173448Y-116642561D01*
X122173448Y-116642561D02*
X122935353Y-116642561D01*
X122935353Y-116642561D02*
X123125829Y-116547323D01*
X123125829Y-116547323D02*
X123221067Y-116452085D01*
X123221067Y-116452085D02*
X123316305Y-116261609D01*
X123316305Y-116261609D02*
X123316305Y-115975895D01*
X123316305Y-115975895D02*
X123221067Y-115785419D01*
X123221067Y-115785419D02*
X123125829Y-115690180D01*
X123125829Y-115690180D02*
X122935353Y-115594942D01*
X122935353Y-115594942D02*
X122173448Y-115594942D01*
X124459162Y-114642561D02*
X124268686Y-114737800D01*
X124268686Y-114737800D02*
X124173448Y-114833038D01*
X124173448Y-114833038D02*
X124078210Y-115023514D01*
X124078210Y-115023514D02*
X124078210Y-115594942D01*
X124078210Y-115594942D02*
X124173448Y-115785419D01*
X124173448Y-115785419D02*
X124268686Y-115880657D01*
X124268686Y-115880657D02*
X124459162Y-115975895D01*
X124459162Y-115975895D02*
X124744877Y-115975895D01*
X124744877Y-115975895D02*
X124935353Y-115880657D01*
X124935353Y-115880657D02*
X125030591Y-115785419D01*
X125030591Y-115785419D02*
X125125829Y-115594942D01*
X125125829Y-115594942D02*
X125125829Y-115023514D01*
X125125829Y-115023514D02*
X125030591Y-114833038D01*
X125030591Y-114833038D02*
X124935353Y-114737800D01*
X124935353Y-114737800D02*
X124744877Y-114642561D01*
X124744877Y-114642561D02*
X124459162Y-114642561D01*
X125792496Y-115975895D02*
X126173448Y-114642561D01*
X126173448Y-114642561D02*
X126554401Y-115594942D01*
X126554401Y-115594942D02*
X126935353Y-114642561D01*
X126935353Y-114642561D02*
X127316305Y-115975895D01*
X128840115Y-114737800D02*
X128649639Y-114642561D01*
X128649639Y-114642561D02*
X128268686Y-114642561D01*
X128268686Y-114642561D02*
X128078210Y-114737800D01*
X128078210Y-114737800D02*
X127982972Y-114928276D01*
X127982972Y-114928276D02*
X127982972Y-115690180D01*
X127982972Y-115690180D02*
X128078210Y-115880657D01*
X128078210Y-115880657D02*
X128268686Y-115975895D01*
X128268686Y-115975895D02*
X128649639Y-115975895D01*
X128649639Y-115975895D02*
X128840115Y-115880657D01*
X128840115Y-115880657D02*
X128935353Y-115690180D01*
X128935353Y-115690180D02*
X128935353Y-115499704D01*
X128935353Y-115499704D02*
X127982972Y-115309228D01*
X129792496Y-114642561D02*
X129792496Y-115975895D01*
X129792496Y-115594942D02*
X129887734Y-115785419D01*
X129887734Y-115785419D02*
X129982972Y-115880657D01*
X129982972Y-115880657D02*
X130173448Y-115975895D01*
X130173448Y-115975895D02*
X130363925Y-115975895D01*
X132935353Y-116642561D02*
X133316306Y-116642561D01*
X133316306Y-116642561D02*
X133506782Y-116547323D01*
X133506782Y-116547323D02*
X133697258Y-116356847D01*
X133697258Y-116356847D02*
X133792496Y-115975895D01*
X133792496Y-115975895D02*
X133792496Y-115309228D01*
X133792496Y-115309228D02*
X133697258Y-114928276D01*
X133697258Y-114928276D02*
X133506782Y-114737800D01*
X133506782Y-114737800D02*
X133316306Y-114642561D01*
X133316306Y-114642561D02*
X132935353Y-114642561D01*
X132935353Y-114642561D02*
X132744877Y-114737800D01*
X132744877Y-114737800D02*
X132554401Y-114928276D01*
X132554401Y-114928276D02*
X132459163Y-115309228D01*
X132459163Y-115309228D02*
X132459163Y-115975895D01*
X132459163Y-115975895D02*
X132554401Y-116356847D01*
X132554401Y-116356847D02*
X132744877Y-116547323D01*
X132744877Y-116547323D02*
X132935353Y-116642561D01*
X135506782Y-115975895D02*
X135506782Y-114642561D01*
X134649639Y-115975895D02*
X134649639Y-114928276D01*
X134649639Y-114928276D02*
X134744877Y-114737800D01*
X134744877Y-114737800D02*
X134935353Y-114642561D01*
X134935353Y-114642561D02*
X135221068Y-114642561D01*
X135221068Y-114642561D02*
X135411544Y-114737800D01*
X135411544Y-114737800D02*
X135506782Y-114833038D01*
X136173449Y-115975895D02*
X136935353Y-115975895D01*
X136459163Y-116642561D02*
X136459163Y-114928276D01*
X136459163Y-114928276D02*
X136554401Y-114737800D01*
X136554401Y-114737800D02*
X136744877Y-114642561D01*
X136744877Y-114642561D02*
X136935353Y-114642561D01*
X137887734Y-114642561D02*
X137697258Y-114737800D01*
X137697258Y-114737800D02*
X137602020Y-114928276D01*
X137602020Y-114928276D02*
X137602020Y-116642561D01*
X139411544Y-114737800D02*
X139221068Y-114642561D01*
X139221068Y-114642561D02*
X138840115Y-114642561D01*
X138840115Y-114642561D02*
X138649639Y-114737800D01*
X138649639Y-114737800D02*
X138554401Y-114928276D01*
X138554401Y-114928276D02*
X138554401Y-115690180D01*
X138554401Y-115690180D02*
X138649639Y-115880657D01*
X138649639Y-115880657D02*
X138840115Y-115975895D01*
X138840115Y-115975895D02*
X139221068Y-115975895D01*
X139221068Y-115975895D02*
X139411544Y-115880657D01*
X139411544Y-115880657D02*
X139506782Y-115690180D01*
X139506782Y-115690180D02*
X139506782Y-115499704D01*
X139506782Y-115499704D02*
X138554401Y-115309228D01*
X140078211Y-115975895D02*
X140840115Y-115975895D01*
X140363925Y-116642561D02*
X140363925Y-114928276D01*
X140363925Y-114928276D02*
X140459163Y-114737800D01*
X140459163Y-114737800D02*
X140649639Y-114642561D01*
X140649639Y-114642561D02*
X140840115Y-114642561D01*
X143887735Y-114737800D02*
X143697259Y-114642561D01*
X143697259Y-114642561D02*
X143316306Y-114642561D01*
X143316306Y-114642561D02*
X143125830Y-114737800D01*
X143125830Y-114737800D02*
X143030592Y-114833038D01*
X143030592Y-114833038D02*
X142935354Y-115023514D01*
X142935354Y-115023514D02*
X142935354Y-115594942D01*
X142935354Y-115594942D02*
X143030592Y-115785419D01*
X143030592Y-115785419D02*
X143125830Y-115880657D01*
X143125830Y-115880657D02*
X143316306Y-115975895D01*
X143316306Y-115975895D02*
X143697259Y-115975895D01*
X143697259Y-115975895D02*
X143887735Y-115880657D01*
X145030592Y-114642561D02*
X144840116Y-114737800D01*
X144840116Y-114737800D02*
X144744878Y-114833038D01*
X144744878Y-114833038D02*
X144649640Y-115023514D01*
X144649640Y-115023514D02*
X144649640Y-115594942D01*
X144649640Y-115594942D02*
X144744878Y-115785419D01*
X144744878Y-115785419D02*
X144840116Y-115880657D01*
X144840116Y-115880657D02*
X145030592Y-115975895D01*
X145030592Y-115975895D02*
X145316307Y-115975895D01*
X145316307Y-115975895D02*
X145506783Y-115880657D01*
X145506783Y-115880657D02*
X145602021Y-115785419D01*
X145602021Y-115785419D02*
X145697259Y-115594942D01*
X145697259Y-115594942D02*
X145697259Y-115023514D01*
X145697259Y-115023514D02*
X145602021Y-114833038D01*
X145602021Y-114833038D02*
X145506783Y-114737800D01*
X145506783Y-114737800D02*
X145316307Y-114642561D01*
X145316307Y-114642561D02*
X145030592Y-114642561D01*
X146554402Y-115975895D02*
X146554402Y-114642561D01*
X146554402Y-115785419D02*
X146649640Y-115880657D01*
X146649640Y-115880657D02*
X146840116Y-115975895D01*
X146840116Y-115975895D02*
X147125831Y-115975895D01*
X147125831Y-115975895D02*
X147316307Y-115880657D01*
X147316307Y-115880657D02*
X147411545Y-115690180D01*
X147411545Y-115690180D02*
X147411545Y-114642561D01*
X148078212Y-115975895D02*
X148840116Y-115975895D01*
X148363926Y-116642561D02*
X148363926Y-114928276D01*
X148363926Y-114928276D02*
X148459164Y-114737800D01*
X148459164Y-114737800D02*
X148649640Y-114642561D01*
X148649640Y-114642561D02*
X148840116Y-114642561D01*
X149506783Y-114642561D02*
X149506783Y-115975895D01*
X149506783Y-115594942D02*
X149602021Y-115785419D01*
X149602021Y-115785419D02*
X149697259Y-115880657D01*
X149697259Y-115880657D02*
X149887735Y-115975895D01*
X149887735Y-115975895D02*
X150078212Y-115975895D01*
X151030592Y-114642561D02*
X150840116Y-114737800D01*
X150840116Y-114737800D02*
X150744878Y-114833038D01*
X150744878Y-114833038D02*
X150649640Y-115023514D01*
X150649640Y-115023514D02*
X150649640Y-115594942D01*
X150649640Y-115594942D02*
X150744878Y-115785419D01*
X150744878Y-115785419D02*
X150840116Y-115880657D01*
X150840116Y-115880657D02*
X151030592Y-115975895D01*
X151030592Y-115975895D02*
X151316307Y-115975895D01*
X151316307Y-115975895D02*
X151506783Y-115880657D01*
X151506783Y-115880657D02*
X151602021Y-115785419D01*
X151602021Y-115785419D02*
X151697259Y-115594942D01*
X151697259Y-115594942D02*
X151697259Y-115023514D01*
X151697259Y-115023514D02*
X151602021Y-114833038D01*
X151602021Y-114833038D02*
X151506783Y-114737800D01*
X151506783Y-114737800D02*
X151316307Y-114642561D01*
X151316307Y-114642561D02*
X151030592Y-114642561D01*
X152840116Y-114642561D02*
X152649640Y-114737800D01*
X152649640Y-114737800D02*
X152554402Y-114928276D01*
X152554402Y-114928276D02*
X152554402Y-116642561D01*
X155125831Y-114642561D02*
X155125831Y-116642561D01*
X155125831Y-116642561D02*
X155887736Y-116642561D01*
X155887736Y-116642561D02*
X156078212Y-116547323D01*
X156078212Y-116547323D02*
X156173450Y-116452085D01*
X156173450Y-116452085D02*
X156268688Y-116261609D01*
X156268688Y-116261609D02*
X156268688Y-115975895D01*
X156268688Y-115975895D02*
X156173450Y-115785419D01*
X156173450Y-115785419D02*
X156078212Y-115690180D01*
X156078212Y-115690180D02*
X155887736Y-115594942D01*
X155887736Y-115594942D02*
X155125831Y-115594942D01*
X158268688Y-114833038D02*
X158173450Y-114737800D01*
X158173450Y-114737800D02*
X157887736Y-114642561D01*
X157887736Y-114642561D02*
X157697260Y-114642561D01*
X157697260Y-114642561D02*
X157411545Y-114737800D01*
X157411545Y-114737800D02*
X157221069Y-114928276D01*
X157221069Y-114928276D02*
X157125831Y-115118752D01*
X157125831Y-115118752D02*
X157030593Y-115499704D01*
X157030593Y-115499704D02*
X157030593Y-115785419D01*
X157030593Y-115785419D02*
X157125831Y-116166371D01*
X157125831Y-116166371D02*
X157221069Y-116356847D01*
X157221069Y-116356847D02*
X157411545Y-116547323D01*
X157411545Y-116547323D02*
X157697260Y-116642561D01*
X157697260Y-116642561D02*
X157887736Y-116642561D01*
X157887736Y-116642561D02*
X158173450Y-116547323D01*
X158173450Y-116547323D02*
X158268688Y-116452085D01*
X159792498Y-115690180D02*
X160078212Y-115594942D01*
X160078212Y-115594942D02*
X160173450Y-115499704D01*
X160173450Y-115499704D02*
X160268688Y-115309228D01*
X160268688Y-115309228D02*
X160268688Y-115023514D01*
X160268688Y-115023514D02*
X160173450Y-114833038D01*
X160173450Y-114833038D02*
X160078212Y-114737800D01*
X160078212Y-114737800D02*
X159887736Y-114642561D01*
X159887736Y-114642561D02*
X159125831Y-114642561D01*
X159125831Y-114642561D02*
X159125831Y-116642561D01*
X159125831Y-116642561D02*
X159792498Y-116642561D01*
X159792498Y-116642561D02*
X159982974Y-116547323D01*
X159982974Y-116547323D02*
X160078212Y-116452085D01*
X160078212Y-116452085D02*
X160173450Y-116261609D01*
X160173450Y-116261609D02*
X160173450Y-116071133D01*
X160173450Y-116071133D02*
X160078212Y-115880657D01*
X160078212Y-115880657D02*
X159982974Y-115785419D01*
X159982974Y-115785419D02*
X159792498Y-115690180D01*
X159792498Y-115690180D02*
X159125831Y-115690180D01*
X90649636Y-113232085D02*
X90744874Y-113327323D01*
X90744874Y-113327323D02*
X90935350Y-113422561D01*
X90935350Y-113422561D02*
X91411541Y-113422561D01*
X91411541Y-113422561D02*
X91602017Y-113327323D01*
X91602017Y-113327323D02*
X91697255Y-113232085D01*
X91697255Y-113232085D02*
X91792493Y-113041609D01*
X91792493Y-113041609D02*
X91792493Y-112851133D01*
X91792493Y-112851133D02*
X91697255Y-112565419D01*
X91697255Y-112565419D02*
X90554398Y-111422561D01*
X90554398Y-111422561D02*
X91792493Y-111422561D01*
X93030588Y-113422561D02*
X93221065Y-113422561D01*
X93221065Y-113422561D02*
X93411541Y-113327323D01*
X93411541Y-113327323D02*
X93506779Y-113232085D01*
X93506779Y-113232085D02*
X93602017Y-113041609D01*
X93602017Y-113041609D02*
X93697255Y-112660657D01*
X93697255Y-112660657D02*
X93697255Y-112184466D01*
X93697255Y-112184466D02*
X93602017Y-111803514D01*
X93602017Y-111803514D02*
X93506779Y-111613038D01*
X93506779Y-111613038D02*
X93411541Y-111517800D01*
X93411541Y-111517800D02*
X93221065Y-111422561D01*
X93221065Y-111422561D02*
X93030588Y-111422561D01*
X93030588Y-111422561D02*
X92840112Y-111517800D01*
X92840112Y-111517800D02*
X92744874Y-111613038D01*
X92744874Y-111613038D02*
X92649636Y-111803514D01*
X92649636Y-111803514D02*
X92554398Y-112184466D01*
X92554398Y-112184466D02*
X92554398Y-112660657D01*
X92554398Y-112660657D02*
X92649636Y-113041609D01*
X92649636Y-113041609D02*
X92744874Y-113232085D01*
X92744874Y-113232085D02*
X92840112Y-113327323D01*
X92840112Y-113327323D02*
X93030588Y-113422561D01*
X94459160Y-113232085D02*
X94554398Y-113327323D01*
X94554398Y-113327323D02*
X94744874Y-113422561D01*
X94744874Y-113422561D02*
X95221065Y-113422561D01*
X95221065Y-113422561D02*
X95411541Y-113327323D01*
X95411541Y-113327323D02*
X95506779Y-113232085D01*
X95506779Y-113232085D02*
X95602017Y-113041609D01*
X95602017Y-113041609D02*
X95602017Y-112851133D01*
X95602017Y-112851133D02*
X95506779Y-112565419D01*
X95506779Y-112565419D02*
X94363922Y-111422561D01*
X94363922Y-111422561D02*
X95602017Y-111422561D01*
X97316303Y-112755895D02*
X97316303Y-111422561D01*
X96840112Y-113517800D02*
X96363922Y-112089228D01*
X96363922Y-112089228D02*
X97602017Y-112089228D01*
X98363922Y-112184466D02*
X99887732Y-112184466D01*
X101221064Y-113422561D02*
X101411541Y-113422561D01*
X101411541Y-113422561D02*
X101602017Y-113327323D01*
X101602017Y-113327323D02*
X101697255Y-113232085D01*
X101697255Y-113232085D02*
X101792493Y-113041609D01*
X101792493Y-113041609D02*
X101887731Y-112660657D01*
X101887731Y-112660657D02*
X101887731Y-112184466D01*
X101887731Y-112184466D02*
X101792493Y-111803514D01*
X101792493Y-111803514D02*
X101697255Y-111613038D01*
X101697255Y-111613038D02*
X101602017Y-111517800D01*
X101602017Y-111517800D02*
X101411541Y-111422561D01*
X101411541Y-111422561D02*
X101221064Y-111422561D01*
X101221064Y-111422561D02*
X101030588Y-111517800D01*
X101030588Y-111517800D02*
X100935350Y-111613038D01*
X100935350Y-111613038D02*
X100840112Y-111803514D01*
X100840112Y-111803514D02*
X100744874Y-112184466D01*
X100744874Y-112184466D02*
X100744874Y-112660657D01*
X100744874Y-112660657D02*
X100840112Y-113041609D01*
X100840112Y-113041609D02*
X100935350Y-113232085D01*
X100935350Y-113232085D02*
X101030588Y-113327323D01*
X101030588Y-113327323D02*
X101221064Y-113422561D01*
X102554398Y-113422561D02*
X103887731Y-113422561D01*
X103887731Y-113422561D02*
X103030588Y-111422561D01*
X104649636Y-112184466D02*
X106173446Y-112184466D01*
X108173445Y-111422561D02*
X107030588Y-111422561D01*
X107602016Y-111422561D02*
X107602016Y-113422561D01*
X107602016Y-113422561D02*
X107411540Y-113136847D01*
X107411540Y-113136847D02*
X107221064Y-112946371D01*
X107221064Y-112946371D02*
X107030588Y-112851133D01*
X109125826Y-111422561D02*
X109506778Y-111422561D01*
X109506778Y-111422561D02*
X109697255Y-111517800D01*
X109697255Y-111517800D02*
X109792493Y-111613038D01*
X109792493Y-111613038D02*
X109982969Y-111898752D01*
X109982969Y-111898752D02*
X110078207Y-112279704D01*
X110078207Y-112279704D02*
X110078207Y-113041609D01*
X110078207Y-113041609D02*
X109982969Y-113232085D01*
X109982969Y-113232085D02*
X109887731Y-113327323D01*
X109887731Y-113327323D02*
X109697255Y-113422561D01*
X109697255Y-113422561D02*
X109316302Y-113422561D01*
X109316302Y-113422561D02*
X109125826Y-113327323D01*
X109125826Y-113327323D02*
X109030588Y-113232085D01*
X109030588Y-113232085D02*
X108935350Y-113041609D01*
X108935350Y-113041609D02*
X108935350Y-112565419D01*
X108935350Y-112565419D02*
X109030588Y-112374942D01*
X109030588Y-112374942D02*
X109125826Y-112279704D01*
X109125826Y-112279704D02*
X109316302Y-112184466D01*
X109316302Y-112184466D02*
X109697255Y-112184466D01*
X109697255Y-112184466D02*
X109887731Y-112279704D01*
X109887731Y-112279704D02*
X109982969Y-112374942D01*
X109982969Y-112374942D02*
X110078207Y-112565419D01*
X90459160Y-110202561D02*
X91125826Y-108202561D01*
X91125826Y-108202561D02*
X91792493Y-110202561D01*
X93506779Y-108202561D02*
X92363922Y-108202561D01*
X92935350Y-108202561D02*
X92935350Y-110202561D01*
X92935350Y-110202561D02*
X92744874Y-109916847D01*
X92744874Y-109916847D02*
X92554398Y-109726371D01*
X92554398Y-109726371D02*
X92363922Y-109631133D01*
X94363922Y-108393038D02*
X94459160Y-108297800D01*
X94459160Y-108297800D02*
X94363922Y-108202561D01*
X94363922Y-108202561D02*
X94268684Y-108297800D01*
X94268684Y-108297800D02*
X94363922Y-108393038D01*
X94363922Y-108393038D02*
X94363922Y-108202561D01*
X96363922Y-108202561D02*
X95221065Y-108202561D01*
X95792493Y-108202561D02*
X95792493Y-110202561D01*
X95792493Y-110202561D02*
X95602017Y-109916847D01*
X95602017Y-109916847D02*
X95411541Y-109726371D01*
X95411541Y-109726371D02*
X95221065Y-109631133D01*
X97221065Y-108393038D02*
X97316303Y-108297800D01*
X97316303Y-108297800D02*
X97221065Y-108202561D01*
X97221065Y-108202561D02*
X97125827Y-108297800D01*
X97125827Y-108297800D02*
X97221065Y-108393038D01*
X97221065Y-108393038D02*
X97221065Y-108202561D01*
X99221065Y-108202561D02*
X98078208Y-108202561D01*
X98649636Y-108202561D02*
X98649636Y-110202561D01*
X98649636Y-110202561D02*
X98459160Y-109916847D01*
X98459160Y-109916847D02*
X98268684Y-109726371D01*
X98268684Y-109726371D02*
X98078208Y-109631133D01*
M02*
