%TF.GenerationSoftware,KiCad,Pcbnew,7.0.10*%
%TF.CreationDate,2024-07-23T11:02:27-06:00*%
%TF.ProjectId,Pressure-Controlled-Power-Outlet-control-PCB,50726573-7375-4726-952d-436f6e74726f,V1.3.1*%
%TF.SameCoordinates,Original*%
%TF.FileFunction,Drillmap*%
%TF.FilePolarity,Positive*%
%FSLAX45Y45*%
G04 Gerber Fmt 4.5, Leading zero omitted, Abs format (unit mm)*
G04 Created by KiCad (PCBNEW 7.0.10) date 2024-07-23 11:02:27*
%MOMM*%
%LPD*%
G01*
G04 APERTURE LIST*
%ADD10C,0.100000*%
%ADD11C,0.200000*%
%ADD12C,0.102000*%
%ADD13C,0.110000*%
%ADD14C,0.160000*%
%ADD15C,0.170000*%
%ADD16C,0.210000*%
%ADD17C,0.430000*%
G04 APERTURE END LIST*
D10*
X8636000Y-5588000D02*
X18669000Y-5588000D01*
X18669000Y-15621000D01*
X8636000Y-15621000D01*
X8636000Y-5588000D01*
D11*
D10*
X10267000Y-14458000D02*
X10307000Y-14498000D01*
X10307000Y-14458000D02*
X10267000Y-14498000D01*
X16045500Y-10775000D02*
X16085500Y-10815000D01*
X16085500Y-10775000D02*
X16045500Y-10815000D01*
X16236000Y-12299000D02*
X16276000Y-12339000D01*
X16276000Y-12299000D02*
X16236000Y-12339000D01*
X16617000Y-14077000D02*
X16657000Y-14117000D01*
X16657000Y-14077000D02*
X16617000Y-14117000D01*
X13753500Y-9652000D02*
G75*
G03*
X13678500Y-9652000I-37500J0D01*
G01*
X13678500Y-9652000D02*
G75*
G03*
X13753500Y-9652000I37500J0D01*
G01*
X13880500Y-9652000D02*
G75*
G03*
X13805500Y-9652000I-37500J0D01*
G01*
X13805500Y-9652000D02*
G75*
G03*
X13880500Y-9652000I37500J0D01*
G01*
X14007500Y-9652000D02*
G75*
G03*
X13932500Y-9652000I-37500J0D01*
G01*
X13932500Y-9652000D02*
G75*
G03*
X14007500Y-9652000I37500J0D01*
G01*
X14896500Y-11656500D02*
G75*
G03*
X14821500Y-11656500I-37500J0D01*
G01*
X14821500Y-11656500D02*
G75*
G03*
X14896500Y-11656500I37500J0D01*
G01*
X15023500Y-11656500D02*
G75*
G03*
X14948500Y-11656500I-37500J0D01*
G01*
X14948500Y-11656500D02*
G75*
G03*
X15023500Y-11656500I37500J0D01*
G01*
X15150500Y-11656500D02*
G75*
G03*
X15075500Y-11656500I-37500J0D01*
G01*
X15075500Y-11656500D02*
G75*
G03*
X15150500Y-11656500I37500J0D01*
G01*
X15404500Y-9144000D02*
G75*
G03*
X15329500Y-9144000I-37500J0D01*
G01*
X15329500Y-9144000D02*
G75*
G03*
X15404500Y-9144000I37500J0D01*
G01*
X15404500Y-9271000D02*
G75*
G03*
X15329500Y-9271000I-37500J0D01*
G01*
X15329500Y-9271000D02*
G75*
G03*
X15404500Y-9271000I37500J0D01*
G01*
X15404500Y-9398000D02*
G75*
G03*
X15329500Y-9398000I-37500J0D01*
G01*
X15329500Y-9398000D02*
G75*
G03*
X15404500Y-9398000I37500J0D01*
G01*
X15785500Y-13688500D02*
G75*
G03*
X15710500Y-13688500I-37500J0D01*
G01*
X15710500Y-13688500D02*
G75*
G03*
X15785500Y-13688500I37500J0D01*
G01*
X15912500Y-13688500D02*
G75*
G03*
X15837500Y-13688500I-37500J0D01*
G01*
X15837500Y-13688500D02*
G75*
G03*
X15912500Y-13688500I37500J0D01*
G01*
X16039500Y-13688500D02*
G75*
G03*
X15964500Y-13688500I-37500J0D01*
G01*
X15964500Y-13688500D02*
G75*
G03*
X16039500Y-13688500I37500J0D01*
G01*
X16230000Y-11430000D02*
G75*
G03*
X16155000Y-11430000I-37500J0D01*
G01*
X16155000Y-11430000D02*
G75*
G03*
X16230000Y-11430000I37500J0D01*
G01*
X16357000Y-11430000D02*
G75*
G03*
X16282000Y-11430000I-37500J0D01*
G01*
X16282000Y-11430000D02*
G75*
G03*
X16357000Y-11430000I37500J0D01*
G01*
X16484000Y-11430000D02*
G75*
G03*
X16409000Y-11430000I-37500J0D01*
G01*
X16409000Y-11430000D02*
G75*
G03*
X16484000Y-11430000I37500J0D01*
G01*
X16547500Y-12446000D02*
G75*
G03*
X16472500Y-12446000I-37500J0D01*
G01*
X16472500Y-12446000D02*
G75*
G03*
X16547500Y-12446000I37500J0D01*
G01*
X16674500Y-12446000D02*
G75*
G03*
X16599500Y-12446000I-37500J0D01*
G01*
X16599500Y-12446000D02*
G75*
G03*
X16674500Y-12446000I37500J0D01*
G01*
X16801500Y-12446000D02*
G75*
G03*
X16726500Y-12446000I-37500J0D01*
G01*
X16726500Y-12446000D02*
G75*
G03*
X16801500Y-12446000I37500J0D01*
G01*
X9017000Y-11394000D02*
X9017000Y-11474000D01*
X8977000Y-11434000D02*
X9057000Y-11434000D01*
X9017000Y-11894000D02*
X9017000Y-11974000D01*
X8977000Y-11934000D02*
X9057000Y-11934000D01*
X9465500Y-11136000D02*
X9465500Y-11216000D01*
X9425500Y-11176000D02*
X9505500Y-11176000D01*
X9779000Y-10120000D02*
X9779000Y-10200000D01*
X9739000Y-10160000D02*
X9819000Y-10160000D01*
X9965500Y-11136000D02*
X9965500Y-11216000D01*
X9925500Y-11176000D02*
X10005500Y-11176000D01*
X10033000Y-10120000D02*
X10033000Y-10200000D01*
X9993000Y-10160000D02*
X10073000Y-10160000D01*
X10413500Y-10121500D02*
X10413500Y-10201500D01*
X10373500Y-10161500D02*
X10453500Y-10161500D01*
X10413500Y-10883500D02*
X10413500Y-10963500D01*
X10373500Y-10923500D02*
X10453500Y-10923500D01*
X10667500Y-10121500D02*
X10667500Y-10201500D01*
X10627500Y-10161500D02*
X10707500Y-10161500D01*
X10667500Y-10883500D02*
X10667500Y-10963500D01*
X10627500Y-10923500D02*
X10707500Y-10923500D01*
X10795000Y-11263000D02*
X10795000Y-11343000D01*
X10755000Y-11303000D02*
X10835000Y-11303000D01*
X10921500Y-10121500D02*
X10921500Y-10201500D01*
X10881500Y-10161500D02*
X10961500Y-10161500D01*
X10921500Y-10883500D02*
X10921500Y-10963500D01*
X10881500Y-10923500D02*
X10961500Y-10923500D01*
X11049000Y-11263000D02*
X11049000Y-11343000D01*
X11009000Y-11303000D02*
X11089000Y-11303000D01*
X11175500Y-10121500D02*
X11175500Y-10201500D01*
X11135500Y-10161500D02*
X11215500Y-10161500D01*
X11175500Y-10883500D02*
X11175500Y-10963500D01*
X11135500Y-10923500D02*
X11215500Y-10923500D01*
X11429500Y-10121500D02*
X11429500Y-10201500D01*
X11389500Y-10161500D02*
X11469500Y-10161500D01*
X11429500Y-10883500D02*
X11429500Y-10963500D01*
X11389500Y-10923500D02*
X11469500Y-10923500D01*
X11683500Y-10121500D02*
X11683500Y-10201500D01*
X11643500Y-10161500D02*
X11723500Y-10161500D01*
X11683500Y-10883500D02*
X11683500Y-10963500D01*
X11643500Y-10923500D02*
X11723500Y-10923500D01*
X11937500Y-10121500D02*
X11937500Y-10201500D01*
X11897500Y-10161500D02*
X11977500Y-10161500D01*
X11937500Y-10883500D02*
X11937500Y-10963500D01*
X11897500Y-10923500D02*
X11977500Y-10923500D01*
X12001500Y-14438000D02*
X12001500Y-14518000D01*
X11961500Y-14478000D02*
X12041500Y-14478000D01*
X12001500Y-14938000D02*
X12001500Y-15018000D01*
X11961500Y-14978000D02*
X12041500Y-14978000D01*
X12446000Y-11136000D02*
X12446000Y-11216000D01*
X12406000Y-11176000D02*
X12486000Y-11176000D01*
X12700000Y-9485000D02*
X12700000Y-9565000D01*
X12660000Y-9525000D02*
X12740000Y-9525000D01*
X12700000Y-9739000D02*
X12700000Y-9819000D01*
X12660000Y-9779000D02*
X12740000Y-9779000D01*
X12700000Y-10247000D02*
X12700000Y-10327000D01*
X12660000Y-10287000D02*
X12740000Y-10287000D01*
X12700000Y-11136000D02*
X12700000Y-11216000D01*
X12660000Y-11176000D02*
X12740000Y-11176000D01*
X12954000Y-10247000D02*
X12954000Y-10327000D01*
X12914000Y-10287000D02*
X12994000Y-10287000D01*
X13335000Y-9485000D02*
X13335000Y-9565000D01*
X13295000Y-9525000D02*
X13375000Y-9525000D01*
X13335000Y-9739000D02*
X13335000Y-9819000D01*
X13295000Y-9779000D02*
X13375000Y-9779000D01*
X13970000Y-8342000D02*
X13970000Y-8422000D01*
X13930000Y-8382000D02*
X14010000Y-8382000D01*
X13970000Y-8596000D02*
X13970000Y-8676000D01*
X13930000Y-8636000D02*
X14010000Y-8636000D01*
X14351000Y-14946000D02*
X14351000Y-15026000D01*
X14311000Y-14986000D02*
X14391000Y-14986000D01*
X14605000Y-8596000D02*
X14605000Y-8676000D01*
X14565000Y-8636000D02*
X14645000Y-8636000D01*
X14605000Y-9231000D02*
X14605000Y-9311000D01*
X14565000Y-9271000D02*
X14645000Y-9271000D01*
X14605000Y-14946000D02*
X14605000Y-15026000D01*
X14565000Y-14986000D02*
X14645000Y-14986000D01*
X14859000Y-8596000D02*
X14859000Y-8676000D01*
X14819000Y-8636000D02*
X14899000Y-8636000D01*
X14859000Y-9231000D02*
X14859000Y-9311000D01*
X14819000Y-9271000D02*
X14899000Y-9271000D01*
X14859000Y-12279000D02*
X14859000Y-12359000D01*
X14819000Y-12319000D02*
X14899000Y-12319000D01*
X14859000Y-12533000D02*
X14859000Y-12613000D01*
X14819000Y-12573000D02*
X14899000Y-12573000D01*
X15113000Y-13190500D02*
X15113000Y-13270500D01*
X15073000Y-13230500D02*
X15153000Y-13230500D01*
X15113000Y-13444500D02*
X15113000Y-13524500D01*
X15073000Y-13484500D02*
X15153000Y-13484500D01*
X15430500Y-12406000D02*
X15430500Y-12486000D01*
X15390500Y-12446000D02*
X15470500Y-12446000D01*
X15430500Y-12660000D02*
X15430500Y-12740000D01*
X15390500Y-12700000D02*
X15470500Y-12700000D01*
X15494000Y-11326500D02*
X15494000Y-11406500D01*
X15454000Y-11366500D02*
X15534000Y-11366500D01*
X15748000Y-11326500D02*
X15748000Y-11406500D01*
X15708000Y-11366500D02*
X15788000Y-11366500D01*
X15897500Y-11961500D02*
X15897500Y-12041500D01*
X15857500Y-12001500D02*
X15937500Y-12001500D01*
X16129000Y-14819000D02*
X16129000Y-14899000D01*
X16089000Y-14859000D02*
X16169000Y-14859000D01*
X16129000Y-15073000D02*
X16129000Y-15153000D01*
X16089000Y-15113000D02*
X16169000Y-15113000D01*
X16151500Y-11961500D02*
X16151500Y-12041500D01*
X16111500Y-12001500D02*
X16191500Y-12001500D01*
X16510000Y-13508000D02*
X16510000Y-13588000D01*
X16470000Y-13548000D02*
X16550000Y-13548000D01*
X16510000Y-13762000D02*
X16510000Y-13842000D01*
X16470000Y-13802000D02*
X16550000Y-13802000D01*
X9115856Y-10449356D02*
X9115856Y-10378644D01*
X9045144Y-10378644D01*
X9045144Y-10449356D01*
X9115856Y-10449356D01*
X9115856Y-10703356D02*
X9115856Y-10632644D01*
X9045144Y-10632644D01*
X9045144Y-10703356D01*
X9115856Y-10703356D01*
X9115856Y-10957356D02*
X9115856Y-10886644D01*
X9045144Y-10886644D01*
X9045144Y-10957356D01*
X9115856Y-10957356D01*
X10322356Y-15021356D02*
X10322356Y-14950644D01*
X10251644Y-14950644D01*
X10251644Y-15021356D01*
X10322356Y-15021356D01*
X10576356Y-15021356D02*
X10576356Y-14950644D01*
X10505644Y-14950644D01*
X10505644Y-15021356D01*
X10576356Y-15021356D01*
X10830356Y-15021356D02*
X10830356Y-14950644D01*
X10759644Y-14950644D01*
X10759644Y-15021356D01*
X10830356Y-15021356D01*
X11084356Y-15021356D02*
X11084356Y-14950644D01*
X11013644Y-14950644D01*
X11013644Y-15021356D01*
X11084356Y-15021356D01*
X11338356Y-15021356D02*
X11338356Y-14950644D01*
X11267644Y-14950644D01*
X11267644Y-15021356D01*
X11338356Y-15021356D01*
X11592356Y-15021356D02*
X11592356Y-14950644D01*
X11521644Y-14950644D01*
X11521644Y-15021356D01*
X11592356Y-15021356D01*
X12862856Y-15021356D02*
X12862856Y-14950644D01*
X12792144Y-14950644D01*
X12792144Y-15021356D01*
X12862856Y-15021356D01*
X13052856Y-8361856D02*
X13052856Y-8291144D01*
X12982144Y-8291144D01*
X12982144Y-8361856D01*
X13052856Y-8361856D01*
X13052856Y-8861856D02*
X13052856Y-8791144D01*
X12982144Y-8791144D01*
X12982144Y-8861856D01*
X13052856Y-8861856D01*
X13116856Y-15021356D02*
X13116856Y-14950644D01*
X13046144Y-14950644D01*
X13046144Y-15021356D01*
X13116856Y-15021356D01*
X13370856Y-15021356D02*
X13370856Y-14950644D01*
X13300144Y-14950644D01*
X13300144Y-15021356D01*
X13370856Y-15021356D01*
X13497356Y-10830356D02*
X13497356Y-10759644D01*
X13426644Y-10759644D01*
X13426644Y-10830356D01*
X13497356Y-10830356D01*
X13624856Y-15021356D02*
X13624856Y-14950644D01*
X13554144Y-14950644D01*
X13554144Y-15021356D01*
X13624856Y-15021356D01*
X13878856Y-15021356D02*
X13878856Y-14950644D01*
X13808144Y-14950644D01*
X13808144Y-15021356D01*
X13878856Y-15021356D01*
X13997356Y-10830356D02*
X13997356Y-10759644D01*
X13926644Y-10759644D01*
X13926644Y-10830356D01*
X13997356Y-10830356D01*
X15219856Y-10385856D02*
X15219856Y-10315144D01*
X15149144Y-10315144D01*
X15149144Y-10385856D01*
X15219856Y-10385856D01*
X15719856Y-10385856D02*
X15719856Y-10315144D01*
X15649144Y-10315144D01*
X15649144Y-10385856D01*
X15719856Y-10385856D01*
X17180356Y-11465356D02*
X17180356Y-11394644D01*
X17109644Y-11394644D01*
X17109644Y-11465356D01*
X17180356Y-11465356D01*
X17561356Y-13878356D02*
X17561356Y-13807644D01*
X17490644Y-13807644D01*
X17490644Y-13878356D01*
X17561356Y-13878356D01*
X17561356Y-14259356D02*
X17561356Y-14188644D01*
X17490644Y-14188644D01*
X17490644Y-14259356D01*
X17561356Y-14259356D01*
X17680356Y-11465356D02*
X17680356Y-11394644D01*
X17609644Y-11394644D01*
X17609644Y-11465356D01*
X17680356Y-11465356D01*
X17815356Y-13878356D02*
X17815356Y-13807644D01*
X17744644Y-13807644D01*
X17744644Y-13878356D01*
X17815356Y-13878356D01*
X17815356Y-14259356D02*
X17815356Y-14188644D01*
X17744644Y-14188644D01*
X17744644Y-14259356D01*
X17815356Y-14259356D01*
X18069356Y-13878356D02*
X18069356Y-13807644D01*
X17998644Y-13807644D01*
X17998644Y-13878356D01*
X18069356Y-13878356D01*
X18069356Y-14259356D02*
X18069356Y-14188644D01*
X17998644Y-14188644D01*
X17998644Y-14259356D01*
X18069356Y-14259356D01*
X18196356Y-11973356D02*
X18196356Y-11902644D01*
X18125644Y-11902644D01*
X18125644Y-11973356D01*
X18196356Y-11973356D01*
X18196356Y-12223356D02*
X18196356Y-12152644D01*
X18125644Y-12152644D01*
X18125644Y-12223356D01*
X18196356Y-12223356D01*
X18259856Y-12861856D02*
X18259856Y-12791144D01*
X18189144Y-12791144D01*
X18189144Y-12861856D01*
X18259856Y-12861856D01*
X18259856Y-13115856D02*
X18259856Y-13045144D01*
X18189144Y-13045144D01*
X18189144Y-13115856D01*
X18259856Y-13115856D01*
D12*
X9398000Y-12116000D02*
X9449000Y-12065000D01*
X9398000Y-12014000D01*
X9347000Y-12065000D01*
X9398000Y-12116000D01*
X9398000Y-13894000D02*
X9449000Y-13843000D01*
X9398000Y-13792000D01*
X9347000Y-13843000D01*
X9398000Y-13894000D01*
X9652000Y-12116000D02*
X9703000Y-12065000D01*
X9652000Y-12014000D01*
X9601000Y-12065000D01*
X9652000Y-12116000D01*
X9652000Y-13894000D02*
X9703000Y-13843000D01*
X9652000Y-13792000D01*
X9601000Y-13843000D01*
X9652000Y-13894000D01*
X9906000Y-12116000D02*
X9957000Y-12065000D01*
X9906000Y-12014000D01*
X9855000Y-12065000D01*
X9906000Y-12116000D01*
X9906000Y-13894000D02*
X9957000Y-13843000D01*
X9906000Y-13792000D01*
X9855000Y-13843000D01*
X9906000Y-13894000D01*
X10160000Y-12116000D02*
X10211000Y-12065000D01*
X10160000Y-12014000D01*
X10109000Y-12065000D01*
X10160000Y-12116000D01*
X10160000Y-13894000D02*
X10211000Y-13843000D01*
X10160000Y-13792000D01*
X10109000Y-13843000D01*
X10160000Y-13894000D01*
X10414000Y-12116000D02*
X10465000Y-12065000D01*
X10414000Y-12014000D01*
X10363000Y-12065000D01*
X10414000Y-12116000D01*
X10414000Y-13894000D02*
X10465000Y-13843000D01*
X10414000Y-13792000D01*
X10363000Y-13843000D01*
X10414000Y-13894000D01*
X10668000Y-12116000D02*
X10719000Y-12065000D01*
X10668000Y-12014000D01*
X10617000Y-12065000D01*
X10668000Y-12116000D01*
X10668000Y-13894000D02*
X10719000Y-13843000D01*
X10668000Y-13792000D01*
X10617000Y-13843000D01*
X10668000Y-13894000D01*
X10922000Y-12116000D02*
X10973000Y-12065000D01*
X10922000Y-12014000D01*
X10871000Y-12065000D01*
X10922000Y-12116000D01*
X10922000Y-13894000D02*
X10973000Y-13843000D01*
X10922000Y-13792000D01*
X10871000Y-13843000D01*
X10922000Y-13894000D01*
X11176000Y-12116000D02*
X11227000Y-12065000D01*
X11176000Y-12014000D01*
X11125000Y-12065000D01*
X11176000Y-12116000D01*
X11176000Y-13894000D02*
X11227000Y-13843000D01*
X11176000Y-13792000D01*
X11125000Y-13843000D01*
X11176000Y-13894000D01*
X11430000Y-12116000D02*
X11481000Y-12065000D01*
X11430000Y-12014000D01*
X11379000Y-12065000D01*
X11430000Y-12116000D01*
X11430000Y-13894000D02*
X11481000Y-13843000D01*
X11430000Y-13792000D01*
X11379000Y-13843000D01*
X11430000Y-13894000D01*
X11684000Y-12116000D02*
X11735000Y-12065000D01*
X11684000Y-12014000D01*
X11633000Y-12065000D01*
X11684000Y-12116000D01*
X11684000Y-13894000D02*
X11735000Y-13843000D01*
X11684000Y-13792000D01*
X11633000Y-13843000D01*
X11684000Y-13894000D01*
X11938000Y-12116000D02*
X11989000Y-12065000D01*
X11938000Y-12014000D01*
X11887000Y-12065000D01*
X11938000Y-12116000D01*
X11938000Y-13894000D02*
X11989000Y-13843000D01*
X11938000Y-13792000D01*
X11887000Y-13843000D01*
X11938000Y-13894000D01*
X12192000Y-12116000D02*
X12243000Y-12065000D01*
X12192000Y-12014000D01*
X12141000Y-12065000D01*
X12192000Y-12116000D01*
X12192000Y-13894000D02*
X12243000Y-13843000D01*
X12192000Y-13792000D01*
X12141000Y-13843000D01*
X12192000Y-13894000D01*
X12446000Y-12116000D02*
X12497000Y-12065000D01*
X12446000Y-12014000D01*
X12395000Y-12065000D01*
X12446000Y-12116000D01*
X12446000Y-13894000D02*
X12497000Y-13843000D01*
X12446000Y-13792000D01*
X12395000Y-13843000D01*
X12446000Y-13894000D01*
X12700000Y-12116000D02*
X12751000Y-12065000D01*
X12700000Y-12014000D01*
X12649000Y-12065000D01*
X12700000Y-12116000D01*
X12700000Y-13894000D02*
X12751000Y-13843000D01*
X12700000Y-13792000D01*
X12649000Y-13843000D01*
X12700000Y-13894000D01*
X12954000Y-12116000D02*
X13005000Y-12065000D01*
X12954000Y-12014000D01*
X12903000Y-12065000D01*
X12954000Y-12116000D01*
X12954000Y-13894000D02*
X13005000Y-13843000D01*
X12954000Y-13792000D01*
X12903000Y-13843000D01*
X12954000Y-13894000D01*
X13208000Y-12116000D02*
X13259000Y-12065000D01*
X13208000Y-12014000D01*
X13157000Y-12065000D01*
X13208000Y-12116000D01*
X13208000Y-13894000D02*
X13259000Y-13843000D01*
X13208000Y-13792000D01*
X13157000Y-13843000D01*
X13208000Y-13894000D01*
X13462000Y-12116000D02*
X13513000Y-12065000D01*
X13462000Y-12014000D01*
X13411000Y-12065000D01*
X13462000Y-12116000D01*
X13462000Y-13894000D02*
X13513000Y-13843000D01*
X13462000Y-13792000D01*
X13411000Y-13843000D01*
X13462000Y-13894000D01*
X13716000Y-12116000D02*
X13767000Y-12065000D01*
X13716000Y-12014000D01*
X13665000Y-12065000D01*
X13716000Y-12116000D01*
X13716000Y-13894000D02*
X13767000Y-13843000D01*
X13716000Y-13792000D01*
X13665000Y-13843000D01*
X13716000Y-13894000D01*
X13970000Y-12116000D02*
X14021000Y-12065000D01*
X13970000Y-12014000D01*
X13919000Y-12065000D01*
X13970000Y-12116000D01*
X13970000Y-13894000D02*
X14021000Y-13843000D01*
X13970000Y-13792000D01*
X13919000Y-13843000D01*
X13970000Y-13894000D01*
X14201000Y-12751000D02*
X14252000Y-12700000D01*
X14201000Y-12649000D01*
X14150000Y-12700000D01*
X14201000Y-12751000D01*
X14201000Y-13005000D02*
X14252000Y-12954000D01*
X14201000Y-12903000D01*
X14150000Y-12954000D01*
X14201000Y-13005000D01*
X14201000Y-13259000D02*
X14252000Y-13208000D01*
X14201000Y-13157000D01*
X14150000Y-13208000D01*
X14201000Y-13259000D01*
X14224000Y-12116000D02*
X14275000Y-12065000D01*
X14224000Y-12014000D01*
X14173000Y-12065000D01*
X14224000Y-12116000D01*
X14224000Y-13894000D02*
X14275000Y-13843000D01*
X14224000Y-13792000D01*
X14173000Y-13843000D01*
X14224000Y-13894000D01*
X14986000Y-15037000D02*
X15037000Y-14986000D01*
X14986000Y-14935000D01*
X14935000Y-14986000D01*
X14986000Y-15037000D01*
X15240000Y-15037000D02*
X15291000Y-14986000D01*
X15240000Y-14935000D01*
X15189000Y-14986000D01*
X15240000Y-15037000D01*
X15494000Y-15037000D02*
X15545000Y-14986000D01*
X15494000Y-14935000D01*
X15443000Y-14986000D01*
X15494000Y-15037000D01*
X15748000Y-15037000D02*
X15799000Y-14986000D01*
X15748000Y-14935000D01*
X15697000Y-14986000D01*
X15748000Y-15037000D01*
X16510000Y-15067000D02*
X16561000Y-15016000D01*
X16510000Y-14965000D01*
X16459000Y-15016000D01*
X16510000Y-15067000D01*
X16764000Y-15067000D02*
X16815000Y-15016000D01*
X16764000Y-14965000D01*
X16713000Y-15016000D01*
X16764000Y-15067000D01*
X17018000Y-15067000D02*
X17069000Y-15016000D01*
X17018000Y-14965000D01*
X16967000Y-15016000D01*
X17018000Y-15067000D01*
X17272000Y-15067000D02*
X17323000Y-15016000D01*
X17272000Y-14965000D01*
X17221000Y-15016000D01*
X17272000Y-15067000D01*
D13*
X9810500Y-8480000D02*
X9920500Y-8590000D01*
X9920500Y-8480000D02*
X9810500Y-8590000D01*
X9920500Y-8535000D02*
G75*
G03*
X9810500Y-8535000I-55000J0D01*
G01*
X9810500Y-8535000D02*
G75*
G03*
X9920500Y-8535000I55000J0D01*
G01*
X10826500Y-8480000D02*
X10936500Y-8590000D01*
X10936500Y-8480000D02*
X10826500Y-8590000D01*
X10936500Y-8535000D02*
G75*
G03*
X10826500Y-8535000I-55000J0D01*
G01*
X10826500Y-8535000D02*
G75*
G03*
X10936500Y-8535000I55000J0D01*
G01*
X12010000Y-8962000D02*
X12120000Y-9072000D01*
X12120000Y-8962000D02*
X12010000Y-9072000D01*
X12120000Y-9017000D02*
G75*
G03*
X12010000Y-9017000I-55000J0D01*
G01*
X12010000Y-9017000D02*
G75*
G03*
X12120000Y-9017000I55000J0D01*
G01*
X12010000Y-9216000D02*
X12120000Y-9326000D01*
X12120000Y-9216000D02*
X12010000Y-9326000D01*
X12120000Y-9271000D02*
G75*
G03*
X12010000Y-9271000I-55000J0D01*
G01*
X12010000Y-9271000D02*
G75*
G03*
X12120000Y-9271000I55000J0D01*
G01*
X12010000Y-9470000D02*
X12120000Y-9580000D01*
X12120000Y-9470000D02*
X12010000Y-9580000D01*
X12120000Y-9525000D02*
G75*
G03*
X12010000Y-9525000I-55000J0D01*
G01*
X12010000Y-9525000D02*
G75*
G03*
X12120000Y-9525000I55000J0D01*
G01*
X14423000Y-10105000D02*
X14533000Y-10215000D01*
X14533000Y-10105000D02*
X14423000Y-10215000D01*
X14533000Y-10160000D02*
G75*
G03*
X14423000Y-10160000I-55000J0D01*
G01*
X14423000Y-10160000D02*
G75*
G03*
X14533000Y-10160000I55000J0D01*
G01*
X14423000Y-10359000D02*
X14533000Y-10469000D01*
X14533000Y-10359000D02*
X14423000Y-10469000D01*
X14533000Y-10414000D02*
G75*
G03*
X14423000Y-10414000I-55000J0D01*
G01*
X14423000Y-10414000D02*
G75*
G03*
X14533000Y-10414000I55000J0D01*
G01*
X14423000Y-10613000D02*
X14533000Y-10723000D01*
X14533000Y-10613000D02*
X14423000Y-10723000D01*
X14533000Y-10668000D02*
G75*
G03*
X14423000Y-10668000I-55000J0D01*
G01*
X14423000Y-10668000D02*
G75*
G03*
X14533000Y-10668000I55000J0D01*
G01*
X14804000Y-7978500D02*
X14914000Y-8088500D01*
X14914000Y-7978500D02*
X14804000Y-8088500D01*
X14914000Y-8033500D02*
G75*
G03*
X14804000Y-8033500I-55000J0D01*
G01*
X14804000Y-8033500D02*
G75*
G03*
X14914000Y-8033500I55000J0D01*
G01*
X15058000Y-7978500D02*
X15168000Y-8088500D01*
X15168000Y-7978500D02*
X15058000Y-8088500D01*
X15168000Y-8033500D02*
G75*
G03*
X15058000Y-8033500I-55000J0D01*
G01*
X15058000Y-8033500D02*
G75*
G03*
X15168000Y-8033500I55000J0D01*
G01*
X15312000Y-7978500D02*
X15422000Y-8088500D01*
X15422000Y-7978500D02*
X15312000Y-8088500D01*
X15422000Y-8033500D02*
G75*
G03*
X15312000Y-8033500I-55000J0D01*
G01*
X15312000Y-8033500D02*
G75*
G03*
X15422000Y-8033500I55000J0D01*
G01*
X16582000Y-8480000D02*
X16692000Y-8590000D01*
X16692000Y-8480000D02*
X16582000Y-8590000D01*
X16692000Y-8535000D02*
G75*
G03*
X16582000Y-8535000I-55000J0D01*
G01*
X16582000Y-8535000D02*
G75*
G03*
X16692000Y-8535000I55000J0D01*
G01*
X17026500Y-12200500D02*
X17136500Y-12310500D01*
X17136500Y-12200500D02*
X17026500Y-12310500D01*
X17136500Y-12255500D02*
G75*
G03*
X17026500Y-12255500I-55000J0D01*
G01*
X17026500Y-12255500D02*
G75*
G03*
X17136500Y-12255500I55000J0D01*
G01*
X17026500Y-13216500D02*
X17136500Y-13326500D01*
X17136500Y-13216500D02*
X17026500Y-13326500D01*
X17136500Y-13271500D02*
G75*
G03*
X17026500Y-13271500I-55000J0D01*
G01*
X17026500Y-13271500D02*
G75*
G03*
X17136500Y-13271500I55000J0D01*
G01*
X17471000Y-10168500D02*
X17581000Y-10278500D01*
X17581000Y-10168500D02*
X17471000Y-10278500D01*
X17581000Y-10223500D02*
G75*
G03*
X17471000Y-10223500I-55000J0D01*
G01*
X17471000Y-10223500D02*
G75*
G03*
X17581000Y-10223500I55000J0D01*
G01*
X17598000Y-8480000D02*
X17708000Y-8590000D01*
X17708000Y-8480000D02*
X17598000Y-8590000D01*
X17708000Y-8535000D02*
G75*
G03*
X17598000Y-8535000I-55000J0D01*
G01*
X17598000Y-8535000D02*
G75*
G03*
X17708000Y-8535000I55000J0D01*
G01*
X17661500Y-12327500D02*
X17771500Y-12437500D01*
X17771500Y-12327500D02*
X17661500Y-12437500D01*
X17771500Y-12382500D02*
G75*
G03*
X17661500Y-12382500I-55000J0D01*
G01*
X17661500Y-12382500D02*
G75*
G03*
X17771500Y-12382500I55000J0D01*
G01*
X17661500Y-13343500D02*
X17771500Y-13453500D01*
X17771500Y-13343500D02*
X17661500Y-13453500D01*
X17771500Y-13398500D02*
G75*
G03*
X17661500Y-13398500I-55000J0D01*
G01*
X17661500Y-13398500D02*
G75*
G03*
X17771500Y-13398500I55000J0D01*
G01*
X17725000Y-10168500D02*
X17835000Y-10278500D01*
X17835000Y-10168500D02*
X17725000Y-10278500D01*
X17835000Y-10223500D02*
G75*
G03*
X17725000Y-10223500I-55000J0D01*
G01*
X17725000Y-10223500D02*
G75*
G03*
X17835000Y-10223500I55000J0D01*
G01*
X17979000Y-10168500D02*
X18089000Y-10278500D01*
X18089000Y-10168500D02*
X17979000Y-10278500D01*
X18089000Y-10223500D02*
G75*
G03*
X17979000Y-10223500I-55000J0D01*
G01*
X17979000Y-10223500D02*
G75*
G03*
X18089000Y-10223500I55000J0D01*
G01*
D14*
X9127500Y-9318000D02*
X9287500Y-9478000D01*
X9287500Y-9318000D02*
X9127500Y-9478000D01*
X9207500Y-9318000D02*
X9207500Y-9478000D01*
X9127500Y-9398000D02*
X9287500Y-9398000D01*
X10651500Y-9318000D02*
X10811500Y-9478000D01*
X10811500Y-9318000D02*
X10651500Y-9478000D01*
X10731500Y-9318000D02*
X10731500Y-9478000D01*
X10651500Y-9398000D02*
X10811500Y-9398000D01*
X16557000Y-9445000D02*
X16717000Y-9605000D01*
X16717000Y-9445000D02*
X16557000Y-9605000D01*
X16637000Y-9445000D02*
X16637000Y-9605000D01*
X16557000Y-9525000D02*
X16717000Y-9525000D01*
X18081000Y-9445000D02*
X18241000Y-9605000D01*
X18241000Y-9445000D02*
X18081000Y-9605000D01*
X18161000Y-9445000D02*
X18161000Y-9605000D01*
X18081000Y-9525000D02*
X18241000Y-9525000D01*
D15*
X13252250Y-6468500D02*
X13422250Y-6638500D01*
X13422250Y-6468500D02*
X13252250Y-6638500D01*
X13397355Y-6613605D02*
X13397355Y-6493395D01*
X13277145Y-6493395D01*
X13277145Y-6613605D01*
X13397355Y-6613605D01*
X13887250Y-7418500D02*
X14057250Y-7588500D01*
X14057250Y-7418500D02*
X13887250Y-7588500D01*
X14032355Y-7563605D02*
X14032355Y-7443395D01*
X13912145Y-7443395D01*
X13912145Y-7563605D01*
X14032355Y-7563605D01*
D16*
X9379500Y-7160000D02*
X9589500Y-7370000D01*
X9589500Y-7160000D02*
X9379500Y-7370000D01*
X9484500Y-7370000D02*
X9589500Y-7265000D01*
X9484500Y-7160000D01*
X9379500Y-7265000D01*
X9484500Y-7370000D01*
X11157500Y-6144000D02*
X11367500Y-6354000D01*
X11367500Y-6144000D02*
X11157500Y-6354000D01*
X11262500Y-6354000D02*
X11367500Y-6249000D01*
X11262500Y-6144000D01*
X11157500Y-6249000D01*
X11262500Y-6354000D01*
X11157500Y-6906000D02*
X11367500Y-7116000D01*
X11367500Y-6906000D02*
X11157500Y-7116000D01*
X11262500Y-7116000D02*
X11367500Y-7011000D01*
X11262500Y-6906000D01*
X11157500Y-7011000D01*
X11262500Y-7116000D01*
X16151000Y-7160000D02*
X16361000Y-7370000D01*
X16361000Y-7160000D02*
X16151000Y-7370000D01*
X16256000Y-7370000D02*
X16361000Y-7265000D01*
X16256000Y-7160000D01*
X16151000Y-7265000D01*
X16256000Y-7370000D01*
X17929000Y-6144000D02*
X18139000Y-6354000D01*
X18139000Y-6144000D02*
X17929000Y-6354000D01*
X18034000Y-6354000D02*
X18139000Y-6249000D01*
X18034000Y-6144000D01*
X17929000Y-6249000D01*
X18034000Y-6354000D01*
X17929000Y-6906000D02*
X18139000Y-7116000D01*
X18139000Y-6906000D02*
X17929000Y-7116000D01*
X18034000Y-7116000D02*
X18139000Y-7011000D01*
X18034000Y-6906000D01*
X17929000Y-7011000D01*
X18034000Y-7116000D01*
D17*
X9271000Y-14771000D02*
X9271000Y-15201000D01*
X9056000Y-14986000D02*
X9486000Y-14986000D01*
X9486000Y-14986000D02*
G75*
G03*
X9056000Y-14986000I-215000J0D01*
G01*
X9056000Y-14986000D02*
G75*
G03*
X9486000Y-14986000I215000J0D01*
G01*
X12319000Y-6008000D02*
X12319000Y-6438000D01*
X12104000Y-6223000D02*
X12534000Y-6223000D01*
X12534000Y-6223000D02*
G75*
G03*
X12104000Y-6223000I-215000J0D01*
G01*
X12104000Y-6223000D02*
G75*
G03*
X12534000Y-6223000I215000J0D01*
G01*
X15113000Y-6008000D02*
X15113000Y-6438000D01*
X14898000Y-6223000D02*
X15328000Y-6223000D01*
X15328000Y-6223000D02*
G75*
G03*
X14898000Y-6223000I-215000J0D01*
G01*
X14898000Y-6223000D02*
G75*
G03*
X15328000Y-6223000I215000J0D01*
G01*
X18034000Y-14771000D02*
X18034000Y-15201000D01*
X17819000Y-14986000D02*
X18249000Y-14986000D01*
X18249000Y-14986000D02*
G75*
G03*
X17819000Y-14986000I-215000J0D01*
G01*
X17819000Y-14986000D02*
G75*
G03*
X18249000Y-14986000I215000J0D01*
G01*
D11*
X8891777Y-15937484D02*
X8891777Y-15737484D01*
X8891777Y-15737484D02*
X8939396Y-15737484D01*
X8939396Y-15737484D02*
X8967967Y-15747008D01*
X8967967Y-15747008D02*
X8987015Y-15766055D01*
X8987015Y-15766055D02*
X8996539Y-15785103D01*
X8996539Y-15785103D02*
X9006063Y-15823198D01*
X9006063Y-15823198D02*
X9006063Y-15851769D01*
X9006063Y-15851769D02*
X8996539Y-15889865D01*
X8996539Y-15889865D02*
X8987015Y-15908912D01*
X8987015Y-15908912D02*
X8967967Y-15927960D01*
X8967967Y-15927960D02*
X8939396Y-15937484D01*
X8939396Y-15937484D02*
X8891777Y-15937484D01*
X9091777Y-15937484D02*
X9091777Y-15804150D01*
X9091777Y-15842246D02*
X9101301Y-15823198D01*
X9101301Y-15823198D02*
X9110824Y-15813674D01*
X9110824Y-15813674D02*
X9129872Y-15804150D01*
X9129872Y-15804150D02*
X9148920Y-15804150D01*
X9215586Y-15937484D02*
X9215586Y-15804150D01*
X9215586Y-15737484D02*
X9206063Y-15747008D01*
X9206063Y-15747008D02*
X9215586Y-15756531D01*
X9215586Y-15756531D02*
X9225110Y-15747008D01*
X9225110Y-15747008D02*
X9215586Y-15737484D01*
X9215586Y-15737484D02*
X9215586Y-15756531D01*
X9339396Y-15937484D02*
X9320348Y-15927960D01*
X9320348Y-15927960D02*
X9310824Y-15908912D01*
X9310824Y-15908912D02*
X9310824Y-15737484D01*
X9444158Y-15937484D02*
X9425110Y-15927960D01*
X9425110Y-15927960D02*
X9415586Y-15908912D01*
X9415586Y-15908912D02*
X9415586Y-15737484D01*
X9672729Y-15937484D02*
X9672729Y-15737484D01*
X9672729Y-15737484D02*
X9739396Y-15880341D01*
X9739396Y-15880341D02*
X9806063Y-15737484D01*
X9806063Y-15737484D02*
X9806063Y-15937484D01*
X9987015Y-15937484D02*
X9987015Y-15832722D01*
X9987015Y-15832722D02*
X9977491Y-15813674D01*
X9977491Y-15813674D02*
X9958444Y-15804150D01*
X9958444Y-15804150D02*
X9920348Y-15804150D01*
X9920348Y-15804150D02*
X9901301Y-15813674D01*
X9987015Y-15927960D02*
X9967967Y-15937484D01*
X9967967Y-15937484D02*
X9920348Y-15937484D01*
X9920348Y-15937484D02*
X9901301Y-15927960D01*
X9901301Y-15927960D02*
X9891777Y-15908912D01*
X9891777Y-15908912D02*
X9891777Y-15889865D01*
X9891777Y-15889865D02*
X9901301Y-15870817D01*
X9901301Y-15870817D02*
X9920348Y-15861293D01*
X9920348Y-15861293D02*
X9967967Y-15861293D01*
X9967967Y-15861293D02*
X9987015Y-15851769D01*
X10082253Y-15804150D02*
X10082253Y-16004150D01*
X10082253Y-15813674D02*
X10101301Y-15804150D01*
X10101301Y-15804150D02*
X10139396Y-15804150D01*
X10139396Y-15804150D02*
X10158444Y-15813674D01*
X10158444Y-15813674D02*
X10167967Y-15823198D01*
X10167967Y-15823198D02*
X10177491Y-15842246D01*
X10177491Y-15842246D02*
X10177491Y-15899388D01*
X10177491Y-15899388D02*
X10167967Y-15918436D01*
X10167967Y-15918436D02*
X10158444Y-15927960D01*
X10158444Y-15927960D02*
X10139396Y-15937484D01*
X10139396Y-15937484D02*
X10101301Y-15937484D01*
X10101301Y-15937484D02*
X10082253Y-15927960D01*
X10263205Y-15918436D02*
X10272729Y-15927960D01*
X10272729Y-15927960D02*
X10263205Y-15937484D01*
X10263205Y-15937484D02*
X10253682Y-15927960D01*
X10253682Y-15927960D02*
X10263205Y-15918436D01*
X10263205Y-15918436D02*
X10263205Y-15937484D01*
X10263205Y-15813674D02*
X10272729Y-15823198D01*
X10272729Y-15823198D02*
X10263205Y-15832722D01*
X10263205Y-15832722D02*
X10253682Y-15823198D01*
X10253682Y-15823198D02*
X10263205Y-15813674D01*
X10263205Y-15813674D02*
X10263205Y-15832722D01*
D10*
X8591000Y-16246000D02*
X8631000Y-16286000D01*
X8631000Y-16246000D02*
X8591000Y-16286000D01*
D11*
X8929872Y-16157484D02*
X8948920Y-16157484D01*
X8948920Y-16157484D02*
X8967967Y-16167008D01*
X8967967Y-16167008D02*
X8977491Y-16176531D01*
X8977491Y-16176531D02*
X8987015Y-16195579D01*
X8987015Y-16195579D02*
X8996539Y-16233674D01*
X8996539Y-16233674D02*
X8996539Y-16281293D01*
X8996539Y-16281293D02*
X8987015Y-16319388D01*
X8987015Y-16319388D02*
X8977491Y-16338436D01*
X8977491Y-16338436D02*
X8967967Y-16347960D01*
X8967967Y-16347960D02*
X8948920Y-16357484D01*
X8948920Y-16357484D02*
X8929872Y-16357484D01*
X8929872Y-16357484D02*
X8910824Y-16347960D01*
X8910824Y-16347960D02*
X8901301Y-16338436D01*
X8901301Y-16338436D02*
X8891777Y-16319388D01*
X8891777Y-16319388D02*
X8882253Y-16281293D01*
X8882253Y-16281293D02*
X8882253Y-16233674D01*
X8882253Y-16233674D02*
X8891777Y-16195579D01*
X8891777Y-16195579D02*
X8901301Y-16176531D01*
X8901301Y-16176531D02*
X8910824Y-16167008D01*
X8910824Y-16167008D02*
X8929872Y-16157484D01*
X9082253Y-16338436D02*
X9091777Y-16347960D01*
X9091777Y-16347960D02*
X9082253Y-16357484D01*
X9082253Y-16357484D02*
X9072729Y-16347960D01*
X9072729Y-16347960D02*
X9082253Y-16338436D01*
X9082253Y-16338436D02*
X9082253Y-16357484D01*
X9263205Y-16224150D02*
X9263205Y-16357484D01*
X9215586Y-16147960D02*
X9167967Y-16290817D01*
X9167967Y-16290817D02*
X9291777Y-16290817D01*
X9406063Y-16157484D02*
X9425110Y-16157484D01*
X9425110Y-16157484D02*
X9444158Y-16167008D01*
X9444158Y-16167008D02*
X9453682Y-16176531D01*
X9453682Y-16176531D02*
X9463205Y-16195579D01*
X9463205Y-16195579D02*
X9472729Y-16233674D01*
X9472729Y-16233674D02*
X9472729Y-16281293D01*
X9472729Y-16281293D02*
X9463205Y-16319388D01*
X9463205Y-16319388D02*
X9453682Y-16338436D01*
X9453682Y-16338436D02*
X9444158Y-16347960D01*
X9444158Y-16347960D02*
X9425110Y-16357484D01*
X9425110Y-16357484D02*
X9406063Y-16357484D01*
X9406063Y-16357484D02*
X9387015Y-16347960D01*
X9387015Y-16347960D02*
X9377491Y-16338436D01*
X9377491Y-16338436D02*
X9367967Y-16319388D01*
X9367967Y-16319388D02*
X9358444Y-16281293D01*
X9358444Y-16281293D02*
X9358444Y-16233674D01*
X9358444Y-16233674D02*
X9367967Y-16195579D01*
X9367967Y-16195579D02*
X9377491Y-16176531D01*
X9377491Y-16176531D02*
X9387015Y-16167008D01*
X9387015Y-16167008D02*
X9406063Y-16157484D01*
X9596539Y-16157484D02*
X9615586Y-16157484D01*
X9615586Y-16157484D02*
X9634634Y-16167008D01*
X9634634Y-16167008D02*
X9644158Y-16176531D01*
X9644158Y-16176531D02*
X9653682Y-16195579D01*
X9653682Y-16195579D02*
X9663205Y-16233674D01*
X9663205Y-16233674D02*
X9663205Y-16281293D01*
X9663205Y-16281293D02*
X9653682Y-16319388D01*
X9653682Y-16319388D02*
X9644158Y-16338436D01*
X9644158Y-16338436D02*
X9634634Y-16347960D01*
X9634634Y-16347960D02*
X9615586Y-16357484D01*
X9615586Y-16357484D02*
X9596539Y-16357484D01*
X9596539Y-16357484D02*
X9577491Y-16347960D01*
X9577491Y-16347960D02*
X9567967Y-16338436D01*
X9567967Y-16338436D02*
X9558444Y-16319388D01*
X9558444Y-16319388D02*
X9548920Y-16281293D01*
X9548920Y-16281293D02*
X9548920Y-16233674D01*
X9548920Y-16233674D02*
X9558444Y-16195579D01*
X9558444Y-16195579D02*
X9567967Y-16176531D01*
X9567967Y-16176531D02*
X9577491Y-16167008D01*
X9577491Y-16167008D02*
X9596539Y-16157484D01*
X9748920Y-16357484D02*
X9748920Y-16224150D01*
X9748920Y-16243198D02*
X9758444Y-16233674D01*
X9758444Y-16233674D02*
X9777491Y-16224150D01*
X9777491Y-16224150D02*
X9806063Y-16224150D01*
X9806063Y-16224150D02*
X9825110Y-16233674D01*
X9825110Y-16233674D02*
X9834634Y-16252722D01*
X9834634Y-16252722D02*
X9834634Y-16357484D01*
X9834634Y-16252722D02*
X9844158Y-16233674D01*
X9844158Y-16233674D02*
X9863205Y-16224150D01*
X9863205Y-16224150D02*
X9891777Y-16224150D01*
X9891777Y-16224150D02*
X9910825Y-16233674D01*
X9910825Y-16233674D02*
X9920348Y-16252722D01*
X9920348Y-16252722D02*
X9920348Y-16357484D01*
X10015586Y-16357484D02*
X10015586Y-16224150D01*
X10015586Y-16243198D02*
X10025110Y-16233674D01*
X10025110Y-16233674D02*
X10044158Y-16224150D01*
X10044158Y-16224150D02*
X10072729Y-16224150D01*
X10072729Y-16224150D02*
X10091777Y-16233674D01*
X10091777Y-16233674D02*
X10101301Y-16252722D01*
X10101301Y-16252722D02*
X10101301Y-16357484D01*
X10101301Y-16252722D02*
X10110825Y-16233674D01*
X10110825Y-16233674D02*
X10129872Y-16224150D01*
X10129872Y-16224150D02*
X10158444Y-16224150D01*
X10158444Y-16224150D02*
X10177491Y-16233674D01*
X10177491Y-16233674D02*
X10187015Y-16252722D01*
X10187015Y-16252722D02*
X10187015Y-16357484D01*
X10577491Y-16147960D02*
X10406063Y-16405103D01*
X10834634Y-16157484D02*
X10853682Y-16157484D01*
X10853682Y-16157484D02*
X10872729Y-16167008D01*
X10872729Y-16167008D02*
X10882253Y-16176531D01*
X10882253Y-16176531D02*
X10891777Y-16195579D01*
X10891777Y-16195579D02*
X10901301Y-16233674D01*
X10901301Y-16233674D02*
X10901301Y-16281293D01*
X10901301Y-16281293D02*
X10891777Y-16319388D01*
X10891777Y-16319388D02*
X10882253Y-16338436D01*
X10882253Y-16338436D02*
X10872729Y-16347960D01*
X10872729Y-16347960D02*
X10853682Y-16357484D01*
X10853682Y-16357484D02*
X10834634Y-16357484D01*
X10834634Y-16357484D02*
X10815587Y-16347960D01*
X10815587Y-16347960D02*
X10806063Y-16338436D01*
X10806063Y-16338436D02*
X10796539Y-16319388D01*
X10796539Y-16319388D02*
X10787015Y-16281293D01*
X10787015Y-16281293D02*
X10787015Y-16233674D01*
X10787015Y-16233674D02*
X10796539Y-16195579D01*
X10796539Y-16195579D02*
X10806063Y-16176531D01*
X10806063Y-16176531D02*
X10815587Y-16167008D01*
X10815587Y-16167008D02*
X10834634Y-16157484D01*
X10987015Y-16338436D02*
X10996539Y-16347960D01*
X10996539Y-16347960D02*
X10987015Y-16357484D01*
X10987015Y-16357484D02*
X10977491Y-16347960D01*
X10977491Y-16347960D02*
X10987015Y-16338436D01*
X10987015Y-16338436D02*
X10987015Y-16357484D01*
X11120348Y-16157484D02*
X11139396Y-16157484D01*
X11139396Y-16157484D02*
X11158444Y-16167008D01*
X11158444Y-16167008D02*
X11167968Y-16176531D01*
X11167968Y-16176531D02*
X11177491Y-16195579D01*
X11177491Y-16195579D02*
X11187015Y-16233674D01*
X11187015Y-16233674D02*
X11187015Y-16281293D01*
X11187015Y-16281293D02*
X11177491Y-16319388D01*
X11177491Y-16319388D02*
X11167968Y-16338436D01*
X11167968Y-16338436D02*
X11158444Y-16347960D01*
X11158444Y-16347960D02*
X11139396Y-16357484D01*
X11139396Y-16357484D02*
X11120348Y-16357484D01*
X11120348Y-16357484D02*
X11101301Y-16347960D01*
X11101301Y-16347960D02*
X11091777Y-16338436D01*
X11091777Y-16338436D02*
X11082253Y-16319388D01*
X11082253Y-16319388D02*
X11072729Y-16281293D01*
X11072729Y-16281293D02*
X11072729Y-16233674D01*
X11072729Y-16233674D02*
X11082253Y-16195579D01*
X11082253Y-16195579D02*
X11091777Y-16176531D01*
X11091777Y-16176531D02*
X11101301Y-16167008D01*
X11101301Y-16167008D02*
X11120348Y-16157484D01*
X11377491Y-16357484D02*
X11263206Y-16357484D01*
X11320348Y-16357484D02*
X11320348Y-16157484D01*
X11320348Y-16157484D02*
X11301301Y-16186055D01*
X11301301Y-16186055D02*
X11282253Y-16205103D01*
X11282253Y-16205103D02*
X11263206Y-16214627D01*
X11558444Y-16157484D02*
X11463206Y-16157484D01*
X11463206Y-16157484D02*
X11453682Y-16252722D01*
X11453682Y-16252722D02*
X11463206Y-16243198D01*
X11463206Y-16243198D02*
X11482253Y-16233674D01*
X11482253Y-16233674D02*
X11529872Y-16233674D01*
X11529872Y-16233674D02*
X11548920Y-16243198D01*
X11548920Y-16243198D02*
X11558444Y-16252722D01*
X11558444Y-16252722D02*
X11567967Y-16271769D01*
X11567967Y-16271769D02*
X11567967Y-16319388D01*
X11567967Y-16319388D02*
X11558444Y-16338436D01*
X11558444Y-16338436D02*
X11548920Y-16347960D01*
X11548920Y-16347960D02*
X11529872Y-16357484D01*
X11529872Y-16357484D02*
X11482253Y-16357484D01*
X11482253Y-16357484D02*
X11463206Y-16347960D01*
X11463206Y-16347960D02*
X11453682Y-16338436D01*
X11634634Y-16157484D02*
X11767967Y-16157484D01*
X11767967Y-16157484D02*
X11682253Y-16357484D01*
X11834634Y-16157484D02*
X11834634Y-16195579D01*
X11910825Y-16157484D02*
X11910825Y-16195579D01*
X12206063Y-16433674D02*
X12196539Y-16424150D01*
X12196539Y-16424150D02*
X12177491Y-16395579D01*
X12177491Y-16395579D02*
X12167968Y-16376531D01*
X12167968Y-16376531D02*
X12158444Y-16347960D01*
X12158444Y-16347960D02*
X12148920Y-16300341D01*
X12148920Y-16300341D02*
X12148920Y-16262246D01*
X12148920Y-16262246D02*
X12158444Y-16214627D01*
X12158444Y-16214627D02*
X12167968Y-16186055D01*
X12167968Y-16186055D02*
X12177491Y-16167008D01*
X12177491Y-16167008D02*
X12196539Y-16138436D01*
X12196539Y-16138436D02*
X12206063Y-16128912D01*
X12367968Y-16224150D02*
X12367968Y-16357484D01*
X12320348Y-16147960D02*
X12272729Y-16290817D01*
X12272729Y-16290817D02*
X12396539Y-16290817D01*
X12625110Y-16357484D02*
X12625110Y-16157484D01*
X12710825Y-16357484D02*
X12710825Y-16252722D01*
X12710825Y-16252722D02*
X12701301Y-16233674D01*
X12701301Y-16233674D02*
X12682253Y-16224150D01*
X12682253Y-16224150D02*
X12653682Y-16224150D01*
X12653682Y-16224150D02*
X12634634Y-16233674D01*
X12634634Y-16233674D02*
X12625110Y-16243198D01*
X12834634Y-16357484D02*
X12815587Y-16347960D01*
X12815587Y-16347960D02*
X12806063Y-16338436D01*
X12806063Y-16338436D02*
X12796539Y-16319388D01*
X12796539Y-16319388D02*
X12796539Y-16262246D01*
X12796539Y-16262246D02*
X12806063Y-16243198D01*
X12806063Y-16243198D02*
X12815587Y-16233674D01*
X12815587Y-16233674D02*
X12834634Y-16224150D01*
X12834634Y-16224150D02*
X12863206Y-16224150D01*
X12863206Y-16224150D02*
X12882253Y-16233674D01*
X12882253Y-16233674D02*
X12891777Y-16243198D01*
X12891777Y-16243198D02*
X12901301Y-16262246D01*
X12901301Y-16262246D02*
X12901301Y-16319388D01*
X12901301Y-16319388D02*
X12891777Y-16338436D01*
X12891777Y-16338436D02*
X12882253Y-16347960D01*
X12882253Y-16347960D02*
X12863206Y-16357484D01*
X12863206Y-16357484D02*
X12834634Y-16357484D01*
X13015587Y-16357484D02*
X12996539Y-16347960D01*
X12996539Y-16347960D02*
X12987015Y-16328912D01*
X12987015Y-16328912D02*
X12987015Y-16157484D01*
X13167968Y-16347960D02*
X13148920Y-16357484D01*
X13148920Y-16357484D02*
X13110825Y-16357484D01*
X13110825Y-16357484D02*
X13091777Y-16347960D01*
X13091777Y-16347960D02*
X13082253Y-16328912D01*
X13082253Y-16328912D02*
X13082253Y-16252722D01*
X13082253Y-16252722D02*
X13091777Y-16233674D01*
X13091777Y-16233674D02*
X13110825Y-16224150D01*
X13110825Y-16224150D02*
X13148920Y-16224150D01*
X13148920Y-16224150D02*
X13167968Y-16233674D01*
X13167968Y-16233674D02*
X13177491Y-16252722D01*
X13177491Y-16252722D02*
X13177491Y-16271769D01*
X13177491Y-16271769D02*
X13082253Y-16290817D01*
X13253682Y-16347960D02*
X13272730Y-16357484D01*
X13272730Y-16357484D02*
X13310825Y-16357484D01*
X13310825Y-16357484D02*
X13329872Y-16347960D01*
X13329872Y-16347960D02*
X13339396Y-16328912D01*
X13339396Y-16328912D02*
X13339396Y-16319388D01*
X13339396Y-16319388D02*
X13329872Y-16300341D01*
X13329872Y-16300341D02*
X13310825Y-16290817D01*
X13310825Y-16290817D02*
X13282253Y-16290817D01*
X13282253Y-16290817D02*
X13263206Y-16281293D01*
X13263206Y-16281293D02*
X13253682Y-16262246D01*
X13253682Y-16262246D02*
X13253682Y-16252722D01*
X13253682Y-16252722D02*
X13263206Y-16233674D01*
X13263206Y-16233674D02*
X13282253Y-16224150D01*
X13282253Y-16224150D02*
X13310825Y-16224150D01*
X13310825Y-16224150D02*
X13329872Y-16233674D01*
X13406063Y-16433674D02*
X13415587Y-16424150D01*
X13415587Y-16424150D02*
X13434634Y-16395579D01*
X13434634Y-16395579D02*
X13444158Y-16376531D01*
X13444158Y-16376531D02*
X13453682Y-16347960D01*
X13453682Y-16347960D02*
X13463206Y-16300341D01*
X13463206Y-16300341D02*
X13463206Y-16262246D01*
X13463206Y-16262246D02*
X13453682Y-16214627D01*
X13453682Y-16214627D02*
X13444158Y-16186055D01*
X13444158Y-16186055D02*
X13434634Y-16167008D01*
X13434634Y-16167008D02*
X13415587Y-16138436D01*
X13415587Y-16138436D02*
X13406063Y-16128912D01*
D10*
X8631000Y-16530000D02*
G75*
G03*
X8556000Y-16530000I-37500J0D01*
G01*
X8556000Y-16530000D02*
G75*
G03*
X8631000Y-16530000I37500J0D01*
G01*
D11*
X8929872Y-16421484D02*
X8948920Y-16421484D01*
X8948920Y-16421484D02*
X8967967Y-16431008D01*
X8967967Y-16431008D02*
X8977491Y-16440531D01*
X8977491Y-16440531D02*
X8987015Y-16459579D01*
X8987015Y-16459579D02*
X8996539Y-16497674D01*
X8996539Y-16497674D02*
X8996539Y-16545293D01*
X8996539Y-16545293D02*
X8987015Y-16583388D01*
X8987015Y-16583388D02*
X8977491Y-16602436D01*
X8977491Y-16602436D02*
X8967967Y-16611960D01*
X8967967Y-16611960D02*
X8948920Y-16621484D01*
X8948920Y-16621484D02*
X8929872Y-16621484D01*
X8929872Y-16621484D02*
X8910824Y-16611960D01*
X8910824Y-16611960D02*
X8901301Y-16602436D01*
X8901301Y-16602436D02*
X8891777Y-16583388D01*
X8891777Y-16583388D02*
X8882253Y-16545293D01*
X8882253Y-16545293D02*
X8882253Y-16497674D01*
X8882253Y-16497674D02*
X8891777Y-16459579D01*
X8891777Y-16459579D02*
X8901301Y-16440531D01*
X8901301Y-16440531D02*
X8910824Y-16431008D01*
X8910824Y-16431008D02*
X8929872Y-16421484D01*
X9082253Y-16602436D02*
X9091777Y-16611960D01*
X9091777Y-16611960D02*
X9082253Y-16621484D01*
X9082253Y-16621484D02*
X9072729Y-16611960D01*
X9072729Y-16611960D02*
X9082253Y-16602436D01*
X9082253Y-16602436D02*
X9082253Y-16621484D01*
X9158444Y-16421484D02*
X9291777Y-16421484D01*
X9291777Y-16421484D02*
X9206063Y-16621484D01*
X9463205Y-16421484D02*
X9367967Y-16421484D01*
X9367967Y-16421484D02*
X9358444Y-16516722D01*
X9358444Y-16516722D02*
X9367967Y-16507198D01*
X9367967Y-16507198D02*
X9387015Y-16497674D01*
X9387015Y-16497674D02*
X9434634Y-16497674D01*
X9434634Y-16497674D02*
X9453682Y-16507198D01*
X9453682Y-16507198D02*
X9463205Y-16516722D01*
X9463205Y-16516722D02*
X9472729Y-16535769D01*
X9472729Y-16535769D02*
X9472729Y-16583388D01*
X9472729Y-16583388D02*
X9463205Y-16602436D01*
X9463205Y-16602436D02*
X9453682Y-16611960D01*
X9453682Y-16611960D02*
X9434634Y-16621484D01*
X9434634Y-16621484D02*
X9387015Y-16621484D01*
X9387015Y-16621484D02*
X9367967Y-16611960D01*
X9367967Y-16611960D02*
X9358444Y-16602436D01*
X9596539Y-16421484D02*
X9615586Y-16421484D01*
X9615586Y-16421484D02*
X9634634Y-16431008D01*
X9634634Y-16431008D02*
X9644158Y-16440531D01*
X9644158Y-16440531D02*
X9653682Y-16459579D01*
X9653682Y-16459579D02*
X9663205Y-16497674D01*
X9663205Y-16497674D02*
X9663205Y-16545293D01*
X9663205Y-16545293D02*
X9653682Y-16583388D01*
X9653682Y-16583388D02*
X9644158Y-16602436D01*
X9644158Y-16602436D02*
X9634634Y-16611960D01*
X9634634Y-16611960D02*
X9615586Y-16621484D01*
X9615586Y-16621484D02*
X9596539Y-16621484D01*
X9596539Y-16621484D02*
X9577491Y-16611960D01*
X9577491Y-16611960D02*
X9567967Y-16602436D01*
X9567967Y-16602436D02*
X9558444Y-16583388D01*
X9558444Y-16583388D02*
X9548920Y-16545293D01*
X9548920Y-16545293D02*
X9548920Y-16497674D01*
X9548920Y-16497674D02*
X9558444Y-16459579D01*
X9558444Y-16459579D02*
X9567967Y-16440531D01*
X9567967Y-16440531D02*
X9577491Y-16431008D01*
X9577491Y-16431008D02*
X9596539Y-16421484D01*
X9748920Y-16621484D02*
X9748920Y-16488150D01*
X9748920Y-16507198D02*
X9758444Y-16497674D01*
X9758444Y-16497674D02*
X9777491Y-16488150D01*
X9777491Y-16488150D02*
X9806063Y-16488150D01*
X9806063Y-16488150D02*
X9825110Y-16497674D01*
X9825110Y-16497674D02*
X9834634Y-16516722D01*
X9834634Y-16516722D02*
X9834634Y-16621484D01*
X9834634Y-16516722D02*
X9844158Y-16497674D01*
X9844158Y-16497674D02*
X9863205Y-16488150D01*
X9863205Y-16488150D02*
X9891777Y-16488150D01*
X9891777Y-16488150D02*
X9910825Y-16497674D01*
X9910825Y-16497674D02*
X9920348Y-16516722D01*
X9920348Y-16516722D02*
X9920348Y-16621484D01*
X10015586Y-16621484D02*
X10015586Y-16488150D01*
X10015586Y-16507198D02*
X10025110Y-16497674D01*
X10025110Y-16497674D02*
X10044158Y-16488150D01*
X10044158Y-16488150D02*
X10072729Y-16488150D01*
X10072729Y-16488150D02*
X10091777Y-16497674D01*
X10091777Y-16497674D02*
X10101301Y-16516722D01*
X10101301Y-16516722D02*
X10101301Y-16621484D01*
X10101301Y-16516722D02*
X10110825Y-16497674D01*
X10110825Y-16497674D02*
X10129872Y-16488150D01*
X10129872Y-16488150D02*
X10158444Y-16488150D01*
X10158444Y-16488150D02*
X10177491Y-16497674D01*
X10177491Y-16497674D02*
X10187015Y-16516722D01*
X10187015Y-16516722D02*
X10187015Y-16621484D01*
X10577491Y-16411960D02*
X10406063Y-16669103D01*
X10834634Y-16421484D02*
X10853682Y-16421484D01*
X10853682Y-16421484D02*
X10872729Y-16431008D01*
X10872729Y-16431008D02*
X10882253Y-16440531D01*
X10882253Y-16440531D02*
X10891777Y-16459579D01*
X10891777Y-16459579D02*
X10901301Y-16497674D01*
X10901301Y-16497674D02*
X10901301Y-16545293D01*
X10901301Y-16545293D02*
X10891777Y-16583388D01*
X10891777Y-16583388D02*
X10882253Y-16602436D01*
X10882253Y-16602436D02*
X10872729Y-16611960D01*
X10872729Y-16611960D02*
X10853682Y-16621484D01*
X10853682Y-16621484D02*
X10834634Y-16621484D01*
X10834634Y-16621484D02*
X10815587Y-16611960D01*
X10815587Y-16611960D02*
X10806063Y-16602436D01*
X10806063Y-16602436D02*
X10796539Y-16583388D01*
X10796539Y-16583388D02*
X10787015Y-16545293D01*
X10787015Y-16545293D02*
X10787015Y-16497674D01*
X10787015Y-16497674D02*
X10796539Y-16459579D01*
X10796539Y-16459579D02*
X10806063Y-16440531D01*
X10806063Y-16440531D02*
X10815587Y-16431008D01*
X10815587Y-16431008D02*
X10834634Y-16421484D01*
X10987015Y-16602436D02*
X10996539Y-16611960D01*
X10996539Y-16611960D02*
X10987015Y-16621484D01*
X10987015Y-16621484D02*
X10977491Y-16611960D01*
X10977491Y-16611960D02*
X10987015Y-16602436D01*
X10987015Y-16602436D02*
X10987015Y-16621484D01*
X11120348Y-16421484D02*
X11139396Y-16421484D01*
X11139396Y-16421484D02*
X11158444Y-16431008D01*
X11158444Y-16431008D02*
X11167968Y-16440531D01*
X11167968Y-16440531D02*
X11177491Y-16459579D01*
X11177491Y-16459579D02*
X11187015Y-16497674D01*
X11187015Y-16497674D02*
X11187015Y-16545293D01*
X11187015Y-16545293D02*
X11177491Y-16583388D01*
X11177491Y-16583388D02*
X11167968Y-16602436D01*
X11167968Y-16602436D02*
X11158444Y-16611960D01*
X11158444Y-16611960D02*
X11139396Y-16621484D01*
X11139396Y-16621484D02*
X11120348Y-16621484D01*
X11120348Y-16621484D02*
X11101301Y-16611960D01*
X11101301Y-16611960D02*
X11091777Y-16602436D01*
X11091777Y-16602436D02*
X11082253Y-16583388D01*
X11082253Y-16583388D02*
X11072729Y-16545293D01*
X11072729Y-16545293D02*
X11072729Y-16497674D01*
X11072729Y-16497674D02*
X11082253Y-16459579D01*
X11082253Y-16459579D02*
X11091777Y-16440531D01*
X11091777Y-16440531D02*
X11101301Y-16431008D01*
X11101301Y-16431008D02*
X11120348Y-16421484D01*
X11263206Y-16440531D02*
X11272729Y-16431008D01*
X11272729Y-16431008D02*
X11291777Y-16421484D01*
X11291777Y-16421484D02*
X11339396Y-16421484D01*
X11339396Y-16421484D02*
X11358444Y-16431008D01*
X11358444Y-16431008D02*
X11367967Y-16440531D01*
X11367967Y-16440531D02*
X11377491Y-16459579D01*
X11377491Y-16459579D02*
X11377491Y-16478627D01*
X11377491Y-16478627D02*
X11367967Y-16507198D01*
X11367967Y-16507198D02*
X11253682Y-16621484D01*
X11253682Y-16621484D02*
X11377491Y-16621484D01*
X11472729Y-16621484D02*
X11510825Y-16621484D01*
X11510825Y-16621484D02*
X11529872Y-16611960D01*
X11529872Y-16611960D02*
X11539396Y-16602436D01*
X11539396Y-16602436D02*
X11558444Y-16573865D01*
X11558444Y-16573865D02*
X11567967Y-16535769D01*
X11567967Y-16535769D02*
X11567967Y-16459579D01*
X11567967Y-16459579D02*
X11558444Y-16440531D01*
X11558444Y-16440531D02*
X11548920Y-16431008D01*
X11548920Y-16431008D02*
X11529872Y-16421484D01*
X11529872Y-16421484D02*
X11491777Y-16421484D01*
X11491777Y-16421484D02*
X11472729Y-16431008D01*
X11472729Y-16431008D02*
X11463206Y-16440531D01*
X11463206Y-16440531D02*
X11453682Y-16459579D01*
X11453682Y-16459579D02*
X11453682Y-16507198D01*
X11453682Y-16507198D02*
X11463206Y-16526246D01*
X11463206Y-16526246D02*
X11472729Y-16535769D01*
X11472729Y-16535769D02*
X11491777Y-16545293D01*
X11491777Y-16545293D02*
X11529872Y-16545293D01*
X11529872Y-16545293D02*
X11548920Y-16535769D01*
X11548920Y-16535769D02*
X11558444Y-16526246D01*
X11558444Y-16526246D02*
X11567967Y-16507198D01*
X11748920Y-16421484D02*
X11653682Y-16421484D01*
X11653682Y-16421484D02*
X11644158Y-16516722D01*
X11644158Y-16516722D02*
X11653682Y-16507198D01*
X11653682Y-16507198D02*
X11672729Y-16497674D01*
X11672729Y-16497674D02*
X11720348Y-16497674D01*
X11720348Y-16497674D02*
X11739396Y-16507198D01*
X11739396Y-16507198D02*
X11748920Y-16516722D01*
X11748920Y-16516722D02*
X11758444Y-16535769D01*
X11758444Y-16535769D02*
X11758444Y-16583388D01*
X11758444Y-16583388D02*
X11748920Y-16602436D01*
X11748920Y-16602436D02*
X11739396Y-16611960D01*
X11739396Y-16611960D02*
X11720348Y-16621484D01*
X11720348Y-16621484D02*
X11672729Y-16621484D01*
X11672729Y-16621484D02*
X11653682Y-16611960D01*
X11653682Y-16611960D02*
X11644158Y-16602436D01*
X11834634Y-16421484D02*
X11834634Y-16459579D01*
X11910825Y-16421484D02*
X11910825Y-16459579D01*
X12206063Y-16697674D02*
X12196539Y-16688150D01*
X12196539Y-16688150D02*
X12177491Y-16659579D01*
X12177491Y-16659579D02*
X12167968Y-16640531D01*
X12167968Y-16640531D02*
X12158444Y-16611960D01*
X12158444Y-16611960D02*
X12148920Y-16564341D01*
X12148920Y-16564341D02*
X12148920Y-16526246D01*
X12148920Y-16526246D02*
X12158444Y-16478627D01*
X12158444Y-16478627D02*
X12167968Y-16450055D01*
X12167968Y-16450055D02*
X12177491Y-16431008D01*
X12177491Y-16431008D02*
X12196539Y-16402436D01*
X12196539Y-16402436D02*
X12206063Y-16392912D01*
X12387015Y-16621484D02*
X12272729Y-16621484D01*
X12329872Y-16621484D02*
X12329872Y-16421484D01*
X12329872Y-16421484D02*
X12310825Y-16450055D01*
X12310825Y-16450055D02*
X12291777Y-16469103D01*
X12291777Y-16469103D02*
X12272729Y-16478627D01*
X12501301Y-16507198D02*
X12482253Y-16497674D01*
X12482253Y-16497674D02*
X12472729Y-16488150D01*
X12472729Y-16488150D02*
X12463206Y-16469103D01*
X12463206Y-16469103D02*
X12463206Y-16459579D01*
X12463206Y-16459579D02*
X12472729Y-16440531D01*
X12472729Y-16440531D02*
X12482253Y-16431008D01*
X12482253Y-16431008D02*
X12501301Y-16421484D01*
X12501301Y-16421484D02*
X12539396Y-16421484D01*
X12539396Y-16421484D02*
X12558444Y-16431008D01*
X12558444Y-16431008D02*
X12567968Y-16440531D01*
X12567968Y-16440531D02*
X12577491Y-16459579D01*
X12577491Y-16459579D02*
X12577491Y-16469103D01*
X12577491Y-16469103D02*
X12567968Y-16488150D01*
X12567968Y-16488150D02*
X12558444Y-16497674D01*
X12558444Y-16497674D02*
X12539396Y-16507198D01*
X12539396Y-16507198D02*
X12501301Y-16507198D01*
X12501301Y-16507198D02*
X12482253Y-16516722D01*
X12482253Y-16516722D02*
X12472729Y-16526246D01*
X12472729Y-16526246D02*
X12463206Y-16545293D01*
X12463206Y-16545293D02*
X12463206Y-16583388D01*
X12463206Y-16583388D02*
X12472729Y-16602436D01*
X12472729Y-16602436D02*
X12482253Y-16611960D01*
X12482253Y-16611960D02*
X12501301Y-16621484D01*
X12501301Y-16621484D02*
X12539396Y-16621484D01*
X12539396Y-16621484D02*
X12558444Y-16611960D01*
X12558444Y-16611960D02*
X12567968Y-16602436D01*
X12567968Y-16602436D02*
X12577491Y-16583388D01*
X12577491Y-16583388D02*
X12577491Y-16545293D01*
X12577491Y-16545293D02*
X12567968Y-16526246D01*
X12567968Y-16526246D02*
X12558444Y-16516722D01*
X12558444Y-16516722D02*
X12539396Y-16507198D01*
X12815587Y-16621484D02*
X12815587Y-16421484D01*
X12901301Y-16621484D02*
X12901301Y-16516722D01*
X12901301Y-16516722D02*
X12891777Y-16497674D01*
X12891777Y-16497674D02*
X12872730Y-16488150D01*
X12872730Y-16488150D02*
X12844158Y-16488150D01*
X12844158Y-16488150D02*
X12825110Y-16497674D01*
X12825110Y-16497674D02*
X12815587Y-16507198D01*
X13025110Y-16621484D02*
X13006063Y-16611960D01*
X13006063Y-16611960D02*
X12996539Y-16602436D01*
X12996539Y-16602436D02*
X12987015Y-16583388D01*
X12987015Y-16583388D02*
X12987015Y-16526246D01*
X12987015Y-16526246D02*
X12996539Y-16507198D01*
X12996539Y-16507198D02*
X13006063Y-16497674D01*
X13006063Y-16497674D02*
X13025110Y-16488150D01*
X13025110Y-16488150D02*
X13053682Y-16488150D01*
X13053682Y-16488150D02*
X13072730Y-16497674D01*
X13072730Y-16497674D02*
X13082253Y-16507198D01*
X13082253Y-16507198D02*
X13091777Y-16526246D01*
X13091777Y-16526246D02*
X13091777Y-16583388D01*
X13091777Y-16583388D02*
X13082253Y-16602436D01*
X13082253Y-16602436D02*
X13072730Y-16611960D01*
X13072730Y-16611960D02*
X13053682Y-16621484D01*
X13053682Y-16621484D02*
X13025110Y-16621484D01*
X13206063Y-16621484D02*
X13187015Y-16611960D01*
X13187015Y-16611960D02*
X13177491Y-16592912D01*
X13177491Y-16592912D02*
X13177491Y-16421484D01*
X13358444Y-16611960D02*
X13339396Y-16621484D01*
X13339396Y-16621484D02*
X13301301Y-16621484D01*
X13301301Y-16621484D02*
X13282253Y-16611960D01*
X13282253Y-16611960D02*
X13272730Y-16592912D01*
X13272730Y-16592912D02*
X13272730Y-16516722D01*
X13272730Y-16516722D02*
X13282253Y-16497674D01*
X13282253Y-16497674D02*
X13301301Y-16488150D01*
X13301301Y-16488150D02*
X13339396Y-16488150D01*
X13339396Y-16488150D02*
X13358444Y-16497674D01*
X13358444Y-16497674D02*
X13367968Y-16516722D01*
X13367968Y-16516722D02*
X13367968Y-16535769D01*
X13367968Y-16535769D02*
X13272730Y-16554817D01*
X13444158Y-16611960D02*
X13463206Y-16621484D01*
X13463206Y-16621484D02*
X13501301Y-16621484D01*
X13501301Y-16621484D02*
X13520349Y-16611960D01*
X13520349Y-16611960D02*
X13529872Y-16592912D01*
X13529872Y-16592912D02*
X13529872Y-16583388D01*
X13529872Y-16583388D02*
X13520349Y-16564341D01*
X13520349Y-16564341D02*
X13501301Y-16554817D01*
X13501301Y-16554817D02*
X13472730Y-16554817D01*
X13472730Y-16554817D02*
X13453682Y-16545293D01*
X13453682Y-16545293D02*
X13444158Y-16526246D01*
X13444158Y-16526246D02*
X13444158Y-16516722D01*
X13444158Y-16516722D02*
X13453682Y-16497674D01*
X13453682Y-16497674D02*
X13472730Y-16488150D01*
X13472730Y-16488150D02*
X13501301Y-16488150D01*
X13501301Y-16488150D02*
X13520349Y-16497674D01*
X13596539Y-16697674D02*
X13606063Y-16688150D01*
X13606063Y-16688150D02*
X13625111Y-16659579D01*
X13625111Y-16659579D02*
X13634634Y-16640531D01*
X13634634Y-16640531D02*
X13644158Y-16611960D01*
X13644158Y-16611960D02*
X13653682Y-16564341D01*
X13653682Y-16564341D02*
X13653682Y-16526246D01*
X13653682Y-16526246D02*
X13644158Y-16478627D01*
X13644158Y-16478627D02*
X13634634Y-16450055D01*
X13634634Y-16450055D02*
X13625111Y-16431008D01*
X13625111Y-16431008D02*
X13606063Y-16402436D01*
X13606063Y-16402436D02*
X13596539Y-16392912D01*
D10*
X8591000Y-16754000D02*
X8591000Y-16834000D01*
X8551000Y-16794000D02*
X8631000Y-16794000D01*
D11*
X8929872Y-16685484D02*
X8948920Y-16685484D01*
X8948920Y-16685484D02*
X8967967Y-16695008D01*
X8967967Y-16695008D02*
X8977491Y-16704531D01*
X8977491Y-16704531D02*
X8987015Y-16723579D01*
X8987015Y-16723579D02*
X8996539Y-16761674D01*
X8996539Y-16761674D02*
X8996539Y-16809293D01*
X8996539Y-16809293D02*
X8987015Y-16847389D01*
X8987015Y-16847389D02*
X8977491Y-16866436D01*
X8977491Y-16866436D02*
X8967967Y-16875960D01*
X8967967Y-16875960D02*
X8948920Y-16885484D01*
X8948920Y-16885484D02*
X8929872Y-16885484D01*
X8929872Y-16885484D02*
X8910824Y-16875960D01*
X8910824Y-16875960D02*
X8901301Y-16866436D01*
X8901301Y-16866436D02*
X8891777Y-16847389D01*
X8891777Y-16847389D02*
X8882253Y-16809293D01*
X8882253Y-16809293D02*
X8882253Y-16761674D01*
X8882253Y-16761674D02*
X8891777Y-16723579D01*
X8891777Y-16723579D02*
X8901301Y-16704531D01*
X8901301Y-16704531D02*
X8910824Y-16695008D01*
X8910824Y-16695008D02*
X8929872Y-16685484D01*
X9082253Y-16866436D02*
X9091777Y-16875960D01*
X9091777Y-16875960D02*
X9082253Y-16885484D01*
X9082253Y-16885484D02*
X9072729Y-16875960D01*
X9072729Y-16875960D02*
X9082253Y-16866436D01*
X9082253Y-16866436D02*
X9082253Y-16885484D01*
X9206063Y-16771198D02*
X9187015Y-16761674D01*
X9187015Y-16761674D02*
X9177491Y-16752150D01*
X9177491Y-16752150D02*
X9167967Y-16733103D01*
X9167967Y-16733103D02*
X9167967Y-16723579D01*
X9167967Y-16723579D02*
X9177491Y-16704531D01*
X9177491Y-16704531D02*
X9187015Y-16695008D01*
X9187015Y-16695008D02*
X9206063Y-16685484D01*
X9206063Y-16685484D02*
X9244158Y-16685484D01*
X9244158Y-16685484D02*
X9263205Y-16695008D01*
X9263205Y-16695008D02*
X9272729Y-16704531D01*
X9272729Y-16704531D02*
X9282253Y-16723579D01*
X9282253Y-16723579D02*
X9282253Y-16733103D01*
X9282253Y-16733103D02*
X9272729Y-16752150D01*
X9272729Y-16752150D02*
X9263205Y-16761674D01*
X9263205Y-16761674D02*
X9244158Y-16771198D01*
X9244158Y-16771198D02*
X9206063Y-16771198D01*
X9206063Y-16771198D02*
X9187015Y-16780722D01*
X9187015Y-16780722D02*
X9177491Y-16790246D01*
X9177491Y-16790246D02*
X9167967Y-16809293D01*
X9167967Y-16809293D02*
X9167967Y-16847389D01*
X9167967Y-16847389D02*
X9177491Y-16866436D01*
X9177491Y-16866436D02*
X9187015Y-16875960D01*
X9187015Y-16875960D02*
X9206063Y-16885484D01*
X9206063Y-16885484D02*
X9244158Y-16885484D01*
X9244158Y-16885484D02*
X9263205Y-16875960D01*
X9263205Y-16875960D02*
X9272729Y-16866436D01*
X9272729Y-16866436D02*
X9282253Y-16847389D01*
X9282253Y-16847389D02*
X9282253Y-16809293D01*
X9282253Y-16809293D02*
X9272729Y-16790246D01*
X9272729Y-16790246D02*
X9263205Y-16780722D01*
X9263205Y-16780722D02*
X9244158Y-16771198D01*
X9406063Y-16685484D02*
X9425110Y-16685484D01*
X9425110Y-16685484D02*
X9444158Y-16695008D01*
X9444158Y-16695008D02*
X9453682Y-16704531D01*
X9453682Y-16704531D02*
X9463205Y-16723579D01*
X9463205Y-16723579D02*
X9472729Y-16761674D01*
X9472729Y-16761674D02*
X9472729Y-16809293D01*
X9472729Y-16809293D02*
X9463205Y-16847389D01*
X9463205Y-16847389D02*
X9453682Y-16866436D01*
X9453682Y-16866436D02*
X9444158Y-16875960D01*
X9444158Y-16875960D02*
X9425110Y-16885484D01*
X9425110Y-16885484D02*
X9406063Y-16885484D01*
X9406063Y-16885484D02*
X9387015Y-16875960D01*
X9387015Y-16875960D02*
X9377491Y-16866436D01*
X9377491Y-16866436D02*
X9367967Y-16847389D01*
X9367967Y-16847389D02*
X9358444Y-16809293D01*
X9358444Y-16809293D02*
X9358444Y-16761674D01*
X9358444Y-16761674D02*
X9367967Y-16723579D01*
X9367967Y-16723579D02*
X9377491Y-16704531D01*
X9377491Y-16704531D02*
X9387015Y-16695008D01*
X9387015Y-16695008D02*
X9406063Y-16685484D01*
X9596539Y-16685484D02*
X9615586Y-16685484D01*
X9615586Y-16685484D02*
X9634634Y-16695008D01*
X9634634Y-16695008D02*
X9644158Y-16704531D01*
X9644158Y-16704531D02*
X9653682Y-16723579D01*
X9653682Y-16723579D02*
X9663205Y-16761674D01*
X9663205Y-16761674D02*
X9663205Y-16809293D01*
X9663205Y-16809293D02*
X9653682Y-16847389D01*
X9653682Y-16847389D02*
X9644158Y-16866436D01*
X9644158Y-16866436D02*
X9634634Y-16875960D01*
X9634634Y-16875960D02*
X9615586Y-16885484D01*
X9615586Y-16885484D02*
X9596539Y-16885484D01*
X9596539Y-16885484D02*
X9577491Y-16875960D01*
X9577491Y-16875960D02*
X9567967Y-16866436D01*
X9567967Y-16866436D02*
X9558444Y-16847389D01*
X9558444Y-16847389D02*
X9548920Y-16809293D01*
X9548920Y-16809293D02*
X9548920Y-16761674D01*
X9548920Y-16761674D02*
X9558444Y-16723579D01*
X9558444Y-16723579D02*
X9567967Y-16704531D01*
X9567967Y-16704531D02*
X9577491Y-16695008D01*
X9577491Y-16695008D02*
X9596539Y-16685484D01*
X9748920Y-16885484D02*
X9748920Y-16752150D01*
X9748920Y-16771198D02*
X9758444Y-16761674D01*
X9758444Y-16761674D02*
X9777491Y-16752150D01*
X9777491Y-16752150D02*
X9806063Y-16752150D01*
X9806063Y-16752150D02*
X9825110Y-16761674D01*
X9825110Y-16761674D02*
X9834634Y-16780722D01*
X9834634Y-16780722D02*
X9834634Y-16885484D01*
X9834634Y-16780722D02*
X9844158Y-16761674D01*
X9844158Y-16761674D02*
X9863205Y-16752150D01*
X9863205Y-16752150D02*
X9891777Y-16752150D01*
X9891777Y-16752150D02*
X9910825Y-16761674D01*
X9910825Y-16761674D02*
X9920348Y-16780722D01*
X9920348Y-16780722D02*
X9920348Y-16885484D01*
X10015586Y-16885484D02*
X10015586Y-16752150D01*
X10015586Y-16771198D02*
X10025110Y-16761674D01*
X10025110Y-16761674D02*
X10044158Y-16752150D01*
X10044158Y-16752150D02*
X10072729Y-16752150D01*
X10072729Y-16752150D02*
X10091777Y-16761674D01*
X10091777Y-16761674D02*
X10101301Y-16780722D01*
X10101301Y-16780722D02*
X10101301Y-16885484D01*
X10101301Y-16780722D02*
X10110825Y-16761674D01*
X10110825Y-16761674D02*
X10129872Y-16752150D01*
X10129872Y-16752150D02*
X10158444Y-16752150D01*
X10158444Y-16752150D02*
X10177491Y-16761674D01*
X10177491Y-16761674D02*
X10187015Y-16780722D01*
X10187015Y-16780722D02*
X10187015Y-16885484D01*
X10577491Y-16675960D02*
X10406063Y-16933103D01*
X10834634Y-16685484D02*
X10853682Y-16685484D01*
X10853682Y-16685484D02*
X10872729Y-16695008D01*
X10872729Y-16695008D02*
X10882253Y-16704531D01*
X10882253Y-16704531D02*
X10891777Y-16723579D01*
X10891777Y-16723579D02*
X10901301Y-16761674D01*
X10901301Y-16761674D02*
X10901301Y-16809293D01*
X10901301Y-16809293D02*
X10891777Y-16847389D01*
X10891777Y-16847389D02*
X10882253Y-16866436D01*
X10882253Y-16866436D02*
X10872729Y-16875960D01*
X10872729Y-16875960D02*
X10853682Y-16885484D01*
X10853682Y-16885484D02*
X10834634Y-16885484D01*
X10834634Y-16885484D02*
X10815587Y-16875960D01*
X10815587Y-16875960D02*
X10806063Y-16866436D01*
X10806063Y-16866436D02*
X10796539Y-16847389D01*
X10796539Y-16847389D02*
X10787015Y-16809293D01*
X10787015Y-16809293D02*
X10787015Y-16761674D01*
X10787015Y-16761674D02*
X10796539Y-16723579D01*
X10796539Y-16723579D02*
X10806063Y-16704531D01*
X10806063Y-16704531D02*
X10815587Y-16695008D01*
X10815587Y-16695008D02*
X10834634Y-16685484D01*
X10987015Y-16866436D02*
X10996539Y-16875960D01*
X10996539Y-16875960D02*
X10987015Y-16885484D01*
X10987015Y-16885484D02*
X10977491Y-16875960D01*
X10977491Y-16875960D02*
X10987015Y-16866436D01*
X10987015Y-16866436D02*
X10987015Y-16885484D01*
X11120348Y-16685484D02*
X11139396Y-16685484D01*
X11139396Y-16685484D02*
X11158444Y-16695008D01*
X11158444Y-16695008D02*
X11167968Y-16704531D01*
X11167968Y-16704531D02*
X11177491Y-16723579D01*
X11177491Y-16723579D02*
X11187015Y-16761674D01*
X11187015Y-16761674D02*
X11187015Y-16809293D01*
X11187015Y-16809293D02*
X11177491Y-16847389D01*
X11177491Y-16847389D02*
X11167968Y-16866436D01*
X11167968Y-16866436D02*
X11158444Y-16875960D01*
X11158444Y-16875960D02*
X11139396Y-16885484D01*
X11139396Y-16885484D02*
X11120348Y-16885484D01*
X11120348Y-16885484D02*
X11101301Y-16875960D01*
X11101301Y-16875960D02*
X11091777Y-16866436D01*
X11091777Y-16866436D02*
X11082253Y-16847389D01*
X11082253Y-16847389D02*
X11072729Y-16809293D01*
X11072729Y-16809293D02*
X11072729Y-16761674D01*
X11072729Y-16761674D02*
X11082253Y-16723579D01*
X11082253Y-16723579D02*
X11091777Y-16704531D01*
X11091777Y-16704531D02*
X11101301Y-16695008D01*
X11101301Y-16695008D02*
X11120348Y-16685484D01*
X11253682Y-16685484D02*
X11377491Y-16685484D01*
X11377491Y-16685484D02*
X11310825Y-16761674D01*
X11310825Y-16761674D02*
X11339396Y-16761674D01*
X11339396Y-16761674D02*
X11358444Y-16771198D01*
X11358444Y-16771198D02*
X11367967Y-16780722D01*
X11367967Y-16780722D02*
X11377491Y-16799770D01*
X11377491Y-16799770D02*
X11377491Y-16847389D01*
X11377491Y-16847389D02*
X11367967Y-16866436D01*
X11367967Y-16866436D02*
X11358444Y-16875960D01*
X11358444Y-16875960D02*
X11339396Y-16885484D01*
X11339396Y-16885484D02*
X11282253Y-16885484D01*
X11282253Y-16885484D02*
X11263206Y-16875960D01*
X11263206Y-16875960D02*
X11253682Y-16866436D01*
X11567967Y-16885484D02*
X11453682Y-16885484D01*
X11510825Y-16885484D02*
X11510825Y-16685484D01*
X11510825Y-16685484D02*
X11491777Y-16714055D01*
X11491777Y-16714055D02*
X11472729Y-16733103D01*
X11472729Y-16733103D02*
X11453682Y-16742627D01*
X11748920Y-16685484D02*
X11653682Y-16685484D01*
X11653682Y-16685484D02*
X11644158Y-16780722D01*
X11644158Y-16780722D02*
X11653682Y-16771198D01*
X11653682Y-16771198D02*
X11672729Y-16761674D01*
X11672729Y-16761674D02*
X11720348Y-16761674D01*
X11720348Y-16761674D02*
X11739396Y-16771198D01*
X11739396Y-16771198D02*
X11748920Y-16780722D01*
X11748920Y-16780722D02*
X11758444Y-16799770D01*
X11758444Y-16799770D02*
X11758444Y-16847389D01*
X11758444Y-16847389D02*
X11748920Y-16866436D01*
X11748920Y-16866436D02*
X11739396Y-16875960D01*
X11739396Y-16875960D02*
X11720348Y-16885484D01*
X11720348Y-16885484D02*
X11672729Y-16885484D01*
X11672729Y-16885484D02*
X11653682Y-16875960D01*
X11653682Y-16875960D02*
X11644158Y-16866436D01*
X11834634Y-16685484D02*
X11834634Y-16723579D01*
X11910825Y-16685484D02*
X11910825Y-16723579D01*
X12206063Y-16961674D02*
X12196539Y-16952150D01*
X12196539Y-16952150D02*
X12177491Y-16923579D01*
X12177491Y-16923579D02*
X12167968Y-16904531D01*
X12167968Y-16904531D02*
X12158444Y-16875960D01*
X12158444Y-16875960D02*
X12148920Y-16828341D01*
X12148920Y-16828341D02*
X12148920Y-16790246D01*
X12148920Y-16790246D02*
X12158444Y-16742627D01*
X12158444Y-16742627D02*
X12167968Y-16714055D01*
X12167968Y-16714055D02*
X12177491Y-16695008D01*
X12177491Y-16695008D02*
X12196539Y-16666436D01*
X12196539Y-16666436D02*
X12206063Y-16656912D01*
X12377491Y-16685484D02*
X12282253Y-16685484D01*
X12282253Y-16685484D02*
X12272729Y-16780722D01*
X12272729Y-16780722D02*
X12282253Y-16771198D01*
X12282253Y-16771198D02*
X12301301Y-16761674D01*
X12301301Y-16761674D02*
X12348920Y-16761674D01*
X12348920Y-16761674D02*
X12367968Y-16771198D01*
X12367968Y-16771198D02*
X12377491Y-16780722D01*
X12377491Y-16780722D02*
X12387015Y-16799770D01*
X12387015Y-16799770D02*
X12387015Y-16847389D01*
X12387015Y-16847389D02*
X12377491Y-16866436D01*
X12377491Y-16866436D02*
X12367968Y-16875960D01*
X12367968Y-16875960D02*
X12348920Y-16885484D01*
X12348920Y-16885484D02*
X12301301Y-16885484D01*
X12301301Y-16885484D02*
X12282253Y-16875960D01*
X12282253Y-16875960D02*
X12272729Y-16866436D01*
X12558444Y-16752150D02*
X12558444Y-16885484D01*
X12510825Y-16675960D02*
X12463206Y-16818817D01*
X12463206Y-16818817D02*
X12587015Y-16818817D01*
X12815587Y-16885484D02*
X12815587Y-16685484D01*
X12901301Y-16885484D02*
X12901301Y-16780722D01*
X12901301Y-16780722D02*
X12891777Y-16761674D01*
X12891777Y-16761674D02*
X12872730Y-16752150D01*
X12872730Y-16752150D02*
X12844158Y-16752150D01*
X12844158Y-16752150D02*
X12825110Y-16761674D01*
X12825110Y-16761674D02*
X12815587Y-16771198D01*
X13025110Y-16885484D02*
X13006063Y-16875960D01*
X13006063Y-16875960D02*
X12996539Y-16866436D01*
X12996539Y-16866436D02*
X12987015Y-16847389D01*
X12987015Y-16847389D02*
X12987015Y-16790246D01*
X12987015Y-16790246D02*
X12996539Y-16771198D01*
X12996539Y-16771198D02*
X13006063Y-16761674D01*
X13006063Y-16761674D02*
X13025110Y-16752150D01*
X13025110Y-16752150D02*
X13053682Y-16752150D01*
X13053682Y-16752150D02*
X13072730Y-16761674D01*
X13072730Y-16761674D02*
X13082253Y-16771198D01*
X13082253Y-16771198D02*
X13091777Y-16790246D01*
X13091777Y-16790246D02*
X13091777Y-16847389D01*
X13091777Y-16847389D02*
X13082253Y-16866436D01*
X13082253Y-16866436D02*
X13072730Y-16875960D01*
X13072730Y-16875960D02*
X13053682Y-16885484D01*
X13053682Y-16885484D02*
X13025110Y-16885484D01*
X13206063Y-16885484D02*
X13187015Y-16875960D01*
X13187015Y-16875960D02*
X13177491Y-16856912D01*
X13177491Y-16856912D02*
X13177491Y-16685484D01*
X13358444Y-16875960D02*
X13339396Y-16885484D01*
X13339396Y-16885484D02*
X13301301Y-16885484D01*
X13301301Y-16885484D02*
X13282253Y-16875960D01*
X13282253Y-16875960D02*
X13272730Y-16856912D01*
X13272730Y-16856912D02*
X13272730Y-16780722D01*
X13272730Y-16780722D02*
X13282253Y-16761674D01*
X13282253Y-16761674D02*
X13301301Y-16752150D01*
X13301301Y-16752150D02*
X13339396Y-16752150D01*
X13339396Y-16752150D02*
X13358444Y-16761674D01*
X13358444Y-16761674D02*
X13367968Y-16780722D01*
X13367968Y-16780722D02*
X13367968Y-16799770D01*
X13367968Y-16799770D02*
X13272730Y-16818817D01*
X13444158Y-16875960D02*
X13463206Y-16885484D01*
X13463206Y-16885484D02*
X13501301Y-16885484D01*
X13501301Y-16885484D02*
X13520349Y-16875960D01*
X13520349Y-16875960D02*
X13529872Y-16856912D01*
X13529872Y-16856912D02*
X13529872Y-16847389D01*
X13529872Y-16847389D02*
X13520349Y-16828341D01*
X13520349Y-16828341D02*
X13501301Y-16818817D01*
X13501301Y-16818817D02*
X13472730Y-16818817D01*
X13472730Y-16818817D02*
X13453682Y-16809293D01*
X13453682Y-16809293D02*
X13444158Y-16790246D01*
X13444158Y-16790246D02*
X13444158Y-16780722D01*
X13444158Y-16780722D02*
X13453682Y-16761674D01*
X13453682Y-16761674D02*
X13472730Y-16752150D01*
X13472730Y-16752150D02*
X13501301Y-16752150D01*
X13501301Y-16752150D02*
X13520349Y-16761674D01*
X13596539Y-16961674D02*
X13606063Y-16952150D01*
X13606063Y-16952150D02*
X13625111Y-16923579D01*
X13625111Y-16923579D02*
X13634634Y-16904531D01*
X13634634Y-16904531D02*
X13644158Y-16875960D01*
X13644158Y-16875960D02*
X13653682Y-16828341D01*
X13653682Y-16828341D02*
X13653682Y-16790246D01*
X13653682Y-16790246D02*
X13644158Y-16742627D01*
X13644158Y-16742627D02*
X13634634Y-16714055D01*
X13634634Y-16714055D02*
X13625111Y-16695008D01*
X13625111Y-16695008D02*
X13606063Y-16666436D01*
X13606063Y-16666436D02*
X13596539Y-16656912D01*
D10*
X8616356Y-17093356D02*
X8616356Y-17022644D01*
X8545644Y-17022644D01*
X8545644Y-17093356D01*
X8616356Y-17093356D01*
D11*
X8996539Y-17149484D02*
X8882253Y-17149484D01*
X8939396Y-17149484D02*
X8939396Y-16949484D01*
X8939396Y-16949484D02*
X8920348Y-16978055D01*
X8920348Y-16978055D02*
X8901301Y-16997103D01*
X8901301Y-16997103D02*
X8882253Y-17006627D01*
X9082253Y-17130436D02*
X9091777Y-17139960D01*
X9091777Y-17139960D02*
X9082253Y-17149484D01*
X9082253Y-17149484D02*
X9072729Y-17139960D01*
X9072729Y-17139960D02*
X9082253Y-17130436D01*
X9082253Y-17130436D02*
X9082253Y-17149484D01*
X9215586Y-16949484D02*
X9234634Y-16949484D01*
X9234634Y-16949484D02*
X9253682Y-16959008D01*
X9253682Y-16959008D02*
X9263205Y-16968531D01*
X9263205Y-16968531D02*
X9272729Y-16987579D01*
X9272729Y-16987579D02*
X9282253Y-17025674D01*
X9282253Y-17025674D02*
X9282253Y-17073293D01*
X9282253Y-17073293D02*
X9272729Y-17111389D01*
X9272729Y-17111389D02*
X9263205Y-17130436D01*
X9263205Y-17130436D02*
X9253682Y-17139960D01*
X9253682Y-17139960D02*
X9234634Y-17149484D01*
X9234634Y-17149484D02*
X9215586Y-17149484D01*
X9215586Y-17149484D02*
X9196539Y-17139960D01*
X9196539Y-17139960D02*
X9187015Y-17130436D01*
X9187015Y-17130436D02*
X9177491Y-17111389D01*
X9177491Y-17111389D02*
X9167967Y-17073293D01*
X9167967Y-17073293D02*
X9167967Y-17025674D01*
X9167967Y-17025674D02*
X9177491Y-16987579D01*
X9177491Y-16987579D02*
X9187015Y-16968531D01*
X9187015Y-16968531D02*
X9196539Y-16959008D01*
X9196539Y-16959008D02*
X9215586Y-16949484D01*
X9406063Y-16949484D02*
X9425110Y-16949484D01*
X9425110Y-16949484D02*
X9444158Y-16959008D01*
X9444158Y-16959008D02*
X9453682Y-16968531D01*
X9453682Y-16968531D02*
X9463205Y-16987579D01*
X9463205Y-16987579D02*
X9472729Y-17025674D01*
X9472729Y-17025674D02*
X9472729Y-17073293D01*
X9472729Y-17073293D02*
X9463205Y-17111389D01*
X9463205Y-17111389D02*
X9453682Y-17130436D01*
X9453682Y-17130436D02*
X9444158Y-17139960D01*
X9444158Y-17139960D02*
X9425110Y-17149484D01*
X9425110Y-17149484D02*
X9406063Y-17149484D01*
X9406063Y-17149484D02*
X9387015Y-17139960D01*
X9387015Y-17139960D02*
X9377491Y-17130436D01*
X9377491Y-17130436D02*
X9367967Y-17111389D01*
X9367967Y-17111389D02*
X9358444Y-17073293D01*
X9358444Y-17073293D02*
X9358444Y-17025674D01*
X9358444Y-17025674D02*
X9367967Y-16987579D01*
X9367967Y-16987579D02*
X9377491Y-16968531D01*
X9377491Y-16968531D02*
X9387015Y-16959008D01*
X9387015Y-16959008D02*
X9406063Y-16949484D01*
X9596539Y-16949484D02*
X9615586Y-16949484D01*
X9615586Y-16949484D02*
X9634634Y-16959008D01*
X9634634Y-16959008D02*
X9644158Y-16968531D01*
X9644158Y-16968531D02*
X9653682Y-16987579D01*
X9653682Y-16987579D02*
X9663205Y-17025674D01*
X9663205Y-17025674D02*
X9663205Y-17073293D01*
X9663205Y-17073293D02*
X9653682Y-17111389D01*
X9653682Y-17111389D02*
X9644158Y-17130436D01*
X9644158Y-17130436D02*
X9634634Y-17139960D01*
X9634634Y-17139960D02*
X9615586Y-17149484D01*
X9615586Y-17149484D02*
X9596539Y-17149484D01*
X9596539Y-17149484D02*
X9577491Y-17139960D01*
X9577491Y-17139960D02*
X9567967Y-17130436D01*
X9567967Y-17130436D02*
X9558444Y-17111389D01*
X9558444Y-17111389D02*
X9548920Y-17073293D01*
X9548920Y-17073293D02*
X9548920Y-17025674D01*
X9548920Y-17025674D02*
X9558444Y-16987579D01*
X9558444Y-16987579D02*
X9567967Y-16968531D01*
X9567967Y-16968531D02*
X9577491Y-16959008D01*
X9577491Y-16959008D02*
X9596539Y-16949484D01*
X9748920Y-17149484D02*
X9748920Y-17016150D01*
X9748920Y-17035198D02*
X9758444Y-17025674D01*
X9758444Y-17025674D02*
X9777491Y-17016150D01*
X9777491Y-17016150D02*
X9806063Y-17016150D01*
X9806063Y-17016150D02*
X9825110Y-17025674D01*
X9825110Y-17025674D02*
X9834634Y-17044722D01*
X9834634Y-17044722D02*
X9834634Y-17149484D01*
X9834634Y-17044722D02*
X9844158Y-17025674D01*
X9844158Y-17025674D02*
X9863205Y-17016150D01*
X9863205Y-17016150D02*
X9891777Y-17016150D01*
X9891777Y-17016150D02*
X9910825Y-17025674D01*
X9910825Y-17025674D02*
X9920348Y-17044722D01*
X9920348Y-17044722D02*
X9920348Y-17149484D01*
X10015586Y-17149484D02*
X10015586Y-17016150D01*
X10015586Y-17035198D02*
X10025110Y-17025674D01*
X10025110Y-17025674D02*
X10044158Y-17016150D01*
X10044158Y-17016150D02*
X10072729Y-17016150D01*
X10072729Y-17016150D02*
X10091777Y-17025674D01*
X10091777Y-17025674D02*
X10101301Y-17044722D01*
X10101301Y-17044722D02*
X10101301Y-17149484D01*
X10101301Y-17044722D02*
X10110825Y-17025674D01*
X10110825Y-17025674D02*
X10129872Y-17016150D01*
X10129872Y-17016150D02*
X10158444Y-17016150D01*
X10158444Y-17016150D02*
X10177491Y-17025674D01*
X10177491Y-17025674D02*
X10187015Y-17044722D01*
X10187015Y-17044722D02*
X10187015Y-17149484D01*
X10577491Y-16939960D02*
X10406063Y-17197103D01*
X10834634Y-16949484D02*
X10853682Y-16949484D01*
X10853682Y-16949484D02*
X10872729Y-16959008D01*
X10872729Y-16959008D02*
X10882253Y-16968531D01*
X10882253Y-16968531D02*
X10891777Y-16987579D01*
X10891777Y-16987579D02*
X10901301Y-17025674D01*
X10901301Y-17025674D02*
X10901301Y-17073293D01*
X10901301Y-17073293D02*
X10891777Y-17111389D01*
X10891777Y-17111389D02*
X10882253Y-17130436D01*
X10882253Y-17130436D02*
X10872729Y-17139960D01*
X10872729Y-17139960D02*
X10853682Y-17149484D01*
X10853682Y-17149484D02*
X10834634Y-17149484D01*
X10834634Y-17149484D02*
X10815587Y-17139960D01*
X10815587Y-17139960D02*
X10806063Y-17130436D01*
X10806063Y-17130436D02*
X10796539Y-17111389D01*
X10796539Y-17111389D02*
X10787015Y-17073293D01*
X10787015Y-17073293D02*
X10787015Y-17025674D01*
X10787015Y-17025674D02*
X10796539Y-16987579D01*
X10796539Y-16987579D02*
X10806063Y-16968531D01*
X10806063Y-16968531D02*
X10815587Y-16959008D01*
X10815587Y-16959008D02*
X10834634Y-16949484D01*
X10987015Y-17130436D02*
X10996539Y-17139960D01*
X10996539Y-17139960D02*
X10987015Y-17149484D01*
X10987015Y-17149484D02*
X10977491Y-17139960D01*
X10977491Y-17139960D02*
X10987015Y-17130436D01*
X10987015Y-17130436D02*
X10987015Y-17149484D01*
X11120348Y-16949484D02*
X11139396Y-16949484D01*
X11139396Y-16949484D02*
X11158444Y-16959008D01*
X11158444Y-16959008D02*
X11167968Y-16968531D01*
X11167968Y-16968531D02*
X11177491Y-16987579D01*
X11177491Y-16987579D02*
X11187015Y-17025674D01*
X11187015Y-17025674D02*
X11187015Y-17073293D01*
X11187015Y-17073293D02*
X11177491Y-17111389D01*
X11177491Y-17111389D02*
X11167968Y-17130436D01*
X11167968Y-17130436D02*
X11158444Y-17139960D01*
X11158444Y-17139960D02*
X11139396Y-17149484D01*
X11139396Y-17149484D02*
X11120348Y-17149484D01*
X11120348Y-17149484D02*
X11101301Y-17139960D01*
X11101301Y-17139960D02*
X11091777Y-17130436D01*
X11091777Y-17130436D02*
X11082253Y-17111389D01*
X11082253Y-17111389D02*
X11072729Y-17073293D01*
X11072729Y-17073293D02*
X11072729Y-17025674D01*
X11072729Y-17025674D02*
X11082253Y-16987579D01*
X11082253Y-16987579D02*
X11091777Y-16968531D01*
X11091777Y-16968531D02*
X11101301Y-16959008D01*
X11101301Y-16959008D02*
X11120348Y-16949484D01*
X11253682Y-16949484D02*
X11377491Y-16949484D01*
X11377491Y-16949484D02*
X11310825Y-17025674D01*
X11310825Y-17025674D02*
X11339396Y-17025674D01*
X11339396Y-17025674D02*
X11358444Y-17035198D01*
X11358444Y-17035198D02*
X11367967Y-17044722D01*
X11367967Y-17044722D02*
X11377491Y-17063770D01*
X11377491Y-17063770D02*
X11377491Y-17111389D01*
X11377491Y-17111389D02*
X11367967Y-17130436D01*
X11367967Y-17130436D02*
X11358444Y-17139960D01*
X11358444Y-17139960D02*
X11339396Y-17149484D01*
X11339396Y-17149484D02*
X11282253Y-17149484D01*
X11282253Y-17149484D02*
X11263206Y-17139960D01*
X11263206Y-17139960D02*
X11253682Y-17130436D01*
X11472729Y-17149484D02*
X11510825Y-17149484D01*
X11510825Y-17149484D02*
X11529872Y-17139960D01*
X11529872Y-17139960D02*
X11539396Y-17130436D01*
X11539396Y-17130436D02*
X11558444Y-17101865D01*
X11558444Y-17101865D02*
X11567967Y-17063770D01*
X11567967Y-17063770D02*
X11567967Y-16987579D01*
X11567967Y-16987579D02*
X11558444Y-16968531D01*
X11558444Y-16968531D02*
X11548920Y-16959008D01*
X11548920Y-16959008D02*
X11529872Y-16949484D01*
X11529872Y-16949484D02*
X11491777Y-16949484D01*
X11491777Y-16949484D02*
X11472729Y-16959008D01*
X11472729Y-16959008D02*
X11463206Y-16968531D01*
X11463206Y-16968531D02*
X11453682Y-16987579D01*
X11453682Y-16987579D02*
X11453682Y-17035198D01*
X11453682Y-17035198D02*
X11463206Y-17054246D01*
X11463206Y-17054246D02*
X11472729Y-17063770D01*
X11472729Y-17063770D02*
X11491777Y-17073293D01*
X11491777Y-17073293D02*
X11529872Y-17073293D01*
X11529872Y-17073293D02*
X11548920Y-17063770D01*
X11548920Y-17063770D02*
X11558444Y-17054246D01*
X11558444Y-17054246D02*
X11567967Y-17035198D01*
X11739396Y-17016150D02*
X11739396Y-17149484D01*
X11691777Y-16939960D02*
X11644158Y-17082817D01*
X11644158Y-17082817D02*
X11767967Y-17082817D01*
X11834634Y-16949484D02*
X11834634Y-16987579D01*
X11910825Y-16949484D02*
X11910825Y-16987579D01*
X12206063Y-17225674D02*
X12196539Y-17216150D01*
X12196539Y-17216150D02*
X12177491Y-17187579D01*
X12177491Y-17187579D02*
X12167968Y-17168531D01*
X12167968Y-17168531D02*
X12158444Y-17139960D01*
X12158444Y-17139960D02*
X12148920Y-17092341D01*
X12148920Y-17092341D02*
X12148920Y-17054246D01*
X12148920Y-17054246D02*
X12158444Y-17006627D01*
X12158444Y-17006627D02*
X12167968Y-16978055D01*
X12167968Y-16978055D02*
X12177491Y-16959008D01*
X12177491Y-16959008D02*
X12196539Y-16930436D01*
X12196539Y-16930436D02*
X12206063Y-16920912D01*
X12263206Y-16949484D02*
X12387015Y-16949484D01*
X12387015Y-16949484D02*
X12320348Y-17025674D01*
X12320348Y-17025674D02*
X12348920Y-17025674D01*
X12348920Y-17025674D02*
X12367968Y-17035198D01*
X12367968Y-17035198D02*
X12377491Y-17044722D01*
X12377491Y-17044722D02*
X12387015Y-17063770D01*
X12387015Y-17063770D02*
X12387015Y-17111389D01*
X12387015Y-17111389D02*
X12377491Y-17130436D01*
X12377491Y-17130436D02*
X12367968Y-17139960D01*
X12367968Y-17139960D02*
X12348920Y-17149484D01*
X12348920Y-17149484D02*
X12291777Y-17149484D01*
X12291777Y-17149484D02*
X12272729Y-17139960D01*
X12272729Y-17139960D02*
X12263206Y-17130436D01*
X12463206Y-16968531D02*
X12472729Y-16959008D01*
X12472729Y-16959008D02*
X12491777Y-16949484D01*
X12491777Y-16949484D02*
X12539396Y-16949484D01*
X12539396Y-16949484D02*
X12558444Y-16959008D01*
X12558444Y-16959008D02*
X12567968Y-16968531D01*
X12567968Y-16968531D02*
X12577491Y-16987579D01*
X12577491Y-16987579D02*
X12577491Y-17006627D01*
X12577491Y-17006627D02*
X12567968Y-17035198D01*
X12567968Y-17035198D02*
X12453682Y-17149484D01*
X12453682Y-17149484D02*
X12577491Y-17149484D01*
X12815587Y-17149484D02*
X12815587Y-16949484D01*
X12901301Y-17149484D02*
X12901301Y-17044722D01*
X12901301Y-17044722D02*
X12891777Y-17025674D01*
X12891777Y-17025674D02*
X12872730Y-17016150D01*
X12872730Y-17016150D02*
X12844158Y-17016150D01*
X12844158Y-17016150D02*
X12825110Y-17025674D01*
X12825110Y-17025674D02*
X12815587Y-17035198D01*
X13025110Y-17149484D02*
X13006063Y-17139960D01*
X13006063Y-17139960D02*
X12996539Y-17130436D01*
X12996539Y-17130436D02*
X12987015Y-17111389D01*
X12987015Y-17111389D02*
X12987015Y-17054246D01*
X12987015Y-17054246D02*
X12996539Y-17035198D01*
X12996539Y-17035198D02*
X13006063Y-17025674D01*
X13006063Y-17025674D02*
X13025110Y-17016150D01*
X13025110Y-17016150D02*
X13053682Y-17016150D01*
X13053682Y-17016150D02*
X13072730Y-17025674D01*
X13072730Y-17025674D02*
X13082253Y-17035198D01*
X13082253Y-17035198D02*
X13091777Y-17054246D01*
X13091777Y-17054246D02*
X13091777Y-17111389D01*
X13091777Y-17111389D02*
X13082253Y-17130436D01*
X13082253Y-17130436D02*
X13072730Y-17139960D01*
X13072730Y-17139960D02*
X13053682Y-17149484D01*
X13053682Y-17149484D02*
X13025110Y-17149484D01*
X13206063Y-17149484D02*
X13187015Y-17139960D01*
X13187015Y-17139960D02*
X13177491Y-17120912D01*
X13177491Y-17120912D02*
X13177491Y-16949484D01*
X13358444Y-17139960D02*
X13339396Y-17149484D01*
X13339396Y-17149484D02*
X13301301Y-17149484D01*
X13301301Y-17149484D02*
X13282253Y-17139960D01*
X13282253Y-17139960D02*
X13272730Y-17120912D01*
X13272730Y-17120912D02*
X13272730Y-17044722D01*
X13272730Y-17044722D02*
X13282253Y-17025674D01*
X13282253Y-17025674D02*
X13301301Y-17016150D01*
X13301301Y-17016150D02*
X13339396Y-17016150D01*
X13339396Y-17016150D02*
X13358444Y-17025674D01*
X13358444Y-17025674D02*
X13367968Y-17044722D01*
X13367968Y-17044722D02*
X13367968Y-17063770D01*
X13367968Y-17063770D02*
X13272730Y-17082817D01*
X13444158Y-17139960D02*
X13463206Y-17149484D01*
X13463206Y-17149484D02*
X13501301Y-17149484D01*
X13501301Y-17149484D02*
X13520349Y-17139960D01*
X13520349Y-17139960D02*
X13529872Y-17120912D01*
X13529872Y-17120912D02*
X13529872Y-17111389D01*
X13529872Y-17111389D02*
X13520349Y-17092341D01*
X13520349Y-17092341D02*
X13501301Y-17082817D01*
X13501301Y-17082817D02*
X13472730Y-17082817D01*
X13472730Y-17082817D02*
X13453682Y-17073293D01*
X13453682Y-17073293D02*
X13444158Y-17054246D01*
X13444158Y-17054246D02*
X13444158Y-17044722D01*
X13444158Y-17044722D02*
X13453682Y-17025674D01*
X13453682Y-17025674D02*
X13472730Y-17016150D01*
X13472730Y-17016150D02*
X13501301Y-17016150D01*
X13501301Y-17016150D02*
X13520349Y-17025674D01*
X13596539Y-17225674D02*
X13606063Y-17216150D01*
X13606063Y-17216150D02*
X13625111Y-17187579D01*
X13625111Y-17187579D02*
X13634634Y-17168531D01*
X13634634Y-17168531D02*
X13644158Y-17139960D01*
X13644158Y-17139960D02*
X13653682Y-17092341D01*
X13653682Y-17092341D02*
X13653682Y-17054246D01*
X13653682Y-17054246D02*
X13644158Y-17006627D01*
X13644158Y-17006627D02*
X13634634Y-16978055D01*
X13634634Y-16978055D02*
X13625111Y-16959008D01*
X13625111Y-16959008D02*
X13606063Y-16930436D01*
X13606063Y-16930436D02*
X13596539Y-16920912D01*
D12*
X8580000Y-17373000D02*
X8631000Y-17322000D01*
X8580000Y-17271000D01*
X8529000Y-17322000D01*
X8580000Y-17373000D01*
D11*
X8996539Y-17413484D02*
X8882253Y-17413484D01*
X8939396Y-17413484D02*
X8939396Y-17213484D01*
X8939396Y-17213484D02*
X8920348Y-17242055D01*
X8920348Y-17242055D02*
X8901301Y-17261103D01*
X8901301Y-17261103D02*
X8882253Y-17270627D01*
X9082253Y-17394436D02*
X9091777Y-17403960D01*
X9091777Y-17403960D02*
X9082253Y-17413484D01*
X9082253Y-17413484D02*
X9072729Y-17403960D01*
X9072729Y-17403960D02*
X9082253Y-17394436D01*
X9082253Y-17394436D02*
X9082253Y-17413484D01*
X9215586Y-17213484D02*
X9234634Y-17213484D01*
X9234634Y-17213484D02*
X9253682Y-17223008D01*
X9253682Y-17223008D02*
X9263205Y-17232531D01*
X9263205Y-17232531D02*
X9272729Y-17251579D01*
X9272729Y-17251579D02*
X9282253Y-17289674D01*
X9282253Y-17289674D02*
X9282253Y-17337293D01*
X9282253Y-17337293D02*
X9272729Y-17375389D01*
X9272729Y-17375389D02*
X9263205Y-17394436D01*
X9263205Y-17394436D02*
X9253682Y-17403960D01*
X9253682Y-17403960D02*
X9234634Y-17413484D01*
X9234634Y-17413484D02*
X9215586Y-17413484D01*
X9215586Y-17413484D02*
X9196539Y-17403960D01*
X9196539Y-17403960D02*
X9187015Y-17394436D01*
X9187015Y-17394436D02*
X9177491Y-17375389D01*
X9177491Y-17375389D02*
X9167967Y-17337293D01*
X9167967Y-17337293D02*
X9167967Y-17289674D01*
X9167967Y-17289674D02*
X9177491Y-17251579D01*
X9177491Y-17251579D02*
X9187015Y-17232531D01*
X9187015Y-17232531D02*
X9196539Y-17223008D01*
X9196539Y-17223008D02*
X9215586Y-17213484D01*
X9358444Y-17232531D02*
X9367967Y-17223008D01*
X9367967Y-17223008D02*
X9387015Y-17213484D01*
X9387015Y-17213484D02*
X9434634Y-17213484D01*
X9434634Y-17213484D02*
X9453682Y-17223008D01*
X9453682Y-17223008D02*
X9463205Y-17232531D01*
X9463205Y-17232531D02*
X9472729Y-17251579D01*
X9472729Y-17251579D02*
X9472729Y-17270627D01*
X9472729Y-17270627D02*
X9463205Y-17299198D01*
X9463205Y-17299198D02*
X9348920Y-17413484D01*
X9348920Y-17413484D02*
X9472729Y-17413484D01*
X9596539Y-17213484D02*
X9615586Y-17213484D01*
X9615586Y-17213484D02*
X9634634Y-17223008D01*
X9634634Y-17223008D02*
X9644158Y-17232531D01*
X9644158Y-17232531D02*
X9653682Y-17251579D01*
X9653682Y-17251579D02*
X9663205Y-17289674D01*
X9663205Y-17289674D02*
X9663205Y-17337293D01*
X9663205Y-17337293D02*
X9653682Y-17375389D01*
X9653682Y-17375389D02*
X9644158Y-17394436D01*
X9644158Y-17394436D02*
X9634634Y-17403960D01*
X9634634Y-17403960D02*
X9615586Y-17413484D01*
X9615586Y-17413484D02*
X9596539Y-17413484D01*
X9596539Y-17413484D02*
X9577491Y-17403960D01*
X9577491Y-17403960D02*
X9567967Y-17394436D01*
X9567967Y-17394436D02*
X9558444Y-17375389D01*
X9558444Y-17375389D02*
X9548920Y-17337293D01*
X9548920Y-17337293D02*
X9548920Y-17289674D01*
X9548920Y-17289674D02*
X9558444Y-17251579D01*
X9558444Y-17251579D02*
X9567967Y-17232531D01*
X9567967Y-17232531D02*
X9577491Y-17223008D01*
X9577491Y-17223008D02*
X9596539Y-17213484D01*
X9748920Y-17413484D02*
X9748920Y-17280150D01*
X9748920Y-17299198D02*
X9758444Y-17289674D01*
X9758444Y-17289674D02*
X9777491Y-17280150D01*
X9777491Y-17280150D02*
X9806063Y-17280150D01*
X9806063Y-17280150D02*
X9825110Y-17289674D01*
X9825110Y-17289674D02*
X9834634Y-17308722D01*
X9834634Y-17308722D02*
X9834634Y-17413484D01*
X9834634Y-17308722D02*
X9844158Y-17289674D01*
X9844158Y-17289674D02*
X9863205Y-17280150D01*
X9863205Y-17280150D02*
X9891777Y-17280150D01*
X9891777Y-17280150D02*
X9910825Y-17289674D01*
X9910825Y-17289674D02*
X9920348Y-17308722D01*
X9920348Y-17308722D02*
X9920348Y-17413484D01*
X10015586Y-17413484D02*
X10015586Y-17280150D01*
X10015586Y-17299198D02*
X10025110Y-17289674D01*
X10025110Y-17289674D02*
X10044158Y-17280150D01*
X10044158Y-17280150D02*
X10072729Y-17280150D01*
X10072729Y-17280150D02*
X10091777Y-17289674D01*
X10091777Y-17289674D02*
X10101301Y-17308722D01*
X10101301Y-17308722D02*
X10101301Y-17413484D01*
X10101301Y-17308722D02*
X10110825Y-17289674D01*
X10110825Y-17289674D02*
X10129872Y-17280150D01*
X10129872Y-17280150D02*
X10158444Y-17280150D01*
X10158444Y-17280150D02*
X10177491Y-17289674D01*
X10177491Y-17289674D02*
X10187015Y-17308722D01*
X10187015Y-17308722D02*
X10187015Y-17413484D01*
X10577491Y-17203960D02*
X10406063Y-17461103D01*
X10834634Y-17213484D02*
X10853682Y-17213484D01*
X10853682Y-17213484D02*
X10872729Y-17223008D01*
X10872729Y-17223008D02*
X10882253Y-17232531D01*
X10882253Y-17232531D02*
X10891777Y-17251579D01*
X10891777Y-17251579D02*
X10901301Y-17289674D01*
X10901301Y-17289674D02*
X10901301Y-17337293D01*
X10901301Y-17337293D02*
X10891777Y-17375389D01*
X10891777Y-17375389D02*
X10882253Y-17394436D01*
X10882253Y-17394436D02*
X10872729Y-17403960D01*
X10872729Y-17403960D02*
X10853682Y-17413484D01*
X10853682Y-17413484D02*
X10834634Y-17413484D01*
X10834634Y-17413484D02*
X10815587Y-17403960D01*
X10815587Y-17403960D02*
X10806063Y-17394436D01*
X10806063Y-17394436D02*
X10796539Y-17375389D01*
X10796539Y-17375389D02*
X10787015Y-17337293D01*
X10787015Y-17337293D02*
X10787015Y-17289674D01*
X10787015Y-17289674D02*
X10796539Y-17251579D01*
X10796539Y-17251579D02*
X10806063Y-17232531D01*
X10806063Y-17232531D02*
X10815587Y-17223008D01*
X10815587Y-17223008D02*
X10834634Y-17213484D01*
X10987015Y-17394436D02*
X10996539Y-17403960D01*
X10996539Y-17403960D02*
X10987015Y-17413484D01*
X10987015Y-17413484D02*
X10977491Y-17403960D01*
X10977491Y-17403960D02*
X10987015Y-17394436D01*
X10987015Y-17394436D02*
X10987015Y-17413484D01*
X11120348Y-17213484D02*
X11139396Y-17213484D01*
X11139396Y-17213484D02*
X11158444Y-17223008D01*
X11158444Y-17223008D02*
X11167968Y-17232531D01*
X11167968Y-17232531D02*
X11177491Y-17251579D01*
X11177491Y-17251579D02*
X11187015Y-17289674D01*
X11187015Y-17289674D02*
X11187015Y-17337293D01*
X11187015Y-17337293D02*
X11177491Y-17375389D01*
X11177491Y-17375389D02*
X11167968Y-17394436D01*
X11167968Y-17394436D02*
X11158444Y-17403960D01*
X11158444Y-17403960D02*
X11139396Y-17413484D01*
X11139396Y-17413484D02*
X11120348Y-17413484D01*
X11120348Y-17413484D02*
X11101301Y-17403960D01*
X11101301Y-17403960D02*
X11091777Y-17394436D01*
X11091777Y-17394436D02*
X11082253Y-17375389D01*
X11082253Y-17375389D02*
X11072729Y-17337293D01*
X11072729Y-17337293D02*
X11072729Y-17289674D01*
X11072729Y-17289674D02*
X11082253Y-17251579D01*
X11082253Y-17251579D02*
X11091777Y-17232531D01*
X11091777Y-17232531D02*
X11101301Y-17223008D01*
X11101301Y-17223008D02*
X11120348Y-17213484D01*
X11358444Y-17280150D02*
X11358444Y-17413484D01*
X11310825Y-17203960D02*
X11263206Y-17346817D01*
X11263206Y-17346817D02*
X11387015Y-17346817D01*
X11501301Y-17213484D02*
X11520348Y-17213484D01*
X11520348Y-17213484D02*
X11539396Y-17223008D01*
X11539396Y-17223008D02*
X11548920Y-17232531D01*
X11548920Y-17232531D02*
X11558444Y-17251579D01*
X11558444Y-17251579D02*
X11567967Y-17289674D01*
X11567967Y-17289674D02*
X11567967Y-17337293D01*
X11567967Y-17337293D02*
X11558444Y-17375389D01*
X11558444Y-17375389D02*
X11548920Y-17394436D01*
X11548920Y-17394436D02*
X11539396Y-17403960D01*
X11539396Y-17403960D02*
X11520348Y-17413484D01*
X11520348Y-17413484D02*
X11501301Y-17413484D01*
X11501301Y-17413484D02*
X11482253Y-17403960D01*
X11482253Y-17403960D02*
X11472729Y-17394436D01*
X11472729Y-17394436D02*
X11463206Y-17375389D01*
X11463206Y-17375389D02*
X11453682Y-17337293D01*
X11453682Y-17337293D02*
X11453682Y-17289674D01*
X11453682Y-17289674D02*
X11463206Y-17251579D01*
X11463206Y-17251579D02*
X11472729Y-17232531D01*
X11472729Y-17232531D02*
X11482253Y-17223008D01*
X11482253Y-17223008D02*
X11501301Y-17213484D01*
X11644158Y-17232531D02*
X11653682Y-17223008D01*
X11653682Y-17223008D02*
X11672729Y-17213484D01*
X11672729Y-17213484D02*
X11720348Y-17213484D01*
X11720348Y-17213484D02*
X11739396Y-17223008D01*
X11739396Y-17223008D02*
X11748920Y-17232531D01*
X11748920Y-17232531D02*
X11758444Y-17251579D01*
X11758444Y-17251579D02*
X11758444Y-17270627D01*
X11758444Y-17270627D02*
X11748920Y-17299198D01*
X11748920Y-17299198D02*
X11634634Y-17413484D01*
X11634634Y-17413484D02*
X11758444Y-17413484D01*
X11834634Y-17213484D02*
X11834634Y-17251579D01*
X11910825Y-17213484D02*
X11910825Y-17251579D01*
X12206063Y-17489674D02*
X12196539Y-17480150D01*
X12196539Y-17480150D02*
X12177491Y-17451579D01*
X12177491Y-17451579D02*
X12167968Y-17432531D01*
X12167968Y-17432531D02*
X12158444Y-17403960D01*
X12158444Y-17403960D02*
X12148920Y-17356341D01*
X12148920Y-17356341D02*
X12148920Y-17318246D01*
X12148920Y-17318246D02*
X12158444Y-17270627D01*
X12158444Y-17270627D02*
X12167968Y-17242055D01*
X12167968Y-17242055D02*
X12177491Y-17223008D01*
X12177491Y-17223008D02*
X12196539Y-17194436D01*
X12196539Y-17194436D02*
X12206063Y-17184912D01*
X12377491Y-17213484D02*
X12282253Y-17213484D01*
X12282253Y-17213484D02*
X12272729Y-17308722D01*
X12272729Y-17308722D02*
X12282253Y-17299198D01*
X12282253Y-17299198D02*
X12301301Y-17289674D01*
X12301301Y-17289674D02*
X12348920Y-17289674D01*
X12348920Y-17289674D02*
X12367968Y-17299198D01*
X12367968Y-17299198D02*
X12377491Y-17308722D01*
X12377491Y-17308722D02*
X12387015Y-17327770D01*
X12387015Y-17327770D02*
X12387015Y-17375389D01*
X12387015Y-17375389D02*
X12377491Y-17394436D01*
X12377491Y-17394436D02*
X12367968Y-17403960D01*
X12367968Y-17403960D02*
X12348920Y-17413484D01*
X12348920Y-17413484D02*
X12301301Y-17413484D01*
X12301301Y-17413484D02*
X12282253Y-17403960D01*
X12282253Y-17403960D02*
X12272729Y-17394436D01*
X12577491Y-17413484D02*
X12463206Y-17413484D01*
X12520348Y-17413484D02*
X12520348Y-17213484D01*
X12520348Y-17213484D02*
X12501301Y-17242055D01*
X12501301Y-17242055D02*
X12482253Y-17261103D01*
X12482253Y-17261103D02*
X12463206Y-17270627D01*
X12815587Y-17413484D02*
X12815587Y-17213484D01*
X12901301Y-17413484D02*
X12901301Y-17308722D01*
X12901301Y-17308722D02*
X12891777Y-17289674D01*
X12891777Y-17289674D02*
X12872730Y-17280150D01*
X12872730Y-17280150D02*
X12844158Y-17280150D01*
X12844158Y-17280150D02*
X12825110Y-17289674D01*
X12825110Y-17289674D02*
X12815587Y-17299198D01*
X13025110Y-17413484D02*
X13006063Y-17403960D01*
X13006063Y-17403960D02*
X12996539Y-17394436D01*
X12996539Y-17394436D02*
X12987015Y-17375389D01*
X12987015Y-17375389D02*
X12987015Y-17318246D01*
X12987015Y-17318246D02*
X12996539Y-17299198D01*
X12996539Y-17299198D02*
X13006063Y-17289674D01*
X13006063Y-17289674D02*
X13025110Y-17280150D01*
X13025110Y-17280150D02*
X13053682Y-17280150D01*
X13053682Y-17280150D02*
X13072730Y-17289674D01*
X13072730Y-17289674D02*
X13082253Y-17299198D01*
X13082253Y-17299198D02*
X13091777Y-17318246D01*
X13091777Y-17318246D02*
X13091777Y-17375389D01*
X13091777Y-17375389D02*
X13082253Y-17394436D01*
X13082253Y-17394436D02*
X13072730Y-17403960D01*
X13072730Y-17403960D02*
X13053682Y-17413484D01*
X13053682Y-17413484D02*
X13025110Y-17413484D01*
X13206063Y-17413484D02*
X13187015Y-17403960D01*
X13187015Y-17403960D02*
X13177491Y-17384912D01*
X13177491Y-17384912D02*
X13177491Y-17213484D01*
X13358444Y-17403960D02*
X13339396Y-17413484D01*
X13339396Y-17413484D02*
X13301301Y-17413484D01*
X13301301Y-17413484D02*
X13282253Y-17403960D01*
X13282253Y-17403960D02*
X13272730Y-17384912D01*
X13272730Y-17384912D02*
X13272730Y-17308722D01*
X13272730Y-17308722D02*
X13282253Y-17289674D01*
X13282253Y-17289674D02*
X13301301Y-17280150D01*
X13301301Y-17280150D02*
X13339396Y-17280150D01*
X13339396Y-17280150D02*
X13358444Y-17289674D01*
X13358444Y-17289674D02*
X13367968Y-17308722D01*
X13367968Y-17308722D02*
X13367968Y-17327770D01*
X13367968Y-17327770D02*
X13272730Y-17346817D01*
X13444158Y-17403960D02*
X13463206Y-17413484D01*
X13463206Y-17413484D02*
X13501301Y-17413484D01*
X13501301Y-17413484D02*
X13520349Y-17403960D01*
X13520349Y-17403960D02*
X13529872Y-17384912D01*
X13529872Y-17384912D02*
X13529872Y-17375389D01*
X13529872Y-17375389D02*
X13520349Y-17356341D01*
X13520349Y-17356341D02*
X13501301Y-17346817D01*
X13501301Y-17346817D02*
X13472730Y-17346817D01*
X13472730Y-17346817D02*
X13453682Y-17337293D01*
X13453682Y-17337293D02*
X13444158Y-17318246D01*
X13444158Y-17318246D02*
X13444158Y-17308722D01*
X13444158Y-17308722D02*
X13453682Y-17289674D01*
X13453682Y-17289674D02*
X13472730Y-17280150D01*
X13472730Y-17280150D02*
X13501301Y-17280150D01*
X13501301Y-17280150D02*
X13520349Y-17289674D01*
X13596539Y-17489674D02*
X13606063Y-17480150D01*
X13606063Y-17480150D02*
X13625111Y-17451579D01*
X13625111Y-17451579D02*
X13634634Y-17432531D01*
X13634634Y-17432531D02*
X13644158Y-17403960D01*
X13644158Y-17403960D02*
X13653682Y-17356341D01*
X13653682Y-17356341D02*
X13653682Y-17318246D01*
X13653682Y-17318246D02*
X13644158Y-17270627D01*
X13644158Y-17270627D02*
X13634634Y-17242055D01*
X13634634Y-17242055D02*
X13625111Y-17223008D01*
X13625111Y-17223008D02*
X13606063Y-17194436D01*
X13606063Y-17194436D02*
X13596539Y-17184912D01*
D13*
X8521000Y-17531000D02*
X8631000Y-17641000D01*
X8631000Y-17531000D02*
X8521000Y-17641000D01*
X8631000Y-17586000D02*
G75*
G03*
X8521000Y-17586000I-55000J0D01*
G01*
X8521000Y-17586000D02*
G75*
G03*
X8631000Y-17586000I55000J0D01*
G01*
D11*
X8996539Y-17677484D02*
X8882253Y-17677484D01*
X8939396Y-17677484D02*
X8939396Y-17477484D01*
X8939396Y-17477484D02*
X8920348Y-17506055D01*
X8920348Y-17506055D02*
X8901301Y-17525103D01*
X8901301Y-17525103D02*
X8882253Y-17534627D01*
X9082253Y-17658436D02*
X9091777Y-17667960D01*
X9091777Y-17667960D02*
X9082253Y-17677484D01*
X9082253Y-17677484D02*
X9072729Y-17667960D01*
X9072729Y-17667960D02*
X9082253Y-17658436D01*
X9082253Y-17658436D02*
X9082253Y-17677484D01*
X9282253Y-17677484D02*
X9167967Y-17677484D01*
X9225110Y-17677484D02*
X9225110Y-17477484D01*
X9225110Y-17477484D02*
X9206063Y-17506055D01*
X9206063Y-17506055D02*
X9187015Y-17525103D01*
X9187015Y-17525103D02*
X9167967Y-17534627D01*
X9406063Y-17477484D02*
X9425110Y-17477484D01*
X9425110Y-17477484D02*
X9444158Y-17487008D01*
X9444158Y-17487008D02*
X9453682Y-17496531D01*
X9453682Y-17496531D02*
X9463205Y-17515579D01*
X9463205Y-17515579D02*
X9472729Y-17553674D01*
X9472729Y-17553674D02*
X9472729Y-17601293D01*
X9472729Y-17601293D02*
X9463205Y-17639389D01*
X9463205Y-17639389D02*
X9453682Y-17658436D01*
X9453682Y-17658436D02*
X9444158Y-17667960D01*
X9444158Y-17667960D02*
X9425110Y-17677484D01*
X9425110Y-17677484D02*
X9406063Y-17677484D01*
X9406063Y-17677484D02*
X9387015Y-17667960D01*
X9387015Y-17667960D02*
X9377491Y-17658436D01*
X9377491Y-17658436D02*
X9367967Y-17639389D01*
X9367967Y-17639389D02*
X9358444Y-17601293D01*
X9358444Y-17601293D02*
X9358444Y-17553674D01*
X9358444Y-17553674D02*
X9367967Y-17515579D01*
X9367967Y-17515579D02*
X9377491Y-17496531D01*
X9377491Y-17496531D02*
X9387015Y-17487008D01*
X9387015Y-17487008D02*
X9406063Y-17477484D01*
X9596539Y-17477484D02*
X9615586Y-17477484D01*
X9615586Y-17477484D02*
X9634634Y-17487008D01*
X9634634Y-17487008D02*
X9644158Y-17496531D01*
X9644158Y-17496531D02*
X9653682Y-17515579D01*
X9653682Y-17515579D02*
X9663205Y-17553674D01*
X9663205Y-17553674D02*
X9663205Y-17601293D01*
X9663205Y-17601293D02*
X9653682Y-17639389D01*
X9653682Y-17639389D02*
X9644158Y-17658436D01*
X9644158Y-17658436D02*
X9634634Y-17667960D01*
X9634634Y-17667960D02*
X9615586Y-17677484D01*
X9615586Y-17677484D02*
X9596539Y-17677484D01*
X9596539Y-17677484D02*
X9577491Y-17667960D01*
X9577491Y-17667960D02*
X9567967Y-17658436D01*
X9567967Y-17658436D02*
X9558444Y-17639389D01*
X9558444Y-17639389D02*
X9548920Y-17601293D01*
X9548920Y-17601293D02*
X9548920Y-17553674D01*
X9548920Y-17553674D02*
X9558444Y-17515579D01*
X9558444Y-17515579D02*
X9567967Y-17496531D01*
X9567967Y-17496531D02*
X9577491Y-17487008D01*
X9577491Y-17487008D02*
X9596539Y-17477484D01*
X9748920Y-17677484D02*
X9748920Y-17544150D01*
X9748920Y-17563198D02*
X9758444Y-17553674D01*
X9758444Y-17553674D02*
X9777491Y-17544150D01*
X9777491Y-17544150D02*
X9806063Y-17544150D01*
X9806063Y-17544150D02*
X9825110Y-17553674D01*
X9825110Y-17553674D02*
X9834634Y-17572722D01*
X9834634Y-17572722D02*
X9834634Y-17677484D01*
X9834634Y-17572722D02*
X9844158Y-17553674D01*
X9844158Y-17553674D02*
X9863205Y-17544150D01*
X9863205Y-17544150D02*
X9891777Y-17544150D01*
X9891777Y-17544150D02*
X9910825Y-17553674D01*
X9910825Y-17553674D02*
X9920348Y-17572722D01*
X9920348Y-17572722D02*
X9920348Y-17677484D01*
X10015586Y-17677484D02*
X10015586Y-17544150D01*
X10015586Y-17563198D02*
X10025110Y-17553674D01*
X10025110Y-17553674D02*
X10044158Y-17544150D01*
X10044158Y-17544150D02*
X10072729Y-17544150D01*
X10072729Y-17544150D02*
X10091777Y-17553674D01*
X10091777Y-17553674D02*
X10101301Y-17572722D01*
X10101301Y-17572722D02*
X10101301Y-17677484D01*
X10101301Y-17572722D02*
X10110825Y-17553674D01*
X10110825Y-17553674D02*
X10129872Y-17544150D01*
X10129872Y-17544150D02*
X10158444Y-17544150D01*
X10158444Y-17544150D02*
X10177491Y-17553674D01*
X10177491Y-17553674D02*
X10187015Y-17572722D01*
X10187015Y-17572722D02*
X10187015Y-17677484D01*
X10577491Y-17467960D02*
X10406063Y-17725103D01*
X10834634Y-17477484D02*
X10853682Y-17477484D01*
X10853682Y-17477484D02*
X10872729Y-17487008D01*
X10872729Y-17487008D02*
X10882253Y-17496531D01*
X10882253Y-17496531D02*
X10891777Y-17515579D01*
X10891777Y-17515579D02*
X10901301Y-17553674D01*
X10901301Y-17553674D02*
X10901301Y-17601293D01*
X10901301Y-17601293D02*
X10891777Y-17639389D01*
X10891777Y-17639389D02*
X10882253Y-17658436D01*
X10882253Y-17658436D02*
X10872729Y-17667960D01*
X10872729Y-17667960D02*
X10853682Y-17677484D01*
X10853682Y-17677484D02*
X10834634Y-17677484D01*
X10834634Y-17677484D02*
X10815587Y-17667960D01*
X10815587Y-17667960D02*
X10806063Y-17658436D01*
X10806063Y-17658436D02*
X10796539Y-17639389D01*
X10796539Y-17639389D02*
X10787015Y-17601293D01*
X10787015Y-17601293D02*
X10787015Y-17553674D01*
X10787015Y-17553674D02*
X10796539Y-17515579D01*
X10796539Y-17515579D02*
X10806063Y-17496531D01*
X10806063Y-17496531D02*
X10815587Y-17487008D01*
X10815587Y-17487008D02*
X10834634Y-17477484D01*
X10987015Y-17658436D02*
X10996539Y-17667960D01*
X10996539Y-17667960D02*
X10987015Y-17677484D01*
X10987015Y-17677484D02*
X10977491Y-17667960D01*
X10977491Y-17667960D02*
X10987015Y-17658436D01*
X10987015Y-17658436D02*
X10987015Y-17677484D01*
X11120348Y-17477484D02*
X11139396Y-17477484D01*
X11139396Y-17477484D02*
X11158444Y-17487008D01*
X11158444Y-17487008D02*
X11167968Y-17496531D01*
X11167968Y-17496531D02*
X11177491Y-17515579D01*
X11177491Y-17515579D02*
X11187015Y-17553674D01*
X11187015Y-17553674D02*
X11187015Y-17601293D01*
X11187015Y-17601293D02*
X11177491Y-17639389D01*
X11177491Y-17639389D02*
X11167968Y-17658436D01*
X11167968Y-17658436D02*
X11158444Y-17667960D01*
X11158444Y-17667960D02*
X11139396Y-17677484D01*
X11139396Y-17677484D02*
X11120348Y-17677484D01*
X11120348Y-17677484D02*
X11101301Y-17667960D01*
X11101301Y-17667960D02*
X11091777Y-17658436D01*
X11091777Y-17658436D02*
X11082253Y-17639389D01*
X11082253Y-17639389D02*
X11072729Y-17601293D01*
X11072729Y-17601293D02*
X11072729Y-17553674D01*
X11072729Y-17553674D02*
X11082253Y-17515579D01*
X11082253Y-17515579D02*
X11091777Y-17496531D01*
X11091777Y-17496531D02*
X11101301Y-17487008D01*
X11101301Y-17487008D02*
X11120348Y-17477484D01*
X11358444Y-17544150D02*
X11358444Y-17677484D01*
X11310825Y-17467960D02*
X11263206Y-17610817D01*
X11263206Y-17610817D02*
X11387015Y-17610817D01*
X11444158Y-17477484D02*
X11567967Y-17477484D01*
X11567967Y-17477484D02*
X11501301Y-17553674D01*
X11501301Y-17553674D02*
X11529872Y-17553674D01*
X11529872Y-17553674D02*
X11548920Y-17563198D01*
X11548920Y-17563198D02*
X11558444Y-17572722D01*
X11558444Y-17572722D02*
X11567967Y-17591770D01*
X11567967Y-17591770D02*
X11567967Y-17639389D01*
X11567967Y-17639389D02*
X11558444Y-17658436D01*
X11558444Y-17658436D02*
X11548920Y-17667960D01*
X11548920Y-17667960D02*
X11529872Y-17677484D01*
X11529872Y-17677484D02*
X11472729Y-17677484D01*
X11472729Y-17677484D02*
X11453682Y-17667960D01*
X11453682Y-17667960D02*
X11444158Y-17658436D01*
X11634634Y-17477484D02*
X11758444Y-17477484D01*
X11758444Y-17477484D02*
X11691777Y-17553674D01*
X11691777Y-17553674D02*
X11720348Y-17553674D01*
X11720348Y-17553674D02*
X11739396Y-17563198D01*
X11739396Y-17563198D02*
X11748920Y-17572722D01*
X11748920Y-17572722D02*
X11758444Y-17591770D01*
X11758444Y-17591770D02*
X11758444Y-17639389D01*
X11758444Y-17639389D02*
X11748920Y-17658436D01*
X11748920Y-17658436D02*
X11739396Y-17667960D01*
X11739396Y-17667960D02*
X11720348Y-17677484D01*
X11720348Y-17677484D02*
X11663206Y-17677484D01*
X11663206Y-17677484D02*
X11644158Y-17667960D01*
X11644158Y-17667960D02*
X11634634Y-17658436D01*
X11834634Y-17477484D02*
X11834634Y-17515579D01*
X11910825Y-17477484D02*
X11910825Y-17515579D01*
X12206063Y-17753674D02*
X12196539Y-17744150D01*
X12196539Y-17744150D02*
X12177491Y-17715579D01*
X12177491Y-17715579D02*
X12167968Y-17696531D01*
X12167968Y-17696531D02*
X12158444Y-17667960D01*
X12158444Y-17667960D02*
X12148920Y-17620341D01*
X12148920Y-17620341D02*
X12148920Y-17582246D01*
X12148920Y-17582246D02*
X12158444Y-17534627D01*
X12158444Y-17534627D02*
X12167968Y-17506055D01*
X12167968Y-17506055D02*
X12177491Y-17487008D01*
X12177491Y-17487008D02*
X12196539Y-17458436D01*
X12196539Y-17458436D02*
X12206063Y-17448912D01*
X12272729Y-17496531D02*
X12282253Y-17487008D01*
X12282253Y-17487008D02*
X12301301Y-17477484D01*
X12301301Y-17477484D02*
X12348920Y-17477484D01*
X12348920Y-17477484D02*
X12367968Y-17487008D01*
X12367968Y-17487008D02*
X12377491Y-17496531D01*
X12377491Y-17496531D02*
X12387015Y-17515579D01*
X12387015Y-17515579D02*
X12387015Y-17534627D01*
X12387015Y-17534627D02*
X12377491Y-17563198D01*
X12377491Y-17563198D02*
X12263206Y-17677484D01*
X12263206Y-17677484D02*
X12387015Y-17677484D01*
X12510825Y-17477484D02*
X12529872Y-17477484D01*
X12529872Y-17477484D02*
X12548920Y-17487008D01*
X12548920Y-17487008D02*
X12558444Y-17496531D01*
X12558444Y-17496531D02*
X12567968Y-17515579D01*
X12567968Y-17515579D02*
X12577491Y-17553674D01*
X12577491Y-17553674D02*
X12577491Y-17601293D01*
X12577491Y-17601293D02*
X12567968Y-17639389D01*
X12567968Y-17639389D02*
X12558444Y-17658436D01*
X12558444Y-17658436D02*
X12548920Y-17667960D01*
X12548920Y-17667960D02*
X12529872Y-17677484D01*
X12529872Y-17677484D02*
X12510825Y-17677484D01*
X12510825Y-17677484D02*
X12491777Y-17667960D01*
X12491777Y-17667960D02*
X12482253Y-17658436D01*
X12482253Y-17658436D02*
X12472729Y-17639389D01*
X12472729Y-17639389D02*
X12463206Y-17601293D01*
X12463206Y-17601293D02*
X12463206Y-17553674D01*
X12463206Y-17553674D02*
X12472729Y-17515579D01*
X12472729Y-17515579D02*
X12482253Y-17496531D01*
X12482253Y-17496531D02*
X12491777Y-17487008D01*
X12491777Y-17487008D02*
X12510825Y-17477484D01*
X12815587Y-17677484D02*
X12815587Y-17477484D01*
X12901301Y-17677484D02*
X12901301Y-17572722D01*
X12901301Y-17572722D02*
X12891777Y-17553674D01*
X12891777Y-17553674D02*
X12872730Y-17544150D01*
X12872730Y-17544150D02*
X12844158Y-17544150D01*
X12844158Y-17544150D02*
X12825110Y-17553674D01*
X12825110Y-17553674D02*
X12815587Y-17563198D01*
X13025110Y-17677484D02*
X13006063Y-17667960D01*
X13006063Y-17667960D02*
X12996539Y-17658436D01*
X12996539Y-17658436D02*
X12987015Y-17639389D01*
X12987015Y-17639389D02*
X12987015Y-17582246D01*
X12987015Y-17582246D02*
X12996539Y-17563198D01*
X12996539Y-17563198D02*
X13006063Y-17553674D01*
X13006063Y-17553674D02*
X13025110Y-17544150D01*
X13025110Y-17544150D02*
X13053682Y-17544150D01*
X13053682Y-17544150D02*
X13072730Y-17553674D01*
X13072730Y-17553674D02*
X13082253Y-17563198D01*
X13082253Y-17563198D02*
X13091777Y-17582246D01*
X13091777Y-17582246D02*
X13091777Y-17639389D01*
X13091777Y-17639389D02*
X13082253Y-17658436D01*
X13082253Y-17658436D02*
X13072730Y-17667960D01*
X13072730Y-17667960D02*
X13053682Y-17677484D01*
X13053682Y-17677484D02*
X13025110Y-17677484D01*
X13206063Y-17677484D02*
X13187015Y-17667960D01*
X13187015Y-17667960D02*
X13177491Y-17648912D01*
X13177491Y-17648912D02*
X13177491Y-17477484D01*
X13358444Y-17667960D02*
X13339396Y-17677484D01*
X13339396Y-17677484D02*
X13301301Y-17677484D01*
X13301301Y-17677484D02*
X13282253Y-17667960D01*
X13282253Y-17667960D02*
X13272730Y-17648912D01*
X13272730Y-17648912D02*
X13272730Y-17572722D01*
X13272730Y-17572722D02*
X13282253Y-17553674D01*
X13282253Y-17553674D02*
X13301301Y-17544150D01*
X13301301Y-17544150D02*
X13339396Y-17544150D01*
X13339396Y-17544150D02*
X13358444Y-17553674D01*
X13358444Y-17553674D02*
X13367968Y-17572722D01*
X13367968Y-17572722D02*
X13367968Y-17591770D01*
X13367968Y-17591770D02*
X13272730Y-17610817D01*
X13444158Y-17667960D02*
X13463206Y-17677484D01*
X13463206Y-17677484D02*
X13501301Y-17677484D01*
X13501301Y-17677484D02*
X13520349Y-17667960D01*
X13520349Y-17667960D02*
X13529872Y-17648912D01*
X13529872Y-17648912D02*
X13529872Y-17639389D01*
X13529872Y-17639389D02*
X13520349Y-17620341D01*
X13520349Y-17620341D02*
X13501301Y-17610817D01*
X13501301Y-17610817D02*
X13472730Y-17610817D01*
X13472730Y-17610817D02*
X13453682Y-17601293D01*
X13453682Y-17601293D02*
X13444158Y-17582246D01*
X13444158Y-17582246D02*
X13444158Y-17572722D01*
X13444158Y-17572722D02*
X13453682Y-17553674D01*
X13453682Y-17553674D02*
X13472730Y-17544150D01*
X13472730Y-17544150D02*
X13501301Y-17544150D01*
X13501301Y-17544150D02*
X13520349Y-17553674D01*
X13596539Y-17753674D02*
X13606063Y-17744150D01*
X13606063Y-17744150D02*
X13625111Y-17715579D01*
X13625111Y-17715579D02*
X13634634Y-17696531D01*
X13634634Y-17696531D02*
X13644158Y-17667960D01*
X13644158Y-17667960D02*
X13653682Y-17620341D01*
X13653682Y-17620341D02*
X13653682Y-17582246D01*
X13653682Y-17582246D02*
X13644158Y-17534627D01*
X13644158Y-17534627D02*
X13634634Y-17506055D01*
X13634634Y-17506055D02*
X13625111Y-17487008D01*
X13625111Y-17487008D02*
X13606063Y-17458436D01*
X13606063Y-17458436D02*
X13596539Y-17448912D01*
D14*
X8471000Y-17770000D02*
X8631000Y-17930000D01*
X8631000Y-17770000D02*
X8471000Y-17930000D01*
X8551000Y-17770000D02*
X8551000Y-17930000D01*
X8471000Y-17850000D02*
X8631000Y-17850000D01*
D11*
X8996539Y-17941484D02*
X8882253Y-17941484D01*
X8939396Y-17941484D02*
X8939396Y-17741484D01*
X8939396Y-17741484D02*
X8920348Y-17770055D01*
X8920348Y-17770055D02*
X8901301Y-17789103D01*
X8901301Y-17789103D02*
X8882253Y-17798627D01*
X9082253Y-17922436D02*
X9091777Y-17931960D01*
X9091777Y-17931960D02*
X9082253Y-17941484D01*
X9082253Y-17941484D02*
X9072729Y-17931960D01*
X9072729Y-17931960D02*
X9082253Y-17922436D01*
X9082253Y-17922436D02*
X9082253Y-17941484D01*
X9263205Y-17741484D02*
X9225110Y-17741484D01*
X9225110Y-17741484D02*
X9206063Y-17751008D01*
X9206063Y-17751008D02*
X9196539Y-17760531D01*
X9196539Y-17760531D02*
X9177491Y-17789103D01*
X9177491Y-17789103D02*
X9167967Y-17827198D01*
X9167967Y-17827198D02*
X9167967Y-17903389D01*
X9167967Y-17903389D02*
X9177491Y-17922436D01*
X9177491Y-17922436D02*
X9187015Y-17931960D01*
X9187015Y-17931960D02*
X9206063Y-17941484D01*
X9206063Y-17941484D02*
X9244158Y-17941484D01*
X9244158Y-17941484D02*
X9263205Y-17931960D01*
X9263205Y-17931960D02*
X9272729Y-17922436D01*
X9272729Y-17922436D02*
X9282253Y-17903389D01*
X9282253Y-17903389D02*
X9282253Y-17855770D01*
X9282253Y-17855770D02*
X9272729Y-17836722D01*
X9272729Y-17836722D02*
X9263205Y-17827198D01*
X9263205Y-17827198D02*
X9244158Y-17817674D01*
X9244158Y-17817674D02*
X9206063Y-17817674D01*
X9206063Y-17817674D02*
X9187015Y-17827198D01*
X9187015Y-17827198D02*
X9177491Y-17836722D01*
X9177491Y-17836722D02*
X9167967Y-17855770D01*
X9406063Y-17741484D02*
X9425110Y-17741484D01*
X9425110Y-17741484D02*
X9444158Y-17751008D01*
X9444158Y-17751008D02*
X9453682Y-17760531D01*
X9453682Y-17760531D02*
X9463205Y-17779579D01*
X9463205Y-17779579D02*
X9472729Y-17817674D01*
X9472729Y-17817674D02*
X9472729Y-17865293D01*
X9472729Y-17865293D02*
X9463205Y-17903389D01*
X9463205Y-17903389D02*
X9453682Y-17922436D01*
X9453682Y-17922436D02*
X9444158Y-17931960D01*
X9444158Y-17931960D02*
X9425110Y-17941484D01*
X9425110Y-17941484D02*
X9406063Y-17941484D01*
X9406063Y-17941484D02*
X9387015Y-17931960D01*
X9387015Y-17931960D02*
X9377491Y-17922436D01*
X9377491Y-17922436D02*
X9367967Y-17903389D01*
X9367967Y-17903389D02*
X9358444Y-17865293D01*
X9358444Y-17865293D02*
X9358444Y-17817674D01*
X9358444Y-17817674D02*
X9367967Y-17779579D01*
X9367967Y-17779579D02*
X9377491Y-17760531D01*
X9377491Y-17760531D02*
X9387015Y-17751008D01*
X9387015Y-17751008D02*
X9406063Y-17741484D01*
X9596539Y-17741484D02*
X9615586Y-17741484D01*
X9615586Y-17741484D02*
X9634634Y-17751008D01*
X9634634Y-17751008D02*
X9644158Y-17760531D01*
X9644158Y-17760531D02*
X9653682Y-17779579D01*
X9653682Y-17779579D02*
X9663205Y-17817674D01*
X9663205Y-17817674D02*
X9663205Y-17865293D01*
X9663205Y-17865293D02*
X9653682Y-17903389D01*
X9653682Y-17903389D02*
X9644158Y-17922436D01*
X9644158Y-17922436D02*
X9634634Y-17931960D01*
X9634634Y-17931960D02*
X9615586Y-17941484D01*
X9615586Y-17941484D02*
X9596539Y-17941484D01*
X9596539Y-17941484D02*
X9577491Y-17931960D01*
X9577491Y-17931960D02*
X9567967Y-17922436D01*
X9567967Y-17922436D02*
X9558444Y-17903389D01*
X9558444Y-17903389D02*
X9548920Y-17865293D01*
X9548920Y-17865293D02*
X9548920Y-17817674D01*
X9548920Y-17817674D02*
X9558444Y-17779579D01*
X9558444Y-17779579D02*
X9567967Y-17760531D01*
X9567967Y-17760531D02*
X9577491Y-17751008D01*
X9577491Y-17751008D02*
X9596539Y-17741484D01*
X9748920Y-17941484D02*
X9748920Y-17808150D01*
X9748920Y-17827198D02*
X9758444Y-17817674D01*
X9758444Y-17817674D02*
X9777491Y-17808150D01*
X9777491Y-17808150D02*
X9806063Y-17808150D01*
X9806063Y-17808150D02*
X9825110Y-17817674D01*
X9825110Y-17817674D02*
X9834634Y-17836722D01*
X9834634Y-17836722D02*
X9834634Y-17941484D01*
X9834634Y-17836722D02*
X9844158Y-17817674D01*
X9844158Y-17817674D02*
X9863205Y-17808150D01*
X9863205Y-17808150D02*
X9891777Y-17808150D01*
X9891777Y-17808150D02*
X9910825Y-17817674D01*
X9910825Y-17817674D02*
X9920348Y-17836722D01*
X9920348Y-17836722D02*
X9920348Y-17941484D01*
X10015586Y-17941484D02*
X10015586Y-17808150D01*
X10015586Y-17827198D02*
X10025110Y-17817674D01*
X10025110Y-17817674D02*
X10044158Y-17808150D01*
X10044158Y-17808150D02*
X10072729Y-17808150D01*
X10072729Y-17808150D02*
X10091777Y-17817674D01*
X10091777Y-17817674D02*
X10101301Y-17836722D01*
X10101301Y-17836722D02*
X10101301Y-17941484D01*
X10101301Y-17836722D02*
X10110825Y-17817674D01*
X10110825Y-17817674D02*
X10129872Y-17808150D01*
X10129872Y-17808150D02*
X10158444Y-17808150D01*
X10158444Y-17808150D02*
X10177491Y-17817674D01*
X10177491Y-17817674D02*
X10187015Y-17836722D01*
X10187015Y-17836722D02*
X10187015Y-17941484D01*
X10577491Y-17731960D02*
X10406063Y-17989103D01*
X10834634Y-17741484D02*
X10853682Y-17741484D01*
X10853682Y-17741484D02*
X10872729Y-17751008D01*
X10872729Y-17751008D02*
X10882253Y-17760531D01*
X10882253Y-17760531D02*
X10891777Y-17779579D01*
X10891777Y-17779579D02*
X10901301Y-17817674D01*
X10901301Y-17817674D02*
X10901301Y-17865293D01*
X10901301Y-17865293D02*
X10891777Y-17903389D01*
X10891777Y-17903389D02*
X10882253Y-17922436D01*
X10882253Y-17922436D02*
X10872729Y-17931960D01*
X10872729Y-17931960D02*
X10853682Y-17941484D01*
X10853682Y-17941484D02*
X10834634Y-17941484D01*
X10834634Y-17941484D02*
X10815587Y-17931960D01*
X10815587Y-17931960D02*
X10806063Y-17922436D01*
X10806063Y-17922436D02*
X10796539Y-17903389D01*
X10796539Y-17903389D02*
X10787015Y-17865293D01*
X10787015Y-17865293D02*
X10787015Y-17817674D01*
X10787015Y-17817674D02*
X10796539Y-17779579D01*
X10796539Y-17779579D02*
X10806063Y-17760531D01*
X10806063Y-17760531D02*
X10815587Y-17751008D01*
X10815587Y-17751008D02*
X10834634Y-17741484D01*
X10987015Y-17922436D02*
X10996539Y-17931960D01*
X10996539Y-17931960D02*
X10987015Y-17941484D01*
X10987015Y-17941484D02*
X10977491Y-17931960D01*
X10977491Y-17931960D02*
X10987015Y-17922436D01*
X10987015Y-17922436D02*
X10987015Y-17941484D01*
X11120348Y-17741484D02*
X11139396Y-17741484D01*
X11139396Y-17741484D02*
X11158444Y-17751008D01*
X11158444Y-17751008D02*
X11167968Y-17760531D01*
X11167968Y-17760531D02*
X11177491Y-17779579D01*
X11177491Y-17779579D02*
X11187015Y-17817674D01*
X11187015Y-17817674D02*
X11187015Y-17865293D01*
X11187015Y-17865293D02*
X11177491Y-17903389D01*
X11177491Y-17903389D02*
X11167968Y-17922436D01*
X11167968Y-17922436D02*
X11158444Y-17931960D01*
X11158444Y-17931960D02*
X11139396Y-17941484D01*
X11139396Y-17941484D02*
X11120348Y-17941484D01*
X11120348Y-17941484D02*
X11101301Y-17931960D01*
X11101301Y-17931960D02*
X11091777Y-17922436D01*
X11091777Y-17922436D02*
X11082253Y-17903389D01*
X11082253Y-17903389D02*
X11072729Y-17865293D01*
X11072729Y-17865293D02*
X11072729Y-17817674D01*
X11072729Y-17817674D02*
X11082253Y-17779579D01*
X11082253Y-17779579D02*
X11091777Y-17760531D01*
X11091777Y-17760531D02*
X11101301Y-17751008D01*
X11101301Y-17751008D02*
X11120348Y-17741484D01*
X11358444Y-17741484D02*
X11320348Y-17741484D01*
X11320348Y-17741484D02*
X11301301Y-17751008D01*
X11301301Y-17751008D02*
X11291777Y-17760531D01*
X11291777Y-17760531D02*
X11272729Y-17789103D01*
X11272729Y-17789103D02*
X11263206Y-17827198D01*
X11263206Y-17827198D02*
X11263206Y-17903389D01*
X11263206Y-17903389D02*
X11272729Y-17922436D01*
X11272729Y-17922436D02*
X11282253Y-17931960D01*
X11282253Y-17931960D02*
X11301301Y-17941484D01*
X11301301Y-17941484D02*
X11339396Y-17941484D01*
X11339396Y-17941484D02*
X11358444Y-17931960D01*
X11358444Y-17931960D02*
X11367967Y-17922436D01*
X11367967Y-17922436D02*
X11377491Y-17903389D01*
X11377491Y-17903389D02*
X11377491Y-17855770D01*
X11377491Y-17855770D02*
X11367967Y-17836722D01*
X11367967Y-17836722D02*
X11358444Y-17827198D01*
X11358444Y-17827198D02*
X11339396Y-17817674D01*
X11339396Y-17817674D02*
X11301301Y-17817674D01*
X11301301Y-17817674D02*
X11282253Y-17827198D01*
X11282253Y-17827198D02*
X11272729Y-17836722D01*
X11272729Y-17836722D02*
X11263206Y-17855770D01*
X11444158Y-17741484D02*
X11567967Y-17741484D01*
X11567967Y-17741484D02*
X11501301Y-17817674D01*
X11501301Y-17817674D02*
X11529872Y-17817674D01*
X11529872Y-17817674D02*
X11548920Y-17827198D01*
X11548920Y-17827198D02*
X11558444Y-17836722D01*
X11558444Y-17836722D02*
X11567967Y-17855770D01*
X11567967Y-17855770D02*
X11567967Y-17903389D01*
X11567967Y-17903389D02*
X11558444Y-17922436D01*
X11558444Y-17922436D02*
X11548920Y-17931960D01*
X11548920Y-17931960D02*
X11529872Y-17941484D01*
X11529872Y-17941484D02*
X11472729Y-17941484D01*
X11472729Y-17941484D02*
X11453682Y-17931960D01*
X11453682Y-17931960D02*
X11444158Y-17922436D01*
X11691777Y-17741484D02*
X11710825Y-17741484D01*
X11710825Y-17741484D02*
X11729872Y-17751008D01*
X11729872Y-17751008D02*
X11739396Y-17760531D01*
X11739396Y-17760531D02*
X11748920Y-17779579D01*
X11748920Y-17779579D02*
X11758444Y-17817674D01*
X11758444Y-17817674D02*
X11758444Y-17865293D01*
X11758444Y-17865293D02*
X11748920Y-17903389D01*
X11748920Y-17903389D02*
X11739396Y-17922436D01*
X11739396Y-17922436D02*
X11729872Y-17931960D01*
X11729872Y-17931960D02*
X11710825Y-17941484D01*
X11710825Y-17941484D02*
X11691777Y-17941484D01*
X11691777Y-17941484D02*
X11672729Y-17931960D01*
X11672729Y-17931960D02*
X11663206Y-17922436D01*
X11663206Y-17922436D02*
X11653682Y-17903389D01*
X11653682Y-17903389D02*
X11644158Y-17865293D01*
X11644158Y-17865293D02*
X11644158Y-17817674D01*
X11644158Y-17817674D02*
X11653682Y-17779579D01*
X11653682Y-17779579D02*
X11663206Y-17760531D01*
X11663206Y-17760531D02*
X11672729Y-17751008D01*
X11672729Y-17751008D02*
X11691777Y-17741484D01*
X11834634Y-17741484D02*
X11834634Y-17779579D01*
X11910825Y-17741484D02*
X11910825Y-17779579D01*
X12206063Y-18017674D02*
X12196539Y-18008150D01*
X12196539Y-18008150D02*
X12177491Y-17979579D01*
X12177491Y-17979579D02*
X12167968Y-17960531D01*
X12167968Y-17960531D02*
X12158444Y-17931960D01*
X12158444Y-17931960D02*
X12148920Y-17884341D01*
X12148920Y-17884341D02*
X12148920Y-17846246D01*
X12148920Y-17846246D02*
X12158444Y-17798627D01*
X12158444Y-17798627D02*
X12167968Y-17770055D01*
X12167968Y-17770055D02*
X12177491Y-17751008D01*
X12177491Y-17751008D02*
X12196539Y-17722436D01*
X12196539Y-17722436D02*
X12206063Y-17712912D01*
X12367968Y-17808150D02*
X12367968Y-17941484D01*
X12320348Y-17731960D02*
X12272729Y-17874817D01*
X12272729Y-17874817D02*
X12396539Y-17874817D01*
X12625110Y-17941484D02*
X12625110Y-17741484D01*
X12710825Y-17941484D02*
X12710825Y-17836722D01*
X12710825Y-17836722D02*
X12701301Y-17817674D01*
X12701301Y-17817674D02*
X12682253Y-17808150D01*
X12682253Y-17808150D02*
X12653682Y-17808150D01*
X12653682Y-17808150D02*
X12634634Y-17817674D01*
X12634634Y-17817674D02*
X12625110Y-17827198D01*
X12834634Y-17941484D02*
X12815587Y-17931960D01*
X12815587Y-17931960D02*
X12806063Y-17922436D01*
X12806063Y-17922436D02*
X12796539Y-17903389D01*
X12796539Y-17903389D02*
X12796539Y-17846246D01*
X12796539Y-17846246D02*
X12806063Y-17827198D01*
X12806063Y-17827198D02*
X12815587Y-17817674D01*
X12815587Y-17817674D02*
X12834634Y-17808150D01*
X12834634Y-17808150D02*
X12863206Y-17808150D01*
X12863206Y-17808150D02*
X12882253Y-17817674D01*
X12882253Y-17817674D02*
X12891777Y-17827198D01*
X12891777Y-17827198D02*
X12901301Y-17846246D01*
X12901301Y-17846246D02*
X12901301Y-17903389D01*
X12901301Y-17903389D02*
X12891777Y-17922436D01*
X12891777Y-17922436D02*
X12882253Y-17931960D01*
X12882253Y-17931960D02*
X12863206Y-17941484D01*
X12863206Y-17941484D02*
X12834634Y-17941484D01*
X13015587Y-17941484D02*
X12996539Y-17931960D01*
X12996539Y-17931960D02*
X12987015Y-17912912D01*
X12987015Y-17912912D02*
X12987015Y-17741484D01*
X13167968Y-17931960D02*
X13148920Y-17941484D01*
X13148920Y-17941484D02*
X13110825Y-17941484D01*
X13110825Y-17941484D02*
X13091777Y-17931960D01*
X13091777Y-17931960D02*
X13082253Y-17912912D01*
X13082253Y-17912912D02*
X13082253Y-17836722D01*
X13082253Y-17836722D02*
X13091777Y-17817674D01*
X13091777Y-17817674D02*
X13110825Y-17808150D01*
X13110825Y-17808150D02*
X13148920Y-17808150D01*
X13148920Y-17808150D02*
X13167968Y-17817674D01*
X13167968Y-17817674D02*
X13177491Y-17836722D01*
X13177491Y-17836722D02*
X13177491Y-17855770D01*
X13177491Y-17855770D02*
X13082253Y-17874817D01*
X13253682Y-17931960D02*
X13272730Y-17941484D01*
X13272730Y-17941484D02*
X13310825Y-17941484D01*
X13310825Y-17941484D02*
X13329872Y-17931960D01*
X13329872Y-17931960D02*
X13339396Y-17912912D01*
X13339396Y-17912912D02*
X13339396Y-17903389D01*
X13339396Y-17903389D02*
X13329872Y-17884341D01*
X13329872Y-17884341D02*
X13310825Y-17874817D01*
X13310825Y-17874817D02*
X13282253Y-17874817D01*
X13282253Y-17874817D02*
X13263206Y-17865293D01*
X13263206Y-17865293D02*
X13253682Y-17846246D01*
X13253682Y-17846246D02*
X13253682Y-17836722D01*
X13253682Y-17836722D02*
X13263206Y-17817674D01*
X13263206Y-17817674D02*
X13282253Y-17808150D01*
X13282253Y-17808150D02*
X13310825Y-17808150D01*
X13310825Y-17808150D02*
X13329872Y-17817674D01*
X13406063Y-18017674D02*
X13415587Y-18008150D01*
X13415587Y-18008150D02*
X13434634Y-17979579D01*
X13434634Y-17979579D02*
X13444158Y-17960531D01*
X13444158Y-17960531D02*
X13453682Y-17931960D01*
X13453682Y-17931960D02*
X13463206Y-17884341D01*
X13463206Y-17884341D02*
X13463206Y-17846246D01*
X13463206Y-17846246D02*
X13453682Y-17798627D01*
X13453682Y-17798627D02*
X13444158Y-17770055D01*
X13444158Y-17770055D02*
X13434634Y-17751008D01*
X13434634Y-17751008D02*
X13415587Y-17722436D01*
X13415587Y-17722436D02*
X13406063Y-17712912D01*
D15*
X8461000Y-18045000D02*
X8631000Y-18215000D01*
X8631000Y-18045000D02*
X8461000Y-18215000D01*
X8606105Y-18190105D02*
X8606105Y-18069895D01*
X8485895Y-18069895D01*
X8485895Y-18190105D01*
X8606105Y-18190105D01*
D11*
X8996539Y-18221484D02*
X8882253Y-18221484D01*
X8939396Y-18221484D02*
X8939396Y-18021484D01*
X8939396Y-18021484D02*
X8920348Y-18050055D01*
X8920348Y-18050055D02*
X8901301Y-18069103D01*
X8901301Y-18069103D02*
X8882253Y-18078627D01*
X9082253Y-18202436D02*
X9091777Y-18211960D01*
X9091777Y-18211960D02*
X9082253Y-18221484D01*
X9082253Y-18221484D02*
X9072729Y-18211960D01*
X9072729Y-18211960D02*
X9082253Y-18202436D01*
X9082253Y-18202436D02*
X9082253Y-18221484D01*
X9158444Y-18021484D02*
X9291777Y-18021484D01*
X9291777Y-18021484D02*
X9206063Y-18221484D01*
X9406063Y-18021484D02*
X9425110Y-18021484D01*
X9425110Y-18021484D02*
X9444158Y-18031008D01*
X9444158Y-18031008D02*
X9453682Y-18040531D01*
X9453682Y-18040531D02*
X9463205Y-18059579D01*
X9463205Y-18059579D02*
X9472729Y-18097674D01*
X9472729Y-18097674D02*
X9472729Y-18145293D01*
X9472729Y-18145293D02*
X9463205Y-18183389D01*
X9463205Y-18183389D02*
X9453682Y-18202436D01*
X9453682Y-18202436D02*
X9444158Y-18211960D01*
X9444158Y-18211960D02*
X9425110Y-18221484D01*
X9425110Y-18221484D02*
X9406063Y-18221484D01*
X9406063Y-18221484D02*
X9387015Y-18211960D01*
X9387015Y-18211960D02*
X9377491Y-18202436D01*
X9377491Y-18202436D02*
X9367967Y-18183389D01*
X9367967Y-18183389D02*
X9358444Y-18145293D01*
X9358444Y-18145293D02*
X9358444Y-18097674D01*
X9358444Y-18097674D02*
X9367967Y-18059579D01*
X9367967Y-18059579D02*
X9377491Y-18040531D01*
X9377491Y-18040531D02*
X9387015Y-18031008D01*
X9387015Y-18031008D02*
X9406063Y-18021484D01*
X9596539Y-18021484D02*
X9615586Y-18021484D01*
X9615586Y-18021484D02*
X9634634Y-18031008D01*
X9634634Y-18031008D02*
X9644158Y-18040531D01*
X9644158Y-18040531D02*
X9653682Y-18059579D01*
X9653682Y-18059579D02*
X9663205Y-18097674D01*
X9663205Y-18097674D02*
X9663205Y-18145293D01*
X9663205Y-18145293D02*
X9653682Y-18183389D01*
X9653682Y-18183389D02*
X9644158Y-18202436D01*
X9644158Y-18202436D02*
X9634634Y-18211960D01*
X9634634Y-18211960D02*
X9615586Y-18221484D01*
X9615586Y-18221484D02*
X9596539Y-18221484D01*
X9596539Y-18221484D02*
X9577491Y-18211960D01*
X9577491Y-18211960D02*
X9567967Y-18202436D01*
X9567967Y-18202436D02*
X9558444Y-18183389D01*
X9558444Y-18183389D02*
X9548920Y-18145293D01*
X9548920Y-18145293D02*
X9548920Y-18097674D01*
X9548920Y-18097674D02*
X9558444Y-18059579D01*
X9558444Y-18059579D02*
X9567967Y-18040531D01*
X9567967Y-18040531D02*
X9577491Y-18031008D01*
X9577491Y-18031008D02*
X9596539Y-18021484D01*
X9748920Y-18221484D02*
X9748920Y-18088150D01*
X9748920Y-18107198D02*
X9758444Y-18097674D01*
X9758444Y-18097674D02*
X9777491Y-18088150D01*
X9777491Y-18088150D02*
X9806063Y-18088150D01*
X9806063Y-18088150D02*
X9825110Y-18097674D01*
X9825110Y-18097674D02*
X9834634Y-18116722D01*
X9834634Y-18116722D02*
X9834634Y-18221484D01*
X9834634Y-18116722D02*
X9844158Y-18097674D01*
X9844158Y-18097674D02*
X9863205Y-18088150D01*
X9863205Y-18088150D02*
X9891777Y-18088150D01*
X9891777Y-18088150D02*
X9910825Y-18097674D01*
X9910825Y-18097674D02*
X9920348Y-18116722D01*
X9920348Y-18116722D02*
X9920348Y-18221484D01*
X10015586Y-18221484D02*
X10015586Y-18088150D01*
X10015586Y-18107198D02*
X10025110Y-18097674D01*
X10025110Y-18097674D02*
X10044158Y-18088150D01*
X10044158Y-18088150D02*
X10072729Y-18088150D01*
X10072729Y-18088150D02*
X10091777Y-18097674D01*
X10091777Y-18097674D02*
X10101301Y-18116722D01*
X10101301Y-18116722D02*
X10101301Y-18221484D01*
X10101301Y-18116722D02*
X10110825Y-18097674D01*
X10110825Y-18097674D02*
X10129872Y-18088150D01*
X10129872Y-18088150D02*
X10158444Y-18088150D01*
X10158444Y-18088150D02*
X10177491Y-18097674D01*
X10177491Y-18097674D02*
X10187015Y-18116722D01*
X10187015Y-18116722D02*
X10187015Y-18221484D01*
X10577491Y-18011960D02*
X10406063Y-18269103D01*
X10834634Y-18021484D02*
X10853682Y-18021484D01*
X10853682Y-18021484D02*
X10872729Y-18031008D01*
X10872729Y-18031008D02*
X10882253Y-18040531D01*
X10882253Y-18040531D02*
X10891777Y-18059579D01*
X10891777Y-18059579D02*
X10901301Y-18097674D01*
X10901301Y-18097674D02*
X10901301Y-18145293D01*
X10901301Y-18145293D02*
X10891777Y-18183389D01*
X10891777Y-18183389D02*
X10882253Y-18202436D01*
X10882253Y-18202436D02*
X10872729Y-18211960D01*
X10872729Y-18211960D02*
X10853682Y-18221484D01*
X10853682Y-18221484D02*
X10834634Y-18221484D01*
X10834634Y-18221484D02*
X10815587Y-18211960D01*
X10815587Y-18211960D02*
X10806063Y-18202436D01*
X10806063Y-18202436D02*
X10796539Y-18183389D01*
X10796539Y-18183389D02*
X10787015Y-18145293D01*
X10787015Y-18145293D02*
X10787015Y-18097674D01*
X10787015Y-18097674D02*
X10796539Y-18059579D01*
X10796539Y-18059579D02*
X10806063Y-18040531D01*
X10806063Y-18040531D02*
X10815587Y-18031008D01*
X10815587Y-18031008D02*
X10834634Y-18021484D01*
X10987015Y-18202436D02*
X10996539Y-18211960D01*
X10996539Y-18211960D02*
X10987015Y-18221484D01*
X10987015Y-18221484D02*
X10977491Y-18211960D01*
X10977491Y-18211960D02*
X10987015Y-18202436D01*
X10987015Y-18202436D02*
X10987015Y-18221484D01*
X11120348Y-18021484D02*
X11139396Y-18021484D01*
X11139396Y-18021484D02*
X11158444Y-18031008D01*
X11158444Y-18031008D02*
X11167968Y-18040531D01*
X11167968Y-18040531D02*
X11177491Y-18059579D01*
X11177491Y-18059579D02*
X11187015Y-18097674D01*
X11187015Y-18097674D02*
X11187015Y-18145293D01*
X11187015Y-18145293D02*
X11177491Y-18183389D01*
X11177491Y-18183389D02*
X11167968Y-18202436D01*
X11167968Y-18202436D02*
X11158444Y-18211960D01*
X11158444Y-18211960D02*
X11139396Y-18221484D01*
X11139396Y-18221484D02*
X11120348Y-18221484D01*
X11120348Y-18221484D02*
X11101301Y-18211960D01*
X11101301Y-18211960D02*
X11091777Y-18202436D01*
X11091777Y-18202436D02*
X11082253Y-18183389D01*
X11082253Y-18183389D02*
X11072729Y-18145293D01*
X11072729Y-18145293D02*
X11072729Y-18097674D01*
X11072729Y-18097674D02*
X11082253Y-18059579D01*
X11082253Y-18059579D02*
X11091777Y-18040531D01*
X11091777Y-18040531D02*
X11101301Y-18031008D01*
X11101301Y-18031008D02*
X11120348Y-18021484D01*
X11358444Y-18021484D02*
X11320348Y-18021484D01*
X11320348Y-18021484D02*
X11301301Y-18031008D01*
X11301301Y-18031008D02*
X11291777Y-18040531D01*
X11291777Y-18040531D02*
X11272729Y-18069103D01*
X11272729Y-18069103D02*
X11263206Y-18107198D01*
X11263206Y-18107198D02*
X11263206Y-18183389D01*
X11263206Y-18183389D02*
X11272729Y-18202436D01*
X11272729Y-18202436D02*
X11282253Y-18211960D01*
X11282253Y-18211960D02*
X11301301Y-18221484D01*
X11301301Y-18221484D02*
X11339396Y-18221484D01*
X11339396Y-18221484D02*
X11358444Y-18211960D01*
X11358444Y-18211960D02*
X11367967Y-18202436D01*
X11367967Y-18202436D02*
X11377491Y-18183389D01*
X11377491Y-18183389D02*
X11377491Y-18135770D01*
X11377491Y-18135770D02*
X11367967Y-18116722D01*
X11367967Y-18116722D02*
X11358444Y-18107198D01*
X11358444Y-18107198D02*
X11339396Y-18097674D01*
X11339396Y-18097674D02*
X11301301Y-18097674D01*
X11301301Y-18097674D02*
X11282253Y-18107198D01*
X11282253Y-18107198D02*
X11272729Y-18116722D01*
X11272729Y-18116722D02*
X11263206Y-18135770D01*
X11548920Y-18021484D02*
X11510825Y-18021484D01*
X11510825Y-18021484D02*
X11491777Y-18031008D01*
X11491777Y-18031008D02*
X11482253Y-18040531D01*
X11482253Y-18040531D02*
X11463206Y-18069103D01*
X11463206Y-18069103D02*
X11453682Y-18107198D01*
X11453682Y-18107198D02*
X11453682Y-18183389D01*
X11453682Y-18183389D02*
X11463206Y-18202436D01*
X11463206Y-18202436D02*
X11472729Y-18211960D01*
X11472729Y-18211960D02*
X11491777Y-18221484D01*
X11491777Y-18221484D02*
X11529872Y-18221484D01*
X11529872Y-18221484D02*
X11548920Y-18211960D01*
X11548920Y-18211960D02*
X11558444Y-18202436D01*
X11558444Y-18202436D02*
X11567967Y-18183389D01*
X11567967Y-18183389D02*
X11567967Y-18135770D01*
X11567967Y-18135770D02*
X11558444Y-18116722D01*
X11558444Y-18116722D02*
X11548920Y-18107198D01*
X11548920Y-18107198D02*
X11529872Y-18097674D01*
X11529872Y-18097674D02*
X11491777Y-18097674D01*
X11491777Y-18097674D02*
X11472729Y-18107198D01*
X11472729Y-18107198D02*
X11463206Y-18116722D01*
X11463206Y-18116722D02*
X11453682Y-18135770D01*
X11663206Y-18221484D02*
X11701301Y-18221484D01*
X11701301Y-18221484D02*
X11720348Y-18211960D01*
X11720348Y-18211960D02*
X11729872Y-18202436D01*
X11729872Y-18202436D02*
X11748920Y-18173865D01*
X11748920Y-18173865D02*
X11758444Y-18135770D01*
X11758444Y-18135770D02*
X11758444Y-18059579D01*
X11758444Y-18059579D02*
X11748920Y-18040531D01*
X11748920Y-18040531D02*
X11739396Y-18031008D01*
X11739396Y-18031008D02*
X11720348Y-18021484D01*
X11720348Y-18021484D02*
X11682253Y-18021484D01*
X11682253Y-18021484D02*
X11663206Y-18031008D01*
X11663206Y-18031008D02*
X11653682Y-18040531D01*
X11653682Y-18040531D02*
X11644158Y-18059579D01*
X11644158Y-18059579D02*
X11644158Y-18107198D01*
X11644158Y-18107198D02*
X11653682Y-18126246D01*
X11653682Y-18126246D02*
X11663206Y-18135770D01*
X11663206Y-18135770D02*
X11682253Y-18145293D01*
X11682253Y-18145293D02*
X11720348Y-18145293D01*
X11720348Y-18145293D02*
X11739396Y-18135770D01*
X11739396Y-18135770D02*
X11748920Y-18126246D01*
X11748920Y-18126246D02*
X11758444Y-18107198D01*
X11834634Y-18021484D02*
X11834634Y-18059579D01*
X11910825Y-18021484D02*
X11910825Y-18059579D01*
X12206063Y-18297674D02*
X12196539Y-18288150D01*
X12196539Y-18288150D02*
X12177491Y-18259579D01*
X12177491Y-18259579D02*
X12167968Y-18240531D01*
X12167968Y-18240531D02*
X12158444Y-18211960D01*
X12158444Y-18211960D02*
X12148920Y-18164341D01*
X12148920Y-18164341D02*
X12148920Y-18126246D01*
X12148920Y-18126246D02*
X12158444Y-18078627D01*
X12158444Y-18078627D02*
X12167968Y-18050055D01*
X12167968Y-18050055D02*
X12177491Y-18031008D01*
X12177491Y-18031008D02*
X12196539Y-18002436D01*
X12196539Y-18002436D02*
X12206063Y-17992912D01*
X12272729Y-18040531D02*
X12282253Y-18031008D01*
X12282253Y-18031008D02*
X12301301Y-18021484D01*
X12301301Y-18021484D02*
X12348920Y-18021484D01*
X12348920Y-18021484D02*
X12367968Y-18031008D01*
X12367968Y-18031008D02*
X12377491Y-18040531D01*
X12377491Y-18040531D02*
X12387015Y-18059579D01*
X12387015Y-18059579D02*
X12387015Y-18078627D01*
X12387015Y-18078627D02*
X12377491Y-18107198D01*
X12377491Y-18107198D02*
X12263206Y-18221484D01*
X12263206Y-18221484D02*
X12387015Y-18221484D01*
X12625110Y-18221484D02*
X12625110Y-18021484D01*
X12710825Y-18221484D02*
X12710825Y-18116722D01*
X12710825Y-18116722D02*
X12701301Y-18097674D01*
X12701301Y-18097674D02*
X12682253Y-18088150D01*
X12682253Y-18088150D02*
X12653682Y-18088150D01*
X12653682Y-18088150D02*
X12634634Y-18097674D01*
X12634634Y-18097674D02*
X12625110Y-18107198D01*
X12834634Y-18221484D02*
X12815587Y-18211960D01*
X12815587Y-18211960D02*
X12806063Y-18202436D01*
X12806063Y-18202436D02*
X12796539Y-18183389D01*
X12796539Y-18183389D02*
X12796539Y-18126246D01*
X12796539Y-18126246D02*
X12806063Y-18107198D01*
X12806063Y-18107198D02*
X12815587Y-18097674D01*
X12815587Y-18097674D02*
X12834634Y-18088150D01*
X12834634Y-18088150D02*
X12863206Y-18088150D01*
X12863206Y-18088150D02*
X12882253Y-18097674D01*
X12882253Y-18097674D02*
X12891777Y-18107198D01*
X12891777Y-18107198D02*
X12901301Y-18126246D01*
X12901301Y-18126246D02*
X12901301Y-18183389D01*
X12901301Y-18183389D02*
X12891777Y-18202436D01*
X12891777Y-18202436D02*
X12882253Y-18211960D01*
X12882253Y-18211960D02*
X12863206Y-18221484D01*
X12863206Y-18221484D02*
X12834634Y-18221484D01*
X13015587Y-18221484D02*
X12996539Y-18211960D01*
X12996539Y-18211960D02*
X12987015Y-18192912D01*
X12987015Y-18192912D02*
X12987015Y-18021484D01*
X13167968Y-18211960D02*
X13148920Y-18221484D01*
X13148920Y-18221484D02*
X13110825Y-18221484D01*
X13110825Y-18221484D02*
X13091777Y-18211960D01*
X13091777Y-18211960D02*
X13082253Y-18192912D01*
X13082253Y-18192912D02*
X13082253Y-18116722D01*
X13082253Y-18116722D02*
X13091777Y-18097674D01*
X13091777Y-18097674D02*
X13110825Y-18088150D01*
X13110825Y-18088150D02*
X13148920Y-18088150D01*
X13148920Y-18088150D02*
X13167968Y-18097674D01*
X13167968Y-18097674D02*
X13177491Y-18116722D01*
X13177491Y-18116722D02*
X13177491Y-18135770D01*
X13177491Y-18135770D02*
X13082253Y-18154817D01*
X13253682Y-18211960D02*
X13272730Y-18221484D01*
X13272730Y-18221484D02*
X13310825Y-18221484D01*
X13310825Y-18221484D02*
X13329872Y-18211960D01*
X13329872Y-18211960D02*
X13339396Y-18192912D01*
X13339396Y-18192912D02*
X13339396Y-18183389D01*
X13339396Y-18183389D02*
X13329872Y-18164341D01*
X13329872Y-18164341D02*
X13310825Y-18154817D01*
X13310825Y-18154817D02*
X13282253Y-18154817D01*
X13282253Y-18154817D02*
X13263206Y-18145293D01*
X13263206Y-18145293D02*
X13253682Y-18126246D01*
X13253682Y-18126246D02*
X13253682Y-18116722D01*
X13253682Y-18116722D02*
X13263206Y-18097674D01*
X13263206Y-18097674D02*
X13282253Y-18088150D01*
X13282253Y-18088150D02*
X13310825Y-18088150D01*
X13310825Y-18088150D02*
X13329872Y-18097674D01*
X13406063Y-18297674D02*
X13415587Y-18288150D01*
X13415587Y-18288150D02*
X13434634Y-18259579D01*
X13434634Y-18259579D02*
X13444158Y-18240531D01*
X13444158Y-18240531D02*
X13453682Y-18211960D01*
X13453682Y-18211960D02*
X13463206Y-18164341D01*
X13463206Y-18164341D02*
X13463206Y-18126246D01*
X13463206Y-18126246D02*
X13453682Y-18078627D01*
X13453682Y-18078627D02*
X13444158Y-18050055D01*
X13444158Y-18050055D02*
X13434634Y-18031008D01*
X13434634Y-18031008D02*
X13415587Y-18002436D01*
X13415587Y-18002436D02*
X13406063Y-17992912D01*
X8431000Y-18320000D02*
X8631000Y-18520000D01*
X8631000Y-18320000D02*
X8431000Y-18520000D01*
X8531000Y-18520000D02*
X8631000Y-18420000D01*
X8531000Y-18320000D01*
X8431000Y-18420000D01*
X8531000Y-18520000D01*
X8882253Y-18330531D02*
X8891777Y-18321008D01*
X8891777Y-18321008D02*
X8910824Y-18311484D01*
X8910824Y-18311484D02*
X8958444Y-18311484D01*
X8958444Y-18311484D02*
X8977491Y-18321008D01*
X8977491Y-18321008D02*
X8987015Y-18330531D01*
X8987015Y-18330531D02*
X8996539Y-18349579D01*
X8996539Y-18349579D02*
X8996539Y-18368627D01*
X8996539Y-18368627D02*
X8987015Y-18397198D01*
X8987015Y-18397198D02*
X8872729Y-18511484D01*
X8872729Y-18511484D02*
X8996539Y-18511484D01*
X9082253Y-18492436D02*
X9091777Y-18501960D01*
X9091777Y-18501960D02*
X9082253Y-18511484D01*
X9082253Y-18511484D02*
X9072729Y-18501960D01*
X9072729Y-18501960D02*
X9082253Y-18492436D01*
X9082253Y-18492436D02*
X9082253Y-18511484D01*
X9282253Y-18511484D02*
X9167967Y-18511484D01*
X9225110Y-18511484D02*
X9225110Y-18311484D01*
X9225110Y-18311484D02*
X9206063Y-18340055D01*
X9206063Y-18340055D02*
X9187015Y-18359103D01*
X9187015Y-18359103D02*
X9167967Y-18368627D01*
X9406063Y-18311484D02*
X9425110Y-18311484D01*
X9425110Y-18311484D02*
X9444158Y-18321008D01*
X9444158Y-18321008D02*
X9453682Y-18330531D01*
X9453682Y-18330531D02*
X9463205Y-18349579D01*
X9463205Y-18349579D02*
X9472729Y-18387674D01*
X9472729Y-18387674D02*
X9472729Y-18435293D01*
X9472729Y-18435293D02*
X9463205Y-18473389D01*
X9463205Y-18473389D02*
X9453682Y-18492436D01*
X9453682Y-18492436D02*
X9444158Y-18501960D01*
X9444158Y-18501960D02*
X9425110Y-18511484D01*
X9425110Y-18511484D02*
X9406063Y-18511484D01*
X9406063Y-18511484D02*
X9387015Y-18501960D01*
X9387015Y-18501960D02*
X9377491Y-18492436D01*
X9377491Y-18492436D02*
X9367967Y-18473389D01*
X9367967Y-18473389D02*
X9358444Y-18435293D01*
X9358444Y-18435293D02*
X9358444Y-18387674D01*
X9358444Y-18387674D02*
X9367967Y-18349579D01*
X9367967Y-18349579D02*
X9377491Y-18330531D01*
X9377491Y-18330531D02*
X9387015Y-18321008D01*
X9387015Y-18321008D02*
X9406063Y-18311484D01*
X9596539Y-18311484D02*
X9615586Y-18311484D01*
X9615586Y-18311484D02*
X9634634Y-18321008D01*
X9634634Y-18321008D02*
X9644158Y-18330531D01*
X9644158Y-18330531D02*
X9653682Y-18349579D01*
X9653682Y-18349579D02*
X9663205Y-18387674D01*
X9663205Y-18387674D02*
X9663205Y-18435293D01*
X9663205Y-18435293D02*
X9653682Y-18473389D01*
X9653682Y-18473389D02*
X9644158Y-18492436D01*
X9644158Y-18492436D02*
X9634634Y-18501960D01*
X9634634Y-18501960D02*
X9615586Y-18511484D01*
X9615586Y-18511484D02*
X9596539Y-18511484D01*
X9596539Y-18511484D02*
X9577491Y-18501960D01*
X9577491Y-18501960D02*
X9567967Y-18492436D01*
X9567967Y-18492436D02*
X9558444Y-18473389D01*
X9558444Y-18473389D02*
X9548920Y-18435293D01*
X9548920Y-18435293D02*
X9548920Y-18387674D01*
X9548920Y-18387674D02*
X9558444Y-18349579D01*
X9558444Y-18349579D02*
X9567967Y-18330531D01*
X9567967Y-18330531D02*
X9577491Y-18321008D01*
X9577491Y-18321008D02*
X9596539Y-18311484D01*
X9748920Y-18511484D02*
X9748920Y-18378150D01*
X9748920Y-18397198D02*
X9758444Y-18387674D01*
X9758444Y-18387674D02*
X9777491Y-18378150D01*
X9777491Y-18378150D02*
X9806063Y-18378150D01*
X9806063Y-18378150D02*
X9825110Y-18387674D01*
X9825110Y-18387674D02*
X9834634Y-18406722D01*
X9834634Y-18406722D02*
X9834634Y-18511484D01*
X9834634Y-18406722D02*
X9844158Y-18387674D01*
X9844158Y-18387674D02*
X9863205Y-18378150D01*
X9863205Y-18378150D02*
X9891777Y-18378150D01*
X9891777Y-18378150D02*
X9910825Y-18387674D01*
X9910825Y-18387674D02*
X9920348Y-18406722D01*
X9920348Y-18406722D02*
X9920348Y-18511484D01*
X10015586Y-18511484D02*
X10015586Y-18378150D01*
X10015586Y-18397198D02*
X10025110Y-18387674D01*
X10025110Y-18387674D02*
X10044158Y-18378150D01*
X10044158Y-18378150D02*
X10072729Y-18378150D01*
X10072729Y-18378150D02*
X10091777Y-18387674D01*
X10091777Y-18387674D02*
X10101301Y-18406722D01*
X10101301Y-18406722D02*
X10101301Y-18511484D01*
X10101301Y-18406722D02*
X10110825Y-18387674D01*
X10110825Y-18387674D02*
X10129872Y-18378150D01*
X10129872Y-18378150D02*
X10158444Y-18378150D01*
X10158444Y-18378150D02*
X10177491Y-18387674D01*
X10177491Y-18387674D02*
X10187015Y-18406722D01*
X10187015Y-18406722D02*
X10187015Y-18511484D01*
X10577491Y-18301960D02*
X10406063Y-18559103D01*
X10834634Y-18311484D02*
X10853682Y-18311484D01*
X10853682Y-18311484D02*
X10872729Y-18321008D01*
X10872729Y-18321008D02*
X10882253Y-18330531D01*
X10882253Y-18330531D02*
X10891777Y-18349579D01*
X10891777Y-18349579D02*
X10901301Y-18387674D01*
X10901301Y-18387674D02*
X10901301Y-18435293D01*
X10901301Y-18435293D02*
X10891777Y-18473389D01*
X10891777Y-18473389D02*
X10882253Y-18492436D01*
X10882253Y-18492436D02*
X10872729Y-18501960D01*
X10872729Y-18501960D02*
X10853682Y-18511484D01*
X10853682Y-18511484D02*
X10834634Y-18511484D01*
X10834634Y-18511484D02*
X10815587Y-18501960D01*
X10815587Y-18501960D02*
X10806063Y-18492436D01*
X10806063Y-18492436D02*
X10796539Y-18473389D01*
X10796539Y-18473389D02*
X10787015Y-18435293D01*
X10787015Y-18435293D02*
X10787015Y-18387674D01*
X10787015Y-18387674D02*
X10796539Y-18349579D01*
X10796539Y-18349579D02*
X10806063Y-18330531D01*
X10806063Y-18330531D02*
X10815587Y-18321008D01*
X10815587Y-18321008D02*
X10834634Y-18311484D01*
X10987015Y-18492436D02*
X10996539Y-18501960D01*
X10996539Y-18501960D02*
X10987015Y-18511484D01*
X10987015Y-18511484D02*
X10977491Y-18501960D01*
X10977491Y-18501960D02*
X10987015Y-18492436D01*
X10987015Y-18492436D02*
X10987015Y-18511484D01*
X11120348Y-18311484D02*
X11139396Y-18311484D01*
X11139396Y-18311484D02*
X11158444Y-18321008D01*
X11158444Y-18321008D02*
X11167968Y-18330531D01*
X11167968Y-18330531D02*
X11177491Y-18349579D01*
X11177491Y-18349579D02*
X11187015Y-18387674D01*
X11187015Y-18387674D02*
X11187015Y-18435293D01*
X11187015Y-18435293D02*
X11177491Y-18473389D01*
X11177491Y-18473389D02*
X11167968Y-18492436D01*
X11167968Y-18492436D02*
X11158444Y-18501960D01*
X11158444Y-18501960D02*
X11139396Y-18511484D01*
X11139396Y-18511484D02*
X11120348Y-18511484D01*
X11120348Y-18511484D02*
X11101301Y-18501960D01*
X11101301Y-18501960D02*
X11091777Y-18492436D01*
X11091777Y-18492436D02*
X11082253Y-18473389D01*
X11082253Y-18473389D02*
X11072729Y-18435293D01*
X11072729Y-18435293D02*
X11072729Y-18387674D01*
X11072729Y-18387674D02*
X11082253Y-18349579D01*
X11082253Y-18349579D02*
X11091777Y-18330531D01*
X11091777Y-18330531D02*
X11101301Y-18321008D01*
X11101301Y-18321008D02*
X11120348Y-18311484D01*
X11301301Y-18397198D02*
X11282253Y-18387674D01*
X11282253Y-18387674D02*
X11272729Y-18378150D01*
X11272729Y-18378150D02*
X11263206Y-18359103D01*
X11263206Y-18359103D02*
X11263206Y-18349579D01*
X11263206Y-18349579D02*
X11272729Y-18330531D01*
X11272729Y-18330531D02*
X11282253Y-18321008D01*
X11282253Y-18321008D02*
X11301301Y-18311484D01*
X11301301Y-18311484D02*
X11339396Y-18311484D01*
X11339396Y-18311484D02*
X11358444Y-18321008D01*
X11358444Y-18321008D02*
X11367967Y-18330531D01*
X11367967Y-18330531D02*
X11377491Y-18349579D01*
X11377491Y-18349579D02*
X11377491Y-18359103D01*
X11377491Y-18359103D02*
X11367967Y-18378150D01*
X11367967Y-18378150D02*
X11358444Y-18387674D01*
X11358444Y-18387674D02*
X11339396Y-18397198D01*
X11339396Y-18397198D02*
X11301301Y-18397198D01*
X11301301Y-18397198D02*
X11282253Y-18406722D01*
X11282253Y-18406722D02*
X11272729Y-18416246D01*
X11272729Y-18416246D02*
X11263206Y-18435293D01*
X11263206Y-18435293D02*
X11263206Y-18473389D01*
X11263206Y-18473389D02*
X11272729Y-18492436D01*
X11272729Y-18492436D02*
X11282253Y-18501960D01*
X11282253Y-18501960D02*
X11301301Y-18511484D01*
X11301301Y-18511484D02*
X11339396Y-18511484D01*
X11339396Y-18511484D02*
X11358444Y-18501960D01*
X11358444Y-18501960D02*
X11367967Y-18492436D01*
X11367967Y-18492436D02*
X11377491Y-18473389D01*
X11377491Y-18473389D02*
X11377491Y-18435293D01*
X11377491Y-18435293D02*
X11367967Y-18416246D01*
X11367967Y-18416246D02*
X11358444Y-18406722D01*
X11358444Y-18406722D02*
X11339396Y-18397198D01*
X11453682Y-18330531D02*
X11463206Y-18321008D01*
X11463206Y-18321008D02*
X11482253Y-18311484D01*
X11482253Y-18311484D02*
X11529872Y-18311484D01*
X11529872Y-18311484D02*
X11548920Y-18321008D01*
X11548920Y-18321008D02*
X11558444Y-18330531D01*
X11558444Y-18330531D02*
X11567967Y-18349579D01*
X11567967Y-18349579D02*
X11567967Y-18368627D01*
X11567967Y-18368627D02*
X11558444Y-18397198D01*
X11558444Y-18397198D02*
X11444158Y-18511484D01*
X11444158Y-18511484D02*
X11567967Y-18511484D01*
X11634634Y-18311484D02*
X11767967Y-18311484D01*
X11767967Y-18311484D02*
X11682253Y-18511484D01*
X11834634Y-18311484D02*
X11834634Y-18349579D01*
X11910825Y-18311484D02*
X11910825Y-18349579D01*
X12206063Y-18587674D02*
X12196539Y-18578150D01*
X12196539Y-18578150D02*
X12177491Y-18549579D01*
X12177491Y-18549579D02*
X12167968Y-18530531D01*
X12167968Y-18530531D02*
X12158444Y-18501960D01*
X12158444Y-18501960D02*
X12148920Y-18454341D01*
X12148920Y-18454341D02*
X12148920Y-18416246D01*
X12148920Y-18416246D02*
X12158444Y-18368627D01*
X12158444Y-18368627D02*
X12167968Y-18340055D01*
X12167968Y-18340055D02*
X12177491Y-18321008D01*
X12177491Y-18321008D02*
X12196539Y-18292436D01*
X12196539Y-18292436D02*
X12206063Y-18282912D01*
X12367968Y-18311484D02*
X12329872Y-18311484D01*
X12329872Y-18311484D02*
X12310825Y-18321008D01*
X12310825Y-18321008D02*
X12301301Y-18330531D01*
X12301301Y-18330531D02*
X12282253Y-18359103D01*
X12282253Y-18359103D02*
X12272729Y-18397198D01*
X12272729Y-18397198D02*
X12272729Y-18473389D01*
X12272729Y-18473389D02*
X12282253Y-18492436D01*
X12282253Y-18492436D02*
X12291777Y-18501960D01*
X12291777Y-18501960D02*
X12310825Y-18511484D01*
X12310825Y-18511484D02*
X12348920Y-18511484D01*
X12348920Y-18511484D02*
X12367968Y-18501960D01*
X12367968Y-18501960D02*
X12377491Y-18492436D01*
X12377491Y-18492436D02*
X12387015Y-18473389D01*
X12387015Y-18473389D02*
X12387015Y-18425770D01*
X12387015Y-18425770D02*
X12377491Y-18406722D01*
X12377491Y-18406722D02*
X12367968Y-18397198D01*
X12367968Y-18397198D02*
X12348920Y-18387674D01*
X12348920Y-18387674D02*
X12310825Y-18387674D01*
X12310825Y-18387674D02*
X12291777Y-18397198D01*
X12291777Y-18397198D02*
X12282253Y-18406722D01*
X12282253Y-18406722D02*
X12272729Y-18425770D01*
X12625110Y-18511484D02*
X12625110Y-18311484D01*
X12710825Y-18511484D02*
X12710825Y-18406722D01*
X12710825Y-18406722D02*
X12701301Y-18387674D01*
X12701301Y-18387674D02*
X12682253Y-18378150D01*
X12682253Y-18378150D02*
X12653682Y-18378150D01*
X12653682Y-18378150D02*
X12634634Y-18387674D01*
X12634634Y-18387674D02*
X12625110Y-18397198D01*
X12834634Y-18511484D02*
X12815587Y-18501960D01*
X12815587Y-18501960D02*
X12806063Y-18492436D01*
X12806063Y-18492436D02*
X12796539Y-18473389D01*
X12796539Y-18473389D02*
X12796539Y-18416246D01*
X12796539Y-18416246D02*
X12806063Y-18397198D01*
X12806063Y-18397198D02*
X12815587Y-18387674D01*
X12815587Y-18387674D02*
X12834634Y-18378150D01*
X12834634Y-18378150D02*
X12863206Y-18378150D01*
X12863206Y-18378150D02*
X12882253Y-18387674D01*
X12882253Y-18387674D02*
X12891777Y-18397198D01*
X12891777Y-18397198D02*
X12901301Y-18416246D01*
X12901301Y-18416246D02*
X12901301Y-18473389D01*
X12901301Y-18473389D02*
X12891777Y-18492436D01*
X12891777Y-18492436D02*
X12882253Y-18501960D01*
X12882253Y-18501960D02*
X12863206Y-18511484D01*
X12863206Y-18511484D02*
X12834634Y-18511484D01*
X13015587Y-18511484D02*
X12996539Y-18501960D01*
X12996539Y-18501960D02*
X12987015Y-18482912D01*
X12987015Y-18482912D02*
X12987015Y-18311484D01*
X13167968Y-18501960D02*
X13148920Y-18511484D01*
X13148920Y-18511484D02*
X13110825Y-18511484D01*
X13110825Y-18511484D02*
X13091777Y-18501960D01*
X13091777Y-18501960D02*
X13082253Y-18482912D01*
X13082253Y-18482912D02*
X13082253Y-18406722D01*
X13082253Y-18406722D02*
X13091777Y-18387674D01*
X13091777Y-18387674D02*
X13110825Y-18378150D01*
X13110825Y-18378150D02*
X13148920Y-18378150D01*
X13148920Y-18378150D02*
X13167968Y-18387674D01*
X13167968Y-18387674D02*
X13177491Y-18406722D01*
X13177491Y-18406722D02*
X13177491Y-18425770D01*
X13177491Y-18425770D02*
X13082253Y-18444817D01*
X13253682Y-18501960D02*
X13272730Y-18511484D01*
X13272730Y-18511484D02*
X13310825Y-18511484D01*
X13310825Y-18511484D02*
X13329872Y-18501960D01*
X13329872Y-18501960D02*
X13339396Y-18482912D01*
X13339396Y-18482912D02*
X13339396Y-18473389D01*
X13339396Y-18473389D02*
X13329872Y-18454341D01*
X13329872Y-18454341D02*
X13310825Y-18444817D01*
X13310825Y-18444817D02*
X13282253Y-18444817D01*
X13282253Y-18444817D02*
X13263206Y-18435293D01*
X13263206Y-18435293D02*
X13253682Y-18416246D01*
X13253682Y-18416246D02*
X13253682Y-18406722D01*
X13253682Y-18406722D02*
X13263206Y-18387674D01*
X13263206Y-18387674D02*
X13282253Y-18378150D01*
X13282253Y-18378150D02*
X13310825Y-18378150D01*
X13310825Y-18378150D02*
X13329872Y-18387674D01*
X13406063Y-18587674D02*
X13415587Y-18578150D01*
X13415587Y-18578150D02*
X13434634Y-18549579D01*
X13434634Y-18549579D02*
X13444158Y-18530531D01*
X13444158Y-18530531D02*
X13453682Y-18501960D01*
X13453682Y-18501960D02*
X13463206Y-18454341D01*
X13463206Y-18454341D02*
X13463206Y-18416246D01*
X13463206Y-18416246D02*
X13453682Y-18368627D01*
X13453682Y-18368627D02*
X13444158Y-18340055D01*
X13444158Y-18340055D02*
X13434634Y-18321008D01*
X13434634Y-18321008D02*
X13415587Y-18292436D01*
X13415587Y-18292436D02*
X13406063Y-18282912D01*
X8531000Y-18640000D02*
X8531000Y-18840000D01*
X8431000Y-18740000D02*
X8631000Y-18740000D01*
X8631000Y-18740000D02*
G75*
G03*
X8431000Y-18740000I-100000J0D01*
G01*
X8431000Y-18740000D02*
G75*
G03*
X8631000Y-18740000I100000J0D01*
G01*
X8977491Y-18698150D02*
X8977491Y-18831484D01*
X8929872Y-18621960D02*
X8882253Y-18764817D01*
X8882253Y-18764817D02*
X9006063Y-18764817D01*
X9082253Y-18812436D02*
X9091777Y-18821960D01*
X9091777Y-18821960D02*
X9082253Y-18831484D01*
X9082253Y-18831484D02*
X9072729Y-18821960D01*
X9072729Y-18821960D02*
X9082253Y-18812436D01*
X9082253Y-18812436D02*
X9082253Y-18831484D01*
X9158444Y-18631484D02*
X9282253Y-18631484D01*
X9282253Y-18631484D02*
X9215586Y-18707674D01*
X9215586Y-18707674D02*
X9244158Y-18707674D01*
X9244158Y-18707674D02*
X9263205Y-18717198D01*
X9263205Y-18717198D02*
X9272729Y-18726722D01*
X9272729Y-18726722D02*
X9282253Y-18745770D01*
X9282253Y-18745770D02*
X9282253Y-18793389D01*
X9282253Y-18793389D02*
X9272729Y-18812436D01*
X9272729Y-18812436D02*
X9263205Y-18821960D01*
X9263205Y-18821960D02*
X9244158Y-18831484D01*
X9244158Y-18831484D02*
X9187015Y-18831484D01*
X9187015Y-18831484D02*
X9167967Y-18821960D01*
X9167967Y-18821960D02*
X9158444Y-18812436D01*
X9406063Y-18631484D02*
X9425110Y-18631484D01*
X9425110Y-18631484D02*
X9444158Y-18641008D01*
X9444158Y-18641008D02*
X9453682Y-18650531D01*
X9453682Y-18650531D02*
X9463205Y-18669579D01*
X9463205Y-18669579D02*
X9472729Y-18707674D01*
X9472729Y-18707674D02*
X9472729Y-18755293D01*
X9472729Y-18755293D02*
X9463205Y-18793389D01*
X9463205Y-18793389D02*
X9453682Y-18812436D01*
X9453682Y-18812436D02*
X9444158Y-18821960D01*
X9444158Y-18821960D02*
X9425110Y-18831484D01*
X9425110Y-18831484D02*
X9406063Y-18831484D01*
X9406063Y-18831484D02*
X9387015Y-18821960D01*
X9387015Y-18821960D02*
X9377491Y-18812436D01*
X9377491Y-18812436D02*
X9367967Y-18793389D01*
X9367967Y-18793389D02*
X9358444Y-18755293D01*
X9358444Y-18755293D02*
X9358444Y-18707674D01*
X9358444Y-18707674D02*
X9367967Y-18669579D01*
X9367967Y-18669579D02*
X9377491Y-18650531D01*
X9377491Y-18650531D02*
X9387015Y-18641008D01*
X9387015Y-18641008D02*
X9406063Y-18631484D01*
X9596539Y-18631484D02*
X9615586Y-18631484D01*
X9615586Y-18631484D02*
X9634634Y-18641008D01*
X9634634Y-18641008D02*
X9644158Y-18650531D01*
X9644158Y-18650531D02*
X9653682Y-18669579D01*
X9653682Y-18669579D02*
X9663205Y-18707674D01*
X9663205Y-18707674D02*
X9663205Y-18755293D01*
X9663205Y-18755293D02*
X9653682Y-18793389D01*
X9653682Y-18793389D02*
X9644158Y-18812436D01*
X9644158Y-18812436D02*
X9634634Y-18821960D01*
X9634634Y-18821960D02*
X9615586Y-18831484D01*
X9615586Y-18831484D02*
X9596539Y-18831484D01*
X9596539Y-18831484D02*
X9577491Y-18821960D01*
X9577491Y-18821960D02*
X9567967Y-18812436D01*
X9567967Y-18812436D02*
X9558444Y-18793389D01*
X9558444Y-18793389D02*
X9548920Y-18755293D01*
X9548920Y-18755293D02*
X9548920Y-18707674D01*
X9548920Y-18707674D02*
X9558444Y-18669579D01*
X9558444Y-18669579D02*
X9567967Y-18650531D01*
X9567967Y-18650531D02*
X9577491Y-18641008D01*
X9577491Y-18641008D02*
X9596539Y-18631484D01*
X9748920Y-18831484D02*
X9748920Y-18698150D01*
X9748920Y-18717198D02*
X9758444Y-18707674D01*
X9758444Y-18707674D02*
X9777491Y-18698150D01*
X9777491Y-18698150D02*
X9806063Y-18698150D01*
X9806063Y-18698150D02*
X9825110Y-18707674D01*
X9825110Y-18707674D02*
X9834634Y-18726722D01*
X9834634Y-18726722D02*
X9834634Y-18831484D01*
X9834634Y-18726722D02*
X9844158Y-18707674D01*
X9844158Y-18707674D02*
X9863205Y-18698150D01*
X9863205Y-18698150D02*
X9891777Y-18698150D01*
X9891777Y-18698150D02*
X9910825Y-18707674D01*
X9910825Y-18707674D02*
X9920348Y-18726722D01*
X9920348Y-18726722D02*
X9920348Y-18831484D01*
X10015586Y-18831484D02*
X10015586Y-18698150D01*
X10015586Y-18717198D02*
X10025110Y-18707674D01*
X10025110Y-18707674D02*
X10044158Y-18698150D01*
X10044158Y-18698150D02*
X10072729Y-18698150D01*
X10072729Y-18698150D02*
X10091777Y-18707674D01*
X10091777Y-18707674D02*
X10101301Y-18726722D01*
X10101301Y-18726722D02*
X10101301Y-18831484D01*
X10101301Y-18726722D02*
X10110825Y-18707674D01*
X10110825Y-18707674D02*
X10129872Y-18698150D01*
X10129872Y-18698150D02*
X10158444Y-18698150D01*
X10158444Y-18698150D02*
X10177491Y-18707674D01*
X10177491Y-18707674D02*
X10187015Y-18726722D01*
X10187015Y-18726722D02*
X10187015Y-18831484D01*
X10577491Y-18621960D02*
X10406063Y-18879103D01*
X10834634Y-18631484D02*
X10853682Y-18631484D01*
X10853682Y-18631484D02*
X10872729Y-18641008D01*
X10872729Y-18641008D02*
X10882253Y-18650531D01*
X10882253Y-18650531D02*
X10891777Y-18669579D01*
X10891777Y-18669579D02*
X10901301Y-18707674D01*
X10901301Y-18707674D02*
X10901301Y-18755293D01*
X10901301Y-18755293D02*
X10891777Y-18793389D01*
X10891777Y-18793389D02*
X10882253Y-18812436D01*
X10882253Y-18812436D02*
X10872729Y-18821960D01*
X10872729Y-18821960D02*
X10853682Y-18831484D01*
X10853682Y-18831484D02*
X10834634Y-18831484D01*
X10834634Y-18831484D02*
X10815587Y-18821960D01*
X10815587Y-18821960D02*
X10806063Y-18812436D01*
X10806063Y-18812436D02*
X10796539Y-18793389D01*
X10796539Y-18793389D02*
X10787015Y-18755293D01*
X10787015Y-18755293D02*
X10787015Y-18707674D01*
X10787015Y-18707674D02*
X10796539Y-18669579D01*
X10796539Y-18669579D02*
X10806063Y-18650531D01*
X10806063Y-18650531D02*
X10815587Y-18641008D01*
X10815587Y-18641008D02*
X10834634Y-18631484D01*
X10987015Y-18812436D02*
X10996539Y-18821960D01*
X10996539Y-18821960D02*
X10987015Y-18831484D01*
X10987015Y-18831484D02*
X10977491Y-18821960D01*
X10977491Y-18821960D02*
X10987015Y-18812436D01*
X10987015Y-18812436D02*
X10987015Y-18831484D01*
X11187015Y-18831484D02*
X11072729Y-18831484D01*
X11129872Y-18831484D02*
X11129872Y-18631484D01*
X11129872Y-18631484D02*
X11110825Y-18660055D01*
X11110825Y-18660055D02*
X11091777Y-18679103D01*
X11091777Y-18679103D02*
X11072729Y-18688627D01*
X11358444Y-18631484D02*
X11320348Y-18631484D01*
X11320348Y-18631484D02*
X11301301Y-18641008D01*
X11301301Y-18641008D02*
X11291777Y-18650531D01*
X11291777Y-18650531D02*
X11272729Y-18679103D01*
X11272729Y-18679103D02*
X11263206Y-18717198D01*
X11263206Y-18717198D02*
X11263206Y-18793389D01*
X11263206Y-18793389D02*
X11272729Y-18812436D01*
X11272729Y-18812436D02*
X11282253Y-18821960D01*
X11282253Y-18821960D02*
X11301301Y-18831484D01*
X11301301Y-18831484D02*
X11339396Y-18831484D01*
X11339396Y-18831484D02*
X11358444Y-18821960D01*
X11358444Y-18821960D02*
X11367967Y-18812436D01*
X11367967Y-18812436D02*
X11377491Y-18793389D01*
X11377491Y-18793389D02*
X11377491Y-18745770D01*
X11377491Y-18745770D02*
X11367967Y-18726722D01*
X11367967Y-18726722D02*
X11358444Y-18717198D01*
X11358444Y-18717198D02*
X11339396Y-18707674D01*
X11339396Y-18707674D02*
X11301301Y-18707674D01*
X11301301Y-18707674D02*
X11282253Y-18717198D01*
X11282253Y-18717198D02*
X11272729Y-18726722D01*
X11272729Y-18726722D02*
X11263206Y-18745770D01*
X11472729Y-18831484D02*
X11510825Y-18831484D01*
X11510825Y-18831484D02*
X11529872Y-18821960D01*
X11529872Y-18821960D02*
X11539396Y-18812436D01*
X11539396Y-18812436D02*
X11558444Y-18783865D01*
X11558444Y-18783865D02*
X11567967Y-18745770D01*
X11567967Y-18745770D02*
X11567967Y-18669579D01*
X11567967Y-18669579D02*
X11558444Y-18650531D01*
X11558444Y-18650531D02*
X11548920Y-18641008D01*
X11548920Y-18641008D02*
X11529872Y-18631484D01*
X11529872Y-18631484D02*
X11491777Y-18631484D01*
X11491777Y-18631484D02*
X11472729Y-18641008D01*
X11472729Y-18641008D02*
X11463206Y-18650531D01*
X11463206Y-18650531D02*
X11453682Y-18669579D01*
X11453682Y-18669579D02*
X11453682Y-18717198D01*
X11453682Y-18717198D02*
X11463206Y-18736246D01*
X11463206Y-18736246D02*
X11472729Y-18745770D01*
X11472729Y-18745770D02*
X11491777Y-18755293D01*
X11491777Y-18755293D02*
X11529872Y-18755293D01*
X11529872Y-18755293D02*
X11548920Y-18745770D01*
X11548920Y-18745770D02*
X11558444Y-18736246D01*
X11558444Y-18736246D02*
X11567967Y-18717198D01*
X11634634Y-18631484D02*
X11758444Y-18631484D01*
X11758444Y-18631484D02*
X11691777Y-18707674D01*
X11691777Y-18707674D02*
X11720348Y-18707674D01*
X11720348Y-18707674D02*
X11739396Y-18717198D01*
X11739396Y-18717198D02*
X11748920Y-18726722D01*
X11748920Y-18726722D02*
X11758444Y-18745770D01*
X11758444Y-18745770D02*
X11758444Y-18793389D01*
X11758444Y-18793389D02*
X11748920Y-18812436D01*
X11748920Y-18812436D02*
X11739396Y-18821960D01*
X11739396Y-18821960D02*
X11720348Y-18831484D01*
X11720348Y-18831484D02*
X11663206Y-18831484D01*
X11663206Y-18831484D02*
X11644158Y-18821960D01*
X11644158Y-18821960D02*
X11634634Y-18812436D01*
X11834634Y-18631484D02*
X11834634Y-18669579D01*
X11910825Y-18631484D02*
X11910825Y-18669579D01*
X12206063Y-18907674D02*
X12196539Y-18898150D01*
X12196539Y-18898150D02*
X12177491Y-18869579D01*
X12177491Y-18869579D02*
X12167968Y-18850531D01*
X12167968Y-18850531D02*
X12158444Y-18821960D01*
X12158444Y-18821960D02*
X12148920Y-18774341D01*
X12148920Y-18774341D02*
X12148920Y-18736246D01*
X12148920Y-18736246D02*
X12158444Y-18688627D01*
X12158444Y-18688627D02*
X12167968Y-18660055D01*
X12167968Y-18660055D02*
X12177491Y-18641008D01*
X12177491Y-18641008D02*
X12196539Y-18612436D01*
X12196539Y-18612436D02*
X12206063Y-18602912D01*
X12367968Y-18698150D02*
X12367968Y-18831484D01*
X12320348Y-18621960D02*
X12272729Y-18764817D01*
X12272729Y-18764817D02*
X12396539Y-18764817D01*
X12625110Y-18831484D02*
X12625110Y-18631484D01*
X12710825Y-18831484D02*
X12710825Y-18726722D01*
X12710825Y-18726722D02*
X12701301Y-18707674D01*
X12701301Y-18707674D02*
X12682253Y-18698150D01*
X12682253Y-18698150D02*
X12653682Y-18698150D01*
X12653682Y-18698150D02*
X12634634Y-18707674D01*
X12634634Y-18707674D02*
X12625110Y-18717198D01*
X12834634Y-18831484D02*
X12815587Y-18821960D01*
X12815587Y-18821960D02*
X12806063Y-18812436D01*
X12806063Y-18812436D02*
X12796539Y-18793389D01*
X12796539Y-18793389D02*
X12796539Y-18736246D01*
X12796539Y-18736246D02*
X12806063Y-18717198D01*
X12806063Y-18717198D02*
X12815587Y-18707674D01*
X12815587Y-18707674D02*
X12834634Y-18698150D01*
X12834634Y-18698150D02*
X12863206Y-18698150D01*
X12863206Y-18698150D02*
X12882253Y-18707674D01*
X12882253Y-18707674D02*
X12891777Y-18717198D01*
X12891777Y-18717198D02*
X12901301Y-18736246D01*
X12901301Y-18736246D02*
X12901301Y-18793389D01*
X12901301Y-18793389D02*
X12891777Y-18812436D01*
X12891777Y-18812436D02*
X12882253Y-18821960D01*
X12882253Y-18821960D02*
X12863206Y-18831484D01*
X12863206Y-18831484D02*
X12834634Y-18831484D01*
X13015587Y-18831484D02*
X12996539Y-18821960D01*
X12996539Y-18821960D02*
X12987015Y-18802912D01*
X12987015Y-18802912D02*
X12987015Y-18631484D01*
X13167968Y-18821960D02*
X13148920Y-18831484D01*
X13148920Y-18831484D02*
X13110825Y-18831484D01*
X13110825Y-18831484D02*
X13091777Y-18821960D01*
X13091777Y-18821960D02*
X13082253Y-18802912D01*
X13082253Y-18802912D02*
X13082253Y-18726722D01*
X13082253Y-18726722D02*
X13091777Y-18707674D01*
X13091777Y-18707674D02*
X13110825Y-18698150D01*
X13110825Y-18698150D02*
X13148920Y-18698150D01*
X13148920Y-18698150D02*
X13167968Y-18707674D01*
X13167968Y-18707674D02*
X13177491Y-18726722D01*
X13177491Y-18726722D02*
X13177491Y-18745770D01*
X13177491Y-18745770D02*
X13082253Y-18764817D01*
X13253682Y-18821960D02*
X13272730Y-18831484D01*
X13272730Y-18831484D02*
X13310825Y-18831484D01*
X13310825Y-18831484D02*
X13329872Y-18821960D01*
X13329872Y-18821960D02*
X13339396Y-18802912D01*
X13339396Y-18802912D02*
X13339396Y-18793389D01*
X13339396Y-18793389D02*
X13329872Y-18774341D01*
X13329872Y-18774341D02*
X13310825Y-18764817D01*
X13310825Y-18764817D02*
X13282253Y-18764817D01*
X13282253Y-18764817D02*
X13263206Y-18755293D01*
X13263206Y-18755293D02*
X13253682Y-18736246D01*
X13253682Y-18736246D02*
X13253682Y-18726722D01*
X13253682Y-18726722D02*
X13263206Y-18707674D01*
X13263206Y-18707674D02*
X13282253Y-18698150D01*
X13282253Y-18698150D02*
X13310825Y-18698150D01*
X13310825Y-18698150D02*
X13329872Y-18707674D01*
X13406063Y-18907674D02*
X13415587Y-18898150D01*
X13415587Y-18898150D02*
X13434634Y-18869579D01*
X13434634Y-18869579D02*
X13444158Y-18850531D01*
X13444158Y-18850531D02*
X13453682Y-18821960D01*
X13453682Y-18821960D02*
X13463206Y-18774341D01*
X13463206Y-18774341D02*
X13463206Y-18736246D01*
X13463206Y-18736246D02*
X13453682Y-18688627D01*
X13453682Y-18688627D02*
X13444158Y-18660055D01*
X13444158Y-18660055D02*
X13434634Y-18641008D01*
X13434634Y-18641008D02*
X13415587Y-18612436D01*
X13415587Y-18612436D02*
X13406063Y-18602912D01*
M02*
