%TF.GenerationSoftware,KiCad,Pcbnew,7.0.10*%
%TF.CreationDate,2024-07-26T19:37:07-06:00*%
%TF.ProjectId,Pressure-Controlled-Power-Outlet-control-PCB,50726573-7375-4726-952d-436f6e74726f,V1.5.25*%
%TF.SameCoordinates,Original*%
%TF.FileFunction,Copper,L4,Bot*%
%TF.FilePolarity,Positive*%
%FSLAX46Y46*%
G04 Gerber Fmt 4.6, Leading zero omitted, Abs format (unit mm)*
G04 Created by KiCad (PCBNEW 7.0.10) date 2024-07-26 19:37:07*
%MOMM*%
%LPD*%
G01*
G04 APERTURE LIST*
G04 Aperture macros list*
%AMRoundRect*
0 Rectangle with rounded corners*
0 $1 Rounding radius*
0 $2 $3 $4 $5 $6 $7 $8 $9 X,Y pos of 4 corners*
0 Add a 4 corners polygon primitive as box body*
4,1,4,$2,$3,$4,$5,$6,$7,$8,$9,$2,$3,0*
0 Add four circle primitives for the rounded corners*
1,1,$1+$1,$2,$3*
1,1,$1+$1,$4,$5*
1,1,$1+$1,$6,$7*
1,1,$1+$1,$8,$9*
0 Add four rect primitives between the rounded corners*
20,1,$1+$1,$2,$3,$4,$5,0*
20,1,$1+$1,$4,$5,$6,$7,0*
20,1,$1+$1,$6,$7,$8,$9,0*
20,1,$1+$1,$8,$9,$2,$3,0*%
G04 Aperture macros list end*
%TA.AperFunction,ComponentPad*%
%ADD10R,1.500000X1.050000*%
%TD*%
%TA.AperFunction,ComponentPad*%
%ADD11O,1.500000X1.050000*%
%TD*%
%TA.AperFunction,ComponentPad*%
%ADD12R,1.905000X2.000000*%
%TD*%
%TA.AperFunction,ComponentPad*%
%ADD13O,1.905000X2.000000*%
%TD*%
%TA.AperFunction,ComponentPad*%
%ADD14C,1.600000*%
%TD*%
%TA.AperFunction,ComponentPad*%
%ADD15O,1.600000X1.600000*%
%TD*%
%TA.AperFunction,ComponentPad*%
%ADD16R,1.700000X1.700000*%
%TD*%
%TA.AperFunction,ComponentPad*%
%ADD17O,1.700000X1.700000*%
%TD*%
%TA.AperFunction,ComponentPad*%
%ADD18R,2.030000X1.730000*%
%TD*%
%TA.AperFunction,ComponentPad*%
%ADD19O,2.030000X1.730000*%
%TD*%
%TA.AperFunction,ComponentPad*%
%ADD20R,2.400000X1.600000*%
%TD*%
%TA.AperFunction,ComponentPad*%
%ADD21O,2.400000X1.600000*%
%TD*%
%TA.AperFunction,ComponentPad*%
%ADD22R,2.200000X2.200000*%
%TD*%
%TA.AperFunction,ComponentPad*%
%ADD23O,2.200000X2.200000*%
%TD*%
%TA.AperFunction,ComponentPad*%
%ADD24R,2.000000X1.905000*%
%TD*%
%TA.AperFunction,ComponentPad*%
%ADD25O,2.000000X1.905000*%
%TD*%
%TA.AperFunction,ComponentPad*%
%ADD26C,5.700000*%
%TD*%
%TA.AperFunction,ComponentPad*%
%ADD27R,1.050000X1.500000*%
%TD*%
%TA.AperFunction,ComponentPad*%
%ADD28O,1.050000X1.500000*%
%TD*%
%TA.AperFunction,ComponentPad*%
%ADD29RoundRect,0.250000X-0.750000X0.600000X-0.750000X-0.600000X0.750000X-0.600000X0.750000X0.600000X0*%
%TD*%
%TA.AperFunction,ComponentPad*%
%ADD30O,2.000000X1.700000*%
%TD*%
%TA.AperFunction,ComponentPad*%
%ADD31R,2.000000X2.000000*%
%TD*%
%TA.AperFunction,ComponentPad*%
%ADD32C,2.000000*%
%TD*%
%TA.AperFunction,ComponentPad*%
%ADD33R,3.150000X3.150000*%
%TD*%
%TA.AperFunction,ComponentPad*%
%ADD34C,3.150000*%
%TD*%
%TA.AperFunction,ComponentPad*%
%ADD35C,1.650000*%
%TD*%
%TA.AperFunction,ComponentPad*%
%ADD36R,3.200000X3.200000*%
%TD*%
%TA.AperFunction,ComponentPad*%
%ADD37O,3.200000X3.200000*%
%TD*%
%TA.AperFunction,ComponentPad*%
%ADD38C,2.550000*%
%TD*%
%TA.AperFunction,ViaPad*%
%ADD39C,0.800000*%
%TD*%
%TA.AperFunction,Conductor*%
%ADD40C,0.250000*%
%TD*%
%TA.AperFunction,Conductor*%
%ADD41C,2.500000*%
%TD*%
G04 APERTURE END LIST*
D10*
%TO.P,Q8,1,E*%
%TO.N,/FanB_Tac*%
X145140000Y-142240000D03*
D11*
%TO.P,Q8,2,B*%
%TO.N,Net-(Q8-B)*%
X145140000Y-140970000D03*
%TO.P,Q8,3,C*%
%TO.N,+3.3V*%
X145140000Y-139700000D03*
%TD*%
D12*
%TO.P,U3,1,VI*%
%TO.N,+24V*%
X138430000Y-108910000D03*
D13*
%TO.P,U3,2,GND*%
%TO.N,GND*%
X135890000Y-108910000D03*
%TO.P,U3,3,VO*%
%TO.N,+5V*%
X133350000Y-108910000D03*
%TD*%
D14*
%TO.P,R1,1*%
%TO.N,Net-(U2A-+)*%
X112620000Y-102235000D03*
D15*
%TO.P,R1,2*%
%TO.N,/Water Pressure 5V*%
X115160000Y-102235000D03*
%TD*%
D16*
%TO.P,J5,1,Pin_1*%
%TO.N,+12V*%
X125730000Y-134620000D03*
D17*
%TO.P,J5,2,Pin_2*%
%TO.N,/FanA_Power*%
X125730000Y-132080000D03*
%TO.P,J5,3,Pin_3*%
%TO.N,+5V*%
X125730000Y-129540000D03*
%TD*%
D14*
%TO.P,R3,1*%
%TO.N,Net-(U1-AGND)*%
X126590000Y-88265000D03*
D15*
%TO.P,R3,2*%
%TO.N,GND*%
X129130000Y-88265000D03*
%TD*%
D18*
%TO.P,M1,1,-*%
%TO.N,GND*%
X99695000Y-129540000D03*
D19*
%TO.P,M1,2,+*%
%TO.N,/FanA_Power*%
X99695000Y-127000000D03*
%TO.P,M1,3,Tacho*%
%TO.N,Net-(M1-Tacho)*%
X99695000Y-124460000D03*
%TO.P,M1,4,PWM*%
%TO.N,Net-(M1-PWM)*%
X99695000Y-121920000D03*
%TD*%
D14*
%TO.P,R11,1*%
%TO.N,/FanB_PWM*%
X150085000Y-127000000D03*
D15*
%TO.P,R11,2*%
%TO.N,Net-(Q6-B)*%
X152625000Y-127000000D03*
%TD*%
D20*
%TO.P,U2,1*%
%TO.N,/ADC0*%
X118730000Y-101595000D03*
D21*
%TO.P,U2,2,-*%
X118730000Y-104135000D03*
%TO.P,U2,3,+*%
%TO.N,Net-(U2A-+)*%
X118730000Y-106675000D03*
%TO.P,U2,4,V+*%
%TO.N,+5V*%
X118730000Y-109215000D03*
%TO.P,U2,5*%
%TO.N,N/C*%
X118730000Y-111755000D03*
%TO.P,U2,6*%
X118730000Y-114295000D03*
%TO.P,U2,7*%
X118730000Y-116835000D03*
%TO.P,U2,8*%
X126350000Y-116835000D03*
%TO.P,U2,9*%
X126350000Y-114295000D03*
%TO.P,U2,10*%
X126350000Y-111755000D03*
%TO.P,U2,11,V-*%
%TO.N,GND*%
X126350000Y-109215000D03*
%TO.P,U2,12*%
%TO.N,N/C*%
X126350000Y-106675000D03*
%TO.P,U2,13*%
X126350000Y-104135000D03*
%TO.P,U2,14*%
X126350000Y-101595000D03*
%TD*%
D14*
%TO.P,R7,1*%
%TO.N,GND*%
X151765000Y-97155000D03*
D15*
%TO.P,R7,2*%
%TO.N,Net-(Q4-E)*%
X149225000Y-97155000D03*
%TD*%
D22*
%TO.P,D4,1,K*%
%TO.N,+12V*%
X160655000Y-136525000D03*
D23*
%TO.P,D4,2,A*%
%TO.N,GND*%
X160655000Y-126365000D03*
%TD*%
D16*
%TO.P,J4,1,Pin_1*%
%TO.N,+5V*%
X189865000Y-99060000D03*
D17*
%TO.P,J4,2,Pin_2*%
%TO.N,+3.3V*%
X189865000Y-101600000D03*
%TO.P,J4,3,Pin_3*%
%TO.N,/SPI1_RX*%
X189865000Y-104140000D03*
%TO.P,J4,4,Pin_4*%
%TO.N,/SPI1_TX*%
X189865000Y-106680000D03*
%TO.P,J4,5,Pin_5*%
%TO.N,/SPI1_CSn*%
X189865000Y-109220000D03*
%TO.P,J4,6,Pin_6*%
%TO.N,GND*%
X189865000Y-111760000D03*
%TD*%
D14*
%TO.P,C7,1*%
%TO.N,+5V*%
X101600000Y-104735000D03*
%TO.P,C7,2*%
%TO.N,GND*%
X101600000Y-99735000D03*
%TD*%
%TO.P,R8,1*%
%TO.N,/Activate_Live*%
X129765000Y-93345000D03*
D15*
%TO.P,R8,2*%
%TO.N,Net-(Q4-B)*%
X132305000Y-93345000D03*
%TD*%
D24*
%TO.P,U4,1,GND*%
%TO.N,GND*%
X160965000Y-118745000D03*
D25*
%TO.P,U4,2,VO*%
%TO.N,+12V*%
X160965000Y-116205000D03*
%TO.P,U4,3,VI*%
%TO.N,+24V*%
X160965000Y-113665000D03*
%TD*%
D26*
%TO.P,H1,1,1*%
%TO.N,GND*%
X95250000Y-46355000D03*
%TD*%
D14*
%TO.P,C6,1*%
%TO.N,+3.3V*%
X185420000Y-125810000D03*
%TO.P,C6,2*%
%TO.N,GND*%
X185420000Y-130810000D03*
%TD*%
D17*
%TO.P,U1,1,GPIO0*%
%TO.N,unconnected-(U1-GPIO0-Pad1)*%
X101080000Y-47625000D03*
%TO.P,U1,2,GPIO1*%
%TO.N,unconnected-(U1-GPIO1-Pad2)*%
X101080000Y-50165000D03*
D16*
%TO.P,U1,3,GND*%
%TO.N,GND*%
X101080000Y-52705000D03*
D17*
%TO.P,U1,4,GPIO2*%
%TO.N,unconnected-(U1-GPIO2-Pad4)*%
X101080000Y-55245000D03*
%TO.P,U1,5,GPIO3*%
%TO.N,unconnected-(U1-GPIO3-Pad5)*%
X101080000Y-57785000D03*
%TO.P,U1,6,GPIO4*%
%TO.N,/I2C0_SDA*%
X101080000Y-60325000D03*
%TO.P,U1,7,GPIO5*%
%TO.N,/I2C0_SCL*%
X101080000Y-62865000D03*
D16*
%TO.P,U1,8,GND*%
%TO.N,GND*%
X101080000Y-65405000D03*
D17*
%TO.P,U1,9,GPIO6*%
%TO.N,unconnected-(U1-GPIO6-Pad9)*%
X101080000Y-67945000D03*
%TO.P,U1,10,GPIO7*%
%TO.N,unconnected-(U1-GPIO7-Pad10)*%
X101080000Y-70485000D03*
%TO.P,U1,11,GPIO8*%
%TO.N,/SPI1_RX*%
X101080000Y-73025000D03*
%TO.P,U1,12,GPIO9*%
%TO.N,/SPI1_CSn*%
X101080000Y-75565000D03*
D16*
%TO.P,U1,13,GND*%
%TO.N,GND*%
X101080000Y-78105000D03*
D17*
%TO.P,U1,14,GPIO10*%
%TO.N,/SPI1_TX*%
X101080000Y-80645000D03*
%TO.P,U1,15,GPIO11*%
%TO.N,unconnected-(U1-GPIO11-Pad15)*%
X101080000Y-83185000D03*
%TO.P,U1,16,GPIO12*%
%TO.N,/FanA_PWM*%
X101080000Y-85725000D03*
%TO.P,U1,17,GPIO13*%
%TO.N,/FanA_Tac*%
X101080000Y-88265000D03*
D16*
%TO.P,U1,18,GND*%
%TO.N,GND*%
X101080000Y-90805000D03*
D17*
%TO.P,U1,19,GPIO14*%
%TO.N,/FanB_PWM*%
X101080000Y-93345000D03*
%TO.P,U1,20,GPIO15*%
%TO.N,/FanB_Tac*%
X101080000Y-95885000D03*
%TO.P,U1,21,GPIO16*%
%TO.N,unconnected-(U1-GPIO16-Pad21)*%
X118860000Y-95885000D03*
%TO.P,U1,22,GPIO17*%
%TO.N,unconnected-(U1-GPIO17-Pad22)*%
X118860000Y-93345000D03*
D16*
%TO.P,U1,23,GND*%
%TO.N,GND*%
X118860000Y-90805000D03*
D17*
%TO.P,U1,24,GPIO18*%
%TO.N,/Activate_Neutral*%
X118860000Y-88265000D03*
%TO.P,U1,25,GPIO19*%
%TO.N,/Activate_Live*%
X118860000Y-85725000D03*
%TO.P,U1,26,GPIO20*%
%TO.N,unconnected-(U1-GPIO20-Pad26)*%
X118860000Y-83185000D03*
%TO.P,U1,27,GPIO21*%
%TO.N,unconnected-(U1-GPIO21-Pad27)*%
X118860000Y-80645000D03*
D16*
%TO.P,U1,28,GND*%
%TO.N,GND*%
X118860000Y-78105000D03*
D17*
%TO.P,U1,29,GPIO22*%
%TO.N,unconnected-(U1-GPIO22-Pad29)*%
X118860000Y-75565000D03*
%TO.P,U1,30,RUN*%
%TO.N,unconnected-(U1-RUN-Pad30)*%
X118860000Y-73025000D03*
%TO.P,U1,31,GPIO26_ADC0*%
%TO.N,/ADC0*%
X118860000Y-70485000D03*
%TO.P,U1,32,GPIO27_ADC1*%
%TO.N,unconnected-(U1-GPIO27_ADC1-Pad32)*%
X118860000Y-67945000D03*
D16*
%TO.P,U1,33,AGND*%
%TO.N,Net-(U1-AGND)*%
X118860000Y-65405000D03*
D17*
%TO.P,U1,34,GPIO28_ADC2*%
%TO.N,unconnected-(U1-GPIO28_ADC2-Pad34)*%
X118860000Y-62865000D03*
%TO.P,U1,35,ADC_VREF*%
%TO.N,unconnected-(U1-ADC_VREF-Pad35)*%
X118860000Y-60325000D03*
%TO.P,U1,36,3V3*%
%TO.N,+3.3V*%
X118860000Y-57785000D03*
%TO.P,U1,37,3V3_EN*%
%TO.N,unconnected-(U1-3V3_EN-Pad37)*%
X118860000Y-55245000D03*
D16*
%TO.P,U1,38,GND*%
%TO.N,GND*%
X118860000Y-52705000D03*
D17*
%TO.P,U1,39,VSYS*%
%TO.N,unconnected-(U1-VSYS-Pad39)*%
X118860000Y-50165000D03*
%TO.P,U1,40,VBUS*%
%TO.N,+5V*%
X118860000Y-47625000D03*
%TO.P,U1,41,SWCLK*%
%TO.N,unconnected-(U1-SWCLK-Pad41)*%
X107430000Y-95655000D03*
D16*
%TO.P,U1,42,GND*%
%TO.N,GND*%
X109970000Y-95655000D03*
D17*
%TO.P,U1,43,SWDIO*%
%TO.N,unconnected-(U1-SWDIO-Pad43)*%
X112510000Y-95655000D03*
%TD*%
D10*
%TO.P,Q4,1,E*%
%TO.N,Net-(Q4-E)*%
X139065000Y-97155000D03*
D11*
%TO.P,Q4,2,B*%
%TO.N,Net-(Q4-B)*%
X139065000Y-95885000D03*
%TO.P,Q4,3,C*%
%TO.N,+5V*%
X139065000Y-94615000D03*
%TD*%
D14*
%TO.P,R10,1*%
%TO.N,/FanA_PWM*%
X111760000Y-111760000D03*
D15*
%TO.P,R10,2*%
%TO.N,Net-(Q5-B)*%
X111760000Y-114300000D03*
%TD*%
D27*
%TO.P,Q5,1,E*%
%TO.N,Net-(M1-PWM)*%
X113030000Y-121285000D03*
D28*
%TO.P,Q5,2,B*%
%TO.N,Net-(Q5-B)*%
X114300000Y-121285000D03*
%TO.P,Q5,3,C*%
%TO.N,+5V*%
X115570000Y-121285000D03*
%TD*%
D16*
%TO.P,J3,1,Pin_1*%
%TO.N,+5V*%
X189865000Y-118110000D03*
D17*
%TO.P,J3,2,Pin_2*%
%TO.N,+3.3V*%
X189865000Y-120650000D03*
%TO.P,J3,3,Pin_3*%
%TO.N,/I2C0_SDA*%
X189865000Y-123190000D03*
%TO.P,J3,4,Pin_4*%
%TO.N,/I2C0_SCL*%
X189865000Y-125730000D03*
%TO.P,J3,5,Pin_5*%
%TO.N,GND*%
X189865000Y-128270000D03*
%TD*%
D29*
%TO.P,J7,1,Pin_1*%
%TO.N,+5V*%
X99060000Y-114340000D03*
D30*
%TO.P,J7,2,Pin_2*%
%TO.N,GND*%
X99060000Y-116840000D03*
%TD*%
D16*
%TO.P,J1,1,Pin_1*%
%TO.N,/Water Pressure 5V*%
X97790000Y-105395000D03*
D17*
%TO.P,J1,2,Pin_2*%
%TO.N,+5V*%
X97790000Y-102855000D03*
%TO.P,J1,3,Pin_3*%
%TO.N,GND*%
X97790000Y-100315000D03*
%TD*%
D12*
%TO.P,Q2,1,G*%
%TO.N,Net-(Q2-G)*%
X142875000Y-89535000D03*
D13*
%TO.P,Q2,2,D*%
%TO.N,Net-(D1-A)*%
X145415000Y-89535000D03*
%TO.P,Q2,3,S*%
%TO.N,GND*%
X147955000Y-89535000D03*
%TD*%
D31*
%TO.P,C3,1*%
%TO.N,+24V*%
X144860000Y-107315000D03*
D32*
%TO.P,C3,2*%
%TO.N,GND*%
X149860000Y-107315000D03*
%TD*%
D14*
%TO.P,R13,1*%
%TO.N,GND*%
X135255000Y-124460000D03*
D15*
%TO.P,R13,2*%
%TO.N,/FanA_Tac*%
X132715000Y-124460000D03*
%TD*%
D26*
%TO.P,H2,1,1*%
%TO.N,GND*%
X195580000Y-46355000D03*
%TD*%
%TO.P,H3,1,1*%
%TO.N,GND*%
X95250000Y-146685000D03*
%TD*%
D14*
%TO.P,R9,1*%
%TO.N,/Activate_Neutral*%
X155800000Y-100330000D03*
D15*
%TO.P,R9,2*%
%TO.N,Net-(Q1-B)*%
X158340000Y-100330000D03*
%TD*%
D14*
%TO.P,R4,1*%
%TO.N,Net-(Q4-E)*%
X154940000Y-93120000D03*
D15*
%TO.P,R4,2*%
%TO.N,Net-(Q2-G)*%
X154940000Y-90580000D03*
%TD*%
D33*
%TO.P,K1,1,NC*%
%TO.N,unconnected-(K1-NC-Pad1)*%
X162155000Y-48520000D03*
D34*
%TO.P,K1,2,NO*%
%TO.N,unconnected-(K1-NO-Pad2)*%
X162155000Y-56140000D03*
D35*
%TO.P,K1,3,COIL_1*%
%TO.N,+24V*%
X158345000Y-71380000D03*
%TO.P,K1,4,COIL_2*%
%TO.N,Net-(D1-A)*%
X148185000Y-71380000D03*
D34*
%TO.P,K1,5,COM*%
%TO.N,unconnected-(K1-COM-Pad5)*%
X144375000Y-58680000D03*
%TD*%
D18*
%TO.P,M2,1,-*%
%TO.N,GND*%
X99695000Y-141605000D03*
D19*
%TO.P,M2,2,+*%
%TO.N,/FanB_Power*%
X99695000Y-139065000D03*
%TO.P,M2,3,Tacho*%
%TO.N,Net-(M2-Tacho)*%
X99695000Y-136525000D03*
%TO.P,M2,4,PWM*%
%TO.N,Net-(M2-PWM)*%
X99695000Y-133985000D03*
%TD*%
D36*
%TO.P,D2,1,K*%
%TO.N,+24V*%
X188595000Y-81280000D03*
D37*
%TO.P,D2,2,A*%
%TO.N,Net-(D2-A)*%
X173355000Y-81280000D03*
%TD*%
D14*
%TO.P,R16,1*%
%TO.N,Net-(Q8-B)*%
X135890000Y-141605000D03*
D15*
%TO.P,R16,2*%
%TO.N,Net-(M2-Tacho)*%
X133350000Y-141605000D03*
%TD*%
D33*
%TO.P,K2,1,NC*%
%TO.N,unconnected-(K2-NC-Pad1)*%
X188825000Y-48520000D03*
D34*
%TO.P,K2,2,NO*%
%TO.N,unconnected-(K2-NO-Pad2)*%
X188825000Y-56140000D03*
D35*
%TO.P,K2,3,COIL_1*%
%TO.N,+24V*%
X185015000Y-71380000D03*
%TO.P,K2,4,COIL_2*%
%TO.N,Net-(D2-A)*%
X174855000Y-71380000D03*
D34*
%TO.P,K2,5,COM*%
%TO.N,unconnected-(K2-COM-Pad5)*%
X171045000Y-58680000D03*
%TD*%
D14*
%TO.P,R5,1*%
%TO.N,Net-(Q1-E)*%
X170815000Y-96295000D03*
D15*
%TO.P,R5,2*%
%TO.N,Net-(Q3-G)*%
X170815000Y-93755000D03*
%TD*%
D14*
%TO.P,R15,1*%
%TO.N,GND*%
X153670000Y-133350000D03*
D15*
%TO.P,R15,2*%
%TO.N,Net-(M2-PWM)*%
X151130000Y-133350000D03*
%TD*%
D10*
%TO.P,Q6,1,E*%
%TO.N,Net-(M2-PWM)*%
X145415000Y-133350000D03*
D11*
%TO.P,Q6,2,B*%
%TO.N,Net-(Q6-B)*%
X145415000Y-132080000D03*
%TO.P,Q6,3,C*%
%TO.N,+5V*%
X145415000Y-130810000D03*
%TD*%
D16*
%TO.P,J10,1,Pin_1*%
%TO.N,+5V*%
X103505000Y-114935000D03*
D17*
%TO.P,J10,2,Pin_2*%
%TO.N,GND*%
X103505000Y-117475000D03*
%TD*%
D22*
%TO.P,D3,1,K*%
%TO.N,+5V*%
X107315000Y-111125000D03*
D23*
%TO.P,D3,2,A*%
%TO.N,GND*%
X107315000Y-121285000D03*
%TD*%
D31*
%TO.P,C4,1*%
%TO.N,+12V*%
X165907323Y-116205000D03*
D32*
%TO.P,C4,2*%
%TO.N,GND*%
X170907323Y-116205000D03*
%TD*%
D14*
%TO.P,R14,1*%
%TO.N,GND*%
X121920000Y-123190000D03*
D15*
%TO.P,R14,2*%
%TO.N,Net-(M1-PWM)*%
X119380000Y-123190000D03*
%TD*%
D14*
%TO.P,R2,1*%
%TO.N,Net-(U2A-+)*%
X114935000Y-106680000D03*
D15*
%TO.P,R2,2*%
%TO.N,GND*%
X112395000Y-106680000D03*
%TD*%
D27*
%TO.P,Q7,1,E*%
%TO.N,/FanA_Tac*%
X127000000Y-122915000D03*
D28*
%TO.P,Q7,2,B*%
%TO.N,Net-(Q7-B)*%
X128270000Y-122915000D03*
%TO.P,Q7,3,C*%
%TO.N,+3.3V*%
X129540000Y-122915000D03*
%TD*%
D36*
%TO.P,D1,1,K*%
%TO.N,+24V*%
X160655000Y-81280000D03*
D37*
%TO.P,D1,2,A*%
%TO.N,Net-(D1-A)*%
X145415000Y-81280000D03*
%TD*%
D38*
%TO.P,J2,1,1*%
%TO.N,GND*%
X133350000Y-66780000D03*
%TO.P,J2,2,2*%
%TO.N,+24V*%
X127000000Y-57280000D03*
%TD*%
D16*
%TO.P,J6,1,Pin_1*%
%TO.N,+12V*%
X137795000Y-134605000D03*
D17*
%TO.P,J6,2,Pin_2*%
%TO.N,/FanB_Power*%
X137795000Y-132065000D03*
%TO.P,J6,3,Pin_3*%
%TO.N,+5V*%
X137795000Y-129525000D03*
%TD*%
D12*
%TO.P,Q3,1,G*%
%TO.N,Net-(Q3-G)*%
X170815000Y-88575000D03*
D13*
%TO.P,Q3,2,D*%
%TO.N,Net-(D2-A)*%
X173355000Y-88575000D03*
%TO.P,Q3,3,S*%
%TO.N,GND*%
X175895000Y-88575000D03*
%TD*%
D31*
%TO.P,C2,1*%
%TO.N,+5V*%
X140335000Y-116377323D03*
D32*
%TO.P,C2,2*%
%TO.N,GND*%
X140335000Y-121377323D03*
%TD*%
D31*
%TO.P,C1,1*%
%TO.N,+24V*%
X129540000Y-74375000D03*
D32*
%TO.P,C1,2*%
%TO.N,GND*%
X129540000Y-79375000D03*
%TD*%
D27*
%TO.P,Q1,1,E*%
%TO.N,Net-(Q1-E)*%
X164465000Y-100690000D03*
D28*
%TO.P,Q1,2,B*%
%TO.N,Net-(Q1-B)*%
X165735000Y-100690000D03*
%TO.P,Q1,3,C*%
%TO.N,+5V*%
X167005000Y-100690000D03*
%TD*%
D26*
%TO.P,H4,1,1*%
%TO.N,GND*%
X195580000Y-146685000D03*
%TD*%
D14*
%TO.P,R6,1*%
%TO.N,GND*%
X179480000Y-96520000D03*
D15*
%TO.P,R6,2*%
%TO.N,Net-(Q1-E)*%
X176940000Y-96520000D03*
%TD*%
D14*
%TO.P,R12,1*%
%TO.N,Net-(Q7-B)*%
X115570000Y-127635000D03*
D15*
%TO.P,R12,2*%
%TO.N,Net-(M1-Tacho)*%
X113030000Y-127635000D03*
%TD*%
D14*
%TO.P,R17,1*%
%TO.N,GND*%
X153670000Y-142240000D03*
D15*
%TO.P,R17,2*%
%TO.N,/FanB_Tac*%
X151130000Y-142240000D03*
%TD*%
D39*
%TO.N,+3.3V*%
X130175000Y-133350000D03*
%TO.N,/I2C0_SDA*%
X113665000Y-89535000D03*
%TO.N,/I2C0_SCL*%
X112395000Y-88900000D03*
%TO.N,/SPI1_CSn*%
X111760000Y-85725000D03*
%TD*%
D40*
%TO.N,/I2C0_SDA*%
X116467208Y-99325000D02*
X128530812Y-99325000D01*
X188595000Y-123190000D02*
X189865000Y-123190000D01*
X133980812Y-104775000D02*
X170180000Y-104775000D01*
X113665000Y-89535000D02*
X114670000Y-90540000D01*
X170180000Y-104775000D02*
X188595000Y-123190000D01*
X114670000Y-97527792D02*
X116467208Y-99325000D01*
X128530812Y-99325000D02*
X133980812Y-104775000D01*
X114670000Y-90540000D02*
X114670000Y-97527792D01*
%TO.N,/I2C0_SCL*%
X116280812Y-99775000D02*
X128344416Y-99775000D01*
X133979416Y-105410000D02*
X169545000Y-105410000D01*
X112395000Y-88900000D02*
X112395000Y-89615000D01*
X112395000Y-89615000D02*
X114220000Y-91440000D01*
X114220000Y-97714188D02*
X116280812Y-99775000D01*
X128344416Y-99775000D02*
X133979416Y-105410000D01*
X114220000Y-91440000D02*
X114220000Y-97714188D01*
X169545000Y-105410000D02*
X189865000Y-125730000D01*
%TO.N,/SPI1_RX*%
X129090000Y-97975000D02*
X117026396Y-97975000D01*
X116020000Y-96968604D02*
X116020000Y-87965000D01*
X188595000Y-102870000D02*
X133985000Y-102870000D01*
X116020000Y-87965000D02*
X101080000Y-73025000D01*
X117026396Y-97975000D02*
X116020000Y-96968604D01*
X133985000Y-102870000D02*
X129090000Y-97975000D01*
X189865000Y-104140000D02*
X188595000Y-102870000D01*
%TO.N,/SPI1_TX*%
X128903604Y-98425000D02*
X116840000Y-98425000D01*
X189865000Y-106680000D02*
X186690000Y-103505000D01*
X186690000Y-103505000D02*
X133983604Y-103505000D01*
X115570000Y-97155000D02*
X115570000Y-88265000D01*
X107950000Y-80645000D02*
X101080000Y-80645000D01*
X133983604Y-103505000D02*
X128903604Y-98425000D01*
X115570000Y-88265000D02*
X107950000Y-80645000D01*
X116840000Y-98425000D02*
X115570000Y-97155000D01*
%TO.N,/FanB_Tac*%
X121285000Y-125730000D02*
X122555000Y-127000000D01*
X122555000Y-127000000D02*
X137795000Y-127000000D01*
X142240000Y-131445000D02*
X142240000Y-140970000D01*
X137795000Y-127000000D02*
X142240000Y-131445000D01*
X101080000Y-95885000D02*
X109855000Y-104660000D01*
X109855000Y-120671396D02*
X114913604Y-125730000D01*
X143510000Y-142240000D02*
X145140000Y-142240000D01*
X109855000Y-104660000D02*
X109855000Y-120671396D01*
X142240000Y-140970000D02*
X143510000Y-142240000D01*
X114913604Y-125730000D02*
X121285000Y-125730000D01*
%TO.N,/SPI1_CSn*%
X111760000Y-85725000D02*
X115120000Y-89085000D01*
X128717208Y-98875000D02*
X133982208Y-104140000D01*
X115120000Y-97341396D02*
X116653604Y-98875000D01*
X116653604Y-98875000D02*
X128717208Y-98875000D01*
X115120000Y-89085000D02*
X115120000Y-97341396D01*
X133982208Y-104140000D02*
X184785000Y-104140000D01*
X184785000Y-104140000D02*
X189865000Y-109220000D01*
%TO.N,Net-(U2A-+)*%
X114935000Y-106680000D02*
X114935000Y-104550000D01*
X114940000Y-106675000D02*
X118730000Y-106675000D01*
X114935000Y-104550000D02*
X112620000Y-102235000D01*
%TO.N,/FanA_PWM*%
X110940000Y-110940000D02*
X111760000Y-111760000D01*
X110940000Y-104472208D02*
X110940000Y-110940000D01*
X101080000Y-85725000D02*
X103505000Y-88150000D01*
X103505000Y-97037208D02*
X110940000Y-104472208D01*
X103505000Y-88150000D02*
X103505000Y-97037208D01*
%TO.N,/FanB_PWM*%
X102870000Y-97038604D02*
X102870000Y-95135000D01*
X102870000Y-95135000D02*
X101080000Y-93345000D01*
X149450000Y-126365000D02*
X123190000Y-126365000D01*
X123190000Y-126365000D02*
X121920000Y-125095000D01*
X110490000Y-104658604D02*
X102870000Y-97038604D01*
X114915000Y-125095000D02*
X110490000Y-120670000D01*
X121920000Y-125095000D02*
X114915000Y-125095000D01*
X110490000Y-120670000D02*
X110490000Y-104658604D01*
X150085000Y-127000000D02*
X149450000Y-126365000D01*
D41*
%TO.N,/FanA_Power*%
X109220000Y-132080000D02*
X104140000Y-127000000D01*
X125730000Y-132080000D02*
X109220000Y-132080000D01*
X104140000Y-127000000D02*
X99695000Y-127000000D01*
%TO.N,/FanB_Power*%
X128270000Y-139065000D02*
X99695000Y-139065000D01*
X137795000Y-132065000D02*
X135270000Y-132065000D01*
X135270000Y-132065000D02*
X128270000Y-139065000D01*
%TD*%
M02*
