%TF.GenerationSoftware,KiCad,Pcbnew,7.0.10*%
%TF.CreationDate,2024-07-19T11:31:05-06:00*%
%TF.ProjectId,Pressure-Controlled-Power-Outlet-control-PCB,50726573-7375-4726-952d-436f6e74726f,V1.1.1*%
%TF.SameCoordinates,Original*%
%TF.FileFunction,Drillmap*%
%TF.FilePolarity,Positive*%
%FSLAX45Y45*%
G04 Gerber Fmt 4.5, Leading zero omitted, Abs format (unit mm)*
G04 Created by KiCad (PCBNEW 7.0.10) date 2024-07-19 11:31:05*
%MOMM*%
%LPD*%
G01*
G04 APERTURE LIST*
%ADD10C,0.100000*%
%ADD11C,0.200000*%
%ADD12C,0.150000*%
%ADD13C,0.180000*%
G04 APERTURE END LIST*
D10*
X8636000Y-6604000D02*
X18669000Y-6604000D01*
X18669000Y-15240000D01*
X8636000Y-15240000D01*
X8636000Y-6604000D01*
D11*
D12*
X9639000Y-12636500D02*
X9789000Y-12786500D01*
X9789000Y-12636500D02*
X9639000Y-12786500D01*
X9639000Y-13121500D02*
X9789000Y-13271500D01*
X9789000Y-13121500D02*
X9639000Y-13271500D01*
D13*
X9501000Y-12681500D02*
G75*
G03*
X9321000Y-12681500I-90000J0D01*
G01*
X9321000Y-12681500D02*
G75*
G03*
X9501000Y-12681500I90000J0D01*
G01*
X9501000Y-13226500D02*
G75*
G03*
X9321000Y-13226500I-90000J0D01*
G01*
X9321000Y-13226500D02*
G75*
G03*
X9501000Y-13226500I90000J0D01*
G01*
D11*
X8891777Y-15556484D02*
X8891777Y-15356484D01*
X8891777Y-15356484D02*
X8939396Y-15356484D01*
X8939396Y-15356484D02*
X8967967Y-15366008D01*
X8967967Y-15366008D02*
X8987015Y-15385055D01*
X8987015Y-15385055D02*
X8996539Y-15404103D01*
X8996539Y-15404103D02*
X9006063Y-15442198D01*
X9006063Y-15442198D02*
X9006063Y-15470769D01*
X9006063Y-15470769D02*
X8996539Y-15508865D01*
X8996539Y-15508865D02*
X8987015Y-15527912D01*
X8987015Y-15527912D02*
X8967967Y-15546960D01*
X8967967Y-15546960D02*
X8939396Y-15556484D01*
X8939396Y-15556484D02*
X8891777Y-15556484D01*
X9091777Y-15556484D02*
X9091777Y-15423150D01*
X9091777Y-15461246D02*
X9101301Y-15442198D01*
X9101301Y-15442198D02*
X9110824Y-15432674D01*
X9110824Y-15432674D02*
X9129872Y-15423150D01*
X9129872Y-15423150D02*
X9148920Y-15423150D01*
X9215586Y-15556484D02*
X9215586Y-15423150D01*
X9215586Y-15356484D02*
X9206063Y-15366008D01*
X9206063Y-15366008D02*
X9215586Y-15375531D01*
X9215586Y-15375531D02*
X9225110Y-15366008D01*
X9225110Y-15366008D02*
X9215586Y-15356484D01*
X9215586Y-15356484D02*
X9215586Y-15375531D01*
X9339396Y-15556484D02*
X9320348Y-15546960D01*
X9320348Y-15546960D02*
X9310824Y-15527912D01*
X9310824Y-15527912D02*
X9310824Y-15356484D01*
X9444158Y-15556484D02*
X9425110Y-15546960D01*
X9425110Y-15546960D02*
X9415586Y-15527912D01*
X9415586Y-15527912D02*
X9415586Y-15356484D01*
X9672729Y-15556484D02*
X9672729Y-15356484D01*
X9672729Y-15356484D02*
X9739396Y-15499341D01*
X9739396Y-15499341D02*
X9806063Y-15356484D01*
X9806063Y-15356484D02*
X9806063Y-15556484D01*
X9987015Y-15556484D02*
X9987015Y-15451722D01*
X9987015Y-15451722D02*
X9977491Y-15432674D01*
X9977491Y-15432674D02*
X9958444Y-15423150D01*
X9958444Y-15423150D02*
X9920348Y-15423150D01*
X9920348Y-15423150D02*
X9901301Y-15432674D01*
X9987015Y-15546960D02*
X9967967Y-15556484D01*
X9967967Y-15556484D02*
X9920348Y-15556484D01*
X9920348Y-15556484D02*
X9901301Y-15546960D01*
X9901301Y-15546960D02*
X9891777Y-15527912D01*
X9891777Y-15527912D02*
X9891777Y-15508865D01*
X9891777Y-15508865D02*
X9901301Y-15489817D01*
X9901301Y-15489817D02*
X9920348Y-15480293D01*
X9920348Y-15480293D02*
X9967967Y-15480293D01*
X9967967Y-15480293D02*
X9987015Y-15470769D01*
X10082253Y-15423150D02*
X10082253Y-15623150D01*
X10082253Y-15432674D02*
X10101301Y-15423150D01*
X10101301Y-15423150D02*
X10139396Y-15423150D01*
X10139396Y-15423150D02*
X10158444Y-15432674D01*
X10158444Y-15432674D02*
X10167967Y-15442198D01*
X10167967Y-15442198D02*
X10177491Y-15461246D01*
X10177491Y-15461246D02*
X10177491Y-15518388D01*
X10177491Y-15518388D02*
X10167967Y-15537436D01*
X10167967Y-15537436D02*
X10158444Y-15546960D01*
X10158444Y-15546960D02*
X10139396Y-15556484D01*
X10139396Y-15556484D02*
X10101301Y-15556484D01*
X10101301Y-15556484D02*
X10082253Y-15546960D01*
X10263205Y-15537436D02*
X10272729Y-15546960D01*
X10272729Y-15546960D02*
X10263205Y-15556484D01*
X10263205Y-15556484D02*
X10253682Y-15546960D01*
X10253682Y-15546960D02*
X10263205Y-15537436D01*
X10263205Y-15537436D02*
X10263205Y-15556484D01*
X10263205Y-15432674D02*
X10272729Y-15442198D01*
X10272729Y-15442198D02*
X10263205Y-15451722D01*
X10263205Y-15451722D02*
X10253682Y-15442198D01*
X10253682Y-15442198D02*
X10263205Y-15432674D01*
X10263205Y-15432674D02*
X10263205Y-15451722D01*
D12*
X8481000Y-15810000D02*
X8631000Y-15960000D01*
X8631000Y-15810000D02*
X8481000Y-15960000D01*
D11*
X8996539Y-15976484D02*
X8882253Y-15976484D01*
X8939396Y-15976484D02*
X8939396Y-15776484D01*
X8939396Y-15776484D02*
X8920348Y-15805055D01*
X8920348Y-15805055D02*
X8901301Y-15824103D01*
X8901301Y-15824103D02*
X8882253Y-15833627D01*
X9082253Y-15957436D02*
X9091777Y-15966960D01*
X9091777Y-15966960D02*
X9082253Y-15976484D01*
X9082253Y-15976484D02*
X9072729Y-15966960D01*
X9072729Y-15966960D02*
X9082253Y-15957436D01*
X9082253Y-15957436D02*
X9082253Y-15976484D01*
X9272729Y-15776484D02*
X9177491Y-15776484D01*
X9177491Y-15776484D02*
X9167967Y-15871722D01*
X9167967Y-15871722D02*
X9177491Y-15862198D01*
X9177491Y-15862198D02*
X9196539Y-15852674D01*
X9196539Y-15852674D02*
X9244158Y-15852674D01*
X9244158Y-15852674D02*
X9263205Y-15862198D01*
X9263205Y-15862198D02*
X9272729Y-15871722D01*
X9272729Y-15871722D02*
X9282253Y-15890769D01*
X9282253Y-15890769D02*
X9282253Y-15938388D01*
X9282253Y-15938388D02*
X9272729Y-15957436D01*
X9272729Y-15957436D02*
X9263205Y-15966960D01*
X9263205Y-15966960D02*
X9244158Y-15976484D01*
X9244158Y-15976484D02*
X9196539Y-15976484D01*
X9196539Y-15976484D02*
X9177491Y-15966960D01*
X9177491Y-15966960D02*
X9167967Y-15957436D01*
X9406063Y-15776484D02*
X9425110Y-15776484D01*
X9425110Y-15776484D02*
X9444158Y-15786008D01*
X9444158Y-15786008D02*
X9453682Y-15795531D01*
X9453682Y-15795531D02*
X9463205Y-15814579D01*
X9463205Y-15814579D02*
X9472729Y-15852674D01*
X9472729Y-15852674D02*
X9472729Y-15900293D01*
X9472729Y-15900293D02*
X9463205Y-15938388D01*
X9463205Y-15938388D02*
X9453682Y-15957436D01*
X9453682Y-15957436D02*
X9444158Y-15966960D01*
X9444158Y-15966960D02*
X9425110Y-15976484D01*
X9425110Y-15976484D02*
X9406063Y-15976484D01*
X9406063Y-15976484D02*
X9387015Y-15966960D01*
X9387015Y-15966960D02*
X9377491Y-15957436D01*
X9377491Y-15957436D02*
X9367967Y-15938388D01*
X9367967Y-15938388D02*
X9358444Y-15900293D01*
X9358444Y-15900293D02*
X9358444Y-15852674D01*
X9358444Y-15852674D02*
X9367967Y-15814579D01*
X9367967Y-15814579D02*
X9377491Y-15795531D01*
X9377491Y-15795531D02*
X9387015Y-15786008D01*
X9387015Y-15786008D02*
X9406063Y-15776484D01*
X9596539Y-15776484D02*
X9615586Y-15776484D01*
X9615586Y-15776484D02*
X9634634Y-15786008D01*
X9634634Y-15786008D02*
X9644158Y-15795531D01*
X9644158Y-15795531D02*
X9653682Y-15814579D01*
X9653682Y-15814579D02*
X9663205Y-15852674D01*
X9663205Y-15852674D02*
X9663205Y-15900293D01*
X9663205Y-15900293D02*
X9653682Y-15938388D01*
X9653682Y-15938388D02*
X9644158Y-15957436D01*
X9644158Y-15957436D02*
X9634634Y-15966960D01*
X9634634Y-15966960D02*
X9615586Y-15976484D01*
X9615586Y-15976484D02*
X9596539Y-15976484D01*
X9596539Y-15976484D02*
X9577491Y-15966960D01*
X9577491Y-15966960D02*
X9567967Y-15957436D01*
X9567967Y-15957436D02*
X9558444Y-15938388D01*
X9558444Y-15938388D02*
X9548920Y-15900293D01*
X9548920Y-15900293D02*
X9548920Y-15852674D01*
X9548920Y-15852674D02*
X9558444Y-15814579D01*
X9558444Y-15814579D02*
X9567967Y-15795531D01*
X9567967Y-15795531D02*
X9577491Y-15786008D01*
X9577491Y-15786008D02*
X9596539Y-15776484D01*
X9748920Y-15976484D02*
X9748920Y-15843150D01*
X9748920Y-15862198D02*
X9758444Y-15852674D01*
X9758444Y-15852674D02*
X9777491Y-15843150D01*
X9777491Y-15843150D02*
X9806063Y-15843150D01*
X9806063Y-15843150D02*
X9825110Y-15852674D01*
X9825110Y-15852674D02*
X9834634Y-15871722D01*
X9834634Y-15871722D02*
X9834634Y-15976484D01*
X9834634Y-15871722D02*
X9844158Y-15852674D01*
X9844158Y-15852674D02*
X9863205Y-15843150D01*
X9863205Y-15843150D02*
X9891777Y-15843150D01*
X9891777Y-15843150D02*
X9910825Y-15852674D01*
X9910825Y-15852674D02*
X9920348Y-15871722D01*
X9920348Y-15871722D02*
X9920348Y-15976484D01*
X10015586Y-15976484D02*
X10015586Y-15843150D01*
X10015586Y-15862198D02*
X10025110Y-15852674D01*
X10025110Y-15852674D02*
X10044158Y-15843150D01*
X10044158Y-15843150D02*
X10072729Y-15843150D01*
X10072729Y-15843150D02*
X10091777Y-15852674D01*
X10091777Y-15852674D02*
X10101301Y-15871722D01*
X10101301Y-15871722D02*
X10101301Y-15976484D01*
X10101301Y-15871722D02*
X10110825Y-15852674D01*
X10110825Y-15852674D02*
X10129872Y-15843150D01*
X10129872Y-15843150D02*
X10158444Y-15843150D01*
X10158444Y-15843150D02*
X10177491Y-15852674D01*
X10177491Y-15852674D02*
X10187015Y-15871722D01*
X10187015Y-15871722D02*
X10187015Y-15976484D01*
X10577491Y-15766960D02*
X10406063Y-16024103D01*
X10834634Y-15776484D02*
X10853682Y-15776484D01*
X10853682Y-15776484D02*
X10872729Y-15786008D01*
X10872729Y-15786008D02*
X10882253Y-15795531D01*
X10882253Y-15795531D02*
X10891777Y-15814579D01*
X10891777Y-15814579D02*
X10901301Y-15852674D01*
X10901301Y-15852674D02*
X10901301Y-15900293D01*
X10901301Y-15900293D02*
X10891777Y-15938388D01*
X10891777Y-15938388D02*
X10882253Y-15957436D01*
X10882253Y-15957436D02*
X10872729Y-15966960D01*
X10872729Y-15966960D02*
X10853682Y-15976484D01*
X10853682Y-15976484D02*
X10834634Y-15976484D01*
X10834634Y-15976484D02*
X10815587Y-15966960D01*
X10815587Y-15966960D02*
X10806063Y-15957436D01*
X10806063Y-15957436D02*
X10796539Y-15938388D01*
X10796539Y-15938388D02*
X10787015Y-15900293D01*
X10787015Y-15900293D02*
X10787015Y-15852674D01*
X10787015Y-15852674D02*
X10796539Y-15814579D01*
X10796539Y-15814579D02*
X10806063Y-15795531D01*
X10806063Y-15795531D02*
X10815587Y-15786008D01*
X10815587Y-15786008D02*
X10834634Y-15776484D01*
X10987015Y-15957436D02*
X10996539Y-15966960D01*
X10996539Y-15966960D02*
X10987015Y-15976484D01*
X10987015Y-15976484D02*
X10977491Y-15966960D01*
X10977491Y-15966960D02*
X10987015Y-15957436D01*
X10987015Y-15957436D02*
X10987015Y-15976484D01*
X11120348Y-15776484D02*
X11139396Y-15776484D01*
X11139396Y-15776484D02*
X11158444Y-15786008D01*
X11158444Y-15786008D02*
X11167968Y-15795531D01*
X11167968Y-15795531D02*
X11177491Y-15814579D01*
X11177491Y-15814579D02*
X11187015Y-15852674D01*
X11187015Y-15852674D02*
X11187015Y-15900293D01*
X11187015Y-15900293D02*
X11177491Y-15938388D01*
X11177491Y-15938388D02*
X11167968Y-15957436D01*
X11167968Y-15957436D02*
X11158444Y-15966960D01*
X11158444Y-15966960D02*
X11139396Y-15976484D01*
X11139396Y-15976484D02*
X11120348Y-15976484D01*
X11120348Y-15976484D02*
X11101301Y-15966960D01*
X11101301Y-15966960D02*
X11091777Y-15957436D01*
X11091777Y-15957436D02*
X11082253Y-15938388D01*
X11082253Y-15938388D02*
X11072729Y-15900293D01*
X11072729Y-15900293D02*
X11072729Y-15852674D01*
X11072729Y-15852674D02*
X11082253Y-15814579D01*
X11082253Y-15814579D02*
X11091777Y-15795531D01*
X11091777Y-15795531D02*
X11101301Y-15786008D01*
X11101301Y-15786008D02*
X11120348Y-15776484D01*
X11367967Y-15776484D02*
X11272729Y-15776484D01*
X11272729Y-15776484D02*
X11263206Y-15871722D01*
X11263206Y-15871722D02*
X11272729Y-15862198D01*
X11272729Y-15862198D02*
X11291777Y-15852674D01*
X11291777Y-15852674D02*
X11339396Y-15852674D01*
X11339396Y-15852674D02*
X11358444Y-15862198D01*
X11358444Y-15862198D02*
X11367967Y-15871722D01*
X11367967Y-15871722D02*
X11377491Y-15890769D01*
X11377491Y-15890769D02*
X11377491Y-15938388D01*
X11377491Y-15938388D02*
X11367967Y-15957436D01*
X11367967Y-15957436D02*
X11358444Y-15966960D01*
X11358444Y-15966960D02*
X11339396Y-15976484D01*
X11339396Y-15976484D02*
X11291777Y-15976484D01*
X11291777Y-15976484D02*
X11272729Y-15966960D01*
X11272729Y-15966960D02*
X11263206Y-15957436D01*
X11472729Y-15976484D02*
X11510825Y-15976484D01*
X11510825Y-15976484D02*
X11529872Y-15966960D01*
X11529872Y-15966960D02*
X11539396Y-15957436D01*
X11539396Y-15957436D02*
X11558444Y-15928865D01*
X11558444Y-15928865D02*
X11567967Y-15890769D01*
X11567967Y-15890769D02*
X11567967Y-15814579D01*
X11567967Y-15814579D02*
X11558444Y-15795531D01*
X11558444Y-15795531D02*
X11548920Y-15786008D01*
X11548920Y-15786008D02*
X11529872Y-15776484D01*
X11529872Y-15776484D02*
X11491777Y-15776484D01*
X11491777Y-15776484D02*
X11472729Y-15786008D01*
X11472729Y-15786008D02*
X11463206Y-15795531D01*
X11463206Y-15795531D02*
X11453682Y-15814579D01*
X11453682Y-15814579D02*
X11453682Y-15862198D01*
X11453682Y-15862198D02*
X11463206Y-15881246D01*
X11463206Y-15881246D02*
X11472729Y-15890769D01*
X11472729Y-15890769D02*
X11491777Y-15900293D01*
X11491777Y-15900293D02*
X11529872Y-15900293D01*
X11529872Y-15900293D02*
X11548920Y-15890769D01*
X11548920Y-15890769D02*
X11558444Y-15881246D01*
X11558444Y-15881246D02*
X11567967Y-15862198D01*
X11758444Y-15976484D02*
X11644158Y-15976484D01*
X11701301Y-15976484D02*
X11701301Y-15776484D01*
X11701301Y-15776484D02*
X11682253Y-15805055D01*
X11682253Y-15805055D02*
X11663206Y-15824103D01*
X11663206Y-15824103D02*
X11644158Y-15833627D01*
X11834634Y-15776484D02*
X11834634Y-15814579D01*
X11910825Y-15776484D02*
X11910825Y-15814579D01*
X12206063Y-16052674D02*
X12196539Y-16043150D01*
X12196539Y-16043150D02*
X12177491Y-16014579D01*
X12177491Y-16014579D02*
X12167968Y-15995531D01*
X12167968Y-15995531D02*
X12158444Y-15966960D01*
X12158444Y-15966960D02*
X12148920Y-15919341D01*
X12148920Y-15919341D02*
X12148920Y-15881246D01*
X12148920Y-15881246D02*
X12158444Y-15833627D01*
X12158444Y-15833627D02*
X12167968Y-15805055D01*
X12167968Y-15805055D02*
X12177491Y-15786008D01*
X12177491Y-15786008D02*
X12196539Y-15757436D01*
X12196539Y-15757436D02*
X12206063Y-15747912D01*
X12272729Y-15795531D02*
X12282253Y-15786008D01*
X12282253Y-15786008D02*
X12301301Y-15776484D01*
X12301301Y-15776484D02*
X12348920Y-15776484D01*
X12348920Y-15776484D02*
X12367968Y-15786008D01*
X12367968Y-15786008D02*
X12377491Y-15795531D01*
X12377491Y-15795531D02*
X12387015Y-15814579D01*
X12387015Y-15814579D02*
X12387015Y-15833627D01*
X12387015Y-15833627D02*
X12377491Y-15862198D01*
X12377491Y-15862198D02*
X12263206Y-15976484D01*
X12263206Y-15976484D02*
X12387015Y-15976484D01*
X12625110Y-15976484D02*
X12625110Y-15776484D01*
X12710825Y-15976484D02*
X12710825Y-15871722D01*
X12710825Y-15871722D02*
X12701301Y-15852674D01*
X12701301Y-15852674D02*
X12682253Y-15843150D01*
X12682253Y-15843150D02*
X12653682Y-15843150D01*
X12653682Y-15843150D02*
X12634634Y-15852674D01*
X12634634Y-15852674D02*
X12625110Y-15862198D01*
X12834634Y-15976484D02*
X12815587Y-15966960D01*
X12815587Y-15966960D02*
X12806063Y-15957436D01*
X12806063Y-15957436D02*
X12796539Y-15938388D01*
X12796539Y-15938388D02*
X12796539Y-15881246D01*
X12796539Y-15881246D02*
X12806063Y-15862198D01*
X12806063Y-15862198D02*
X12815587Y-15852674D01*
X12815587Y-15852674D02*
X12834634Y-15843150D01*
X12834634Y-15843150D02*
X12863206Y-15843150D01*
X12863206Y-15843150D02*
X12882253Y-15852674D01*
X12882253Y-15852674D02*
X12891777Y-15862198D01*
X12891777Y-15862198D02*
X12901301Y-15881246D01*
X12901301Y-15881246D02*
X12901301Y-15938388D01*
X12901301Y-15938388D02*
X12891777Y-15957436D01*
X12891777Y-15957436D02*
X12882253Y-15966960D01*
X12882253Y-15966960D02*
X12863206Y-15976484D01*
X12863206Y-15976484D02*
X12834634Y-15976484D01*
X13015587Y-15976484D02*
X12996539Y-15966960D01*
X12996539Y-15966960D02*
X12987015Y-15947912D01*
X12987015Y-15947912D02*
X12987015Y-15776484D01*
X13167968Y-15966960D02*
X13148920Y-15976484D01*
X13148920Y-15976484D02*
X13110825Y-15976484D01*
X13110825Y-15976484D02*
X13091777Y-15966960D01*
X13091777Y-15966960D02*
X13082253Y-15947912D01*
X13082253Y-15947912D02*
X13082253Y-15871722D01*
X13082253Y-15871722D02*
X13091777Y-15852674D01*
X13091777Y-15852674D02*
X13110825Y-15843150D01*
X13110825Y-15843150D02*
X13148920Y-15843150D01*
X13148920Y-15843150D02*
X13167968Y-15852674D01*
X13167968Y-15852674D02*
X13177491Y-15871722D01*
X13177491Y-15871722D02*
X13177491Y-15890769D01*
X13177491Y-15890769D02*
X13082253Y-15909817D01*
X13253682Y-15966960D02*
X13272730Y-15976484D01*
X13272730Y-15976484D02*
X13310825Y-15976484D01*
X13310825Y-15976484D02*
X13329872Y-15966960D01*
X13329872Y-15966960D02*
X13339396Y-15947912D01*
X13339396Y-15947912D02*
X13339396Y-15938388D01*
X13339396Y-15938388D02*
X13329872Y-15919341D01*
X13329872Y-15919341D02*
X13310825Y-15909817D01*
X13310825Y-15909817D02*
X13282253Y-15909817D01*
X13282253Y-15909817D02*
X13263206Y-15900293D01*
X13263206Y-15900293D02*
X13253682Y-15881246D01*
X13253682Y-15881246D02*
X13253682Y-15871722D01*
X13253682Y-15871722D02*
X13263206Y-15852674D01*
X13263206Y-15852674D02*
X13282253Y-15843150D01*
X13282253Y-15843150D02*
X13310825Y-15843150D01*
X13310825Y-15843150D02*
X13329872Y-15852674D01*
X13406063Y-16052674D02*
X13415587Y-16043150D01*
X13415587Y-16043150D02*
X13434634Y-16014579D01*
X13434634Y-16014579D02*
X13444158Y-15995531D01*
X13444158Y-15995531D02*
X13453682Y-15966960D01*
X13453682Y-15966960D02*
X13463206Y-15919341D01*
X13463206Y-15919341D02*
X13463206Y-15881246D01*
X13463206Y-15881246D02*
X13453682Y-15833627D01*
X13453682Y-15833627D02*
X13444158Y-15805055D01*
X13444158Y-15805055D02*
X13434634Y-15786008D01*
X13434634Y-15786008D02*
X13415587Y-15757436D01*
X13415587Y-15757436D02*
X13406063Y-15747912D01*
X13767968Y-16052674D02*
X13758444Y-16043150D01*
X13758444Y-16043150D02*
X13739396Y-16014579D01*
X13739396Y-16014579D02*
X13729872Y-15995531D01*
X13729872Y-15995531D02*
X13720349Y-15966960D01*
X13720349Y-15966960D02*
X13710825Y-15919341D01*
X13710825Y-15919341D02*
X13710825Y-15881246D01*
X13710825Y-15881246D02*
X13720349Y-15833627D01*
X13720349Y-15833627D02*
X13729872Y-15805055D01*
X13729872Y-15805055D02*
X13739396Y-15786008D01*
X13739396Y-15786008D02*
X13758444Y-15757436D01*
X13758444Y-15757436D02*
X13767968Y-15747912D01*
X13844158Y-15843150D02*
X13844158Y-15976484D01*
X13844158Y-15862198D02*
X13853682Y-15852674D01*
X13853682Y-15852674D02*
X13872730Y-15843150D01*
X13872730Y-15843150D02*
X13901301Y-15843150D01*
X13901301Y-15843150D02*
X13920349Y-15852674D01*
X13920349Y-15852674D02*
X13929872Y-15871722D01*
X13929872Y-15871722D02*
X13929872Y-15976484D01*
X14053682Y-15976484D02*
X14034634Y-15966960D01*
X14034634Y-15966960D02*
X14025111Y-15957436D01*
X14025111Y-15957436D02*
X14015587Y-15938388D01*
X14015587Y-15938388D02*
X14015587Y-15881246D01*
X14015587Y-15881246D02*
X14025111Y-15862198D01*
X14025111Y-15862198D02*
X14034634Y-15852674D01*
X14034634Y-15852674D02*
X14053682Y-15843150D01*
X14053682Y-15843150D02*
X14082253Y-15843150D01*
X14082253Y-15843150D02*
X14101301Y-15852674D01*
X14101301Y-15852674D02*
X14110825Y-15862198D01*
X14110825Y-15862198D02*
X14120349Y-15881246D01*
X14120349Y-15881246D02*
X14120349Y-15938388D01*
X14120349Y-15938388D02*
X14110825Y-15957436D01*
X14110825Y-15957436D02*
X14101301Y-15966960D01*
X14101301Y-15966960D02*
X14082253Y-15976484D01*
X14082253Y-15976484D02*
X14053682Y-15976484D01*
X14177492Y-15843150D02*
X14253682Y-15843150D01*
X14206063Y-15776484D02*
X14206063Y-15947912D01*
X14206063Y-15947912D02*
X14215587Y-15966960D01*
X14215587Y-15966960D02*
X14234634Y-15976484D01*
X14234634Y-15976484D02*
X14253682Y-15976484D01*
X14472730Y-15843150D02*
X14472730Y-16043150D01*
X14472730Y-15852674D02*
X14491777Y-15843150D01*
X14491777Y-15843150D02*
X14529873Y-15843150D01*
X14529873Y-15843150D02*
X14548920Y-15852674D01*
X14548920Y-15852674D02*
X14558444Y-15862198D01*
X14558444Y-15862198D02*
X14567968Y-15881246D01*
X14567968Y-15881246D02*
X14567968Y-15938388D01*
X14567968Y-15938388D02*
X14558444Y-15957436D01*
X14558444Y-15957436D02*
X14548920Y-15966960D01*
X14548920Y-15966960D02*
X14529873Y-15976484D01*
X14529873Y-15976484D02*
X14491777Y-15976484D01*
X14491777Y-15976484D02*
X14472730Y-15966960D01*
X14682253Y-15976484D02*
X14663206Y-15966960D01*
X14663206Y-15966960D02*
X14653682Y-15947912D01*
X14653682Y-15947912D02*
X14653682Y-15776484D01*
X14844158Y-15976484D02*
X14844158Y-15871722D01*
X14844158Y-15871722D02*
X14834634Y-15852674D01*
X14834634Y-15852674D02*
X14815587Y-15843150D01*
X14815587Y-15843150D02*
X14777492Y-15843150D01*
X14777492Y-15843150D02*
X14758444Y-15852674D01*
X14844158Y-15966960D02*
X14825111Y-15976484D01*
X14825111Y-15976484D02*
X14777492Y-15976484D01*
X14777492Y-15976484D02*
X14758444Y-15966960D01*
X14758444Y-15966960D02*
X14748920Y-15947912D01*
X14748920Y-15947912D02*
X14748920Y-15928865D01*
X14748920Y-15928865D02*
X14758444Y-15909817D01*
X14758444Y-15909817D02*
X14777492Y-15900293D01*
X14777492Y-15900293D02*
X14825111Y-15900293D01*
X14825111Y-15900293D02*
X14844158Y-15890769D01*
X14910825Y-15843150D02*
X14987015Y-15843150D01*
X14939396Y-15776484D02*
X14939396Y-15947912D01*
X14939396Y-15947912D02*
X14948920Y-15966960D01*
X14948920Y-15966960D02*
X14967968Y-15976484D01*
X14967968Y-15976484D02*
X14987015Y-15976484D01*
X15129873Y-15966960D02*
X15110825Y-15976484D01*
X15110825Y-15976484D02*
X15072730Y-15976484D01*
X15072730Y-15976484D02*
X15053682Y-15966960D01*
X15053682Y-15966960D02*
X15044158Y-15947912D01*
X15044158Y-15947912D02*
X15044158Y-15871722D01*
X15044158Y-15871722D02*
X15053682Y-15852674D01*
X15053682Y-15852674D02*
X15072730Y-15843150D01*
X15072730Y-15843150D02*
X15110825Y-15843150D01*
X15110825Y-15843150D02*
X15129873Y-15852674D01*
X15129873Y-15852674D02*
X15139396Y-15871722D01*
X15139396Y-15871722D02*
X15139396Y-15890769D01*
X15139396Y-15890769D02*
X15044158Y-15909817D01*
X15310825Y-15976484D02*
X15310825Y-15776484D01*
X15310825Y-15966960D02*
X15291777Y-15976484D01*
X15291777Y-15976484D02*
X15253682Y-15976484D01*
X15253682Y-15976484D02*
X15234634Y-15966960D01*
X15234634Y-15966960D02*
X15225111Y-15957436D01*
X15225111Y-15957436D02*
X15215587Y-15938388D01*
X15215587Y-15938388D02*
X15215587Y-15881246D01*
X15215587Y-15881246D02*
X15225111Y-15862198D01*
X15225111Y-15862198D02*
X15234634Y-15852674D01*
X15234634Y-15852674D02*
X15253682Y-15843150D01*
X15253682Y-15843150D02*
X15291777Y-15843150D01*
X15291777Y-15843150D02*
X15310825Y-15852674D01*
X15387015Y-16052674D02*
X15396539Y-16043150D01*
X15396539Y-16043150D02*
X15415587Y-16014579D01*
X15415587Y-16014579D02*
X15425111Y-15995531D01*
X15425111Y-15995531D02*
X15434634Y-15966960D01*
X15434634Y-15966960D02*
X15444158Y-15919341D01*
X15444158Y-15919341D02*
X15444158Y-15881246D01*
X15444158Y-15881246D02*
X15434634Y-15833627D01*
X15434634Y-15833627D02*
X15425111Y-15805055D01*
X15425111Y-15805055D02*
X15415587Y-15786008D01*
X15415587Y-15786008D02*
X15396539Y-15757436D01*
X15396539Y-15757436D02*
X15387015Y-15747912D01*
D13*
X8631000Y-16155000D02*
G75*
G03*
X8451000Y-16155000I-90000J0D01*
G01*
X8451000Y-16155000D02*
G75*
G03*
X8631000Y-16155000I90000J0D01*
G01*
D11*
X8996539Y-16246484D02*
X8882253Y-16246484D01*
X8939396Y-16246484D02*
X8939396Y-16046484D01*
X8939396Y-16046484D02*
X8920348Y-16075055D01*
X8920348Y-16075055D02*
X8901301Y-16094103D01*
X8901301Y-16094103D02*
X8882253Y-16103627D01*
X9082253Y-16227436D02*
X9091777Y-16236960D01*
X9091777Y-16236960D02*
X9082253Y-16246484D01*
X9082253Y-16246484D02*
X9072729Y-16236960D01*
X9072729Y-16236960D02*
X9082253Y-16227436D01*
X9082253Y-16227436D02*
X9082253Y-16246484D01*
X9206063Y-16132198D02*
X9187015Y-16122674D01*
X9187015Y-16122674D02*
X9177491Y-16113150D01*
X9177491Y-16113150D02*
X9167967Y-16094103D01*
X9167967Y-16094103D02*
X9167967Y-16084579D01*
X9167967Y-16084579D02*
X9177491Y-16065531D01*
X9177491Y-16065531D02*
X9187015Y-16056008D01*
X9187015Y-16056008D02*
X9206063Y-16046484D01*
X9206063Y-16046484D02*
X9244158Y-16046484D01*
X9244158Y-16046484D02*
X9263205Y-16056008D01*
X9263205Y-16056008D02*
X9272729Y-16065531D01*
X9272729Y-16065531D02*
X9282253Y-16084579D01*
X9282253Y-16084579D02*
X9282253Y-16094103D01*
X9282253Y-16094103D02*
X9272729Y-16113150D01*
X9272729Y-16113150D02*
X9263205Y-16122674D01*
X9263205Y-16122674D02*
X9244158Y-16132198D01*
X9244158Y-16132198D02*
X9206063Y-16132198D01*
X9206063Y-16132198D02*
X9187015Y-16141722D01*
X9187015Y-16141722D02*
X9177491Y-16151246D01*
X9177491Y-16151246D02*
X9167967Y-16170293D01*
X9167967Y-16170293D02*
X9167967Y-16208388D01*
X9167967Y-16208388D02*
X9177491Y-16227436D01*
X9177491Y-16227436D02*
X9187015Y-16236960D01*
X9187015Y-16236960D02*
X9206063Y-16246484D01*
X9206063Y-16246484D02*
X9244158Y-16246484D01*
X9244158Y-16246484D02*
X9263205Y-16236960D01*
X9263205Y-16236960D02*
X9272729Y-16227436D01*
X9272729Y-16227436D02*
X9282253Y-16208388D01*
X9282253Y-16208388D02*
X9282253Y-16170293D01*
X9282253Y-16170293D02*
X9272729Y-16151246D01*
X9272729Y-16151246D02*
X9263205Y-16141722D01*
X9263205Y-16141722D02*
X9244158Y-16132198D01*
X9406063Y-16046484D02*
X9425110Y-16046484D01*
X9425110Y-16046484D02*
X9444158Y-16056008D01*
X9444158Y-16056008D02*
X9453682Y-16065531D01*
X9453682Y-16065531D02*
X9463205Y-16084579D01*
X9463205Y-16084579D02*
X9472729Y-16122674D01*
X9472729Y-16122674D02*
X9472729Y-16170293D01*
X9472729Y-16170293D02*
X9463205Y-16208388D01*
X9463205Y-16208388D02*
X9453682Y-16227436D01*
X9453682Y-16227436D02*
X9444158Y-16236960D01*
X9444158Y-16236960D02*
X9425110Y-16246484D01*
X9425110Y-16246484D02*
X9406063Y-16246484D01*
X9406063Y-16246484D02*
X9387015Y-16236960D01*
X9387015Y-16236960D02*
X9377491Y-16227436D01*
X9377491Y-16227436D02*
X9367967Y-16208388D01*
X9367967Y-16208388D02*
X9358444Y-16170293D01*
X9358444Y-16170293D02*
X9358444Y-16122674D01*
X9358444Y-16122674D02*
X9367967Y-16084579D01*
X9367967Y-16084579D02*
X9377491Y-16065531D01*
X9377491Y-16065531D02*
X9387015Y-16056008D01*
X9387015Y-16056008D02*
X9406063Y-16046484D01*
X9596539Y-16046484D02*
X9615586Y-16046484D01*
X9615586Y-16046484D02*
X9634634Y-16056008D01*
X9634634Y-16056008D02*
X9644158Y-16065531D01*
X9644158Y-16065531D02*
X9653682Y-16084579D01*
X9653682Y-16084579D02*
X9663205Y-16122674D01*
X9663205Y-16122674D02*
X9663205Y-16170293D01*
X9663205Y-16170293D02*
X9653682Y-16208388D01*
X9653682Y-16208388D02*
X9644158Y-16227436D01*
X9644158Y-16227436D02*
X9634634Y-16236960D01*
X9634634Y-16236960D02*
X9615586Y-16246484D01*
X9615586Y-16246484D02*
X9596539Y-16246484D01*
X9596539Y-16246484D02*
X9577491Y-16236960D01*
X9577491Y-16236960D02*
X9567967Y-16227436D01*
X9567967Y-16227436D02*
X9558444Y-16208388D01*
X9558444Y-16208388D02*
X9548920Y-16170293D01*
X9548920Y-16170293D02*
X9548920Y-16122674D01*
X9548920Y-16122674D02*
X9558444Y-16084579D01*
X9558444Y-16084579D02*
X9567967Y-16065531D01*
X9567967Y-16065531D02*
X9577491Y-16056008D01*
X9577491Y-16056008D02*
X9596539Y-16046484D01*
X9748920Y-16246484D02*
X9748920Y-16113150D01*
X9748920Y-16132198D02*
X9758444Y-16122674D01*
X9758444Y-16122674D02*
X9777491Y-16113150D01*
X9777491Y-16113150D02*
X9806063Y-16113150D01*
X9806063Y-16113150D02*
X9825110Y-16122674D01*
X9825110Y-16122674D02*
X9834634Y-16141722D01*
X9834634Y-16141722D02*
X9834634Y-16246484D01*
X9834634Y-16141722D02*
X9844158Y-16122674D01*
X9844158Y-16122674D02*
X9863205Y-16113150D01*
X9863205Y-16113150D02*
X9891777Y-16113150D01*
X9891777Y-16113150D02*
X9910825Y-16122674D01*
X9910825Y-16122674D02*
X9920348Y-16141722D01*
X9920348Y-16141722D02*
X9920348Y-16246484D01*
X10015586Y-16246484D02*
X10015586Y-16113150D01*
X10015586Y-16132198D02*
X10025110Y-16122674D01*
X10025110Y-16122674D02*
X10044158Y-16113150D01*
X10044158Y-16113150D02*
X10072729Y-16113150D01*
X10072729Y-16113150D02*
X10091777Y-16122674D01*
X10091777Y-16122674D02*
X10101301Y-16141722D01*
X10101301Y-16141722D02*
X10101301Y-16246484D01*
X10101301Y-16141722D02*
X10110825Y-16122674D01*
X10110825Y-16122674D02*
X10129872Y-16113150D01*
X10129872Y-16113150D02*
X10158444Y-16113150D01*
X10158444Y-16113150D02*
X10177491Y-16122674D01*
X10177491Y-16122674D02*
X10187015Y-16141722D01*
X10187015Y-16141722D02*
X10187015Y-16246484D01*
X10577491Y-16036960D02*
X10406063Y-16294103D01*
X10834634Y-16046484D02*
X10853682Y-16046484D01*
X10853682Y-16046484D02*
X10872729Y-16056008D01*
X10872729Y-16056008D02*
X10882253Y-16065531D01*
X10882253Y-16065531D02*
X10891777Y-16084579D01*
X10891777Y-16084579D02*
X10901301Y-16122674D01*
X10901301Y-16122674D02*
X10901301Y-16170293D01*
X10901301Y-16170293D02*
X10891777Y-16208388D01*
X10891777Y-16208388D02*
X10882253Y-16227436D01*
X10882253Y-16227436D02*
X10872729Y-16236960D01*
X10872729Y-16236960D02*
X10853682Y-16246484D01*
X10853682Y-16246484D02*
X10834634Y-16246484D01*
X10834634Y-16246484D02*
X10815587Y-16236960D01*
X10815587Y-16236960D02*
X10806063Y-16227436D01*
X10806063Y-16227436D02*
X10796539Y-16208388D01*
X10796539Y-16208388D02*
X10787015Y-16170293D01*
X10787015Y-16170293D02*
X10787015Y-16122674D01*
X10787015Y-16122674D02*
X10796539Y-16084579D01*
X10796539Y-16084579D02*
X10806063Y-16065531D01*
X10806063Y-16065531D02*
X10815587Y-16056008D01*
X10815587Y-16056008D02*
X10834634Y-16046484D01*
X10987015Y-16227436D02*
X10996539Y-16236960D01*
X10996539Y-16236960D02*
X10987015Y-16246484D01*
X10987015Y-16246484D02*
X10977491Y-16236960D01*
X10977491Y-16236960D02*
X10987015Y-16227436D01*
X10987015Y-16227436D02*
X10987015Y-16246484D01*
X11120348Y-16046484D02*
X11139396Y-16046484D01*
X11139396Y-16046484D02*
X11158444Y-16056008D01*
X11158444Y-16056008D02*
X11167968Y-16065531D01*
X11167968Y-16065531D02*
X11177491Y-16084579D01*
X11177491Y-16084579D02*
X11187015Y-16122674D01*
X11187015Y-16122674D02*
X11187015Y-16170293D01*
X11187015Y-16170293D02*
X11177491Y-16208388D01*
X11177491Y-16208388D02*
X11167968Y-16227436D01*
X11167968Y-16227436D02*
X11158444Y-16236960D01*
X11158444Y-16236960D02*
X11139396Y-16246484D01*
X11139396Y-16246484D02*
X11120348Y-16246484D01*
X11120348Y-16246484D02*
X11101301Y-16236960D01*
X11101301Y-16236960D02*
X11091777Y-16227436D01*
X11091777Y-16227436D02*
X11082253Y-16208388D01*
X11082253Y-16208388D02*
X11072729Y-16170293D01*
X11072729Y-16170293D02*
X11072729Y-16122674D01*
X11072729Y-16122674D02*
X11082253Y-16084579D01*
X11082253Y-16084579D02*
X11091777Y-16065531D01*
X11091777Y-16065531D02*
X11101301Y-16056008D01*
X11101301Y-16056008D02*
X11120348Y-16046484D01*
X11253682Y-16046484D02*
X11387015Y-16046484D01*
X11387015Y-16046484D02*
X11301301Y-16246484D01*
X11501301Y-16046484D02*
X11520348Y-16046484D01*
X11520348Y-16046484D02*
X11539396Y-16056008D01*
X11539396Y-16056008D02*
X11548920Y-16065531D01*
X11548920Y-16065531D02*
X11558444Y-16084579D01*
X11558444Y-16084579D02*
X11567967Y-16122674D01*
X11567967Y-16122674D02*
X11567967Y-16170293D01*
X11567967Y-16170293D02*
X11558444Y-16208388D01*
X11558444Y-16208388D02*
X11548920Y-16227436D01*
X11548920Y-16227436D02*
X11539396Y-16236960D01*
X11539396Y-16236960D02*
X11520348Y-16246484D01*
X11520348Y-16246484D02*
X11501301Y-16246484D01*
X11501301Y-16246484D02*
X11482253Y-16236960D01*
X11482253Y-16236960D02*
X11472729Y-16227436D01*
X11472729Y-16227436D02*
X11463206Y-16208388D01*
X11463206Y-16208388D02*
X11453682Y-16170293D01*
X11453682Y-16170293D02*
X11453682Y-16122674D01*
X11453682Y-16122674D02*
X11463206Y-16084579D01*
X11463206Y-16084579D02*
X11472729Y-16065531D01*
X11472729Y-16065531D02*
X11482253Y-16056008D01*
X11482253Y-16056008D02*
X11501301Y-16046484D01*
X11663206Y-16246484D02*
X11701301Y-16246484D01*
X11701301Y-16246484D02*
X11720348Y-16236960D01*
X11720348Y-16236960D02*
X11729872Y-16227436D01*
X11729872Y-16227436D02*
X11748920Y-16198865D01*
X11748920Y-16198865D02*
X11758444Y-16160769D01*
X11758444Y-16160769D02*
X11758444Y-16084579D01*
X11758444Y-16084579D02*
X11748920Y-16065531D01*
X11748920Y-16065531D02*
X11739396Y-16056008D01*
X11739396Y-16056008D02*
X11720348Y-16046484D01*
X11720348Y-16046484D02*
X11682253Y-16046484D01*
X11682253Y-16046484D02*
X11663206Y-16056008D01*
X11663206Y-16056008D02*
X11653682Y-16065531D01*
X11653682Y-16065531D02*
X11644158Y-16084579D01*
X11644158Y-16084579D02*
X11644158Y-16132198D01*
X11644158Y-16132198D02*
X11653682Y-16151246D01*
X11653682Y-16151246D02*
X11663206Y-16160769D01*
X11663206Y-16160769D02*
X11682253Y-16170293D01*
X11682253Y-16170293D02*
X11720348Y-16170293D01*
X11720348Y-16170293D02*
X11739396Y-16160769D01*
X11739396Y-16160769D02*
X11748920Y-16151246D01*
X11748920Y-16151246D02*
X11758444Y-16132198D01*
X11834634Y-16046484D02*
X11834634Y-16084579D01*
X11910825Y-16046484D02*
X11910825Y-16084579D01*
X12206063Y-16322674D02*
X12196539Y-16313150D01*
X12196539Y-16313150D02*
X12177491Y-16284579D01*
X12177491Y-16284579D02*
X12167968Y-16265531D01*
X12167968Y-16265531D02*
X12158444Y-16236960D01*
X12158444Y-16236960D02*
X12148920Y-16189341D01*
X12148920Y-16189341D02*
X12148920Y-16151246D01*
X12148920Y-16151246D02*
X12158444Y-16103627D01*
X12158444Y-16103627D02*
X12167968Y-16075055D01*
X12167968Y-16075055D02*
X12177491Y-16056008D01*
X12177491Y-16056008D02*
X12196539Y-16027436D01*
X12196539Y-16027436D02*
X12206063Y-16017912D01*
X12272729Y-16065531D02*
X12282253Y-16056008D01*
X12282253Y-16056008D02*
X12301301Y-16046484D01*
X12301301Y-16046484D02*
X12348920Y-16046484D01*
X12348920Y-16046484D02*
X12367968Y-16056008D01*
X12367968Y-16056008D02*
X12377491Y-16065531D01*
X12377491Y-16065531D02*
X12387015Y-16084579D01*
X12387015Y-16084579D02*
X12387015Y-16103627D01*
X12387015Y-16103627D02*
X12377491Y-16132198D01*
X12377491Y-16132198D02*
X12263206Y-16246484D01*
X12263206Y-16246484D02*
X12387015Y-16246484D01*
X12625110Y-16246484D02*
X12625110Y-16046484D01*
X12710825Y-16246484D02*
X12710825Y-16141722D01*
X12710825Y-16141722D02*
X12701301Y-16122674D01*
X12701301Y-16122674D02*
X12682253Y-16113150D01*
X12682253Y-16113150D02*
X12653682Y-16113150D01*
X12653682Y-16113150D02*
X12634634Y-16122674D01*
X12634634Y-16122674D02*
X12625110Y-16132198D01*
X12834634Y-16246484D02*
X12815587Y-16236960D01*
X12815587Y-16236960D02*
X12806063Y-16227436D01*
X12806063Y-16227436D02*
X12796539Y-16208388D01*
X12796539Y-16208388D02*
X12796539Y-16151246D01*
X12796539Y-16151246D02*
X12806063Y-16132198D01*
X12806063Y-16132198D02*
X12815587Y-16122674D01*
X12815587Y-16122674D02*
X12834634Y-16113150D01*
X12834634Y-16113150D02*
X12863206Y-16113150D01*
X12863206Y-16113150D02*
X12882253Y-16122674D01*
X12882253Y-16122674D02*
X12891777Y-16132198D01*
X12891777Y-16132198D02*
X12901301Y-16151246D01*
X12901301Y-16151246D02*
X12901301Y-16208388D01*
X12901301Y-16208388D02*
X12891777Y-16227436D01*
X12891777Y-16227436D02*
X12882253Y-16236960D01*
X12882253Y-16236960D02*
X12863206Y-16246484D01*
X12863206Y-16246484D02*
X12834634Y-16246484D01*
X13015587Y-16246484D02*
X12996539Y-16236960D01*
X12996539Y-16236960D02*
X12987015Y-16217912D01*
X12987015Y-16217912D02*
X12987015Y-16046484D01*
X13167968Y-16236960D02*
X13148920Y-16246484D01*
X13148920Y-16246484D02*
X13110825Y-16246484D01*
X13110825Y-16246484D02*
X13091777Y-16236960D01*
X13091777Y-16236960D02*
X13082253Y-16217912D01*
X13082253Y-16217912D02*
X13082253Y-16141722D01*
X13082253Y-16141722D02*
X13091777Y-16122674D01*
X13091777Y-16122674D02*
X13110825Y-16113150D01*
X13110825Y-16113150D02*
X13148920Y-16113150D01*
X13148920Y-16113150D02*
X13167968Y-16122674D01*
X13167968Y-16122674D02*
X13177491Y-16141722D01*
X13177491Y-16141722D02*
X13177491Y-16160769D01*
X13177491Y-16160769D02*
X13082253Y-16179817D01*
X13253682Y-16236960D02*
X13272730Y-16246484D01*
X13272730Y-16246484D02*
X13310825Y-16246484D01*
X13310825Y-16246484D02*
X13329872Y-16236960D01*
X13329872Y-16236960D02*
X13339396Y-16217912D01*
X13339396Y-16217912D02*
X13339396Y-16208388D01*
X13339396Y-16208388D02*
X13329872Y-16189341D01*
X13329872Y-16189341D02*
X13310825Y-16179817D01*
X13310825Y-16179817D02*
X13282253Y-16179817D01*
X13282253Y-16179817D02*
X13263206Y-16170293D01*
X13263206Y-16170293D02*
X13253682Y-16151246D01*
X13253682Y-16151246D02*
X13253682Y-16141722D01*
X13253682Y-16141722D02*
X13263206Y-16122674D01*
X13263206Y-16122674D02*
X13282253Y-16113150D01*
X13282253Y-16113150D02*
X13310825Y-16113150D01*
X13310825Y-16113150D02*
X13329872Y-16122674D01*
X13406063Y-16322674D02*
X13415587Y-16313150D01*
X13415587Y-16313150D02*
X13434634Y-16284579D01*
X13434634Y-16284579D02*
X13444158Y-16265531D01*
X13444158Y-16265531D02*
X13453682Y-16236960D01*
X13453682Y-16236960D02*
X13463206Y-16189341D01*
X13463206Y-16189341D02*
X13463206Y-16151246D01*
X13463206Y-16151246D02*
X13453682Y-16103627D01*
X13453682Y-16103627D02*
X13444158Y-16075055D01*
X13444158Y-16075055D02*
X13434634Y-16056008D01*
X13434634Y-16056008D02*
X13415587Y-16027436D01*
X13415587Y-16027436D02*
X13406063Y-16017912D01*
X13767968Y-16322674D02*
X13758444Y-16313150D01*
X13758444Y-16313150D02*
X13739396Y-16284579D01*
X13739396Y-16284579D02*
X13729872Y-16265531D01*
X13729872Y-16265531D02*
X13720349Y-16236960D01*
X13720349Y-16236960D02*
X13710825Y-16189341D01*
X13710825Y-16189341D02*
X13710825Y-16151246D01*
X13710825Y-16151246D02*
X13720349Y-16103627D01*
X13720349Y-16103627D02*
X13729872Y-16075055D01*
X13729872Y-16075055D02*
X13739396Y-16056008D01*
X13739396Y-16056008D02*
X13758444Y-16027436D01*
X13758444Y-16027436D02*
X13767968Y-16017912D01*
X13844158Y-16113150D02*
X13844158Y-16246484D01*
X13844158Y-16132198D02*
X13853682Y-16122674D01*
X13853682Y-16122674D02*
X13872730Y-16113150D01*
X13872730Y-16113150D02*
X13901301Y-16113150D01*
X13901301Y-16113150D02*
X13920349Y-16122674D01*
X13920349Y-16122674D02*
X13929872Y-16141722D01*
X13929872Y-16141722D02*
X13929872Y-16246484D01*
X14053682Y-16246484D02*
X14034634Y-16236960D01*
X14034634Y-16236960D02*
X14025111Y-16227436D01*
X14025111Y-16227436D02*
X14015587Y-16208388D01*
X14015587Y-16208388D02*
X14015587Y-16151246D01*
X14015587Y-16151246D02*
X14025111Y-16132198D01*
X14025111Y-16132198D02*
X14034634Y-16122674D01*
X14034634Y-16122674D02*
X14053682Y-16113150D01*
X14053682Y-16113150D02*
X14082253Y-16113150D01*
X14082253Y-16113150D02*
X14101301Y-16122674D01*
X14101301Y-16122674D02*
X14110825Y-16132198D01*
X14110825Y-16132198D02*
X14120349Y-16151246D01*
X14120349Y-16151246D02*
X14120349Y-16208388D01*
X14120349Y-16208388D02*
X14110825Y-16227436D01*
X14110825Y-16227436D02*
X14101301Y-16236960D01*
X14101301Y-16236960D02*
X14082253Y-16246484D01*
X14082253Y-16246484D02*
X14053682Y-16246484D01*
X14177492Y-16113150D02*
X14253682Y-16113150D01*
X14206063Y-16046484D02*
X14206063Y-16217912D01*
X14206063Y-16217912D02*
X14215587Y-16236960D01*
X14215587Y-16236960D02*
X14234634Y-16246484D01*
X14234634Y-16246484D02*
X14253682Y-16246484D01*
X14472730Y-16113150D02*
X14472730Y-16313150D01*
X14472730Y-16122674D02*
X14491777Y-16113150D01*
X14491777Y-16113150D02*
X14529873Y-16113150D01*
X14529873Y-16113150D02*
X14548920Y-16122674D01*
X14548920Y-16122674D02*
X14558444Y-16132198D01*
X14558444Y-16132198D02*
X14567968Y-16151246D01*
X14567968Y-16151246D02*
X14567968Y-16208388D01*
X14567968Y-16208388D02*
X14558444Y-16227436D01*
X14558444Y-16227436D02*
X14548920Y-16236960D01*
X14548920Y-16236960D02*
X14529873Y-16246484D01*
X14529873Y-16246484D02*
X14491777Y-16246484D01*
X14491777Y-16246484D02*
X14472730Y-16236960D01*
X14682253Y-16246484D02*
X14663206Y-16236960D01*
X14663206Y-16236960D02*
X14653682Y-16217912D01*
X14653682Y-16217912D02*
X14653682Y-16046484D01*
X14844158Y-16246484D02*
X14844158Y-16141722D01*
X14844158Y-16141722D02*
X14834634Y-16122674D01*
X14834634Y-16122674D02*
X14815587Y-16113150D01*
X14815587Y-16113150D02*
X14777492Y-16113150D01*
X14777492Y-16113150D02*
X14758444Y-16122674D01*
X14844158Y-16236960D02*
X14825111Y-16246484D01*
X14825111Y-16246484D02*
X14777492Y-16246484D01*
X14777492Y-16246484D02*
X14758444Y-16236960D01*
X14758444Y-16236960D02*
X14748920Y-16217912D01*
X14748920Y-16217912D02*
X14748920Y-16198865D01*
X14748920Y-16198865D02*
X14758444Y-16179817D01*
X14758444Y-16179817D02*
X14777492Y-16170293D01*
X14777492Y-16170293D02*
X14825111Y-16170293D01*
X14825111Y-16170293D02*
X14844158Y-16160769D01*
X14910825Y-16113150D02*
X14987015Y-16113150D01*
X14939396Y-16046484D02*
X14939396Y-16217912D01*
X14939396Y-16217912D02*
X14948920Y-16236960D01*
X14948920Y-16236960D02*
X14967968Y-16246484D01*
X14967968Y-16246484D02*
X14987015Y-16246484D01*
X15129873Y-16236960D02*
X15110825Y-16246484D01*
X15110825Y-16246484D02*
X15072730Y-16246484D01*
X15072730Y-16246484D02*
X15053682Y-16236960D01*
X15053682Y-16236960D02*
X15044158Y-16217912D01*
X15044158Y-16217912D02*
X15044158Y-16141722D01*
X15044158Y-16141722D02*
X15053682Y-16122674D01*
X15053682Y-16122674D02*
X15072730Y-16113150D01*
X15072730Y-16113150D02*
X15110825Y-16113150D01*
X15110825Y-16113150D02*
X15129873Y-16122674D01*
X15129873Y-16122674D02*
X15139396Y-16141722D01*
X15139396Y-16141722D02*
X15139396Y-16160769D01*
X15139396Y-16160769D02*
X15044158Y-16179817D01*
X15310825Y-16246484D02*
X15310825Y-16046484D01*
X15310825Y-16236960D02*
X15291777Y-16246484D01*
X15291777Y-16246484D02*
X15253682Y-16246484D01*
X15253682Y-16246484D02*
X15234634Y-16236960D01*
X15234634Y-16236960D02*
X15225111Y-16227436D01*
X15225111Y-16227436D02*
X15215587Y-16208388D01*
X15215587Y-16208388D02*
X15215587Y-16151246D01*
X15215587Y-16151246D02*
X15225111Y-16132198D01*
X15225111Y-16132198D02*
X15234634Y-16122674D01*
X15234634Y-16122674D02*
X15253682Y-16113150D01*
X15253682Y-16113150D02*
X15291777Y-16113150D01*
X15291777Y-16113150D02*
X15310825Y-16122674D01*
X15387015Y-16322674D02*
X15396539Y-16313150D01*
X15396539Y-16313150D02*
X15415587Y-16284579D01*
X15415587Y-16284579D02*
X15425111Y-16265531D01*
X15425111Y-16265531D02*
X15434634Y-16236960D01*
X15434634Y-16236960D02*
X15444158Y-16189341D01*
X15444158Y-16189341D02*
X15444158Y-16151246D01*
X15444158Y-16151246D02*
X15434634Y-16103627D01*
X15434634Y-16103627D02*
X15425111Y-16075055D01*
X15425111Y-16075055D02*
X15415587Y-16056008D01*
X15415587Y-16056008D02*
X15396539Y-16027436D01*
X15396539Y-16027436D02*
X15387015Y-16017912D01*
M02*
