M48
; DRILL file {KiCad 7.0.10} date Tue Jul 23 11:02:26 2024
; FORMAT={-:-/ absolute / inch / decimal}
; #@! TF.CreationDate,2024-07-23T11:02:26-06:00
; #@! TF.GenerationSoftware,Kicad,Pcbnew,7.0.10
; #@! TF.FileFunction,Plated,1,4,PTH
FMAT,2
INCH
; #@! TA.AperFunction,Plated,PTH,ViaDrill
T1C0.0157
; #@! TA.AperFunction,Plated,PTH,ComponentDrill
T2C0.0295
; #@! TA.AperFunction,Plated,PTH,ComponentDrill
T3C0.0315
; #@! TA.AperFunction,Plated,PTH,ComponentDrill
T4C0.0394
; #@! TA.AperFunction,Plated,PTH,ComponentDrill
T5C0.0402
; #@! TA.AperFunction,Plated,PTH,ComponentDrill
T6C0.0433
; #@! TA.AperFunction,Plated,PTH,ComponentDrill
T7C0.0630
; #@! TA.AperFunction,Plated,PTH,ComponentDrill
T8C0.0669
; #@! TA.AperFunction,Plated,PTH,ComponentDrill
T9C0.0827
; #@! TA.AperFunction,Plated,PTH,ComponentDrill
T10C0.1693
%
G90
G05
T1
X4.05Y-5.7
X6.325Y-4.25
X6.4Y-4.85
X6.55Y-5.55
T2
X5.4Y-3.8
X5.45Y-3.8
X5.5Y-3.8
X5.85Y-4.5892
X5.9Y-4.5892
X5.95Y-4.5892
X6.05Y-3.6
X6.05Y-3.65
X6.05Y-3.7
X6.2Y-5.3892
X6.25Y-5.3892
X6.3Y-5.3892
X6.375Y-4.5
X6.425Y-4.5
X6.475Y-4.5
X6.5Y-4.9
X6.55Y-4.9
X6.6Y-4.9
T3
X3.55Y-4.5016
X3.55Y-4.6984
X3.7266Y-4.4
X3.85Y-4.0
X3.9234Y-4.4
X3.95Y-4.0
X4.0998Y-4.0006
X4.0998Y-4.3006
X4.1998Y-4.0006
X4.1998Y-4.3006
X4.25Y-4.45
X4.2998Y-4.0006
X4.2998Y-4.3006
X4.35Y-4.45
X4.3998Y-4.0006
X4.3998Y-4.3006
X4.4998Y-4.0006
X4.4998Y-4.3006
X4.5998Y-4.0006
X4.5998Y-4.3006
X4.6998Y-4.0006
X4.6998Y-4.3006
X4.725Y-5.7
X4.725Y-5.8969
X4.9Y-4.4
X5.0Y-3.75
X5.0Y-3.85
X5.0Y-4.05
X5.0Y-4.4
X5.1Y-4.05
X5.25Y-3.75
X5.25Y-3.85
X5.5Y-3.3
X5.5Y-3.4
X5.65Y-5.9
X5.75Y-3.4
X5.75Y-3.65
X5.75Y-5.9
X5.85Y-3.4
X5.85Y-3.65
X5.85Y-4.85
X5.85Y-4.95
X5.95Y-5.2089
X5.95Y-5.3089
X6.075Y-4.9
X6.075Y-5.0
X6.1Y-4.475
X6.2Y-4.475
X6.2589Y-4.725
X6.35Y-5.85
X6.35Y-5.95
X6.3589Y-4.725
X6.5Y-5.3339
X6.5Y-5.4339
T4
X3.575Y-4.1
X3.575Y-4.2
X3.575Y-4.3
X4.05Y-5.9
X4.15Y-5.9
X4.25Y-5.9
X4.35Y-5.9
X4.45Y-5.9
X4.55Y-5.9
X5.0502Y-5.9
X5.125Y-3.2781
X5.125Y-3.475
X5.1502Y-5.9
X5.2502Y-5.9
X5.3Y-4.25
X5.3502Y-5.9
X5.4502Y-5.9
X5.4969Y-4.25
X5.9781Y-4.075
X6.175Y-4.075
X6.75Y-4.5
X6.9Y-5.45
X6.9Y-5.6
X6.9469Y-4.5
X7.0Y-5.45
X7.0Y-5.6
X7.1Y-5.45
X7.1Y-5.6
X7.15Y-4.7
X7.15Y-4.7984
X7.175Y-5.0498
X7.175Y-5.1498
T5
X3.7Y-4.75
X3.7Y-5.45
X3.8Y-4.75
X3.8Y-5.45
X3.9Y-4.75
X3.9Y-5.45
X4.0Y-4.75
X4.0Y-5.45
X4.1Y-4.75
X4.1Y-5.45
X4.2Y-4.75
X4.2Y-5.45
X4.3Y-4.75
X4.3Y-5.45
X4.4Y-4.75
X4.4Y-5.45
X4.5Y-4.75
X4.5Y-5.45
X4.6Y-4.75
X4.6Y-5.45
X4.7Y-4.75
X4.7Y-5.45
X4.8Y-4.75
X4.8Y-5.45
X4.9Y-4.75
X4.9Y-5.45
X5.0Y-4.75
X5.0Y-5.45
X5.1Y-4.75
X5.1Y-5.45
X5.2Y-4.75
X5.2Y-5.45
X5.3Y-4.75
X5.3Y-5.45
X5.4Y-4.75
X5.4Y-5.45
X5.5Y-4.75
X5.5Y-5.45
X5.5909Y-5.0
X5.5909Y-5.1
X5.5909Y-5.2
X5.6Y-4.75
X5.6Y-5.45
X5.9Y-5.9
X6.0Y-5.9
X6.1Y-5.9
X6.2Y-5.9
X6.5Y-5.9118
X6.6Y-5.9118
X6.7Y-5.9118
X6.8Y-5.9118
T6
X3.8841Y-3.3602
X4.2841Y-3.3602
X4.75Y-3.55
X4.75Y-3.65
X4.75Y-3.75
X5.7Y-4.0
X5.7Y-4.1
X5.7Y-4.2
X5.85Y-3.1628
X5.95Y-3.1628
X6.05Y-3.1628
X6.55Y-3.3602
X6.725Y-4.825
X6.725Y-5.225
X6.9Y-4.025
X6.95Y-3.3602
X6.975Y-4.875
X6.975Y-5.275
X7.0Y-4.025
X7.1Y-4.025
T7
X3.625Y-3.7
X4.225Y-3.7
X6.55Y-3.75
X7.15Y-3.75
T8
X5.2509Y-2.5801
X5.5009Y-2.9541
T9
X3.7341Y-2.8602
X4.4341Y-2.4602
X4.4341Y-2.7602
X6.4Y-2.8602
X7.1Y-2.4602
X7.1Y-2.7602
T10
X3.65Y-5.9
X4.85Y-2.45
X5.95Y-2.45
X7.1Y-5.9
M30
