%TF.GenerationSoftware,KiCad,Pcbnew,7.0.10*%
%TF.CreationDate,2024-07-19T11:31:08-06:00*%
%TF.ProjectId,Pressure-Controlled-Power-Outlet-control-PCB,50726573-7375-4726-952d-436f6e74726f,V1.1.1*%
%TF.SameCoordinates,Original*%
%TF.FileFunction,Soldermask,Top*%
%TF.FilePolarity,Negative*%
%FSLAX46Y46*%
G04 Gerber Fmt 4.6, Leading zero omitted, Abs format (unit mm)*
G04 Created by KiCad (PCBNEW 7.0.10) date 2024-07-19 11:31:08*
%MOMM*%
%LPD*%
G01*
G04 APERTURE LIST*
%ADD10R,1.700000X1.700000*%
%ADD11O,1.700000X1.700000*%
%ADD12C,1.600000*%
%ADD13O,1.600000X1.600000*%
%ADD14R,1.600000X1.600000*%
%ADD15C,4.400000*%
%ADD16R,2.000000X1.905000*%
%ADD17O,2.000000X1.905000*%
%ADD18R,1.905000X2.000000*%
%ADD19O,1.905000X2.000000*%
%ADD20R,3.200000X3.200000*%
%ADD21O,3.200000X3.200000*%
%ADD22R,3.150000X3.150000*%
%ADD23C,3.150000*%
%ADD24C,1.650000*%
%ADD25R,1.500000X1.050000*%
%ADD26O,1.500000X1.050000*%
%ADD27C,2.550000*%
%ADD28O,1.800000X1.800000*%
%ADD29O,1.500000X1.500000*%
%ADD30R,1.700000X3.500000*%
%ADD31R,3.500000X1.700000*%
%ADD32R,2.400000X1.600000*%
%ADD33O,2.400000X1.600000*%
G04 APERTURE END LIST*
D10*
%TO.C,J4*%
X102870000Y-147320000D03*
D11*
X105410000Y-147320000D03*
X107950000Y-147320000D03*
X110490000Y-147320000D03*
X113030000Y-147320000D03*
X115570000Y-147320000D03*
%TD*%
D10*
%TO.C,J3*%
X128275000Y-147320000D03*
D11*
X130815000Y-147320000D03*
X133355000Y-147320000D03*
X135895000Y-147320000D03*
X138435000Y-147320000D03*
%TD*%
D12*
%TO.C,R1*%
X177800000Y-131445000D03*
D13*
X175260000Y-131445000D03*
%TD*%
D12*
%TO.C,C3*%
X147320000Y-102870000D03*
D14*
X144820000Y-102870000D03*
%TD*%
D12*
%TO.C,R2*%
X176530000Y-124460000D03*
D13*
X179070000Y-124460000D03*
%TD*%
D12*
%TO.C,C2*%
X147320000Y-110490000D03*
D14*
X145320000Y-110490000D03*
%TD*%
%TO.C,C1*%
X120960000Y-80010000D03*
D12*
X124460000Y-80010000D03*
%TD*%
D10*
%TO.C,J1*%
X172720000Y-137160000D03*
D11*
X172720000Y-139700000D03*
X172720000Y-142240000D03*
%TD*%
D15*
%TO.C,H3*%
X152400000Y-71120000D03*
%TD*%
%TO.C,H2*%
X91440000Y-147320000D03*
%TD*%
%TO.C,H1*%
X181610000Y-147320000D03*
%TD*%
%TO.C,H4*%
X123190000Y-71120000D03*
%TD*%
D16*
%TO.C,Q3*%
X150805000Y-83820000D03*
D17*
X150805000Y-81280000D03*
X150805000Y-78740000D03*
%TD*%
D18*
%TO.C,Q2*%
X119380000Y-91115000D03*
D19*
X121920000Y-91115000D03*
X124460000Y-91115000D03*
%TD*%
D20*
%TO.C,D1*%
X106680000Y-104140000D03*
D21*
X91440000Y-104140000D03*
%TD*%
D22*
%TO.C,K1*%
X112625000Y-72390000D03*
D23*
X112625000Y-80010000D03*
D24*
X108815000Y-95250000D03*
X98655000Y-95250000D03*
D23*
X94845000Y-82550000D03*
%TD*%
D12*
%TO.C,R3*%
X114300000Y-113030000D03*
D13*
X116840000Y-113030000D03*
%TD*%
D20*
%TO.C,D2*%
X181610000Y-104140000D03*
D21*
X166370000Y-104140000D03*
%TD*%
D12*
%TO.C,R8*%
X125730000Y-105410000D03*
D13*
X123190000Y-105410000D03*
%TD*%
D25*
%TO.C,Q1*%
X173990000Y-113030000D03*
D26*
X173990000Y-114300000D03*
X173990000Y-115570000D03*
%TD*%
D12*
%TO.C,R9*%
X165100000Y-114300000D03*
D13*
X167640000Y-114300000D03*
%TD*%
D12*
%TO.C,R6*%
X153670000Y-91440000D03*
D13*
X153670000Y-93980000D03*
%TD*%
D16*
%TO.C,U3*%
X151455000Y-102870000D03*
D17*
X151455000Y-105410000D03*
X151455000Y-107950000D03*
%TD*%
D27*
%TO.C,J2*%
X139722500Y-87475000D03*
X133372500Y-77975000D03*
%TD*%
D12*
%TO.C,R7*%
X130810000Y-96520000D03*
D13*
X130810000Y-99060000D03*
%TD*%
D22*
%TO.C,K2*%
X180340000Y-72390000D03*
D23*
X180340000Y-80010000D03*
D24*
X176530000Y-95250000D03*
X166370000Y-95250000D03*
D23*
X162560000Y-82550000D03*
%TD*%
D28*
%TO.C,U1*%
X94110000Y-132265000D03*
D29*
X97140000Y-131965000D03*
X97140000Y-127115000D03*
D28*
X94110000Y-126815000D03*
D11*
X93980000Y-138430000D03*
D30*
X93980000Y-139330000D03*
D11*
X96520000Y-138430000D03*
D30*
X96520000Y-139330000D03*
D10*
X99060000Y-138430000D03*
D30*
X99060000Y-139330000D03*
D11*
X101600000Y-138430000D03*
D30*
X101600000Y-139330000D03*
D11*
X104140000Y-138430000D03*
D30*
X104140000Y-139330000D03*
D11*
X106680000Y-138430000D03*
D30*
X106680000Y-139330000D03*
D11*
X109220000Y-138430000D03*
D30*
X109220000Y-139330000D03*
D10*
X111760000Y-138430000D03*
D30*
X111760000Y-139330000D03*
D11*
X114300000Y-138430000D03*
D30*
X114300000Y-139330000D03*
D11*
X116840000Y-138430000D03*
D30*
X116840000Y-139330000D03*
D11*
X119380000Y-138430000D03*
D30*
X119380000Y-139330000D03*
D11*
X121920000Y-138430000D03*
D30*
X121920000Y-139330000D03*
D10*
X124460000Y-138430000D03*
D30*
X124460000Y-139330000D03*
D11*
X127000000Y-138430000D03*
D30*
X127000000Y-139330000D03*
D11*
X129540000Y-138430000D03*
D30*
X129540000Y-139330000D03*
D11*
X132080000Y-138430000D03*
D30*
X132080000Y-139330000D03*
D11*
X134620000Y-138430000D03*
D30*
X134620000Y-139330000D03*
D10*
X137160000Y-138430000D03*
D30*
X137160000Y-139330000D03*
D11*
X139700000Y-138430000D03*
D30*
X139700000Y-139330000D03*
D11*
X142240000Y-138430000D03*
D30*
X142240000Y-139330000D03*
D11*
X142240000Y-120650000D03*
D30*
X142240000Y-119750000D03*
D11*
X139700000Y-120650000D03*
D30*
X139700000Y-119750000D03*
D10*
X137160000Y-120650000D03*
D30*
X137160000Y-119750000D03*
D11*
X134620000Y-120650000D03*
D30*
X134620000Y-119750000D03*
D11*
X132080000Y-120650000D03*
D30*
X132080000Y-119750000D03*
D11*
X129540000Y-120650000D03*
D30*
X129540000Y-119750000D03*
D11*
X127000000Y-120650000D03*
D30*
X127000000Y-119750000D03*
D10*
X124460000Y-120650000D03*
D30*
X124460000Y-119750000D03*
D11*
X121920000Y-120650000D03*
D30*
X121920000Y-119750000D03*
D11*
X119380000Y-120650000D03*
D30*
X119380000Y-119750000D03*
D11*
X116840000Y-120650000D03*
D30*
X116840000Y-119750000D03*
D11*
X114300000Y-120650000D03*
D30*
X114300000Y-119750000D03*
D10*
X111760000Y-120650000D03*
D30*
X111760000Y-119750000D03*
D11*
X109220000Y-120650000D03*
D30*
X109220000Y-119750000D03*
D11*
X106680000Y-120650000D03*
D30*
X106680000Y-119750000D03*
D11*
X104140000Y-120650000D03*
D30*
X104140000Y-119750000D03*
D11*
X101600000Y-120650000D03*
D30*
X101600000Y-119750000D03*
D10*
X99060000Y-120650000D03*
D30*
X99060000Y-119750000D03*
D11*
X96520000Y-120650000D03*
D30*
X96520000Y-119750000D03*
D11*
X93980000Y-120650000D03*
D30*
X93980000Y-119750000D03*
D11*
X142010000Y-132080000D03*
D31*
X142910000Y-132080000D03*
D10*
X142010000Y-129540000D03*
D31*
X142910000Y-129540000D03*
D11*
X142010000Y-127000000D03*
D31*
X142910000Y-127000000D03*
%TD*%
D12*
%TO.C,R5*%
X148590000Y-93980000D03*
D13*
X148590000Y-91440000D03*
%TD*%
D32*
%TO.C,U2*%
X160035000Y-135895000D03*
D33*
X160035000Y-133355000D03*
X160035000Y-130815000D03*
X160035000Y-128275000D03*
X160035000Y-125735000D03*
X160035000Y-123195000D03*
X160035000Y-120655000D03*
X152415000Y-120655000D03*
X152415000Y-123195000D03*
X152415000Y-125735000D03*
X152415000Y-128275000D03*
X152415000Y-130815000D03*
X152415000Y-133355000D03*
X152415000Y-135895000D03*
%TD*%
D25*
%TO.C,Q4*%
X116840000Y-104140000D03*
D26*
X116840000Y-105410000D03*
X116840000Y-106680000D03*
%TD*%
D12*
%TO.C,R4*%
X123190000Y-99060000D03*
D13*
X123190000Y-96520000D03*
%TD*%
M02*
