%TF.GenerationSoftware,KiCad,Pcbnew,7.0.10*%
%TF.CreationDate,2024-07-19T13:24:47-06:00*%
%TF.ProjectId,Pressure-Controlled-Power-Outlet-control-PCB,50726573-7375-4726-952d-436f6e74726f,V1.1.1*%
%TF.SameCoordinates,Original*%
%TF.FileFunction,Copper,L1,Top*%
%TF.FilePolarity,Positive*%
%FSLAX46Y46*%
G04 Gerber Fmt 4.6, Leading zero omitted, Abs format (unit mm)*
G04 Created by KiCad (PCBNEW 7.0.10) date 2024-07-19 13:24:47*
%MOMM*%
%LPD*%
G01*
G04 APERTURE LIST*
%TA.AperFunction,ComponentPad*%
%ADD10R,1.700000X1.700000*%
%TD*%
%TA.AperFunction,ComponentPad*%
%ADD11O,1.700000X1.700000*%
%TD*%
%TA.AperFunction,ComponentPad*%
%ADD12C,1.600000*%
%TD*%
%TA.AperFunction,ComponentPad*%
%ADD13O,1.600000X1.600000*%
%TD*%
%TA.AperFunction,ComponentPad*%
%ADD14R,1.600000X1.600000*%
%TD*%
%TA.AperFunction,ComponentPad*%
%ADD15C,4.400000*%
%TD*%
%TA.AperFunction,ComponentPad*%
%ADD16R,2.000000X1.905000*%
%TD*%
%TA.AperFunction,ComponentPad*%
%ADD17O,2.000000X1.905000*%
%TD*%
%TA.AperFunction,ComponentPad*%
%ADD18R,1.905000X2.000000*%
%TD*%
%TA.AperFunction,ComponentPad*%
%ADD19O,1.905000X2.000000*%
%TD*%
%TA.AperFunction,ComponentPad*%
%ADD20R,3.200000X3.200000*%
%TD*%
%TA.AperFunction,ComponentPad*%
%ADD21O,3.200000X3.200000*%
%TD*%
%TA.AperFunction,ComponentPad*%
%ADD22R,3.150000X3.150000*%
%TD*%
%TA.AperFunction,ComponentPad*%
%ADD23C,3.150000*%
%TD*%
%TA.AperFunction,ComponentPad*%
%ADD24C,1.650000*%
%TD*%
%TA.AperFunction,ComponentPad*%
%ADD25R,1.500000X1.050000*%
%TD*%
%TA.AperFunction,ComponentPad*%
%ADD26O,1.500000X1.050000*%
%TD*%
%TA.AperFunction,ComponentPad*%
%ADD27C,2.550000*%
%TD*%
%TA.AperFunction,SMDPad,CuDef*%
%ADD28R,1.700000X3.500000*%
%TD*%
%TA.AperFunction,SMDPad,CuDef*%
%ADD29R,3.500000X1.700000*%
%TD*%
%TA.AperFunction,ComponentPad*%
%ADD30R,2.400000X1.600000*%
%TD*%
%TA.AperFunction,ComponentPad*%
%ADD31O,2.400000X1.600000*%
%TD*%
%TA.AperFunction,Conductor*%
%ADD32C,0.250000*%
%TD*%
%TA.AperFunction,Conductor*%
%ADD33C,1.000000*%
%TD*%
G04 APERTURE END LIST*
D10*
%TO.P,J4,1,Pin_1*%
%TO.N,+5V*%
X102870000Y-147320000D03*
D11*
%TO.P,J4,2,Pin_2*%
%TO.N,+3.3V*%
X105410000Y-147320000D03*
%TO.P,J4,3,Pin_3*%
%TO.N,/SPI1_RX*%
X107950000Y-147320000D03*
%TO.P,J4,4,Pin_4*%
%TO.N,/SPI1_TX*%
X110490000Y-147320000D03*
%TO.P,J4,5,Pin_5*%
%TO.N,/SPI1_CSn*%
X113030000Y-147320000D03*
%TO.P,J4,6,Pin_6*%
%TO.N,GND*%
X115570000Y-147320000D03*
%TD*%
D10*
%TO.P,J3,1,Pin_1*%
%TO.N,+5V*%
X128275000Y-147320000D03*
D11*
%TO.P,J3,2,Pin_2*%
%TO.N,+3.3V*%
X130815000Y-147320000D03*
%TO.P,J3,3,Pin_3*%
%TO.N,/I2C0_SDA*%
X133355000Y-147320000D03*
%TO.P,J3,4,Pin_4*%
%TO.N,/I2C0_SCL*%
X135895000Y-147320000D03*
%TO.P,J3,5,Pin_5*%
%TO.N,GND*%
X138435000Y-147320000D03*
%TD*%
D12*
%TO.P,R1,1*%
%TO.N,/Water Pressure 5V*%
X177800000Y-131445000D03*
D13*
%TO.P,R1,2*%
%TO.N,Net-(U2A-+)*%
X175260000Y-131445000D03*
%TD*%
D12*
%TO.P,C3,2*%
%TO.N,GND*%
X147320000Y-102870000D03*
D14*
%TO.P,C3,1*%
%TO.N,+24V*%
X144820000Y-102870000D03*
%TD*%
D12*
%TO.P,R2,1*%
%TO.N,Net-(U2A-+)*%
X176530000Y-124460000D03*
D13*
%TO.P,R2,2*%
%TO.N,GND*%
X179070000Y-124460000D03*
%TD*%
D12*
%TO.P,C2,2*%
%TO.N,GND*%
X147320000Y-110490000D03*
D14*
%TO.P,C2,1*%
%TO.N,+5V*%
X145320000Y-110490000D03*
%TD*%
%TO.P,C1,1*%
%TO.N,+24V*%
X120960000Y-80010000D03*
D12*
%TO.P,C1,2*%
%TO.N,GND*%
X124460000Y-80010000D03*
%TD*%
D10*
%TO.P,J1,1,Pin_1*%
%TO.N,/Water Pressure 5V*%
X172720000Y-137160000D03*
D11*
%TO.P,J1,2,Pin_2*%
%TO.N,+5V*%
X172720000Y-139700000D03*
%TO.P,J1,3,Pin_3*%
%TO.N,GND*%
X172720000Y-142240000D03*
%TD*%
D15*
%TO.P,H3,1,1*%
%TO.N,GND*%
X152400000Y-71120000D03*
%TD*%
%TO.P,H2,1,1*%
%TO.N,GND*%
X91440000Y-147320000D03*
%TD*%
%TO.P,H1,1,1*%
%TO.N,GND*%
X181610000Y-147320000D03*
%TD*%
%TO.P,H4,1,1*%
%TO.N,GND*%
X123190000Y-71120000D03*
%TD*%
D16*
%TO.P,Q3,1,G*%
%TO.N,Net-(Q3-G)*%
X150805000Y-83820000D03*
D17*
%TO.P,Q3,2,D*%
%TO.N,Net-(D2-A)*%
X150805000Y-81280000D03*
%TO.P,Q3,3,S*%
%TO.N,GND*%
X150805000Y-78740000D03*
%TD*%
D18*
%TO.P,Q2,1,G*%
%TO.N,Net-(Q2-G)*%
X119380000Y-91115000D03*
D19*
%TO.P,Q2,2,D*%
%TO.N,Net-(D1-A)*%
X121920000Y-91115000D03*
%TO.P,Q2,3,S*%
%TO.N,GND*%
X124460000Y-91115000D03*
%TD*%
D20*
%TO.P,D1,1,K*%
%TO.N,+24V*%
X106680000Y-104140000D03*
D21*
%TO.P,D1,2,A*%
%TO.N,Net-(D1-A)*%
X91440000Y-104140000D03*
%TD*%
D22*
%TO.P,K1,1,NC*%
%TO.N,unconnected-(K1-NC-Pad1)*%
X112625000Y-72390000D03*
D23*
%TO.P,K1,2,NO*%
%TO.N,unconnected-(K1-NO-Pad2)*%
X112625000Y-80010000D03*
D24*
%TO.P,K1,3,COIL_1*%
%TO.N,+24V*%
X108815000Y-95250000D03*
%TO.P,K1,4,COIL_2*%
%TO.N,Net-(D1-A)*%
X98655000Y-95250000D03*
D23*
%TO.P,K1,5,COM*%
%TO.N,unconnected-(K1-COM-Pad5)*%
X94845000Y-82550000D03*
%TD*%
D12*
%TO.P,R3,1*%
%TO.N,Net-(U1-AGND)*%
X114300000Y-113030000D03*
D13*
%TO.P,R3,2*%
%TO.N,GND*%
X116840000Y-113030000D03*
%TD*%
D20*
%TO.P,D2,1,K*%
%TO.N,+24V*%
X181610000Y-104140000D03*
D21*
%TO.P,D2,2,A*%
%TO.N,Net-(D2-A)*%
X166370000Y-104140000D03*
%TD*%
D12*
%TO.P,R8,1*%
%TO.N,/Activate_Live*%
X125730000Y-105410000D03*
D13*
%TO.P,R8,2*%
%TO.N,Net-(Q4-B)*%
X123190000Y-105410000D03*
%TD*%
D25*
%TO.P,Q1,1,E*%
%TO.N,Net-(Q1-E)*%
X173990000Y-113030000D03*
D26*
%TO.P,Q1,2,B*%
%TO.N,Net-(Q1-B)*%
X173990000Y-114300000D03*
%TO.P,Q1,3,C*%
%TO.N,+5V*%
X173990000Y-115570000D03*
%TD*%
D12*
%TO.P,R9,1*%
%TO.N,/Activate_Neutral*%
X165100000Y-114300000D03*
D13*
%TO.P,R9,2*%
%TO.N,Net-(Q1-B)*%
X167640000Y-114300000D03*
%TD*%
D12*
%TO.P,R6,1*%
%TO.N,GND*%
X153670000Y-91440000D03*
D13*
%TO.P,R6,2*%
%TO.N,Net-(Q1-E)*%
X153670000Y-93980000D03*
%TD*%
D16*
%TO.P,U3,1,VI*%
%TO.N,+24V*%
X151455000Y-102870000D03*
D17*
%TO.P,U3,2,GND*%
%TO.N,GND*%
X151455000Y-105410000D03*
%TO.P,U3,3,VO*%
%TO.N,+5V*%
X151455000Y-107950000D03*
%TD*%
D27*
%TO.P,J2,1,1*%
%TO.N,GND*%
X139722500Y-87475000D03*
%TO.P,J2,2,2*%
%TO.N,+24V*%
X133372500Y-77975000D03*
%TD*%
D12*
%TO.P,R7,1*%
%TO.N,GND*%
X130810000Y-96520000D03*
D13*
%TO.P,R7,2*%
%TO.N,Net-(Q4-E)*%
X130810000Y-99060000D03*
%TD*%
D22*
%TO.P,K2,1,NC*%
%TO.N,unconnected-(K2-NC-Pad1)*%
X180340000Y-72390000D03*
D23*
%TO.P,K2,2,NO*%
%TO.N,unconnected-(K2-NO-Pad2)*%
X180340000Y-80010000D03*
D24*
%TO.P,K2,3,COIL_1*%
%TO.N,+24V*%
X176530000Y-95250000D03*
%TO.P,K2,4,COIL_2*%
%TO.N,Net-(D2-A)*%
X166370000Y-95250000D03*
D23*
%TO.P,K2,5,COM*%
%TO.N,unconnected-(K2-COM-Pad5)*%
X162560000Y-82550000D03*
%TD*%
D11*
%TO.P,U1,1,GPIO0*%
%TO.N,/Activate_Live*%
X93980000Y-138430000D03*
D28*
X93980000Y-139330000D03*
D11*
%TO.P,U1,2,GPIO1*%
%TO.N,/Activate_Neutral*%
X96520000Y-138430000D03*
D28*
X96520000Y-139330000D03*
D10*
%TO.P,U1,3,GND*%
%TO.N,GND*%
X99060000Y-138430000D03*
D28*
X99060000Y-139330000D03*
D11*
%TO.P,U1,4,GPIO2*%
%TO.N,unconnected-(U1-GPIO2-Pad4)*%
X101600000Y-138430000D03*
D28*
X101600000Y-139330000D03*
D11*
%TO.P,U1,5,GPIO3*%
%TO.N,unconnected-(U1-GPIO3-Pad5)*%
X104140000Y-138430000D03*
D28*
X104140000Y-139330000D03*
D11*
%TO.P,U1,6,GPIO4*%
%TO.N,/I2C0_SDA*%
X106680000Y-138430000D03*
D28*
X106680000Y-139330000D03*
D11*
%TO.P,U1,7,GPIO5*%
%TO.N,/I2C0_SCL*%
X109220000Y-138430000D03*
D28*
X109220000Y-139330000D03*
D10*
%TO.P,U1,8,GND*%
%TO.N,GND*%
X111760000Y-138430000D03*
D28*
X111760000Y-139330000D03*
D11*
%TO.P,U1,9,GPIO6*%
%TO.N,unconnected-(U1-GPIO6-Pad9)*%
X114300000Y-138430000D03*
D28*
X114300000Y-139330000D03*
D11*
%TO.P,U1,10,GPIO7*%
%TO.N,unconnected-(U1-GPIO7-Pad10)*%
X116840000Y-138430000D03*
D28*
X116840000Y-139330000D03*
D11*
%TO.P,U1,11,GPIO8*%
%TO.N,/SPI1_RX*%
X119380000Y-138430000D03*
D28*
X119380000Y-139330000D03*
D11*
%TO.P,U1,12,GPIO9*%
%TO.N,/SPI1_CSn*%
X121920000Y-138430000D03*
D28*
X121920000Y-139330000D03*
D10*
%TO.P,U1,13,GND*%
%TO.N,GND*%
X124460000Y-138430000D03*
D28*
X124460000Y-139330000D03*
D11*
%TO.P,U1,14,GPIO10*%
%TO.N,/SPI1_TX*%
X127000000Y-138430000D03*
D28*
X127000000Y-139330000D03*
D11*
%TO.P,U1,15,GPIO11*%
%TO.N,unconnected-(U1-GPIO11-Pad15)*%
X129540000Y-138430000D03*
D28*
X129540000Y-139330000D03*
D11*
%TO.P,U1,16,GPIO12*%
%TO.N,unconnected-(U1-GPIO12-Pad16)*%
X132080000Y-138430000D03*
D28*
X132080000Y-139330000D03*
D11*
%TO.P,U1,17,GPIO13*%
%TO.N,unconnected-(U1-GPIO13-Pad17)*%
X134620000Y-138430000D03*
D28*
X134620000Y-139330000D03*
D10*
%TO.P,U1,18,GND*%
%TO.N,GND*%
X137160000Y-138430000D03*
D28*
X137160000Y-139330000D03*
D11*
%TO.P,U1,19,GPIO14*%
%TO.N,unconnected-(U1-GPIO14-Pad19)*%
X139700000Y-138430000D03*
D28*
X139700000Y-139330000D03*
D11*
%TO.P,U1,20,GPIO15*%
%TO.N,unconnected-(U1-GPIO15-Pad20)*%
X142240000Y-138430000D03*
D28*
X142240000Y-139330000D03*
D11*
%TO.P,U1,21,GPIO16*%
%TO.N,unconnected-(U1-GPIO16-Pad21)*%
X142240000Y-120650000D03*
D28*
X142240000Y-119750000D03*
D11*
%TO.P,U1,22,GPIO17*%
%TO.N,unconnected-(U1-GPIO17-Pad22)*%
X139700000Y-120650000D03*
D28*
X139700000Y-119750000D03*
D10*
%TO.P,U1,23,GND*%
%TO.N,GND*%
X137160000Y-120650000D03*
D28*
X137160000Y-119750000D03*
D11*
%TO.P,U1,24,GPIO18*%
%TO.N,unconnected-(U1-GPIO18-Pad24)*%
X134620000Y-120650000D03*
D28*
X134620000Y-119750000D03*
D11*
%TO.P,U1,25,GPIO19*%
%TO.N,unconnected-(U1-GPIO19-Pad25)*%
X132080000Y-120650000D03*
D28*
X132080000Y-119750000D03*
D11*
%TO.P,U1,26,GPIO20*%
%TO.N,unconnected-(U1-GPIO20-Pad26)*%
X129540000Y-120650000D03*
D28*
X129540000Y-119750000D03*
D11*
%TO.P,U1,27,GPIO21*%
%TO.N,unconnected-(U1-GPIO21-Pad27)*%
X127000000Y-120650000D03*
D28*
X127000000Y-119750000D03*
D10*
%TO.P,U1,28,GND*%
%TO.N,GND*%
X124460000Y-120650000D03*
D28*
X124460000Y-119750000D03*
D11*
%TO.P,U1,29,GPIO22*%
%TO.N,unconnected-(U1-GPIO22-Pad29)*%
X121920000Y-120650000D03*
D28*
X121920000Y-119750000D03*
D11*
%TO.P,U1,30,RUN*%
%TO.N,unconnected-(U1-RUN-Pad30)*%
X119380000Y-120650000D03*
D28*
X119380000Y-119750000D03*
D11*
%TO.P,U1,31,GPIO26_ADC0*%
%TO.N,/ADC0*%
X116840000Y-120650000D03*
D28*
X116840000Y-119750000D03*
D11*
%TO.P,U1,32,GPIO27_ADC1*%
%TO.N,unconnected-(U1-GPIO27_ADC1-Pad32)*%
X114300000Y-120650000D03*
D28*
X114300000Y-119750000D03*
D10*
%TO.P,U1,33,AGND*%
%TO.N,Net-(U1-AGND)*%
X111760000Y-120650000D03*
D28*
X111760000Y-119750000D03*
D11*
%TO.P,U1,34,GPIO28_ADC2*%
%TO.N,unconnected-(U1-GPIO28_ADC2-Pad34)*%
X109220000Y-120650000D03*
D28*
X109220000Y-119750000D03*
D11*
%TO.P,U1,35,ADC_VREF*%
%TO.N,unconnected-(U1-ADC_VREF-Pad35)*%
X106680000Y-120650000D03*
D28*
X106680000Y-119750000D03*
D11*
%TO.P,U1,36,3V3*%
%TO.N,+3.3V*%
X104140000Y-120650000D03*
D28*
X104140000Y-119750000D03*
D11*
%TO.P,U1,37,3V3_EN*%
%TO.N,unconnected-(U1-3V3_EN-Pad37)*%
X101600000Y-120650000D03*
D28*
X101600000Y-119750000D03*
D10*
%TO.P,U1,38,GND*%
%TO.N,GND*%
X99060000Y-120650000D03*
D28*
X99060000Y-119750000D03*
D11*
%TO.P,U1,39,VSYS*%
%TO.N,unconnected-(U1-VSYS-Pad39)*%
X96520000Y-120650000D03*
D28*
X96520000Y-119750000D03*
D11*
%TO.P,U1,40,VBUS*%
%TO.N,+5V*%
X93980000Y-120650000D03*
D28*
X93980000Y-119750000D03*
D11*
%TO.P,U1,41,SWCLK*%
%TO.N,unconnected-(U1-SWCLK-Pad41)*%
X142010000Y-132080000D03*
D29*
X142910000Y-132080000D03*
D10*
%TO.P,U1,42,GND*%
%TO.N,GND*%
X142010000Y-129540000D03*
D29*
X142910000Y-129540000D03*
D11*
%TO.P,U1,43,SWDIO*%
%TO.N,unconnected-(U1-SWDIO-Pad43)*%
X142010000Y-127000000D03*
D29*
X142910000Y-127000000D03*
%TD*%
D12*
%TO.P,R5,1*%
%TO.N,Net-(Q1-E)*%
X148590000Y-93980000D03*
D13*
%TO.P,R5,2*%
%TO.N,Net-(Q3-G)*%
X148590000Y-91440000D03*
%TD*%
D30*
%TO.P,U2,1*%
%TO.N,/ADC0*%
X160035000Y-135895000D03*
D31*
%TO.P,U2,2,-*%
X160035000Y-133355000D03*
%TO.P,U2,3,+*%
%TO.N,Net-(U2A-+)*%
X160035000Y-130815000D03*
%TO.P,U2,4,V+*%
%TO.N,+5V*%
X160035000Y-128275000D03*
%TO.P,U2,5*%
%TO.N,N/C*%
X160035000Y-125735000D03*
%TO.P,U2,6*%
X160035000Y-123195000D03*
%TO.P,U2,7*%
X160035000Y-120655000D03*
%TO.P,U2,8*%
X152415000Y-120655000D03*
%TO.P,U2,9*%
X152415000Y-123195000D03*
%TO.P,U2,10*%
X152415000Y-125735000D03*
%TO.P,U2,11,V-*%
%TO.N,GND*%
X152415000Y-128275000D03*
%TO.P,U2,12*%
%TO.N,N/C*%
X152415000Y-130815000D03*
%TO.P,U2,13*%
X152415000Y-133355000D03*
%TO.P,U2,14*%
X152415000Y-135895000D03*
%TD*%
D25*
%TO.P,Q4,1,E*%
%TO.N,Net-(Q4-E)*%
X116840000Y-104140000D03*
D26*
%TO.P,Q4,2,B*%
%TO.N,Net-(Q4-B)*%
X116840000Y-105410000D03*
%TO.P,Q4,3,C*%
%TO.N,+5V*%
X116840000Y-106680000D03*
%TD*%
D12*
%TO.P,R4,1*%
%TO.N,Net-(Q4-E)*%
X123190000Y-99060000D03*
D13*
%TO.P,R4,2*%
%TO.N,Net-(Q2-G)*%
X123190000Y-96520000D03*
%TD*%
D32*
%TO.N,/SPI1_TX*%
X127000000Y-140040000D02*
X127000000Y-138430000D01*
X117180000Y-149860000D02*
X127000000Y-140040000D01*
X113030000Y-149860000D02*
X117180000Y-149860000D01*
X110490000Y-147320000D02*
X113030000Y-149860000D01*
%TO.N,/SPI1_RX*%
X119380000Y-140040000D02*
X119380000Y-138430000D01*
X118015000Y-141405000D02*
X119380000Y-140040000D01*
X113865000Y-141405000D02*
X118015000Y-141405000D01*
X107950000Y-147320000D02*
X113865000Y-141405000D01*
%TO.N,/SPI1_CSn*%
X121920000Y-140040000D02*
X121920000Y-138430000D01*
X118945000Y-141405000D02*
X120555000Y-141405000D01*
X113030000Y-147320000D02*
X118945000Y-141405000D01*
X120555000Y-141405000D02*
X121920000Y-140040000D01*
%TO.N,Net-(Q2-G)*%
X119380000Y-92710000D02*
X123190000Y-96520000D01*
X119380000Y-91115000D02*
X119380000Y-92710000D01*
%TO.N,Net-(Q1-B)*%
X173990000Y-114300000D02*
X167640000Y-114300000D01*
%TO.N,Net-(U2A-+)*%
X174625000Y-132080000D02*
X175260000Y-131445000D01*
X161300000Y-132080000D02*
X174625000Y-132080000D01*
X160035000Y-130815000D02*
X161300000Y-132080000D01*
X176530000Y-130175000D02*
X175260000Y-131445000D01*
X176530000Y-124460000D02*
X176530000Y-130175000D01*
%TO.N,/Water Pressure 5V*%
X172720000Y-136525000D02*
X172720000Y-137160000D01*
X177800000Y-131445000D02*
X172720000Y-136525000D01*
%TO.N,/ADC0*%
X158770000Y-139700000D02*
X151130000Y-139700000D01*
X147320000Y-135890000D02*
X132080000Y-135890000D01*
X151130000Y-139700000D02*
X147320000Y-135890000D01*
X160035000Y-138435000D02*
X158770000Y-139700000D01*
X160035000Y-133355000D02*
X160035000Y-138435000D01*
X132080000Y-135890000D02*
X116840000Y-120650000D01*
%TO.N,Net-(U1-AGND)*%
X111760000Y-120650000D02*
X111760000Y-115570000D01*
X111760000Y-115570000D02*
X114300000Y-113030000D01*
D33*
%TO.N,Net-(D2-A)*%
X150805000Y-81280000D02*
X152400000Y-81280000D01*
X152400000Y-81280000D02*
X166370000Y-95250000D01*
X166370000Y-95250000D02*
X166370000Y-104140000D01*
D32*
%TO.N,Net-(Q3-G)*%
X150805000Y-83820000D02*
X150805000Y-89225000D01*
X150805000Y-89225000D02*
X148590000Y-91440000D01*
%TO.N,Net-(Q4-B)*%
X123190000Y-105410000D02*
X116840000Y-105410000D01*
%TD*%
M02*
