%TF.GenerationSoftware,KiCad,Pcbnew,7.0.10*%
%TF.CreationDate,2024-07-20T16:55:23-06:00*%
%TF.ProjectId,Pressure-Controlled-Power-Outlet-control-PCB,50726573-7375-4726-952d-436f6e74726f,V1.2.3*%
%TF.SameCoordinates,Original*%
%TF.FileFunction,Soldermask,Bot*%
%TF.FilePolarity,Negative*%
%FSLAX46Y46*%
G04 Gerber Fmt 4.6, Leading zero omitted, Abs format (unit mm)*
G04 Created by KiCad (PCBNEW 7.0.10) date 2024-07-20 16:55:23*
%MOMM*%
%LPD*%
G01*
G04 APERTURE LIST*
%ADD10R,3.200000X3.200000*%
%ADD11O,3.200000X3.200000*%
%ADD12R,1.500000X1.050000*%
%ADD13O,1.500000X1.050000*%
%ADD14R,1.050000X1.500000*%
%ADD15O,1.050000X1.500000*%
%ADD16C,1.600000*%
%ADD17O,1.600000X1.600000*%
%ADD18R,1.700000X1.700000*%
%ADD19O,1.700000X1.700000*%
%ADD20C,1.100000*%
%ADD21R,1.730000X2.030000*%
%ADD22O,1.730000X2.030000*%
%ADD23R,2.000000X1.905000*%
%ADD24O,2.000000X1.905000*%
%ADD25R,1.600000X1.600000*%
%ADD26R,1.905000X2.000000*%
%ADD27O,1.905000X2.000000*%
%ADD28R,3.150000X3.150000*%
%ADD29C,3.150000*%
%ADD30C,1.650000*%
%ADD31C,4.400000*%
%ADD32C,2.550000*%
%ADD33O,1.800000X1.800000*%
%ADD34O,1.500000X1.500000*%
%ADD35R,1.600000X2.400000*%
%ADD36O,1.600000X2.400000*%
G04 APERTURE END LIST*
D10*
%TO.C,D2*%
X181610000Y-96520000D03*
D11*
X166370000Y-96520000D03*
%TD*%
D10*
%TO.C,D1*%
X106680000Y-96520000D03*
D11*
X91440000Y-96520000D03*
%TD*%
D12*
%TO.C,Q1*%
X153670000Y-91440000D03*
D13*
X153670000Y-92710000D03*
X153670000Y-93980000D03*
%TD*%
D14*
%TO.C,Q7*%
X157480000Y-133350000D03*
D15*
X158750000Y-133350000D03*
X160020000Y-133350000D03*
%TD*%
D16*
%TO.C,R17*%
X148590000Y-124460000D03*
D17*
X148590000Y-121920000D03*
%TD*%
D16*
%TO.C,R16*%
X157480000Y-116840000D03*
D17*
X160020000Y-116840000D03*
%TD*%
D16*
%TO.C,R15*%
X162560000Y-149860000D03*
D17*
X162560000Y-147320000D03*
%TD*%
D16*
%TO.C,R14*%
X143510000Y-149860000D03*
D17*
X146050000Y-149860000D03*
%TD*%
D16*
%TO.C,R13*%
X151130000Y-132080000D03*
D17*
X151130000Y-134620000D03*
%TD*%
%TO.C,R12*%
X165100000Y-134620000D03*
D16*
X165100000Y-132080000D03*
%TD*%
D14*
%TO.C,Q8*%
X148590000Y-113030000D03*
D15*
X149860000Y-113030000D03*
X151130000Y-113030000D03*
%TD*%
D18*
%TO.C,J6*%
X175260000Y-139700000D03*
D19*
X177800000Y-139700000D03*
X180340000Y-139700000D03*
%TD*%
%TO.C,J5*%
X180340000Y-133350000D03*
X177800000Y-133350000D03*
D18*
X175260000Y-133350000D03*
%TD*%
%TO.C,J1*%
X91440000Y-105410000D03*
D19*
X91440000Y-107950000D03*
X91440000Y-110490000D03*
%TD*%
D16*
%TO.C,R11*%
X166370000Y-118110000D03*
D17*
X166370000Y-120650000D03*
%TD*%
D16*
%TO.C,R10*%
X157480000Y-110490000D03*
D17*
X160020000Y-110490000D03*
%TD*%
D14*
%TO.C,Q6*%
X171450000Y-115570000D03*
D15*
X172720000Y-115570000D03*
X173990000Y-115570000D03*
%TD*%
D14*
%TO.C,Q5*%
X165100000Y-107950000D03*
D15*
X166370000Y-107950000D03*
X167640000Y-107950000D03*
%TD*%
D20*
%TO.C,M1*%
X152400000Y-152020000D03*
D21*
X157480000Y-149860000D03*
D22*
X154940000Y-149860000D03*
X152400000Y-149860000D03*
X149860000Y-149860000D03*
%TD*%
D20*
%TO.C,M2*%
X170180000Y-152320000D03*
D21*
X175260000Y-150160000D03*
D22*
X172720000Y-150160000D03*
X170180000Y-150160000D03*
X167640000Y-150160000D03*
%TD*%
D23*
%TO.C,Q3*%
X152075000Y-76200000D03*
D24*
X152075000Y-73660000D03*
X152075000Y-71120000D03*
%TD*%
D25*
%TO.C,C2*%
X133890000Y-109220000D03*
D16*
X135890000Y-109220000D03*
%TD*%
D26*
%TO.C,Q2*%
X121920000Y-86035000D03*
D27*
X124460000Y-86035000D03*
X127000000Y-86035000D03*
%TD*%
D28*
%TO.C,K1*%
X112625000Y-62490000D03*
D29*
X112625000Y-70110000D03*
D30*
X108815000Y-85350000D03*
X98655000Y-85350000D03*
D29*
X94845000Y-72650000D03*
%TD*%
D16*
%TO.C,R3*%
X123190000Y-113030000D03*
D17*
X125730000Y-113030000D03*
%TD*%
D31*
%TO.C,H1*%
X181610000Y-147320000D03*
%TD*%
%TO.C,H2*%
X91440000Y-147320000D03*
%TD*%
D16*
%TO.C,R8*%
X129540000Y-99060000D03*
D17*
X132080000Y-99060000D03*
%TD*%
D16*
%TO.C,R9*%
X148590000Y-95250000D03*
D17*
X148590000Y-92710000D03*
%TD*%
D18*
%TO.C,J3*%
X128275000Y-149860000D03*
D19*
X130815000Y-149860000D03*
X133355000Y-149860000D03*
X135895000Y-149860000D03*
X138435000Y-149860000D03*
%TD*%
D16*
%TO.C,C3*%
X137160000Y-101600000D03*
D25*
X134660000Y-101600000D03*
%TD*%
D16*
%TO.C,R6*%
X153670000Y-85090000D03*
D17*
X153670000Y-82550000D03*
%TD*%
D23*
%TO.C,U3*%
X141295000Y-102870000D03*
D24*
X141295000Y-105410000D03*
X141295000Y-107950000D03*
%TD*%
D32*
%TO.C,J2*%
X139722500Y-77575000D03*
X133372500Y-68075000D03*
%TD*%
D31*
%TO.C,H4*%
X123190000Y-60960000D03*
%TD*%
D16*
%TO.C,R7*%
X129540000Y-93980000D03*
D17*
X129540000Y-91440000D03*
%TD*%
D25*
%TO.C,C1*%
X125420000Y-69850000D03*
D16*
X121920000Y-69850000D03*
%TD*%
D28*
%TO.C,K2*%
X180340000Y-62490000D03*
D29*
X180340000Y-70110000D03*
D30*
X176530000Y-85350000D03*
X166370000Y-85350000D03*
D29*
X162560000Y-72650000D03*
%TD*%
D33*
%TO.C,U1*%
X94110000Y-132265000D03*
D34*
X97140000Y-131965000D03*
X97140000Y-127115000D03*
D33*
X94110000Y-126815000D03*
D19*
X93980000Y-138430000D03*
X96520000Y-138430000D03*
D18*
X99060000Y-138430000D03*
D19*
X101600000Y-138430000D03*
X104140000Y-138430000D03*
X106680000Y-138430000D03*
X109220000Y-138430000D03*
D18*
X111760000Y-138430000D03*
D19*
X114300000Y-138430000D03*
X116840000Y-138430000D03*
X119380000Y-138430000D03*
X121920000Y-138430000D03*
D18*
X124460000Y-138430000D03*
D19*
X127000000Y-138430000D03*
X129540000Y-138430000D03*
X132080000Y-138430000D03*
X134620000Y-138430000D03*
D18*
X137160000Y-138430000D03*
D19*
X139700000Y-138430000D03*
X142240000Y-138430000D03*
X142240000Y-120650000D03*
X139700000Y-120650000D03*
D18*
X137160000Y-120650000D03*
D19*
X134620000Y-120650000D03*
X132080000Y-120650000D03*
X129540000Y-120650000D03*
X127000000Y-120650000D03*
D18*
X124460000Y-120650000D03*
D19*
X121920000Y-120650000D03*
X119380000Y-120650000D03*
X116840000Y-120650000D03*
X114300000Y-120650000D03*
D18*
X111760000Y-120650000D03*
D19*
X109220000Y-120650000D03*
X106680000Y-120650000D03*
X104140000Y-120650000D03*
X101600000Y-120650000D03*
D18*
X99060000Y-120650000D03*
D19*
X96520000Y-120650000D03*
X93980000Y-120650000D03*
X142010000Y-132080000D03*
D18*
X142010000Y-129540000D03*
D19*
X142010000Y-127000000D03*
%TD*%
D16*
%TO.C,R1*%
X95250000Y-103313652D03*
D17*
X97790000Y-103313652D03*
%TD*%
D31*
%TO.C,H3*%
X152400000Y-60960000D03*
%TD*%
D16*
%TO.C,R5*%
X144780000Y-86360000D03*
D17*
X144780000Y-83820000D03*
%TD*%
D35*
%TO.C,U2*%
X104135000Y-109235000D03*
D36*
X106675000Y-109235000D03*
X109215000Y-109235000D03*
X111755000Y-109235000D03*
X114295000Y-109235000D03*
X116835000Y-109235000D03*
X119375000Y-109235000D03*
X119375000Y-101615000D03*
X116835000Y-101615000D03*
X114295000Y-101615000D03*
X111755000Y-101615000D03*
X109215000Y-101615000D03*
X106675000Y-101615000D03*
X104135000Y-101615000D03*
%TD*%
D17*
%TO.C,R2*%
X110490000Y-113030000D03*
D16*
X107950000Y-113030000D03*
%TD*%
D15*
%TO.C,Q4*%
X135890000Y-92710000D03*
X134620000Y-92710000D03*
D14*
X133350000Y-92710000D03*
%TD*%
D16*
%TO.C,R4*%
X119380000Y-93980000D03*
D17*
X119380000Y-91440000D03*
%TD*%
D18*
%TO.C,J4*%
X102870000Y-149860000D03*
D19*
X105410000Y-149860000D03*
X107950000Y-149860000D03*
X110490000Y-149860000D03*
X113030000Y-149860000D03*
X115570000Y-149860000D03*
%TD*%
M02*
